<svg width="135" height="40" viewBox="0 0 135 40" fill="none" xmlns="http://www.w3.org/2000/svg">
<path d="M89.5542 19.201V21.492H88.1182V22.9944H89.5542V28.0994C89.5542 29.8426 90.3428 30.5398 92.3267 30.5398C92.6753 30.5398 93.0074 30.4983 93.2979 30.4485V28.9627C93.0489 28.9876 92.8912 29.0042 92.6172 29.0042C91.7291 29.0042 91.3389 28.5892 91.3389 27.6429V22.9944H93.2979V21.492H91.3389V19.201H89.5542Z" fill="#1D1D21"/>
<path d="M98.3517 30.6644C100.991 30.6644 102.61 28.8963 102.61 25.9661C102.61 23.0525 100.983 21.2762 98.3517 21.2762C95.7121 21.2762 94.0851 23.0525 94.0851 25.9661C94.0851 28.8963 95.7038 30.6644 98.3517 30.6644ZM98.3517 29.0789C96.7995 29.0789 95.9279 27.9417 95.9279 25.9661C95.9279 24.0071 96.7995 22.8616 98.3517 22.8616C99.8957 22.8616 100.776 24.0071 100.776 25.9661C100.776 27.9334 99.8957 29.0789 98.3517 29.0789Z" fill="#1D1D21"/>
<path d="M103.995 30.49H105.78V25.1526C105.78 23.8826 106.734 23.0276 108.087 23.0276C108.403 23.0276 108.934 23.0857 109.083 23.1356V21.3758C108.892 21.326 108.552 21.3011 108.286 21.3011C107.108 21.3011 106.103 21.9485 105.846 22.8367H105.713V21.4505H103.995V30.49Z" fill="#1D1D21"/>
<path d="M113.515 22.7952C114.834 22.7952 115.698 23.7166 115.739 25.136H111.174C111.273 23.7249 112.195 22.7952 113.515 22.7952ZM115.731 28.0496C115.399 28.7552 114.66 29.1453 113.581 29.1453C112.153 29.1453 111.232 28.1409 111.174 26.5555V26.4559H117.557V25.8333C117.557 22.9944 116.038 21.2762 113.523 21.2762C110.975 21.2762 109.356 23.1107 109.356 25.9993C109.356 28.888 110.941 30.6644 113.531 30.6644C115.598 30.6644 117.042 29.6683 117.449 28.0496H115.731Z" fill="#1D1D21"/>
<path d="M77.8507 27.1519C77.9883 29.3716 79.8381 30.7912 82.5912 30.7912C85.5336 30.7912 87.3748 29.3028 87.3748 26.9282C87.3748 25.0612 86.3251 24.0288 83.7785 23.4352L82.4105 23.0996C80.7931 22.7211 80.1392 22.2135 80.1392 21.3273C80.1392 20.2088 81.1544 19.4775 82.6772 19.4775C84.1226 19.4775 85.1206 20.1916 85.3013 21.3359H87.1769C87.065 19.2452 85.2239 17.774 82.703 17.774C79.9929 17.774 78.1862 19.2452 78.1862 21.4564C78.1862 23.2803 79.21 24.3643 81.4555 24.8892L83.0558 25.2763C84.6991 25.6635 85.4218 26.2313 85.4218 27.1777C85.4218 28.2789 84.2861 29.0791 82.7375 29.0791C81.077 29.0791 79.9241 28.3306 79.7606 27.1519H77.8507Z" fill="#1D1D21"/>
<path d="M59.3633 21.3011C58.1348 21.3011 57.0723 21.9153 56.5245 22.9446H56.3917V21.4505H54.6734V33.4949H56.4581V29.1204H56.5992C57.0723 30.075 58.0933 30.6395 59.3799 30.6395C61.6626 30.6395 63.1153 28.8382 63.1153 25.9661C63.1153 23.094 61.6626 21.3011 59.3633 21.3011ZM58.857 29.0374C57.3628 29.0374 56.4249 27.8587 56.4249 25.9744C56.4249 24.0818 57.3628 22.9031 58.8653 22.9031C60.376 22.9031 61.2808 24.0569 61.2808 25.9661C61.2808 27.8836 60.376 29.0374 58.857 29.0374Z" fill="#1D1D21"/>
<path d="M69.3601 21.3011C68.1316 21.3011 67.0691 21.9153 66.5213 22.9446H66.3884V21.4505H64.6702V33.4949H66.4549V29.1204H66.596C67.0691 30.075 68.0901 30.6395 69.3767 30.6395C71.6594 30.6395 73.1121 28.8382 73.1121 25.9661C73.1121 23.094 71.6594 21.3011 69.3601 21.3011ZM68.8538 29.0374C67.3596 29.0374 66.4216 27.8587 66.4216 25.9744C66.4216 24.0818 67.3596 22.9031 68.8621 22.9031C70.3728 22.9031 71.2776 24.0569 71.2776 25.9661C71.2776 27.8836 70.3728 29.0374 68.8538 29.0374Z" fill="#1D1D21"/>
<path d="M51.4714 30.49H53.519L49.0366 18.0752H46.9631L42.4807 30.49H44.4595L45.6038 27.1949H50.3357L51.4714 30.49ZM47.9009 20.3293H48.0472L49.8453 25.5774H46.0942L47.9009 20.3293Z" fill="#1D1D21"/>
<path d="M43.6794 8.71094V14.7H45.8418C47.6265 14.7 48.6599 13.6001 48.6599 11.6868C48.6599 9.80249 47.6182 8.71094 45.8418 8.71094H43.6794ZM44.6091 9.55762H45.738C46.979 9.55762 47.7136 10.3462 47.7136 11.6992C47.7136 13.073 46.9915 13.8533 45.738 13.8533H44.6091V9.55762Z" fill="#1D1D21"/>
<path d="M51.825 14.7871C53.1448 14.7871 53.9542 13.9031 53.9542 12.438C53.9542 10.9812 53.1407 10.093 51.825 10.093C50.5052 10.093 49.6917 10.9812 49.6917 12.438C49.6917 13.9031 50.501 14.7871 51.825 14.7871ZM51.825 13.9944C51.0489 13.9944 50.6131 13.4258 50.6131 12.438C50.6131 11.4585 51.0489 10.8857 51.825 10.8857C52.597 10.8857 53.0369 11.4585 53.0369 12.438C53.0369 13.4216 52.597 13.9944 51.825 13.9944Z" fill="#1D1D21"/>
<path d="M60.8463 10.1802H59.954L59.1488 13.6292H59.0782L58.1485 10.1802H57.2936L56.3639 13.6292H56.2975L55.4881 10.1802H54.5833L55.8285 14.7H56.7457L57.6754 11.3713H57.7459L58.6798 14.7H59.6053L60.8463 10.1802Z" fill="#1D1D21"/>
<path d="M61.8739 14.7H62.7663V12.0562C62.7663 11.3506 63.1854 10.9106 63.8454 10.9106C64.5053 10.9106 64.8207 11.2717 64.8207 11.998V14.7H65.713V11.7739C65.713 10.699 65.1569 10.093 64.1483 10.093C63.4677 10.093 63.0194 10.396 62.7995 10.8982H62.7331V10.1802H61.8739V14.7Z" fill="#1D1D21"/>
<path d="M67.1184 14.7H68.0107V8.41626H67.1184V14.7Z" fill="#1D1D21"/>
<path d="M71.3667 14.7871C72.6865 14.7871 73.4958 13.9031 73.4958 12.438C73.4958 10.9812 72.6824 10.093 71.3667 10.093C70.0469 10.093 69.2334 10.9812 69.2334 12.438C69.2334 13.9031 70.0427 14.7871 71.3667 14.7871ZM71.3667 13.9944C70.5906 13.9944 70.1548 13.4258 70.1548 12.438C70.1548 11.4585 70.5906 10.8857 71.3667 10.8857C72.1387 10.8857 72.5786 11.4585 72.5786 12.438C72.5786 13.4216 72.1387 13.9944 71.3667 13.9944Z" fill="#1D1D21"/>
<path d="M76.1546 14.0234C75.669 14.0234 75.3162 13.7869 75.3162 13.3801C75.3162 12.9817 75.5984 12.77 76.221 12.7285L77.325 12.658V13.0356C77.325 13.5959 76.827 14.0234 76.1546 14.0234ZM75.9263 14.7747C76.5198 14.7747 77.0137 14.5173 77.2835 14.0649H77.354V14.7H78.2132V11.6121C78.2132 10.6575 77.574 10.093 76.441 10.093C75.4158 10.093 74.6854 10.5911 74.594 11.3672H75.4573C75.5569 11.0476 75.9014 10.865 76.3995 10.865C77.0096 10.865 77.325 11.1348 77.325 11.6121V12.0022L76.1006 12.0728C75.0257 12.1392 74.4197 12.6082 74.4197 13.4216C74.4197 14.2476 75.0547 14.7747 75.9263 14.7747Z" fill="#1D1D21"/>
<path d="M81.2413 14.7747C81.8639 14.7747 82.391 14.48 82.6607 13.9861H82.7313V14.7H83.5863V8.41626H82.6939V10.8982H82.6275C82.3827 10.4001 81.8597 10.1055 81.2413 10.1055C80.0999 10.1055 79.3653 11.0103 79.3653 12.438C79.3653 13.8699 80.0916 14.7747 81.2413 14.7747ZM81.4945 10.9065C82.2416 10.9065 82.7105 11.5 82.7105 12.4421C82.7105 13.3884 82.2457 13.9736 81.4945 13.9736C80.7391 13.9736 80.2867 13.3967 80.2867 12.438C80.2867 11.4875 80.7433 10.9065 81.4945 10.9065Z" fill="#1D1D21"/>
<path d="M89.3728 14.7871C90.6926 14.7871 91.5019 13.9031 91.5019 12.438C91.5019 10.9812 90.6884 10.093 89.3728 10.093C88.0529 10.093 87.2395 10.9812 87.2395 12.438C87.2395 13.9031 88.0488 14.7871 89.3728 14.7871ZM89.3728 13.9944C88.5966 13.9944 88.1608 13.4258 88.1608 12.438C88.1608 11.4585 88.5966 10.8857 89.3728 10.8857C90.1447 10.8857 90.5847 11.4585 90.5847 12.438C90.5847 13.4216 90.1447 13.9944 89.3728 13.9944Z" fill="#1D1D21"/>
<path d="M92.6831 14.7H93.5754V12.0562C93.5754 11.3506 93.9946 10.9106 94.6545 10.9106C95.3145 10.9106 95.6299 11.2717 95.6299 11.998V14.7H96.5222V11.7739C96.5222 10.699 95.9661 10.093 94.9575 10.093C94.2769 10.093 93.8286 10.396 93.6086 10.8982H93.5422V10.1802H92.6831V14.7Z" fill="#1D1D21"/>
<path d="M100.632 9.05542V10.2009H99.9139V10.9521H100.632V13.5046C100.632 14.3762 101.026 14.7249 102.018 14.7249C102.192 14.7249 102.358 14.7041 102.504 14.6792V13.9363C102.379 13.9487 102.3 13.957 102.163 13.957C101.719 13.957 101.524 13.7495 101.524 13.2764V10.9521H102.504V10.2009H101.524V9.05542H100.632Z" fill="#1D1D21"/>
<path d="M103.702 14.7H104.594V12.0603C104.594 11.3755 105.001 10.9148 105.731 10.9148C106.362 10.9148 106.698 11.28 106.698 12.0022V14.7H107.59V11.7822C107.59 10.7073 106.997 10.0972 106.034 10.0972C105.353 10.0972 104.876 10.4001 104.656 10.9065H104.586V8.41626H103.702V14.7Z" fill="#1D1D21"/>
<path d="M110.81 10.8525C111.469 10.8525 111.901 11.3132 111.922 12.0229H109.639C109.689 11.3174 110.15 10.8525 110.81 10.8525ZM111.918 13.4797C111.752 13.8325 111.382 14.0276 110.843 14.0276C110.129 14.0276 109.668 13.5254 109.639 12.7327V12.6829H112.831V12.3716C112.831 10.9521 112.071 10.093 110.814 10.093C109.539 10.093 108.73 11.0103 108.73 12.4546C108.73 13.8989 109.523 14.7871 110.818 14.7871C111.851 14.7871 112.573 14.2891 112.777 13.4797H111.918Z" fill="#1D1D21"/>
<path d="M30.375 19.8267C30.4019 17.8196 31.5229 15.9205 33.3013 14.8692C32.1794 13.3286 30.3002 12.3518 28.3451 12.293C26.2599 12.0826 24.2384 13.4928 23.1758 13.4928C22.0926 13.4928 20.4566 12.3139 18.6948 12.3488C16.3984 12.4201 14.2577 13.6754 13.1404 15.6058C10.7388 19.6037 12.5302 25.4794 14.8307 28.711C15.9817 30.2934 17.3269 32.0611 19.0871 31.9984C20.8095 31.9297 21.4528 30.9423 23.5319 30.9423C25.5917 30.9423 26.1953 31.9984 27.9911 31.9585C29.8394 31.9297 31.0038 30.3691 32.1145 28.7716C32.9415 27.6441 33.5778 26.3979 34 25.0792C31.828 24.1959 30.3775 22.0942 30.375 19.8267Z" fill="#1D1D21"/>
<path d="M26.9828 10.1677C27.9906 9.00454 28.487 7.50947 28.3668 6C26.8272 6.15548 25.4051 6.86298 24.3837 7.98154C23.385 9.07443 22.8652 10.5432 22.9635 11.995C24.5036 12.0102 26.0177 11.3219 26.9828 10.1677Z" fill="#1D1D21"/>
<path fill-rule="evenodd" clip-rule="evenodd" d="M128 1H7C3.68629 1 1 3.68629 1 7V33C1 36.3137 3.68629 39 7 39H128C131.314 39 134 36.3137 134 33V7C134 3.68629 131.314 1 128 1ZM7 0C3.13401 0 0 3.13401 0 7V33C0 36.866 3.13401 40 7 40H128C131.866 40 135 36.866 135 33V7C135 3.13401 131.866 0 128 0H7Z" fill="#1D1D21"/>
</svg>
