<svg width="169" height="56" viewBox="0 0 169 56" fill="none" xmlns="http://www.w3.org/2000/svg">
<g clip-path="url(#clip0_70_6104)">
<path d="M154.924 2.40881e-06H14.0837C13.5703 2.40881e-06 13.0631 2.40887e-06 12.551 0.00280242C12.1224 0.00560243 11.6972 0.0137365 11.2645 0.0205825C10.3244 0.031645 9.38656 0.11435 8.45905 0.267977C7.53284 0.424949 6.63565 0.720887 5.79782 1.14578C4.96101 1.57427 4.19639 2.13104 3.53171 2.79591C2.86353 3.45891 2.30656 4.22524 1.8822 5.06544C1.45667 5.90397 1.1616 6.80254 1.0072 7.7301C0.851323 8.65649 0.767445 9.59356 0.756317 10.5329C0.743325 10.9621 0.741953 11.3928 0.735107 11.8221V44.1822C0.741953 44.6169 0.743325 45.038 0.756317 45.4728C0.767449 46.4121 0.851326 47.3492 1.0072 48.2755C1.16118 49.2036 1.45626 50.1027 1.8822 50.9415C2.30636 51.779 2.86342 52.5423 3.53171 53.2016C4.19387 53.8694 4.95898 54.4265 5.79782 54.8518C6.63564 55.2778 7.53274 55.5755 8.45905 55.7349C9.38671 55.8873 10.3245 55.97 11.2645 55.9824C11.6972 55.9919 12.1224 55.9974 12.551 55.9974C13.063 56.0002 13.5703 56.0002 14.0837 56.0002H154.924C155.427 56.0002 155.938 56.0002 156.441 55.9974C156.868 55.9974 157.305 55.9919 157.732 55.9824C158.67 55.9707 159.606 55.8879 160.532 55.7349C161.461 55.5744 162.362 55.2767 163.204 54.8518C164.042 54.4263 164.806 53.8692 165.468 53.2016C166.134 52.5397 166.692 51.777 167.122 50.9415C167.545 50.1021 167.837 49.2031 167.989 48.2755C168.145 47.349 168.232 46.4122 168.248 45.4728C168.254 45.038 168.254 44.6169 168.254 44.1822C168.265 43.6736 168.265 43.1677 168.265 42.6509V13.3506C168.265 12.8379 168.265 12.3293 168.254 11.8221C168.254 11.3928 168.254 10.9621 168.248 10.5329C168.232 9.59342 168.145 8.65656 167.989 7.73004C167.836 6.80302 167.544 5.90453 167.122 5.06539C166.258 3.38129 164.887 2.01044 163.204 1.14565C162.362 0.721799 161.461 0.42594 160.532 0.267851C159.606 0.113547 158.67 0.0308134 157.732 0.0203865C157.305 0.0135545 156.868 0.00535043 156.441 0.00262042C155.938 -0.000179592 155.427 2.40881e-06 154.924 2.40881e-06Z" fill="#AFACAB"/>
<path d="M12.5579 54.7751C12.1314 54.7751 11.7151 54.7696 11.2919 54.7601C10.4152 54.7487 9.54058 54.6724 8.67514 54.5318C7.86817 54.3928 7.08643 54.1343 6.35571 53.7647C5.63169 53.3982 4.97132 52.9177 4.39991 52.3415C3.82022 51.7721 3.33761 51.1116 2.97119 50.3864C2.60074 49.6564 2.34436 48.874 2.21099 48.0663C2.06697 47.1985 1.98904 46.3209 1.97789 45.4413C1.96902 45.146 1.9574 44.163 1.9574 44.163V11.8222C1.9574 11.8222 1.96977 10.8542 1.97796 10.5698C1.98864 9.69157 2.06611 8.81541 2.20971 7.94892C2.34332 7.13905 2.5999 6.35435 2.97055 5.62198C3.33562 4.89722 3.81555 4.2363 4.39175 3.66485C4.96729 3.08797 5.62977 2.60494 6.35502 2.23339C7.08406 1.86503 7.86433 1.60832 8.66967 1.47188C9.53795 1.32987 10.4156 1.25309 11.2954 1.24219L12.5586 1.2251H156.435L157.713 1.24288C158.585 1.25324 159.454 1.32933 160.315 1.4705C161.128 1.60866 161.917 1.86716 162.654 2.23749C164.107 2.98628 165.289 4.17093 166.035 5.6254C166.4 6.35271 166.652 7.13101 166.784 7.93388C166.93 8.80749 167.011 9.69053 167.028 10.576C167.032 10.9725 167.032 11.3983 167.032 11.8222C167.043 12.3472 167.043 12.8469 167.043 13.3507V42.6508C167.043 43.1594 167.043 43.6557 167.032 44.1561C167.032 44.6114 167.032 45.0284 167.026 45.4577C167.01 46.3273 166.93 47.1946 166.787 48.0526C166.656 48.8661 166.401 49.6546 166.031 50.3906C165.662 51.108 165.182 51.7627 164.609 52.3306C164.037 52.9099 163.376 53.3932 162.65 53.7621C161.915 54.1344 161.127 54.3939 160.315 54.5318C159.449 54.6731 158.575 54.7494 157.698 54.7601C157.288 54.7696 156.858 54.7751 156.441 54.7751L154.924 54.7779L12.5579 54.7751Z" fill="white"/>
<path d="M35.731 27.8455C35.7466 26.6303 36.0694 25.4389 36.6692 24.382C37.2691 23.3251 38.1265 22.4371 39.1618 21.8007C38.5041 20.8614 37.6365 20.0884 36.6278 19.5432C35.6192 18.9979 34.4973 18.6953 33.3512 18.6594C30.9065 18.4028 28.5364 20.1223 27.2906 20.1223C26.0207 20.1223 24.1026 18.6849 22.0372 18.7274C20.7012 18.7705 19.3991 19.159 18.2579 19.855C17.1167 20.551 16.1752 21.5307 15.5252 22.6988C12.7097 27.5736 14.8098 34.7379 17.507 38.6784C18.8564 40.6079 20.4335 42.7632 22.4971 42.6868C24.5164 42.603 25.2706 41.3991 27.7082 41.3991C30.1231 41.3991 30.8307 42.6868 32.9361 42.6382C35.103 42.603 36.4682 40.7001 37.7703 38.7523C38.7399 37.3774 39.486 35.8579 39.9809 34.25C38.7221 33.7176 37.6477 32.8264 36.892 31.6874C36.1362 30.5485 35.7324 29.2123 35.731 27.8455Z" fill="black"/>
<path d="M31.7553 16.0677C32.9368 14.6494 33.5188 12.8264 33.3779 10.9858C31.5729 11.1754 29.9056 12.0381 28.7081 13.402C28.1227 14.0683 27.6743 14.8434 27.3886 15.6831C27.1029 16.5228 26.9855 17.4106 27.0431 18.2957C27.9459 18.305 28.8391 18.1093 29.6553 17.7234C30.4715 17.3374 31.1896 16.7713 31.7553 16.0677Z" fill="black"/>
<path d="M59.9586 37.9957H53.3318L51.7404 42.6948H48.9336L55.2104 25.3096H58.1266L64.4033 42.6948H61.5486L59.9586 37.9957ZM54.0182 35.8274H59.271L56.6815 28.2012H56.609L54.0182 35.8274Z" fill="black"/>
<path d="M77.9576 36.3575C77.9576 40.2964 75.8494 42.8271 72.668 42.8271C71.8621 42.8692 71.0606 42.6836 70.3553 42.2914C69.6499 41.8992 69.0693 41.3163 68.6799 40.6095H68.6197V46.8876H66.0179V30.0192H68.5363V32.1274H68.5842C68.9915 31.424 69.5819 30.8441 70.2926 30.4495C71.0033 30.055 71.8076 29.8604 72.6201 29.8866C75.8371 29.8866 77.9576 32.4296 77.9576 36.3575ZM75.2834 36.3575C75.2834 33.7913 73.9572 32.1042 71.9338 32.1042C69.9459 32.1042 68.6088 33.8269 68.6088 36.3575C68.6088 38.9114 69.9459 40.6218 71.9338 40.6218C73.9572 40.6218 75.2834 38.947 75.2834 36.3575Z" fill="black"/>
<path d="M91.9091 36.3575C91.9091 40.2964 89.8002 42.8271 86.6188 42.8271C85.8129 42.8692 85.0114 42.6836 84.3061 42.2914C83.6008 41.8992 83.0201 41.3163 82.6307 40.6095H82.5705V46.8876H79.9688V30.0192H82.4871V32.1274H82.535C82.9423 31.424 83.5327 30.8441 84.2434 30.4495C84.9541 30.055 85.7584 29.8604 86.5709 29.8866C89.7879 29.8866 91.9091 32.4296 91.9091 36.3575ZM89.2342 36.3575C89.2342 33.7913 87.908 32.1042 85.8846 32.1042C83.8967 32.1042 82.5596 33.8269 82.5596 36.3575C82.5596 38.9114 83.8967 40.6218 85.8846 40.6218C87.908 40.6218 89.2342 38.947 89.2342 36.3575Z" fill="black"/>
<path d="M101.13 37.8507C101.323 39.5747 102.998 40.7067 105.286 40.7067C107.479 40.7067 109.057 39.5746 109.057 38.0201C109.057 36.6707 108.106 35.8627 105.852 35.309L103.599 34.7662C100.407 33.9951 98.9249 32.5022 98.9249 30.0795C98.9249 27.0799 101.539 25.0195 105.249 25.0195C108.924 25.0195 111.443 27.0799 111.528 30.0795H108.901C108.744 28.3445 107.31 27.2973 105.214 27.2973C103.118 27.2973 101.684 28.3569 101.684 29.899C101.684 31.1281 102.6 31.8514 104.841 32.405L106.756 32.8754C110.323 33.7189 111.804 35.1518 111.804 37.6947C111.804 40.9472 109.214 42.9843 105.094 42.9843C101.238 42.9843 98.635 40.9951 98.4668 37.8505L101.13 37.8507Z" fill="black"/>
<path d="M117.421 27.02V30.0196H119.832V32.08H117.421V39.0677C117.421 40.1532 117.904 40.6591 118.964 40.6591C119.25 40.6541 119.536 40.634 119.82 40.5989V42.6469C119.343 42.7359 118.859 42.7763 118.374 42.7672C115.808 42.7672 114.807 41.8034 114.807 39.3452V32.08H112.964V30.0196H114.807V27.02H117.421Z" fill="black"/>
<path d="M121.225 36.3579C121.225 32.3698 123.574 29.8638 127.236 29.8638C130.911 29.8638 133.249 32.3698 133.249 36.3579C133.249 40.3569 130.924 42.852 127.236 42.852C123.551 42.852 121.225 40.3569 121.225 36.3579ZM130.598 36.3579C130.598 33.6222 129.345 32.0075 127.236 32.0075C125.128 32.0075 123.875 33.6345 123.875 36.3579C123.875 39.1046 125.128 40.7069 127.236 40.7069C129.345 40.7069 130.598 39.1046 130.598 36.3579Z" fill="black"/>
<path d="M135.395 30.0196H137.876V32.177H137.936C138.104 31.5032 138.499 30.9077 139.054 30.4907C139.609 30.0737 140.291 29.8605 140.985 29.887C141.285 29.8859 141.584 29.9185 141.876 29.984V32.4176C141.498 32.302 141.103 32.2489 140.707 32.2604C140.329 32.2451 139.953 32.3117 139.603 32.4558C139.253 32.5998 138.939 32.8178 138.681 33.0949C138.423 33.3719 138.229 33.7014 138.111 34.0608C137.993 34.4201 137.953 34.8008 137.996 35.1766V42.6948H135.395L135.395 30.0196Z" fill="black"/>
<path d="M153.872 38.972C153.522 41.2729 151.281 42.852 148.414 42.852C144.727 42.852 142.438 40.3815 142.438 36.4181C142.438 32.4423 144.739 29.8638 148.305 29.8638C151.812 29.8638 154.017 32.2727 154.017 36.1159V37.0073H145.065V37.1645C145.023 37.631 145.082 38.101 145.236 38.5431C145.39 38.9853 145.637 39.3896 145.959 39.7292C146.282 40.0687 146.673 40.3358 147.106 40.5126C147.54 40.6895 148.006 40.772 148.474 40.7548C149.089 40.8124 149.706 40.67 150.234 40.3488C150.761 40.0276 151.171 39.5447 151.402 38.972L153.872 38.972ZM145.077 35.189H151.414C151.437 34.7695 151.374 34.3498 151.227 33.9561C151.08 33.5624 150.854 33.2033 150.562 32.9012C150.27 32.5991 149.919 32.3606 149.531 32.2007C149.142 32.0408 148.725 31.9629 148.305 31.972C147.881 31.9694 147.461 32.0508 147.069 32.2115C146.677 32.3721 146.321 32.6088 146.021 32.9079C145.72 33.207 145.483 33.5626 145.321 33.9541C145.159 34.3456 145.076 34.7653 145.077 35.189Z" fill="black"/>
<path d="M52.1685 15.7548H53.2855C53.4778 15.7788 53.673 15.7626 53.8587 15.7074C54.0444 15.6522 54.2167 15.5591 54.3647 15.434C54.5126 15.3089 54.6331 15.1545 54.7184 14.9805C54.8038 14.8066 54.8521 14.6168 54.8605 14.4232C54.8605 13.6528 54.2808 13.1551 53.2978 13.1551C53.1008 13.1276 52.9003 13.1398 52.7081 13.1911C52.5159 13.2423 52.3359 13.3316 52.1788 13.4535C52.0217 13.5755 51.8906 13.7277 51.7932 13.9012C51.6959 14.0747 51.6343 14.2659 51.6121 14.4635H50.3857C50.4068 14.1047 50.5015 13.7541 50.664 13.4335C50.8265 13.1129 51.0533 12.8291 51.3302 12.5999C51.6071 12.3708 51.9282 12.201 52.2735 12.1013C52.6188 12.0016 52.981 11.9741 53.3374 12.0204C54.9822 12.0204 56.1402 12.9412 56.1402 14.2667C56.1441 14.7107 55.9955 15.1426 55.7193 15.4904C55.4431 15.8381 55.056 16.0806 54.6226 16.1773V16.2757C55.1364 16.2985 55.6203 16.5238 55.9685 16.9023C56.3166 17.2809 56.5008 17.7819 56.4806 18.2958C56.4426 18.6652 56.3312 19.0233 56.153 19.3492C55.9748 19.675 55.7333 19.962 55.4427 20.1933C55.1521 20.4246 54.8183 20.5956 54.4608 20.6962C54.1033 20.7968 53.7293 20.8251 53.3607 20.7793C52.9914 20.8296 52.6157 20.8051 52.256 20.7071C51.8964 20.6092 51.5601 20.4398 51.2673 20.2092C50.9745 19.9785 50.7311 19.6912 50.5517 19.3645C50.3723 19.0378 50.2605 18.6783 50.223 18.3074H51.4685C51.5437 19.1065 52.2779 19.622 53.3607 19.622C54.4435 19.622 55.1504 19.043 55.1504 18.2268C55.1504 17.3989 54.4845 16.889 53.3211 16.889H52.1685V15.7548Z" fill="black"/>
<path d="M57.8956 18.7943C57.8956 17.6596 58.7419 17.0054 60.2404 16.9124L61.948 16.814V16.2698C61.948 15.604 61.5091 15.228 60.6574 15.228C59.9628 15.228 59.4829 15.483 59.3435 15.9287H58.139C58.2661 14.8459 59.2861 14.1514 60.7161 14.1514C62.2966 14.1514 63.188 14.9382 63.188 16.2698V20.5771H61.989V19.6912H61.8906C61.6908 20.009 61.4102 20.2681 61.0775 20.442C60.7448 20.6159 60.372 20.6983 59.997 20.681C59.7324 20.7085 59.4649 20.6803 59.2118 20.5981C58.9587 20.5159 58.7257 20.3817 58.5277 20.2039C58.3297 20.0261 58.1712 19.8089 58.0623 19.5661C57.9535 19.3233 57.8967 19.0604 57.8956 18.7943ZM61.948 18.2556V17.7286L60.4085 17.827C59.5403 17.8851 59.1465 18.1805 59.1465 18.7362C59.1465 19.3036 59.6387 19.6338 60.3155 19.6338C60.5138 19.6538 60.7142 19.6338 60.9046 19.5749C61.095 19.516 61.2716 19.4194 61.4239 19.2908C61.5762 19.1622 61.7011 19.0043 61.7911 18.8265C61.8812 18.6486 61.9345 18.4545 61.948 18.2556Z" fill="black"/>
<path d="M66.4899 15.3202V20.5771H65.2457V14.2729H69.3966V15.3201L66.4899 15.3202Z" fill="black"/>
<path d="M76.9351 17.422C76.9351 19.4249 75.922 20.6807 74.3306 20.6807C73.9399 20.7074 73.5498 20.6219 73.2061 20.4343C72.8624 20.2467 72.5794 19.9648 72.3906 19.6218H72.2921V22.6727H71.048V14.2727H72.2456V15.3145H72.3386C72.5309 14.9596 72.8175 14.6646 73.1669 14.4623C73.5162 14.26 73.9147 14.1582 74.3183 14.1681C75.922 14.1681 76.9351 15.4184 76.9351 17.422ZM75.6554 17.422C75.6554 16.0904 75.0251 15.2858 73.971 15.2858C72.9238 15.2858 72.2689 16.1075 72.2689 17.4275C72.2689 18.7414 72.9238 19.5637 73.9656 19.5637C75.0251 19.5637 75.6554 18.7591 75.6554 17.422Z" fill="black"/>
<path d="M78.5922 22.835V21.7638C78.7268 21.7809 78.8625 21.7886 78.9982 21.787C79.2633 21.8066 79.5263 21.7277 79.7367 21.5653C79.9471 21.403 80.0902 21.1686 80.1384 20.9072L80.2314 20.6003L77.9496 14.2729H79.3045L80.885 19.2803H80.9834L82.5584 14.2729H83.8778L81.5276 20.8375C80.9889 22.3715 80.3928 22.8637 79.1077 22.8637C79.0037 22.8637 78.7084 22.8521 78.5922 22.835Z" fill="black"/>
<path d="M84.8484 18.7878H86.0871C86.2087 19.3436 86.7297 19.6334 87.4584 19.6334C88.2869 19.6334 88.7955 19.2684 88.7955 18.701C88.7955 18.0933 88.3388 17.8035 87.4584 17.8035H86.515V16.8369H87.4419C88.1939 16.8369 88.5767 16.5477 88.5767 16.0207C88.5767 15.5579 88.2062 15.2045 87.4419 15.2045C86.746 15.2045 86.2375 15.4998 86.1567 15.9975H84.9578C85.0474 15.4256 85.3579 14.9118 85.8225 14.5665C86.287 14.2212 86.8685 14.072 87.4419 14.1511C88.9404 14.1511 89.7976 14.8285 89.7976 15.8935C89.8046 16.1901 89.7096 16.4801 89.5284 16.715C89.3472 16.95 89.0909 17.1156 88.8023 17.1842V17.2826C89.1459 17.3269 89.4613 17.4959 89.6886 17.7573C89.916 18.0188 90.0394 18.3546 90.0355 18.7011C90.0355 19.8995 89.0156 20.6924 87.4584 20.6924C86.0816 20.6923 84.9632 20.0614 84.8484 18.7878Z" fill="black"/>
<path d="M91.8265 20.5771V14.2729H93.0597V18.609H93.1582L96.0635 14.273H97.2967V20.5771H96.0635V16.2178H95.9705L93.0597 20.5771L91.8265 20.5771Z" fill="black"/>
<path d="M104.092 15.3201H102.106V20.577H100.861V15.3201H98.8757V14.2729H104.092V15.3201Z" fill="black"/>
<path d="M110.793 18.8746C110.624 19.4508 110.257 19.949 109.757 20.2824C109.258 20.6157 108.657 20.763 108.06 20.6984C107.645 20.7094 107.232 20.6299 106.851 20.4653C106.469 20.3008 106.128 20.0552 105.851 19.7456C105.574 19.436 105.367 19.0698 105.246 18.6725C105.125 18.2751 105.091 17.8561 105.148 17.4445C105.093 17.0317 105.127 16.6118 105.248 16.2133C105.369 15.8147 105.574 15.4468 105.85 15.1345C106.125 14.8222 106.465 14.5728 106.845 14.4031C107.226 14.2334 107.638 14.1474 108.055 14.151C109.809 14.151 110.868 15.3494 110.868 17.329V17.7631H106.417V17.8328C106.397 18.0642 106.426 18.2972 106.502 18.5167C106.577 18.7363 106.698 18.9376 106.856 19.1077C107.014 19.2778 107.206 19.4129 107.42 19.5044C107.633 19.5958 107.863 19.6417 108.096 19.6388C108.393 19.6744 108.694 19.6207 108.961 19.4846C109.228 19.3486 109.448 19.1362 109.594 18.8746L110.793 18.8746ZM106.417 16.843H109.6C109.615 16.6315 109.587 16.4191 109.515 16.2194C109.444 16.0196 109.332 15.837 109.186 15.6832C109.04 15.5294 108.863 15.4079 108.668 15.3264C108.472 15.2448 108.261 15.2052 108.049 15.2099C107.834 15.207 107.62 15.2472 107.421 15.3282C107.221 15.4093 107.04 15.5295 106.888 15.6817C106.736 15.834 106.616 16.0152 106.535 16.2146C106.454 16.4141 106.414 16.6278 106.417 16.843Z" fill="black"/>
<path d="M116.067 14.2729H118.909C120.142 14.2729 120.866 14.8978 120.866 15.8759C120.868 16.1863 120.763 16.488 120.569 16.7304C120.375 16.9728 120.104 17.1412 119.801 17.2076V17.306C120.169 17.3293 120.514 17.4931 120.765 17.7635C121.016 18.034 121.153 18.3905 121.149 18.7593C121.149 19.8592 120.321 20.577 118.938 20.577H116.067V14.2729ZM117.3 15.2279V16.8603H118.533C119.285 16.8603 119.645 16.5712 119.645 16.038C119.645 15.5465 119.332 15.2279 118.671 15.2279L117.3 15.2279ZM117.3 17.775V19.6221H118.775C119.511 19.6221 119.905 19.2974 119.905 18.7013C119.905 18.0703 119.459 17.775 118.619 17.775L117.3 17.775Z" fill="black"/>
</g>
<defs>
<clipPath id="clip0_70_6104">
<rect width="167.53" height="56" fill="white" transform="translate(0.735107)"/>
</clipPath>
</defs>
</svg>
