<svg width="1078" height="324" viewBox="0 0 1078 324" fill="none" xmlns="http://www.w3.org/2000/svg">
<path fill-rule="evenodd" clip-rule="evenodd" d="M323.881 123.727L226.188 196.422L268.056 323.519L162.181 244.565L56.3063 323.519L95.2875 204.606H121.756V244.565H162.181V204.606H121.756V164.166H81.3312V123.727H121.756V164.166H162.181V123.727H121.756L162.181 0L202.606 123.727H323.881ZM80.85 194.978H50.05V164.166H80.85V194.978ZM0 123.727H28.875V152.131H0V123.727ZM659.312 124.208H696.85L618.888 324L560.175 189.682L501.944 324L423.981 124.208H461.519L506.756 250.823L560.175 114.58L615.037 250.823L659.312 124.208ZM872.025 169.462C880.046 183.584 884.056 200.273 884.056 219.53C884.056 238.467 880.046 255.156 872.025 269.599C863.683 283.721 852.133 294.633 837.375 302.336C822.938 310.36 805.933 314.371 786.363 314.371H725.244V124.208H786.363C805.933 124.208 822.938 128.22 837.375 136.244C852.133 143.947 863.683 155.019 872.025 169.462ZM851.331 219.53C851.331 208.618 849.727 199.15 846.519 191.126C842.99 183.103 838.338 176.363 832.562 170.906C826.787 165.45 819.89 161.278 811.869 158.389C803.848 155.822 795.185 154.538 785.881 154.538H757.969V284.042H785.881C795.185 284.042 803.848 282.597 811.869 279.709C819.89 277.141 826.787 273.129 832.562 267.673C838.338 262.538 842.99 255.798 846.519 247.453C849.727 239.429 851.331 230.122 851.331 219.53ZM1019.77 265.266H949.988L928.331 314.371H892.238L985.119 113.617L1078 314.371H1041.91L1019.77 265.266ZM984.638 177.646L959.131 237.825H1010.62L984.638 177.646Z" fill="#F8F8F8"/>
</svg>
