<svg width="135" height="40" viewBox="0 0 135 40" fill="none" xmlns="http://www.w3.org/2000/svg">
<path d="M68.136 21.7511C65.784 21.7511 63.867 23.5401 63.867 26.0041C63.867 28.4531 65.784 30.2571 68.136 30.2571C70.489 30.2571 72.406 28.4531 72.406 26.0041C72.405 23.5401 70.488 21.7511 68.136 21.7511ZM68.136 28.5831C66.847 28.5831 65.736 27.5201 65.736 26.0051C65.736 24.4741 66.848 23.4271 68.136 23.4271C69.425 23.4271 70.536 24.4741 70.536 26.0051C70.536 27.5191 69.425 28.5831 68.136 28.5831ZM58.822 21.7511C56.47 21.7511 54.553 23.5401 54.553 26.0041C54.553 28.4531 56.47 30.2571 58.822 30.2571C61.175 30.2571 63.092 28.4531 63.092 26.0041C63.092 23.5401 61.175 21.7511 58.822 21.7511ZM58.822 28.5831C57.533 28.5831 56.422 27.5201 56.422 26.0051C56.422 24.4741 57.534 23.4271 58.822 23.4271C60.111 23.4271 61.222 24.4741 61.222 26.0051C61.223 27.5191 60.111 28.5831 58.822 28.5831ZM47.744 23.0571V24.8611H52.062C51.933 25.8761 51.595 26.6171 51.079 27.1321C50.451 27.7601 49.468 28.4531 47.744 28.4531C45.086 28.4531 43.008 26.3101 43.008 23.6521C43.008 20.9941 45.086 18.8511 47.744 18.8511C49.178 18.8511 50.225 19.4151 50.998 20.1401L52.271 18.8671C51.191 17.8361 49.758 17.0471 47.744 17.0471C44.103 17.0471 41.042 20.0111 41.042 23.6521C41.042 27.2931 44.103 30.2571 47.744 30.2571C49.709 30.2571 51.192 29.6121 52.351 28.4041C53.543 27.2121 53.914 25.5361 53.914 24.1831C53.914 23.7651 53.882 23.3781 53.817 23.0561H47.744V23.0571ZM93.052 24.4581C92.698 23.5081 91.618 21.7511 89.411 21.7511C87.22 21.7511 85.399 23.4751 85.399 26.0041C85.399 28.3881 87.204 30.2571 89.62 30.2571C91.569 30.2571 92.697 29.0651 93.165 28.3721L91.715 27.4051C91.232 28.1141 90.571 28.5811 89.62 28.5811C88.67 28.5811 87.993 28.1461 87.558 27.2921L93.245 24.9401L93.052 24.4581ZM87.252 25.8761C87.204 24.2321 88.525 23.3951 89.476 23.3951C90.217 23.3951 90.845 23.7661 91.055 24.2971L87.252 25.8761ZM82.629 30.0001H84.497V17.4991H82.629V30.0001ZM79.567 22.7021H79.503C79.084 22.2021 78.278 21.7511 77.264 21.7511C75.137 21.7511 73.188 23.6201 73.188 26.0211C73.188 28.4051 75.137 30.2581 77.264 30.2581C78.279 30.2581 79.084 29.8071 79.503 29.2921H79.567V29.9041C79.567 31.5311 78.697 32.4011 77.296 32.4011C76.152 32.4011 75.443 31.5801 75.153 30.8871L73.526 31.5641C73.993 32.6911 75.233 34.0771 77.296 34.0771C79.487 34.0771 81.34 32.7881 81.34 29.6461V22.0101H79.568V22.7021H79.567ZM77.425 28.5831C76.136 28.5831 75.057 27.5031 75.057 26.0211C75.057 24.5221 76.136 23.4271 77.425 23.4271C78.697 23.4271 79.696 24.5221 79.696 26.0211C79.696 27.5031 78.697 28.5831 77.425 28.5831ZM101.806 17.4991H97.335V30.0001H99.2V25.2641H101.805C103.873 25.2641 105.907 23.7671 105.907 21.3821C105.907 18.9971 103.874 17.4991 101.806 17.4991ZM101.854 23.5241H99.2V19.2391H101.854C103.249 19.2391 104.041 20.3941 104.041 21.3821C104.041 22.3501 103.249 23.5241 101.854 23.5241ZM113.386 21.7291C112.035 21.7291 110.636 22.3241 110.057 23.6431L111.713 24.3341C112.067 23.6431 112.727 23.4171 113.418 23.4171C114.383 23.4171 115.364 23.9961 115.38 25.0251V25.1541C115.042 24.9611 114.318 24.6721 113.434 24.6721C111.649 24.6721 109.831 25.6531 109.831 27.4861C109.831 29.1591 111.295 30.2361 112.935 30.2361C114.189 30.2361 114.881 29.6731 115.315 29.0131H115.379V29.9781H117.181V25.1851C117.182 22.9671 115.524 21.7291 113.386 21.7291ZM113.16 28.5801C112.55 28.5801 111.697 28.2741 111.697 27.5181C111.697 26.5531 112.759 26.1831 113.676 26.1831C114.495 26.1831 114.882 26.3601 115.38 26.6011C115.235 27.7601 114.238 28.5801 113.16 28.5801ZM123.743 22.0021L121.604 27.4221H121.54L119.32 22.0021H117.31L120.639 29.5771L118.741 33.7911H120.687L125.818 22.0021H123.743ZM106.937 30.0001H108.802V17.4991H106.937V30.0001Z" fill="#1D1D21"/>
<path d="M47.418 10.2429C47.418 11.0809 47.1701 11.7479 46.673 12.2459C46.109 12.8379 45.3731 13.1339 44.4691 13.1339C43.6031 13.1339 42.8661 12.8339 42.2611 12.2339C41.6551 11.6329 41.3521 10.8889 41.3521 10.0009C41.3521 9.11194 41.6551 8.36794 42.2611 7.76794C42.8661 7.16694 43.6031 6.86694 44.4691 6.86694C44.8991 6.86694 45.3101 6.95094 45.7001 7.11794C46.0911 7.28594 46.404 7.50894 46.6381 7.78794L46.111 8.31594C45.714 7.84094 45.167 7.60394 44.468 7.60394C43.836 7.60394 43.29 7.82594 42.829 8.26994C42.368 8.71394 42.1381 9.29094 42.1381 9.99994C42.1381 10.7089 42.368 11.2859 42.829 11.7299C43.29 12.1739 43.836 12.3959 44.468 12.3959C45.138 12.3959 45.6971 12.1729 46.1441 11.7259C46.4341 11.4349 46.602 11.0299 46.647 10.5109H44.468V9.78994H47.375C47.405 9.94694 47.418 10.0979 47.418 10.2429Z" fill="#1D1D21"/>
<path d="M52.0281 7.737H49.2961V9.639H51.7601V10.36H49.2961V12.262H52.0281V13H48.5251V7H52.0281V7.737Z" fill="#1D1D21"/>
<path d="M55.279 13H54.508V7.737H52.832V7H56.955V7.737H55.279V13Z" fill="#1D1D21"/>
<path d="M59.938 13V7H60.709V13H59.938Z" fill="#1D1D21"/>
<path d="M64.1281 13H63.3572V7.737H61.6812V7H65.8042V7.737H64.1281V13Z" fill="#1D1D21"/>
<path d="M73.6089 12.225C73.0189 12.831 72.2859 13.134 71.4089 13.134C70.5319 13.134 69.7989 12.831 69.2099 12.225C68.6199 11.619 68.3259 10.877 68.3259 9.99999C68.3259 9.12299 68.6199 8.38099 69.2099 7.77499C69.7989 7.16899 70.5319 6.86499 71.4089 6.86499C72.2809 6.86499 73.0129 7.16999 73.6049 7.77899C74.1969 8.38799 74.4929 9.12799 74.4929 9.99999C74.4929 10.877 74.1979 11.619 73.6089 12.225ZM69.7789 11.722C70.2229 12.172 70.7659 12.396 71.4089 12.396C72.0519 12.396 72.5959 12.171 73.0389 11.722C73.4829 11.272 73.7059 10.698 73.7059 9.99999C73.7059 9.30199 73.4829 8.72799 73.0389 8.27799C72.5959 7.82799 72.0519 7.60399 71.4089 7.60399C70.7659 7.60399 70.2229 7.82899 69.7789 8.27799C69.3359 8.72799 69.1129 9.30199 69.1129 9.99999C69.1129 10.698 69.3359 11.272 69.7789 11.722Z" fill="#1D1D21"/>
<path d="M75.5749 13V7H76.513L79.429 11.667H79.4619L79.429 10.511V7H80.1999V13H79.3949L76.344 8.106H76.3109L76.344 9.262V13H75.5749Z" fill="#1D1D21"/>
<path fill-rule="evenodd" clip-rule="evenodd" d="M71.4089 6.96498C70.5579 6.96498 69.8511 7.2588 69.2817 7.84468C68.7106 8.43119 68.4259 9.14787 68.4259 9.99998C68.4259 10.8521 68.7106 11.5687 69.2816 12.1552C69.851 12.741 70.5578 13.034 71.4089 13.034C72.2601 13.034 72.9669 12.7411 73.5373 12.1552C74.1074 11.5687 74.3929 10.852 74.3929 9.99998C74.3929 9.15326 74.1066 8.43848 73.5332 7.84869C72.9606 7.2596 72.2547 6.96498 71.4089 6.96498ZM69.1382 7.70529C69.7468 7.07917 70.506 6.76498 71.4089 6.76498C72.3072 6.76498 73.0653 7.08037 73.6767 7.70928C74.2873 8.33748 74.5929 9.10271 74.5929 9.99998C74.5929 10.9019 74.2885 11.6693 73.6807 12.2947C73.0711 12.9208 72.3118 13.234 71.4089 13.234C70.5061 13.234 69.7469 12.9209 69.1382 12.2947C68.5293 11.6692 68.2259 10.9018 68.2259 9.99998C68.2259 9.0981 68.5293 8.33078 69.1382 7.70529ZM44.4691 6.96694C43.6289 6.96694 42.9174 7.25688 42.3316 7.83888C41.7454 8.41924 41.4521 9.13738 41.4521 10.0009C41.4521 10.8635 41.7453 11.5815 42.3315 12.1629C42.9174 12.744 43.6289 13.0339 44.4691 13.0339C45.349 13.0339 46.0577 12.7469 46.6007 12.177L46.6023 12.1753C47.077 11.6996 47.3181 11.0599 47.3181 10.2429C47.3181 10.1291 47.3097 10.0115 47.2909 9.88994H44.5681V10.4109H46.7561L46.7467 10.5196C46.7002 11.0556 46.5255 11.4849 46.2149 11.7965C45.7479 12.2635 45.1628 12.4959 44.4681 12.4959C43.8098 12.4959 43.2391 12.2636 42.7597 11.802C42.2769 11.3369 42.0381 10.7328 42.0381 9.99994C42.0381 9.26707 42.2769 8.66294 42.7597 8.19791C43.2391 7.73624 43.8098 7.50394 44.4681 7.50394C45.1517 7.50394 45.7039 7.72397 46.1157 8.16974L46.5011 7.78358C46.286 7.5499 46.0065 7.35844 45.6606 7.20982C45.2832 7.0482 44.8857 6.96694 44.4691 6.96694ZM42.1907 7.69693C42.8148 7.07697 43.5773 6.76694 44.4691 6.76694C44.9125 6.76694 45.3369 6.85363 45.7394 7.02601C46.1423 7.19909 46.469 7.43074 46.7147 7.72368L46.7735 7.7938L46.1045 8.46405L46.0343 8.38007C45.6589 7.93091 45.1418 7.70394 44.4681 7.70394C43.8623 7.70394 43.3411 7.91564 42.8984 8.34196C42.4593 8.76494 42.2381 9.3148 42.2381 9.99994C42.2381 10.6851 42.4593 11.2349 42.8984 11.6579C43.3411 12.0842 43.8623 12.2959 44.4681 12.2959C45.1133 12.2959 45.6463 12.0822 46.0732 11.6553C46.3229 11.4048 46.4797 11.0596 46.536 10.6109H44.3681V9.68994H47.4578L47.4733 9.77117C47.5045 9.93461 47.5181 10.0919 47.5181 10.2429C47.5181 11.1015 47.2634 11.7956 46.7447 12.3158C46.1598 12.9293 45.3967 13.2339 44.4691 13.2339C43.5772 13.2339 42.8148 12.9239 42.1907 12.3049C41.5649 11.6843 41.2521 10.9144 41.2521 10.0009C41.2521 9.08652 41.5649 8.31656 42.1907 7.69693ZM48.4252 6.89999H52.1282V7.83699H49.3962V9.53899H51.8602V10.46H49.3962V12.162H52.1282V13.1H48.4252V6.89999ZM48.6252 7.09999V12.9H51.9282V12.362H49.1962V10.26H51.6602V9.73899H49.1962V7.63699H51.9282V7.09999H48.6252ZM52.7321 6.89999H57.0551V7.83699H55.3791V13.1H54.4081V7.83699H52.7321V6.89999ZM52.9321 7.09999V7.63699H54.6081V12.9H55.1791V7.63699H56.8551V7.09999H52.9321ZM59.838 6.89999H60.809V13.1H59.838V6.89999ZM60.038 7.09999V12.9H60.609V7.09999H60.038ZM61.5812 6.89999H65.9042V7.83699H64.2282V13.1H63.2572V7.83699H61.5812V6.89999ZM61.7812 7.09999V7.63699H63.4572V12.9H64.0282V7.63699H65.7042V7.09999H61.7812ZM75.475 6.89999H76.5684L79.3531 11.3568L79.329 10.5138L79.329 10.511V6.89999H80.3V13.1H79.3395L76.4199 8.41679L76.444 9.26199L76.444 13.1H75.475V6.89999ZM75.675 7.09999V12.9H76.244V9.26199L76.2081 8.006H76.3995L79.4505 12.9H80.1V7.09999H79.529V10.511L79.5649 11.767H79.3735L76.4575 7.09999H75.675ZM69.7078 8.20767C70.171 7.73934 70.7397 7.50398 71.4089 7.50398C72.078 7.50398 72.6479 7.73821 73.1101 8.20775C73.5745 8.67842 73.806 9.27858 73.806 9.99998C73.806 10.7214 73.5745 11.3215 73.1101 11.7922C72.6479 12.2607 72.0781 12.496 71.4089 12.496C70.7398 12.496 70.171 12.2617 69.7078 11.7922C69.2444 11.3216 69.013 10.7214 69.013 9.99998C69.013 9.27859 69.2445 8.67832 69.7078 8.20767ZM69.8501 8.3483C69.4275 8.77763 69.213 9.32546 69.213 9.99998C69.213 10.6745 69.4275 11.2224 69.8501 11.6518C70.2749 12.0823 70.7921 12.296 71.4089 12.296C72.0258 12.296 72.544 12.0813 72.9678 11.6518C73.3914 11.2224 73.606 10.6746 73.606 9.99998C73.606 9.32539 73.3914 8.77755 72.9678 8.34822C72.5441 7.91781 72.0259 7.70398 71.4089 7.70398C70.7922 7.70398 70.2749 7.91862 69.8501 8.3483Z" fill="#1D1D21"/>
<path fill-rule="evenodd" clip-rule="evenodd" d="M10.1564 7.96648C10.0383 8.23398 9.97302 8.56174 9.97302 8.943V31.059C9.97302 31.4411 10.0384 31.7689 10.1566 32.0363L22.1905 20.0006L10.1564 7.96648ZM10.8516 32.7555C11.2977 32.9464 11.8795 32.8858 12.514 32.526L26.6711 24.4812L22.8976 20.7077L10.8516 32.7555ZM27.5736 23.9695L32.015 21.446C33.412 20.651 33.412 19.352 32.015 18.558L27.5716 16.0331L23.6047 20.0006L27.5736 23.9695ZM26.6698 15.5207L12.514 7.47701C11.8795 7.11643 11.2976 7.05626 10.8515 7.2474L22.8976 19.2935L26.6698 15.5207Z" fill="#1D1D21"/>
<path fill-rule="evenodd" clip-rule="evenodd" d="M128 1H7C3.68629 1 1 3.68629 1 7V33C1 36.3137 3.68629 39 7 39H128C131.314 39 134 36.3137 134 33V7C134 3.68629 131.314 1 128 1ZM7 0C3.13401 0 0 3.13401 0 7V33C0 36.866 3.13401 40 7 40H128C131.866 40 135 36.866 135 33V7C135 3.13401 131.866 0 128 0H7Z" fill="#1D1D21"/>
</svg>
