<svg width="190" height="56" viewBox="0 0 190 56" fill="none" xmlns="http://www.w3.org/2000/svg">
<g id="google-play-badge 1" clip-path="url(#clip0_70_6136)">
<g id="Group">
<g id="Group_2">
<g id="Clip path group">
<mask id="mask0_70_6136" style="mask-type:luminance" maskUnits="userSpaceOnUse" x="0" y="-1" width="190" height="57">
<g id="SVGID_00000027562756042843535950000015215550136519070130_">
<path id="Vector" d="M189.735 -0.0405273H0.735168V55.9573H189.735V-0.0405273Z" fill="white"/>
</g>
</mask>
<g mask="url(#mask0_70_6136)">
<g id="Group_3">
<g id="Clip path group_2">
<mask id="mask1_70_6136" style="mask-type:luminance" maskUnits="userSpaceOnUse" x="0" y="-1" width="190" height="57">
<g id="SVGID_00000100360645622833283650000013548928967093208493_">
<path id="Vector_2" d="M189.735 -0.0405273H0.735168V55.9573H189.735V-0.0405273Z" fill="white"/>
</g>
</mask>
<g mask="url(#mask1_70_6136)">
<path id="Vector_3" d="M182.743 55.9573H7.72758C3.89492 55.9573 0.735168 52.7976 0.735168 48.9649V6.95189C0.735168 3.08997 3.89492 -0.0405273 7.72758 -0.0405273H182.714C186.575 -0.0405273 189.706 3.11923 189.706 6.95189V48.9649C189.735 52.7976 186.575 55.9573 182.743 55.9573Z" fill="white"/>
</g>
</g>
<g id="Clip path group_3">
<mask id="mask2_70_6136" style="mask-type:luminance" maskUnits="userSpaceOnUse" x="0" y="-1" width="190" height="57">
<g id="SVGID_00000100360645622833283650000013548928967093208493__2">
<path id="Vector_4" d="M189.735 -0.0405273H0.735168V55.9573H189.735V-0.0405273Z" fill="white"/>
</g>
</mask>
<g mask="url(#mask2_70_6136)">
<path id="Vector_5" d="M182.743 1.07124C185.99 1.07124 188.623 3.70436 188.623 6.95189V48.9649C188.623 52.2124 185.99 54.8455 182.743 54.8455H7.72758C4.48006 54.8455 1.84693 52.2124 1.84693 48.9649V6.95189C1.84693 3.70436 4.48006 1.07124 7.72758 1.07124H182.743ZM182.743 -0.0405273H7.72758C3.89492 -0.0405273 0.735168 3.11923 0.735168 6.95189V48.9649C0.735168 52.8268 3.89492 55.9573 7.72758 55.9573H182.714C186.575 55.9573 189.706 52.7976 189.706 48.9649V6.95189C189.735 3.11923 186.575 -0.0405273 182.743 -0.0405273Z" fill="#AFACAB"/>
</g>
</g>
<g id="Clip path group_4">
<mask id="mask3_70_6136" style="mask-type:luminance" maskUnits="userSpaceOnUse" x="0" y="-1" width="190" height="57">
<g id="SVGID_00000100360645622833283650000013548928967093208493__3">
<path id="Vector_6" d="M189.735 -0.0405273H0.735168V55.9573H189.735V-0.0405273Z" fill="white"/>
</g>
</mask>
<g mask="url(#mask3_70_6136)">
<path id="Vector_7" d="M96.1112 30.4158C92.8051 30.4158 90.1428 32.9319 90.1428 36.3842C90.1428 39.8073 92.8344 42.3526 96.1112 42.3526C99.4172 42.3526 102.08 39.8365 102.08 36.3842C102.109 32.9026 99.4172 30.4158 96.1112 30.4158ZM96.1112 39.9828C94.2973 39.9828 92.7466 38.4907 92.7466 36.3842C92.7466 34.2484 94.2973 32.7856 96.1112 32.7856C97.9251 32.7856 99.4757 34.2484 99.4757 36.3842C99.4757 38.4907 97.9251 39.9828 96.1112 39.9828ZM83.0918 30.4158C79.7858 30.4158 77.1234 32.9319 77.1234 36.3842C77.1234 39.8073 79.8151 42.3526 83.0918 42.3526C86.3979 42.3526 89.0603 39.8365 89.0603 36.3842C89.0603 32.9026 86.3686 30.4158 83.0918 30.4158ZM83.0918 39.9828C81.2779 39.9828 79.7273 38.4907 79.7273 36.3842C79.7273 34.2484 81.2779 32.7856 83.0918 32.7856C84.9058 32.7856 86.4564 34.2484 86.4564 36.3842C86.4564 38.4907 84.8765 39.9828 83.0918 39.9828ZM67.5856 32.2297V34.7458H73.6418C73.4663 36.1794 72.9982 37.2034 72.2668 37.9348C71.389 38.8125 70.014 39.778 67.5856 39.778C63.87 39.778 60.9443 36.7938 60.9443 33.0489C60.9443 29.3333 63.8407 26.3198 67.5856 26.3198C69.6044 26.3198 71.0672 27.1097 72.1497 28.1337L73.9344 26.3491C72.413 24.9155 70.4236 23.8037 67.5856 23.8037C62.4949 23.8037 58.1942 27.9582 58.1942 33.0489C58.1942 38.1396 62.4657 42.2941 67.5856 42.2941C70.3358 42.2941 72.413 41.3871 74.0222 39.6902C75.6898 38.0226 76.2164 35.682 76.2164 33.7803C76.2164 33.1952 76.1579 32.6393 76.0702 32.2005H67.5856V32.2297ZM131.015 34.1899C130.517 32.8441 128.996 30.3865 125.924 30.3865C122.852 30.3865 120.307 32.7856 120.307 36.3549C120.307 39.6902 122.823 42.3234 126.217 42.3234C128.938 42.3234 130.517 40.6557 131.19 39.6902L129.172 38.3444C128.499 39.3392 127.562 39.9828 126.246 39.9828C124.929 39.9828 123.964 39.3684 123.349 38.1689L131.307 34.8628L131.015 34.1899ZM122.881 36.1794C122.823 33.8681 124.666 32.6978 125.983 32.6978C127.036 32.6978 127.914 33.2245 128.206 33.9559L122.881 36.1794ZM116.416 41.9723H119.019V24.4474H116.416V41.9723ZM112.115 31.7323H112.027C111.442 31.0302 110.301 30.3865 108.896 30.3865C105.912 30.3865 103.191 32.9904 103.191 36.3549C103.191 39.6902 105.912 42.2941 108.896 42.2941C110.33 42.2941 111.442 41.6505 112.027 40.9483H112.115V41.7967C112.115 44.0788 110.886 45.2783 108.926 45.2783C107.317 45.2783 106.322 44.1373 105.912 43.1718L103.63 44.108C104.274 45.6879 106.029 47.6189 108.896 47.6189C111.968 47.6189 114.572 45.8049 114.572 41.4164V30.7376H112.085V31.7323H112.115ZM109.131 39.9828C107.317 39.9828 105.825 38.4615 105.825 36.3842C105.825 34.2777 107.346 32.7563 109.131 32.7563C110.915 32.7563 112.32 34.2777 112.32 36.3842C112.32 38.4615 110.915 39.9828 109.131 39.9828ZM143.273 24.4474H137.012V41.943H139.616V35.3017H143.273C146.17 35.3017 149.008 33.1952 149.008 29.8599C149.008 26.5539 146.17 24.4474 143.273 24.4474ZM143.332 32.9026H139.616V26.9049H143.332C145.292 26.9049 146.404 28.5141 146.404 29.9184C146.404 31.235 145.292 32.9026 143.332 32.9026ZM159.482 30.3865C157.58 30.3865 155.62 31.2057 154.83 33.0782L157.141 34.0436C157.639 33.0782 158.546 32.7563 159.54 32.7563C160.886 32.7563 162.261 33.5755 162.29 35.0091V35.1847C161.822 34.9214 160.798 34.5118 159.57 34.5118C157.083 34.5118 154.537 35.8868 154.537 38.4614C154.537 40.802 156.585 42.3234 158.897 42.3234C160.652 42.3234 161.618 41.5334 162.232 40.6265H162.32V41.9723H164.836V35.2724C164.777 32.1127 162.466 30.3865 159.482 30.3865ZM159.16 39.9828C158.311 39.9828 157.112 39.544 157.112 38.4907C157.112 37.1449 158.604 36.6183 159.891 36.6183C161.032 36.6183 161.588 36.8523 162.29 37.2034C162.056 38.8125 160.652 39.9828 159.16 39.9828ZM173.964 30.7669L170.98 38.3444H170.892L167.791 30.7669H164.982L169.634 41.3579L166.972 47.2678H169.692L176.89 30.7669H173.964ZM150.441 41.9723H153.045V24.4474H150.441V41.9723Z" fill="#12100B"/>
</g>
</g>
<g id="Clip path group_5">
<mask id="mask4_70_6136" style="mask-type:luminance" maskUnits="userSpaceOnUse" x="0" y="-1" width="190" height="57">
<g id="SVGID_00000100360645622833283650000013548928967093208493__4">
<path id="Vector_8" d="M189.735 -0.0405273H0.735168V55.9573H189.735V-0.0405273Z" fill="white"/>
</g>
</mask>
<g mask="url(#mask4_70_6136)">
<path id="Vector_9" d="M29.7285 27.1392L14.8367 42.9672C15.3048 44.6933 16.8555 45.9514 18.7279 45.9514C19.4593 45.9514 20.1615 45.7466 20.7759 45.3955L20.8344 45.3663L37.5987 35.6822L29.7285 27.1392Z" fill="#E43629"/>
</g>
</g>
<g id="Clip path group_6">
<mask id="mask5_70_6136" style="mask-type:luminance" maskUnits="userSpaceOnUse" x="0" y="-1" width="190" height="57">
<g id="SVGID_00000100360645622833283650000013548928967093208493__5">
<path id="Vector_10" d="M189.735 -0.0405273H0.735168V55.9573H189.735V-0.0405273Z" fill="white"/>
</g>
</mask>
<g mask="url(#mask5_70_6136)">
<path id="Vector_11" d="M44.8255 24.4474L37.5697 20.2344L29.407 27.5194L37.599 35.7113L44.7962 31.5568C46.0543 30.8839 46.9027 29.5381 46.9027 28.0167C46.9027 26.4661 46.0835 25.1495 44.8255 24.4474Z" fill="#F9BD00"/>
</g>
</g>
<g id="Clip path group_7">
<mask id="mask6_70_6136" style="mask-type:luminance" maskUnits="userSpaceOnUse" x="0" y="-1" width="190" height="57">
<g id="SVGID_00000100360645622833283650000013548928967093208493__6">
<path id="Vector_12" d="M189.735 -0.0405273H0.735168V55.9573H189.735V-0.0405273Z" fill="white"/>
</g>
</mask>
<g mask="url(#mask6_70_6136)">
<path id="Vector_13" d="M14.8365 12.9497C14.7488 13.2715 14.6902 13.6226 14.6902 13.9737V41.9434C14.6902 42.2944 14.7488 42.6455 14.8365 42.9674L30.255 27.5489L14.8365 12.9497Z" fill="#587DBE"/>
</g>
</g>
<g id="Clip path group_8">
<mask id="mask7_70_6136" style="mask-type:luminance" maskUnits="userSpaceOnUse" x="0" y="-1" width="190" height="57">
<g id="SVGID_00000100360645622833283650000013548928967093208493__7">
<path id="Vector_14" d="M189.735 -0.0405273H0.735168V55.9573H189.735V-0.0405273Z" fill="white"/>
</g>
</mask>
<g mask="url(#mask7_70_6136)">
<path id="Vector_15" d="M29.8456 27.9583L37.5694 20.2345L20.8052 10.5212C20.1908 10.1701 19.4886 9.93604 18.7279 9.93604C16.8555 9.93604 15.3048 11.1941 14.8367 12.9202L29.8456 27.9583Z" fill="#30A043"/>
</g>
</g>
</g>
</g>
</g>
<g id="Clip path group_9">
<mask id="mask8_70_6136" style="mask-type:luminance" maskUnits="userSpaceOnUse" x="0" y="-1" width="190" height="57">
<g id="SVGID_00000027562756042843535950000015215550136519070130__2">
<path id="Vector_16" d="M189.735 -0.0405273H0.735168V55.9573H189.735V-0.0405273Z" fill="white"/>
</g>
</mask>
<g mask="url(#mask8_70_6136)">
<g id="Group_4">
<path id="Vector_17" d="M61.031 17.9528C60.3288 17.5432 59.8022 17.0166 59.3926 16.3144C58.983 15.6122 58.8074 14.8515 58.8074 14.0031C58.8074 13.1546 59.0122 12.394 59.3926 11.6918C59.8022 10.9896 60.3288 10.4337 61.031 10.0534C61.7331 9.6438 62.4938 9.46826 63.3423 9.46826C64.6588 9.46826 65.7121 9.93637 66.5605 10.9019L65.6243 11.8088C65.3317 11.4577 64.9807 11.1944 64.6296 11.0189C64.2492 10.8433 63.8396 10.7556 63.3423 10.7556C62.7571 10.7556 62.2012 10.9019 61.7331 11.1652C61.2358 11.4285 60.8554 11.8088 60.5629 12.3354C60.2703 12.8328 60.124 13.418 60.124 14.0616C60.124 14.7053 60.2703 15.2904 60.5629 15.7878C60.8554 16.2851 61.2358 16.6655 61.7331 16.958C62.2305 17.2214 62.7571 17.3676 63.3423 17.3676C64.337 17.3676 65.1562 16.958 65.8291 16.1388L66.7946 17.0751C66.385 17.5724 65.8584 17.9528 65.2732 18.2454C64.6881 18.5087 64.0444 18.6549 63.313 18.6549C62.4938 18.5379 61.7331 18.3331 61.031 17.9528Z" fill="#12100B"/>
<path id="Vector_18" d="M68.3152 9.61426H69.6611V13.8273H69.7196L73.2012 9.61426H74.8688V9.67277L71.1824 14.0321L75.0443 18.2451V18.3036H73.2889L69.6903 14.2954H69.6318V18.3036H68.3152V9.61426Z" fill="#12100B"/>
<path id="Vector_19" d="M79.1995 9.61426H80.7208L84.0269 18.3328H82.564L81.7741 16.08H78.2047L77.4148 18.3328H75.952L79.1995 9.61426ZM81.306 14.8513L80.3405 12.1889L80.0187 11.1941H79.9602L79.6383 12.1889L78.6729 14.8513H81.306Z" fill="#12100B"/>
<path id="Vector_20" d="M89.0588 14.4709C88.5029 14.939 87.8593 15.2023 87.0401 15.2023C86.5135 15.2023 86.0454 15.0853 85.6065 14.8805C85.1676 14.6757 84.8458 14.3539 84.6118 13.9443C84.3777 13.5347 84.2607 13.0666 84.2607 12.5107V9.64352H85.6065V12.2766C85.6065 12.8033 85.7528 13.2129 86.0746 13.5054C86.3964 13.798 86.806 13.9443 87.3034 13.9443C88.0056 13.9443 88.5907 13.681 89.0588 13.1251V9.61426H90.3754V18.3328H89.0588V14.4709Z" fill="#12100B"/>
<path id="Vector_21" d="M94.8518 9.61426H96.3732L99.6792 18.3328H98.2164L97.4264 16.08H93.8571L93.0672 18.3328H91.6043L94.8518 9.61426ZM96.9583 14.8513L95.9929 12.1889L95.671 11.1941H95.6125L95.2907 12.1889L94.3252 14.8513H96.9583Z" fill="#12100B"/>
<path id="Vector_22" d="M101.933 10.9016H99.4754V9.64355H105.707V10.9016H103.279V18.3621H101.933V10.9016Z" fill="#12100B"/>
<path id="Vector_23" d="M107.11 9.61426H108.456V12.7155H110.299C110.855 12.7155 111.352 12.8325 111.821 13.0373C112.289 13.2714 112.64 13.5932 112.932 14.0028C113.196 14.4417 113.342 14.939 113.342 15.4949C113.342 16.0508 113.196 16.5482 112.932 16.987C112.669 17.4259 112.289 17.7477 111.821 17.9818C111.352 18.2158 110.855 18.3328 110.299 18.3328H107.11V9.61426ZM110.387 17.104C110.709 17.104 110.972 17.0455 111.235 16.8992C111.469 16.753 111.674 16.5482 111.791 16.3141C111.908 16.08 111.996 15.8167 111.996 15.5534C111.996 15.2901 111.938 15.0268 111.791 14.7927C111.674 14.5587 111.469 14.3539 111.235 14.2076C111.001 14.0613 110.709 13.9735 110.387 13.9735H108.427V17.104H110.387Z" fill="#12100B"/>
<path id="Vector_24" d="M117.643 9.61426H118.96V14.4417L118.901 16.1093H118.96L122.88 9.61426H124.402V18.3328H123.085V13.3884L123.144 11.7208H123.085L119.106 18.3328H117.643V9.61426Z" fill="#12100B"/>
<path id="Vector_25" d="M127.034 17.982C126.479 17.6016 126.098 17.0457 125.893 16.3143L127.122 15.8169C127.239 16.2851 127.444 16.6361 127.737 16.8995C128.029 17.1628 128.409 17.2798 128.819 17.2798C129.258 17.2798 129.638 17.1335 129.96 16.8702C130.282 16.5776 130.428 16.2558 130.428 15.8169C130.428 15.5536 130.34 15.2903 130.194 15.0855C130.048 14.8515 129.843 14.6759 129.55 14.5589C129.287 14.4419 128.995 14.3541 128.673 14.3541H127.941V13.1838H128.585C129.024 13.1838 129.375 13.0668 129.668 12.8327C129.96 12.5987 130.106 12.2769 130.106 11.8673C130.106 11.5162 129.96 11.2236 129.697 10.9895C129.433 10.7555 129.082 10.6385 128.673 10.6385C128.322 10.6385 128 10.7555 127.737 10.9603C127.473 11.1651 127.298 11.4284 127.21 11.7502L126.04 11.2529C126.215 10.7847 126.508 10.3459 126.976 9.96555C127.415 9.58521 128 9.40967 128.673 9.40967C129.199 9.40967 129.668 9.5267 130.077 9.7315C130.487 9.93629 130.809 10.2289 131.043 10.5799C131.277 10.931 131.394 11.3406 131.394 11.8087C131.394 12.6572 131.013 13.2716 130.282 13.6812V13.7397C130.692 13.9152 131.043 14.2078 131.306 14.5589C131.569 14.91 131.686 15.3488 131.686 15.8755C131.686 16.3728 131.569 16.8117 131.306 17.2213C131.043 17.6309 130.692 17.9527 130.253 18.1868C129.814 18.4208 129.316 18.5378 128.761 18.5378C128.175 18.5378 127.59 18.3623 127.034 17.982Z" fill="#12100B"/>
</g>
</g>
</g>
</g>
</g>
</g>
<defs>
<clipPath id="clip0_70_6136">
<rect width="189" height="56" fill="white" transform="translate(0.735168)"/>
</clipPath>
</defs>
</svg>
