<svg width="169" height="56" viewBox="0 0 169 56" fill="none" xmlns="http://www.w3.org/2000/svg">
<g clip-path="url(#clip0_28_17060)">
<path d="M0.299805 8C0.299805 3.5817 3.46679 0 7.37344 0H161.226C165.132 0 168.299 3.58171 168.299 8V47.9998C168.299 52.4181 165.132 55.9998 161.226 55.9998H7.37344C3.46679 55.9998 0.299805 52.4181 0.299805 47.9998V8Z" fill="white"/>
<path fill-rule="evenodd" clip-rule="evenodd" d="M161.226 1.07692H7.37344C4.18228 1.07692 1.37672 4.0481 1.37672 8V47.9998C1.37672 51.9516 4.18228 54.9229 7.37344 54.9229H161.226C164.417 54.9229 167.222 51.9516 167.222 47.9998V8C167.222 4.0481 164.417 1.07692 161.226 1.07692ZM7.37344 0C3.46679 0 0.299805 3.5817 0.299805 8V47.9998C0.299805 52.4181 3.46679 55.9998 7.37344 55.9998H161.226C165.132 55.9998 168.299 52.4181 168.299 47.9998V8C168.299 3.5817 165.132 0 161.226 0H7.37344Z" fill="#A6A6A6"/>
<path d="M15.1802 44.3282C17.8893 46.9993 22.2495 46.9993 30.97 46.9993H32.5115C41.2319 46.9993 45.5922 46.9993 48.3013 44.3282C51.0102 41.6571 51.0102 37.3578 51.0102 28.7594V27.2394C51.0102 18.641 51.0102 14.3418 48.3013 11.6706C45.5922 8.99951 41.2319 8.99951 32.5115 8.99951H30.97C22.2495 8.99951 17.8893 8.99951 15.1802 11.6706C12.4712 14.3418 12.4712 18.641 12.4712 27.2394V28.7594C12.4712 37.3578 12.4712 41.6571 15.1802 44.3282Z" fill="#0077FF"/>
<path fill-rule="evenodd" clip-rule="evenodd" d="M42.224 34.2566L39.62 33.6151C39.3064 33.5264 39.085 33.2482 39.0739 32.9249L38.7489 23.4749C38.6548 22.2241 37.7132 21.2293 36.7292 20.9364C36.674 20.9199 36.6149 20.9421 36.5822 20.9889C36.5489 21.0366 36.5619 21.1025 36.6082 21.1379C36.8512 21.3234 37.52 21.9286 37.52 22.9726L37.518 35.3283C37.518 36.5213 36.3747 37.3963 35.1953 37.1059L32.5511 36.4545C32.2579 36.3534 32.0542 36.0842 32.0435 35.7736L31.7186 26.3229C31.6246 25.0722 30.683 24.0774 29.699 23.7844C29.6437 23.768 29.5847 23.7901 29.552 23.8369C29.5188 23.8846 29.5316 23.9505 29.5779 23.986C29.821 24.1714 30.4898 24.7767 30.4898 25.8206L30.4878 36.1197L30.4893 36.1199V38.1775C30.4893 39.3705 29.3458 40.2456 28.1665 39.9551L20.6978 38.1155C19.6594 37.8597 18.9314 36.9439 18.9314 35.8935V23.5185C18.9314 22.3255 20.0748 21.4505 21.2541 21.7409L25.9602 22.9001V20.6693C25.9602 19.4763 27.1036 18.6012 28.2829 18.8917L32.9887 20.0508V17.82C32.9887 16.627 34.1321 15.7519 35.3116 16.0424L42.7803 17.882C43.8187 18.1378 44.5467 19.0536 44.5467 20.104V32.479C44.5467 33.672 43.4033 34.547 42.224 34.2566Z" fill="white"/>
<path d="M73.5816 43.9995H70.6364L65.963 37.5676H63.5046V43.9995H60.9976V27.0796H67.034C68.2024 27.0796 69.249 27.3036 70.174 27.7516C71.0988 28.1996 71.8128 28.8236 72.3159 29.6236C72.8352 30.4076 73.0948 31.3116 73.0948 32.3356C73.0948 33.6156 72.6972 34.7116 71.9021 35.6235C71.107 36.5195 70.0441 37.1115 68.7135 37.3996L73.5816 43.9995ZM63.5046 29.3596V35.3116H67.034C68.0725 35.3116 68.9083 35.0395 69.5411 34.4956C70.1901 33.9356 70.5147 33.2155 70.5147 32.3356C70.5147 31.4555 70.1901 30.7436 69.5411 30.1996C68.9083 29.6396 68.0725 29.3596 67.034 29.3596H63.5046Z" fill="black"/>
<path d="M80.2341 44.2398C79.3416 44.2398 78.5384 44.0237 77.8244 43.5918C77.1104 43.1438 76.5505 42.5358 76.1448 41.7678C75.7392 40.9838 75.5364 40.1038 75.5364 39.1278V31.5918H77.9217V38.9358C77.9217 39.8798 78.1895 40.6478 78.7249 41.2398C79.2605 41.8318 79.9501 42.1278 80.7939 42.1278C81.6702 42.1278 82.4003 41.8238 82.9846 41.2158C83.5687 40.6078 83.8608 39.8478 83.8608 38.9358V31.5918H86.2462V43.9997H84.5423L83.9825 42.1278C83.5769 42.7998 83.0413 43.3198 82.376 43.6878C81.7269 44.0557 81.0129 44.2398 80.2341 44.2398Z" fill="black"/>
<path d="M95.1385 44.2397C93.5644 44.2397 92.1932 43.8398 91.0249 43.0397C89.8728 42.2237 89.0858 41.1198 88.6638 39.7278L91.0735 39.3437C91.5441 40.2397 92.104 40.9038 92.7531 41.3357C93.4022 41.7517 94.1972 41.9598 95.1385 41.9598C96.0958 41.9598 96.8747 41.7517 97.4752 41.3357C98.0756 40.9038 98.3757 40.3197 98.3757 39.5838C98.3757 39.0397 98.2053 38.5838 97.8646 38.2158C97.54 37.8478 97.1262 37.5517 96.6232 37.3277C96.1202 37.1037 95.463 36.8557 94.6516 36.5838C93.5644 36.2318 92.6719 35.8797 91.9742 35.5278C91.2764 35.1757 90.6841 34.6798 90.1974 34.0398C89.7267 33.3837 89.4914 32.5518 89.4914 31.5438C89.4914 30.5998 89.7267 29.7757 90.1974 29.0718C90.6841 28.3518 91.3494 27.7998 92.1932 27.4158C93.0371 27.0318 93.9782 26.8398 95.0168 26.8398C96.4609 26.8398 97.7023 27.2158 98.7409 27.9678C99.7793 28.7038 100.518 29.7197 100.956 31.0158L98.5948 31.3997C98.2703 30.6638 97.8078 30.1038 97.2073 29.7197C96.607 29.3198 95.9011 29.1198 95.0898 29.1198C94.2135 29.1198 93.4914 29.3277 92.9235 29.7438C92.3555 30.1438 92.0715 30.6958 92.0715 31.3997C92.0715 31.9277 92.2338 32.3757 92.5584 32.7437C92.8991 33.1118 93.3129 33.4078 93.7998 33.6318C94.3028 33.8558 94.9681 34.1117 95.7956 34.3998C96.8503 34.7518 97.7266 35.1118 98.4244 35.4797C99.1384 35.8318 99.7387 36.3358 100.226 36.9917C100.712 37.6478 100.956 38.4718 100.956 39.4637C100.956 40.4238 100.696 41.2638 100.177 41.9837C99.6739 42.7037 98.9762 43.2637 98.0836 43.6637C97.2073 44.0477 96.2256 44.2397 95.1385 44.2397Z" fill="black"/>
<path d="M111.032 41.9356L110.813 43.9996H108.598C107.283 43.9996 106.286 43.6796 105.604 43.0396C104.923 42.3996 104.581 41.4796 104.581 40.2797V33.6797H102.416V31.5916H104.581L105.239 27.9917H106.967V31.5916H110.813V33.6797H106.967V40.2797C106.967 41.3836 107.511 41.9356 108.598 41.9356H111.032Z" fill="black"/>
<path d="M118.987 44.24C117.705 44.24 116.561 43.9679 115.555 43.424C114.549 42.8799 113.762 42.1199 113.194 41.1439C112.626 40.168 112.342 39.056 112.342 37.808C112.342 36.56 112.626 35.448 113.194 34.472C113.762 33.496 114.549 32.736 115.555 32.1921C116.561 31.6321 117.705 31.3521 118.987 31.3521C120.269 31.3521 121.413 31.6321 122.419 32.1921C123.425 32.736 124.212 33.496 124.78 34.472C125.348 35.448 125.632 36.56 125.632 37.808C125.632 39.056 125.348 40.168 124.78 41.1439C124.212 42.1199 123.425 42.8799 122.419 43.424C121.413 43.9679 120.269 44.24 118.987 44.24ZM118.987 42.08C120.221 42.08 121.218 41.688 121.981 40.904C122.76 40.12 123.15 39.088 123.15 37.808C123.15 36.528 122.76 35.496 121.981 34.712C121.218 33.912 120.221 33.512 118.987 33.512C117.753 33.512 116.756 33.912 115.994 34.712C115.23 35.496 114.849 36.528 114.849 37.808C114.849 39.0719 115.23 40.104 115.994 40.904C116.756 41.688 117.753 42.08 118.987 42.08Z" fill="black"/>
<path d="M128.189 43.9997V31.5918H129.918L130.429 33.3679C130.802 32.7438 131.265 32.2958 131.817 32.0239C132.368 31.7358 133.026 31.5918 133.788 31.5918H134.372L134.567 33.8478H133.204C132.328 33.8478 131.67 34.0959 131.233 34.5918C130.795 35.0878 130.575 35.7598 130.575 36.6078V43.9997H128.189Z" fill="black"/>
<path d="M148.204 37.712C148.204 38.032 148.197 38.28 148.181 38.4559H137.786C137.917 39.56 138.355 40.44 139.101 41.096C139.847 41.752 140.797 42.08 141.949 42.08C142.744 42.08 143.45 41.9279 144.067 41.624C144.699 41.304 145.178 40.888 145.502 40.376L147.742 40.736C147.256 41.856 146.468 42.72 145.381 43.3279C144.31 43.936 143.117 44.24 141.803 44.24C140.554 44.24 139.434 43.9679 138.444 43.424C137.455 42.864 136.684 42.0959 136.132 41.12C135.58 40.144 135.304 39.04 135.304 37.808C135.304 36.56 135.58 35.448 136.132 34.472C136.684 33.496 137.446 32.736 138.419 32.1921C139.393 31.6321 140.504 31.3521 141.755 31.3521C142.988 31.3521 144.091 31.6321 145.064 32.1921C146.055 32.736 146.825 33.496 147.377 34.472C147.929 35.432 148.204 36.512 148.204 37.712ZM141.755 33.44C140.797 33.44 139.969 33.72 139.271 34.28C138.59 34.84 138.135 35.592 137.908 36.536H145.6C145.389 35.608 144.935 34.864 144.237 34.304C143.555 33.7281 142.728 33.44 141.755 33.44Z" fill="black"/>
<path d="M64.5446 20.5909C63.6917 20.5909 62.9249 20.3927 62.2443 19.9964C61.5637 19.5915 61.0295 19.0315 60.6419 18.3164C60.2628 17.6013 60.0732 16.7958 60.0732 15.8998C60.0732 15.0038 60.2628 14.2026 60.6419 13.4961C61.0295 12.7811 61.5594 12.2254 62.2314 11.8291C62.912 11.4241 63.6788 11.2217 64.5317 11.2217C65.4535 11.2217 66.272 11.4543 66.9871 11.9195C67.7107 12.3761 68.2277 12.9964 68.5378 13.7804L67.2197 13.9872C66.9784 13.5047 66.6209 13.13 66.1471 12.8629C65.6818 12.5872 65.1563 12.4494 64.5705 12.4494C63.9674 12.4494 63.4289 12.5958 62.9551 12.8888C62.4899 13.1817 62.1237 13.5909 61.8566 14.1164C61.5982 14.6334 61.4689 15.2278 61.4689 15.8998C61.4689 16.5804 61.5982 17.1835 61.8566 17.709C62.1237 18.226 62.4942 18.6309 62.968 18.9238C63.4418 19.2167 63.9846 19.3632 64.5963 19.3632C65.1994 19.3632 65.7335 19.2253 66.1988 18.9496C66.6726 18.6653 67.0344 18.269 67.2843 17.7607L68.6024 17.9675C68.2751 18.7687 67.7452 19.4063 67.0129 19.8801C66.2806 20.354 65.4578 20.5909 64.5446 20.5909Z" fill="black"/>
<path d="M75.3549 20.461H73.6879L71.2196 17.6955H70.8189V20.461H69.5525V13.7798H70.8189V16.4807H71.2066L73.5716 13.7798H75.0965L72.2276 17.0105L75.3549 20.461Z" fill="black"/>
<path d="M78.3668 13.6509C79.1938 13.6509 79.8443 13.9223 80.3181 14.465C80.8006 14.9992 81.0418 15.7487 81.0418 16.7136V20.4613H80.1372L79.84 19.4145C79.6246 19.7505 79.336 20.0305 78.9741 20.2545C78.6123 20.4785 78.1772 20.5905 77.6689 20.5905C77.2209 20.5905 76.8203 20.5001 76.4671 20.3192C76.1138 20.1382 75.8382 19.8884 75.64 19.5696C75.4419 19.2422 75.3428 18.8761 75.3428 18.4712C75.3428 17.8422 75.5926 17.3382 76.0923 16.9592C76.592 16.5801 77.3157 16.3906 78.2634 16.3906H79.7754C79.7409 15.865 79.5944 15.4601 79.336 15.1758C79.0775 14.8829 78.7329 14.7364 78.3021 14.7364C77.9748 14.7364 77.6861 14.814 77.4363 14.969C77.1865 15.1241 76.9969 15.3266 76.8677 15.5764L75.6917 15.3826C75.864 14.8484 76.1957 14.4263 76.6868 14.1161C77.1778 13.806 77.7378 13.6509 78.3668 13.6509ZM77.9403 19.5179C78.4831 19.5179 78.9225 19.3413 79.2585 18.9881C79.6031 18.6262 79.7754 18.1309 79.7754 17.5019V17.4244H78.3021C77.1822 17.4244 76.6221 17.7604 76.6221 18.4324C76.6221 18.7598 76.7428 19.0226 76.984 19.2207C77.2252 19.4189 77.544 19.5179 77.9403 19.5179Z" fill="black"/>
<path d="M86.0046 18.0315C85.7978 18.1262 85.5523 18.1995 85.268 18.2512C84.9837 18.3028 84.7037 18.3287 84.428 18.3287C83.6268 18.3287 83.0108 18.1047 82.58 17.6567C82.1492 17.2087 81.9338 16.5755 81.9338 15.757V13.7798H83.2003V15.757C83.2003 16.7133 83.6612 17.1915 84.5831 17.1915C85.1431 17.1915 85.6169 17.0924 86.0046 16.8942V13.7798H87.271V20.461H86.0046V18.0315Z" fill="black"/>
<path d="M91.3912 13.6509C92.2182 13.6509 92.8687 13.9223 93.3425 14.465C93.825 14.9992 94.0662 15.7487 94.0662 16.7136V20.4613H93.1616L92.8644 19.4145C92.649 19.7505 92.3604 20.0305 91.9986 20.2545C91.6367 20.4785 91.2016 20.5905 90.6933 20.5905C90.2453 20.5905 89.8447 20.5001 89.4915 20.3192C89.1383 20.1382 88.8626 19.8884 88.6644 19.5696C88.4663 19.2422 88.3672 18.8761 88.3672 18.4712C88.3672 17.8422 88.617 17.3382 89.1167 16.9592C89.6164 16.5801 90.3401 16.3906 91.2878 16.3906H92.7998C92.7653 15.865 92.6189 15.4601 92.3604 15.1758C92.1019 14.8829 91.7573 14.7364 91.3266 14.7364C90.9992 14.7364 90.7106 14.814 90.4607 14.969C90.2109 15.1241 90.0213 15.3266 89.8921 15.5764L88.7161 15.3826C88.8884 14.8484 89.2201 14.4263 89.7112 14.1161C90.2023 13.806 90.7623 13.6509 91.3912 13.6509ZM90.9647 19.5179C91.5075 19.5179 91.9469 19.3413 92.2829 18.9881C92.6275 18.6262 92.7998 18.1309 92.7998 17.5019V17.4244H91.3266C90.2066 17.4244 89.6466 17.7604 89.6466 18.4324C89.6466 18.7598 89.7672 19.0226 90.0084 19.2207C90.2496 19.4189 90.5684 19.5179 90.9647 19.5179Z" fill="black"/>
<path d="M97.3489 20.4613H95.4751V13.7801H96.7028V19.0398H96.8966L99.5975 13.7801H101.471V20.4613H100.244V15.2145H100.05L97.3489 20.4613ZM98.4862 12.9142C97.9262 12.9142 97.4566 12.7678 97.0776 12.4749C96.7071 12.1733 96.4874 11.7253 96.4185 11.1309H97.4523C97.4954 11.4066 97.6031 11.6176 97.7754 11.7641C97.9563 11.9019 98.1932 11.9709 98.4862 11.9709C98.7791 11.9709 99.0117 11.9019 99.184 11.7641C99.3649 11.6176 99.4726 11.4066 99.5071 11.1309H100.554C100.476 11.7253 100.248 12.1733 99.8689 12.4749C99.4985 12.7678 99.0376 12.9142 98.4862 12.9142Z" fill="black"/>
<path d="M105.874 20.461H104.607V14.9429H102.294V13.7798H108.187V14.9429H105.874V20.461Z" fill="black"/>
<path d="M115.239 17.0755C115.239 17.2478 115.234 17.3813 115.226 17.4761H109.708C109.776 18.0706 110.009 18.5444 110.405 18.8976C110.802 19.2509 111.306 19.4275 111.917 19.4275C112.34 19.4275 112.714 19.3456 113.042 19.1819C113.378 19.0096 113.632 18.7856 113.804 18.5099L114.993 18.7038C114.735 19.3069 114.317 19.7721 113.74 20.0995C113.171 20.4269 112.538 20.5905 111.84 20.5905C111.176 20.5905 110.582 20.4441 110.056 20.1512C109.531 19.8496 109.122 19.4361 108.829 18.9106C108.536 18.385 108.389 17.7906 108.389 17.1272C108.389 16.4552 108.536 15.8564 108.829 15.3309C109.122 14.8053 109.527 14.3961 110.044 14.1032C110.56 13.8016 111.151 13.6509 111.814 13.6509C112.469 13.6509 113.055 13.8016 113.572 14.1032C114.097 14.3961 114.506 14.8053 114.799 15.3309C115.092 15.8478 115.239 16.4293 115.239 17.0755ZM111.814 14.7752C111.306 14.7752 110.866 14.926 110.496 15.2275C110.134 15.529 109.893 15.9339 109.772 16.4423H113.856C113.744 15.9426 113.503 15.5419 113.132 15.2404C112.77 14.9303 112.331 14.7752 111.814 14.7752Z" fill="black"/>
<path d="M120.925 20.461H119.051V13.7798H120.278V19.0395H120.472L123.173 13.7798H125.047V20.461H123.819V15.2142H123.626L120.925 20.461Z" fill="black"/>
<path d="M130.173 17.0496C130.526 17.153 130.819 17.3426 131.052 17.6182C131.284 17.8853 131.401 18.217 131.401 18.6133C131.401 18.9838 131.293 19.3198 131.078 19.6213C130.862 19.9142 130.552 20.1512 130.147 20.3321C129.751 20.5044 129.29 20.5905 128.764 20.5905C128.058 20.5905 127.451 20.4269 126.942 20.0995C126.434 19.7635 126.098 19.3155 125.934 18.7555L127.11 18.5616C127.395 19.1819 127.942 19.4921 128.752 19.4921C129.2 19.4921 129.54 19.4102 129.772 19.2465C130.014 19.0742 130.134 18.8373 130.134 18.5358C130.134 18.2687 130.022 18.0533 129.798 17.8896C129.583 17.7259 129.234 17.6441 128.752 17.6441H127.873V16.5327H128.752C129.165 16.5327 129.48 16.4552 129.695 16.3001C129.919 16.145 130.031 15.9383 130.031 15.6798C130.031 15.4041 129.91 15.1801 129.669 15.0078C129.436 14.8355 129.148 14.7493 128.803 14.7493C128.467 14.7493 128.166 14.8312 127.899 14.9949C127.632 15.1586 127.429 15.3826 127.291 15.6669L126.115 15.4601C126.313 14.8829 126.654 14.4392 127.136 14.129C127.627 13.8103 128.196 13.6509 128.842 13.6509C129.307 13.6509 129.725 13.7327 130.096 13.8964C130.475 14.0601 130.768 14.2884 130.974 14.5813C131.19 14.8743 131.297 15.2016 131.297 15.5635C131.297 15.9339 131.194 16.2484 130.987 16.5069C130.78 16.7653 130.509 16.9462 130.173 17.0496Z" fill="black"/>
</g>
<defs>
<clipPath id="clip0_28_17060">
<rect width="168" height="56" fill="white" transform="translate(0.264893)"/>
</clipPath>
</defs>
</svg>
