<svg width="138" height="138" viewBox="0 0 138 138" fill="none" xmlns="http://www.w3.org/2000/svg">
<circle cx="69" cy="69.0001" r="69.0301" fill="url(#paint0_linear_49_25287)" stroke="white"/>
<mask id="mask0_49_25287" style="mask-type:alpha" maskUnits="userSpaceOnUse" x="0" y="0" width="138" height="138">
<circle cx="69" cy="69.0001" r="68.5301" fill="white"/>
</mask>
<g mask="url(#mask0_49_25287)">
<path d="M94.9762 71.9877C95.2453 73.9182 104.336 103.078 109.042 115.346C113.748 127.613 115.111 132.182 109.393 138.319C103.675 144.456 32.5642 141.122 24.1462 139.623C15.7281 138.125 30.0739 62.3955 30.0739 62.3955L94.9762 71.9877Z" fill="#B17F4A"/>
<g style="mix-blend-mode:multiply">
<path d="M96.1878 76.1574C96.1878 76.1574 97.9419 100.881 99.8536 115.253C101.765 129.625 60.4355 141.768 43.3802 131.112C26.325 120.457 34.6623 73.3764 34.6623 73.3764L96.1878 76.1574Z" fill="#B2B2B2"/>
</g>
<path d="M48.4878 33.6968L48.8242 33.8511C48.9448 33.8813 49.071 33.8817 49.1918 33.8523C49.3018 33.8842 49.4185 33.8846 49.5287 33.8534C49.6718 33.7661 49.797 33.6521 49.8974 33.5178C49.9292 33.4078 49.9296 33.2911 49.8985 33.1809C49.9139 33.0794 49.9143 32.9761 49.8995 32.8746L49.9003 32.6602C49.8827 32.5988 49.8517 32.5422 49.8094 32.4943C49.7672 32.4465 49.7149 32.4087 49.6562 32.3837C49.5858 32.3665 49.5123 32.3663 49.4418 32.3829C49.3886 32.36 49.3314 32.3481 49.2734 32.3479C49.2155 32.3477 49.1582 32.3592 49.1048 32.3818L48.8598 32.381C48.6964 32.4199 48.5475 32.5044 48.4302 32.6246C48.3397 32.7048 48.268 32.8039 48.22 32.9149C48.172 33.0258 48.1489 33.146 48.1523 33.2668C48.1243 33.4186 48.1237 33.5743 48.1508 33.7263C48.264 33.7398 48.3787 33.7297 48.4878 33.6968Z" fill="white"/>
<path d="M52.5542 80.8802C52.6416 80.7976 52.7113 80.698 52.7591 80.5876C52.8068 80.4772 52.8317 80.3582 52.8321 80.2379C52.8005 80.0056 52.6936 79.7901 52.5278 79.6243C52.35 79.4686 52.1219 79.3824 51.8855 79.3816C51.6491 79.3808 51.4203 79.4654 51.2414 79.62C51.154 79.7026 51.0843 79.8022 51.0366 79.9126C50.9888 80.023 50.964 80.142 50.9636 80.2622C50.977 80.4933 51.0743 80.7114 51.2372 80.8758C51.4265 81.033 51.6641 81.1203 51.9102 81.1231C52.1472 81.1226 52.376 81.0364 52.5542 80.8802Z" fill="white"/>
<path d="M46.7929 109.009C53.0439 107.894 59.3782 107.31 65.7279 107.266C69.8255 107.438 73.93 107.205 77.9821 106.573L75.451 112.322C75.451 112.322 61.6792 117.973 59.4465 117.016C57.2137 116.059 46.7929 109.009 46.7929 109.009Z" fill="#EDEDED"/>
<path d="M72.5601 115.835C70.8966 118.647 54.453 117.305 54.453 117.305C54.6134 115.154 54.6207 112.994 54.4749 110.842C54.4783 109.831 54.4821 108.698 54.1494 107.472C53.8839 105.65 53.0415 103.962 51.7459 102.655C50.1462 101.071 48.2442 99.8248 46.1531 98.991L74.2768 97.3096C74.2768 97.3096 74.2542 113.053 72.5601 115.835Z" fill="#EFB68F"/>
<path d="M66.7299 109.903C66.4705 114.16 54.7204 110.69 54.4749 110.842C54.4783 109.831 54.4821 108.698 54.1494 107.472C53.8839 105.65 53.0415 103.962 51.7459 102.655C51.7672 102.595 51.7674 102.531 51.7466 102.471L51.7507 101.246L62.4474 99.1992C62.4474 99.1992 66.9585 105.708 66.7299 109.903Z" fill="#FBD2BB"/>
<path d="M62.1474 43.0541L61.1994 42.622C61.5407 42.7023 61.8629 42.8491 62.1474 43.0541Z" fill="#FFDE00"/>
<path d="M68.1388 82.7705C68.1358 83.6588 67.7651 84.5764 67.5171 85.4638C65.2374 87.2413 62.661 88.6014 59.9073 89.4812C57.1494 90.3743 54.2834 90.8901 51.3871 91.0145C49.5822 90.3651 48.3281 89.8402 48.3281 89.8402C52.1575 89.7967 55.9665 89.2745 59.6663 88.2858C62.9658 87.3083 65.9096 85.392 68.1388 82.7705Z" fill="white"/>
<path d="M56.1584 174.619L12.4189 174.746C16.2089 155.853 21.0164 137.179 26.8203 118.804C29.9054 112.26 41.9708 113.036 48.013 110.606C52.1505 113.53 57.1897 114.895 62.2373 114.458C67.2849 114.02 72.0146 111.81 75.5878 108.218C85.2682 107.792 99.1134 107.593 104.992 117.353C114.383 130.066 131.474 166.45 135.427 174.887L109.025 174.798L109.024 175.073L68.1948 174.935C68.21 174.844 68.2103 174.751 68.1957 174.659L56.1584 174.619Z" fill="#83C06D"/>
<g style="mix-blend-mode:multiply" opacity="0.92">
<path d="M120.847 174.837L109.147 174.798L109.146 175.074L93.8315 175.022L93.8324 174.746C93.8635 165.557 92.5314 151.892 85.6396 142.864C79.5316 134.929 75.4615 125.619 73.7858 115.747C73.6359 114.797 73.5765 114.245 73.5765 114.245L75.0236 112.014L75.855 110.731L77.5178 108.133L79.0492 108.138C82.4568 108.064 85.8652 108.239 89.2471 108.662L90.166 108.666C91.6132 108.869 93.0448 109.171 94.4511 109.568C96.3153 110.044 98.0914 110.815 99.7116 111.853C101.674 113.408 103.41 115.228 104.87 117.261C105.297 117.814 105.754 118.489 106.272 119.226C114.806 131.66 131.838 167.278 135.397 174.795L120.847 174.837Z" fill="#83C06D"/>
</g>
<path d="M48.2974 108.034C48.1148 108.004 47.9287 108.004 47.746 108.032C47.5546 108.05 47.3677 108.101 47.1942 108.184C47.0168 108.273 46.8679 108.411 46.764 108.58C46.6346 108.727 46.549 108.907 46.5172 109.1C46.2673 110.525 46.2006 111.976 46.3189 113.418C46.3158 114.307 58.03 119.339 65.4453 118.476C75.5565 117.438 79.7079 112.612 79.8668 110.898C80.0258 109.183 79.546 106.118 78.4107 106.727C73.7903 110.177 68.0567 111.794 62.3147 111.267C57.5156 110.84 52.7986 109.752 48.2974 108.034Z" fill="white"/>
<path d="M68.3185 174.66C67.1822 163.886 66.738 153.05 66.9886 142.219C67.466 136.921 67.6992 131.348 67.8674 126.907C67.8801 123.139 67.8903 120.138 67.895 118.729L67.8979 117.871L59.9956 117.844C59.9956 117.844 59.994 118.304 60.2371 118.887C60.268 119.09 60.2673 119.296 60.235 119.499C60.7469 122.105 61.167 124.679 61.4645 127.283C62.2576 134.17 62.3162 141.121 61.6394 148.02C60.7856 155.95 59.1891 166.114 57.7515 174.594L68.3185 174.66Z" fill="white"/>
<path d="M42.0334 31.0407L83.5814 54.0003L84.5292 54.5242L99.0818 62.5371C98.3522 58.0627 98.0802 53.5256 98.27 48.9961C98.2537 48.8331 98.2543 48.6689 98.2716 48.506C98.3577 47.7266 98.5563 46.9639 98.8612 46.2414C99.0186 45.8056 99.3232 45.4383 99.7223 45.2029C100.428 44.7765 101.438 45.2087 102.781 46.3772C110.384 53.5396 103.912 83.351 103.912 83.351L105.809 83.97L107.981 84.6512C113.145 79.431 124.586 38.426 106.98 18.5491C103.772 14.9444 99.7337 12.1762 95.2147 10.4843C94.7151 10.2719 94.2045 10.0861 93.6851 9.92783C88.5304 8.07127 83.0497 7.29173 77.5817 7.6374L76.1727 7.63263C69.5575 8.38851 63.234 10.7775 57.7715 14.5846C57.2944 14.8746 56.8332 15.19 56.3899 15.5294L55.346 16.2916C50.0878 20.4 45.5834 25.3905 42.0334 31.0407Z" fill="#83C06D"/>
<path d="M57.9251 14.6769C65.4012 16.6629 72.5507 19.7202 79.1513 23.7538C87.6212 30.3813 94.2468 39.0732 98.3932 48.9964C98.3922 49.3027 98.6382 48.9972 98.3949 48.5063C97.0318 43.9992 78.7013 11.8986 76.3262 7.75557C69.7138 8.50232 63.3905 10.8807 57.9251 14.6769Z" fill="#008D49"/>
<path d="M93.7778 9.89732C93.3576 16.42 92.6333 31.3342 94.4224 36.6698C96.7883 43.5388 99.3875 44.8034 99.3875 44.8034C99.3875 44.8034 97.9401 19.9579 107.073 18.5186C103.865 14.9139 99.8264 12.1457 95.3074 10.4538C94.8078 10.2413 94.2972 10.0556 93.7778 9.89732Z" fill="#008D49"/>
<path d="M116.499 47.618C116.499 47.618 115.466 45.1335 111.206 45.8236C106.027 46.6331 104.702 49.079 104.702 49.079L102.873 46.3774C103.239 44.8744 103.919 43.4659 104.868 42.2444C105.817 41.0229 107.014 40.016 108.38 39.2899C110.864 38.2569 115.672 38.5795 115.943 39.9587C116.258 42.5008 116.444 45.0571 116.499 47.618Z" fill="#008D49"/>
<path d="M105.827 69.7886C105.827 69.7886 105.258 65.9886 114.006 69.5405L115.687 61.6744C115.687 61.6744 116 59.5008 111.255 58.7802C106.51 58.0597 106.562 60.8472 106.562 60.8472L105.827 69.7886Z" fill="#008D49"/>
<path d="M42.0331 31.0405L83.581 54.0001L97.9541 60.7566L98.3325 48.5061C98.3325 48.5061 90.431 30.1016 63.8058 23.4262C59.2665 22.2021 54.6048 21.4878 49.9072 21.2963C40.5116 28.095 42.0331 31.0405 42.0331 31.0405Z" fill="#008D49"/>
<g style="mix-blend-mode:multiply" opacity="0.92">
<path d="M108.997 74.2405C108.254 77.5686 107.218 80.8245 105.901 83.9703L103.974 83.3512C103.974 83.3512 110.445 53.5398 102.874 46.3775C95.3016 39.2152 99.082 62.5677 99.082 62.5677L84.5293 54.5548L76.364 41.724C76.364 41.724 85.8187 17.4667 101.198 25.4825C116.578 33.4982 110.581 67.8749 108.997 74.2405Z" fill="#83C06D"/>
</g>
<path d="M89.1343 69.5482L88.7983 69.2714C80.7829 60.7814 71.99 53.0607 62.5349 46.2103C59.2072 43.7034 55.189 42.2806 51.0253 42.1351C46.8615 41.9895 42.7538 43.1281 39.2591 45.3965C35.1901 44.0044 29.7115 42.7913 32.8675 33.3987C36.0235 24.0061 47.6925 24.2599 64.5245 28.4825C69.9141 30.0396 74.9648 32.5915 79.4157 36.0065C88.909 43.1237 97.1595 51.7625 103.833 61.5729C107.884 68.2639 93.9008 73.0254 89.1343 69.5482Z" fill="white"/>
<path d="M89.1332 69.5482C87.8718 67.5654 86.4545 65.6863 84.8947 63.9286C80.5005 59.0743 73.0349 47.6242 75.2895 42.1185C76.2791 39.8534 77.6657 37.7834 79.3839 36.0064C88.8616 43.1532 97.1091 51.7993 103.801 61.6034C107.883 68.2639 93.8997 73.0254 89.1332 69.5482Z" fill="#EDEDED"/>
<path d="M115.831 91.3855C115.641 93.6037 114.603 95.663 112.932 97.1341C111.235 98.6039 109.042 99.3739 106.799 99.288L106.37 99.2866C104.649 99.1308 103.015 98.4608 101.681 97.3637C100.346 96.2667 99.3725 94.7933 98.8866 93.1354C98.3808 91.5073 98.3699 89.7656 98.8553 88.1313C99.3407 86.4971 100.301 85.0437 101.613 83.9557C102.923 82.8454 104.537 82.1569 106.245 81.9804C107.943 81.8141 109.654 82.1388 111.173 82.916C112.697 83.7123 113.95 84.9423 114.775 86.4506C115.577 87.9646 115.923 89.6789 115.769 91.3853L115.831 91.3855Z" fill="#E62236"/>
<path d="M106.86 99.2884L106.431 99.2869C104.731 99.147 103.111 98.5015 101.781 97.4334C100.447 96.3631 99.4604 94.9206 98.9468 93.2888C98.462 91.6487 98.4679 89.9025 98.9638 88.2656C99.4518 86.6251 100.403 85.1605 101.704 84.048C104.427 85.0986 108.523 87.3178 109.092 91.3935C109.297 92.7948 109.208 94.2234 108.832 95.5889C108.421 96.9383 107.751 98.1949 106.86 99.2884Z" fill="#CA2834"/>
<path d="M37.6352 54.4573L34.6614 73.3763L33.9759 76.8045C33.9759 76.8045 32.91 74.9938 31.7542 72.6008C30.245 69.8413 29.2192 66.844 28.7212 63.7385C28.7334 60.116 27.1125 56.5055 27.1319 50.7642L37.6352 54.4573Z" fill="#FBD2BB"/>
<path d="M34.6621 73.3764L33.9766 76.8046C33.9766 76.8046 32.9107 74.9938 31.7549 72.6008C31.7771 72.3306 31.8294 72.0636 31.9107 71.805C32.5101 67.494 33.2079 61.8068 32.9841 57.4602L35.0782 59.0125L34.6621 73.3764Z" fill="#EFB68F"/>
<path d="M90.3076 84.8057C88.8083 93.4076 77.4378 104.488 60.4714 103.787L58.6343 103.597C34.5974 101.433 30.2092 85.7357 33.6235 72.4234C37.0378 59.1111 35.3727 53.3164 35.3727 53.3164C35.3727 53.3164 50.4392 45.2199 58.5798 47.269C63.7828 48.4505 75.3708 54.5544 83.0444 58.8072C87.3552 61.1803 90.4732 62.998 90.4732 62.998C91.2372 70.2504 91.1816 77.5658 90.3076 84.8057Z" fill="#FCDACA"/>
<path d="M90.3073 84.8057C88.808 93.4075 77.4376 104.488 60.4711 103.787C65.713 102.549 77.7625 98.9754 83.4528 91.9498C90.5886 83.1527 90.412 62.9059 90.412 62.9059C91.2151 70.1858 91.18 77.5338 90.3073 84.8057Z" fill="#EFB68F"/>
<path d="M37.9707 64.0456C39.6231 62.7124 41.5684 61.7904 43.6465 61.3555C45.7247 60.9206 47.8764 60.9851 49.9248 61.5437L50.8853 58.2696C49.7712 57.7778 48.5624 57.5372 47.3449 57.5648C46.1273 57.5925 44.9307 57.8877 43.84 58.4296C42.5252 58.896 41.3229 59.6328 40.3103 60.5923C39.2932 61.5635 38.4955 62.7409 37.9707 64.0456Z" fill="#B17F4A"/>
<path d="M74.2963 64.3828C72.7603 62.911 70.8977 61.8237 68.8608 61.2099C66.8239 60.5962 64.6707 60.4733 62.5772 60.8514L61.9147 57.4799C63.0638 57.0707 64.2898 56.9237 65.5031 57.0497C66.7163 57.1757 67.886 57.5715 68.9264 58.2081C70.2047 58.8015 71.3483 59.6496 72.2873 60.7004C73.2079 61.7734 73.8923 63.028 74.2963 64.3828Z" fill="#B17F4A"/>
<path d="M90.1627 82.4162C92.432 81.5491 94.5698 80.3709 96.5148 78.9153C101.641 75.6552 101.997 52.041 101.997 52.041C101.997 52.041 91.382 56.9671 88.4083 66.7892C86.7347 72.6031 90.1627 82.4162 90.1627 82.4162Z" fill="#FBD2BB"/>
<path d="M61.5435 76.6833C61.3206 79.1942 58.068 80.9291 54.2711 80.5793C53.0832 80.5706 51.9134 80.2878 50.8526 79.753C49.7919 79.2181 48.869 78.4456 48.1556 77.4957C47.8228 76.9086 47.6656 76.2383 47.7027 75.5645C47.9256 73.0536 51.2089 71.3188 55.0057 71.6686C57.0633 71.764 59.0084 72.6351 60.4496 74.1068C60.7973 74.4674 61.0669 74.8958 61.2417 75.3653C61.432 75.7791 61.5347 76.2279 61.5435 76.6833Z" fill="#E83D3E"/>
<path d="M44.5287 72.2461C45.4534 72.3371 46.3843 72.1511 47.2031 71.7119C48.022 71.2726 48.6917 70.5998 49.1273 69.7791C49.5629 68.9583 49.7446 68.0265 49.6494 67.1022C49.5542 66.1779 49.1864 65.3027 48.5927 64.5879C47.9989 63.8732 47.2061 63.351 46.315 63.0879C45.4238 62.8247 44.4745 62.8324 43.5878 63.11C42.701 63.3876 41.9167 63.9225 41.3347 64.6469C40.7527 65.3712 40.3991 66.2522 40.3189 67.1779C40.2125 68.4067 40.5948 69.6279 41.3828 70.5766C42.1709 71.5254 43.3012 72.1252 44.5287 72.2461Z" fill="white"/>
<path d="M44.6552 70.8682C45.2987 70.9102 45.9402 70.7614 46.4995 70.4405C47.0588 70.1197 47.511 69.6409 47.7995 69.0643C48.088 68.4877 48.2 67.8387 48.1215 67.1987C48.043 66.5587 47.7775 65.9561 47.3581 65.4663C46.9387 64.9765 46.3842 64.6213 45.7639 64.4451C45.1437 64.269 44.4852 64.2797 43.871 64.4759C43.2568 64.6722 42.7141 65.0453 42.311 65.5485C41.9078 66.0517 41.662 66.6626 41.6043 67.3048C41.5695 67.7394 41.6208 68.1765 41.7555 68.5911C41.8901 69.0058 42.1054 69.3897 42.389 69.7208C42.6725 70.052 43.0186 70.3238 43.4076 70.5207C43.7965 70.7176 44.2205 70.8357 44.6552 70.8682Z" fill="#2D2D2C"/>
<path d="M45.4021 67.5319C45.5187 67.5407 45.636 67.5262 45.7471 67.4895C45.8582 67.4528 45.9609 67.3945 46.0494 67.3179C46.1379 67.2414 46.2104 67.1481 46.2627 67.0435C46.315 66.9388 46.3462 66.8249 46.3544 66.7081C46.3674 66.5931 46.357 66.4766 46.3238 66.3656C46.2906 66.2547 46.2353 66.1516 46.1612 66.0627C46.0871 65.9737 45.9957 65.9006 45.8926 65.8479C45.7895 65.7952 45.6768 65.7639 45.5612 65.756C45.3257 65.7349 45.0915 65.8082 44.91 65.9598C44.7286 66.1114 44.6148 66.3289 44.5937 66.5644C44.5726 66.7999 44.6459 67.0341 44.7975 67.2156C44.9491 67.397 45.1666 67.5108 45.4021 67.5319Z" fill="white"/>
<path d="M66.1209 72.7783C67.045 72.8631 67.9736 72.6718 68.7888 72.2283C69.604 71.7849 70.2692 71.1094 70.7001 70.2875C71.131 69.4656 71.3082 68.5342 71.2091 67.6115C71.1101 66.6888 70.7393 65.8162 70.1438 65.1045C69.5483 64.3927 68.7549 63.8738 67.8641 63.6134C66.9733 63.3531 66.0254 63.3631 65.1403 63.6422C64.2552 63.9213 63.473 64.4569 62.8926 65.181C62.3123 65.9052 61.96 66.7854 61.8805 67.71C61.7744 68.9436 62.1608 70.1691 62.9554 71.1187C63.7499 72.0684 64.8879 72.665 66.1209 72.7783Z" fill="white"/>
<path d="M66.2474 71.4004C66.8908 71.4424 67.5324 71.2936 68.0916 70.9727C68.6509 70.6519 69.1031 70.1732 69.3917 69.5965C69.6802 69.0199 69.7922 68.3709 69.7137 67.7309C69.6352 67.0909 69.3696 66.4883 68.9503 65.9985C68.5309 65.5087 67.9764 65.1535 67.3561 64.9773C66.7358 64.8012 66.0774 64.8119 65.4632 65.0082C64.849 65.2044 64.3063 65.5775 63.9031 66.0807C63.4999 66.5839 63.2541 67.1948 63.1965 67.8371C63.1574 68.2724 63.2058 68.7112 63.3389 69.1276C63.4719 69.5439 63.6869 69.9295 63.9712 70.2615C64.2555 70.5935 64.6033 70.8654 64.9942 71.061C65.3851 71.2565 65.8112 71.372 66.2474 71.4004Z" fill="#2D2D2C"/>
<path d="M66.9637 68.0643C67.0804 68.0774 67.1986 68.0672 67.3113 68.0344C67.4241 68.0015 67.5292 67.9466 67.6206 67.8729C67.712 67.7991 67.7879 67.708 67.8438 67.6047C67.8997 67.5014 67.9347 67.3881 67.9465 67.2713C67.9645 67.0324 67.8884 66.796 67.7345 66.6124C67.5807 66.4288 67.3612 66.3125 67.1228 66.2883C67.0062 66.2779 66.8887 66.2905 66.777 66.3255C66.6652 66.3604 66.5615 66.4171 66.4716 66.4921C66.3818 66.5672 66.3076 66.6592 66.2533 66.763C66.1991 66.8667 66.1657 66.9801 66.1553 67.0967C66.1448 67.2133 66.1575 67.3309 66.1924 67.4426C66.2274 67.5544 66.284 67.6581 66.3591 67.7479C66.4342 67.8378 66.5262 67.912 66.6299 67.9663C66.7337 68.0205 66.8471 68.0539 66.9637 68.0643Z" fill="white"/>
<path d="M67.6411 85.0352C66.9988 86.78 66.1566 88.4187 65.1739 89.9925C64.0961 91.6939 62.5582 93.6032 60.9342 93.7772C58.4238 94.0266 55.8947 93.5279 53.6798 92.3467C51.6525 91.2637 49.9142 90.3533 48.8326 88.3306C52.5882 89.0044 55.0334 88.5815 58.843 88.3306C62.2795 88.0117 64.9563 87.1538 67.6411 85.0352Z" fill="#2D2D2C"/>
<path d="M41.332 84.4871C43.9048 84.4958 46.0224 83.2778 46.0276 81.7464C46.0328 80.2149 43.9543 78.9214 41.3814 78.9127C38.8086 78.904 36.691 80.122 36.6859 81.6535C36.6807 83.185 38.7597 84.2947 41.332 84.4871Z" fill="#F4A3A4"/>
<path d="M71.1749 81.6779C73.7477 81.6866 75.8653 80.4686 75.8705 78.9372C75.8756 77.4057 73.7971 76.1429 71.2243 76.1342C68.6514 76.1255 66.534 77.3128 66.5287 78.8749C66.5234 80.437 68.602 81.6692 71.1749 81.6779Z" fill="#F4A3A4"/>
<path d="M65.1137 89.9614C64.0358 91.7037 62.4977 93.6588 60.8737 93.8371C58.3632 94.0926 55.8343 93.5822 53.6194 92.3729C54.9122 91.6423 56.3427 91.1882 57.8202 91.0394C59.8727 90.9545 63.1833 90.1693 65.1137 89.9614Z" fill="#E62236"/>
<path d="M61.5433 76.6835C61.3204 79.1943 58.0678 80.9292 54.2709 80.5794C53.083 80.5707 51.9131 80.2879 50.8524 79.7531C49.7917 79.2182 48.8687 78.4457 48.1554 77.4958C51.0113 78.6361 54.1777 78.7335 57.0983 77.7711C57.9005 77.4539 58.6235 76.965 59.2166 76.3387C59.7795 75.6894 60.1995 74.929 60.4493 74.1069C60.7931 74.4706 61.0622 74.8981 61.2414 75.3654C61.4317 75.7793 61.5345 76.228 61.5433 76.6835Z" fill="#E62236"/>
<path d="M91.0151 74.7923C91.1443 73.0023 91.4897 71.2345 92.0437 69.5275C92.543 67.7503 93.4036 66.0953 94.5718 64.6659C94.8796 64.2689 95.2538 63.9282 95.6779 63.6589C95.9582 63.4462 96.3091 63.3488 96.6589 63.3865C96.7697 63.3597 96.8853 63.3601 96.9959 63.3877C97.1014 63.4527 97.1944 63.536 97.2707 63.6337C97.3668 63.7851 97.4386 63.9507 97.4835 64.1245C97.5736 64.6311 97.5719 65.1499 97.4783 65.6559C97.4144 66.1105 97.3208 66.5604 97.1981 67.0027C96.7112 68.7375 95.9619 70.3876 94.9762 71.8959C95.5666 70.2419 96.0231 68.5431 96.3411 66.816C96.4968 66.0172 96.4996 65.1961 96.3493 64.3963C96.2686 64.3786 96.185 64.3783 96.1042 64.3955C95.7815 64.63 95.492 64.9072 95.2438 65.2195C94.1645 66.5541 93.3016 68.0498 92.6865 69.6522C92.1905 71.427 91.5722 73.1096 91.0151 74.7923Z" fill="#EFB68F"/>
<path d="M52.9151 75.3212C51.0787 75.155 49.6259 74.6241 49.6701 74.1355C49.7144 73.647 51.2389 73.3857 53.0753 73.552C54.9116 73.7182 56.3644 74.2491 56.3202 74.7377C56.2759 75.2262 54.7514 75.4875 52.9151 75.3212Z" fill="#EF5058"/>
<path d="M53.9667 43.6698C54.2068 44.7012 54.7101 45.6527 55.4275 46.4315L58.8206 48.4645C65.1178 52.1613 78.5685 59.9255 84.1079 61.2919C86.1964 61.711 88.2442 62.3124 90.2277 63.0892L91.2774 60.6423L91.8639 59.2966C91.8639 59.2966 75.9265 44.1423 64.3589 41.0708C63.2445 40.8019 62.1062 40.6441 60.9606 40.5999C54.9271 40.457 53.7576 42.107 53.9667 43.6698Z" fill="#B17F4A"/>
<path d="M35.2021 58.4006C41.328 58.4214 54.1863 51.175 58.8205 48.4646L60.4779 47.4595C60.4779 47.4595 71.4974 49.5795 70.2531 46.1754C69.5354 44.7943 68.4872 43.6123 67.2018 42.7346C66.3718 42.0948 65.4812 41.5378 64.5426 41.0716L63.1665 40.4237C55.0926 36.7821 45.0404 38.4634 38.2611 41.4728C36.7227 42.1524 35.2531 42.9782 33.8727 43.9389C32.3746 44.9779 31.1593 46.3739 30.3365 48.0007C27.5635 52.8308 29.4128 58.5036 35.2021 58.4006Z" fill="#B17F4A"/>
<g style="mix-blend-mode:multiply">
<path d="M30.1224 47.9386C37.7225 46.7698 37.1861 42.3573 47.6046 41.0448C50.2397 40.7474 59.2673 43.1671 61.6258 43.1444C64.6964 43.5178 67.6443 44.5744 70.2529 46.2366C77.6231 50.5102 84.6521 55.347 91.2772 60.7036L91.8637 59.3579C91.8637 59.3579 75.9263 44.2036 64.3587 41.1321L62.9825 40.4842C54.9086 36.8426 44.8564 38.5239 38.0771 41.5333C36.5387 42.2129 35.0691 43.0387 33.6887 43.9994C32.1949 45.0002 30.9702 46.353 30.1224 47.9386Z" fill="#B2B2B2"/>
</g>
<path d="M35.7256 49.6637C35.2171 48.6888 37.5649 46.4589 40.9696 44.6831C44.3742 42.9072 47.5465 42.2579 48.055 43.2328C48.5635 44.2077 46.2157 46.4377 42.811 48.2135C39.4063 49.9893 36.2341 50.6387 35.7256 49.6637Z" fill="#C68D52"/>
<path d="M61.9759 66.5772C62.314 65.5977 62.9753 64.7625 63.8512 64.2088C64.727 63.6551 65.7652 63.4159 66.795 63.5306C67.4384 63.5322 68.0751 63.6613 68.6684 63.9104C69.2616 64.1594 69.7996 64.5236 70.2513 64.9818C70.4344 65.1662 71.2872 66.6087 71.2872 66.6087C71.2872 66.6087 74.3501 66.6191 73.8681 64.2283" stroke="#4A4A4A" stroke-width="0.3" stroke-miterlimit="10" stroke-linecap="round"/>
<path d="M72.0924 63.8853C72.1578 64.0958 72.1604 64.3209 72.0999 64.5328C72.0393 64.7448 71.9183 64.9345 71.7515 65.0787C71.6094 65.2093 71.4356 65.3003 71.2473 65.3427C71.059 65.3851 70.863 65.3773 70.6786 65.3201" stroke="#4A4A4A" stroke-width="0.3" stroke-miterlimit="10" stroke-linecap="round"/>
<path d="M49.5427 65.9226C49.2171 64.9433 48.5671 64.1044 47.7002 63.5445C46.8333 62.9847 45.8013 62.7373 44.7748 62.8435C44.1304 62.8338 43.4908 62.9554 42.895 63.2008C42.2991 63.4463 41.7594 63.8105 41.3089 64.2713C41.1245 64.4545 40.2314 65.8604 40.2314 65.8604C40.2314 65.8604 37.1685 65.8501 37.6972 63.4934" stroke="#4A4A4A" stroke-width="0.3" stroke-miterlimit="10" stroke-linecap="round"/>
<path d="M39.4439 63.1931C39.3845 63.4064 39.3871 63.6322 39.4515 63.844C39.5159 64.0558 39.6394 64.2448 39.8074 64.3889C39.9486 64.5205 40.1218 64.6127 40.3098 64.6563C40.4978 64.6999 40.6939 64.6935 40.8786 64.6376" stroke="#4A4A4A" stroke-width="0.3" stroke-miterlimit="10" stroke-linecap="round"/>
<path d="M31.3718 49.3587C31.0177 48.1757 33.069 46.5167 35.9536 45.6531C38.8382 44.7895 41.4637 45.0485 41.8178 46.2315C42.172 47.4145 40.1207 49.0736 37.2361 49.9372C34.3515 50.8007 31.726 50.5417 31.3718 49.3587Z" fill="#BA854D"/>
<path d="M44.6118 45.9436C44.4323 45.344 45.7056 44.4331 47.4558 43.9092C49.206 43.3852 50.7704 43.4466 50.9499 44.0462C51.1294 44.6458 49.8561 45.5566 48.1059 46.0806C46.3557 46.6045 44.7914 46.5432 44.6118 45.9436Z" fill="#BA854D"/>
</g>
<defs>
<linearGradient id="paint0_linear_49_25287" x1="69" y1="0.469971" x2="69" y2="137.53" gradientUnits="userSpaceOnUse">
<stop stop-color="#2067CE"/>
<stop offset="0.679591" stop-color="#1D4C91"/>
</linearGradient>
</defs>
</svg>
