<svg width="144" height="144" viewBox="0 0 144 144" fill="none" xmlns="http://www.w3.org/2000/svg">
<circle cx="71.9999" cy="71.9999" r="69.3873" fill="url(#paint0_linear_49_25177)" stroke="white" stroke-width="1.71429"/>
<mask id="mask0_49_25177" style="mask-type:alpha" maskUnits="userSpaceOnUse" x="3" y="3" width="138" height="138">
<circle cx="71.9999" cy="71.9999" r="68.5301" fill="white"/>
</mask>
<g mask="url(#mask0_49_25177)">
<path d="M85.5608 40.1651L85.2365 40.3447C85.1183 40.3841 84.9923 40.3941 84.8694 40.3738C84.762 40.414 84.6454 40.4232 84.5329 40.4005C84.3859 40.3323 84.2604 40.2251 84.1698 40.0907C84.1296 39.9833 84.1204 39.8667 84.1431 39.7543C84.1173 39.708 84.1018 39.6568 84.0976 39.604C84.0934 39.5512 84.1007 39.4981 84.1189 39.4484L84.1019 39.2343C84.15 39.1264 84.2282 39.0347 84.3272 38.9702C84.3942 38.9389 84.4702 38.9329 84.5413 38.9532C84.656 38.8992 84.7865 38.8888 84.9084 38.9241L85.1225 38.9071C85.2886 38.9336 85.4438 39.0067 85.5701 39.1178C85.6741 39.1909 85.7565 39.2907 85.8085 39.4067C85.8486 39.5142 85.8579 39.6308 85.8352 39.7432C85.8888 39.89 85.9014 40.0486 85.8715 40.202C85.7666 40.2096 85.6611 40.197 85.5608 40.1651Z" fill="white"/>
<path d="M85.0748 87.6054C84.9115 87.4477 84.8079 87.2384 84.7816 87.013C84.7721 86.8929 84.787 86.7721 84.8256 86.6579C84.8642 86.5437 84.9255 86.4386 85.0059 86.3488C85.171 86.1782 85.3923 86.0732 85.6289 86.0532C85.8748 86.0356 86.1192 86.1032 86.3212 86.2446C86.4918 86.4096 86.5969 86.6309 86.6169 86.8675C86.6255 86.9831 86.6097 87.0992 86.5707 87.2084C86.5316 87.3175 86.4701 87.4172 86.3901 87.5011C86.225 87.6717 86.0037 87.7767 85.7671 87.7967C85.5207 87.8197 85.2744 87.7516 85.0748 87.6054Z" fill="white"/>
<path d="M93.0173 115.57C86.6794 114.904 80.2953 114.792 73.9379 115.237C69.8578 115.718 65.7401 115.798 61.6445 115.473L64.6393 121.022C64.6393 121.022 78.8244 125.622 80.9821 124.497C83.1398 123.372 93.0173 115.57 93.0173 115.57Z" fill="#EDEDED"/>
<path d="M67.7408 124.038C69.6156 126.721 85.9701 124.132 85.9701 124.132C85.6315 121.997 85.4604 119.839 85.4584 117.678C85.3783 116.668 85.4721 115.522 85.528 114.286C85.6697 112.45 86.3814 110.704 87.5637 109.293C89.0526 107.587 90.8682 106.198 92.9033 105.206L64.6546 105.692C64.6546 105.692 65.8683 121.386 67.7408 124.038Z" fill="#EFB68F"/>
<path d="M73.148 117.7C73.6968 121.904 85.2015 117.544 85.4583 117.678C85.3783 116.668 85.4721 115.522 85.528 114.286C85.6696 112.45 86.3814 110.704 87.5637 109.293L87.5491 109.109L87.4521 107.886L76.612 106.652C76.612 106.652 72.5685 113.498 73.148 117.7Z" fill="#FBD2BB"/>
<path d="M72.656 50.5455L73.5396 50.0445C73.2193 50.1613 72.9206 50.3306 72.656 50.5455Z" fill="#FFDE00"/>
<path d="M69.6817 90.6726C69.752 91.5597 70.1613 92.4506 70.4763 93.3183C72.892 94.9143 75.5673 96.0771 78.3823 96.7544C81.2054 97.4345 84.107 97.7324 87.0094 97.6401C88.7938 96.8522 89.9761 96.2352 89.9761 96.2352C86.1496 96.4787 82.3076 96.2563 78.5348 95.5726C75.1725 94.8286 72.0975 93.1267 69.6817 90.6726Z" fill="white"/>
<path d="M88.6118 181.512L132.283 178.327C127.079 159.737 120.861 141.447 113.656 123.537C110.078 117.234 98.0849 118.924 91.865 116.954C87.9538 120.189 83.0234 121.934 77.9483 121.88C72.8731 121.826 67.981 119.977 64.1394 116.66C54.4702 116.995 40.592 117.819 35.5025 128.165C27.055 141.577 12.7717 179.215 9.46221 187.942L35.8596 185.849L35.8815 186.125L76.6553 182.891C76.6629 182.799 76.6555 182.706 76.6334 182.616L88.6118 181.512Z" fill="#83C06D"/>
<g style="mix-blend-mode:multiply" opacity="0.92">
<path d="M24.0102 186.635L35.6948 185.708L35.7166 185.984L51.0106 184.771L50.9888 184.496C50.2612 175.319 50.5865 161.566 56.7557 152.027C62.2496 143.643 65.6194 134.047 66.574 124.069C66.4963 123.091 66.6386 122.556 66.6386 122.556L65.0215 120.407L64.0938 119.187L62.2053 116.721L60.6759 116.842C57.2766 117.025 53.8953 117.457 50.5595 118.137L49.654 118.362C48.2275 118.69 46.8212 119.099 45.442 119.589C43.6183 120.211 41.9035 121.116 40.3603 122.27C38.5277 123.971 36.9417 125.92 35.6484 128.061C35.2333 128.648 34.8278 129.357 34.366 130.132C26.7715 143.047 12.4727 180.101 9.48575 187.848L24.0102 186.635Z" fill="#83C06D"/>
</g>
<path d="M91.3862 114.407C91.5633 114.347 91.7524 114.332 91.9368 114.363C92.1133 114.301 92.3031 114.286 92.4873 114.32C92.6713 114.39 92.8366 114.501 92.9708 114.645C93.1049 114.789 93.2043 114.962 93.2612 115.151C93.5443 116.57 93.6591 118.018 93.6032 119.464C93.6735 120.351 82.3537 126.266 74.9141 125.994C64.7327 125.693 60.1895 121.19 59.9313 119.487C59.6732 117.783 59.8895 114.688 61.0391 115.213C65.9257 118.312 71.787 119.492 77.4922 118.525C82.2953 117.817 86.9733 116.431 91.3862 114.407Z" fill="white"/>
<path d="M76.4375 182.478C76.7557 171.629 76.378 160.771 75.3066 149.971C74.4281 144.716 73.775 139.196 73.2986 134.74C73.0003 130.978 72.7626 127.98 72.651 126.573L72.5831 125.717L80.4442 125.093C80.4442 125.093 80.483 125.583 80.2819 126.153C80.2808 126.358 80.297 126.562 80.3305 126.765C80.0142 129.375 79.7897 131.979 79.7206 134.6C79.435 141.54 79.9035 148.49 81.1179 155.328C82.5413 163.187 84.9066 173.219 86.9855 181.58L76.4375 182.478Z" fill="white"/>
<path d="M91.8391 37.0509L52.0439 63.1069L51.1369 63.7021L37.2076 72.8095C37.5972 68.2846 37.525 63.7319 36.9921 59.2217C36.9959 59.0576 36.9829 58.8937 36.9533 58.7323C36.8317 57.9577 36.5851 57.208 36.2232 56.5124C36.0146 56.1017 35.6875 55.7631 35.2843 55.5403C34.5162 55.1703 33.5713 55.6762 32.3176 56.9452C25.2969 64.6737 34.0216 93.9619 34.0216 93.9619L32.1431 94.7265L30.0553 95.5692C24.4712 90.7486 9.96472 50.6532 26.0142 29.4657C28.8826 25.6442 32.6299 22.5702 36.9385 20.5043L38.4243 19.8324C43.4332 17.5888 48.8485 16.3947 54.3365 16.3237L55.7741 16.2098C62.4376 16.4747 68.9326 18.3809 74.6824 21.7591L76.134 22.5982L77.204 23.2829C82.8459 26.9862 87.7985 31.6454 91.8391 37.0509Z" fill="#83C06D"/>
<path d="M74.7223 21.8792C67.4087 24.4033 60.497 27.9681 54.2001 32.4635C46.2376 39.7508 40.2894 48.9688 36.9306 59.2266C36.9549 59.5325 36.6859 59.246 36.8918 58.7372C37.9117 54.1316 53.7887 20.6765 55.8777 16.3555C62.5172 16.623 68.989 18.52 74.7223 21.8792Z" fill="#008D49"/>
<path d="M38.5159 19.825C39.4302 26.3087 41.2843 41.1517 39.9016 46.6171C38.0591 53.658 35.561 55.1489 35.561 55.1489C35.561 55.1489 35.1209 30.1902 25.8893 29.4447C28.7954 25.6151 32.5867 22.5472 36.9384 20.5041L38.5159 19.825Z" fill="#008D49"/>
<path d="M18.6785 59.227C18.6785 59.227 19.5526 56.6645 23.8295 57.0333C29.0644 57.4493 30.5737 59.792 30.5737 59.792L32.1955 56.9548C31.7249 55.481 30.9458 54.1243 29.9099 52.9752C28.8741 51.826 27.6054 50.9107 26.1882 50.2901C23.6281 49.4466 18.85 50.1332 18.6533 51.5339C18.5313 54.0971 18.5397 56.6647 18.6785 59.227Z" fill="#008D49"/>
<path d="M31.0432 80.47C31.0432 80.47 31.293 76.6334 22.8262 80.8753L20.5487 73.1145C20.5487 73.1145 20.0706 70.967 24.7866 69.8852C29.5025 68.8033 29.6315 71.5941 29.6315 71.5941L31.0432 80.47Z" fill="#008D49"/>
<path d="M91.8389 37.0508L52.0437 63.1068L38.1985 70.9455L36.8919 58.737C36.8919 58.737 43.3895 39.7536 69.5102 31.0647C73.9408 29.4967 78.5333 28.4305 83.2016 27.886C93.1024 33.9649 91.8389 37.0508 91.8389 37.0508Z" fill="#008D49"/>
<g style="mix-blend-mode:multiply" opacity="0.92">
<path d="M28.1905 85.2517C29.1993 88.5149 30.4805 91.6875 32.0206 94.7361L33.8991 93.9716C33.8991 93.9716 25.1745 64.6834 32.1952 56.9549C39.2159 49.2264 37.21 72.84 37.21 72.84L51.1392 63.7326L58.3536 50.2944C58.3536 50.2944 47.0397 26.7827 32.2845 35.9556C17.5294 45.1285 26.1872 79.0082 28.1905 85.2517Z" fill="#83C06D"/>
</g>
<path d="M47.7444 79.1458L48.0897 78.8414C55.4319 69.7453 63.6206 61.3663 72.5457 53.817C75.6863 51.0616 79.5971 49.3366 83.7495 48.8752C87.902 48.4139 92.096 49.2383 95.7649 51.2372C99.6958 49.5711 105.074 47.9135 101.242 38.7985C97.4109 29.6836 85.7102 30.796 69.2449 36.257C63.9535 38.1527 59.0651 41.0253 54.834 44.7253C45.9067 52.57 38.3224 61.822 32.3816 72.1149C28.8494 79.1974 43.1783 82.8937 47.7444 79.1458Z" fill="white"/>
<path d="M47.7443 79.1457C48.8646 77.0757 50.1374 75.092 51.5522 73.211C55.6042 68.0264 62.1936 56.0228 59.4935 50.6965C58.3551 48.4948 56.8101 46.5285 54.9402 44.9014C46.0027 52.7474 38.4179 62.0113 32.4902 72.3216C28.8493 79.1973 43.1782 82.8936 47.7443 79.1457Z" fill="#EDEDED"/>
<path d="M22.6642 102.896C23.0615 105.124 24.3253 107.105 26.179 108.404C27.9817 109.752 30.2335 110.356 32.4688 110.091L32.8664 110.059C34.5684 109.788 36.1484 109.009 37.3984 107.822C38.6503 106.652 39.5264 105.136 39.9157 103.467C40.2738 101.782 40.1348 100.028 39.5155 98.4202C38.8858 96.8338 37.8072 95.4655 36.4118 94.4827C35.0163 93.5 33.3645 92.9455 31.6587 92.8872C29.9391 92.8463 28.2442 93.3013 26.7762 94.1977C25.331 95.1181 24.1845 96.4389 23.4763 97.9991C22.7669 99.5665 22.5408 101.31 22.8269 103.006L22.6642 102.896Z" fill="#E62236"/>
<path d="M32.2549 110.108L32.6525 110.076C34.3524 109.816 35.9335 109.047 37.187 107.87C38.4288 106.692 39.3031 105.179 39.7042 103.515C40.0642 101.84 39.9259 100.096 39.3064 98.4985C38.7174 96.8842 37.6512 95.4873 36.2494 94.4933C33.6095 95.7491 29.6854 98.2765 29.4574 102.388C29.3479 103.802 29.534 105.224 30.0038 106.562C30.506 107.884 31.2719 109.091 32.2549 110.108Z" fill="#CA2834"/>
<path d="M98.0051 60.0781L102.379 78.7535L103.171 82.1381C103.171 82.1381 104.101 80.2791 105.102 77.7681C106.404 74.8987 107.202 71.8262 107.46 68.6856C107.051 64.4875 105.85 60.405 103.92 56.6542L98.0051 60.0781Z" fill="#FBD2BB"/>
<path d="M102.379 78.7535L103.171 82.1381C103.171 82.1381 104.101 80.2791 105.102 77.7681C105.034 77.5035 104.952 77.2429 104.856 76.9874C103.93 72.7266 103.411 68.3876 103.305 64.0287L100.722 64.449L102.379 78.7535Z" fill="#EFB68F"/>
<path d="M47.6724 94.5417C49.8552 103.049 62.0226 113.257 78.9456 111.238L80.7503 111.095C104.625 107.078 107.788 91.0677 103.368 78.0287C98.9484 64.9898 100.172 59.0752 100.172 59.0752C100.172 59.0752 84.5085 52.1297 76.5322 54.7937C71.4244 56.3684 60.3424 63.3416 52.9689 68.1739C48.8428 70.8712 45.8659 72.9233 45.8659 72.9233C45.6606 80.1742 46.2665 87.4254 47.6724 94.5417Z" fill="#FCDACA"/>
<path d="M47.6727 94.5416C49.8555 103.049 62.0229 113.257 78.9459 111.238C73.6159 110.399 61.3086 107.742 55.0614 101.158C47.2665 92.9117 45.9386 72.6712 45.9386 72.6712C45.6711 80.0038 46.2531 87.3428 47.6727 94.5416Z" fill="#EFB68F"/>
<path d="M98.3968 69.6813C96.6392 68.4749 94.621 67.7019 92.5072 67.4255C90.3935 67.149 88.2443 67.377 86.2356 68.0909L85.0279 64.8932C86.1042 64.3194 87.2932 63.9886 88.5112 63.9239C89.7292 63.8592 90.9466 64.0623 92.0776 64.5188C93.4306 64.8966 94.6952 65.5392 95.7981 66.4092C96.8877 67.3022 97.7737 68.4178 98.3968 69.6813Z" fill="#EFB68F"/>
<path d="M62.1065 72.7741C63.5294 71.1886 65.3089 69.9642 67.2982 69.2017C69.2874 68.4392 71.4295 68.1605 73.5476 68.3887L73.9513 64.9401C72.7725 64.6184 71.5366 64.5645 70.3343 64.7824C69.1319 65.0002 67.9935 65.4842 67.0024 66.199C65.7706 66.8887 64.6925 67.8225 63.8342 68.9434C62.996 70.085 62.4073 71.3901 62.1065 72.7741Z" fill="#EFB68F"/>
<path d="M47.6241 91.9907C45.2911 91.266 43.066 90.2311 41.0086 88.9139C35.6384 86.0155 33.4932 62.454 33.4932 62.454C33.4932 62.454 44.4695 66.57 48.1845 76.1559C50.3117 82.0202 47.6241 91.9907 47.6241 91.9907Z" fill="#FBD2BB"/>
<path d="M75.8388 84.09C76.2518 86.5813 79.6323 88.0677 83.4292 87.4281C84.6157 87.3316 85.7638 86.9614 86.7831 86.3465C87.8025 85.7316 88.6655 84.8888 89.3042 83.8842C89.5957 83.2744 89.6919 82.5896 89.5796 81.9232C89.1691 79.4625 85.7861 77.9455 81.9893 78.5852C79.9476 78.8565 78.0776 79.8705 76.7362 81.4333C76.4271 81.8271 76.1914 82.2733 76.0404 82.7505C75.8942 83.1815 75.826 83.6351 75.8388 84.09Z" fill="#E83D3E"/>
<path d="M92.4377 78.372C91.521 78.5268 90.5789 78.406 89.731 78.0249C88.883 77.6438 88.1673 77.0194 87.6746 76.2311C87.1819 75.4427 86.9343 74.5258 86.9633 73.5966C86.9923 72.6673 87.2965 71.7676 87.8374 71.0115C88.3783 70.2554 89.1315 69.6769 90.0016 69.3493C90.8716 69.0217 91.8193 68.9599 92.7246 69.1716C93.6299 69.3832 94.4519 69.8589 95.0865 70.5383C95.7211 71.2177 96.1397 72.0702 96.2892 72.9878C96.4887 74.212 96.1956 75.4655 95.474 76.4743C94.7523 77.4831 93.6607 78.1654 92.4377 78.372Z" fill="white"/>
<path d="M92.2063 77.0053C91.3444 77.1512 90.4598 76.9488 89.7472 76.4425C89.0345 75.9362 88.5522 75.1675 88.4063 74.3056C88.2604 73.4436 88.4629 72.5591 88.9692 71.8464C89.4755 71.1338 90.2442 70.6515 91.1061 70.5056C91.5329 70.4334 91.9697 70.4459 92.3916 70.5425C92.8136 70.639 93.2124 70.8178 93.5652 71.0685C93.9181 71.3192 94.2181 71.6369 94.4482 72.0036C94.6782 72.3702 94.8338 72.7786 94.9061 73.2054C94.9783 73.6321 94.9658 74.069 94.8692 74.4909C94.7726 74.9128 94.5939 75.3116 94.3432 75.6645C94.0925 76.0173 93.7747 76.3174 93.4081 76.5474C93.0415 76.7775 92.6331 76.9331 92.2063 77.0053Z" fill="#2D2D2C"/>
<path d="M91.2383 73.727C91.1203 73.749 90.9991 73.747 90.8819 73.721C90.7648 73.6949 90.6541 73.6455 90.5565 73.5756C90.459 73.5057 90.3766 73.4168 90.3143 73.3142C90.252 73.2116 90.211 73.0975 90.194 72.9787C90.1764 72.8628 90.1819 72.7446 90.2102 72.6308C90.2385 72.5171 90.2889 72.41 90.3587 72.3158C90.4285 72.2217 90.5161 72.1422 90.6167 72.0819C90.7173 72.0217 90.8287 71.982 90.9447 71.965C91.0586 71.9432 91.1758 71.9448 91.2892 71.9695C91.4025 71.9943 91.5096 72.0417 91.6041 72.109C91.6986 72.1763 91.7785 72.2621 91.839 72.3611C91.8995 72.4601 91.9392 72.5703 91.956 72.6851C91.9779 72.8007 91.9767 72.9195 91.9524 73.0346C91.9282 73.1497 91.8813 73.2589 91.8145 73.3558C91.7478 73.4527 91.6625 73.5354 91.5636 73.5991C91.4647 73.6628 91.3541 73.7063 91.2383 73.727Z" fill="white"/>
<path d="M70.9401 80.5385C70.0233 80.6995 69.0793 80.5843 68.2281 80.2076C67.3768 79.8309 66.6568 79.2096 66.1595 78.4228C65.6622 77.6359 65.41 76.7189 65.435 75.7884C65.46 74.8579 65.7611 73.9558 66.3 73.1968C66.8389 72.4378 67.5912 71.8561 68.4615 71.5257C69.3317 71.1952 70.2805 71.131 71.1874 71.341C72.0942 71.5511 72.9182 72.026 73.5545 72.7054C74.1908 73.3848 74.6108 74.2381 74.761 75.1567C74.9605 76.3761 74.6712 77.6249 73.9559 78.6324C73.2406 79.6399 72.157 80.3247 70.9401 80.5385Z" fill="white"/>
<path d="M70.7087 79.1716C70.0691 79.2623 69.417 79.1624 68.834 78.8843C68.251 78.6061 67.763 78.1622 67.4311 77.6081C67.0992 77.0539 66.9381 76.4142 66.968 75.7689C66.9979 75.1237 67.2175 74.5016 67.5993 73.9805C67.981 73.4595 68.508 73.0626 69.1143 72.8396C69.7205 72.6166 70.3791 72.5774 71.0075 72.7269C71.6359 72.8764 72.2062 73.208 72.6471 73.68C73.088 74.1521 73.3798 74.7438 73.4861 75.3809C73.5625 75.8133 73.5506 76.2567 73.4511 76.6844C73.3516 77.1121 73.1664 77.5152 72.9069 77.8694C72.6474 78.2236 72.3188 78.5216 71.941 78.7454C71.5632 78.9692 71.144 79.1142 70.7087 79.1716Z" fill="#2D2D2C"/>
<path d="M69.7098 75.8958C69.5958 75.9175 69.4786 75.916 69.3653 75.8912C69.252 75.8665 69.1448 75.819 69.0503 75.7517C68.9558 75.6844 68.8759 75.5987 68.8155 75.4997C68.755 75.4007 68.7152 75.2905 68.6985 75.1757C68.6766 75.0601 68.6777 74.9413 68.702 74.8262C68.7263 74.7111 68.7732 74.6019 68.8399 74.505C68.9066 74.4081 68.9919 74.3254 69.0909 74.2617C69.1898 74.198 69.3003 74.1545 69.4161 74.1338C69.6534 74.0978 69.8953 74.1559 70.0904 74.2957C70.2855 74.4354 70.4183 74.6458 70.4605 74.8821C70.478 74.998 70.4725 75.1162 70.4442 75.2299C70.416 75.3437 70.3655 75.4507 70.2958 75.5449C70.226 75.6391 70.1383 75.7186 70.0378 75.7788C69.9372 75.839 69.8257 75.8788 69.7098 75.8958Z" fill="white"/>
<path d="M70.3809 92.8948C70.7666 93.7368 71.2015 94.5553 71.6833 95.3463C72.1558 96.1897 72.6828 97.0013 73.2611 97.7759C74.4393 99.437 76.124 101.273 77.7597 101.328C80.2873 101.397 82.776 100.695 84.8951 99.3159C86.2384 98.4527 87.5202 97.4974 88.7314 96.4569C90.2701 95.2884 91.4072 94.4902 91.4072 94.4902C87.6982 95.4671 83.8817 95.9765 80.0464 96.0067C76.5898 95.9354 73.2298 94.8536 70.3809 92.8948Z" fill="#2D2D2C"/>
<path d="M96.5464 90.2045C93.977 90.4083 91.7694 89.3521 91.6481 87.8227C91.5269 86.2933 93.505 84.8437 96.0744 84.6399C98.6438 84.4362 100.851 85.4924 101.003 87.0194C101.155 88.5463 99.1439 89.9678 96.5464 90.2045Z" fill="#F4A3A4"/>
<path d="M66.5472 89.967C63.9778 90.1707 61.8032 89.1427 61.649 87.5852C61.4947 86.0276 63.5082 84.6367 66.0776 84.433C68.647 84.2293 70.8546 85.2854 71.0064 86.8124C71.1583 88.3394 69.1472 89.7609 66.5472 89.967Z" fill="#F4A3A4"/>
<path d="M73.2307 97.7786C74.409 99.4397 76.0936 101.276 77.7293 101.331C80.2569 101.4 82.7455 100.698 84.8647 99.3186C83.5179 98.6867 82.0545 98.3416 80.5674 98.305C78.501 98.2534 75.1441 97.8424 73.2307 97.7786Z" fill="#E62236"/>
<path d="M75.8386 84.0899C76.2516 86.5811 79.6322 88.0675 83.429 87.4279C84.6156 87.3314 85.7636 86.9612 86.783 86.3463C87.8023 85.7314 88.6653 84.8886 89.3041 83.884C86.5315 85.2555 83.3609 85.5942 80.3612 84.8394C79.5397 84.5942 78.7878 84.1581 78.1672 83.5667C77.5367 82.9714 77.0476 82.2424 76.7361 81.4332C76.427 81.827 76.1913 82.2731 76.0402 82.7504C75.8941 83.1814 75.8258 83.635 75.8386 84.0899Z" fill="#E62236"/>
<path d="M46.1942 84.4397C45.8792 82.7054 45.3732 81.0113 44.6856 79.3883C44.0283 77.6563 43.0344 76.0717 41.7612 74.7261C41.4277 74.3603 41.0396 74.0484 40.6105 73.8016C40.3133 73.6133 39.9564 73.5427 39.6099 73.6039C39.4876 73.5737 39.3588 73.5839 39.2428 73.633C39.1414 73.7048 39.0546 73.7953 38.987 73.8995C38.896 74.0444 38.8355 74.2063 38.8092 74.3753C38.7575 74.8883 38.7986 75.4063 38.9305 75.9047C39.0259 76.3547 39.1535 76.7972 39.3125 77.2288C39.9303 78.9248 40.8039 80.5163 41.9029 81.9482C41.2015 80.3354 40.6172 78.6741 40.1544 76.9773C39.9548 76.1988 39.8908 75.3917 39.9652 74.5915C39.9652 74.5915 39.9652 74.5915 40.2099 74.5721C40.5343 74.7917 40.8333 75.0467 41.1013 75.3324C42.2806 76.5837 43.256 78.0124 43.9918 79.5664C44.8263 81.1624 45.5103 82.801 46.1942 84.4397Z" fill="#EFB68F"/>
<path d="M45.8653 72.5231C47.1139 75.0712 49.4601 79.0405 52.4147 77.4827C55.3692 75.9248 58.1418 72.0729 63.6653 69.1417C64.9833 68.6047 66.1588 67.7694 67.0996 66.7015C68.0403 65.6335 68.7206 64.3619 69.087 62.9867C69.1476 63.7514 70.4055 65.2522 77.0405 66.6345C79.3672 67.4109 81.8945 67.3324 84.1684 66.413C86.4424 65.4937 88.3141 63.7937 89.4474 61.6185C89.6172 63.7596 96.4107 69.4694 101.445 68.5162C102.829 68.19 104.048 67.3714 104.874 66.2129C105.699 65.0543 106.075 63.6351 105.932 62.2198L107.65 61.3756C109.3 60.4445 111.633 58.8128 111.73 56.9275C111.915 53.8348 111.989 51.2741 106.132 46.1058C101.8 42.3248 86.9572 41.4702 74.783 44.3746C70.833 45.1577 67.0287 46.5497 63.506 48.5008C51.8356 55.4283 44.6925 70.1537 45.8653 72.5231Z" fill="#B37534"/>
<path d="M74.9001 44.3037C83.0995 44.4539 100.09 43.2913 104.32 49.666C107.223 54.0529 109.525 58.2411 107.767 61.3047C109.448 60.3711 111.753 58.7725 111.88 56.8848C112.066 53.792 112.137 51.2008 106.279 46.0325C101.914 42.2233 87.0888 41.5828 74.9001 44.3037Z" fill="#936037"/>
<path d="M84.2919 82.0783C86.1136 81.773 87.5246 81.1325 87.4433 80.6479C87.3621 80.1632 85.8194 80.0178 83.9977 80.3231C82.176 80.6284 80.765 81.2688 80.8462 81.7535C80.9275 82.2381 82.4701 82.3836 84.2919 82.0783Z" fill="#EF5058"/>
</g>
<defs>
<linearGradient id="paint0_linear_49_25177" x1="71.9999" y1="3.46973" x2="71.9999" y2="140.53" gradientUnits="userSpaceOnUse">
<stop stop-color="#2067CE"/>
<stop offset="0.679591" stop-color="#1D4C91"/>
</linearGradient>
</defs>
</svg>
