<svg width="883" height="806" viewBox="0 0 883 806" fill="none" xmlns="http://www.w3.org/2000/svg">
<g clip-path="url(#clip0_83_6874)">
<g clip-path="url(#clip1_83_6874)">
<path d="M376.736 779.172C376.736 779.172 435.93 768.448 487.623 739.88C499.519 733.405 510.759 725.851 521.192 717.318C531.635 725.851 542.884 733.405 554.79 739.88C606.482 768.477 665.677 779.172 665.677 779.172C635.55 752.062 606.394 710.855 582.24 671.335C657.763 710.426 739.64 725.153 739.64 725.153C691.126 681.515 644.258 613.798 606.453 550.457C636.696 562.631 668.049 572.014 700.099 578.482C662.529 544.767 626.194 493.522 596.214 444.021C618.741 452.706 642.003 459.471 665.736 464.239C632.549 434.441 600.569 387.715 575.149 344.62C594.849 352.618 615.292 358.766 636.197 362.979C576.767 309.56 522.074 187.539 521.221 185.595C521.221 185.595 466.116 309.16 406.245 362.893C427.128 358.708 447.551 352.589 467.234 344.62C466.293 346.221 465.351 347.823 464.292 349.424C439.373 391.089 408.393 435.557 376.648 464.239C400.38 459.471 423.642 452.706 446.169 444.021C444.315 447.195 442.373 450.37 440.285 453.487C411.452 499.813 377.354 546.854 342.225 578.482C374.265 572.011 405.609 562.629 435.842 550.457C431.527 557.702 427.094 564.984 422.544 572.305C387.327 629.04 345.726 686.577 302.743 725.153C302.743 725.153 384.65 710.34 460.173 671.249C457.437 675.738 454.613 680.257 451.759 684.746C429.399 720.092 403.45 755.122 376.736 779.172Z" fill="#00712F"/>
<path opacity="0.3" d="M460.173 671.333C460.173 671.333 481.797 654.833 488.711 644.252L485.769 663.212L511.395 601.529C511.395 601.529 532.695 621.347 539.491 626.551L573.561 652.602C552.966 601.701 539.668 547.282 534.196 523.175L518.956 511.736L529.459 560.35L490.3 522.832L468.117 575.85L465.175 547.253L422.632 572.389C427.163 565.069 431.596 557.786 435.93 550.542C448.581 542.964 464.939 530.524 470.058 515.339L471.794 545.308L482.533 493.835L513.042 532.869L500.833 485.113C509.695 494.981 520.028 503.502 531.489 510.392L601.069 540.847C581.357 499.383 570.648 454.6 566.5 434.669L551.995 422.258L558.321 461.893L523.545 434.897L506.452 459.862L498.891 431.952L457.378 459.548L461.291 440.474L440.285 453.485C442.285 450.282 444.227 447.108 446.169 443.934C446.169 443.934 470.235 428.034 475.59 417.482L466.763 437.242L502.068 412.564L507.187 442.218L521.221 406.701L551.142 445.764L542.581 405.243C547.825 413.409 555.371 419.94 564.322 424.059L586.3 435.069C570.624 405.645 558.453 374.579 550.024 342.474L533.195 329.605L539.079 345.333L506.217 329.92L474.589 349.937L481.474 339.299C476.456 343.626 470.688 347.054 464.439 349.423C465.41 347.821 466.351 346.22 467.381 344.618C484.416 332.15 495.949 312.39 496.449 311.561L485.71 334.438L507.54 317.28L529.783 327.26L519.721 313.62C527.783 319.963 536.979 324.81 546.847 327.918L569.177 334.953C540.315 274.414 521.545 187.223 521.192 185.593C522.045 187.481 576.767 309.53 636.197 362.891C615.296 358.663 594.855 352.515 575.149 344.533C600.569 387.427 632.549 434.354 665.677 464.152C641.967 459.408 618.725 452.672 596.214 444.02C626.224 493.349 662.588 544.765 700.158 578.566C668.108 572.098 636.754 562.715 606.512 550.542C644.258 613.854 691.126 681.599 739.64 725.152C739.64 725.152 657.763 710.339 582.24 671.219C606.365 710.825 635.55 751.975 665.677 779.056C586.241 745.427 555.496 679.884 544.728 646.712L515.719 625.236L474.707 686.547L477.267 667.187L451.759 684.831C454.613 680.341 457.437 675.823 460.173 671.333Z" fill="black"/>
</g>
<g clip-path="url(#clip2_83_6874)">
<path d="M561.354 775.103C561.354 775.103 636.681 761.415 702.461 724.948C717.6 716.683 731.903 707.039 745.179 696.148C758.468 707.04 772.783 716.683 787.934 724.948C853.714 761.451 929.041 775.103 929.041 775.103C890.703 740.499 853.602 687.898 822.864 637.451C918.97 687.35 1023.16 706.149 1023.16 706.149C961.425 650.446 901.785 564.007 853.676 483.153C892.161 498.693 932.059 510.67 972.844 518.926C925.035 475.889 878.798 410.476 840.648 347.29C869.314 358.376 898.915 367.011 929.116 373.097C886.885 335.061 846.189 275.415 813.842 220.406C838.911 230.616 864.924 238.463 891.527 243.84C815.901 175.653 746.302 19.8953 745.216 17.4131C745.216 17.4131 675.093 175.142 598.905 243.731C625.48 238.389 651.469 230.578 676.516 220.406C675.318 222.45 674.12 224.494 672.772 226.538C641.062 279.723 601.639 336.485 561.242 373.097C591.443 367.011 621.044 358.376 649.71 347.29C647.351 351.341 644.88 355.393 642.222 359.372C605.532 418.507 562.141 478.554 517.439 518.926C558.21 510.667 598.096 498.69 636.569 483.153C631.078 492.401 625.437 501.697 619.647 511.042C574.832 583.463 521.894 656.907 467.196 706.149C467.196 706.149 571.425 687.241 667.531 637.341C664.049 643.072 660.455 648.84 656.823 654.571C628.37 699.688 595.349 744.404 561.354 775.103Z" fill="#00712F"/>
<path opacity="0.3" d="M667.531 637.449C667.531 637.449 695.048 616.387 703.847 602.881L700.103 627.082L732.712 548.345C732.712 548.345 759.818 573.642 768.466 580.286L811.82 613.54C785.613 548.564 768.691 479.099 761.727 448.328L742.334 433.726L755.699 495.781L705.868 447.89L677.639 515.566L673.896 479.063L619.759 511.149C625.525 501.804 631.165 492.508 636.681 483.261C652.78 473.588 673.596 457.709 680.11 438.326L682.319 476.581L695.984 410.876L734.808 460.702L719.271 399.742C730.549 412.338 743.698 423.215 758.283 432.011L846.825 470.886C821.741 417.957 808.114 360.794 802.835 335.351L784.377 319.509L792.427 370.102L748.174 335.643L726.422 367.51L716.8 331.883L663.974 367.109L668.954 342.761L642.222 359.37C644.768 355.282 647.239 351.23 649.71 347.178C649.71 347.178 680.335 326.883 687.149 313.413L675.917 338.636L720.844 307.134L727.358 344.988L745.216 299.651L783.292 349.514L772.397 297.79C779.071 308.214 788.673 316.55 800.064 321.809L828.031 335.862C808.083 298.304 792.595 258.648 781.869 217.666L760.454 201.24L767.942 221.316L726.123 201.641L685.876 227.193L694.637 213.614C688.251 219.137 680.912 223.512 672.96 226.536C674.195 224.492 675.393 222.448 676.703 220.404C698.381 204.488 713.057 179.265 713.693 178.206L700.028 207.409L727.807 185.507L756.111 198.246L743.307 180.835C753.567 188.932 765.268 195.119 777.826 199.086L806.242 208.066C769.514 130.789 745.628 19.4918 745.179 17.4111C746.265 19.8203 815.901 175.615 891.527 243.729C864.93 238.331 838.918 230.484 813.842 220.294C846.189 275.048 886.885 334.95 929.041 372.986C898.869 366.931 869.294 358.333 840.648 347.288C878.836 410.255 925.11 475.887 972.919 519.034C932.135 510.777 892.236 498.8 853.752 483.261C901.785 564.078 961.425 650.553 1023.16 706.147C1023.16 706.147 918.97 687.239 822.865 637.303C853.564 687.859 890.704 740.387 929.041 774.955C827.956 732.028 788.833 648.363 775.13 606.02L738.215 578.606L686.026 656.868L689.283 632.156L656.823 654.678C660.455 648.947 664.049 643.18 667.531 637.449Z" fill="black"/>
<path opacity="0.68" d="M735.614 439.338C728.534 428.258 706.687 392.172 726.95 399.89C741.939 405.786 758.453 406.318 773.779 401.399C787.265 396.906 798.155 393.578 810.663 397.626L815.45 399.17C818.27 400.069 820.772 401.783 822.652 404.104C824.532 406.424 825.707 409.251 826.036 412.239C828.868 437.692 835.308 502.421 826.34 496.864C815.18 490.004 815.787 480.261 809.853 466.472C803.92 452.682 804.695 479.987 793.873 479.987C777.724 479.987 779.982 470.554 768.182 462.115C766.974 461.188 765.551 460.593 764.051 460.389C762.551 460.185 761.025 460.378 759.619 460.949C757.388 461.904 754.968 462.315 752.553 462.15C750.138 461.985 747.795 461.249 745.709 460C743.623 458.75 741.853 457.023 740.539 454.954C739.226 452.886 738.405 450.534 738.143 448.085L737.974 446.473C737.776 443.934 736.965 441.483 735.614 439.338Z" fill="white"/>
<path opacity="0.68" d="M737.17 316.46C722.673 298.382 720.92 317.626 729.146 337.728C737.373 357.829 716.638 348.19 713.368 332.96C711.21 322.909 690.139 322.669 681.137 326.648C666.926 334.094 654.219 344.194 643.68 356.423C643.512 356.697 643.31 356.903 643.141 357.143C636.061 366.885 633.027 347.676 630.397 341.433C628.758 336.216 628.411 330.668 629.387 325.282C630.364 319.896 632.633 314.838 635.994 310.56C644.49 299.514 646.445 302.979 658.144 291.179C669.843 279.379 679.789 245.59 705.108 246.311C710.603 246.311 717.582 253.171 724.629 262.021C731.203 270.151 737.878 279.962 743.509 287.611C755.174 303.494 763.737 313.819 765.018 325.825C766.3 337.831 751.667 334.538 737.17 316.46Z" fill="white"/>
<path opacity="0.68" d="M778.621 119.322C777.643 129.613 770.496 122.958 759.572 113.491L758.291 112.393C756.898 111.227 755.65 110.232 754.549 109.409H754.347C747.873 104.743 746.289 106.63 745.379 114.657C744.94 118.602 742.985 119.768 740.49 119.356C735.835 117.9 731.774 114.937 728.926 110.918C724.375 104.846 729.465 98.6718 722.79 96.1677C716.115 93.6636 704.483 115.96 697.707 108.722C691.807 102.411 727.746 37.6127 737.017 21.1473C738.366 18.7461 739.175 17.374 739.175 17.374C752.863 18.3688 779.632 108.86 778.621 119.322Z" fill="white"/>
</g>
<path d="M697.056 628.569C603.938 627.97 526.062 553.714 183.141 674.718L-145.765 920.463L932.99 967.65L925.515 852.822C924.892 762.809 919.628 582.41 903.557 580.915C883.467 579.046 826.469 629.4 697.056 628.569Z" fill="white"/>
<path d="M387.456 737.043C384.602 739.042 370.28 739.871 375.122 743.502C379.963 747.132 393.609 746.398 398.573 744.168C401.521 742.808 410.46 741.122 412.097 738.729C413.07 737.274 415.437 732.42 406.16 732.624C404.699 732.584 390.769 734.705 387.456 737.043Z" fill="#DADADA"/>
<path d="M459.079 708.097C456.225 710.095 441.917 710.925 446.745 714.555C451.573 718.185 465.232 717.451 470.196 715.221C473.144 713.861 482.083 712.175 483.72 709.715C484.693 708.26 487.074 703.406 477.783 703.61C476.335 703.637 462.392 705.758 459.079 708.097Z" fill="#DADADA"/>
<path d="M539.561 680.577C536.707 682.576 522.399 683.392 527.24 687.036C532.082 690.68 545.714 689.932 550.677 687.702C553.626 686.342 562.579 684.656 564.201 682.182C565.175 680.741 567.555 675.887 558.264 676.091C556.817 676.118 542.874 678.239 539.561 680.577Z" fill="#DADADA"/>
<path d="M389.971 694.609C387.118 696.621 372.809 697.437 377.637 701.067C382.465 704.697 396.125 703.977 401.088 701.747C404.036 700.387 412.976 698.701 414.612 696.227C415.586 694.786 417.966 689.932 408.675 690.136C407.269 690.163 393.325 692.325 389.971 694.609Z" fill="#DADADA"/>
<path d="M469.858 673.901C467.018 675.913 452.696 676.729 457.538 680.359C462.379 683.989 476.011 683.269 480.975 681.025C483.923 679.666 492.876 677.98 494.499 675.519C495.459 674.078 497.839 669.224 488.548 669.414C487.115 669.455 473.171 671.562 469.858 673.901Z" fill="#DADADA"/>
<path d="M573.012 644.17C570.172 646.183 555.85 646.999 560.692 650.629C565.533 654.259 579.165 653.538 584.129 651.295C587.077 649.935 596.03 648.249 597.653 645.788C598.613 644.347 600.993 639.493 591.702 639.684C590.269 639.724 576.325 641.832 573.012 644.17Z" fill="#F4F4F4"/>
<path d="M632.814 651.646C629.96 653.645 615.652 654.461 620.493 658.105C625.335 661.748 638.967 661.001 643.931 658.771C646.879 657.411 655.832 655.725 657.455 653.251C658.428 651.809 660.809 646.956 651.518 647.16C650.071 647.187 636.127 649.308 632.814 651.646Z" fill="#F4F4F4"/>
<g style="mix-blend-mode:darken">
<path d="M593.792 683.908C592.44 690.706 581.621 697.885 576.793 703.215C563.147 718.361 581.377 743.882 522.101 740.401C462.825 736.92 438.347 729.306 415.667 731.903C398.649 733.909 381.901 737.784 365.723 743.46C356.675 746.642 291.097 763.053 283.902 756.458C276.707 749.864 264.86 747.376 264.86 747.376C264.86 747.376 288.081 725.88 306.42 714.853C324.758 703.827 330.168 691.046 333.089 684.941C335.591 679.666 370.037 649.061 379.409 640.808L382.939 640.59C448.449 637.028 528.106 654.608 548.838 662.643C564.206 668.883 579.214 675.982 593.792 683.908Z" fill="#EDEDED"/>
</g>
<path d="M38.7773 753.674C106.988 694.807 194.665 663.194 213.975 662.104C21.491 747.133 -13.252 1011.95 -22.8926 888.226C-26.5729 840.996 15.9428 773.38 38.7773 753.674Z" fill="url(#paint0_linear_83_6874)"/>
<path d="M275.799 732.883C275.799 732.883 287.696 743.769 285.184 748.287C282.671 752.805 274.889 755.567 270.869 755.091C266.849 754.615 265.219 756.452 258.51 757.513C251.801 758.575 242.417 755.023 243.639 751.254C244.862 747.484 243.748 742.64 252.467 741.565C261.186 740.49 263.033 743.715 263.033 743.715L265.342 735.55L275.799 732.883Z" fill="#2D2D2C"/>
<path d="M390.912 712.185C390.912 712.185 402.292 712.62 403.501 716.267C404.71 719.914 402.143 729.195 400.187 730.814C398.232 732.433 400.187 745.783 395.325 746.382C390.463 746.98 377.331 747.28 375.321 742.898C373.311 738.516 370.486 735.019 375.321 730.515C380.155 726.01 384.651 728.215 384.651 728.215L385.669 720.472L390.912 712.185Z" fill="#2D2D2C"/>
<path d="M278.842 735.359H265.41L251.612 720.458C251.612 720.458 261.512 720.826 267.732 722.867C270.095 723.643 271.929 724.663 272.499 725.983C274.148 729.4 276.285 732.559 278.842 735.359Z" fill="#F6F6F6"/>
<path d="M308.163 554.984C303.957 566.9 298.296 578.249 291.309 588.773C277.728 608.804 249.208 615.54 248.596 615.812C270.877 603.001 288.244 583.094 297.936 559.257C306.872 537.674 308.163 505.818 307.13 488.821L312.196 488.522C312.196 488.522 315.849 533.633 308.163 554.984Z" fill="#EDEDED"/>
<path d="M552.063 517.317C548.342 521.766 542.95 524.27 537.45 526.244C533.77 527.604 530.048 528.652 526.721 529.945C521.628 531.918 517.5 534.354 516.033 538.79C513.154 547.472 511.266 557.651 507.11 565.19C505.797 567.693 504.044 569.938 501.936 571.817C500.374 573.129 498.701 574.304 496.938 575.328C486.712 581.52 469.925 587.82 469.925 587.82L431.247 580.594C431.247 580.594 407.602 568.769 387.475 564.795C383.294 563.899 379.025 563.479 374.75 563.543C367.96 563.761 353.347 560.305 336.723 555.515C334.849 554.984 332.961 554.426 331.047 553.854C297.026 543.784 257.329 529.496 257.329 529.496C257.329 529.496 304.007 372.145 314.519 364.511C328.385 354.441 371.64 343.677 376.38 337.213C381.12 330.75 409.191 320.802 421.197 319.986C432.591 319.196 462.578 336.9 466.014 338.697C468.73 339.787 471.559 340.567 474.448 341.024C478.522 341.854 483.344 342.752 488.165 344.072C495.159 345.977 502.085 348.739 506.445 353.366C516.576 364.13 521.683 370.336 525.037 376.377C528.392 382.419 549.374 414.657 548.342 427.694C548.002 432.459 548.152 437.247 548.79 441.982C550.466 453.987 554.475 465.545 560.592 476.002C570.642 493.489 562.14 505.341 552.063 517.317Z" fill="#CBBBA0"/>
<path d="M395.325 712.892L388.114 718.553L385.669 720.458L373.989 710.606L381.011 706.809L386.375 703.911L395.325 712.892Z" fill="#F6F6F6"/>
<path d="M395.325 712.892L388.114 718.553L379.191 710.021L381.011 706.809L386.375 703.911L395.325 712.892Z" fill="#C6C6C6"/>
<path d="M278.842 735.359H274.509L266.863 723.207L267.678 722.867C270.041 723.642 271.875 724.663 272.445 725.983C274.111 729.403 276.266 732.562 278.842 735.359Z" fill="#C6C6C6"/>
<path d="M376.787 672.109C372.523 680.601 386.375 703.911 386.375 703.911L379.177 710.021L375.809 712.893C375.809 712.893 355.139 707.858 331.956 685.227C308.774 662.597 316.651 660.297 316.651 660.297L398.598 615.812C398.598 615.908 398.286 616.711 397.783 618.071C394.212 627.624 380.495 664.72 376.787 672.109Z" fill="#E62236"/>
<path d="M386.376 703.911L379.178 710.021C374.302 706.374 349.802 687.554 346.285 676.436C342.36 664.067 343.338 660.107 343.338 660.107L397.729 618.044C394.198 627.57 380.481 664.692 376.774 672.082C372.523 680.6 386.376 703.911 386.376 703.911Z" fill="#B81829"/>
<path d="M316.556 662.978C316.556 662.978 311.816 666.271 305.691 670.843C299.566 675.415 291.662 681.471 285.931 686.669C273.518 697.923 272.54 725.983 272.54 725.983H256.732C256.732 725.983 223.608 696.903 237.569 660.977C238.743 657.89 240.348 654.985 242.336 652.35C244.739 649.195 247.768 646.572 251.231 644.647C270.965 633.638 300.503 646.702 300.503 646.702L316.556 662.978Z" fill="#E62236"/>
<path d="M236.551 537.851C233.656 538.66 230.691 539.193 227.696 539.443C214.726 540.804 207.881 568.388 197.546 575.219C196.753 575.755 195.883 576.168 194.966 576.444C188.95 578.199 174.771 565.557 181.48 554.494C182.051 553.558 182.72 552.687 183.476 551.895C184.386 550.942 185.242 550.044 186.07 549.173C183.626 543.39 182.091 535.946 187.578 531.823C188.448 531.176 189.403 530.654 190.416 530.271C205.274 524.338 210.353 524.57 224.165 525.971C237.977 527.373 247.769 538.845 247.769 538.845C247.769 538.845 249.059 541.961 236.551 537.851Z" fill="#CBBBA0"/>
<path d="M277.578 654.201C269.036 656.759 245.392 650.363 245.392 650.363C245.392 650.363 243.001 649.22 239.701 640.239C239.084 638.544 238.705 636.772 238.574 634.973C240.422 636.747 242.816 637.841 245.364 638.075C245.485 638.865 245.685 639.64 245.962 640.389C248.094 646.158 249.629 646.893 249.629 646.893C249.629 646.893 264.799 650.976 270.285 649.343C273.002 648.54 273.328 643.9 273.002 639.409C274.851 639.529 276.707 639.529 278.556 639.409C279.675 639.314 280.784 639.123 281.87 638.837C282.318 645.846 281.802 652.949 277.578 654.201Z" fill="#CBA50A"/>
<path d="M326.592 451.875L334.74 428.184L351.323 407.186L360.517 392.979L379.313 388.707L364.551 400.586L360.517 418.971L345.171 428.184L340.118 462.98L326.592 451.875Z" fill="#A48A7B"/>
<path d="M552.063 517.317C548.342 521.767 542.951 524.271 537.45 526.244C533.77 527.605 530.049 528.653 526.721 529.945C521.629 531.919 517.5 534.354 516.033 538.791C513.154 547.473 511.266 557.652 507.11 565.19C505.797 567.693 504.045 569.938 501.936 571.818C500.374 573.129 498.702 574.304 496.938 575.328C486.712 581.52 469.926 587.821 469.926 587.821L431.247 580.595C431.247 580.595 407.603 568.769 387.476 564.796L381.717 559.353L400.296 548.466C400.296 548.466 477.124 568.633 476.906 565.449C476.689 562.265 526.341 506.934 527.849 504.417C529.356 501.899 540.248 452.706 540.248 452.706C540.248 452.706 544.037 445.221 548.682 442.037C550.357 454.041 554.367 465.6 560.484 476.057C570.642 493.489 562.141 505.342 552.063 517.317Z" fill="#877366"/>
<path d="M335.162 542.41L303.831 492.809L328.439 451.658L341.613 469.702L354.786 485.528L392.976 486.018L423.425 474.764L447.694 468.491L521.778 432.253L548.288 427.694L548.519 472.464L544.268 506.594L497.251 548.479L482.678 568.17L395.326 550.902L471.936 549.214L455.883 538.845H414.896L383.143 549.269L414.896 521.29C414.896 521.29 429.129 515.208 433.067 514.486C437.006 513.765 462.714 494.469 462.714 494.469L478.74 484.181L461.207 489.992C461.207 489.992 444.489 502.389 439.667 503.79L411.147 512.091L388.196 530.993L371.572 538.845L335.162 542.41Z" fill="#A48A7B"/>
<path d="M181.48 554.494C181.48 554.494 205.287 537.974 215.432 536.558C225.577 535.143 231.43 536.558 231.43 536.558L227.478 530.993C227.478 530.993 208.913 536.218 204.391 538.845C199.868 541.471 188.691 547.309 188.691 547.309L181.48 554.494Z" fill="#A48A7B"/>
<path d="M334.687 485.338L351.228 467.157L375.592 449.984L397.023 434.321L382.084 449.984C382.084 449.984 383.863 460.87 371.6 464.953C359.336 469.035 367.525 470.791 359.377 469.035C351.228 467.28 334.116 499.762 334.116 499.762L325.003 486.644L334.687 485.338Z" fill="#A48A7B"/>
<path d="M305.188 670.843C298.914 675.484 291.159 681.471 285.428 686.67C273.015 697.923 272.037 725.983 272.037 725.983H269.796C263.821 718.411 258.706 710.195 254.545 701.489C246.967 685.69 243.354 663.971 241.874 652.364C241.236 647.383 240.991 644.199 240.991 644.199L250.769 644.607L300.028 646.662L305.188 670.843Z" fill="#B81829"/>
<path d="M226.12 619.051C226.12 617.268 230.48 613.376 230.48 613.376L236.849 620.044L234.133 628.481C234.133 628.481 226.12 622.154 226.12 619.051Z" fill="#1D1D1B"/>
<path d="M403.338 615.812C397.634 625.106 362.975 670.748 318.24 665.89C273.504 661.031 281.164 654.595 270.285 654.595C269.723 654.592 269.16 654.624 268.601 654.69C267.516 654.822 266.45 655.077 265.423 655.452C257.587 658.174 252.616 666.652 245.228 664.284C236.428 661.453 229.977 654.989 229.977 652.975C229.977 650.961 237.474 643.287 237.474 643.287C237.474 643.287 237.066 642.715 236.455 641.694C234.369 638.215 232.722 634.49 231.552 630.604C230.294 626.472 229.752 622.155 229.95 617.839C230.466 609.293 233.236 598.788 235.26 591.984C236.496 587.902 237.447 585.18 237.447 585.18L335.134 542.41C335.134 542.41 355.289 544.233 370.608 554.984C378.463 560.521 385.743 566.835 392.337 573.831C396.474 578.108 400.16 582.8 403.338 587.834C405.988 592.016 407.396 596.868 407.396 601.823C407.396 606.777 405.988 611.629 403.338 615.812Z" fill="#E62236"/>
<path d="M404.031 603.497C404.031 603.497 368.082 658.787 368.082 636.741C368.082 586.786 328.317 556.971 328.317 556.971L328.711 555.351L334.768 530.136C342.59 528.979 352.722 529.006 362.133 533.687C371.545 538.368 386.769 548.874 399.956 558.413L402.306 584.269L404.031 603.497Z" fill="#C71629"/>
<path d="M251.924 573.735L240.434 614.423C240.434 614.423 210.855 601.767 200.316 589.683C199.25 588.517 198.337 587.218 197.6 585.819C192.086 574.647 207.867 554.411 212.539 548.75C213.354 547.784 213.897 547.253 213.897 547.253L215.649 548.478L223.539 553.921L251.924 573.735Z" fill="#A01928"/>
<path d="M215.703 548.478L212.66 548.75C207.948 554.411 192.493 574.483 197.721 585.819C201.497 593.984 205.028 593.725 206.169 595.018C198.455 574.02 215.974 563.719 215.974 563.719L223.634 553.935L215.703 548.478Z" fill="#E62236"/>
<path d="M221.503 555.419L217.972 566.441C217.972 566.441 216.967 564.74 215.446 562.672C213.205 559.61 209.837 555.759 206.903 555.405C203.128 554.956 214.115 544.083 221.503 540.749C223.703 539.756 225.577 539.389 226.664 540.246C231.349 543.838 221.503 555.419 221.503 555.419Z" fill="white"/>
<g style="mix-blend-mode:darken">
<path d="M221.502 555.419L217.971 566.441C217.971 566.441 216.966 564.74 215.445 562.672V560.998C215.445 560.399 215.445 559.828 215.445 559.311C215.676 555.147 218.718 547.172 221.448 540.749C223.648 539.756 225.522 539.389 226.609 540.246C231.349 543.838 221.502 555.419 221.502 555.419Z" fill="#DADADA"/>
</g>
<path d="M307.823 568.17C307.823 568.17 280.281 599.264 279.52 612.995C279.2 622.682 279.837 632.378 281.422 641.939L275.351 649.737C275.351 649.737 266.659 640.592 265.844 639.925C265.029 639.259 259.054 621.31 259.054 621.31C259.054 621.31 269.022 600.04 270.245 599.251C271.467 598.462 307.823 568.17 307.823 568.17Z" fill="#C71629"/>
<path d="M237.474 649.737C237.474 649.737 228.32 670.149 277.578 675.593C326.837 681.036 355.52 658.855 355.52 658.855L314.505 639.926L237.474 649.737Z" fill="#A01928"/>
<path d="M403.338 615.812C397.634 625.106 362.975 670.748 318.24 665.889C273.504 661.031 281.164 654.595 270.285 654.595C268.627 654.593 266.981 654.883 265.423 655.452C264.174 654.513 263.06 653.615 262.069 652.73C260.745 651.66 259.535 650.456 258.456 649.138C250.308 638.36 249.466 612.791 249.466 612.791L277.877 594.216C277.877 594.216 268.262 611.443 268.669 628.141C268.9 637.734 271.032 642.973 277.999 646.607C281.666 648.526 286.677 649.995 293.441 651.438C296.157 652.009 299.172 652.581 302.499 653.18C329.661 658.024 373.854 615.485 385.954 599.604C391.387 592.392 392.663 582.458 392.351 573.749C395.091 576.632 397.662 579.672 400.051 582.853C401.409 584.581 402.442 586.214 403.338 587.697C406.016 591.895 407.439 596.773 407.439 601.755C407.439 606.736 406.016 611.614 403.338 615.812Z" fill="white"/>
<path d="M395.325 581.098C387.945 593.105 379.129 604.164 369.073 614.03C364.844 618.145 360.304 621.926 355.492 625.338C329.363 643.75 321.309 644.24 321.309 644.24L297.23 623.828C297.23 623.828 327.923 613.866 347.575 600.204C351.445 597.482 355.519 594.284 359.458 590.991L379.327 572.865L381.744 570.47L388.222 575.56L395.325 581.098Z" fill="#3C3C3B"/>
<path d="M395.325 581.098C395.325 581.098 383.347 602.204 366.221 616.833C365.678 615.349 365.338 610.586 362.744 603.633C361.349 599.81 359.527 596.158 357.312 592.746L379.327 572.865L388.222 575.586L395.325 581.098Z" fill="#2D2D2C"/>
<g style="mix-blend-mode:darken">
<path d="M403.338 615.812C397.634 625.107 362.975 670.748 318.24 665.89C273.504 661.032 281.164 654.596 270.285 654.596C268.627 654.594 266.981 654.884 265.423 655.453C264.174 654.514 263.06 653.616 262.069 652.731L261.39 649.683H273.653L277.945 646.608L281.367 644.172C281.367 644.172 286.419 647.574 293.386 651.438C301.712 656.052 312.794 661.318 321.282 662.189C336.886 663.808 358.086 642.403 369.766 634.17C381.445 625.937 387.503 623.433 397.172 610.097C402.944 602.136 401.83 590.76 399.997 582.881C401.355 584.609 402.387 586.242 403.284 587.725C405.964 591.915 407.393 596.785 407.403 601.761C407.412 606.737 406.002 611.613 403.338 615.812Z" fill="#EDEDED"/>
</g>
<path d="M425.041 579.397V585.562C417.528 586.643 409.929 587.012 402.347 586.664C390.695 586.133 377.073 583.616 367.892 575.927C353.374 563.775 336.126 559.175 328.765 557.679C326.47 557.216 325.139 557.053 325.139 557.053L321.337 536.028C325.672 534.312 330.194 533.115 334.809 532.463C342.632 531.306 352.763 531.333 362.175 536.028C371.586 540.723 386.811 551.215 399.998 560.74C413.674 570.62 425.041 579.397 425.041 579.397Z" fill="#E62236"/>
<path d="M425.041 577.056V583.221C417.528 584.303 409.93 584.676 402.347 584.337C390.695 583.793 377.073 581.289 367.892 573.6C353.374 561.448 336.126 556.848 328.765 555.352C326.47 554.875 325.139 554.712 325.139 554.712L321.337 533.701C325.659 531.988 330.167 530.792 334.768 530.136C337.017 529.792 339.285 529.587 341.559 529.523C348.647 529.193 355.707 530.629 362.107 533.701C371.41 538.341 386.743 548.874 399.93 558.413C409.314 565.217 417.585 571.436 421.877 574.743C423.914 576.186 425.041 577.056 425.041 577.056Z" fill="#C71629"/>
<path d="M421.945 574.702L421.401 578.159C417.942 577.277 414.537 576.196 411.202 574.92C408.241 573.559 377.888 556.889 371.695 549.786C365.502 542.682 341.559 539.784 341.559 539.784C341.559 539.784 342.088 530.639 341.559 529.523C348.647 529.193 355.707 530.629 362.107 533.701C371.41 538.341 386.743 548.874 399.93 558.413C409.382 565.177 417.612 571.504 421.945 574.702Z" fill="#A01928"/>
<path d="M414.896 569.545C414.896 569.545 420.111 572.77 419.146 578.69C418.826 581.491 418.131 584.238 417.082 586.854L432.157 585.779V580.758L414.896 569.545Z" fill="#EDEDED"/>
<path d="M249.466 598.597L248.529 638.973L231.552 630.604C230.294 626.472 229.752 622.155 229.95 617.839C230.466 609.293 233.236 598.788 235.26 591.984L249.466 598.597Z" fill="#C71629"/>
<path d="M270.286 647.329C269.941 649.827 269.378 652.291 268.602 654.691C267.517 654.822 266.45 655.078 265.424 655.453C257.587 658.174 252.617 666.652 245.229 664.284C236.428 661.454 229.977 654.99 229.977 652.976C229.977 650.962 237.474 643.287 237.474 643.287C237.474 643.287 237.067 642.715 236.455 641.695L249.466 640.525C249.466 640.525 250.824 641.395 248.529 637.898C246.234 634.401 240.38 626.835 242.743 615.812C245.106 604.79 246.709 599.401 246.709 599.401L252.006 603.483L270.286 647.329Z" fill="#EDEDED"/>
<path d="M226.12 619.051C226.12 619.051 227.193 627.134 260.711 627.134C294.229 627.134 317.9 615.812 317.9 615.812C317.9 615.812 333.777 619.038 335.759 621.473C337.742 623.909 335.447 636.946 331.753 640.525C328.059 644.104 307.307 654.691 273.667 654.133C256.324 653.874 234.187 647.533 234.187 647.533L226.12 619.051Z" fill="#2D2D2C"/>
<path d="M307.891 577.056C303.84 578.733 299.986 580.855 296.402 583.384C282.821 592.569 268.764 606.653 258.456 609.484C256.15 610.144 253.731 610.32 251.354 610.001C242.037 608.64 235.287 599.591 227.505 592.406C218.542 584.118 216.885 569.204 217.034 560.998C217.034 560.399 217.034 559.828 217.034 559.311C217.279 554.562 221.19 544.886 224.151 538.177C225.984 534.013 227.451 530.992 227.451 530.992L245.826 524.297L308.964 501.272L314.396 499.258C314.396 499.258 317.955 500.891 322.789 503.79C328.444 507.12 333.706 511.077 338.475 515.588C341.509 518.476 344.107 521.79 346.189 525.427C354.759 540.926 324.555 570.592 307.891 577.056Z" fill="white"/>
<path d="M354.786 485.528L343.501 481.092L341.083 480.139C350.984 479.336 338.693 459.468 330.599 456.175C324.65 453.78 330.449 481.037 328.371 480.86C327.869 480.86 323.048 479.758 315.999 478.139C293.781 473.131 249.452 462.884 249.452 462.884C249.452 462.884 249.452 462.503 249.588 461.809C250.241 457.447 251.328 453.162 252.834 449.017C253.828 446.214 255.022 443.485 256.406 440.853C262.843 428.714 275.08 416.263 298.086 417.283C301.163 417.413 304.226 417.764 307.253 418.331C342.713 425.054 346.339 460.516 351.812 474.424C357.733 489.57 354.786 485.528 354.786 485.528Z" fill="#E62236"/>
<path d="M307.266 418.399C299.96 418.304 288.253 419.08 278.95 423.611C266.007 429.898 253.228 451.658 253.228 451.658L252.847 449.045C253.841 446.241 255.035 443.512 256.419 440.88C262.856 428.742 275.093 416.29 298.099 417.311C301.177 417.454 304.24 417.818 307.266 418.399Z" fill="#E83D3E"/>
<path d="M315.85 454.365L308.217 464.544H248.542C249.635 457.244 251.929 450.176 255.333 443.629C265.871 440.821 276.853 440.09 287.669 441.479C309.276 444.608 315.85 454.365 315.85 454.365Z" fill="#CA2834"/>
<path d="M349.503 479.064L343.5 481.091L341.083 480.139C350.984 479.336 338.693 459.468 330.598 456.175C324.65 453.78 330.449 481.037 328.371 480.86C327.869 480.86 323.047 479.758 315.999 478.138L300.815 462.911C300.815 462.911 310.811 434.919 326.103 439.219C341.395 443.519 349.503 479.064 349.503 479.064Z" fill="#CA2834"/>
<path d="M338.394 532.952C332.35 544.75 309.344 569.694 273.083 573.599C241.209 576.947 227.478 530.992 227.478 530.992L245.853 524.297L322.871 503.79C328.525 507.119 333.787 511.077 338.557 515.588C340.2 521.398 340.974 527.958 338.394 532.952Z" fill="#F6F6F6"/>
<g style="mix-blend-mode:darken">
<path d="M310.009 563.339C307.66 569.921 304.879 576.34 301.684 582.553C299.11 587.574 294.058 597.574 286.131 604.421C273.791 615.08 260.29 618.048 248.05 617.367C262.448 594.284 238.41 575.417 231.837 550.833C231.253 548.669 230.792 546.601 230.479 544.655C230.02 542.226 229.702 539.772 229.529 537.307C231.362 533.156 232.842 530.135 232.842 530.135L314.328 500.401C314.953 511.397 316.406 545.526 310.009 563.339Z" fill="#DADADA"/>
</g>
<g style="mix-blend-mode:darken">
<path d="M317.697 494.468C317.697 495.271 332.201 512.771 331.128 522.732C330.055 532.694 321.458 545.077 311.789 548.03C302.119 550.983 301.576 549.309 301.576 549.309L300.503 518.01L303.83 492.849L317.697 494.468Z" fill="#DADADA"/>
</g>
<path d="M328.371 480.86C327.624 485.337 324.487 488.549 320.956 490.794C319.952 491.439 318.909 492.021 317.833 492.536C316.356 493.24 314.836 493.849 313.283 494.359C311.948 494.804 310.587 495.168 309.209 495.448L280.444 479.431L251.069 488.753C248.871 488.645 246.707 488.161 244.672 487.324C239.851 485.364 234.052 480.724 233.984 469.742C233.916 457.767 242.662 450.691 256.487 447.684C265.758 445.886 275.234 445.391 284.641 446.214C287.462 446.404 290.267 446.796 293.034 447.384C316.828 452.406 330.069 470.695 328.371 480.86Z" fill="white"/>
<path d="M316.365 487.677C316.365 488.494 330.87 505.98 329.797 515.942C328.724 525.903 320.127 538.286 310.444 541.253C300.761 544.219 300.245 542.532 300.245 542.532L299.172 511.233L302.486 486.058L316.365 487.677Z" fill="white"/>
<path d="M328.371 480.86C327.013 488.644 324.514 490.304 319.299 492.019L299.172 479.608C299.172 479.608 309.914 467.756 307.32 457.264C306.261 453.1 300.123 449.82 293.088 447.384C316.827 452.406 330.069 470.695 328.371 480.86Z" fill="#EDEDED"/>
<path d="M308.162 554.983C303.956 566.899 298.295 578.249 291.308 588.772C277.727 608.803 249.207 615.539 248.596 615.811C262.851 590.419 237.237 569.406 230.045 542.532C229.474 540.354 228.999 538.3 228.687 536.354C228.009 532.865 227.65 529.321 227.614 525.767C227.614 508.008 237.854 503.572 237.854 503.572L308.936 489.256L312.305 488.576C312.305 488.576 315.849 533.632 308.162 554.983Z" fill="white"/>
<path d="M241.67 463.456C240.284 468.126 240.696 473.147 242.825 477.527C243.035 477.969 243.276 478.396 243.545 478.806L244.672 487.324C242.198 486.347 239.995 484.789 238.248 482.779C235.817 479.962 234.024 475.826 233.984 469.743C233.916 457.768 242.662 450.691 256.487 447.684C249.982 451.413 244.088 454.842 241.67 463.456Z" fill="#EDEDED"/>
<path d="M244.672 487.323C242.198 486.346 239.994 484.787 238.248 482.778L242.825 477.526C243.035 477.969 243.276 478.396 243.544 478.805L244.672 487.323Z" fill="#C6C6C6"/>
<path d="M306.56 518.229C304.455 520.596 300.052 519.739 295.652 519.93C290.491 520.134 285.626 518.103 284.091 517.204C281.266 515.558 281.109 515.316 271.819 514.514C262.53 513.711 263.807 518.106 260.588 517.235C257.369 516.364 254.137 511.982 254.137 511.982C254.137 511.982 238.424 516.432 234.798 509.968C231.172 503.505 240.434 495.244 242.457 490.318C243.47 487.129 243.744 483.75 243.259 480.439C243.082 478.779 242.851 477.717 242.851 477.717C242.851 477.717 257.79 466.409 284.368 468.845C293.956 469.716 300.244 472.641 304.373 476.016C305.627 477.045 306.774 478.199 307.795 479.459C310.162 482.305 311.678 485.763 312.169 489.434C312.169 489.434 309.683 495.993 308.189 500.606C307.293 503.464 312.196 511.914 306.56 518.229Z" fill="#FAC9A7"/>
<path d="M307.212 517.885C305.107 520.253 302.452 519.929 296.332 519.929C299.849 515.507 300.897 507.056 300.747 498.36C300.639 491.556 302.771 482.098 304.373 476.016C308.611 479.305 311.406 484.117 312.169 489.433C312.169 489.433 309.683 495.992 308.19 500.605C307.293 503.463 312.848 511.571 307.212 517.885Z" fill="#EFB68F"/>
<path d="M245.229 511.082C249.519 511.082 252.997 508.865 252.997 506.129C252.997 503.394 249.519 501.177 245.229 501.177C240.938 501.177 237.46 503.394 237.46 506.129C237.46 508.865 240.938 511.082 245.229 511.082Z" fill="#F4A3A4"/>
<path d="M294.721 513.053C295.267 510.373 292.302 507.503 288.098 506.643C283.895 505.783 280.044 507.259 279.498 509.939C278.952 512.619 281.917 515.489 286.121 516.348C290.324 517.208 294.175 515.733 294.721 513.053Z" fill="#F4A3A4"/>
<path d="M348.566 507.206C357.506 507.206 364.754 499.944 364.754 490.985C364.754 482.026 357.506 474.764 348.566 474.764C339.625 474.764 332.377 482.026 332.377 490.985C332.377 499.944 339.625 507.206 348.566 507.206Z" fill="#EDEDED"/>
<path d="M307.891 535.088C303.955 538.044 299.463 540.171 294.685 541.341C289.908 542.51 284.943 542.698 280.091 541.892C266.428 539.416 262.761 531.918 262.109 526.461V526.529C259.597 530.611 254.504 534.966 245.812 537.701C240.141 539.472 234.008 538.984 228.687 536.34C228.009 532.851 227.65 529.307 227.614 525.753C232.068 525.467 236.835 524.392 240.434 521.562C247.062 516.35 253.35 514.05 258.171 514.567C259.299 514.678 260.389 515.037 261.363 515.618C262.337 516.199 263.172 516.988 263.807 517.928C264.936 516.953 266.275 516.253 267.72 515.883C269.164 515.512 270.674 515.481 272.132 515.792C284.504 517.52 282.467 526.678 290.942 530.543C296.349 532.851 302.056 534.381 307.891 535.088Z" fill="#EDEDED"/>
<path d="M290.833 527.522C282.359 523.658 284.382 514.513 272.024 512.785C270.569 512.471 269.061 512.499 267.619 512.868C266.177 513.236 264.839 513.934 263.712 514.908C263.071 513.971 262.233 513.186 261.257 512.608C260.281 512.03 259.191 511.672 258.062 511.56C253.227 511.029 246.953 513.343 240.326 518.555C231.308 525.631 214.888 521.753 214.888 521.753C214.888 521.753 227.559 540.287 245.704 534.639C254.463 531.918 259.556 527.563 262.001 523.454C262.666 528.897 266.333 536.408 279.996 538.885C284.848 539.69 289.813 539.503 294.591 538.333C299.368 537.164 303.86 535.037 307.796 532.081C301.955 531.374 296.243 529.84 290.833 527.522Z" fill="white"/>
<path d="M348.552 474.764C347.798 474.766 347.045 474.816 346.298 474.914C350.165 475.456 353.706 477.38 356.269 480.333C358.832 483.285 360.243 487.066 360.243 490.978C360.243 494.891 358.832 498.672 356.269 501.624C353.706 504.576 350.165 506.5 346.298 507.043C347.045 507.141 347.798 507.191 348.552 507.192C350.717 507.255 352.872 506.882 354.89 506.096C356.908 505.309 358.748 504.125 360.301 502.613C361.854 501.101 363.089 499.292 363.932 497.294C364.775 495.296 365.21 493.148 365.21 490.978C365.21 488.808 364.775 486.661 363.932 484.662C363.089 482.664 361.854 480.855 360.301 479.343C358.748 477.832 356.908 476.647 354.89 475.861C352.872 475.074 350.717 474.701 348.552 474.764Z" fill="white"/>
<path d="M256.173 500.096C259.909 500.096 262.937 497.062 262.937 493.319C262.937 489.576 259.909 486.542 256.173 486.542C252.438 486.542 249.41 489.576 249.41 493.319C249.41 497.062 252.438 500.096 256.173 500.096Z" fill="white"/>
<path d="M255.115 497.768C258.108 497.768 260.534 495.337 260.534 492.339C260.534 489.341 258.108 486.91 255.115 486.91C252.122 486.91 249.696 489.341 249.696 492.339C249.696 495.337 252.122 497.768 255.115 497.768Z" fill="#2D2D2C"/>
<path d="M253.239 491.209C253.877 491.209 254.394 490.691 254.394 490.052C254.394 489.413 253.877 488.896 253.239 488.896C252.602 488.896 252.085 489.413 252.085 490.052C252.085 490.691 252.602 491.209 253.239 491.209Z" fill="#F7F2E6"/>
<path d="M281.42 503.606C285.155 503.606 288.184 500.572 288.184 496.829C288.184 493.086 285.155 490.052 281.42 490.052C277.685 490.052 274.657 493.086 274.657 496.829C274.657 500.572 277.685 503.606 281.42 503.606Z" fill="white"/>
<path d="M280.375 501.292C283.368 501.292 285.794 498.862 285.794 495.864C285.794 492.865 283.368 490.435 280.375 490.435C277.383 490.435 274.957 492.865 274.957 495.864C274.957 498.862 277.383 501.292 280.375 501.292Z" fill="#2D2D2C"/>
<path d="M278.5 494.719C279.137 494.719 279.654 494.202 279.654 493.563C279.654 492.924 279.137 492.406 278.5 492.406C277.862 492.406 277.345 492.924 277.345 493.563C277.345 494.202 277.862 494.719 278.5 494.719Z" fill="#F7F2E6"/>
<path d="M265.478 482.925L265.872 479.221C265.896 478.999 265.84 478.777 265.714 478.593C265.588 478.41 265.4 478.279 265.185 478.223C262.445 477.523 259.584 477.437 256.806 477.971C254.028 478.505 251.403 479.647 249.116 481.315C247.856 482.135 246.774 483.202 245.936 484.451C245.901 484.511 245.885 484.581 245.891 484.65C245.896 484.719 245.923 484.785 245.967 484.838C246.011 484.892 246.07 484.931 246.137 484.95C246.203 484.969 246.274 484.967 246.34 484.944C248.53 484.191 255.919 481.78 259.947 482.483C261.49 482.752 263.016 483.11 264.518 483.555C264.623 483.59 264.734 483.6 264.843 483.586C264.953 483.571 265.057 483.533 265.15 483.472C265.242 483.412 265.32 483.331 265.376 483.236C265.433 483.141 265.468 483.035 265.478 482.925Z" fill="white"/>
<path d="M275.764 484.168L276.647 480.547C276.696 480.328 276.824 480.134 277.006 480.004C277.189 479.873 277.413 479.815 277.636 479.84C280.446 480.105 283.162 480.988 285.592 482.424C288.023 483.861 290.107 485.816 291.698 488.152C292.604 489.353 293.266 490.721 293.645 492.178C293.656 492.247 293.647 492.318 293.618 492.382C293.588 492.445 293.541 492.498 293.482 492.535C293.422 492.572 293.354 492.59 293.284 492.587C293.214 492.585 293.147 492.562 293.09 492.521C291.29 491.029 285.144 486.294 281.109 485.598C279.567 485.335 278.011 485.16 276.449 485.076C276.341 485.07 276.236 485.04 276.141 484.989C276.046 484.938 275.963 484.867 275.897 484.78C275.832 484.694 275.787 484.594 275.764 484.489C275.741 484.383 275.741 484.274 275.764 484.168Z" fill="white"/>
<path d="M307.824 479.458L307.267 482.425C307.267 482.425 310.051 476.015 287.072 470.667C268.534 466.354 248.244 476.437 243.287 480.493C243.11 478.832 242.88 477.771 242.88 477.771C242.88 477.771 257.819 466.463 284.397 468.898C293.985 469.769 300.273 472.695 304.401 476.07C305.653 477.082 306.799 478.217 307.824 479.458Z" fill="#EFB68F"/>
<path d="M309.168 727.698C306.316 729.698 291.934 730.528 296.796 734.162C301.657 737.795 315.347 737.06 320.331 734.829C323.292 733.468 332.283 731.78 333.912 729.385C334.877 727.929 337.267 723.071 327.937 723.275C326.497 723.234 312.495 725.357 309.168 727.698Z" fill="#DADADA"/>
<path d="M281.802 638.891C281.501 635.282 280.993 631.692 280.281 628.141C280.088 627.118 279.567 626.186 278.797 625.486C278.028 624.786 277.052 624.357 276.017 624.263L244.998 621.296C243.796 621.17 242.589 621.478 241.593 622.164C240.598 622.85 239.879 623.869 239.566 625.038C238.672 628.269 238.323 631.626 238.533 634.972C238.664 636.771 239.044 638.544 239.661 640.239C242.961 649.22 245.351 650.363 245.351 650.363C245.351 650.363 268.995 656.759 277.538 654.2C281.802 652.948 282.318 645.845 281.802 638.891ZM270.245 649.342C264.813 650.989 249.588 646.893 249.588 646.893C249.588 646.893 248.054 646.158 245.921 640.388C245.645 639.639 245.444 638.864 245.324 638.075C244.997 635.578 245.182 633.04 245.867 630.618C246.066 629.874 246.522 629.225 247.154 628.786C247.785 628.348 248.552 628.148 249.317 628.223L269.226 630.128C269.887 630.193 270.509 630.47 270.998 630.919C271.488 631.368 271.819 631.964 271.943 632.618C272.39 634.866 272.712 637.138 272.907 639.422C273.273 643.899 272.934 648.539 270.231 649.342H270.245Z" fill="#E4BB10"/>
<path d="M194.422 539.511C192.236 547.472 186.07 549.214 186.07 549.214C183.625 543.43 182.091 535.987 187.577 531.863C190.036 532.04 196.242 533.129 194.422 539.511Z" fill="#A48A7B"/>
<path d="M197.6 575.219C196.806 575.755 195.936 576.168 195.019 576.444C189.003 578.199 174.824 565.557 181.533 554.494C181.927 554.113 183.476 553.773 189.343 559.311C193.616 563.67 196.492 569.21 197.6 575.219Z" fill="#A48A7B"/>
<path d="M432.156 585.711C432.156 585.711 443.239 587.071 445.316 586.228C447.394 585.384 450.355 584.01 450.355 584.01L432.156 580.758C432.156 580.758 432.292 586.01 432.156 585.711Z" fill="#FAC9A7"/>
<path d="M243.463 623.786C243.68 622.684 251.055 624.426 252.576 624.603C254.097 624.78 261.797 624.902 261.58 625.963C261.363 627.025 253.703 626.181 252.195 625.963C250.688 625.746 243.246 624.889 243.463 623.786Z" fill="#FFDE00"/>
<path d="M263.848 626.399C263.563 627.461 266.333 626.848 266.85 626.889C267.366 626.93 269.702 627.896 269.987 626.821C270.272 625.746 267.705 625.461 267.189 625.461C266.673 625.461 264.147 625.311 263.848 626.399Z" fill="#FFDE00"/>
<path d="M456.712 462.245L471.42 473.254C472.045 473.722 472.77 474.041 473.537 474.184C474.305 474.328 475.095 474.294 475.847 474.084L509.569 464.722C510.317 464.516 511.008 464.141 511.59 463.628C512.173 463.114 512.63 462.474 512.929 461.756C513.227 461.039 513.359 460.263 513.313 459.487C513.267 458.711 513.046 457.955 512.665 457.278L500.768 436.008C499.185 433.172 496.634 431.001 493.584 429.894C490.534 428.787 487.188 428.818 484.159 429.98L459.985 439.098C457.751 439.939 455.784 441.367 454.291 443.233C452.798 445.098 451.834 447.331 451.499 449.699C451.164 452.066 451.472 454.48 452.389 456.688C453.306 458.895 454.799 460.815 456.712 462.245Z" fill="#877366"/>
<path d="M461.206 432.252L466.625 440.77" stroke="#61460F" stroke-width="0.934392" stroke-miterlimit="10"/>
<path d="M466.625 427.694L471.976 438.771" stroke="#61460F" stroke-width="0.934392" stroke-miterlimit="10"/>
<path d="M497.251 438.77L505.155 432.252" stroke="#61460F" stroke-width="0.934392" stroke-miterlimit="10"/>
<path d="M501.203 445.887L506.01 442.377" stroke="#61460F" stroke-width="0.934392" stroke-miterlimit="10"/>
<path d="M486.426 467.007L492.524 474.763" stroke="#61460F" stroke-width="0.934392" stroke-miterlimit="10"/>
<path d="M492.524 467.007L497.25 470.885" stroke="#61460F" stroke-width="0.934392" stroke-miterlimit="10"/>
<path d="M466.626 467.007L458.721 474.763" stroke="#61460F" stroke-width="0.934392" stroke-miterlimit="10"/>
<path d="M458.721 459.931L450.355 462.979" stroke="#61460F" stroke-width="0.934392" stroke-miterlimit="10"/>
<path d="M354.12 371.003L366.547 368.118L385.085 371.003L406.339 376.446L435.688 333.363L383.089 335.567C383.089 335.567 363.451 359.286 360.992 361.94C358.534 364.593 346.298 370.962 346.298 370.962L354.12 371.003Z" fill="#877366"/>
<path d="M488.111 344.072L477.966 353.298L474.394 341.051C478.427 341.854 483.289 342.752 488.111 344.072Z" fill="#877366"/>
<path d="M416.063 381.1L387.122 389.455L394.374 360.157L423.315 351.801L416.063 381.1Z" fill="#1D4C91"/>
<path d="M394.511 360.28L372.808 339.337L401.763 330.981L423.452 351.924L394.511 360.28Z" fill="#678FCA"/>
<path d="M387.014 389.413L365.311 368.484L372.564 339.186L394.266 360.128L387.014 389.413Z" fill="#005EAA"/>
<path d="M387.367 335.145L404.207 351.053C404.876 350.091 405.616 349.181 406.421 348.331C406.489 348.522 390.993 333.988 390.993 333.988L387.367 335.145Z" fill="white"/>
<path d="M373.501 369.75L379.314 345.623L383.171 349.243L377.059 369.75H373.501Z" fill="#C6C6C6"/>
<path d="M379.313 345.623L397.498 342.031V345.623L383.17 349.243L379.313 345.623Z" fill="white"/>
<path d="M438.404 360.17L394.389 344.112L436.001 316.039L480.03 332.096L438.404 360.17Z" fill="#E83D3E"/>
<path d="M410.604 332.994L421.293 325.781L465.01 342.029L454.335 349.242L410.604 332.994Z" fill="#FFDE00"/>
<path d="M481.959 377.316L443.728 407.417L438.907 359.761L480.03 332.096L481.959 377.316Z" fill="#B81829"/>
<path d="M443.376 404.382L399.157 388.91L394.675 344.289L438.908 359.761L443.376 404.382Z" fill="#E62236"/>
<path d="M413.239 393.836L408.432 349.243L451.307 321.604L464.453 326.463L423.452 354.713L428.477 399.171L413.239 393.836Z" fill="#FFDE00"/>
<path d="M454.334 349.243L458.246 395.633L468.404 387.822L465.009 342.031L454.334 349.243Z" fill="#F39200"/>
<path d="M408.432 349.243L423.452 354.713L428.477 399.171L413.239 393.836L408.432 349.243Z" fill="#E4BB10"/>
<path d="M437.875 337.962C437.468 337.037 424.932 314.937 436.177 303.724C444.326 295.668 452.787 306.228 448.753 316.897C445.804 324.246 442.166 331.3 437.889 337.962C437.889 337.962 441.705 335.635 450.274 326.341C458.844 317.046 460.922 301.138 455.856 294.443C454.362 292.47 435.96 292.565 431.329 309.235C424.783 332.818 437.889 337.962 437.889 337.962H437.875Z" fill="#F39200"/>
<path d="M438.757 338.588C438.757 338.588 420.328 314.869 408.363 321.333C396.398 327.796 416.335 336.084 416.335 336.084C420.603 337.254 424.928 338.208 429.292 338.941C432.19 339.247 435.119 338.912 437.875 337.962C437.875 337.962 414.176 333.988 416.335 327.388C418.495 320.788 438.757 338.588 438.757 338.588Z" fill="#F39200"/>
<path d="M365.311 368.484L396.819 371.002L439.491 375.084L485.286 349.229C485.286 349.229 502.398 367.981 503.403 375.084C504.408 382.188 495.757 384.243 483.968 393.469C472.18 402.695 442.478 411.01 439.056 415.99C435.634 420.971 366.547 378.677 366.547 378.677L365.311 368.484Z" fill="#CBBBA0"/>
<path d="M348.567 359.83L354.121 376.391" stroke="#61460F" stroke-width="0.934392" stroke-miterlimit="10"/>
<path d="M355.519 359.83L358.045 374.364" stroke="#61460F" stroke-width="0.934392" stroke-miterlimit="10"/>
<path d="M360.993 357.027L363.519 374.364" stroke="#61460F" stroke-width="0.934392" stroke-miterlimit="10"/>
<path d="M435.009 338.887C435.009 339.336 433.311 337.526 433.311 337.526V336.288C433.311 336.288 433.162 334.478 433.488 334.084C434.201 333.319 435.036 332.68 435.96 332.192C436.604 332.362 437.264 332.471 437.929 332.519C438.472 332.519 439.884 332.342 440.346 332.696C440.808 333.05 442.383 334.056 442.383 334.056C442.383 334.056 442.315 333.281 442.383 334.614C442.387 335.591 442.245 336.564 441.962 337.499C441.962 337.499 441.147 338.206 440.346 338.86C439.545 339.513 438.716 340.764 438.2 340.955C437.27 340.932 436.351 340.748 435.484 340.411L435.009 338.887Z" fill="#F39200"/>
<path d="M436.109 337.962L414.244 351.393L418.454 353.298L436.109 337.962Z" fill="#F39200"/>
<path d="M440.849 335.064C440.387 334.519 455.435 323.034 455.435 323.034L458.558 324.286L440.849 335.064Z" fill="#F39200"/>
<path d="M414.244 351.393C414.244 351.393 416.742 373.833 416.566 373.166C416.389 372.499 420.64 373.166 420.64 373.166L418.399 353.339L414.244 351.393Z" fill="#F39200"/>
<g clip-path="url(#clip3_83_6874)">
<path opacity="0.23" d="M249.534 507.221C254.733 507.221 258.947 502.809 258.947 497.367C258.947 491.925 254.733 487.514 249.534 487.514C244.336 487.514 240.122 491.925 240.122 497.367C240.122 502.809 244.336 507.221 249.534 507.221Z" fill="white"/>
<path d="M249.534 508.119C247.498 508.119 245.508 507.487 243.815 506.303C242.123 505.119 240.803 503.436 240.024 501.467C239.245 499.498 239.041 497.331 239.438 495.24C239.835 493.15 240.816 491.23 242.255 489.723C243.695 488.216 245.529 487.189 247.526 486.773C249.523 486.358 251.593 486.571 253.474 487.387C255.355 488.202 256.963 489.584 258.094 491.356C259.225 493.128 259.829 495.211 259.829 497.343C259.825 500.2 258.74 502.939 256.81 504.959C254.88 506.98 252.264 508.116 249.534 508.119ZM249.534 488.436C247.847 488.436 246.198 488.96 244.795 489.941C243.392 490.923 242.298 492.318 241.652 493.95C241.007 495.582 240.838 497.377 241.167 499.11C241.496 500.842 242.309 502.434 243.502 503.683C244.695 504.932 246.215 505.782 247.87 506.127C249.525 506.471 251.24 506.295 252.799 505.619C254.358 504.943 255.691 503.798 256.628 502.329C257.566 500.861 258.066 499.134 258.066 497.367C258.071 496.191 257.853 495.025 257.427 493.936C257 492.848 256.373 491.858 255.58 491.024C254.788 490.19 253.846 489.527 252.808 489.075C251.771 488.622 250.658 488.389 249.534 488.387V488.436Z" fill="#2D2D2C"/>
<path d="M244.435 492.219C243.942 493.191 243.569 494.224 243.324 495.294C243.221 495.812 243.147 496.336 243.101 496.863C243.06 497.139 243.06 497.416 243.024 497.705C243.013 498.008 242.986 498.31 242.942 498.61C242.755 498.366 242.594 498.102 242.46 497.822C242.337 497.536 242.242 497.237 242.178 496.93C242.049 496.302 242.049 495.652 242.178 495.024C242.311 494.391 242.583 493.799 242.971 493.295C243.343 492.789 243.854 492.413 244.435 492.219Z" fill="white"/>
<path d="M273.524 494.718C273.032 495.69 272.659 496.724 272.414 497.794C272.311 498.312 272.236 498.835 272.19 499.362C272.149 499.639 272.149 499.916 272.114 500.205C272.103 500.508 272.075 500.809 272.032 501.109C271.845 500.865 271.683 500.601 271.55 500.322C271.426 500.036 271.332 499.737 271.268 499.43C271.139 498.801 271.139 498.151 271.268 497.523C271.401 496.89 271.672 496.299 272.061 495.795C272.433 495.288 272.943 494.913 273.524 494.718Z" fill="white"/>
<path opacity="0.23" d="M278.795 510.192C284.097 510.192 288.396 505.692 288.396 500.141C288.396 494.591 284.097 490.091 278.795 490.091C273.493 490.091 269.194 494.591 269.194 500.141C269.194 505.692 273.493 510.192 278.795 510.192Z" fill="white"/>
<path d="M278.795 511.072C276.719 511.072 274.69 510.427 272.965 509.219C271.24 508.011 269.895 506.295 269.103 504.287C268.31 502.279 268.104 500.069 268.511 497.939C268.918 495.808 269.92 493.852 271.389 492.318C272.859 490.783 274.731 489.74 276.767 489.32C278.803 488.9 280.913 489.122 282.829 489.957C284.745 490.793 286.381 492.205 287.53 494.015C288.679 495.824 289.289 497.95 289.283 500.123C289.272 503.028 288.163 505.811 286.197 507.863C284.232 509.915 281.571 511.068 278.795 511.072ZM278.795 490.964C277.07 490.964 275.384 491.499 273.95 492.502C272.516 493.504 271.397 494.93 270.736 496.597C270.075 498.265 269.901 500.1 270.236 501.871C270.57 503.642 271.399 505.27 272.617 506.548C273.835 507.827 275.387 508.699 277.078 509.054C278.769 509.409 280.523 509.232 282.118 508.544C283.712 507.857 285.077 506.69 286.038 505.191C287 503.692 287.516 501.928 287.52 500.123C287.523 498.922 287.299 497.732 286.861 496.621C286.424 495.51 285.782 494.501 284.971 493.65C284.161 492.799 283.198 492.124 282.139 491.664C281.079 491.203 279.943 490.965 278.795 490.964Z" fill="#2D2D2C"/>
<path d="M268.419 501.285C268.366 501.15 266.985 497.976 263.583 497.822C260.34 497.681 259.582 499.876 259.553 499.969L257.872 499.415C257.919 499.261 259 495.762 263.66 495.977C268.184 496.18 269.964 500.375 270.035 500.553L268.419 501.285Z" fill="#2D2D2C"/>
<path d="M318.107 487.588L287.51 500.621L288.175 502.33L318.772 489.297L318.107 487.588Z" fill="#2D2D2C"/>
<path d="M241.139 493.892C241.03 493.89 240.922 493.867 240.821 493.824L239.117 493.129C239.009 493.085 238.911 493.02 238.827 492.936C238.743 492.853 238.676 492.753 238.629 492.642C238.582 492.531 238.556 492.412 238.553 492.29C238.55 492.169 238.57 492.049 238.612 491.936C238.654 491.822 238.716 491.719 238.796 491.631C238.876 491.544 238.971 491.473 239.077 491.424C239.183 491.375 239.297 491.348 239.413 491.345C239.529 491.342 239.644 491.363 239.752 491.407L241.468 492.126C241.66 492.204 241.82 492.349 241.92 492.537C242.021 492.725 242.055 492.944 242.018 493.156C241.98 493.368 241.873 493.56 241.714 493.697C241.556 493.835 241.356 493.91 241.15 493.91L241.139 493.892Z" fill="#2D2D2C"/>
</g>
<path d="M270.784 513.843C270.784 513.843 270.417 515.095 266.207 516.442C264.457 517.024 262.604 517.229 260.769 517.044C258.934 516.859 257.159 516.287 255.56 515.367C254.211 514.407 253.185 513.058 252.62 511.5C252.055 509.942 251.976 508.248 252.395 506.644C253.022 504.712 254.274 503.046 255.953 501.908C262.88 496.696 268.448 504.861 268.448 504.861L269.521 508.944L270.784 513.843Z" fill="#E83D3E"/>
<path d="M270.784 513.842C270.784 513.842 270.417 515.094 266.207 516.441C264.457 517.023 262.604 517.228 260.769 517.043C258.934 516.858 257.159 516.286 255.56 515.366C254.211 514.406 253.185 513.057 252.62 511.499C252.055 509.941 251.976 508.248 252.395 506.644C252.567 507.878 253.11 509.03 253.952 509.946C254.794 510.863 255.895 511.5 257.108 511.774C261.331 512.821 267.511 509.978 269.521 508.971L270.784 513.842Z" fill="#E62236"/>
<g clip-path="url(#clip4_83_6874)">
<path d="M313.644 489.299L311.997 500.104C311.908 500.676 312.045 501.26 312.379 501.735C312.712 502.209 313.217 502.537 313.787 502.651C316.109 503.102 319.833 503.156 322.041 499.736C325.425 494.476 325.025 484.419 319.737 485.196C315.882 485.79 313.644 489.299 313.644 489.299Z" fill="#FAC9A7"/>
<path d="M317.368 491.294C317.368 491.294 319.94 488.195 321.456 489.258C322.972 490.32 322.739 496.875 319.415 499.06C316.091 501.244 317.368 491.294 317.368 491.294Z" fill="#EFB68F"/>
</g>
<path d="M229.977 755.539C229.977 755.539 244.916 749.702 255.781 750.205C266.646 750.709 268.561 748.844 275.351 750.205C282.142 751.566 286.814 750.886 287.574 752.614C288.335 754.342 303.151 758.356 303.151 758.356C303.151 758.356 239.538 765.228 236.754 763.623C233.97 762.017 229.977 755.539 229.977 755.539Z" fill="white"/>
<path d="M350.047 747.634C350.047 747.634 377.073 735.101 386.145 736.081C390.953 736.611 398.707 732.202 404.968 727.916C410.143 724.378 413.728 729.875 419.391 732.556C438.174 741.483 427.934 756.887 426.521 756.738C424.24 756.574 350.047 747.634 350.047 747.634Z" fill="white"/>
</g>
<defs>
<linearGradient id="paint0_linear_83_6874" x1="203.697" y1="620.523" x2="21.491" y2="784.509" gradientUnits="userSpaceOnUse">
<stop stop-color="#EDEDED"/>
<stop offset="1" stop-color="#EDEDED" stop-opacity="0"/>
</linearGradient>
<clipPath id="clip0_83_6874">
<rect width="883" height="805.445" fill="white" transform="translate(0 0.554688)"/>
</clipPath>
<clipPath id="clip1_83_6874">
<rect width="435.426" height="520.456" fill="white" transform="translate(302.743 185.564)"/>
</clipPath>
<clipPath id="clip2_83_6874">
<rect width="554.094" height="664.352" fill="white" transform="translate(467.196 17.374)"/>
</clipPath>
<clipPath id="clip3_83_6874">
<rect width="80.2435" height="24.5298" fill="white" transform="translate(238.529 486.542)"/>
</clipPath>
<clipPath id="clip4_83_6874">
<rect width="12.2405" height="17.716" fill="white" transform="translate(311.973 485.179)"/>
</clipPath>
</defs>
</svg>
