<svg width="338" height="113" viewBox="0 0 338 113" fill="none" xmlns="http://www.w3.org/2000/svg">
<path fill-rule="evenodd" clip-rule="evenodd" d="M1007.33 399.186H1039V273.672C1101.28 260.165 1147.93 204.739 1147.93 138.417C1147.93 61.9812 1085.96 0.0178223 1009.53 0.0178223C967.857 0.0178223 930.486 18.4355 905.113 47.575C901.709 51.4851 896.542 53.4517 891.418 52.6617C881.073 51.0666 870.474 50.2391 859.681 50.2391C816.706 50.2391 776.796 63.3606 743.738 85.8158C738.914 89.0932 732.598 89.2237 727.552 86.2974C707.165 74.4735 683.482 67.7041 658.218 67.7041C621.813 67.7041 588.69 81.7603 563.982 104.742C558.26 110.065 549.315 110.368 542.739 106.144C531.498 98.9254 518.124 94.7385 503.772 94.7385C487.168 94.7385 471.872 100.343 459.674 109.764C454.133 114.043 446.391 114.767 440.15 111.596C430.343 106.615 419.247 103.808 407.495 103.808C407.018 103.808 406.542 103.812 406.068 103.822C402.182 103.897 398.353 102.672 395.365 100.187C371.381 80.2328 340.545 68.232 306.907 68.232C271.176 68.232 238.608 81.7724 214.053 104.002C209.354 108.256 202.472 109.273 196.831 106.381C168.607 91.9137 136.617 83.7505 102.721 83.7505C58.7094 83.7505 17.9122 97.5127 -15.6019 120.968C-21.604 125.169 -29.8574 124.416 -34.9994 119.198C-72.468 81.1724 -124.563 57.5994 -182.164 57.5994C-207.127 57.5994 -231.055 62.0265 -253.207 70.1383C-259.763 72.5391 -267.173 70.038 -271.58 64.6226C-292.038 39.4827 -329.157 21.5668 -329.157 22.9434V113.414C-329.157 117.007 -330.588 120.442 -333.044 123.065C-334.02 124.109 -334.986 125.162 -335.94 126.226C-338.115 128.647 -339.264 131.807 -339.264 135.062V393.329C-339.264 396.583 -338.115 399.743 -335.94 402.165C-298.118 444.292 -243.236 470.791 -182.164 470.791C-119.666 470.791 -63.6495 443.039 -25.7655 399.186H709.955C747.592 438.761 800.755 463.431 859.681 463.431C915.848 463.431 966.779 441.017 1004.02 404.647C1005.58 403.121 1006.7 401.237 1007.33 399.186Z" fill="white"/>
</svg>
