<svg width="561" height="193" viewBox="0 0 561 193" fill="none" xmlns="http://www.w3.org/2000/svg">
<mask id="mask0_1953_508" style="mask-type:luminance" maskUnits="userSpaceOnUse" x="89" y="0" width="213" height="174">
<path d="M302 0H89V174H302V0Z" fill="white"/>
</mask>
<g mask="url(#mask0_1953_508)">
<path d="M177.579 154.669L127.92 163.46L145.121 115.976L194.78 107.186L177.579 154.669Z" fill="#1D4C91"/>
<path d="M145.347 116.189L112.871 77.5028L162.545 68.7168L194.998 107.4L145.347 116.189Z" fill="#678FCA"/>
<path d="M126.49 165.178L94 126.5L112.483 77.2217L144.97 115.922L126.49 165.178Z" fill="#005EAA"/>
<path d="M137.847 73.0956L163.11 102.55C164.391 101.067 165.782 99.6831 167.272 98.4109C167.352 98.74 144.088 71.8115 144.088 71.8115L137.847 73.0956Z" fill="white"/>
<path d="M103.572 136.371L122.606 89.1279L128.399 95.836L109.5 137L103.572 136.371Z" fill="#C6C6C6"/>
<path d="M122.608 89.12L153.515 86.3574L152.887 92.3336L128.397 95.8231L122.608 89.12Z" fill="white"/>
<path d="M218.451 123.726L148 89.4996L222.154 49.8848L292.668 84.3885L218.451 123.726Z" fill="#E83D3E"/>
<path d="M176.906 73.597L195.962 63.4912L265.92 98.2518L246.886 108.36L176.906 73.597Z" fill="#FFDE00"/>
<path d="M287.669 160.158L218.744 198.099L219.01 123.316L292.356 84.5469L287.669 160.158Z" fill="#B81829"/>
<path d="M218.786 198.132L148.042 164.67L148 89.5L219.349 123.193L218.786 198.132Z" fill="#E62236"/>
<path d="M170.63 175.35L170.422 100.27L246.667 61.8447L267.714 72.2558L194.483 112.031L195.077 186.924L170.63 175.35Z" fill="#FFDE00"/>
<path d="M246.847 108.369L245.247 186.293L263.544 175.086L265.899 98.249L246.847 108.369Z" fill="#F39200"/>
<path d="M170.425 100.282L194.493 112.045L195.087 186.946L170.633 175.371L170.425 100.282Z" fill="#E4BB10"/>
<path d="M221.454 86.6739C220.937 85.0615 203.923 46.0576 224.615 29.3803C239.596 17.4109 251.842 36.4851 243.258 53.5314C237.06 65.2448 229.767 76.3427 221.477 86.6763C221.477 86.6763 228.24 83.4775 244.14 69.5211C260.039 55.5647 266.282 29.4515 259.016 17.4108C256.873 13.8621 226.205 10.7669 215.575 37.6972C200.547 75.7964 221.477 86.6763 221.477 86.6763L221.454 86.6739Z" fill="#F39200"/>
<path d="M222.818 87.8844C222.818 87.8844 196.278 45.1582 175.225 53.7994C154.172 62.4406 185.92 79.7547 185.92 79.7547C192.822 82.4565 199.856 84.808 206.994 86.8C211.766 87.8205 216.703 87.7818 221.457 86.6867C221.457 86.6867 182.691 75.8858 187.44 65.285C192.19 54.6843 222.818 87.8844 222.818 87.8844Z" fill="#F39200"/>
</g>
<mask id="mask1_1953_508" style="mask-type:luminance" maskUnits="userSpaceOnUse" x="0" y="58" width="561" height="135">
<path d="M561 58H0V193H561V58Z" fill="white"/>
</mask>
<g mask="url(#mask1_1953_508)">
<path fill-rule="evenodd" clip-rule="evenodd" d="M-10.3328 479.186H-42.0003V353.671C-104.278 340.165 -150.928 284.739 -150.928 218.417C-150.928 141.981 -88.965 80.0176 -12.5293 80.0176C29.143 80.0176 66.5135 98.4353 91.8864 127.575C95.2911 131.485 100.458 133.451 105.582 132.661C115.927 131.066 126.526 130.239 137.319 130.239C180.294 130.239 220.204 143.36 253.262 165.816C258.086 169.093 264.402 169.223 269.448 166.297C289.835 154.473 313.518 147.704 338.782 147.704C375.187 147.704 408.31 161.76 433.018 184.741C438.74 190.064 447.685 190.367 454.261 186.144C465.502 178.925 478.876 174.738 493.228 174.738C509.832 174.738 525.128 180.343 537.326 189.764C542.867 194.043 550.609 194.766 556.85 191.596C566.657 186.615 577.753 183.808 589.505 183.808C589.982 183.808 590.458 183.812 590.932 183.821C594.818 183.897 598.647 182.672 601.635 180.186C625.619 160.233 656.455 148.232 690.093 148.232C725.824 148.232 758.392 161.772 782.947 184.002C787.646 188.255 794.528 189.272 800.169 186.381C828.393 171.913 860.383 163.75 894.279 163.75C938.291 163.75 979.088 177.512 1012.6 200.968C1018.6 205.169 1026.86 204.416 1032 199.197C1069.47 161.172 1121.56 137.599 1179.16 137.599C1204.13 137.599 1228.05 142.026 1250.21 150.138C1256.76 152.539 1264.17 150.038 1268.58 144.622C1289.04 119.482 1326.16 101.567 1326.16 102.943V193.413C1326.16 197.007 1327.59 200.441 1330.04 203.065C1331.02 204.109 1331.99 205.162 1332.94 206.225C1335.11 208.647 1336.26 211.807 1336.26 215.062V473.328C1336.26 476.583 1335.11 479.743 1332.94 482.165C1295.12 524.292 1240.24 550.791 1179.16 550.791C1116.67 550.791 1060.65 523.039 1022.77 479.186H287.045C249.408 518.761 196.245 543.431 137.319 543.431C81.1521 543.431 30.2206 521.017 -7.01976 484.646C-8.58246 483.12 -9.70212 481.237 -10.3328 479.186Z" fill="white"/>
</g>
</svg>
