<svg width="284" height="364" viewBox="0 0 284 364" fill="none" xmlns="http://www.w3.org/2000/svg">
<g filter="url(#filter0_d_1915_60)">
<circle cx="199.5" cy="68.5" r="52.5" fill="white"/>
</g>
<path d="M183.363 77.3412C183.363 74.9851 183.854 69.4875 183.363 67.0332H215.759C215.268 69.4875 215.759 74.9851 215.759 77.3412C215.759 80.2863 217.232 82.0739 217.232 84.704C217.232 87.3341 217.232 95.012 199.561 95.012C181.89 95.012 181.89 87.6491 181.89 84.704C181.89 81.7589 183.363 80.2863 183.363 77.3412Z" stroke="#0660AB" stroke-width="2.57377"/>
<path d="M184.836 58.0125H214.287C216.83 58.0125 218.891 60.0735 218.891 62.6159C218.891 65.1582 216.83 67.2192 214.287 67.2192H208.397H201.034H193.671H184.836C182.294 67.2192 180.233 65.1582 180.233 62.6159C180.233 60.0735 182.294 58.0125 184.836 58.0125Z" stroke="#0660AB" stroke-width="2.57377"/>
<circle cx="208.397" cy="47.8903" r="4.60338" stroke="#0660AB" stroke-width="2.57377"/>
<path d="M202.291 46.5498L211.928 56.1871C212.739 56.9977 212.165 58.3839 211.018 58.3839H188.104C186.957 58.3839 186.383 56.9977 187.194 56.1871L196.831 46.5498C198.339 45.0421 200.783 45.0421 202.291 46.5498Z" stroke="#0660AB" stroke-width="2.57377"/>
<path d="M189.253 74.3963V74.3963C190.88 72.7698 193.517 72.7698 195.144 74.3963V74.3963" stroke="#0660AB" stroke-width="2.57377" stroke-linecap="round"/>
<path d="M203.979 74.3963V74.3963C205.605 72.7698 208.242 72.7698 209.869 74.3963V74.3963" stroke="#0660AB" stroke-width="2.57377" stroke-linecap="round"/>
<rect x="177.287" y="66.8474" width="6.26163" height="12.1519" rx="2.57377" stroke="#0660AB" stroke-width="2.57377"/>
<rect x="215.574" y="66.8474" width="6.26163" height="12.1519" rx="2.57377" stroke="#0660AB" stroke-width="2.57377"/>
<path d="M218.705 78.8135C218.214 80.7769 216.349 84.7037 212.814 84.7037" stroke="#0660AB" stroke-width="2.57377" stroke-linecap="round"/>
<circle cx="209.869" cy="84.7048" r="3.13081" stroke="#0660AB" stroke-width="2.57377"/>
<path d="M196.615 80.2863V80.2863C198.242 81.9129 200.879 81.9129 202.505 80.2863V80.2863" stroke="#0660AB" stroke-width="2.57377" stroke-linecap="round"/>
<g filter="url(#filter1_d_1915_60)">
<circle cx="68.5" cy="185.5" r="52.5" fill="white"/>
</g>
<path fill-rule="evenodd" clip-rule="evenodd" d="M67.9998 183.223C71.0681 183.223 73.5554 180.736 73.5554 177.667C73.5554 174.599 71.0681 172.112 67.9998 172.112C64.9316 172.112 62.4443 174.599 62.4443 177.667C62.4443 180.736 64.9316 183.223 67.9998 183.223ZM67.9998 186.001C72.6022 186.001 76.3332 182.27 76.3332 177.667C76.3332 173.065 72.6022 169.334 67.9998 169.334C63.3975 169.334 59.6665 173.065 59.6665 177.667C59.6665 182.27 63.3975 186.001 67.9998 186.001Z" fill="#0660AB"/>
<path fill-rule="evenodd" clip-rule="evenodd" d="M81.8891 180.445C83.4232 180.445 84.6668 179.201 84.6668 177.667C84.6668 176.133 83.4232 174.889 81.8891 174.889C80.3549 174.889 79.1113 176.133 79.1113 177.667C79.1113 179.201 80.3549 180.445 81.8891 180.445ZM81.8891 183.222C84.9573 183.222 87.4446 180.735 87.4446 177.667C87.4446 174.599 84.9573 172.111 81.8891 172.111C78.8208 172.111 76.3335 174.599 76.3335 177.667C76.3335 180.735 78.8208 183.222 81.8891 183.222Z" fill="#0660AB"/>
<path fill-rule="evenodd" clip-rule="evenodd" d="M54.1112 180.445C55.6453 180.445 56.889 179.201 56.889 177.667C56.889 176.133 55.6453 174.889 54.1112 174.889C52.5771 174.889 51.3334 176.133 51.3334 177.667C51.3334 179.201 52.5771 180.445 54.1112 180.445ZM54.1112 183.222C57.1795 183.222 59.6668 180.735 59.6668 177.667C59.6668 174.599 57.1795 172.111 54.1112 172.111C51.043 172.111 48.5557 174.599 48.5557 177.667C48.5557 180.735 51.043 183.222 54.1112 183.222Z" fill="#0660AB"/>
<path fill-rule="evenodd" clip-rule="evenodd" d="M78.2339 195.562C77.6815 194.256 76.8791 193.055 75.8567 192.033C73.7729 189.949 70.9468 188.778 67.9999 188.778C65.0531 188.778 62.2269 189.949 60.1432 192.033C59.1208 193.055 58.3183 194.256 57.766 195.562C57.6744 195.779 57.6811 195.913 57.697 195.996C57.7157 196.094 57.7723 196.238 57.9221 196.408C58.243 196.772 58.8796 197.112 59.6666 197.112L76.3333 197.112C77.1202 197.112 77.7569 196.772 78.0778 196.408C78.2275 196.238 78.2842 196.094 78.3029 195.996C78.3188 195.913 78.3254 195.779 78.2339 195.562ZM80.7924 194.481C81.9873 197.307 79.4015 199.889 76.3333 199.889L59.6666 199.889C56.5984 199.889 54.0126 197.307 55.2075 194.481C55.8979 192.848 56.9011 191.346 58.179 190.068C60.7837 187.464 64.3164 186 67.9999 186C71.6835 186 75.2162 187.464 77.8209 190.068C79.0988 191.346 80.102 192.848 80.7924 194.481Z" fill="#0660AB"/>
<path fill-rule="evenodd" clip-rule="evenodd" d="M79.1007 186.265C80.8218 185.67 82.688 185.641 84.4266 186.182C86.1653 186.724 87.6853 187.807 88.7647 189.273C89.5876 190.391 90.1215 191.687 90.3288 193.047H79.1112V195.621H91.6112C92.322 195.621 92.8981 195.044 92.8981 194.334H93.0001C93.0001 191.964 92.2424 189.656 90.8376 187.747C89.4327 185.839 87.4544 184.429 85.1916 183.725C82.9288 183.02 80.5001 183.058 78.2601 183.832C76.0202 184.606 74.0864 186.076 72.7412 188.027L74.8602 189.488C75.8938 187.989 77.3796 186.859 79.1007 186.265Z" fill="#0660AB"/>
<path fill-rule="evenodd" clip-rule="evenodd" d="M56.8994 186.265C55.1783 185.67 53.3122 185.641 51.5735 186.182C49.8349 186.724 48.3148 187.807 47.2354 189.273C46.4126 190.391 45.8786 191.687 45.6713 193.047H56.8889V195.621H44.3889C43.6782 195.621 43.102 195.044 43.102 194.334H43C43 191.964 43.7578 189.656 45.1626 187.747C46.5674 185.839 48.5457 184.429 50.8085 183.725C53.0713 183.02 55.5001 183.058 57.74 183.832C59.98 184.606 61.9137 186.076 63.2589 188.027L61.1399 189.488C60.1064 187.989 58.6205 186.859 56.8994 186.265Z" fill="#0660AB"/>
<g filter="url(#filter2_d_1915_60)">
<circle cx="207.5" cy="287.5" r="52.5" fill="white"/>
</g>
<path d="M216.09 293.257L214.803 293.257L214.803 294.544L216.09 294.544L216.09 293.257ZM216.09 292.126L217.377 292.126V292.126H216.09ZM220.616 293.257L220.616 291.97H220.616L220.616 293.257ZM222.879 295.52L221.592 295.52V295.52L222.879 295.52ZM222.879 309.097L224.166 309.097V309.097L222.879 309.097ZM207.039 313.623L207.039 312.336L207.039 312.336L207.039 313.623ZM203.645 306.834L203.645 305.547H203.645V306.834ZM204.776 293.257L204.776 291.97L204.776 291.97L204.776 293.257ZM209.302 293.257L209.302 294.544L210.589 294.544V293.257H209.302ZM209.302 292.126L208.015 292.126V292.126H209.302ZM202.513 300.046V298.759H201.226L201.226 300.046L202.513 300.046ZM202.513 306.834L201.226 306.834L201.226 308.121H202.513V306.834ZM217.377 293.257L217.377 292.126L214.803 292.126L214.803 293.257L217.377 293.257ZM220.616 291.97L216.09 291.97L216.09 294.544L220.616 294.544L220.616 291.97ZM224.166 295.52C224.166 293.559 222.577 291.97 220.616 291.97V294.544C221.155 294.544 221.592 294.981 221.592 295.52H224.166ZM224.166 309.097L224.166 295.52L221.592 295.52L221.592 309.097L224.166 309.097ZM218.353 314.909C221.564 314.909 224.166 312.307 224.166 309.097H221.592C221.592 310.886 220.142 312.336 218.353 312.336V314.909ZM207.039 314.909H218.353V312.336H207.039V314.909ZM201.226 309.097C201.226 312.307 203.829 314.909 207.039 314.909L207.039 312.336C205.25 312.336 203.8 310.886 203.8 309.097H201.226ZM201.226 306.834V309.097H203.8V306.834H201.226ZM202.513 308.121H203.645V305.547H202.513V308.121ZM203.645 308.121C206.23 308.121 208.326 306.025 208.326 303.44H205.752C205.752 304.604 204.809 305.547 203.645 305.547L203.645 308.121ZM208.326 303.44C208.326 300.855 206.23 298.759 203.645 298.759V301.333C204.809 301.333 205.752 302.276 205.752 303.44H208.326ZM203.645 298.759H202.513V301.333H203.645V298.759ZM201.226 295.52V300.046H203.8V295.52H201.226ZM204.776 291.97C202.816 291.97 201.226 293.559 201.226 295.52H203.8C203.8 294.981 204.237 294.544 204.776 294.544L204.776 291.97ZM209.302 291.97L204.776 291.97L204.776 294.544L209.302 294.544L209.302 291.97ZM208.015 292.126V293.257H210.589V292.126H208.015ZM212.696 287.445C210.111 287.445 208.015 289.54 208.015 292.126L210.589 292.126C210.589 290.962 211.532 290.018 212.696 290.018V287.445ZM217.377 292.126C217.377 289.54 215.281 287.445 212.696 287.445V290.018C213.86 290.018 214.803 290.962 214.803 292.126H217.377ZM202.513 298.759H202.513V301.333H202.513V298.759ZM201.226 300.046L201.226 306.834L203.8 306.834L203.8 300.046L201.226 300.046ZM202.513 308.121H202.513V305.547H202.513V308.121ZM201.226 300.046V306.834H203.8V300.046H201.226Z" fill="#0660AB"/>
<path d="M188.936 293.257L190.223 293.257L190.223 291.97L188.936 291.97L188.936 293.257ZM188.936 294.388L187.649 294.388L187.649 294.388L188.936 294.388ZM184.41 293.257L184.41 294.544H184.41L184.41 293.257ZM182.147 290.994L183.434 290.994L183.434 290.994L182.147 290.994ZM182.147 277.417L180.86 277.417V277.417L182.147 277.417ZM197.987 272.891L197.987 274.178L197.987 274.178L197.987 272.891ZM202.513 277.417L201.226 277.417V277.417L202.513 277.417ZM202.513 290.994L203.8 290.994V290.994L202.513 290.994ZM200.25 293.257L200.25 294.544L200.25 294.544L200.25 293.257ZM195.725 293.257L195.725 291.97L194.438 291.97L194.438 293.257L195.725 293.257ZM195.725 294.388L197.012 294.388L197.012 294.388L195.725 294.388ZM202.513 286.469L202.513 287.755L203.8 287.755L203.8 286.469L202.513 286.469ZM202.513 279.68L203.8 279.68L203.8 278.393L202.513 278.393L202.513 279.68ZM187.649 293.257L187.649 294.388L190.223 294.388L190.223 293.257L187.649 293.257ZM184.41 294.544L188.936 294.544L188.936 291.97L184.41 291.97L184.41 294.544ZM180.86 290.994C180.86 292.954 182.45 294.544 184.41 294.544L184.41 291.97C183.871 291.97 183.434 291.533 183.434 290.994L180.86 290.994ZM180.86 277.417L180.86 290.994L183.434 290.994L183.434 277.417L180.86 277.417ZM186.673 271.604C183.463 271.604 180.86 274.207 180.86 277.417L183.434 277.417C183.434 275.628 184.884 274.178 186.673 274.178L186.673 271.604ZM197.987 271.604L186.673 271.604L186.673 274.178L197.987 274.178L197.987 271.604ZM203.8 277.417C203.8 274.207 201.198 271.604 197.987 271.604L197.987 274.178C199.776 274.178 201.226 275.628 201.226 277.417L203.8 277.417ZM203.8 290.994L203.8 277.417L201.226 277.417L201.226 290.994L203.8 290.994ZM200.25 294.544C202.211 294.544 203.8 292.954 203.8 290.994L201.226 290.994C201.226 291.533 200.789 291.97 200.25 291.97L200.25 294.544ZM195.725 294.544L200.25 294.544L200.25 291.97L195.725 291.97L195.725 294.544ZM197.012 294.388L197.012 293.257L194.438 293.257L194.438 294.388L197.012 294.388ZM192.33 299.07C194.916 299.07 197.012 296.974 197.012 294.388L194.438 294.388C194.438 295.552 193.494 296.496 192.33 296.496L192.33 299.07ZM187.649 294.388C187.649 296.974 189.745 299.07 192.33 299.07L192.33 296.496C191.166 296.496 190.223 295.552 190.223 294.388L187.649 294.388ZM203.8 286.469L203.8 279.68L201.226 279.68L201.226 286.469L203.8 286.469ZM201.382 287.755L202.513 287.755L202.513 285.182L201.382 285.182L201.382 287.755ZM196.701 283.074C196.701 285.66 198.796 287.755 201.382 287.755L201.382 285.182C200.218 285.182 199.274 284.238 199.274 283.074L196.701 283.074ZM201.382 278.393C198.796 278.393 196.701 280.489 196.701 283.074L199.274 283.074C199.274 281.91 200.218 280.967 201.382 280.967L201.382 278.393ZM202.513 278.393L201.382 278.393L201.382 280.967L202.513 280.967L202.513 278.393Z" fill="#0660AB"/>
<path d="M182.148 295.52L183.435 295.52V295.52L182.148 295.52ZM202.514 295.52L203.801 295.52V295.52L202.514 295.52ZM202.514 300.046V301.333H201.227L201.227 300.046L202.514 300.046ZM202.514 306.834H201.227V305.547H202.514V306.834ZM202.514 309.097L203.801 309.097L203.801 309.097L202.514 309.097ZM197.988 313.623L197.988 314.91H197.988L197.988 313.623ZM186.674 313.623L186.674 312.336H186.674L186.674 313.623ZM182.148 309.097L180.861 309.097V309.097L182.148 309.097ZM188.936 293.257H187.649V291.97H188.936V293.257ZM195.725 293.257V291.97H197.012V293.257H195.725ZM184.411 294.544C183.872 294.544 183.435 294.981 183.435 295.52H180.861C180.861 293.56 182.45 291.97 184.411 291.97V294.544ZM200.251 294.544H184.411V291.97H200.251V294.544ZM201.227 295.52C201.227 294.981 200.79 294.544 200.251 294.544V291.97C202.211 291.97 203.801 293.56 203.801 295.52H201.227ZM201.227 300.046L201.227 295.52L203.801 295.52L203.801 300.046L201.227 300.046ZM203.645 301.333H202.514V298.759H203.645V301.333ZM205.752 303.44C205.752 302.276 204.809 301.333 203.645 301.333V298.759C206.23 298.759 208.326 300.855 208.326 303.44H205.752ZM203.645 305.547C204.809 305.547 205.752 304.604 205.752 303.44H208.326C208.326 306.025 206.23 308.121 203.645 308.121V305.547ZM202.514 305.547H203.645V308.121H202.514V305.547ZM201.227 309.097V306.834H203.801V309.097H201.227ZM197.988 312.336C199.777 312.336 201.227 310.886 201.227 309.097L203.801 309.097C203.801 312.308 201.198 314.91 197.988 314.91V312.336ZM186.674 312.336L197.988 312.336L197.988 314.91L186.674 314.91L186.674 312.336ZM183.435 309.097C183.435 310.886 184.885 312.336 186.674 312.336V314.91C183.463 314.91 180.861 312.308 180.861 309.097H183.435ZM183.435 295.52L183.435 309.097L180.861 309.097L180.861 295.52L183.435 295.52ZM188.936 291.97H195.725V294.544H188.936V291.97ZM187.649 294.389V293.257H190.223V294.389H187.649ZM192.331 299.07C189.745 299.07 187.649 296.974 187.649 294.389H190.223C190.223 295.553 191.167 296.496 192.331 296.496V299.07ZM197.012 294.389C197.012 296.974 194.916 299.07 192.331 299.07V296.496C193.494 296.496 194.438 295.553 194.438 294.389H197.012ZM197.012 293.257V294.389H194.438V293.257H197.012Z" fill="#0660AB"/>
<path d="M231.478 280.132L230.191 280.132L230.191 280.132L231.478 280.132ZM211.112 280.132L209.825 280.132L209.825 280.132L211.112 280.132ZM211.112 275.607L211.112 274.32L212.399 274.32L212.399 275.607L211.112 275.607ZM211.112 268.818L212.399 268.818L212.399 270.105L211.112 270.105L211.112 268.818ZM211.112 266.555L209.825 266.555L209.825 266.555L211.112 266.555ZM231.478 266.555L232.765 266.555L232.765 266.555L231.478 266.555ZM224.69 282.395L225.977 282.395L225.977 283.682L224.69 283.682L224.69 282.395ZM217.901 282.395L217.901 283.682L216.614 283.682L216.614 282.395L217.901 282.395ZM229.215 281.108C229.754 281.108 230.191 280.671 230.191 280.132L232.765 280.132C232.765 282.093 231.176 283.682 229.215 283.682L229.215 281.108ZM213.375 281.108L229.215 281.108L229.215 283.682L213.375 283.682L213.375 281.108ZM212.399 280.132C212.399 280.671 212.836 281.108 213.375 281.108L213.375 283.682C211.415 283.682 209.825 282.093 209.825 280.132L212.399 280.132ZM212.399 275.607L212.399 280.132L209.825 280.132L209.825 275.607L212.399 275.607ZM209.981 274.32L211.112 274.32L211.112 276.894L209.981 276.894L209.981 274.32ZM207.874 272.212C207.874 273.376 208.817 274.32 209.981 274.32L209.981 276.894C207.396 276.894 205.3 274.798 205.3 272.212L207.874 272.212ZM209.981 270.105C208.817 270.105 207.874 271.048 207.874 272.212L205.3 272.212C205.3 269.627 207.396 267.531 209.981 267.531L209.981 270.105ZM211.112 270.105L209.981 270.105L209.981 267.531L211.112 267.531L211.112 270.105ZM212.399 266.555L212.399 268.818L209.825 268.818L209.825 266.555L212.399 266.555ZM215.638 263.316C213.849 263.316 212.399 264.766 212.399 266.555L209.825 266.555C209.825 263.345 212.428 260.742 215.638 260.742L215.638 263.316ZM226.952 263.316L215.638 263.316L215.638 260.742L226.952 260.742L226.952 263.316ZM230.191 266.555C230.191 264.766 228.741 263.316 226.952 263.316L226.952 260.742C230.163 260.742 232.765 263.345 232.765 266.555L230.191 266.555ZM230.191 280.132L230.191 266.555L232.765 266.555L232.765 280.132L230.191 280.132ZM224.69 283.682L217.901 283.682L217.901 281.108L224.69 281.108L224.69 283.682ZM225.977 281.264L225.977 282.395L223.403 282.395L223.403 281.264L225.977 281.264ZM221.295 276.582C223.881 276.582 225.977 278.678 225.977 281.264L223.403 281.264C223.403 280.1 222.459 279.156 221.295 279.156L221.295 276.582ZM216.614 281.264C216.614 278.678 218.71 276.582 221.295 276.582L221.295 279.156C220.132 279.156 219.188 280.1 219.188 281.264L216.614 281.264ZM216.614 282.395L216.614 281.264L219.188 281.264L219.188 282.395L216.614 282.395Z" fill="#0660AB"/>
<defs>
<filter id="filter0_d_1915_60" x="131" y="0" width="145" height="145" filterUnits="userSpaceOnUse" color-interpolation-filters="sRGB">
<feFlood flood-opacity="0" result="BackgroundImageFix"/>
<feColorMatrix in="SourceAlpha" type="matrix" values="0 0 0 0 0 0 0 0 0 0 0 0 0 0 0 0 0 0 127 0" result="hardAlpha"/>
<feOffset dx="4" dy="4"/>
<feGaussianBlur stdDeviation="10"/>
<feComposite in2="hardAlpha" operator="out"/>
<feColorMatrix type="matrix" values="0 0 0 0 0.0911111 0 0 0 0 0.188183 0 0 0 0 0.266667 0 0 0 0.15 0"/>
<feBlend mode="normal" in2="BackgroundImageFix" result="effect1_dropShadow_1915_60"/>
<feBlend mode="normal" in="SourceGraphic" in2="effect1_dropShadow_1915_60" result="shape"/>
</filter>
<filter id="filter1_d_1915_60" x="0" y="117" width="145" height="145" filterUnits="userSpaceOnUse" color-interpolation-filters="sRGB">
<feFlood flood-opacity="0" result="BackgroundImageFix"/>
<feColorMatrix in="SourceAlpha" type="matrix" values="0 0 0 0 0 0 0 0 0 0 0 0 0 0 0 0 0 0 127 0" result="hardAlpha"/>
<feOffset dx="4" dy="4"/>
<feGaussianBlur stdDeviation="10"/>
<feComposite in2="hardAlpha" operator="out"/>
<feColorMatrix type="matrix" values="0 0 0 0 0.0911111 0 0 0 0 0.188183 0 0 0 0 0.266667 0 0 0 0.15 0"/>
<feBlend mode="normal" in2="BackgroundImageFix" result="effect1_dropShadow_1915_60"/>
<feBlend mode="normal" in="SourceGraphic" in2="effect1_dropShadow_1915_60" result="shape"/>
</filter>
<filter id="filter2_d_1915_60" x="139" y="219" width="145" height="145" filterUnits="userSpaceOnUse" color-interpolation-filters="sRGB">
<feFlood flood-opacity="0" result="BackgroundImageFix"/>
<feColorMatrix in="SourceAlpha" type="matrix" values="0 0 0 0 0 0 0 0 0 0 0 0 0 0 0 0 0 0 127 0" result="hardAlpha"/>
<feOffset dx="4" dy="4"/>
<feGaussianBlur stdDeviation="10"/>
<feComposite in2="hardAlpha" operator="out"/>
<feColorMatrix type="matrix" values="0 0 0 0 0.0911111 0 0 0 0 0.188183 0 0 0 0 0.266667 0 0 0 0.15 0"/>
<feBlend mode="normal" in2="BackgroundImageFix" result="effect1_dropShadow_1915_60"/>
<feBlend mode="normal" in="SourceGraphic" in2="effect1_dropShadow_1915_60" result="shape"/>
</filter>
</defs>
</svg>
