<svg width="233" height="216" viewBox="0 0 233 216" fill="none" xmlns="http://www.w3.org/2000/svg">
<path opacity="0.49" d="M192.873 3.67475C185.444 12.6112 178.161 21.6546 171.024 30.805C170.517 27.3206 169.688 23.8908 168.547 20.5596C167.656 17.4565 167.263 12.4311 164.298 10.7441C164.179 10.6457 164.039 10.575 163.889 10.5369C163.739 10.4988 163.582 10.4943 163.43 10.5237C163.278 10.5532 163.134 10.6159 163.009 10.7072C162.884 10.7986 162.78 10.9165 162.706 11.0525C161.235 14.2359 163.776 18.5267 164.74 21.5576C165.776 25.459 167.33 29.204 169.36 32.6925C164.939 38.3024 160.569 43.9796 156.252 49.7241C155.957 46.8899 155.508 44.0738 154.908 41.2883C153.94 36.2872 153.78 30.5208 151.312 26.0128C151.194 25.7716 151 25.576 150.759 25.4563C150.518 25.3366 150.245 25.2994 149.981 25.3505C149.717 25.4016 149.478 25.5381 149.299 25.739C149.121 25.9398 149.013 26.1938 148.994 26.4618C148.237 31.5361 149.944 37.0608 150.851 42.0448C151.233 45.8449 152.16 49.5704 153.602 53.1068C149.545 58.5013 145.516 63.8904 141.526 69.3299L140.937 65.2409L138.701 49.3543C138.627 48.9723 138.443 48.6202 138.172 48.3415C137.9 48.0629 137.553 47.8698 137.173 47.7861C136.793 47.7025 136.397 47.7319 136.034 47.8708C135.67 48.0097 135.356 48.252 135.128 48.5678C134.915 48.4049 134.669 48.289 134.407 48.2278C134.146 48.1665 133.874 48.1613 133.61 48.2123C133.346 48.2634 133.096 48.3697 132.876 48.5242C132.657 48.6787 132.472 48.8779 132.334 49.1088C126.56 57.9084 119.92 66.7307 114.572 75.9404C112.932 70.4608 111.344 65.0577 109.811 59.7313C112.228 55.9007 114.019 51.5248 116.18 47.715C119.189 42.5534 122.492 37.5684 126.072 32.7845C126.45 32.2731 126.608 31.6327 126.514 31.0041C126.419 30.3756 126.079 29.8103 125.568 29.4327C125.056 29.055 124.416 28.896 123.787 28.9905C123.159 29.0851 122.594 29.4254 122.216 29.9368C116.505 37.023 111.67 44.7721 107.815 53.0161C105.673 45.4014 103.555 37.7533 101.548 30.0836C103.615 27.5329 105.403 24.767 106.878 21.8338C109.382 17.6967 111.946 13.5768 114.35 9.37212C115.574 7.16389 112.447 4.78388 111.015 7.11921C108.342 11.579 105.83 16.1234 103.258 20.6507C102.332 22.3082 101.2 23.9478 100.297 25.717C98.3594 18.2078 96.5153 10.6805 94.7644 3.13512C94.0935 -0.329336 88.4787 0.612982 89.3677 4.0062C91.4657 12.296 93.6195 20.5749 95.8013 28.8485C92.6287 27.4337 89.6182 25.9586 86.5465 24.4663C83.4749 22.9741 79.5974 20.0146 75.8076 20.9514C75.7513 20.9651 75.6985 20.991 75.6532 21.0272C75.6078 21.0634 75.5711 21.1091 75.5453 21.161C75.5195 21.2129 75.5052 21.2699 75.5037 21.3278C75.5021 21.3858 75.5133 21.4434 75.5364 21.4967C77.0445 24.9439 81.102 25.8395 84.3404 27.4444C88.5973 29.5187 92.8822 31.5877 97.1715 33.8297C99.3813 42.0978 101.703 50.3443 104.118 58.7756L87.8493 49.6065C81.9831 45.7379 75.7129 42.5199 69.1497 40.0094C68.9549 39.9286 68.7372 39.9226 68.5384 39.9927C68.3395 40.0629 68.1736 40.2041 68.0727 40.3892C67.9718 40.5743 67.9428 40.7903 67.9916 40.9954C68.0403 41.2005 68.1634 41.3803 68.3368 41.5002C73.6476 46.4721 80.6318 49.7576 86.877 53.4181C93.1223 57.0785 99.3946 60.8786 105.729 64.5508C107.221 69.7114 108.797 74.8557 110.396 79.9667C104.868 76.7449 99.1656 73.8331 93.3147 71.2447C87.439 68.2954 81.3243 64.2618 74.7791 63.0943C74.0328 62.2358 73.2365 61.422 72.3942 60.6574C72.2808 60.5774 72.1465 60.5323 72.0078 60.5277C71.8691 60.523 71.7322 60.559 71.6137 60.6313C71.4952 60.7035 71.4004 60.8088 71.341 60.9342C71.2816 61.0596 71.2602 61.1997 71.2794 61.3371C73.1573 68.1911 78.3158 74.323 82.4053 80.0241C85.7369 84.6546 89.2685 89.1207 93.0001 93.4225C84.7191 91.9727 76.4363 90.5136 68.1516 89.0453C61.685 78.7028 56.7305 66.5892 48.711 57.359C48.5223 57.1192 48.2526 56.9566 47.9525 56.9017C47.6524 56.8468 47.3425 56.9033 47.0812 57.0607C46.8198 57.2181 46.6248 57.4655 46.533 57.7564C46.4411 58.0474 46.4587 58.3619 46.5823 58.6408C50.3136 69.0782 57.266 78.4859 62.9052 88.148C57.6832 87.2268 52.4517 86.3073 47.211 85.3897C45.7596 81.7865 41.6298 79.0208 38.8554 76.3695C35.6542 72.8422 31.996 69.7584 27.978 67.2C27.1993 66.771 26.2215 67.859 26.6298 68.6205C29.3023 72.5659 32.471 76.1512 36.058 79.2881C37.5669 80.7931 39.0957 82.7001 40.7768 84.3457C27.9081 82.2576 15.0386 80.3146 2.00515 78.7223C0.131376 78.4764 -0.0415478 81.1767 1.73581 81.6731C13.2507 84.2552 24.8063 86.5975 36.396 88.8173C28.2299 92.6015 19.5112 97.2754 14.9928 104.18C14.3674 105.141 15.4527 106.554 16.4495 106.014C21.4883 103.444 25.8645 99.6975 30.8096 96.9427C35.15 94.508 39.6282 92.3365 44.0218 90.3263C48.53 91.1539 53.0365 91.9721 57.5411 92.7811C45.9567 99.7201 33.5471 111.08 31.9357 123.566C31.8187 124.459 32.9057 124.683 33.4113 124.15C38.7707 118.446 41.8785 111.293 47.7219 105.842C52.934 101.038 58.8872 97.105 65.3518 94.1963L93.3521 98.8328C85.6739 102.84 78.4211 107.614 71.7047 113.083C65.3439 118.257 56.3939 125.179 53.3879 133.007C52.9626 134.104 54.2254 134.787 55.1049 134.24C57.3656 132.77 59.4754 131.08 61.4036 129.194C61.4024 129.268 61.4249 129.339 61.4678 129.399C61.5107 129.458 61.5716 129.503 61.6415 129.525C67.2116 131.345 74.0592 128.686 79.757 127.872C87.2087 126.835 94.7082 126.195 102.245 125.895C97.9858 132.343 93.7989 138.864 89.6401 145.38C89.337 145.47 89.0564 145.623 88.8166 145.83C88.5768 146.036 88.3833 146.29 88.2486 146.577C82.5322 145.814 76.7811 145.341 71.017 145.159C65.5662 144.401 60.046 144.273 54.5659 144.78C54.3448 144.809 54.1399 144.912 53.9841 145.071C53.8283 145.231 53.7305 145.439 53.7066 145.66C53.6828 145.882 53.7341 146.106 53.8523 146.295C53.9706 146.484 54.1489 146.628 54.3588 146.704C59.6801 148.074 65.138 148.845 70.6307 149.003C75.8572 149.498 81.1486 150.328 86.422 150.467L85.4246 152.051L76.9995 165.277C73.472 165.323 69.948 165.686 66.4303 165.932C61.3845 166.052 56.3543 166.542 51.3801 167.397C50.9846 167.492 50.6341 167.721 50.3878 168.045C50.1415 168.368 50.0147 168.767 50.0286 169.173C50.0425 169.58 50.1964 169.969 50.4643 170.275C50.7321 170.581 51.0974 170.785 51.4984 170.853C56.0396 171.007 60.5858 170.815 65.0977 170.278C68.1296 170.067 71.2057 169.936 74.2826 169.659C67.2985 180.549 60.8845 191.796 55.0667 203.352C54.1736 205.177 57.0498 206.707 58.2934 205.046C64.8665 195.28 70.9448 185.204 77.0402 175.067C77.7767 177.823 78.5971 180.563 79.3607 183.458C80.3505 188.143 81.8089 192.716 83.7141 197.109C83.8354 197.392 84.057 197.621 84.3364 197.751C84.6158 197.881 84.9334 197.903 85.2283 197.814C85.5233 197.725 85.7749 197.53 85.935 197.266C86.0951 197.003 86.1524 196.69 86.0961 196.387C85.5321 191.205 84.4453 186.093 82.852 181.13C81.9144 177.485 81.0885 173.819 80.0166 170.229L81.0709 168.489C81.3521 168.237 81.5506 167.905 81.6404 167.538C84.4764 162.873 87.3178 158.236 90.2591 153.666L90.6646 153.066C92.7498 157.417 94.4858 161.927 95.8563 166.554C97.2862 171.842 97.3876 178.055 100.059 182.871C100.098 182.967 100.164 183.048 100.25 183.106C100.336 183.163 100.437 183.193 100.54 183.192C100.643 183.19 100.744 183.158 100.828 183.099C100.913 183.04 100.978 182.956 101.014 182.86C103.315 177.081 101.128 169.678 99.4999 163.964C98.0827 158.677 96.0536 153.574 93.4537 148.757C97.4486 142.592 101.51 136.472 105.6 130.347C106.649 135.767 108.463 141.242 109.677 146.312C111.292 153.158 112.074 161.239 116.09 167.158C116.195 167.28 116.334 167.37 116.489 167.414C116.645 167.459 116.81 167.457 116.964 167.409C117.118 167.36 117.255 167.267 117.357 167.142C117.459 167.017 117.522 166.864 117.538 166.703C117.651 165.863 117.72 165.018 117.743 164.171C120.682 160.652 123.135 156.755 125.037 152.584C127.181 148.69 129.476 144.826 131.682 140.949C133.844 147.023 136.011 153.126 138.123 159.239C135.418 163.702 133.207 168.445 131.528 173.386C129.541 178.09 126.865 182.985 126.382 187.977C126.364 188.217 126.425 188.457 126.555 188.659C126.685 188.862 126.877 189.017 127.102 189.101C127.328 189.185 127.575 189.193 127.806 189.124C128.036 189.056 128.239 188.914 128.382 188.72C131.782 184.874 133.394 179.576 135.448 174.917C136.982 171.46 138.806 168.006 140.05 164.402C142.045 169.813 144.04 175.128 146.036 180.345C144.082 184.645 142.719 189.189 141.985 193.855C141.047 197.544 139.04 201.701 140.592 205.371C140.643 205.487 140.721 205.59 140.819 205.671C140.916 205.752 141.031 205.809 141.155 205.839C141.278 205.868 141.407 205.869 141.53 205.84C141.654 205.812 141.77 205.755 141.868 205.675C145.266 203.017 145.534 197.515 146.591 193.543C147.197 191.28 147.987 188.924 148.538 186.528C152.458 196.146 156.642 205.626 161.156 214.868C161.375 215.109 161.664 215.275 161.983 215.34C162.302 215.406 162.634 215.369 162.93 215.234C163.226 215.099 163.472 214.874 163.632 214.59C163.792 214.307 163.858 213.98 163.82 213.657C160.36 204.471 156.766 195.341 153.155 186.271L155.466 187.128C159.011 188.657 162.719 189.777 166.518 190.467C168.091 190.655 169.194 188.267 167.682 187.343C164.247 185.61 160.624 184.279 156.884 183.375C155.163 182.868 153.28 182.276 151.44 181.908L144.195 163.802C151.386 166.724 158.728 169.26 166.189 171.399C168.601 172.179 170.013 168.543 167.618 167.702C159.665 164.952 151.032 161.087 142.585 159.679C139.321 151.354 136.112 143.019 133.061 134.595C143.702 138.585 154.753 141.384 166.011 142.94C166.444 142.981 166.876 142.865 167.229 142.612C167.582 142.358 167.831 141.986 167.93 141.563C168.029 141.14 167.971 140.695 167.766 140.312C167.562 139.929 167.226 139.633 166.82 139.479L166.291 139.291C163.554 132.972 160.292 126.894 156.54 121.121C154.204 116.993 152.036 112.833 149.511 108.771C157.064 110.207 164.53 111.486 172.151 112.822L181.396 130.627C184.033 135.711 186.187 142.946 190.933 146.346C191.051 146.431 191.19 146.484 191.336 146.498C191.481 146.511 191.627 146.487 191.76 146.426C191.892 146.365 192.006 146.27 192.09 146.15C192.174 146.031 192.225 145.891 192.237 145.746C192.245 139.947 187.804 134.082 185.185 128.937C182.565 123.791 180.029 118.775 177.42 113.686L194.157 116.59C196.105 120.213 198.646 123.605 200.903 126.879C203.718 131.087 206.347 135.535 209.566 139.434C210.663 140.757 213.043 139.427 212.155 137.831C210.025 133.721 207.291 130.077 204.748 126.076C202.862 123.224 201.084 120.177 199.109 117.313C209.244 119.06 219.397 120.747 229.568 122.372C232.919 122.911 233.352 117.813 230.068 117.173C220.539 115.366 210.989 113.601 201.419 111.88C206.987 106.755 212.187 101.244 216.98 95.3875C218.661 93.4388 215.515 90.3666 213.701 92.2252C207.69 98.0362 202.204 104.366 197.305 111.14C191.577 110.104 185.842 109.079 180.1 108.065C188.884 100.886 196.64 91.2389 204.317 83.4332C206.468 81.2195 203.477 77.4506 201.298 79.6697C192.896 88.2244 182.126 97.1219 174.965 107.146C167.859 105.875 160.739 104.635 153.606 103.427C156.816 100.654 159.875 97.7103 162.769 94.609C167.664 89.9507 172.855 85.3222 177.69 80.5018L177.904 80.2575C179.645 79.3696 178.789 75.9989 176.322 76.1289L154.655 77.1068C150.428 76.9193 146.193 77.1758 142.02 77.8722C147.209 70.8382 152.446 63.8529 157.731 56.9162C162.127 57.8124 166.598 58.2957 171.084 58.3598C176.242 58.9141 181.433 59.11 186.618 58.9461C188.539 58.835 188.131 56.1313 186.504 55.8087C181.174 54.9506 175.791 54.4626 170.394 54.3483C166.965 54.0004 163.518 53.8451 160.072 53.8832C165.011 47.4579 169.995 41.0625 175.024 34.6973C178.438 34.9638 181.87 35.0239 185.288 35.6085C190.013 36.742 194.81 37.5564 199.644 38.0462C199.961 38.0823 200.281 38.0014 200.542 37.8187C200.804 37.6361 200.989 37.3642 201.065 37.0543C201.14 36.7443 201.099 36.4174 200.951 36.1352C200.802 35.853 200.555 35.6349 200.257 35.5216C195.615 33.6023 190.647 32.596 185.625 32.5577C182.903 32.2731 180.158 32.0219 177.396 31.9771C184.016 23.6514 190.731 15.3654 197.528 7.20827C200.192 4.19957 195.336 0.675999 192.873 3.67475ZM80.52 123.579C75.1016 124.339 67.7391 124.489 63.0257 127.692C66.66 123.758 70.5042 120.024 74.5413 116.505C82.0074 110.725 90.0945 105.795 98.6528 101.807C99.2155 101.545 99.6547 101.076 99.8775 100.497C100.287 100.832 100.801 101.011 101.33 101.004C101.859 100.997 102.368 100.804 102.769 100.459L115.943 102.778L117.688 103.106C113.476 109.198 109.358 115.328 105.274 121.482C96.9904 121.722 88.7262 122.423 80.52 123.579ZM129.667 135.629C127.127 140.324 124.72 145.109 122.246 149.849C120.676 152.82 118.665 155.905 117.255 159.105C116.488 154.094 114.772 148.977 113.673 144.349C112.625 137.845 111.101 131.426 109.114 125.144C112.797 119.716 116.518 114.28 120.276 108.837L120.66 109.923L129.667 135.629ZM154.596 125.004C157.07 129.25 159.219 133.907 162.218 138.022C152.583 134.735 142.624 132.485 132.512 131.31C132.398 131.318 132.285 131.339 132.176 131.375C129.773 124.651 127.46 117.795 125.347 111.073L123.349 104.648L123.58 104.342C130.705 105.61 137.822 106.889 144.932 108.179C148.001 113.701 151.316 119.291 154.574 124.893L154.596 125.004ZM116.239 97.2708C110.793 96.3928 105.333 95.4403 99.8589 94.4133C95.0844 89.3666 90.4893 84.1982 86.1861 78.7413C83.4171 75.2193 81.0473 71.2143 78.4081 67.4643C81.9386 69.6793 85.9296 71.4283 89.5737 73.3315C96.5336 76.9405 103.532 81.4986 110.985 83.9107C111.289 83.9928 111.609 83.9909 111.912 83.9052C113.38 88.3457 114.798 92.8249 116.239 97.2708ZM155.493 81.5825C160.813 81.364 166.111 81.1787 171.403 80.9656C167.405 84.8702 163.513 88.8705 159.554 92.8256C156.297 96.0651 152.06 99.0306 149.641 103.006L127.061 99.1175C131.294 93.138 135.617 87.1703 139.946 81.2305C144.696 83.0065 150.681 81.7316 155.549 81.5717L155.493 81.5825ZM121.231 97.7534L115.996 80.4475C123.02 71.8118 128.986 61.7576 135.232 52.5478L137.099 64.8825C137.415 67.7138 137.882 70.5261 138.499 73.3075C132.688 81.6214 126.951 89.718 121.231 97.7534Z" fill="#EDF5FF"/>
</svg>
