<svg width="516" height="371" viewBox="0 0 516 371" fill="none" xmlns="http://www.w3.org/2000/svg">
<g clip-path="url(#clip0_308_4870)">
<g style="mix-blend-mode:multiply" opacity="0.2">
<path d="M348.165 339.373C348.165 356.705 274.256 365.463 183.092 365.463C120.919 365.463 66.7619 356.154 38.6294 346.872C37.0481 346.368 35.6674 345.369 34.6874 344.02C33.7075 342.672 33.1792 341.044 33.1792 339.373C33.1792 337.702 33.7075 336.074 34.6874 334.726C35.6674 333.377 37.0481 332.378 38.6294 331.874C66.7619 322.592 120.919 313.781 183.092 313.781C274.256 313.912 348.165 322.041 348.165 339.373Z" fill="#393939"/>
</g>
<path d="M493.685 348.471C493.685 365.803 420.217 374.691 329.598 374.691C267.797 374.691 213.99 365.409 186 356.127C184.418 355.63 183.035 354.632 182.053 353.28C181.071 351.929 180.541 350.294 180.541 348.615C180.541 346.937 181.071 345.302 182.053 343.95C183.035 342.599 184.418 341.601 186 341.103C213.99 331.821 267.797 323.011 329.598 323.011C420.217 322.88 493.685 331.14 493.685 348.471Z" fill="#18407A"/>
<path d="M173.549 140.868C177.856 153.058 183.655 164.665 190.812 175.423C204.608 195.931 233.775 202.827 234.386 203.084C211.629 189.994 193.892 169.652 183.994 145.294C174.869 123.205 173.549 90.6256 174.593 73.2392L169.43 72.9429C169.43 72.9429 165.705 119.017 173.549 140.868Z" fill="#ECECEC"/>
<path d="M250.388 198.934L281.546 181.41L259.198 157.444L247.097 183.504L250.388 198.934Z" fill="#A01928"/>
<path d="M154.686 275.613C165.3 276.832 176.008 276.984 186.652 276.068C197.274 297.801 197.274 305.703 197.274 305.703H214.755L221.239 271.444L229.693 261.19H161.544L154.686 275.613Z" fill="#A01928"/>
<path d="M204.752 242.379C213.482 244.987 237.585 238.428 237.585 238.428C237.585 238.428 240.029 237.262 243.497 228.075C244.114 226.336 244.499 224.522 244.64 222.681C242.768 224.482 240.345 225.596 237.762 225.842C237.647 226.653 237.442 227.448 237.151 228.213C234.983 234.14 233.407 234.871 233.407 234.871C233.407 234.871 217.936 239.08 212.339 237.381C209.58 236.551 209.226 231.809 209.6 227.225C207.71 227.341 205.814 227.341 203.924 227.225C202.786 227.129 201.658 226.93 200.554 226.633C199.924 233.824 200.495 241.095 204.752 242.379Z" fill="#CBA509"/>
<path d="M249.166 220.667C249.166 218.83 244.732 214.859 244.732 214.859L238.228 221.675L240.948 230.309C240.948 230.309 249.087 223.848 249.166 220.667Z" fill="#1D1D1B"/>
<path d="M200.404 317.456C200.404 317.456 195.517 332.176 198.433 333.539C201.35 334.902 203.636 335.633 204.72 334.606C205.804 333.578 207.44 335.04 207.44 335.04C207.44 335.04 216.88 340.849 223.206 338.715C229.532 336.581 231.7 335.04 229.118 331.385C226.536 327.73 221.235 322.87 214.731 323.265L212.367 316.231L200.404 317.456Z" fill="#2D2D2C"/>
<path d="M197.276 305.761L200.41 317.457L212.372 316.233L214.737 305.761H197.276Z" fill="#F9F9F9"/>
<path d="M120.025 277.609C130.49 297.781 133.545 307.245 133.545 307.245H149.705L165.708 267.336L72.8453 196.921L68.7856 197.988C68.7856 197.988 63.4448 226.972 78.6394 247.796C97.6769 273.776 120.025 277.609 120.025 277.609Z" fill="#A01928"/>
<path d="M76.4426 203.103C82.2564 212.607 117.612 259.293 163.255 254.334C208.897 249.375 201.093 242.776 212.189 242.776C212.76 242.745 213.332 242.745 213.903 242.776C215.011 242.917 216.101 243.175 217.155 243.546C225.038 246.391 230.221 255.006 237.749 252.595C246.716 249.691 253.299 243.092 253.299 241.018C253.299 238.943 245.672 231.139 245.672 231.139C245.672 231.139 246.066 230.566 246.697 229.519C248.827 225.963 250.502 222.153 251.683 218.178C252.969 213.951 253.515 209.533 253.299 205.119C252.432 196.128 250.622 187.254 247.899 178.644C246.638 174.456 245.672 171.709 245.672 171.709L145.991 128.006C145.991 128.006 125.436 129.864 109.808 140.868C101.235 146.914 92.4255 141.263 86.4344 147.665C81.4681 152.96 74.6098 159.934 72.2843 163.945C67.0027 172.796 70.6289 193.58 76.4426 203.103Z" fill="#E62236"/>
<path d="M74.8346 177.991C74.8346 177.991 75.2287 199.269 86.7971 209.78C103.962 225.368 114.388 231.651 114.388 231.651C114.517 226.445 115.024 221.255 115.905 216.122C123.959 186.112 139.139 158.502 160.149 135.651L159.735 133.991L153.034 106.015C145.151 104.83 135.298 107.043 125.72 111.942C115.616 117.502 105.874 123.699 96.5524 130.494C90.6401 134.703 86.935 139.286 86.265 146.596L74.4404 161.138L74.8346 177.991Z" fill="#C61629"/>
<path d="M173.946 154.283C173.946 154.283 202.029 186.092 202.817 200.139C203.138 210.059 202.478 219.986 200.847 229.775L207.055 237.678C207.055 237.678 215.923 228.313 216.751 227.621C217.578 226.93 223.648 208.595 223.648 208.595C223.648 208.595 213.46 186.862 212.218 186.013C210.976 185.163 173.946 154.283 173.946 154.283Z" fill="#C61629"/>
<path d="M218.05 247.261C217.242 247.933 212.926 265.576 209.32 267.394C204.393 269.864 159.637 276.976 121.503 263.225C119.69 262.573 117.936 261.901 116.241 261.249C77.3773 245.009 65.671 215.136 60.0937 206.028C54.28 196.505 54.8318 177.993 56.1522 176.214C58.2806 173.33 71.3862 164.163 74.4606 160.883C74.1452 169.774 76.2539 187.496 79.7422 196.09C84.3341 207.332 98.1294 220.945 114.309 231.653C132.145 243.369 152.877 251.509 167.52 248.901C170.91 248.308 173.984 247.716 176.763 247.123C182.21 246.172 187.511 244.512 192.529 242.184C199.643 238.469 201.831 233.115 202.048 223.296C202.461 206.206 192.056 174.97 192.056 174.97L227.727 194.47C227.727 194.47 220.849 233.747 212.473 244.772C211.586 245.74 219.706 245.859 218.05 247.261Z" fill="white"/>
<path d="M252.32 215.846C252.32 215.846 254.448 215.254 253.64 217.822C253.375 218.628 252.95 219.373 252.391 220.011C251.832 220.649 251.151 221.168 250.388 221.536L252.32 215.846Z" fill="#191919"/>
<path d="M108.099 214.621C121.577 226.409 135.661 237.482 150.293 247.794L176.465 225.508C176.465 225.508 145.228 214.7 125.225 200.712C121.284 197.946 100.394 190.182 92.8062 173.368C88.4311 163.648 86.2632 146.499 86.2632 146.499L82.1641 151.675C82.1641 151.675 82.1049 192.454 108.099 214.621Z" fill="#3C3C3B"/>
<path d="M82.1639 151.675C82.1639 151.675 77.6312 194.429 115.076 220.509C115.368 216.312 116.264 212.18 117.736 208.24C118.693 204.838 119.96 201.531 121.52 198.361C121.52 198.361 100.393 188.483 92.806 173.368C89.6922 167.204 86.2631 146.499 86.2631 146.499L82.1639 151.675Z" fill="#2D2D2C"/>
<path d="M233.439 185.48L234.445 229.597L250.014 222.939C251.157 218.988 253.817 214.266 253.305 205.158C252.458 196.164 250.647 187.288 247.905 178.683L233.439 185.48Z" fill="#C61629"/>
<path d="M213.827 234.755C214.17 237.318 214.744 239.844 215.542 242.303C216.685 242.441 214.32 262.554 218.36 265.122C222.4 267.691 234.323 259.669 241.063 255.5C249.163 250.482 254.858 242.599 254.858 240.544C254.858 238.49 247.232 230.666 247.232 230.666C247.084 229.986 247.212 229.276 247.586 228.69L234.993 227.84C234.993 227.84 233.614 228.729 235.939 225.153C238.265 221.577 244.315 213.833 241.851 202.551C239.388 191.27 237.792 185.777 237.792 185.777L225.967 188.583L213.827 234.755Z" fill="#ECECEC"/>
<path d="M236.471 204.149V216.161C236.471 216.161 205.372 221.812 179.95 215.154C154.527 208.496 103.464 194.014 101.75 160.091C100.823 141.835 107.662 131.324 114.067 125.496C117.201 122.592 120.897 120.366 124.926 118.956C124.926 118.956 145.146 116.17 146.348 122.394C147.55 128.617 167.12 161.118 176.481 176.212C187.103 193.283 236.471 204.149 236.471 204.149Z" fill="#C61629"/>
<path d="M253.645 217.92C253.645 217.92 248.087 228.924 213.894 228.924C193.861 229.073 174.007 225.134 155.54 217.347C155.54 217.347 139.34 220.646 137.311 223.136C135.281 225.625 137.646 238.941 141.39 242.636C145.134 246.331 166.478 260.2 200.651 256.604C234.39 253.068 249.092 232.896 249.092 232.896L253.645 217.92Z" fill="#2D2D2C"/>
<path d="M173.817 163.449C177.98 165.168 181.944 167.334 185.642 169.91C199.437 179.314 213.843 193.737 224.347 196.622C226.703 197.296 229.171 197.478 231.6 197.155C241.099 195.812 247.997 186.506 255.919 179.156C265.083 170.68 266.758 155.448 266.62 147.011C266.62 146.405 266.62 145.832 266.62 145.292C266.364 140.432 262.383 130.534 259.348 123.678C257.496 119.41 255.978 116.328 255.978 116.328L237.256 109.473L172.674 85.922L167.057 83.9463C167.057 83.9463 163.451 85.6059 158.504 88.5695C152.735 91.9781 147.367 96.0275 142.502 100.641C139.4 103.599 136.745 106.993 134.619 110.717C126.006 126.484 156.809 156.85 173.817 163.449Z" fill="#F9F9F9"/>
<path d="M125.992 69.8013L137.481 65.3756L139.964 64.4075C129.854 63.3999 142.408 43.1488 150.646 39.7901C156.716 37.3402 150.823 65.2176 152.932 65.0398C153.444 65.0398 158.352 63.9136 165.545 62.2935C188.228 57.1566 233.437 46.6853 233.437 46.6853C233.437 46.6853 233.437 46.2902 233.3 45.5789C232.639 41.1183 231.53 36.7362 229.989 32.4997C228.97 29.6445 227.752 26.865 226.343 24.1819C219.76 11.7546 207.285 -0.969052 183.794 0.0583225C180.659 0.193849 177.538 0.550359 174.453 1.12521C138.289 8.07975 134.525 44.2552 128.987 58.5199C122.976 73.9503 125.992 69.8013 125.992 69.8013Z" fill="#E62236"/>
<path d="M174.476 1.12521C181.926 1.12521 193.829 1.83647 203.348 6.45966C216.572 12.9005 229.598 35.1669 229.598 35.1669L229.992 32.4997C228.974 29.6445 227.755 26.865 226.346 24.1819C219.764 11.7546 207.289 -0.969052 183.798 0.0583225C180.669 0.194772 177.555 0.551278 174.476 1.12521Z" fill="#E83D3E"/>
<path d="M165.7 37.9348L173.583 48.3468H234.48C233.352 40.8791 231.001 33.6494 227.523 26.9498C216.767 24.0744 205.555 23.3229 194.513 24.7369C172.42 27.9574 165.7 37.9348 165.7 37.9348Z" fill="#C92834"/>
<path d="M131.369 63.2022L137.478 65.3755L139.962 64.4074C129.852 63.3998 142.405 43.1487 150.643 39.79C156.713 37.3401 150.821 65.2175 152.929 65.0397C153.442 65.0397 158.349 63.9135 165.542 62.2934L181.072 46.6852C181.072 46.6852 170.883 17.9582 155.294 22.4431C139.705 26.928 131.369 63.2022 131.369 63.2022Z" fill="#C92834"/>
<path d="M142.702 118.325C148.87 130.397 172.263 155.864 209.333 159.815C241.851 163.292 255.823 116.231 255.823 116.231L237.101 109.375L158.507 88.4917C152.738 91.9003 147.37 95.9497 142.505 100.563C140.81 106.51 140.061 113.168 142.702 118.325Z" fill="#EAEAEA"/>
<g style="mix-blend-mode:darken">
<path d="M177.032 150.332C179.431 157.099 182.275 163.699 185.545 170.089C188.164 175.225 191.086 180.199 194.295 184.986C208.091 205.494 237.258 212.389 237.869 212.646C237.751 212.429 234.676 209.544 232.134 200.041C231.878 199.132 231.681 198.204 231.503 197.314C230.153 189.284 230.934 181.039 233.77 173.408L242.402 188.285C241.879 183.756 241.879 179.182 242.402 174.653C243.229 165.98 252.709 152.92 256.808 137.667C257.399 135.455 257.872 133.341 258.227 131.345C258.708 128.866 259.031 126.358 259.193 123.837C257.34 119.57 255.823 116.488 255.823 116.488L172.676 85.9233C171.967 97.1849 170.508 132.096 177.032 150.332Z" fill="#D9D9D9"/>
</g>
<g style="mix-blend-mode:darken">
<path d="M163.828 78.9489C163.828 79.7787 149.008 97.6787 150.033 107.873C151.058 118.068 159.887 130.732 169.74 133.755C179.594 136.778 180.146 135.059 180.146 135.059L181.368 102.914L177.978 77.23L163.828 78.9489Z" fill="#D9D9D9"/>
</g>
<path d="M152.929 65.0395C153.392 67.1845 154.306 69.2057 155.611 70.9674C156.916 72.7291 158.582 74.1907 160.497 75.254C161.52 75.9064 162.58 76.5001 163.67 77.0321C166.462 78.3671 169.398 79.3748 172.42 80.0352L201.824 63.6367L231.799 73.1795C234.042 73.0595 236.248 72.5584 238.323 71.6977C243.249 69.7219 249.162 64.9605 249.221 53.7186C249.221 41.4691 240.372 34.2578 226.281 31.1559C216.835 29.3049 207.178 28.7796 197.587 29.5951C194.705 29.7865 191.84 30.1827 189.014 30.7805C164.715 35.9371 151.195 54.6274 152.929 65.0395Z" fill="white"/>
<path d="M165.187 72.0119C165.187 72.8417 150.386 90.7418 151.391 100.936C152.396 111.131 161.245 123.796 171.099 126.818C180.953 129.841 181.505 128.122 181.505 128.122L182.608 96.0564L179.218 70.3721L165.187 72.0119Z" fill="#F9F9F9"/>
<path d="M152.929 65.0398C154.27 72.9426 156.871 74.701 162.172 76.4594L182.727 63.7555C182.727 63.7555 171.77 51.5456 174.47 40.8965C175.534 36.6289 181.801 33.2702 188.975 30.7808C164.715 35.9374 151.195 54.6277 152.929 65.0398Z" fill="#ECECEC"/>
<path d="M173.545 140.869C177.853 153.059 183.652 164.666 190.809 175.424C204.605 195.932 233.772 202.828 234.383 203.085C234.265 202.867 231.19 199.983 228.648 190.479C226.534 181.637 227.104 172.363 230.284 163.847L238.975 178.744C238.452 174.215 238.452 169.64 238.975 165.111C239.802 156.438 249.282 143.378 253.361 128.126C253.952 125.913 254.445 123.799 254.8 121.803C255.499 118.237 255.862 114.612 255.884 110.976C255.884 92.7998 245.439 88.2754 245.439 88.2754L172.915 73.6354L169.486 72.9438C169.486 72.9438 165.702 119.018 173.545 140.869Z" fill="white"/>
<path d="M241.377 47.219C242.796 51.9973 242.381 57.1348 240.215 61.622C239.991 62.0715 239.741 62.507 239.466 62.926L238.323 71.6389C240.847 70.6444 243.097 69.0593 244.885 67.0158C247.896 63.2368 249.436 58.4912 249.221 53.6599C249.221 41.4104 240.372 34.199 226.281 31.0972C232.903 34.9103 238.973 38.4073 241.377 47.219Z" fill="#ECECEC"/>
<path d="M238.328 71.638C240.852 70.6435 243.102 69.0584 244.891 67.0148L240.22 61.6211C239.997 62.0706 239.747 62.506 239.471 62.9251L238.328 71.638Z" fill="#C6C6C5"/>
<path d="M175.179 103.27C177.327 105.68 181.781 106.648 186.235 106.846C190.341 107.138 194.464 106.594 198.355 105.245C201.233 103.546 201.134 100.286 210.594 99.4565C220.053 98.6267 218.772 103.131 222.063 102.302C225.355 101.472 228.646 96.9869 228.646 96.9869C228.646 96.9869 244.668 101.531 248.353 95.0111C252.039 88.4913 242.599 79.9364 240.47 74.8983C239.434 71.6392 239.158 68.1853 239.662 64.8024C239.84 63.1032 240.076 61.9573 240.076 61.9573C240.076 61.9573 224.862 50.3994 197.725 52.869C187.871 53.7779 181.505 56.8205 177.307 60.2187C176.072 61.2268 174.943 62.3588 173.937 63.5972C171.516 66.5116 169.966 70.0523 169.464 73.8117C169.464 73.8117 172.006 80.5093 173.543 85.2313C174.43 88.1356 169.424 96.809 175.179 103.27Z" fill="#FAC9A7"/>
<path d="M175.177 103.27C177.325 105.681 181.779 106.649 186.233 106.846C182.646 102.322 180.932 91.8309 181.07 82.9401C181.188 76.0251 179.001 66.3046 177.385 60.0811C173.068 63.4926 170.242 68.4511 169.501 73.9111C169.501 73.9111 172.044 80.6088 173.581 85.3308C174.428 88.1363 169.423 96.8097 175.177 103.27Z" fill="#EFB58D"/>
<path d="M237.751 95.9399C242.127 95.9399 245.674 93.6754 245.674 90.8821C245.674 88.0887 242.127 85.8242 237.751 85.8242C233.376 85.8242 229.829 88.0887 229.829 90.8821C229.829 93.6754 233.376 95.9399 237.751 95.9399Z" fill="#F3A2A3"/>
<path d="M196.386 101.234C200.598 100.045 203.4 96.9022 202.646 94.2133C201.891 91.5244 197.864 90.3081 193.652 91.4966C189.441 92.685 186.638 95.8282 187.393 98.5171C188.148 101.206 192.175 102.422 196.386 101.234Z" fill="#F3A2A3"/>
<path d="M132.316 91.9885C141.437 91.9885 148.831 84.5582 148.831 75.3924C148.831 66.2267 141.437 58.7964 132.316 58.7964C123.195 58.7964 115.801 66.2267 115.801 75.3924C115.801 84.5582 123.195 91.9885 132.316 91.9885Z" fill="#EAEAEA"/>
<path d="M173.822 120.517C177.839 123.529 182.422 125.694 187.296 126.882C192.17 128.071 197.233 128.258 202.181 127.432C216.134 124.904 219.918 117.238 220.529 111.627C223.091 115.835 228.294 120.28 237.241 123.066C243.016 124.893 249.272 124.412 254.702 121.723C255.401 118.156 255.764 114.531 255.786 110.896C251.103 110.795 246.555 109.303 242.72 106.608C235.96 101.294 229.555 98.9228 224.628 99.4563C223.481 99.5783 222.375 99.9512 221.387 100.549C220.4 101.146 219.555 101.953 218.913 102.914C217.762 101.916 216.396 101.198 214.923 100.818C213.449 100.437 211.907 100.404 210.419 100.721C197.806 102.499 199.875 111.864 191.224 115.815C185.677 118.207 179.817 119.791 173.822 120.517Z" fill="#ECECEC"/>
<path d="M191.224 112.792C199.875 108.841 197.806 99.4757 210.419 97.7173C211.906 97.3979 213.447 97.4278 214.92 97.8049C216.394 98.1819 217.76 98.8958 218.913 99.8906C219.562 98.9291 220.413 98.1226 221.408 97.5284C222.403 96.9343 223.515 96.5671 224.668 96.4528C229.595 95.9194 235.999 98.2903 242.759 103.605C251.963 110.816 268.714 106.865 268.714 106.865C268.714 106.865 255.786 125.832 237.182 120.043C228.235 117.257 223.052 112.832 220.47 108.604C219.8 114.175 216.055 121.841 202.102 124.409C197.153 125.234 192.089 125.045 187.214 123.853C182.34 122.661 177.758 120.491 173.743 117.475C179.764 116.762 185.651 115.185 191.224 112.792Z" fill="#FCFCFC"/>
<path d="M132.335 58.7964C133.106 58.7988 133.877 58.8516 134.641 58.9544C130.698 59.5211 127.091 61.4943 124.481 64.5118C121.872 67.5294 120.436 71.389 120.436 75.3826C120.436 79.3761 121.872 83.2357 124.481 86.2533C127.091 89.2709 130.698 91.244 134.641 91.8107C133.878 91.9303 133.107 91.9898 132.335 91.9885C127.945 91.9885 123.734 90.24 120.629 87.1276C117.525 84.0153 115.781 79.794 115.781 75.3924C115.781 70.9909 117.525 66.7696 120.629 63.6573C123.734 60.5449 127.945 58.7964 132.335 58.7964Z" fill="#F9F9F9"/>
<path d="M227.131 84.1039C230.941 84.1039 234.029 80.9991 234.029 77.1692C234.029 73.3392 230.941 70.2344 227.131 70.2344C223.322 70.2344 220.233 73.3392 220.233 77.1692C220.233 80.9991 223.322 84.1039 227.131 84.1039Z" fill="white"/>
<path d="M227.133 84.2437C230.18 84.2437 232.651 81.7581 232.651 78.6919C232.651 75.6258 230.18 73.1401 227.133 73.1401C224.085 73.1401 221.615 75.6258 221.615 78.6919C221.615 81.7581 224.085 84.2437 227.133 84.2437Z" fill="#2D2D2C"/>
<path d="M230.892 80.1541C231.545 80.1541 232.074 79.6233 232.074 78.9686C232.074 78.3139 231.545 77.7832 230.892 77.7832C230.239 77.7832 229.709 78.3139 229.709 78.9686C229.709 79.6233 230.239 80.1541 230.892 80.1541Z" fill="#F7F2E6"/>
<path d="M197.845 85.9042C201.655 85.9042 204.743 82.7994 204.743 78.9695C204.743 75.1395 201.655 72.0347 197.845 72.0347C194.036 72.0347 190.948 75.1395 190.948 78.9695C190.948 82.7994 194.036 85.9042 197.845 85.9042Z" fill="white"/>
<path d="M197.847 85.9429C200.895 85.9429 203.365 83.4573 203.365 80.3911C203.365 77.325 200.895 74.8394 197.847 74.8394C194.8 74.8394 192.329 77.325 192.329 80.3911C192.329 83.4573 194.8 85.9429 197.847 85.9429Z" fill="#2D2D2C"/>
<path d="M201.455 82.1712C202.108 82.1712 202.638 81.6404 202.638 80.9857C202.638 80.331 202.108 79.8003 201.455 79.8003C200.802 79.8003 200.273 80.331 200.273 80.9857C200.273 81.6404 200.802 82.1712 201.455 82.1712Z" fill="#F7F2E6"/>
<path d="M217.019 64.5853V60.7919C217.022 60.563 217.107 60.343 217.26 60.1723C217.412 60.0017 217.62 59.8919 217.847 59.8633C220.697 59.5208 223.588 59.8123 226.313 60.7173C229.038 61.6222 231.53 63.1183 233.613 65.099C234.776 66.1028 235.733 67.3242 236.431 68.6948C236.46 68.7625 236.467 68.8375 236.452 68.9096C236.437 68.9817 236.399 69.0472 236.345 69.0971C236.291 69.147 236.223 69.1788 236.15 69.1881C236.077 69.1975 236.003 69.1839 235.938 69.1492C233.83 68.1021 226.676 64.6841 222.498 64.8619C220.9 64.9425 219.309 65.1073 217.729 65.3558C217.535 65.3409 217.354 65.2531 217.223 65.1102C217.091 64.9673 217.018 64.7798 217.019 64.5853Z" fill="white"/>
<path d="M203.088 66.2645L202.083 62.6094C202.023 62.3863 201.884 62.193 201.691 62.0657C201.499 61.9384 201.267 61.8858 201.039 61.9179C198.182 62.2819 195.44 63.2748 193.011 64.8255C190.582 66.3763 188.525 68.4464 186.987 70.8877C186.093 72.1362 185.462 73.5548 185.135 75.0564C185.123 75.1274 185.133 75.2003 185.163 75.2655C185.194 75.3306 185.243 75.385 185.305 75.4214C185.367 75.4578 185.439 75.4745 185.51 75.4693C185.582 75.4641 185.65 75.4372 185.706 75.3923C187.5 73.8315 193.589 68.7736 197.688 67.9241C199.256 67.5985 200.842 67.3675 202.438 67.2326C202.548 67.2194 202.653 67.1828 202.748 67.125C202.842 67.0672 202.923 66.9898 202.984 66.8979C203.046 66.806 203.087 66.7019 203.105 66.5925C203.123 66.4832 203.117 66.3713 203.088 66.2645Z" fill="white"/>
<path d="M207.446 98.9624C207.446 98.9624 207.801 100.247 212.097 101.63C213.886 102.221 215.779 102.428 217.654 102.237C219.528 102.047 221.341 101.463 222.975 100.523C224.342 99.5286 225.381 98.1464 225.957 96.5547C226.533 94.963 226.62 93.2348 226.207 91.5929C225.551 89.6297 224.279 87.9317 222.581 86.7524C215.506 81.418 209.811 89.7753 209.811 89.7753L208.727 93.9836L207.446 98.9624Z" fill="#E83D3E"/>
<path d="M207.446 98.9622C207.446 98.9622 207.801 100.246 212.097 101.629C213.886 102.221 215.779 102.428 217.654 102.237C219.528 102.047 221.341 101.463 222.975 100.523C224.342 99.5284 225.381 98.1462 225.957 96.5545C226.533 94.9628 226.62 93.2347 226.207 91.5928C226.054 92.8806 225.508 94.0897 224.644 95.055C223.78 96.0202 222.64 96.6948 221.379 96.9865C217.063 98.0534 210.757 95.1491 208.707 94.1217L207.446 98.9622Z" fill="#E62236"/>
<path d="M173.939 63.5973L174.511 66.6399C174.511 66.6399 171.653 60.0805 195.105 54.6078C214.005 50.2019 234.718 60.5349 239.783 64.6642C239.96 62.9651 240.196 61.8191 240.196 61.8191C240.196 61.8191 224.982 50.2612 197.845 52.7308C187.991 53.6397 181.625 56.6823 177.428 60.0805C176.144 61.1258 174.975 62.3046 173.939 63.5973Z" fill="#EFB58D"/>
<path d="M196.604 256.624C205.334 259.232 229.436 252.673 229.436 252.673C229.436 252.673 231.88 251.507 235.349 242.32C235.973 240.589 236.358 238.781 236.492 236.946C236.7 233.519 236.34 230.08 235.427 226.771C235.112 225.587 234.389 224.553 233.386 223.851C232.384 223.15 231.166 222.827 229.949 222.938L198.298 225.981C197.242 226.074 196.245 226.51 195.459 227.224C194.673 227.937 194.141 228.888 193.943 229.932C193.213 233.567 192.7 237.241 192.406 240.937C191.775 248.069 192.347 255.34 196.604 256.624ZM201.373 241.49C201.569 239.156 201.892 236.835 202.338 234.536C202.47 233.866 202.814 233.257 203.318 232.798C203.822 232.339 204.459 232.054 205.137 231.987L225.455 230.011C226.237 229.937 227.02 230.142 227.665 230.591C228.311 231.039 228.778 231.701 228.983 232.461C229.69 234.938 229.878 237.534 229.535 240.087C229.415 240.897 229.21 241.692 228.924 242.458C226.756 248.385 225.18 249.097 225.18 249.097C225.18 249.097 209.709 253.305 204.112 251.626C201.353 250.835 200.998 246.094 201.373 241.49Z" fill="#E4BB10"/>
<path d="M231.432 225.508C231.196 224.382 223.667 226.16 222.13 226.358C220.593 226.555 212.73 226.654 212.946 227.78C213.163 228.906 220.967 227.998 222.524 227.78C224.081 227.563 231.649 226.634 231.432 225.508Z" fill="#FFDD00"/>
<path d="M210.621 228.174C210.916 229.281 208.098 228.648 207.566 228.688C207.034 228.727 204.649 229.715 204.354 228.688C204.058 227.66 206.699 227.364 207.211 227.325C207.724 227.285 210.325 227.068 210.621 228.174Z" fill="#FFDD00"/>
<path d="M162.827 73.8711L186.279 87.0492" stroke="#2D2D2C" stroke-width="1.61364" stroke-miterlimit="10"/>
<path d="M165.685 75.9864C165.685 75.9864 162.295 69.2492 158.708 70.4544C157.081 71.1242 155.742 72.3464 154.924 73.9069C154.106 75.4674 153.862 77.2667 154.234 78.9895C154.786 82.289 155.594 88.2557 159.851 88.9867C164.108 89.7177 166.118 84.7389 166.118 84.7389L165.685 75.9864Z" fill="#FAC9A7"/>
<path opacity="0.23" d="M197.844 98.6442C204.233 98.6442 209.413 93.4518 209.413 87.0467C209.413 80.6416 204.233 75.4492 197.844 75.4492C191.455 75.4492 186.276 80.6416 186.276 87.0467C186.276 93.4518 191.455 98.6442 197.844 98.6442Z" fill="white"/>
<path d="M197.844 98.5866C204.233 98.5866 209.413 93.3942 209.413 86.9891C209.413 80.584 204.233 75.3916 197.844 75.3916C191.455 75.3916 186.276 80.584 186.276 86.9891C186.276 93.3942 191.455 98.5866 197.844 98.5866Z" stroke="#2D2D2C" stroke-width="1.61364" stroke-miterlimit="10"/>
<path d="M191.671 80.9819C190.917 82.066 190.381 83.2875 190.094 84.5777C189.846 85.8792 189.76 87.2065 189.838 88.5292C189.465 87.9248 189.21 87.254 189.089 86.5535C188.942 85.8366 188.942 85.097 189.089 84.3802C189.238 83.6612 189.548 82.9856 189.996 82.4044C190.415 81.7864 190.994 81.2946 191.671 80.9819Z" fill="white"/>
<path opacity="0.23" d="M232.08 90.8022C237.925 90.8022 242.663 86.0522 242.663 80.1926C242.663 74.3331 237.925 69.583 232.08 69.583C226.235 69.583 221.497 74.3331 221.497 80.1926C221.497 86.0522 226.235 90.8022 232.08 90.8022Z" fill="white"/>
<path d="M232.08 90.7441C237.925 90.7441 242.663 85.9941 242.663 80.1345C242.663 74.275 237.925 69.5249 232.08 69.5249C226.235 69.5249 221.497 74.275 221.497 80.1345C221.497 85.9941 226.235 90.7441 232.08 90.7441Z" stroke="#2D2D2C" stroke-width="1.61364" stroke-miterlimit="10"/>
<path d="M226.365 74.6626C225.697 75.6602 225.216 76.7716 224.946 77.9423C224.727 79.1275 224.641 80.3337 224.69 81.5381C224.319 80.992 224.07 80.3719 223.961 79.7204C223.826 79.0688 223.826 78.3963 223.961 77.7447C224.108 77.0782 224.397 76.4515 224.808 75.9073C225.199 75.3534 225.739 74.9219 226.365 74.6626Z" fill="white"/>
<path d="M209.2 84.7575C209.804 83.5359 210.713 82.4918 211.839 81.7267C212.965 80.9616 214.269 80.5015 215.624 80.3911C220.216 79.8379 221.753 82.3669 221.753 82.3669" stroke="#2D2D2C" stroke-width="1.61364" stroke-miterlimit="10"/>
<path d="M162.831 77.4059C162.831 77.4059 160.998 73.4545 159.323 74.4028C157.648 75.3512 156.682 77.0108 157.648 80.5868C158.613 84.1629 159.894 83.9456 160.505 83.8665" fill="#EFB58D"/>
<path d="M288.796 257.179C280.598 267.058 273.877 276.759 274.094 286.637C274.083 293.231 275.694 299.725 278.784 305.545C281.618 310.663 285.761 314.932 290.786 317.913C295.545 320.803 300.856 322.661 306.375 323.366C306.375 323.366 273.818 351.658 238.226 342.807C235.541 342.147 232.984 341.046 230.658 339.547C224.155 335.378 219.484 328.345 216.627 320.126C211.759 306.296 212.015 288.929 217.1 276.344C219.638 270.587 222.832 265.144 226.618 260.123C239.96 241.63 259.747 221.814 259.313 204.388C259.097 195.497 256.101 187.258 253.145 178.368C248.553 164.538 244.04 149.364 249.952 127.947C251.159 123.545 252.586 119.206 254.229 114.947C264.083 89.7172 277.878 80.9055 290.983 81.3599C310.849 82.1304 324.132 98.0547 324.132 98.0547C324.132 98.0547 311.44 104.12 305.331 123.067C304.936 124.332 304.542 125.636 304.207 127.019C297.921 152.308 302.039 165.071 307.459 177.992C310.928 186.271 314.928 194.628 317.017 206.403C320.21 224.204 302.453 240.801 288.796 257.179Z" fill="#D6E5F0"/>
<path d="M116.241 261.19C77.3773 245.009 65.671 215.136 60.0937 206.028C54.28 196.505 54.8318 177.993 56.1522 176.214C58.2806 173.33 71.3862 164.163 74.4606 160.883C74.1452 169.774 76.254 187.496 79.7422 196.09C84.3341 207.332 98.1294 220.945 114.309 231.653C113.758 239.457 115.768 253.92 116.241 261.19Z" fill="white"/>
<path d="M236.475 211.044V216.161C236.475 216.161 205.376 221.812 179.954 215.153C154.531 208.495 103.744 193.993 101.754 160.09C99.5466 122.137 116.791 118.975 123.235 113.147C123.235 113.147 94.6591 165.78 157.25 197.313C200.272 218.986 236.475 211.044 236.475 211.044Z" fill="#A01928"/>
<path d="M236.476 203.478V216.953C236.473 217.118 236.511 217.281 236.584 217.429C236.658 217.577 236.766 217.705 236.9 217.802C237.033 217.899 237.188 217.962 237.351 217.986C237.514 218.01 237.68 217.995 237.836 217.941L247.079 214.858L247.256 206.027L237.875 202.49C237.718 202.433 237.548 202.415 237.382 202.438C237.215 202.46 237.057 202.522 236.919 202.619C236.782 202.716 236.67 202.845 236.593 202.994C236.516 203.144 236.476 203.31 236.476 203.478Z" fill="#F9F9F9"/>
<path d="M247.097 214.858C252.095 216.13 257.191 216.976 262.331 217.387C274.983 218.039 276.008 209.484 275.831 205.059C275.653 200.633 259.198 203.083 259.198 203.083V197.156L247.373 205.869L247.097 214.858Z" fill="#2D2D2C"/>
<path d="M301.237 142.746C301.237 142.746 295.325 141.718 292.861 146.5C291.887 148.301 291.584 150.392 292.007 152.397C292.429 154.403 293.549 156.192 295.167 157.445C297.492 159.263 302.104 158.848 302.104 158.848C302.104 158.848 306.046 154.106 305.198 149.206C305.081 147.896 304.662 146.63 303.975 145.509C303.287 144.389 302.35 143.443 301.237 142.746Z" fill="#2D2D2C"/>
<path d="M385.112 289.955L370.844 288.355C370.844 288.355 372.086 295.428 370.016 295.843C365.405 296.751 364.676 301.394 358.074 298.767L356.852 298.214C355.473 297.559 354.214 296.678 353.127 295.606C344.396 286.972 352.181 282.467 352.181 282.467L371.632 275.275L385.112 289.955Z" fill="url(#paint0_linear_308_4870)"/>
<path d="M366.091 299.635L378.547 293.965L376.576 284.086C376.576 284.086 373.285 285.963 373.107 286.062C372.93 286.16 366.091 299.635 366.091 299.635Z" fill="#CCDFEE"/>
<path d="M354.915 297.129C354.915 297.129 363.96 299.263 365.241 293.968C365.613 291.829 365.132 289.629 363.901 287.843L370.838 283.892C372.264 286.394 372.948 289.252 372.809 292.13C372.553 298.058 364.512 303.609 354.954 297.228" fill="#CCDFEE"/>
<path d="M290.983 81.4194L366.109 83.9484C366.109 83.9484 386.289 91.9698 386.289 119.511H324.132C324.132 119.511 322.417 82.5851 290.983 81.4194Z" fill="#69A0CD"/>
<path d="M132.717 307.185L135.851 318.901H147.557L150.198 307.185H132.717Z" fill="#F9F9F9"/>
<path d="M135.963 318.899C135.963 318.899 131.076 333.618 133.992 334.981C136.909 336.344 139.175 337.075 140.279 336.028C141.383 334.981 142.999 336.483 142.999 336.483C142.999 336.483 152.419 342.291 158.765 340.158C165.111 338.024 167.259 336.483 164.677 332.808C162.095 329.133 156.794 324.312 150.291 324.688L147.926 317.674L135.963 318.899Z" fill="#2D2D2C"/>
<path d="M422.911 294.854C417.945 313.663 404.74 329.192 389.211 339.367C366.153 354.482 337.971 357.84 324.176 342.805L325.496 343.003C350.091 346.381 362.822 340.217 368.971 330.931C377.938 317.338 379.633 295.368 370.942 286.793C368.554 284.376 365.529 282.69 362.221 281.931C358.913 281.172 355.458 281.371 352.259 282.506C353.796 281.656 401.528 254.174 412.722 257.059C423.916 259.943 429.079 271.442 422.911 294.854Z" fill="#CCDFEE"/>
<path d="M306.376 323.386C306.376 323.386 273.819 351.659 238.227 342.827C236.071 342.328 234 341.516 232.078 340.417L235.074 339.35L285.821 317.933H290.787C295.551 320.813 300.859 322.67 306.376 323.386Z" fill="#69A0CD"/>
<path d="M232.078 339.999C232.078 339.999 284.106 316.053 302.395 323.877C320.684 331.701 319.422 338.162 324.96 343.516C334.144 352.367 374.82 337.767 374.82 337.767C374.82 337.767 355.113 312.201 335.76 304.752C316.407 297.304 232.078 339.999 232.078 339.999Z" fill="#CCDFEE"/>
<path d="M417.55 308.687C384.914 363.75 338.72 362.96 324.136 342.807C324.59 342.807 337.419 350.256 348.101 348.26C352.79 347.475 357.189 345.458 360.848 342.415C364.507 339.371 367.297 335.409 368.932 330.933L417.55 308.687Z" fill="url(#paint1_linear_308_4870)"/>
<path style="mix-blend-mode:darken" d="M274.094 286.655C274.083 293.248 275.694 299.743 278.784 305.563L216.627 320.143C211.759 306.313 212.015 288.947 217.1 276.361C219.638 270.605 222.832 265.162 226.618 260.141C243.547 256.782 271.493 252.574 288.796 257.197C280.597 267.016 273.877 276.776 274.094 286.655Z" fill="url(#paint2_linear_308_4870)"/>
<path d="M307.458 177.992C296.107 177.538 268.694 176.708 253.144 178.387C248.552 164.557 244.039 149.384 249.952 127.967C251.158 123.564 252.585 119.225 254.228 114.967L305.33 123.146C304.936 124.411 304.542 125.715 304.207 127.098C297.92 152.308 302.039 165.071 307.458 177.992Z" fill="url(#paint3_linear_308_4870)"/>
</g>
<defs>
<linearGradient id="paint0_linear_308_4870" x1="332.296" y1="257.257" x2="372.495" y2="294.774" gradientUnits="userSpaceOnUse">
<stop stop-color="#CCDFEE"/>
<stop offset="1" stop-color="#69A0CD"/>
</linearGradient>
<linearGradient id="paint1_linear_308_4870" x1="406.888" y1="208.478" x2="337.159" y2="434.125" gradientUnits="userSpaceOnUse">
<stop offset="0.55" stop-color="#CCDFEE"/>
<stop offset="0.73" stop-color="#69A0CD"/>
</linearGradient>
<linearGradient id="paint2_linear_308_4870" x1="237.083" y1="336.087" x2="278.152" y2="161.42" gradientUnits="userSpaceOnUse">
<stop offset="0.18" stop-color="#D6E5F0"/>
<stop offset="1" stop-color="#94BBDB"/>
</linearGradient>
<linearGradient id="paint3_linear_308_4870" x1="277.03" y1="208.814" x2="277.802" y2="72.7457" gradientUnits="userSpaceOnUse">
<stop offset="0.32" stop-color="#D6E5F0"/>
<stop offset="1" stop-color="#85B2D6"/>
</linearGradient>
<clipPath id="clip0_308_4870">
<rect width="516" height="371" rx="20" fill="white"/>
</clipPath>
</defs>
</svg>
