<svg width="519" height="352" viewBox="0 0 519 352" fill="none" xmlns="http://www.w3.org/2000/svg">
<path d="M455.049 317.704C442.378 332.741 429.953 366.36 246.336 344.776C202.788 339.657 139.802 330.698 105.628 330.698C102.651 330.698 65.1792 318.86 65.1792 312.264C65.1792 301.829 162.339 293.388 282.184 293.388C402.028 293.388 461.766 309.68 455.049 317.704Z" fill="#E3F0FF"/>
<g style="mix-blend-mode:multiply">
<path d="M268.507 332.694C348.039 332.694 412.512 328.209 412.512 322.677C412.512 317.145 348.039 312.66 268.507 312.66C188.975 312.66 124.501 317.145 124.501 322.677C124.501 328.209 188.975 332.694 268.507 332.694Z" fill="#E3F0FF"/>
</g>
<path d="M101.917 139.25V184.461H83.5376V139.25C86.3033 137.672 89.4603 136.912 92.641 137.059C93.5785 137.062 94.515 137.12 95.4458 137.232C97.7324 137.381 99.9506 138.072 101.917 139.25Z" fill="#E4BB10"/>
<g style="mix-blend-mode:multiply">
<path d="M101.915 139.249V184.46H96.3055L96.0103 142.03C97.1605 142.222 98.3419 142.059 99.397 141.562C100.452 141.065 101.33 140.258 101.915 139.249Z" fill="#DADADA"/>
</g>
<g style="mix-blend-mode:multiply">
<path d="M101.913 139.248V140.208C99.5455 142.032 96.6073 142.957 93.6219 142.817C90.007 142.63 86.5296 141.37 83.6328 139.199C86.3985 137.621 89.5555 136.861 92.7362 137.009C95.9489 136.835 99.1415 137.614 101.913 139.248Z" fill="#DADADA"/>
</g>
<path fill-rule="evenodd" clip-rule="evenodd" d="M92.7388 140.505C92.4256 140.505 92.1253 140.381 91.9038 140.159C91.6823 139.938 91.5579 139.637 91.5579 139.324V134.623C91.5545 134.467 91.5828 134.312 91.6409 134.167C91.6991 134.022 91.786 133.891 91.8963 133.78C92.0066 133.67 92.1382 133.583 92.283 133.525C92.4278 133.467 92.5828 133.438 92.7388 133.442C93.0521 133.442 93.3525 133.566 93.5739 133.788C93.7954 134.009 93.9198 134.31 93.9198 134.623V139.373C93.9013 139.676 93.7695 139.96 93.5506 140.17C93.3318 140.38 93.0419 140.499 92.7388 140.505Z" fill="#2D2D2C"/>
<path d="M89.931 122.76C91.8255 119.905 91.5056 113.654 91.112 110.897C94.1393 116.13 96.5266 121.707 98.2224 127.51C99.428 133.441 97.0415 135.804 92.293 135.804C86.3635 135.804 87.569 126.304 89.931 122.76Z" fill="#FECC32"/>
<path d="M91.2632 128.198C92.4834 125.922 93.1652 123.396 93.2562 120.815C94.261 123.867 94.9776 127.006 95.3967 130.192C95.6919 133.047 93.9696 134.597 91.8537 134.45C89.1719 134.376 90.0577 129.896 91.2632 128.198Z" fill="#E94E1B"/>
<g style="mix-blend-mode:multiply">
<path d="M83.4372 139.668C83.4372 139.668 80.9769 152.81 83.4372 151.678C85.8976 150.546 83.7817 143.778 85.4794 144.442C87.177 145.107 83.7817 157.707 86.0452 157.806C88.3088 157.904 86.6357 146.706 87.8905 146.903C89.1453 147.1 87.3738 155.271 89.3421 153.376C91.3104 151.481 88.9485 146.14 91.0398 145.303C93.1311 144.467 91.3596 150.743 93.1557 150.57C94.9518 150.398 92.0977 143.876 94.7549 144.171C97.4121 144.467 93.8446 154.311 96.3788 154.311C98.913 154.311 97.2399 140.873 98.8392 142.842C100.438 144.811 99.0114 151.309 101.3 151.309C103.588 151.309 102.234 141.464 101.742 139.643C101.25 137.822 100.955 142.104 93.7462 142.104C90.1429 142.35 86.5494 141.501 83.4372 139.668Z" fill="#DADADA"/>
</g>
<path d="M83.5329 139.248C83.5329 139.248 81.0726 152.415 83.5329 151.283C85.9933 150.151 83.8774 143.383 85.5751 144.047C87.2727 144.712 83.8774 157.313 86.1409 157.386C88.4045 157.46 86.7314 146.287 87.9862 146.484C89.241 146.681 87.4695 154.851 89.4378 152.981C91.4061 151.111 89.0688 145.745 91.1355 144.884C93.2022 144.023 91.4553 150.348 93.2514 150.151C95.0475 149.954 92.1934 143.481 94.8506 143.752C97.5078 144.023 93.9403 153.916 96.4745 153.916C99.0087 153.916 97.3356 140.454 98.9349 142.447C100.534 144.441 99.1071 150.914 101.395 150.914C103.683 150.914 102.33 140.922 101.838 139.248C101.346 137.574 101.051 141.709 93.8419 141.709C90.2361 141.948 86.6424 141.09 83.5329 139.248Z" fill="#EDD15C"/>
<path d="M320.961 176.731C320.961 176.731 342.908 204.64 332.624 207.913C322.339 211.187 268.925 218.742 266.587 218.644C260.19 218.324 255.983 204.738 256.131 201.785C256.278 198.832 320.961 176.731 320.961 176.731Z" fill="white"/>
<path d="M113.061 213.724V304.342C113.061 306.881 112.052 309.316 110.258 311.111C108.463 312.907 106.028 313.916 103.49 313.916H94.6573C92.1189 313.916 89.6845 312.907 87.8897 311.111C86.0948 309.316 85.0864 306.881 85.0864 304.342V213.724H113.061Z" fill="#7D4E24"/>
<path d="M113.061 214.239H85.0864V225.978H113.061V214.239Z" fill="#683C11"/>
<path d="M416.003 214.191V304.81C416.003 307.349 414.994 309.784 413.199 311.579C411.405 313.375 408.97 314.383 406.432 314.383H397.599C395.061 314.383 392.626 313.375 390.832 311.579C389.037 309.784 388.028 307.349 388.028 304.81V214.191H416.003Z" fill="#7D4E24"/>
<path d="M416.003 214.709H388.028V226.448H416.003V214.709Z" fill="#683C11"/>
<path d="M75.3648 180.548C75.3648 180.548 74.1346 184.486 84.8372 184.462C95.5398 184.437 103.216 184.462 103.216 184.462C103.216 184.462 110.204 184.019 110.376 181.016L75.3648 180.548Z" fill="#CA9E67"/>
<path d="M132.026 321.112L182.731 320.554L182.114 264.37L131.409 264.928L132.026 321.112Z" fill="#00712F"/>
<path d="M172.008 320.237L171.639 286.372L131.535 277.315L132.027 321.099L172.008 320.237Z" fill="#4AA256"/>
<path d="M182.388 288.811L131.532 277.318L131.434 268.285L182.142 267.719L182.388 288.811Z" fill="#00712F"/>
<path d="M185.541 257.706L128.562 258.332C128.046 258.338 127.632 258.761 127.637 259.278L127.805 274.561C127.811 275.077 128.234 275.491 128.75 275.485L185.729 274.859C186.245 274.853 186.659 274.43 186.654 273.913L186.486 258.631C186.48 258.114 186.057 257.7 185.541 257.706Z" fill="#00712F"/>
<path d="M127.622 259.277L127.794 274.561C127.8 274.807 127.901 275.041 128.075 275.215C128.249 275.389 128.483 275.49 128.729 275.496L167.184 275.078C167.184 275.078 168.464 266.931 161.599 263.535C158.302 261.982 155.142 260.154 152.151 258.071L128.556 258.342C128.309 258.342 128.071 258.441 127.895 258.616C127.72 258.791 127.622 259.029 127.622 259.277Z" fill="#4AA256"/>
<path d="M152.493 320.467L162.21 320.36L161.522 257.753L151.804 257.86L152.493 320.467Z" fill="#E83D3E"/>
<path d="M161.724 275.127L152.006 275.226L152.08 281.969L161.823 284.16L161.724 275.127Z" fill="#CA2834"/>
<path d="M155.426 261.098C156.386 260.384 158.846 261.344 159.142 264.199C159.437 267.054 159.511 270.696 158.28 271.582C157.05 272.468 154.959 272.296 154.59 269.121C154.221 265.946 153.753 262.427 155.426 261.098Z" fill="#EF5058"/>
<path d="M148.882 266.686C148.811 267.84 148.893 268.999 149.128 270.131C150.062 275.054 152.621 281.354 148.955 286.719C148.083 287.728 147.062 288.599 145.929 289.303C145.929 289.303 146.052 288.91 146.815 286.153C146.323 287.039 142.386 287.925 141.894 287.999C142.091 287.999 143.247 287.531 145.388 283.766C147.528 280 144.33 274.512 145.068 267.67C145.139 267 145.245 266.335 145.388 265.677C145.736 263.575 146.807 261.661 148.415 260.264C150.022 258.867 152.067 258.074 154.196 258.023L156.509 257.703C154.398 258.093 152.487 259.2 151.097 260.837C149.708 262.473 148.925 264.539 148.882 266.686Z" fill="#E83D3E"/>
<path d="M155.054 257.407C155.054 257.407 143.564 259.498 141.498 254.675C140.489 252.214 143.146 242.369 149.666 242.369C156.186 242.369 155.054 257.407 155.054 257.407Z" fill="#E83D3E"/>
<path d="M153.508 256.178C153.508 256.178 148.587 247.293 151.294 245.768C154 244.242 153.508 256.178 153.508 256.178Z" fill="#CA2834"/>
<path d="M149.815 244.508C149.815 244.508 149.692 242.539 147.158 244.73C144.624 246.92 144.033 248.668 145.14 248.791C146.247 248.914 149.815 244.508 149.815 244.508Z" fill="#EF5058"/>
<path d="M147.575 249.777C147.711 250.805 148.053 251.796 148.581 252.688C149.11 253.581 149.814 254.357 150.651 254.97L147.575 249.777Z" fill="#CA2834"/>
<path d="M145.435 252.658C145.964 253.568 146.673 254.361 147.519 254.987C148.366 255.614 149.331 256.06 150.356 256.3L145.435 252.658Z" fill="#CA2834"/>
<path d="M156.754 257.529C156.754 257.529 167.973 260.852 170.532 256.274C171.811 253.985 170.212 243.969 163.766 243.058C157.32 242.147 156.754 257.529 156.754 257.529Z" fill="#E83D3E"/>
<path d="M158.453 256.347C158.453 256.347 164.358 248.078 161.799 246.257C159.24 244.436 158.453 256.347 158.453 256.347Z" fill="#CA2834"/>
<path d="M163.377 245.272C163.377 245.272 163.697 243.327 165.985 245.788C168.273 248.25 168.667 250.022 167.56 250.022C166.452 250.022 163.377 245.272 163.377 245.272Z" fill="#EF5058"/>
<path d="M165.047 250.737C164.8 251.759 164.351 252.722 163.725 253.568C163.1 254.413 162.311 255.124 161.405 255.659L165.047 250.737Z" fill="#CA2834"/>
<path d="M166.84 253.862C166.221 254.692 165.443 255.391 164.552 255.919C163.661 256.447 162.674 256.794 161.649 256.939L166.84 253.862Z" fill="#CA2834"/>
<path d="M154.297 258.022C154.297 258.022 152.6 255.561 153.854 255.143C154.592 254.938 155.274 254.567 155.847 254.06C156.093 253.863 157.299 254.257 157.545 254.577C157.791 254.896 159.292 255.881 158.923 256.742C158.781 257.059 158.549 257.326 158.256 257.51C157.962 257.694 157.62 257.787 157.274 257.776C156.278 257.798 155.284 257.88 154.297 258.022Z" fill="#CA2834"/>
<path d="M148.955 286.717C148.082 287.726 147.062 288.598 145.929 289.302C145.929 289.302 146.052 288.908 146.815 286.151C146.323 287.037 142.386 287.923 141.894 287.997C142.091 287.997 143.247 287.53 145.388 283.764C147.528 279.999 144.33 274.51 145.068 267.668L149.029 270.13C150.062 275.052 152.621 281.352 148.955 286.717Z" fill="#CA2834"/>
<path d="M157.053 257.799C160.878 258.873 164.968 258.45 168.493 256.618C175.309 253.591 176.834 250.588 176.834 250.588L174.374 255.092C177.194 255.894 180.208 255.649 182.862 254.403C171.766 260.704 168.37 261.663 157.053 257.799Z" fill="#CA2834"/>
<path d="M143.836 270.354C143.836 270.354 144.402 318.222 143.836 318.493C143.27 318.764 105.626 330.798 105.626 330.798V277.146L143.836 270.354Z" fill="#3680BC"/>
<path d="M63.4336 312.834L105.629 330.677V277.148L63.4336 261.84V312.834Z" fill="#005EAA"/>
<path d="M147.947 269.617L99.4042 253.915L63.4336 261.84L105.629 277.148L147.947 269.617Z" fill="#EF7481"/>
<g style="mix-blend-mode:multiply" opacity="0.55">
<path d="M105.629 302.569L63.4336 281.354V273.873L105.703 289.821L105.629 302.569Z" fill="#DADADA"/>
</g>
<path d="M75.0449 278.256V317.732L86.6333 322.654L87.642 283.006L75.0449 278.256Z" fill="#F49EA7"/>
<path d="M132.642 283.99L133.159 322.162L119.135 326.617V286.993L132.642 283.99Z" fill="#EF7683"/>
<path d="M63.4336 261.84V273.875L105.703 289.823L105.629 277.148L63.4336 261.84Z" fill="#F49EA7"/>
<path d="M147.945 280.47L105.7 289.822L105.626 277.148L147.945 269.617V280.47Z" fill="#EF7683"/>
<path d="M89.6103 281.652C89.3188 283.725 89.3188 285.829 89.6103 287.903C90.7912 296.861 94.7278 308.502 87.5928 317.805C85.9086 319.524 83.9863 320.991 81.8847 322.162C81.8847 322.162 82.1061 321.472 83.8038 316.55C82.8197 318.076 75.6108 319.282 74.9219 319.405C75.2909 319.405 77.3822 318.691 81.6387 312.022C85.8951 305.352 80.6545 295.237 82.6966 282.956C82.8909 281.753 83.1538 280.561 83.484 279.387C84.3199 275.632 86.4427 272.286 89.4846 269.931C92.5266 267.576 96.2962 266.359 100.141 266.491L104.348 266.122C102.773 266.368 91.7754 267.968 89.6103 281.652Z" fill="#E83D3E"/>
<path d="M101.739 265.531C101.739 265.531 80.7523 268.14 77.5538 259.206C75.9546 254.776 81.7611 237.351 93.5216 237.647C105.282 237.942 101.739 265.531 101.739 265.531Z" fill="#E83D3E"/>
<path d="M99.0086 262.948C99.0086 262.948 90.9386 246.433 96.0562 243.948C101.174 241.462 99.0086 262.948 99.0086 262.948Z" fill="#CA2834"/>
<path d="M93.5699 241.758C93.5699 241.758 93.5699 238.164 88.6491 241.758C83.7284 245.351 82.5966 248.526 84.5895 248.87C86.5824 249.215 93.5699 241.758 93.5699 241.758Z" fill="#EF5058"/>
<path d="M88.9697 250.987C88.9697 250.987 88.6991 255.368 93.8904 260.684L88.9697 250.987Z" fill="#CA2834"/>
<path d="M84.856 255.982C84.856 255.982 86.2584 260.141 93.172 263.045L84.856 255.982Z" fill="#CA2834"/>
<path d="M104.763 266.024C104.763 266.024 124.643 273.186 129.736 265.187C132.196 261.2 130.425 243.037 118.91 240.576C107.396 238.115 104.763 266.024 104.763 266.024Z" fill="#E83D3E"/>
<path d="M107.934 263.983C107.934 263.983 119.448 249.659 114.995 246.091C110.542 242.522 107.934 263.983 107.934 263.983Z" fill="#CA2834"/>
<path d="M117.952 244.488C117.952 244.488 118.739 241.017 122.602 245.669C126.465 250.32 127.031 253.594 125.063 253.495C123.094 253.397 117.952 244.488 117.952 244.488Z" fill="#EF5058"/>
<path d="M120.387 254.531C120.387 254.531 119.698 258.862 113.375 262.874L120.387 254.531Z" fill="#CA2834"/>
<path d="M123.313 260.313C123.313 260.313 121.025 264.054 113.644 265.235L123.313 260.313Z" fill="#CA2834"/>
<path d="M100.266 266.565C100.266 266.565 97.4854 261.889 99.7982 261.323C101.142 261.027 102.397 260.42 103.464 259.551C103.956 259.256 105.924 260.092 106.466 260.683C107.007 261.274 109.492 263.144 108.754 264.695C108.467 265.248 108.026 265.707 107.485 266.017C106.944 266.327 106.326 266.475 105.703 266.442C103.89 266.366 102.074 266.407 100.266 266.565Z" fill="#CA2834"/>
<path d="M87.7168 317.706C86.0327 319.424 84.1103 320.892 82.0087 322.062C82.0087 322.062 82.2302 321.373 83.9278 316.451C82.9437 317.977 75.7348 319.183 75.0459 319.306C75.415 319.306 77.5063 318.592 81.7627 311.923C86.0191 305.253 80.7785 295.138 82.8207 282.857L89.7343 287.779C90.9153 296.861 94.8519 308.502 87.7168 317.706Z" fill="#CA2834"/>
<path d="M105.259 266.443C105.259 266.443 113.378 270.258 126.025 265.484C138.671 260.709 141.722 255.467 141.722 255.467L136.801 263.318C136.801 263.318 145.905 266.468 152.178 262.973C131.511 273.187 125.311 274.59 105.259 266.443Z" fill="#CA2834"/>
<g style="mix-blend-mode:multiply" opacity="0.55">
<path d="M143.959 281.356L105.626 302.571L105.7 289.823L143.959 281.356Z" fill="#DADADA"/>
</g>
<path d="M367.189 271.263C367.189 271.263 366.574 323.512 367.189 323.832C367.804 324.152 409.016 337.122 409.016 337.122V278.695L367.189 271.263Z" fill="#E9C940"/>
<path d="M455.044 317.657L409.011 337.125V278.698L455.044 261.987V317.657Z" fill="#E4BB10"/>
<path d="M362.783 270.474L415.804 253.32L455.046 261.983L409.013 278.694L362.783 270.474Z" fill="#75A8D1"/>
<g style="mix-blend-mode:multiply" opacity="0.55">
<path d="M409.014 306.458L455.047 283.275V275.128L408.916 292.528L409.014 306.458Z" fill="#DADADA"/>
</g>
<path d="M442.379 279.901V323.02L429.733 328.361L428.626 285.094L442.379 279.901Z" fill="#E83D3E"/>
<path d="M380.228 286.178L379.637 327.82L394.965 332.693V289.426L380.228 286.178Z" fill="#E83D3E"/>
<path d="M455.047 261.987V275.129L408.916 292.529L409.014 278.698L455.047 261.987Z" fill="#005EAA"/>
<path d="M362.783 282.314L408.915 292.528L409.013 278.696L362.783 270.476V282.314Z" fill="#3680BC"/>
<path d="M426.456 283.619C426.773 285.872 426.773 288.158 426.456 290.411C425.177 300.256 420.871 312.906 428.671 323.07C430.501 324.951 432.599 326.551 434.895 327.82L432.804 321.717C433.862 323.39 441.735 324.695 442.498 324.818C442.104 324.818 439.792 324.03 435.117 316.844C430.442 309.657 436.199 298.508 433.961 285.12C433.751 283.8 433.463 282.493 433.099 281.207C432.18 277.111 429.861 273.463 426.542 270.894C423.223 268.324 419.112 266.993 414.917 267.129L410.316 266.735C412.112 266.932 424.094 268.655 426.456 283.619Z" fill="#E83D3E"/>
<path d="M413.246 266.021C413.246 266.021 436.152 268.876 439.646 259.105C441.393 254.183 435.02 235.257 422.202 235.577C409.383 235.897 413.246 266.021 413.246 266.021Z" fill="#E83D3E"/>
<path d="M416.146 263.191C416.146 263.191 424.979 245.176 419.394 242.444C413.809 239.712 416.146 263.191 416.146 263.191Z" fill="#CA2834"/>
<path d="M422.155 240.057C422.155 240.057 422.155 236.144 427.395 240.057C432.636 243.97 433.989 247.44 431.824 247.834C429.659 248.228 422.155 240.057 422.155 240.057Z" fill="#EF5058"/>
<path d="M427.173 250.147C427.173 250.147 427.468 254.922 421.687 260.73L427.173 250.147Z" fill="#CA2834"/>
<path d="M431.674 255.611C431.674 255.611 430.124 260.14 422.571 263.29L431.674 255.611Z" fill="#CA2834"/>
<path d="M409.925 266.415C409.925 266.415 388.225 274.241 382.664 265.504C379.909 261.148 381.902 241.213 394.499 238.702C407.096 236.192 409.925 266.415 409.925 266.415Z" fill="#E83D3E"/>
<path d="M406.557 264.323C406.557 264.323 393.984 248.67 398.831 244.782C403.678 240.893 406.557 264.323 406.557 264.323Z" fill="#CA2834"/>
<path d="M395.534 243.059C395.534 243.059 394.673 239.245 390.441 244.315C386.21 249.385 385.644 252.978 387.833 252.879C390.023 252.781 395.534 243.059 395.534 243.059Z" fill="#EF5058"/>
<path d="M392.876 254.01C392.876 254.01 393.639 258.735 400.528 263.116L392.876 254.01Z" fill="#CA2834"/>
<path d="M389.678 260.312C389.678 260.312 392.138 264.397 400.233 265.824L389.678 260.312Z" fill="#CA2834"/>
<path d="M414.849 267.131C414.849 267.131 417.9 262.036 415.366 261.421C413.905 261.082 412.536 260.427 411.355 259.501C410.814 259.157 408.526 260.067 408.083 260.707C407.64 261.347 404.762 263.488 405.623 265.113C405.932 265.717 406.411 266.218 407.001 266.555C407.591 266.892 408.266 267.049 408.944 267.008C410.913 266.92 412.886 266.962 414.849 267.131Z" fill="#CA2834"/>
<path d="M428.548 323.068C430.378 324.948 432.475 326.549 434.772 327.818L432.681 321.714C433.739 323.388 441.612 324.692 442.375 324.815C441.981 324.815 439.668 324.028 434.994 316.841C430.319 309.655 436.076 298.506 433.837 285.118L426.235 290.409C425.054 300.204 420.748 312.904 428.548 323.068Z" fill="#CA2834"/>
<path d="M409.383 267.006C409.383 267.006 400.525 271.165 386.723 265.947C372.92 260.73 369.5 255.02 369.5 255.02L374.79 263.585C374.79 263.585 364.948 267.055 358.035 263.216C380.719 274.364 387.51 275.866 409.383 267.006Z" fill="#CA2834"/>
<g style="mix-blend-mode:multiply" opacity="0.55">
<path d="M367.136 283.271L409.011 306.455L408.913 292.525L367.136 283.271Z" fill="#DADADA"/>
</g>
<path d="M368.251 146.683H345.566V169.498H368.251V146.683Z" fill="#E62236"/>
<path d="M370.957 150.743C369.801 150.782 368.678 151.134 367.707 151.763C366.736 152.392 365.954 153.273 365.446 154.312C366.5 153.447 367.822 152.977 369.186 152.983C369.906 152.912 370.634 152.994 371.322 153.221C372.009 153.449 372.642 153.818 373.178 154.305C373.715 154.792 374.143 155.385 374.437 156.048C374.73 156.71 374.882 157.427 374.882 158.151C374.882 158.876 374.73 159.592 374.437 160.255C374.143 160.917 373.715 161.511 373.178 161.997C372.642 162.484 372.009 162.853 371.322 163.081C370.634 163.309 369.906 163.39 369.186 163.319C367.822 163.325 366.5 162.855 365.446 161.99C365.954 163.03 366.736 163.911 367.707 164.539C368.678 165.168 369.801 165.52 370.957 165.559C372.915 165.559 374.792 164.781 376.176 163.397C377.56 162.012 378.338 160.134 378.338 158.176C378.338 156.218 377.56 154.34 376.176 152.955C374.792 151.57 372.915 150.792 370.957 150.792V150.743Z" fill="#BE1622"/>
<path d="M368.252 146.683H360.158V169.498H368.252V146.683Z" fill="#BE1622"/>
<path d="M351.89 150.842C351.89 149.904 351.13 149.144 350.193 149.144C349.255 149.144 348.495 149.904 348.495 150.842V157.315C348.495 158.253 349.255 159.013 350.193 159.013C351.13 159.013 351.89 158.253 351.89 157.315V150.842Z" fill="#EE6D6E"/>
<path d="M243.164 53.8966C242.844 55.4717 235.562 78.8031 231.748 88.6475C227.935 98.492 226.68 102.159 231.404 107.106C236.128 112.053 293.11 109.567 299.876 108.386C306.642 107.204 295.324 46.3164 295.324 46.3164L243.164 53.8966Z" fill="#B17F4A"/>
<g style="mix-blend-mode:multiply">
<path d="M242.174 57.248C242.174 57.248 240.698 77.1092 239.123 88.6518C237.548 100.194 270.714 110.063 284.443 101.548C298.172 93.0325 291.603 55.1807 291.603 55.1807L242.174 57.248Z" fill="#B2B2B2"/>
</g>
<path d="M228.352 294.178C231.797 292.258 233.396 293.39 245.796 292.725C258.196 292.061 259.746 297.279 259.746 297.279C259.746 297.279 257.089 305.917 252.587 305.302C248.084 304.686 232.289 305.302 232.461 304.194C232.633 303.087 228.352 294.178 228.352 294.178Z" fill="#00712F"/>
<path d="M286.683 293.094C290.128 291.174 291.727 292.306 304.127 291.641C316.527 290.977 318.077 296.195 318.077 296.195C318.077 296.195 315.42 304.833 310.918 304.218C306.415 303.603 290.62 304.218 290.792 303.11C290.964 302.003 286.683 293.094 286.683 293.094Z" fill="#00712F"/>
<path d="M314.909 277.268C313.974 314.85 312.941 311.06 312.941 311.06H296.063H292.053C292.053 311.06 282.359 260.705 281.424 231.984C281.153 224.01 280.833 217.636 280.489 212.541C278.028 212.738 275.568 212.91 273.108 213.033C270.647 213.156 267.941 213.206 265.53 213.033C265.259 217.488 265.013 222.878 264.792 229.055C263.857 257.826 254.163 308.155 254.163 308.155H249.464H233.274C233.274 308.155 232.241 311.97 231.306 274.414C230.986 261.739 230.888 247.686 230.888 234.667C230.888 227.652 230.888 220.958 230.888 214.978C230.888 211.483 230.888 208.234 230.888 205.133V204.936L230.74 178.799L313.021 180.425L315.18 206.241H315.032C315.032 207.816 315.032 209.465 315.032 211.163C315.377 229.104 315.524 255.315 314.909 277.268Z" fill="#E62236"/>
<g style="mix-blend-mode:multiply">
<path d="M315.203 206.955L287.007 211.04C287.007 211.04 295.2 296.342 295.742 306.211C295.742 308.106 295.963 309.78 296.061 311.257H292.051C292.051 311.257 282.357 258.613 281.422 228.588C281.152 220.269 280.832 213.6 280.487 208.284C278.027 208.505 275.566 208.653 273.106 208.801C270.646 208.948 267.939 208.973 265.528 208.801C265.258 213.477 265.012 218.99 264.79 225.585C263.855 255.636 254.161 308.254 254.161 308.254H249.462C251.135 291.691 259.919 210.671 259.919 210.671H230.886L231.034 200.507V200.31L231.157 191.573L314.982 195.314L315.178 201.737L315.326 206.856L315.203 206.955Z" fill="#DADADA"/>
</g>
<path d="M280.584 24.2198C280.518 24.2913 280.432 24.3425 280.338 24.3675H280.043H279.772C279.657 24.2969 279.557 24.205 279.477 24.0968C279.452 24.0083 279.452 23.9145 279.477 23.8261C279.465 23.7362 279.465 23.6452 279.477 23.5553V23.3831C279.491 23.3338 279.516 23.2884 279.55 23.2501C279.584 23.2117 279.627 23.1815 279.674 23.1616H279.846C279.934 23.1363 280.028 23.1363 280.117 23.1616H280.313L280.658 23.3585C280.729 23.4301 280.787 23.5133 280.83 23.6046C280.842 23.7026 280.842 23.8018 280.83 23.8999C280.861 24.021 280.861 24.148 280.83 24.2691C280.745 24.2767 280.66 24.2596 280.584 24.2198Z" fill="white"/>
<path d="M230.915 220.963V214.144H265.02C265.105 215.988 265.225 219.934 265.02 220.963C264.814 221.993 242.197 221.392 230.915 220.963Z" fill="#C51D2E"/>
<path d="M281.114 220.192V213.373H315.219C315.305 215.217 315.425 219.163 315.219 220.192C315.013 221.222 292.396 220.621 281.114 220.192Z" fill="#C51D2E"/>
<path d="M317.888 219.556C317.888 219.556 310.871 191.303 308.239 191.303C307.156 191.303 306.221 195.191 305.508 199.892C304.499 206.586 304.913 225.621 304.913 225.621C304.913 225.621 292.714 195.265 293.255 191.942C292.689 194.625 288.9 215.914 289.073 219.556C289.245 223.199 279.772 200.679 279.231 194.33C277.583 200.286 269.87 215.274 270.313 219.556C270.879 224.774 261.91 207.078 263.411 200.433C264.912 193.788 250.248 213.772 249.682 219.556C249.116 225.34 246.114 201.565 249.313 197.037C251.773 193.493 243.26 199.646 238.291 206.365C236.945 208.077 234.96 216.346 234.271 218.412C232.057 226.312 237.946 192.139 238.192 190.687C237.528 191.278 228.182 208.923 225.624 216.971C223.065 225.018 231.869 172.795 231.869 172.77C234.379 160.685 235.083 148.294 233.96 136.001C233.714 131.276 227.219 107.206 233.616 95.7129C234.062 94.8553 234.572 94.0326 235.141 93.2518C239.275 86.7053 248.034 85.8685 255.316 86.1884H257.063H258.17H258.81C258.994 86.4054 259.191 86.6109 259.4 86.8037C259.594 87.005 259.799 87.1941 260.016 87.3698C262.125 89.177 264.625 90.4707 267.319 91.1497C270.012 91.8286 272.826 91.8742 275.54 91.2829C277.509 90.8645 279.364 90.025 280.978 88.8218C281.333 88.9769 281.705 89.0925 282.085 89.1664C287.178 90.52 296.085 88.8464 299.947 92.5873C302.137 94.7039 304.056 100.487 305.778 108.24C309.543 125.296 306.344 128.528 308.239 145.952C312.494 175.306 319.216 209.564 317.888 219.556Z" fill="#83C06D"/>
<path d="M277.213 63.7172C277.142 63.646 277.087 63.5615 277.049 63.4686C277.011 63.3757 276.991 63.2762 276.992 63.1758C277.002 62.9826 277.08 62.7994 277.213 62.659C277.366 62.5331 277.557 62.4636 277.754 62.4621C277.946 62.4583 278.131 62.5288 278.271 62.659C278.342 62.7302 278.398 62.8147 278.436 62.9076C278.474 63.0005 278.493 63.1 278.493 63.2004C278.483 63.3935 278.404 63.5768 278.271 63.7172C278.119 63.8431 277.927 63.9126 277.73 63.9141C277.539 63.9179 277.353 63.8474 277.213 63.7172Z" fill="white"/>
<path d="M281.765 87.3928C276.751 86.4348 271.663 85.916 266.56 85.8423C257.21 85.6208 256.718 85.2271 256.718 85.2271L258.736 90.1493C258.736 90.1493 269.783 94.9238 271.579 94.1117C273.375 93.2995 281.765 87.3928 281.765 87.3928Z" fill="#EDEDED"/>
<path d="M261.022 92.9085C262.375 95.3696 275.587 94.1883 275.587 94.1883C275.477 92.3852 275.477 90.577 275.587 88.7738C275.587 87.9371 275.735 86.9772 275.882 85.9682C276.077 84.4551 276.759 83.0467 277.826 81.9566C279.101 80.6578 280.635 79.643 282.329 78.9786L259.742 77.502C259.742 77.502 259.693 90.5705 261.022 92.9085Z" fill="#EFB68F"/>
<path d="M265.747 87.9852C265.92 91.5046 275.392 88.6743 275.589 88.7728C275.589 87.936 275.736 86.9761 275.884 85.9671C276.079 84.454 276.761 83.0457 277.828 81.9555C277.813 81.899 277.813 81.8397 277.828 81.7832V80.7742L269.266 78.9775C269.266 78.9775 265.55 84.4412 265.747 87.9852Z" fill="#FBD2BB"/>
<path d="M271.428 84.3178H271.772C271.92 84.2932 271.772 84.2932 271.428 84.3178Z" fill="#EFB68F"/>
<path d="M269.609 32.0189L270.372 31.6743C270.094 31.7275 269.832 31.8455 269.609 32.0189Z" fill="#FFDE00"/>
<path d="M264.692 65.2441C264.819 65.9985 264.983 66.746 265.184 67.4838C266.978 68.9758 269.029 70.1268 271.237 70.8801C273.444 71.6406 275.746 72.088 278.077 72.2091C279.528 71.6677 280.537 71.2246 280.537 71.2246C277.458 71.176 274.398 70.7293 271.434 69.8956C268.781 69.0373 266.437 67.4202 264.692 65.2441Z" fill="white"/>
<path d="M280.558 86.3602C280.704 86.3344 280.854 86.3344 281.001 86.3602C281.146 86.3273 281.298 86.3273 281.444 86.3602C281.58 86.4403 281.698 86.5495 281.788 86.6801C281.888 86.8009 281.955 86.9448 281.985 87.0985C282.181 88.3022 282.231 89.5253 282.132 90.7409C282.132 91.4793 272.709 95.6632 266.755 94.9249C258.636 94.0142 255.314 90.0026 255.191 88.5259C255.068 87.0493 255.462 84.5389 256.372 85.0558C260.03 87.9387 264.652 89.3124 269.289 88.8951C273.147 88.5923 276.942 87.7387 280.558 86.3602Z" fill="white"/>
<path d="M289.247 22.4952L254.409 38.6647L253.597 39.0338L241.295 44.6452C242.184 40.9645 242.711 37.2058 242.869 33.4225C242.881 33.2833 242.881 33.1433 242.869 33.0041C242.854 32.3443 242.746 31.6899 242.55 31.0598C242.449 30.6973 242.233 30.3774 241.934 30.1492C241.393 29.7554 240.581 29.9277 239.474 30.9122C232.905 36.3266 236.03 61.6514 236.03 61.6514L234.455 62.0206L232.684 62.439C228.895 57.7137 222.571 22.692 238.023 7.40854C240.811 4.64187 244.244 2.61212 248.012 1.50188L249.266 1.15733C253.51 -0.0160495 257.955 -0.276085 262.306 0.39438L263.438 0.615881C268.689 1.71577 273.58 4.11937 277.659 7.60544L278.692 8.49144L279.48 9.20516C283.474 13.0413 286.778 17.537 289.247 22.4952Z" fill="#83C06D"/>
<path d="M277.658 7.6044C271.516 8.73016 265.578 10.771 260.042 13.6587C252.439 18.0887 244.64 29.0899 242.991 33.3476C242.991 33.5937 242.794 33.3476 242.991 32.9292C244.394 29.2622 261.272 3.81429 263.462 0.541016C268.711 1.66631 273.593 4.09541 277.658 7.6044Z" fill="#008D49"/>
<path d="M249.285 1.13184C249.285 6.62012 248.719 19.1226 246.824 23.4295C244.364 28.967 242.273 29.853 242.273 29.853C242.273 29.853 245.176 9.2289 237.942 7.38306C240.731 4.61639 244.164 2.58663 247.931 1.47639L249.285 1.13184Z" fill="#008D49"/>
<path d="M228.498 30.9597C228.498 30.9597 229.506 28.9662 232.852 29.8276C236.937 30.8858 237.773 33.027 237.773 33.027L239.422 30.9105C239.241 29.6433 238.8 28.4272 238.127 27.3387C237.454 26.2501 236.563 25.3127 235.51 24.5854C233.59 23.5517 229.728 23.4779 229.408 24.5854C228.993 26.6927 228.689 28.8204 228.498 30.9597Z" fill="#008D49"/>
<path d="M235.54 50.2074C235.54 50.2074 236.228 47.0817 228.995 49.4444L228.183 42.7256C228.183 42.7256 228.183 40.9044 231.947 40.6336C235.712 40.3629 235.564 42.701 235.564 42.701L235.54 50.2074Z" fill="#008D49"/>
<path d="M289.239 22.4968L254.4 38.6663L242.442 43.244L242.984 33.0058C242.984 33.0058 250.562 18.2391 272.336 14.572C276.05 13.8794 279.83 13.6152 283.604 13.7845C290.666 20.1342 289.239 22.4968 289.239 22.4968Z" fill="#008D49"/>
<g style="mix-blend-mode:multiply" opacity="0.92">
<path d="M232.676 53.7025C233.038 56.5213 233.639 59.3042 234.472 62.0211L236.047 61.6519C236.047 61.6519 232.922 36.3271 239.492 30.9126C246.061 25.4982 241.411 44.6702 241.411 44.6702L253.713 39.0589L261.094 28.9437C261.094 28.9437 255.189 8.02428 242.321 13.611C229.453 19.1977 231.865 48.2635 232.676 53.7025Z" fill="#83C06D"/>
</g>
<path d="M247.86 46.0232H248.205C252.559 44.0297 258.046 39.5751 270.151 36.1788C273.896 35.2946 277.785 35.2193 281.561 35.9577C285.337 36.6961 288.912 38.2314 292.048 40.4611C295.493 40.4611 299.971 40.9533 300.02 32.684C300.069 24.4147 291.089 21.4613 277.212 20.2308C272.709 20.0031 268.205 20.6552 263.951 22.1504C254.832 25.2695 246.299 29.8948 238.708 35.8342C233.934 39.9443 243.333 47.4999 247.86 46.0232Z" fill="white"/>
<path d="M248.527 45.7278C250.024 44.5207 251.602 43.4187 253.251 42.4299C257.877 39.8211 266.562 32.8315 266.267 27.8601C266.149 25.7844 265.649 23.7483 264.79 21.855C255.663 24.9281 247.108 29.4938 239.473 35.3665C234.651 39.5996 244 47.1552 248.527 45.7278Z" fill="#EDEDED"/>
<path d="M226.012 67.5085C226.03 69.3331 226.722 71.0866 227.956 72.4307C228.554 73.0925 229.277 73.629 230.083 74.0092C230.89 74.3894 231.764 74.6058 232.655 74.6457H232.999C234.384 74.6498 235.735 74.2194 236.862 73.4152C237.983 72.5869 238.838 71.4493 239.323 70.1419C239.837 68.8099 239.965 67.3596 239.692 65.958C239.423 64.5601 238.757 63.2696 237.773 62.2417C236.81 61.2394 235.566 60.5529 234.205 60.2729C232.855 59.9977 231.452 60.1527 230.195 60.7159C228.904 61.2705 227.814 62.2065 227.07 63.3985C226.311 64.6076 225.91 66.007 225.914 67.4347L226.012 67.5085Z" fill="#E62236"/>
<path d="M232.654 74.721H232.998C234.383 74.7251 235.734 74.2947 236.861 73.4904C237.97 72.6599 238.822 71.5341 239.321 70.2418C239.844 68.9121 239.981 67.4617 239.715 66.0579C239.451 64.6659 238.783 63.3823 237.796 62.3662C236.333 62.6535 234.972 63.3211 233.849 64.3019C232.726 65.2826 231.881 66.5418 231.399 67.9529C231.166 69.1144 231.166 70.3108 231.399 71.4723C231.603 72.6264 232.029 73.7298 232.654 74.721Z" fill="#CA2834"/>
<path d="M246.875 66.8923C248.056 74.1034 257.134 83.4064 270.789 82.8404H272.266C291.579 81.093 295.147 68.0737 292.416 56.8018C289.685 45.5299 291.087 40.8046 291.087 40.8046C291.087 40.8046 279.007 34.0119 272.462 35.5378C268.28 36.5222 258.955 41.6167 252.779 45.1361C249.335 47.1296 246.825 48.6309 246.825 48.6309C246.183 54.702 246.2 60.8248 246.875 66.8923Z" fill="#FCDACA"/>
<path d="M314.436 178.237H230.403C230.188 179.653 229.682 182.665 229.373 183.386C229.064 184.107 286.812 183.686 315.724 183.386L314.436 178.237Z" fill="#489434"/>
<path d="M285.236 51.4361C284.143 50.1039 282.745 49.0565 281.159 48.3835C279.574 47.7106 277.849 47.4322 276.132 47.5722L275.837 44.7419C276.792 44.5024 277.79 44.4844 278.754 44.6891C279.717 44.8938 280.622 45.3159 281.397 45.9232C282.382 46.5609 283.22 47.3996 283.858 48.3843C284.514 49.3003 284.983 50.3377 285.236 51.4361Z" fill="#B17F4A"/>
<path d="M256.229 50.5268C257.445 49.3138 258.939 48.4154 260.581 47.9095C262.223 47.4035 263.963 47.305 265.652 47.6227L266.316 44.7678C265.393 44.4305 264.404 44.3105 263.427 44.4172C262.45 44.5239 261.511 44.8544 260.682 45.3831C259.635 45.8694 258.71 46.5842 257.975 47.475C257.184 48.357 256.588 49.3972 256.229 50.5268Z" fill="#B17F4A"/>
<path d="M247 65.1829C245.176 64.4342 243.463 63.4407 241.907 62.2296C237.773 59.4732 237.577 39.7104 237.577 39.7104C237.577 39.7104 246.065 43.8697 248.427 52.016C249.78 56.9628 247 65.1829 247 65.1829Z" fill="#F9CEB6"/>
<path d="M265.498 61.2084C265.498 63.3003 267.958 65.0231 270.985 65.0723C271.946 65.1374 272.91 64.9727 273.795 64.5919C274.681 64.211 275.463 63.6249 276.078 62.8819C276.401 62.43 276.573 61.8873 276.57 61.3314C276.57 59.2395 274.109 57.4921 271.058 57.4675C269.394 57.3767 267.76 57.9421 266.507 59.0426C266.208 59.3181 265.958 59.6428 265.769 60.0024C265.595 60.381 265.503 60.7919 265.498 61.2084Z" fill="#E83D3E"/>
<path d="M278.836 57.1975C277.827 57.0799 276.906 56.5698 276.27 55.7776C275.635 54.9853 275.337 53.9747 275.441 52.9644C275.516 51.9561 275.989 51.019 276.755 50.3591C277.52 49.6992 278.517 49.3704 279.525 49.445C280.533 49.5626 281.455 50.0727 282.091 50.8649C282.726 51.6571 283.024 52.6677 282.92 53.6781C282.845 54.6864 282.372 55.6234 281.606 56.2833C280.84 56.9433 279.844 57.2721 278.836 57.1975Z" fill="white"/>
<path d="M278.938 56.039C278.227 55.9532 277.577 55.5938 277.127 55.037C276.676 54.4802 276.46 53.7697 276.524 53.0561C276.588 52.3425 276.927 51.6819 277.469 51.2142C278.012 50.7465 278.715 50.5085 279.43 50.5507C280.153 50.6253 280.818 50.9828 281.279 51.5452C281.739 52.1076 281.959 52.8293 281.891 53.5532C281.87 53.9139 281.775 54.2664 281.613 54.5894C281.451 54.9123 281.225 55.1989 280.949 55.4315C280.673 55.6641 280.352 55.838 280.006 55.9424C279.661 56.0469 279.297 56.0797 278.938 56.039Z" fill="#2D2D2C"/>
<path d="M278.859 53.1832C278.762 53.174 278.668 53.1456 278.582 53.0997C278.496 53.0538 278.42 52.9912 278.358 52.9157C278.296 52.8402 278.25 52.7532 278.222 52.6597C278.194 52.5662 278.185 52.4681 278.195 52.371C278.201 52.274 278.227 52.1792 278.27 52.092C278.313 52.0047 278.372 51.9269 278.445 51.8629C278.519 51.7988 278.604 51.7499 278.696 51.7188C278.788 51.6878 278.885 51.6752 278.982 51.6819C279.08 51.694 279.173 51.7254 279.258 51.7742C279.344 51.823 279.418 51.8882 279.478 51.9661C279.537 52.044 279.581 52.133 279.605 52.2279C279.63 52.3228 279.636 52.4216 279.622 52.5187C279.619 52.6137 279.597 52.707 279.556 52.7929C279.515 52.8788 279.457 52.9553 279.386 53.0177C279.314 53.0801 279.23 53.127 279.14 53.1555C279.049 53.184 278.954 53.1934 278.859 53.1832Z" fill="white"/>
<path d="M282.355 68.2954C280.288 68.2954 278.591 67.2863 278.591 66.0065C278.591 64.7267 280.264 63.5454 282.331 63.5454C284.397 63.5454 286.095 64.5791 286.095 65.8588C286.095 67.1386 284.422 68.2954 282.355 68.2954Z" fill="#F4A3A4"/>
<path d="M258.393 66.0063C256.327 66.0063 254.629 64.9972 254.629 63.7175C254.629 62.4377 256.302 61.2563 258.369 61.2563C260.435 61.2563 262.133 62.29 262.133 63.5698C262.133 64.8496 260.46 66.0063 258.393 66.0063Z" fill="#F4A3A4"/>
<path d="M265.498 61.2092C265.498 63.3012 267.958 65.024 270.985 65.0732C271.946 65.1383 272.91 64.9736 273.795 64.5927C274.681 64.2119 275.463 63.6258 276.078 62.8828C273.704 63.6248 271.137 63.4401 268.893 62.366C268.266 62.0389 267.726 61.5664 267.319 60.9877C266.911 60.4059 266.634 59.7426 266.507 59.0435C266.208 59.3132 265.965 59.6394 265.793 60.0033C265.6 60.376 265.499 60.7895 265.498 61.2092Z" fill="#E62236"/>
<path d="M246.336 58.7875C246.239 57.2922 245.967 55.8135 245.524 54.3821C245.134 52.8978 244.448 51.5079 243.506 50.2966C243.261 49.9693 242.961 49.6863 242.62 49.4598C242.398 49.2816 242.117 49.1938 241.833 49.2137H241.562C241.466 49.2615 241.389 49.3392 241.341 49.4352C241.245 49.5457 241.184 49.6832 241.169 49.829C241.095 50.2524 241.095 50.6854 241.169 51.1088C241.221 51.49 241.295 51.868 241.39 52.2409C241.776 53.6827 242.373 55.0595 243.162 56.3263C242.689 54.938 242.327 53.5143 242.079 52.0686C241.956 51.4098 241.956 50.7339 242.079 50.0751C242.144 50.0611 242.211 50.0611 242.276 50.0751C242.53 50.2795 242.761 50.5105 242.965 50.7642C243.83 51.8921 244.519 53.1452 245.007 54.4805C245.401 55.9818 245.893 57.36 246.336 58.7875Z" fill="#EFB68F"/>
<path d="M275.149 60.075C275.153 59.6536 273.956 59.299 272.475 59.283C270.994 59.267 269.79 59.5956 269.786 60.0169C269.781 60.4382 270.978 60.7928 272.459 60.8088C273.94 60.8248 275.144 60.4963 275.149 60.075Z" fill="#EF5058"/>
<path d="M276.161 32.5609C275.967 33.4236 275.551 34.2209 274.955 34.8743L272.249 36.5725C267.156 39.6489 256.33 46.097 251.902 47.2291C250.214 47.5561 248.564 48.0593 246.981 48.7304L246.125 47.2291L244.932 46.663C244.932 46.663 258.52 32.8808 267.82 30.3459C268.713 30.1126 269.629 29.9805 270.551 29.9521C275.423 29.7552 276.358 31.2565 276.161 32.5609Z" fill="#B17F4A"/>
<path d="M289.738 48.237C284.817 48.237 275.984 38.8356 272.269 36.5714L270.941 35.71C270.941 35.71 262.059 37.482 263.092 34.6025C263.673 33.4684 264.517 32.4896 265.552 31.7476C266.219 31.2124 266.936 30.7426 267.693 30.3447C268.052 30.1365 268.421 29.9475 268.8 29.7787C275.271 26.7761 283.365 28.2036 288.803 30.7385C290.04 31.3122 291.218 32.0046 292.321 32.8059C293.534 33.6929 294.507 34.8688 295.151 36.2268C297.365 40.2876 294.388 48.3355 289.738 48.237Z" fill="#B17F4A"/>
<g style="mix-blend-mode:multiply">
<path d="M295.327 36.2024C289.225 35.1933 289.643 31.5017 281.303 30.3942C279.187 30.1234 271.929 32.1415 270.034 32.1169C267.561 32.3838 265.185 33.2267 263.096 34.578C257.15 38.1537 251.023 42.6934 245.701 47.1452L245.697 46.0507C245.697 46.0507 258.544 32.8553 267.844 30.3203C268.203 30.112 268.573 29.9231 268.952 29.7543C275.422 26.7517 283.517 28.1792 288.954 30.7141C290.191 31.2878 291.369 31.9802 292.473 32.7814C293.695 33.6655 294.676 34.8416 295.327 36.2024Z" fill="#B2B2B2"/>
</g>
<path d="M290.808 37.6246C291.247 36.8273 289.395 34.9618 286.671 33.458C283.946 31.9542 281.381 31.3815 280.941 32.1788C280.502 32.9762 282.354 34.8416 285.078 36.3454C287.803 37.8493 290.368 38.422 290.808 37.6246Z" fill="#C68D52"/>
<path d="M262.794 57.565C262.294 57.6018 261.792 57.539 261.316 57.3804C260.841 57.2217 260.402 56.9703 260.024 56.6407C259.647 56.311 259.338 55.9098 259.117 55.4601C258.895 55.0105 258.765 54.5213 258.734 54.021C258.624 53.0094 258.919 51.9952 259.556 51.2015C260.193 50.4077 261.118 49.8993 262.129 49.7879C263.117 49.7759 264.073 50.1383 264.805 50.8023C265.537 51.4664 265.991 52.3828 266.075 53.3676C266.159 54.3524 265.867 55.3326 265.259 56.1112C264.65 56.8898 263.769 57.4092 262.794 57.565Z" fill="white"/>
<path d="M262.699 56.4351C262.155 56.4917 261.606 56.385 261.123 56.1286C260.639 55.8722 260.243 55.4777 259.985 54.9953C259.727 54.5129 259.618 53.9645 259.672 53.42C259.726 52.8754 259.941 52.3593 260.29 51.9375C260.638 51.5156 261.104 51.2071 261.629 51.0512C262.153 50.8953 262.712 50.8991 263.235 51.0621C263.757 51.2251 264.219 51.5399 264.561 51.9664C264.904 52.393 265.112 52.9119 265.159 53.4572C265.221 54.1771 264.998 54.8925 264.538 55.4494C264.078 56.0064 263.417 56.3604 262.699 56.4351Z" fill="#2D2D2C"/>
<path d="M262.128 53.6533C262.031 53.66 261.934 53.6475 261.842 53.6164C261.749 53.5854 261.664 53.5364 261.591 53.4724C261.518 53.4084 261.458 53.3305 261.415 53.2433C261.372 53.1561 261.347 53.0612 261.341 52.9642C261.331 52.8705 261.34 52.7758 261.367 52.6855C261.394 52.5952 261.438 52.511 261.498 52.4379C261.557 52.3648 261.63 52.3041 261.713 52.2592C261.796 52.2144 261.887 52.1864 261.98 52.1767C262.074 52.167 262.169 52.1758 262.259 52.2027C262.349 52.2296 262.433 52.2741 262.507 52.3335C262.58 52.3929 262.64 52.4662 262.685 52.549C262.73 52.6319 262.758 52.7228 262.768 52.8165C262.782 52.9136 262.776 53.0125 262.751 53.1074C262.726 53.2022 262.683 53.2912 262.623 53.3691C262.564 53.447 262.489 53.5123 262.404 53.5611C262.319 53.6099 262.225 53.6412 262.128 53.6533Z" fill="white"/>
<path d="M258.782 52.6689H258.635C257.894 52.661 257.186 52.3602 256.666 51.8321C256.508 51.634 256.398 51.4025 256.342 51.1552C256.287 50.908 256.288 50.6513 256.347 50.4047C256.35 50.3723 256.359 50.3409 256.374 50.3122C256.39 50.2835 256.41 50.2581 256.436 50.2375C256.461 50.2169 256.49 50.2015 256.521 50.1922C256.552 50.1828 256.585 50.1798 256.617 50.1832C256.65 50.189 256.681 50.2014 256.709 50.2196C256.736 50.2378 256.76 50.2613 256.778 50.2889C256.797 50.3165 256.809 50.3475 256.816 50.3801C256.822 50.4127 256.821 50.4462 256.814 50.4785C256.772 50.6565 256.77 50.8416 256.808 51.0204C256.846 51.1992 256.924 51.3672 257.035 51.5122C257.43 51.9031 257.957 52.1315 258.512 52.1521C258.733 51.7829 259.176 51.0446 259.299 50.8969C259.684 50.4951 260.146 50.1748 260.658 49.955C261.169 49.7352 261.719 49.6203 262.276 49.6171C263.158 49.5488 264.038 49.7818 264.771 50.278C265.503 50.7741 266.047 51.5042 266.311 52.349C266.326 52.4109 266.317 52.4763 266.285 52.5314C266.252 52.5865 266.2 52.627 266.139 52.6443C266.074 52.6604 266.005 52.6517 265.946 52.6198C265.887 52.588 265.841 52.5353 265.819 52.472C265.61 51.7167 265.144 51.0578 264.502 50.6087C263.86 50.1595 263.082 49.9482 262.301 50.0109C261.813 50.0061 261.33 50.102 260.881 50.2925C260.432 50.4831 260.028 50.7643 259.693 51.1184C259.397 51.5458 259.126 51.9895 258.881 52.4474L258.782 52.6689Z" fill="#683C11"/>
<path d="M258.935 51.6366C258.654 51.63 258.384 51.5256 258.172 51.3412C257.989 51.1898 257.856 50.9867 257.79 50.7584C257.724 50.53 257.729 50.2872 257.803 50.0615C257.808 50.0292 257.82 49.9985 257.839 49.9716C257.857 49.9446 257.882 49.9221 257.91 49.9057C257.938 49.8892 257.97 49.8792 258.002 49.8763C258.035 49.8735 258.068 49.8779 258.098 49.8892C258.161 49.9117 258.214 49.9568 258.246 50.016C258.278 50.0751 258.286 50.1439 258.27 50.2091C258.237 50.3349 258.238 50.4671 258.273 50.5925C258.307 50.7178 258.374 50.8318 258.467 50.9229C258.547 51.001 258.645 51.0577 258.753 51.0878C258.86 51.1179 258.974 51.1204 259.082 51.0951C259.129 51.0611 259.185 51.0428 259.242 51.0428C259.3 51.0428 259.356 51.0611 259.402 51.0951C259.428 51.1575 259.43 51.2276 259.408 51.2913C259.385 51.3551 259.339 51.4081 259.279 51.4397C259.178 51.5275 259.061 51.5944 258.935 51.6366Z" fill="#683C11"/>
<path d="M282.975 52.8643V52.7167C282.754 52.1014 282.458 51.3877 282.385 51.2646C282.109 50.8433 281.747 50.4851 281.323 50.2136C280.899 49.9421 280.422 49.7635 279.924 49.6895C279.183 49.4776 278.391 49.5285 277.682 49.8334C276.974 50.1384 276.393 50.6787 276.037 51.363C275.992 51.4012 275.936 51.4221 275.877 51.4221C275.818 51.4221 275.762 51.4012 275.717 51.363C275.657 51.3314 275.611 51.2785 275.589 51.2147C275.566 51.1509 275.568 51.0809 275.594 51.0185C276.007 50.2432 276.667 49.6283 277.47 49.2715C278.272 48.9148 279.171 48.8366 280.023 49.0496C280.568 49.1525 281.086 49.3647 281.547 49.6735C282.008 49.9822 282.402 50.3812 282.704 50.8462C282.925 51.3036 283.122 51.7718 283.295 52.249C283.838 52.3014 284.384 52.1715 284.845 51.8799C284.973 51.7513 285.072 51.597 285.135 51.4273C285.199 51.2576 285.226 51.0763 285.214 50.8954C285.214 50.8302 285.24 50.7676 285.286 50.7214C285.332 50.6752 285.395 50.6493 285.46 50.6493C285.493 50.6454 285.527 50.649 285.559 50.66C285.59 50.6709 285.619 50.689 285.643 50.7126C285.666 50.7363 285.684 50.7651 285.695 50.7968C285.706 50.8284 285.71 50.8622 285.706 50.8954C285.721 51.1506 285.68 51.4059 285.586 51.6438C285.493 51.8817 285.349 52.0966 285.165 52.2737C284.551 52.686 283.805 52.8529 283.073 52.7413L282.975 52.8643Z" fill="#683C11"/>
<path d="M283.029 51.9062C282.916 51.8864 282.807 51.8447 282.709 51.7832C282.654 51.744 282.616 51.6844 282.605 51.6175C282.593 51.5506 282.609 51.4818 282.648 51.4263C282.687 51.3709 282.747 51.3332 282.814 51.3217C282.88 51.3101 282.949 51.3256 283.005 51.3648C283.099 51.4165 283.205 51.4436 283.312 51.4436C283.42 51.4436 283.526 51.4165 283.62 51.3648C283.727 51.2862 283.812 51.1819 283.868 51.0614C283.924 50.9409 283.949 50.8082 283.94 50.6757C283.932 50.6141 283.948 50.5519 283.985 50.5017C284.021 50.4515 284.076 50.4169 284.136 50.405C284.169 50.3975 284.204 50.3976 284.236 50.4053C284.269 50.413 284.3 50.4281 284.326 50.4495C284.352 50.4709 284.373 50.4979 284.387 50.5286C284.401 50.5593 284.408 50.5927 284.407 50.6265C284.44 50.8573 284.404 51.0926 284.303 51.3028C284.202 51.513 284.042 51.6887 283.841 51.8078C283.592 51.9385 283.303 51.9735 283.029 51.9062Z" fill="#683C11"/>
<ellipse cx="270.754" cy="73.1914" rx="2.4349" ry="3.2168" fill="#4A4A4A"/>
<path d="M273.047 74.291C272.976 74.8274 272.73 75.3255 272.347 75.7081C271.965 76.0907 271.467 76.3365 270.931 76.4076C270.595 76.4082 270.262 76.34 269.954 76.2072C269.645 76.0744 269.367 75.8798 269.137 75.6354C268.906 75.3909 268.728 75.1019 268.613 74.7861C268.499 74.4702 268.45 74.1342 268.47 73.7988C269.148 74.2536 269.943 74.5016 270.758 74.5125C271.528 74.5504 272.299 74.4758 273.047 74.291Z" fill="#BE1622"/>
<path d="M292.39 62.1561C294.22 61.4299 295.935 60.4435 297.483 59.2274C301.617 56.4709 301.813 36.6836 301.813 36.6836C301.813 36.6836 293.325 40.8429 290.963 48.9892C289.61 53.936 292.39 62.1561 292.39 62.1561Z" fill="#F9CEB6"/>
<path d="M293.081 55.8066C293.157 54.3028 293.422 52.8145 293.868 51.3766C294.274 49.9058 294.959 48.527 295.886 47.3158C296.137 46.9866 296.436 46.6964 296.772 46.4544C296.996 46.2827 297.278 46.2035 297.559 46.2329C297.647 46.2088 297.741 46.2088 297.83 46.2329C297.919 46.2786 297.995 46.3464 298.051 46.4298C298.141 46.5564 298.208 46.6981 298.248 46.8482C298.309 47.2643 298.309 47.6872 298.248 48.1033C298.248 48.4971 298.1 48.8663 298.002 49.2354C297.62 50.6824 297.032 52.0667 296.255 53.3455C296.706 51.9524 297.059 50.5298 297.313 49.0878C297.447 48.4218 297.447 47.7356 297.313 47.0697C297.313 47.0697 297.313 47.0697 297.116 47.1927C296.857 47.3905 296.625 47.6223 296.427 47.8818C295.561 48.996 294.88 50.2425 294.41 51.5735C293.991 52.9517 293.524 54.3545 293.081 55.8066Z" fill="#EFB68F"/>
<path d="M294.314 35.9004C294.602 34.9508 292.959 33.6121 290.644 32.9104C288.329 32.2087 286.22 32.4096 285.932 33.3592C285.644 34.3088 287.288 35.6475 289.602 36.3492C291.917 37.0509 294.027 36.8499 294.314 35.9004Z" fill="#BA854D"/>
<path d="M283.693 33.1215C283.839 32.6402 282.819 31.9049 281.414 31.4791C280.01 31.0534 278.753 31.0984 278.607 31.5797C278.461 32.061 279.482 32.7963 280.886 33.2221C282.291 33.6478 283.547 33.6028 283.693 33.1215Z" fill="#BA854D"/>
<path d="M435.367 197.11V200.999C435.367 204.55 433.957 207.955 431.447 210.466C428.936 212.977 425.532 214.387 421.982 214.387H79.6468C76.0948 214.387 72.6879 212.977 70.1739 210.467C67.6599 207.957 66.2443 204.552 66.2378 200.999V197.11C66.2443 193.557 67.6599 190.152 70.1739 187.642C72.6879 185.131 76.0948 183.722 79.6468 183.722H421.982C425.532 183.722 428.936 185.132 431.447 187.643C433.957 190.154 435.367 193.559 435.367 197.11Z" fill="#7D4E24"/>
<path d="M238.647 89.4248L234.272 116.62L231.812 124.815C231.812 124.815 219.067 147.187 203.837 146.768C192.864 146.448 159.231 104.929 159.231 104.929L169.392 96.5616C169.392 96.5616 179.824 102.493 209.865 120.853C223.57 97.2999 238.647 89.4248 238.647 89.4248Z" fill="#008D49"/>
<g style="mix-blend-mode:multiply">
<path d="M234.312 116.619L231.851 124.814C231.851 124.814 219.107 147.186 203.877 146.767C192.904 146.448 159.271 104.929 159.271 104.929L161.534 103.058C164.339 111.844 195.979 139.556 206.977 139.975C218.615 140.344 233.401 118.022 234.312 116.619Z" fill="#C6C6C6"/>
</g>
<path d="M171.513 96.3023C169.612 97.9042 167.828 99.6396 166.174 101.495C164.907 102.871 163.74 104.335 162.68 105.876C161.632 107.4 160.663 108.977 159.777 110.601L154.979 100.191L157.022 97.7297L161.622 91.9707L171.513 96.3023Z" fill="#F6F6F6"/>
<path d="M162.68 105.875C161.632 107.399 160.663 108.977 159.777 110.601L154.979 100.19L157.022 97.729L162.68 105.875Z" fill="#DADADA"/>
<path d="M164.015 90.2973C163.4 89.4113 162.022 73.0695 158.848 73.1926C152.746 73.3895 158.38 80.0099 155.969 80.379C153.558 80.7482 150.335 69.747 145.045 76.8843C139.756 84.0215 156.338 96.4009 156.338 96.4009L164.015 90.2973Z" fill="#BE1622"/>
<path d="M268.675 109.028C270.673 109.028 272.292 107.408 272.292 105.41C272.292 103.412 270.673 101.792 268.675 101.792C266.678 101.792 265.059 103.412 265.059 105.41C265.059 107.408 266.678 109.028 268.675 109.028Z" fill="#3C3C3B"/>
<path d="M269.856 105.41C269.846 106.161 269.604 106.89 269.164 107.498C268.724 108.106 268.106 108.563 267.396 108.807C267.801 108.944 268.224 109.018 268.651 109.028C269.555 108.953 270.399 108.541 271.013 107.873C271.628 107.205 271.969 106.33 271.969 105.423C271.969 104.515 271.628 103.64 271.013 102.972C270.399 102.304 269.555 101.892 268.651 101.817C268.223 101.814 267.797 101.889 267.396 102.038C268.106 102.274 268.725 102.726 269.166 103.33C269.607 103.935 269.848 104.662 269.856 105.41Z" fill="#2D2D2C"/>
<path d="M268.652 120.645C270.65 120.645 272.269 119.026 272.269 117.028C272.269 115.029 270.65 113.41 268.652 113.41C266.655 113.41 265.036 115.029 265.036 117.028C265.036 119.026 266.655 120.645 268.652 120.645Z" fill="#3C3C3B"/>
<path d="M269.833 117.027C269.825 117.776 269.584 118.503 269.143 119.107C268.702 119.712 268.083 120.163 267.373 120.399C267.767 120.546 268.183 120.621 268.603 120.621C269.108 120.691 269.622 120.654 270.112 120.511C270.601 120.369 271.055 120.124 271.443 119.794C271.832 119.464 272.146 119.056 272.366 118.595C272.585 118.135 272.705 117.634 272.717 117.124C272.729 116.614 272.634 116.108 272.437 115.637C272.239 115.167 271.945 114.744 271.573 114.396C271.201 114.047 270.759 113.782 270.277 113.616C269.795 113.45 269.283 113.388 268.775 113.434C268.357 113.446 267.942 113.521 267.545 113.656C268.221 113.923 268.801 114.387 269.209 114.989C269.617 115.59 269.835 116.3 269.833 117.027Z" fill="#2D2D2C"/>
<path d="M380.598 181.606H325.265C324.014 181.606 323.001 182.62 323.001 183.87V183.895C323.001 185.145 324.014 186.159 325.265 186.159H380.598C381.848 186.159 382.862 185.145 382.862 183.895V183.87C382.862 182.62 381.848 181.606 380.598 181.606Z" fill="#00712F"/>
<path d="M377.794 177.029H322.46C321.21 177.029 320.197 178.043 320.197 179.294V179.318C320.197 180.569 321.21 181.582 322.46 181.582H377.794C379.044 181.582 380.058 180.569 380.058 179.318V179.294C380.058 178.043 379.044 177.029 377.794 177.029Z" fill="#E4BB10"/>
<path d="M435.372 197.111V197.579H66.3169V197.111C66.3234 193.558 67.739 190.153 70.253 187.643C72.767 185.132 76.1739 183.723 79.7259 183.723H421.988C425.537 183.723 428.942 185.133 431.452 187.644C433.962 190.155 435.372 193.56 435.372 197.111Z" fill="#683C11"/>
<path d="M379.371 168.734H324.037C322.787 168.734 321.773 169.748 321.773 170.998V171.023C321.773 172.273 322.787 173.287 324.037 173.287H379.371C380.621 173.287 381.634 172.273 381.634 171.023V170.998C381.634 169.748 380.621 168.734 379.371 168.734Z" fill="#4AA256"/>
<path d="M380.598 173.288H325.265C324.014 173.288 323.001 174.302 323.001 175.552V175.577C323.001 176.827 324.014 177.841 325.265 177.841H380.598C381.848 177.841 382.862 176.827 382.862 175.577V175.552C382.862 174.302 381.848 173.288 380.598 173.288Z" fill="#008D49"/>
<path d="M203.136 161.574V183.921C203.136 184.221 203.017 184.509 202.805 184.721C202.593 184.934 202.305 185.053 202.005 185.053H124.355C124.055 185.053 123.767 184.934 123.555 184.721C123.343 184.509 123.224 184.221 123.224 183.921V161.574C123.224 161.274 123.343 160.986 123.555 160.773C123.767 160.561 124.055 160.442 124.355 160.442H202.005C202.305 160.442 202.593 160.561 202.805 160.773C203.017 160.986 203.136 161.274 203.136 161.574Z" fill="#4AA256"/>
<path d="M187.187 180.035C191.209 180.035 194.47 176.773 194.47 172.75C194.47 168.726 191.209 165.465 187.187 165.465C183.165 165.465 179.904 168.726 179.904 172.75C179.904 176.773 183.165 180.035 187.187 180.035Z" fill="#F7F2E6"/>
<path d="M191.054 165.464C189.869 164.818 188.541 164.479 187.191 164.479C185.841 164.479 184.513 164.818 183.328 165.464C181.696 166.327 180.399 167.712 179.645 169.398C178.891 171.084 178.723 172.973 179.167 174.766C179.612 176.558 180.643 178.151 182.098 179.289C183.552 180.426 185.345 181.045 187.191 181.045C189.037 181.045 190.831 180.426 192.285 179.289C193.739 178.151 194.771 176.558 195.215 174.766C195.659 172.973 195.491 171.084 194.737 169.398C193.983 167.712 192.686 166.327 191.054 165.464ZM187.191 179.074C185.941 179.074 184.718 178.703 183.678 178.008C182.638 177.313 181.828 176.325 181.349 175.17C180.871 174.014 180.746 172.742 180.99 171.515C181.233 170.288 181.836 169.161 182.72 168.277C183.604 167.392 184.731 166.79 185.958 166.546C187.184 166.302 188.456 166.427 189.611 166.906C190.766 167.384 191.754 168.195 192.449 169.235C193.143 170.275 193.514 171.498 193.514 172.749C193.514 174.427 192.848 176.036 191.662 177.222C190.476 178.408 188.868 179.074 187.191 179.074Z" fill="#00712F"/>
<path d="M138.479 164.626H134.075V181.14H138.479V164.626Z" fill="#DADADA"/>
<g style="mix-blend-mode:multiply">
<path d="M203.136 161.574V165.463H123.224V161.574C123.224 161.274 123.343 160.986 123.555 160.773C123.767 160.561 124.055 160.442 124.355 160.442H202.005C202.305 160.442 202.593 160.561 202.805 160.773C203.017 160.986 203.136 161.274 203.136 161.574Z" fill="#DADADA"/>
</g>
<path d="M197.742 135.805H121.274C120.322 135.805 119.551 136.576 119.551 137.528V158.694C119.551 159.645 120.322 160.416 121.274 160.416H197.742C198.693 160.416 199.464 159.645 199.464 158.694V137.528C199.464 136.576 198.693 135.805 197.742 135.805Z" fill="#E4BB10"/>
<path d="M134.947 154.657C138.48 154.657 141.344 151.792 141.344 148.258C141.344 144.724 138.48 141.859 134.947 141.859C131.414 141.859 128.55 144.724 128.55 148.258C128.55 151.792 131.414 154.657 134.947 154.657Z" fill="#F7F2E6"/>
<path d="M134.95 141.023C133.52 141.023 132.121 141.447 130.932 142.242C129.742 143.037 128.815 144.168 128.267 145.49C127.72 146.812 127.577 148.267 127.856 149.67C128.135 151.074 128.824 152.363 129.835 153.375C130.847 154.387 132.136 155.076 133.539 155.355C134.942 155.634 136.397 155.491 137.718 154.944C139.04 154.396 140.17 153.468 140.965 152.279C141.76 151.089 142.184 149.69 142.184 148.259C142.184 146.34 141.422 144.499 140.065 143.142C138.709 141.785 136.869 141.023 134.95 141.023ZM134.95 153.796C133.855 153.796 132.785 153.471 131.875 152.863C130.964 152.254 130.255 151.39 129.836 150.378C129.417 149.366 129.307 148.252 129.521 147.178C129.734 146.104 130.262 145.117 131.036 144.343C131.81 143.569 132.796 143.041 133.87 142.828C134.944 142.614 136.057 142.724 137.069 143.143C138.08 143.562 138.945 144.272 139.553 145.182C140.161 146.093 140.486 147.163 140.486 148.259C140.486 149.727 139.903 151.136 138.865 152.174C137.827 153.213 136.418 153.796 134.95 153.796Z" fill="#E83D3E"/>
<path d="M184.212 156.504H188.616V139.99H184.212V156.504Z" fill="#DADADA"/>
<path d="M180.199 128.198V135.827H138.028V128.198C138.026 124.402 139.049 120.676 140.989 117.414C142.93 114.152 145.715 111.475 149.051 109.666V106.958C149.047 106.802 149.076 106.647 149.134 106.502C149.192 106.358 149.279 106.226 149.389 106.116C149.5 106.005 149.631 105.918 149.776 105.86C149.921 105.802 150.076 105.774 150.232 105.777C150.387 105.777 150.54 105.808 150.684 105.867C150.827 105.926 150.957 106.013 151.067 106.123C151.176 106.233 151.263 106.363 151.323 106.506C151.382 106.65 151.413 106.803 151.413 106.958V108.509C153.873 107.538 156.493 107.037 159.138 107.032C161.044 107.03 162.94 107.295 164.772 107.82C165.774 108.099 166.752 108.453 167.7 108.878V107.278C167.7 106.952 167.83 106.639 168.061 106.408C168.291 106.177 168.604 106.048 168.931 106.048C169.257 106.048 169.57 106.177 169.8 106.408C170.031 106.639 170.161 106.952 170.161 107.278V110.133C173.249 112.023 175.797 114.679 177.556 117.844C179.315 121.01 180.226 124.576 180.199 128.198Z" fill="#E62236"/>
<path d="M159.559 132.358C164.098 132.358 167.777 128.678 167.777 124.138C167.777 119.598 164.098 115.918 159.559 115.918C155.021 115.918 151.342 119.598 151.342 124.138C151.342 128.678 155.021 132.358 159.559 132.358Z" fill="#E83D3E"/>
<path d="M159.56 132.975C157.812 132.975 156.104 132.456 154.65 131.484C153.197 130.512 152.065 129.131 151.398 127.515C150.73 125.899 150.556 124.121 150.899 122.407C151.242 120.692 152.086 119.118 153.323 117.883C154.561 116.649 156.137 115.809 157.852 115.471C159.567 115.133 161.344 115.311 162.957 115.984C164.571 116.656 165.949 117.793 166.916 119.249C167.884 120.705 168.398 122.416 168.393 124.164C168.386 126.503 167.453 128.744 165.797 130.396C164.141 132.048 161.899 132.975 159.56 132.975ZM159.56 116.559C158.057 116.559 156.587 117.005 155.336 117.841C154.086 118.677 153.112 119.864 152.536 121.254C151.961 122.644 151.81 124.173 152.104 125.648C152.397 127.123 153.121 128.478 154.184 129.542C155.248 130.605 156.602 131.329 158.077 131.623C159.552 131.916 161.08 131.766 162.47 131.19C163.859 130.615 165.046 129.64 165.882 128.389C166.717 127.139 167.163 125.668 167.163 124.164C167.163 122.147 166.362 120.213 164.936 118.787C163.51 117.361 161.577 116.559 159.56 116.559Z" fill="#F7F2E6"/>
<g style="mix-blend-mode:multiply">
<path d="M180.198 128.199V135.829L171.955 135.582C171.955 135.582 173.727 124.163 170.356 115.894C169.046 112.831 167.149 110.055 164.771 107.723C165.772 108.002 166.751 108.356 167.699 108.781V107.181C167.699 106.855 167.828 106.542 168.059 106.311C168.29 106.08 168.603 105.951 168.929 105.951C169.255 105.951 169.568 106.08 169.799 106.311C170.03 106.542 170.159 106.855 170.159 107.181V110.036C173.262 111.934 175.819 114.606 177.579 117.79C179.339 120.974 180.241 124.561 180.198 128.199Z" fill="#DADADA"/>
</g>
<path d="M176.436 97.0169H176.288C172.619 96.7594 168.935 96.7594 165.266 97.0169C162.239 97.2184 159.231 97.6295 156.261 98.2475C153.386 98.8685 150.557 99.6909 147.797 100.709L146.223 101.299L145.091 101.742C140.17 103.711 136.529 105.631 136.529 105.631C136.529 105.631 136.529 105.139 136.406 104.892C136.394 104.844 136.394 104.793 136.406 104.745C136.329 104.265 136.288 103.779 136.283 103.293C136.287 101.123 136.944 99.0049 138.168 97.2139C139.392 95.423 141.127 94.0422 143.147 93.2514C146.824 91.785 150.577 90.5198 154.391 89.4613C157.828 88.5745 161.35 88.0548 164.897 87.9108C166.999 87.8162 169.086 88.3124 170.921 89.3433C172.756 90.3742 174.266 91.8985 175.28 93.7437C175.719 94.5241 176.073 95.3491 176.337 96.2048L176.436 97.0169Z" fill="#E62236"/>
<path d="M143.024 107.526C139.727 108.265 136.775 107.526 136.405 105.803C136.356 105.551 136.356 105.292 136.405 105.04V104.745C137.01 103.62 137.996 102.747 139.186 102.284C139.972 101.927 140.798 101.662 141.646 101.496C142.712 101.262 143.805 101.179 144.894 101.25C145.327 101.29 145.756 101.372 146.173 101.496C147.305 101.816 148.092 102.407 148.264 103.244C148.683 104.868 146.296 106.812 143.024 107.526Z" fill="#E62236"/>
<path d="M176.286 96.4037C176.335 96.5892 176.335 96.7842 176.286 96.9697C175.966 98.2987 173.826 99.7262 170.947 100.341C167.65 101.08 164.722 100.341 164.402 98.9632C164.373 98.5967 164.437 98.2287 164.587 97.8932C164.738 97.5577 164.97 97.2655 165.263 97.0435C166.561 95.9728 168.111 95.2526 169.766 94.9516C172.989 94.2379 175.868 94.8285 176.261 96.2806L176.286 96.4037Z" fill="#E62236"/>
<path d="M148.318 103.196L145.514 103.787L145.095 101.892L144.948 101.203L144.702 100.071L147.482 99.4556L147.802 100.858L148.318 103.196Z" fill="#E62236"/>
<g style="mix-blend-mode:multiply">
<path d="M176.436 97.0161H176.288C175.968 98.3451 173.828 99.7725 170.949 100.388C167.652 101.126 164.724 100.388 164.404 99.0096C164.375 98.643 164.439 98.275 164.59 97.9395C164.74 97.6041 164.972 97.3119 165.266 97.0899C162.239 97.2913 159.23 97.7025 156.261 98.3205C153.385 98.9415 150.557 99.7639 147.797 100.782L148.314 103.243C148.683 104.916 146.296 106.861 143.024 107.574C139.752 108.288 136.775 107.574 136.405 105.851C136.356 105.6 136.356 105.34 136.405 105.089C136.394 105.04 136.394 104.989 136.405 104.941V104.793C137.237 103.871 138.169 103.045 139.186 102.332C145.091 98.0743 161.083 94.7026 165.758 94.1366C168.909 93.6678 172.1 93.5358 175.279 93.7428C175.718 94.5232 176.073 95.3483 176.337 96.2039L176.436 97.0161Z" fill="#DADADA"/>
</g>
<path d="M417.699 179.195V186.824H375.503V179.195C375.501 175.399 376.524 171.673 378.465 168.411C380.405 165.149 383.19 162.472 386.526 160.663V157.98C386.522 157.824 386.551 157.669 386.609 157.524C386.667 157.379 386.754 157.248 386.864 157.137C386.975 157.027 387.106 156.94 387.251 156.882C387.396 156.823 387.551 156.795 387.707 156.799C388.02 156.799 388.32 156.923 388.542 157.145C388.763 157.366 388.888 157.667 388.888 157.98V159.555C391.348 158.584 393.969 158.083 396.613 158.078C398.519 158.076 400.416 158.341 402.248 158.866C403.249 159.145 404.227 159.499 405.175 159.924V158.324C405.175 157.998 405.305 157.685 405.536 157.454C405.766 157.224 406.079 157.094 406.406 157.094C406.732 157.094 407.045 157.224 407.275 157.454C407.506 157.685 407.636 157.998 407.636 158.324V161.179C410.722 163.061 413.27 165.709 415.033 168.865C416.796 172.021 417.714 175.579 417.699 179.195Z" fill="#005EAA"/>
<path d="M397.028 183.403C401.567 183.403 405.246 179.723 405.246 175.183C405.246 170.643 401.567 166.963 397.028 166.963C392.49 166.963 388.811 170.643 388.811 175.183C388.811 179.723 392.49 183.403 397.028 183.403Z" fill="#1D4C91"/>
<path d="M397.03 184.02C395.283 184.02 393.575 183.502 392.122 182.531C390.67 181.56 389.538 180.18 388.869 178.566C388.201 176.951 388.026 175.175 388.366 173.461C388.707 171.747 389.549 170.173 390.784 168.937C392.019 167.701 393.593 166.86 395.306 166.519C397.02 166.178 398.796 166.353 400.41 167.022C402.024 167.69 403.403 168.823 404.374 170.276C405.344 171.729 405.862 173.437 405.862 175.185C405.862 176.345 405.634 177.494 405.19 178.566C404.746 179.638 404.095 180.612 403.275 181.432C402.455 182.253 401.481 182.903 400.41 183.347C399.338 183.791 398.189 184.02 397.03 184.02ZM397.03 167.58C395.526 167.58 394.056 168.026 392.806 168.861C391.556 169.697 390.581 170.885 390.006 172.274C389.43 173.664 389.28 175.193 389.573 176.668C389.866 178.143 390.59 179.498 391.654 180.562C392.717 181.626 394.072 182.35 395.546 182.643C397.021 182.937 398.55 182.786 399.939 182.21C401.328 181.635 402.515 180.66 403.351 179.41C404.186 178.159 404.632 176.689 404.632 175.185C404.632 173.168 403.831 171.233 402.405 169.807C400.98 168.381 399.046 167.58 397.03 167.58Z" fill="#F7F2E6"/>
<g style="mix-blend-mode:multiply">
<path d="M417.699 179.196V186.826L409.432 186.604C409.432 186.604 411.203 175.185 407.833 166.916C406.523 163.853 404.625 161.077 402.248 158.745C403.249 159.024 404.227 159.377 405.175 159.803V158.203C405.175 157.877 405.305 157.564 405.536 157.333C405.766 157.102 406.079 156.973 406.406 156.973C406.732 156.973 407.045 157.102 407.275 157.333C407.506 157.564 407.636 157.877 407.636 158.203V161.058C410.74 162.951 413.299 165.617 415.063 168.797C416.827 171.977 417.735 175.56 417.699 179.196Z" fill="#DADADA"/>
</g>
<g style="mix-blend-mode:multiply">
<path d="M199.466 137.553V158.694C199.466 159.15 199.284 159.589 198.961 159.912C198.638 160.235 198.2 160.416 197.743 160.416H176.436C176.436 158.595 176.609 155.494 176.707 150.572C176.743 145.62 176.315 140.677 175.428 135.805H197.743C197.972 135.805 198.198 135.851 198.408 135.939C198.619 136.027 198.81 136.156 198.97 136.318C199.13 136.481 199.257 136.674 199.342 136.886C199.427 137.098 199.469 137.324 199.466 137.553Z" fill="#DADADA"/>
</g>
<path d="M131.462 98.3205C131.312 98.3149 131.168 98.2542 131.059 98.1498C130.951 98.0455 130.884 97.9047 130.872 97.7544C130.855 96.4819 131.094 95.219 131.575 94.0407C132.056 92.8624 132.768 91.7928 133.67 90.8952C134.572 89.9976 135.645 89.2905 136.825 88.8157C138.005 88.3409 139.269 88.1083 140.541 88.1314C140.631 88.1133 140.723 88.1152 140.811 88.1371C140.9 88.159 140.982 88.2003 141.053 88.258C141.123 88.3157 141.18 88.3884 141.219 88.4708C141.258 88.5532 141.279 88.6432 141.279 88.7344C141.279 88.8256 141.258 88.9156 141.219 88.998C141.18 89.0804 141.123 89.1531 141.053 89.2108C140.982 89.2685 140.9 89.3098 140.811 89.3317C140.723 89.3536 140.631 89.3555 140.541 89.3374C139.433 89.2919 138.329 89.4885 137.305 89.9135C136.281 90.3386 135.362 90.9818 134.612 91.7985C133.815 92.5485 133.184 93.4573 132.761 94.4662C132.337 95.4752 132.129 96.5618 132.151 97.6559C132.165 97.736 132.162 97.8183 132.142 97.897C132.121 97.9757 132.084 98.0491 132.033 98.1122C131.981 98.1752 131.917 98.2265 131.844 98.2624C131.771 98.2984 131.691 98.3182 131.61 98.3205H131.462Z" fill="#E83D3E"/>
<path d="M128.139 92.4899C128.014 92.4912 127.893 92.447 127.797 92.3655C127.702 92.284 127.64 92.1708 127.622 92.0469C127.607 90.9899 127.819 89.942 128.243 88.9739C128.668 88.0058 129.295 87.1402 130.083 86.4356C130.837 85.654 131.75 85.0431 132.76 84.644C133.77 84.2449 134.854 84.067 135.938 84.1221C136.071 84.1405 136.192 84.2099 136.274 84.3155C136.357 84.4211 136.395 84.5548 136.381 84.6882C136.363 84.821 136.294 84.9415 136.188 85.0242C136.082 85.1068 135.949 85.1452 135.815 85.1312C134.901 85.0965 133.989 85.2562 133.141 85.5999C132.293 85.9435 131.527 86.4632 130.895 87.1247C130.217 87.7471 129.683 88.51 129.33 89.3601C128.977 90.2103 128.814 91.1272 128.853 92.0469C128.859 92.1116 128.853 92.177 128.835 92.2393C128.816 92.3017 128.785 92.3597 128.744 92.41C128.703 92.4604 128.652 92.5021 128.595 92.5327C128.537 92.5633 128.474 92.5822 128.41 92.5883L128.139 92.4899Z" fill="#E83D3E"/>
<path d="M299.326 91.3835L306.043 119.859L308.503 128.054C308.503 128.054 321.248 150.426 336.478 150.007C347.451 149.687 364.304 90.6943 364.304 90.6943L362.041 88.8239L354.192 82.4004C354.192 82.4004 348.927 85.6983 330.499 124.239C316.77 100.588 299.326 91.3835 299.326 91.3835Z" fill="#008D49"/>
<g style="mix-blend-mode:multiply">
<path d="M306.095 119.931L308.556 128.126C308.556 128.126 321.3 150.498 336.53 150.079C347.503 149.759 364.357 90.7664 364.357 90.7664L362.093 88.896C359.288 97.6822 344.305 143.04 333.43 143.287C321.792 143.631 307.006 121.309 306.095 119.931Z" fill="#C6C6C6"/>
</g>
<path d="M349.864 84.5652C352.2 85.4516 354.469 86.5044 356.654 87.7154C358.297 88.5961 359.875 89.5912 361.378 90.6933C362.875 91.7799 364.313 92.9465 365.684 94.1881L366.791 82.7932L364.035 81.0704L357.786 77.1572L349.864 84.5652Z" fill="#F6F6F6"/>
<path d="M361.352 90.6937C362.849 91.7803 364.286 92.9469 365.657 94.1885L366.764 82.7936L364.009 81.0708L361.352 90.6937Z" fill="#DADADA"/>
<path d="M357.762 78.7826C358.131 77.7735 355.301 61.5548 358.328 60.9395C364.257 59.5367 360.542 67.3876 362.953 67.1415C365.364 66.8954 365.66 55.3774 372.622 60.9395C379.585 66.5016 366.767 82.6957 366.767 82.6957L357.762 78.7826Z" fill="#BE1622"/>
<path d="M374.958 87.2727V87.1496C373.865 83.6384 372.524 80.2089 370.948 76.8868C369.672 74.1318 368.208 71.4676 366.568 68.9128C364.929 66.4595 363.12 64.1239 361.155 61.9232L360.048 60.668L359.236 59.7574C355.644 55.9181 352.544 53.1617 352.544 53.1617C352.748 53.0161 352.962 52.8846 353.184 52.7679H353.307C353.729 52.5299 354.164 52.3162 354.611 52.128C356.639 51.3557 358.853 51.2127 360.964 51.7175C363.075 52.2224 364.985 53.3517 366.445 54.9583C369.137 57.8598 371.667 60.908 374.023 64.089C376.072 66.9881 377.819 70.0888 379.239 73.3428C380.068 75.2598 380.35 77.3687 380.054 79.4363C379.759 81.5038 378.898 83.4493 377.566 85.0577C376.972 85.7505 376.313 86.3851 375.598 86.9527L374.958 87.2727Z" fill="#005EAA"/>
<path d="M353.187 59.8561C351.317 57.0258 350.997 53.9986 352.424 53.0388C352.645 52.9088 352.886 52.8173 353.138 52.7681H353.458C354.724 52.9388 355.891 53.5484 356.755 54.4908C357.348 55.071 357.876 55.7148 358.329 56.4105C358.946 57.3012 359.442 58.2694 359.805 59.29C359.923 59.7163 359.997 60.1533 360.027 60.5944C360.109 61.0463 360.07 61.5119 359.915 61.944C359.759 62.3762 359.492 62.7596 359.141 63.0555C357.689 64.2122 355.032 62.6371 353.187 59.8561Z" fill="#005EAA"/>
<path d="M375.478 86.9282C375.325 87.0375 375.147 87.1053 374.961 87.1251C373.608 87.2974 371.492 85.7961 369.892 83.335C368.293 80.8739 367.58 77.576 368.834 76.7392C369.169 76.5789 369.538 76.5061 369.908 76.5276C370.278 76.5491 370.637 76.6643 370.95 76.8623C372.418 77.682 373.648 78.8694 374.518 80.3079C376.339 83.0643 376.806 85.9684 375.601 86.8544L375.478 86.9282Z" fill="#005EAA"/>
<path d="M359.117 63.2265L357.567 60.8146L359.191 59.7563L359.782 59.3625L360.741 58.7227L362.316 61.1099L361.135 61.9221L359.117 63.2265Z" fill="#005EAA"/>
<g style="mix-blend-mode:multiply">
<path d="M374.961 87.2729V87.1498C373.608 87.3221 371.492 85.8208 369.893 83.3597C368.294 80.8986 367.58 77.6007 368.835 76.7639C369.169 76.6036 369.539 76.5308 369.909 76.5523C370.279 76.5738 370.637 76.689 370.951 76.887C369.675 74.132 368.212 71.4678 366.571 68.913C364.932 66.4597 363.124 64.1241 361.159 61.9234L359.166 63.2278C357.739 64.1876 355.081 62.6371 353.236 59.8561C351.391 57.075 351.046 53.9986 352.473 53.0388C352.694 52.9088 352.936 52.8173 353.187 52.7681H353.31H353.482C354.642 53.2166 355.748 53.7945 356.779 54.4908C362.856 58.4778 371.738 72.1862 374.002 76.3701C375.474 79.1041 376.661 81.9823 377.545 84.9594C376.95 85.6523 376.291 86.2868 375.576 86.8544L374.961 87.2729Z" fill="#DADADA"/>
</g>
<path d="M373.786 58.303C372.742 57.4754 371.456 57.0108 370.124 56.9797C368.792 56.9486 367.486 57.3527 366.405 58.1307C363.157 60.7395 366.036 65.9817 370.046 66.6216C371.767 67.114 373.591 67.114 375.311 66.6216C375.311 66.6216 376.517 60.2227 373.786 58.303Z" fill="#E62236"/>
<path d="M376.787 84.5889C376.787 84.5889 377.599 104.77 383.996 99.3555C387.047 96.8944 380.256 87.9114 376.221 96.8944C371.424 107.428 383.037 113.458 385.694 110.012C388.351 106.567 375.286 103.293 374.72 113.95C374.351 121.136 376.763 125.025 382.102 123.327C387.441 121.629 385.546 115.279 379.641 120.866C373.736 126.452 376.394 139.545 381.437 135.312C384.587 132.679 373.933 127.929 372.088 138.143C369.259 153.845 382.052 156.552 382.372 152.909C382.938 146.658 373.736 152.762 372.26 159.456C370.784 166.15 379.223 166.839 379.223 166.839" stroke="#1D4C91" stroke-width="0.720833" stroke-miterlimit="10"/>
<path d="M228.352 294.176C228.352 294.176 232.264 299.665 243.926 300.501C255.588 301.338 259.746 297.277 259.746 297.277L255.195 326.614L233.199 325.186L228.352 294.176Z" fill="#4AA256"/>
<path d="M229.603 330.676C229.972 330.676 233.588 319.183 233.588 319.183H256.125L258.586 332.546L229.603 330.676Z" fill="#008D49"/>
<path d="M229.684 332.47C228.823 331.337 236.032 315.906 244.052 316.079C250.917 316.251 258.544 332.47 258.544 332.47C258.544 332.47 257.019 337.736 244.052 337.392C231.086 337.047 229.684 332.47 229.684 332.47Z" fill="#83C06D"/>
<path d="M243.139 319.232C245.816 319.232 247.986 317.061 247.986 314.384C247.986 311.706 245.816 309.535 243.139 309.535C240.462 309.535 238.292 311.706 238.292 314.384C238.292 317.061 240.462 319.232 243.139 319.232Z" fill="#BE1622"/>
<path d="M286.661 292.75C286.661 292.75 290.573 298.238 302.211 299.075C313.848 299.911 318.031 295.851 318.031 295.851L313.479 325.089L291.508 323.686L286.661 292.75Z" fill="#4AA256"/>
<path d="M287.917 329.248C288.261 329.248 291.878 317.73 291.878 317.73H314.415L316.875 331.094L287.917 329.248Z" fill="#008D49"/>
<path d="M287.993 331.093C287.132 329.961 294.316 314.555 302.337 314.727C309.226 314.875 316.853 331.093 316.853 331.093C316.853 331.093 315.303 336.36 302.337 336.016C289.37 335.671 287.993 331.093 287.993 331.093Z" fill="#83C06D"/>
<path d="M301.43 317.78C304.107 317.78 306.277 315.609 306.277 312.931C306.277 310.254 304.107 308.083 301.43 308.083C298.754 308.083 296.583 310.254 296.583 312.931C296.583 315.609 298.754 317.78 301.43 317.78Z" fill="#BE1622"/>
<path d="M233.201 256.842C233.836 257.588 234.702 258.099 235.662 258.294C236.598 258.563 237.552 258.769 238.516 258.91C240.459 259.18 242.428 259.353 244.42 259.5C246.413 259.648 248.382 259.796 250.35 259.845C252.313 260.046 254.295 259.741 256.107 258.959C255.525 259.867 254.661 260.559 253.647 260.928C252.654 261.315 251.623 261.596 250.571 261.765C246.398 262.367 242.143 262.022 238.122 260.755C237.101 260.417 236.126 259.954 235.219 259.377C234.718 259.127 234.278 258.771 233.929 258.333C233.581 257.895 233.332 257.386 233.201 256.842Z" fill="#BE1622"/>
<path d="M289.713 258.367C290.348 259.113 291.214 259.624 292.173 259.819C293.107 260.091 294.062 260.289 295.027 260.41C296.971 260.681 298.939 260.878 300.932 261.025C302.925 261.173 304.893 261.321 306.862 261.37C308.824 261.54 310.798 261.236 312.619 260.484C312.037 261.392 311.172 262.084 310.159 262.453C309.166 262.84 308.135 263.121 307.083 263.289C302.91 263.892 298.655 263.547 294.634 262.28C293.613 261.942 292.638 261.479 291.73 260.902C291.233 260.648 290.795 260.291 290.447 259.853C290.099 259.416 289.849 258.909 289.713 258.367Z" fill="#BE1622"/>
</svg>
