<svg width="438" height="438" viewBox="0 0 438 438" fill="none" xmlns="http://www.w3.org/2000/svg">
<path d="M339.323 420.934C330.43 410.381 321.71 386.786 192.841 401.934C162.277 405.527 118.072 411.814 94.0869 411.814C91.9975 411.814 65.6987 420.122 65.6987 424.752C65.6987 432.075 133.889 438 218 438C302.111 438 344.037 426.565 339.323 420.934Z" fill="white"/>
<path d="M148.889 396.745C148.889 396.745 159.529 406.462 157.282 410.495C155.035 414.527 148.075 416.993 144.48 416.568C140.885 416.143 139.427 417.783 133.427 418.73C127.427 419.677 119.034 416.507 120.127 413.143C121.22 409.778 120.224 405.454 128.022 404.494C135.82 403.535 137.472 406.414 137.472 406.414L139.536 399.126L148.889 396.745Z" fill="#2D2D2C"/>
<path d="M251.84 378.27C251.84 378.27 262.019 378.659 263.1 381.914C264.181 385.169 261.885 393.453 260.136 394.898C258.387 396.344 260.136 408.259 255.788 408.794C251.439 409.328 239.694 409.595 237.896 405.684C236.098 401.773 233.572 398.652 237.896 394.631C242.22 390.611 246.241 392.578 246.241 392.578L247.152 385.667L251.84 378.27Z" fill="#2D2D2C"/>
<path d="M151.61 398.955H139.597L127.257 385.655C127.257 385.655 136.111 385.983 141.674 387.805C143.788 388.497 145.428 389.408 145.938 390.587C147.413 393.637 149.324 396.456 151.61 398.955Z" fill="#F6F6F6"/>
<path d="M177.833 237.956C174.071 248.592 169.008 258.722 162.76 268.115C150.613 285.994 125.106 292.007 124.56 292.25C144.486 280.815 160.019 263.046 168.687 241.77C176.679 222.505 177.833 194.071 176.91 178.9L181.44 178.633C181.44 178.633 184.708 218.898 177.833 237.956Z" fill="#EDEDED"/>
<path d="M395.968 204.335C392.639 208.307 387.817 210.541 382.898 212.303C379.607 213.517 376.279 214.453 373.303 215.606C368.748 217.368 365.055 219.542 363.744 223.502C361.169 231.251 359.48 240.336 355.763 247.066C354.589 249.299 353.021 251.303 351.136 252.981C349.739 254.152 348.243 255.2 346.666 256.115C337.52 261.641 322.507 267.265 322.507 267.265L287.915 260.815C287.915 260.815 266.768 250.26 248.767 246.713C245.028 245.913 241.21 245.538 237.386 245.596C231.313 245.79 218.244 242.705 203.377 238.429C201.7 237.956 200.012 237.458 198.299 236.948C167.873 227.959 132.37 215.206 132.37 215.206C132.37 215.206 174.116 74.7575 183.517 67.9434C195.919 58.9551 234.605 49.3473 238.844 43.5778C243.083 37.8083 268.189 28.9294 278.926 28.2006C289.117 27.4961 315.936 43.2985 319.009 44.9018C321.437 45.8747 323.968 46.5714 326.552 46.9788C330.196 47.7198 334.508 48.5214 338.819 49.6996C345.075 51.4001 351.269 53.8658 355.168 57.9956C364.229 67.6033 368.796 73.142 371.797 78.535C374.797 83.928 393.563 112.703 392.64 124.339C392.335 128.593 392.469 132.866 393.04 137.093C394.539 147.807 398.125 158.124 403.595 167.458C412.584 183.066 404.98 193.646 395.968 204.335Z" fill="#CBBBA0"/>
<path d="M255.787 378.902L249.338 383.955L247.151 385.655L236.706 376.861L242.985 373.472L247.783 370.885L255.787 378.902Z" fill="#F6F6F6"/>
<path d="M255.788 378.902L249.338 383.955L241.358 376.339L242.986 373.472L247.783 370.885L255.788 378.902Z" fill="#C6C6C6"/>
<path d="M151.61 398.956H147.735L140.897 388.109L141.626 387.805C143.739 388.498 145.379 389.409 145.889 390.587C147.379 393.64 149.306 396.459 151.61 398.956Z" fill="#C6C6C6"/>
<path d="M239.208 342.499C235.394 350.079 247.783 370.885 247.783 370.885L241.346 376.339L238.333 378.902C238.333 378.902 219.847 374.408 199.113 354.209C178.379 334.009 185.424 331.956 185.424 331.956L258.715 292.25C258.715 292.335 258.435 293.052 257.986 294.266C254.792 302.793 242.524 335.904 239.208 342.499Z" fill="#E62236"/>
<path d="M247.784 370.885L241.346 376.339C236.985 373.084 215.074 356.285 211.928 346.362C208.418 335.321 209.292 331.786 209.292 331.786L257.938 294.242C254.78 302.744 242.512 335.879 239.196 342.475C235.394 350.078 247.784 370.885 247.784 370.885Z" fill="#B81829"/>
<path d="M185.34 334.349C185.34 334.349 181.101 337.289 175.623 341.37C170.146 345.451 163.076 350.856 157.951 355.496C146.849 365.541 145.974 390.587 145.974 390.587H131.836C131.836 390.587 102.212 364.63 114.698 332.564C115.748 329.808 117.183 327.215 118.961 324.863C121.11 322.047 123.819 319.706 126.917 317.988C144.565 308.162 170.984 319.822 170.984 319.822L185.34 334.349Z" fill="#E62236"/>
<path d="M113.787 222.663C111.198 223.385 108.546 223.861 105.868 224.084C94.2682 225.299 88.1464 249.92 78.9031 256.017C78.1933 256.496 77.4153 256.864 76.5954 257.11C71.2146 258.677 58.5339 247.393 64.5341 237.518C65.0444 236.683 65.643 235.905 66.3196 235.198C67.1334 234.348 67.8986 233.546 68.6396 232.769C66.4532 227.607 65.0807 220.963 69.9878 217.283C70.7657 216.706 71.6201 216.24 72.5264 215.898C85.8144 210.602 90.357 210.809 102.71 212.06C115.063 213.311 123.82 223.55 123.82 223.55C123.82 223.55 124.974 226.332 113.787 222.663Z" fill="#CBBBA0"/>
<path d="M150.48 326.515C142.84 328.798 121.693 323.09 121.693 323.09C121.693 323.09 119.555 322.069 116.604 314.053C116.052 312.54 115.713 310.958 115.596 309.352C117.249 310.936 119.389 311.912 121.669 312.121C121.777 312.826 121.956 313.518 122.203 314.186C124.11 319.336 125.483 319.992 125.483 319.992C125.483 319.992 139.05 323.636 143.957 322.179C146.386 321.462 146.678 317.32 146.386 313.312C148.041 313.419 149.7 313.419 151.354 313.312C152.355 313.227 153.347 313.056 154.318 312.802C154.719 319.057 154.257 325.397 150.48 326.515Z" fill="#CBA50A"/>
<path d="M194.316 145.923L201.604 124.776L216.434 106.034L224.657 93.3535L241.468 89.5396L228.265 100.143L224.657 116.553L210.932 124.776L206.414 155.834L194.316 145.923Z" fill="#A48A7B"/>
<path d="M395.968 204.335C392.64 208.307 387.818 210.541 382.899 212.303C379.607 213.517 376.279 214.453 373.303 215.607C368.748 217.368 365.056 219.542 363.744 223.502C361.169 231.251 359.481 240.336 355.764 247.066C354.59 249.299 353.022 251.303 351.136 252.981C349.739 254.152 348.244 255.2 346.666 256.115C337.52 261.641 322.508 267.265 322.508 267.265L287.915 260.815C287.915 260.815 266.768 250.26 248.768 246.713L243.618 241.855L260.234 232.138C260.234 232.138 328.945 250.139 328.751 247.296C328.556 244.454 372.963 195.067 374.311 192.82C375.66 190.573 385.401 146.664 385.401 146.664C385.401 146.664 388.79 139.983 392.944 137.141C394.442 147.856 398.028 158.173 403.499 167.507C412.584 183.066 404.981 193.646 395.968 204.335Z" fill="#877366"/>
<path d="M201.98 226.733L173.959 182.459L195.968 145.729L207.75 161.835L219.532 175.961L253.687 176.398L280.919 166.353L302.624 160.754L368.882 128.408L392.592 124.339L392.798 164.3L388.996 194.763L346.946 232.15L333.913 249.726L255.788 234.312L324.305 232.806L309.948 223.55H273.291L244.893 232.854L273.291 207.881C273.291 207.881 286.02 202.452 289.543 201.808C293.065 201.164 316.058 183.941 316.058 183.941L330.391 174.758L314.71 179.945C314.71 179.945 299.758 191.01 295.446 192.261L269.939 199.67L249.411 216.542L234.544 223.55L201.98 226.733Z" fill="#A48A7B"/>
<path d="M64.5332 237.518C64.5332 237.518 85.8256 222.773 94.8988 221.509C103.972 220.246 109.207 221.509 109.207 221.509L105.673 216.542C105.673 216.542 89.0686 221.206 85.0239 223.55C80.9792 225.894 70.9829 231.105 70.9829 231.105L64.5332 237.518Z" fill="#A48A7B"/>
<path d="M201.555 175.791L216.349 159.563L238.14 144.234L257.307 130.254L243.946 144.234C243.946 144.234 245.537 153.951 234.569 157.595C223.601 161.239 230.925 162.806 223.637 161.239C216.349 159.672 201.045 188.666 201.045 188.666L192.895 176.957L201.555 175.791Z" fill="#A48A7B"/>
<path d="M175.173 341.369C169.562 345.511 162.626 350.856 157.5 355.496C146.399 365.541 145.524 390.586 145.524 390.586H143.52C138.176 383.827 133.601 376.494 129.88 368.723C123.102 354.621 119.871 335.236 118.547 324.875C117.976 320.429 117.758 317.587 117.758 317.587L126.503 317.951L170.558 319.785L175.173 341.369Z" fill="#B81829"/>
<path d="M104.458 295.141C104.458 293.55 108.356 290.076 108.356 290.076L114.053 296.027L111.624 303.558C111.624 303.558 104.458 297.91 104.458 295.141Z" fill="#1D1D1B"/>
<path d="M262.954 292.25C257.853 300.546 226.855 341.285 186.846 336.948C146.836 332.612 153.686 326.867 143.957 326.867C143.454 326.864 142.951 326.893 142.451 326.952C141.481 327.069 140.527 327.297 139.609 327.632C132.6 330.061 128.155 337.629 121.547 335.515C113.677 332.989 107.907 327.219 107.907 325.421C107.907 323.624 114.612 316.773 114.612 316.773C114.612 316.773 114.247 316.263 113.701 315.352C111.835 312.247 110.362 308.922 109.316 305.453C108.19 301.765 107.706 297.911 107.883 294.06C108.344 286.432 110.822 277.055 112.632 270.982C113.737 267.338 114.588 264.908 114.588 264.908L201.956 226.732C201.956 226.732 219.981 228.36 233.682 237.956C240.707 242.898 247.218 248.534 253.116 254.778C256.815 258.596 260.112 262.785 262.954 267.277C265.324 271.01 266.583 275.341 266.583 279.763C266.583 284.186 265.324 288.516 262.954 292.25Z" fill="#E62236"/>
<path d="M263.574 281.257C263.574 281.257 231.423 330.608 231.423 310.931C231.423 266.342 195.858 239.729 195.858 239.729L196.211 238.284L201.628 215.777C208.624 214.744 217.685 214.768 226.103 218.947C234.52 223.125 248.136 232.502 259.93 241.017L262.031 264.095L263.574 281.257Z" fill="#C71629"/>
<path d="M127.536 254.693L117.26 291.011C117.26 291.011 90.8054 279.714 81.3799 268.928C80.4264 267.887 79.61 266.728 78.9507 265.479C74.0193 255.507 88.1333 237.445 92.3116 232.392C93.0403 231.53 93.5262 231.056 93.5262 231.056L95.0931 232.149L102.15 237.008L127.536 254.693Z" fill="#A01928"/>
<path d="M95.1417 232.149L92.4209 232.392C88.2061 237.445 74.3837 255.361 79.06 265.478C82.4367 272.766 85.5947 272.536 86.615 273.689C79.7159 254.948 95.3846 245.753 95.3846 245.753L102.235 237.02L95.1417 232.149Z" fill="#E62236"/>
<path d="M100.329 238.344L97.1706 248.183C97.1706 248.183 96.2718 246.665 94.9114 244.818C92.9073 242.086 89.895 238.648 87.2714 238.332C83.8947 237.931 93.7211 228.227 100.329 225.251C102.296 224.364 103.972 224.036 104.944 224.801C109.135 228.008 100.329 238.344 100.329 238.344Z" fill="white"/>
<g style="mix-blend-mode:darken">
<path d="M100.328 238.344L97.1698 248.183C97.1698 248.183 96.271 246.665 94.9106 244.818V243.324C94.9106 242.79 94.9106 242.28 94.9106 241.818C95.1171 238.102 97.8379 230.984 100.279 225.251C102.247 224.364 103.923 224.036 104.895 224.801C109.134 228.008 100.328 238.344 100.328 238.344Z" fill="#DADADA"/>
</g>
<path d="M177.53 249.726C177.53 249.726 152.897 277.48 152.217 289.736C151.931 298.382 152.5 307.036 153.917 315.571L148.488 322.531C148.488 322.531 140.714 314.368 139.986 313.773C139.257 313.178 133.913 297.157 133.913 297.157C133.913 297.157 142.828 278.172 143.921 277.468C145.014 276.763 177.53 249.726 177.53 249.726Z" fill="#C71629"/>
<path d="M114.612 322.53C114.612 322.53 106.425 340.75 150.48 345.609C194.534 350.467 220.187 330.669 220.187 330.669L183.505 313.773L114.612 322.53Z" fill="#A01928"/>
<path d="M262.954 292.25C257.853 300.546 226.856 341.285 186.846 336.948C146.836 332.612 153.687 326.867 143.958 326.867C142.475 326.866 141.003 327.125 139.609 327.632C138.492 326.794 137.496 325.992 136.609 325.203C135.425 324.247 134.343 323.173 133.378 321.996C126.09 312.376 125.337 289.553 125.337 289.553L150.747 272.974C150.747 272.974 142.148 288.351 142.512 303.255C142.719 311.818 144.626 316.494 150.857 319.737C154.136 321.45 158.618 322.762 164.667 324.049C167.096 324.559 169.793 325.069 172.769 325.604C197.061 329.928 236.585 291.958 247.407 277.784C252.266 271.346 253.407 262.479 253.128 254.706C255.579 257.279 257.878 259.992 260.015 262.831C261.23 264.374 262.153 265.832 262.954 267.156C265.349 270.902 266.622 275.256 266.622 279.703C266.622 284.149 265.349 288.503 262.954 292.25Z" fill="white"/>
<path d="M255.788 261.265C249.187 271.982 241.303 281.853 232.309 290.659C228.527 294.332 224.466 297.706 220.163 300.752C196.793 317.186 189.59 317.624 189.59 317.624L168.055 299.404C168.055 299.404 195.506 290.513 213.081 278.318C216.543 275.889 220.187 273.034 223.709 270.095L241.479 253.916L243.641 251.778L249.435 256.321L255.788 261.265Z" fill="#3C3C3B"/>
<path d="M255.788 261.265C255.788 261.265 245.075 280.104 229.758 293.161C229.273 291.837 228.969 287.586 226.649 281.379C225.401 277.967 223.772 274.707 221.791 271.662L241.48 253.916L249.435 256.345L255.788 261.265Z" fill="#2D2D2C"/>
<g style="mix-blend-mode:darken">
<path d="M262.955 292.25C257.853 300.546 226.856 341.284 186.846 336.948C146.836 332.612 153.687 326.867 143.958 326.867C142.475 326.865 141.003 327.124 139.609 327.632C138.492 326.794 137.496 325.992 136.609 325.203L136.002 322.482H146.97L150.808 319.737L153.869 317.563C153.869 317.563 158.387 320.599 164.619 324.049C172.064 328.166 181.976 332.867 189.567 333.644C203.523 335.09 222.483 315.984 232.929 308.635C243.375 301.287 248.792 299.052 257.44 287.148C262.602 280.043 261.606 269.888 259.967 262.855C261.181 264.398 262.104 265.856 262.906 267.18C265.303 270.919 266.581 275.266 266.59 279.708C266.599 284.149 265.337 288.501 262.955 292.25Z" fill="#EDEDED"/>
</g>
<path d="M282.364 259.746V265.248C275.644 266.213 268.848 266.543 262.067 266.232C251.646 265.758 239.463 263.511 231.252 256.649C218.268 245.802 202.842 241.696 196.259 240.36C194.206 239.947 193.016 239.802 193.016 239.802L189.615 221.036C193.492 219.504 197.536 218.436 201.664 217.853C208.66 216.821 217.721 216.845 226.139 221.036C234.556 225.226 248.172 234.591 259.966 243.093C272.197 251.912 282.364 259.746 282.364 259.746Z" fill="#E62236"/>
<path d="M282.364 257.657V263.159C275.644 264.125 268.849 264.458 262.067 264.155C251.646 263.669 239.463 261.435 231.252 254.572C218.268 243.725 202.842 239.62 196.259 238.284C194.206 237.859 193.016 237.713 193.016 237.713L189.615 218.959C193.48 217.43 197.512 216.362 201.627 215.776C203.639 215.47 205.667 215.287 207.701 215.23C214.04 214.935 220.354 216.216 226.078 218.959C234.398 223.101 248.111 232.502 259.905 241.017C268.298 247.09 275.695 252.641 279.533 255.592C281.355 256.88 282.364 257.657 282.364 257.657Z" fill="#C71629"/>
<path d="M279.595 255.556L279.109 258.641C276.015 257.854 272.97 256.889 269.987 255.75C267.339 254.535 240.192 239.656 234.654 233.316C229.115 226.975 207.701 224.388 207.701 224.388C207.701 224.388 208.175 216.226 207.701 215.23C214.041 214.935 220.355 216.216 226.078 218.959C234.399 223.101 248.112 232.502 259.906 241.017C268.36 247.053 275.72 252.701 279.595 255.556Z" fill="#A01928"/>
<path d="M273.291 250.952C273.291 250.952 277.955 253.831 277.092 259.114C276.806 261.615 276.185 264.067 275.246 266.402L288.728 265.443V260.961L273.291 250.952Z" fill="#EDEDED"/>
<path d="M125.337 276.885L124.499 312.923L109.316 305.453C108.19 301.765 107.706 297.911 107.883 294.059C108.344 286.432 110.822 277.055 112.632 270.981L125.337 276.885Z" fill="#C71629"/>
<path d="M143.957 320.38C143.649 322.611 143.145 324.81 142.451 326.952C141.481 327.069 140.527 327.297 139.609 327.632C132.601 330.061 128.155 337.628 121.547 335.515C113.677 332.988 107.907 327.219 107.907 325.421C107.907 323.624 114.612 316.773 114.612 316.773C114.612 316.773 114.248 316.263 113.701 315.352L125.337 314.307C125.337 314.307 126.552 315.085 124.499 311.963C122.446 308.841 117.211 302.088 119.325 292.25C121.438 282.411 122.871 277.601 122.871 277.601L127.608 281.245L143.957 320.38Z" fill="#EDEDED"/>
<path d="M104.458 295.141C104.458 295.141 105.417 302.356 135.394 302.356C165.371 302.356 186.542 292.25 186.542 292.25C186.542 292.25 200.741 295.129 202.514 297.303C204.288 299.477 202.235 311.113 198.931 314.308C195.627 317.502 177.068 326.952 146.982 326.454C131.471 326.223 111.672 320.563 111.672 320.563L104.458 295.141Z" fill="#2D2D2C"/>
<path d="M177.591 257.656C173.967 259.153 170.521 261.048 167.315 263.305C155.169 271.503 142.597 284.075 133.378 286.601C131.315 287.191 129.152 287.348 127.026 287.063C118.693 285.848 112.657 277.771 105.697 271.358C97.6804 263.96 96.1986 250.648 96.3322 243.324C96.3322 242.789 96.3322 242.279 96.3322 241.818C96.5508 237.579 100.049 228.943 102.697 222.954C104.337 219.238 105.648 216.541 105.648 216.541L122.082 210.565L178.55 190.013L183.409 188.216C183.409 188.216 186.591 189.673 190.915 192.261C195.972 195.233 200.678 198.765 204.944 202.791C207.657 205.369 209.981 208.327 211.843 211.573C219.507 225.408 192.494 251.887 177.591 257.656Z" fill="white"/>
<path d="M219.532 175.96L209.438 172.001L207.276 171.151C216.131 170.434 205.138 152.7 197.899 149.761C192.579 147.623 197.765 171.952 195.907 171.794C195.458 171.794 191.146 170.81 184.842 169.365C164.971 164.895 125.325 155.749 125.325 155.749C125.325 155.749 125.325 155.409 125.447 154.789C126.03 150.896 127.003 147.071 128.35 143.372C129.239 140.869 130.306 138.434 131.544 136.084C137.301 125.249 148.245 114.136 168.821 115.047C171.573 115.163 174.313 115.475 177.02 115.982C208.734 121.982 211.977 153.636 216.872 166.049C222.167 179.568 219.532 175.96 219.532 175.96Z" fill="#E62236"/>
<path d="M177.031 116.043C170.497 115.958 160.027 116.65 151.706 120.695C140.131 126.306 128.701 145.728 128.701 145.728L128.361 143.396C129.25 140.894 130.318 138.458 131.556 136.108C137.313 125.274 148.257 114.16 168.833 115.071C171.585 115.199 174.325 115.524 177.031 116.043Z" fill="#E83D3E"/>
<path d="M184.709 148.145L177.882 157.23H124.512C125.489 150.714 127.541 144.405 130.585 138.562C140.01 136.055 149.832 135.403 159.505 136.642C178.83 139.436 184.709 148.145 184.709 148.145Z" fill="#CA2834"/>
<path d="M214.807 170.191L209.438 172.001L207.276 171.151C216.13 170.434 205.138 152.7 197.899 149.761C192.579 147.623 197.765 171.952 195.907 171.794C195.458 171.794 191.146 170.81 184.842 169.365L171.262 155.773C171.262 155.773 180.202 130.788 193.879 134.627C207.555 138.465 214.807 170.191 214.807 170.191Z" fill="#CA2834"/>
<path d="M204.871 218.29C199.466 228.821 178.89 251.086 146.459 254.572C117.952 257.56 105.672 216.541 105.672 216.541L122.106 210.565L190.988 192.261C196.045 195.233 200.751 198.765 205.017 202.792C206.486 207.978 207.179 213.833 204.871 218.29Z" fill="#F6F6F6"/>
<g style="mix-blend-mode:darken">
<path d="M179.485 245.413C177.384 251.288 174.897 257.017 172.039 262.564C169.737 267.045 165.219 275.971 158.13 282.082C147.093 291.596 135.018 294.246 124.071 293.638C136.948 273.034 115.449 256.194 109.571 234.251C109.049 232.319 108.636 230.473 108.357 228.736C107.946 226.568 107.662 224.378 107.506 222.177C109.146 218.473 110.47 215.776 110.47 215.776L183.348 189.236C183.906 199.051 185.206 229.514 179.485 245.413Z" fill="#DADADA"/>
</g>
<g style="mix-blend-mode:darken">
<path d="M186.36 183.941C186.36 184.657 199.332 200.277 198.372 209.168C197.413 218.06 189.724 229.113 181.076 231.749C172.428 234.384 171.942 232.89 171.942 232.89L170.982 204.954L173.958 182.495L186.36 183.941Z" fill="#DADADA"/>
</g>
<path d="M195.907 171.794C195.239 175.79 192.433 178.657 189.275 180.661C188.377 181.237 187.444 181.756 186.482 182.216C185.161 182.844 183.802 183.388 182.413 183.843C181.219 184.241 180.002 184.565 178.769 184.815L153.043 170.519L126.771 178.839C124.805 178.743 122.87 178.311 121.05 177.564C116.738 175.815 111.551 171.673 111.491 161.871C111.43 151.182 119.252 144.866 131.617 142.182C139.908 140.577 148.383 140.135 156.796 140.87C159.32 141.04 161.828 141.389 164.302 141.914C185.583 146.396 197.425 162.721 195.907 171.794Z" fill="white"/>
<path d="M185.169 177.879C185.169 178.608 198.141 194.216 197.182 203.107C196.222 211.999 188.534 223.052 179.873 225.7C171.213 228.348 170.752 226.841 170.752 226.841L169.792 198.905L172.756 176.434L185.169 177.879Z" fill="white"/>
<path d="M195.907 171.794C194.692 178.742 192.457 180.224 187.793 181.754L169.792 170.677C169.792 170.677 179.4 160.097 177.08 150.732C176.132 147.016 170.642 144.088 164.351 141.914C185.582 146.396 197.425 162.721 195.907 171.794Z" fill="#EDEDED"/>
<path d="M177.833 237.955C174.071 248.591 169.008 258.722 162.759 268.115C150.613 285.994 125.106 292.007 124.559 292.249C137.308 269.584 114.401 250.829 107.968 226.841C107.457 224.898 107.032 223.064 106.753 221.327C106.147 218.213 105.826 215.05 105.793 211.877C105.793 196.026 114.952 192.066 114.952 192.066L178.525 179.288L181.538 178.681C181.538 178.681 184.708 218.898 177.833 237.955Z" fill="white"/>
<path d="M118.365 156.259C117.125 160.427 117.494 164.909 119.398 168.819C119.586 169.213 119.801 169.595 120.042 169.96L121.05 177.564C118.837 176.692 116.867 175.3 115.305 173.507C113.13 170.993 111.527 167.3 111.491 161.871C111.43 151.182 119.252 144.866 131.617 142.182C125.799 145.51 120.527 148.571 118.365 156.259Z" fill="#EDEDED"/>
<path d="M121.049 177.563C118.837 176.691 116.866 175.299 115.304 173.506L119.397 168.818C119.586 169.213 119.801 169.595 120.041 169.96L121.049 177.563Z" fill="#C6C6C6"/>
<path d="M176.4 205.148C174.517 207.262 170.579 206.497 166.644 206.667C162.028 206.849 157.677 205.036 156.305 204.234C153.778 202.764 153.638 202.549 145.329 201.832C137.021 201.116 138.163 205.039 135.285 204.261C132.406 203.484 129.515 199.573 129.515 199.573C129.515 199.573 115.462 203.545 112.219 197.775C108.976 192.006 117.259 184.633 119.069 180.236C119.975 177.389 120.22 174.373 119.786 171.418C119.628 169.936 119.422 168.988 119.422 168.988C119.422 168.988 132.782 158.895 156.553 161.069C165.128 161.846 170.752 164.458 174.444 167.47C175.565 168.388 176.591 169.418 177.505 170.543C179.621 173.083 180.977 176.17 181.416 179.446C181.416 179.446 179.193 185.301 177.857 189.419C177.055 191.969 181.44 199.512 176.4 205.148Z" fill="#FAC9A7"/>
<path d="M176.983 204.842C175.101 206.956 172.726 206.667 167.252 206.667C170.398 202.719 171.335 195.176 171.201 187.415C171.104 181.341 173.011 172.9 174.444 167.47C178.234 170.406 180.734 174.701 181.416 179.447C181.416 179.447 179.193 185.301 177.857 189.419C177.056 191.969 182.024 199.206 176.983 204.842Z" fill="#EFB68F"/>
<path d="M121.548 198.77C125.385 198.77 128.495 196.791 128.495 194.349C128.495 191.908 125.385 189.929 121.548 189.929C117.711 189.929 114.6 191.908 114.6 194.349C114.6 196.791 117.711 198.77 121.548 198.77Z" fill="#F4A3A4"/>
<path d="M165.812 200.529C166.3 198.136 163.648 195.575 159.889 194.807C156.129 194.04 152.686 195.357 152.197 197.749C151.709 200.141 154.361 202.703 158.12 203.47C161.88 204.238 165.323 202.921 165.812 200.529Z" fill="#F4A3A4"/>
<path d="M213.969 195.309C221.965 195.309 228.447 188.827 228.447 180.831C228.447 172.835 221.965 166.353 213.969 166.353C205.972 166.353 199.49 172.835 199.49 180.831C199.49 188.827 205.972 195.309 213.969 195.309Z" fill="#EDEDED"/>
<path d="M177.59 220.198C174.07 222.836 170.053 224.734 165.78 225.778C161.507 226.822 157.066 226.99 152.727 226.271C140.507 224.06 137.228 217.367 136.645 212.497V212.558C134.398 216.201 129.843 220.088 122.069 222.53C116.998 224.11 111.512 223.675 106.753 221.315C106.147 218.201 105.826 215.038 105.793 211.865C109.777 211.61 114.041 210.651 117.26 208.124C123.187 203.472 128.811 201.419 133.123 201.881C134.132 201.98 135.106 202.3 135.978 202.819C136.849 203.337 137.595 204.041 138.163 204.881C139.173 204.011 140.371 203.386 141.663 203.055C142.954 202.724 144.305 202.696 145.609 202.974C156.674 204.517 154.852 212.691 162.431 216.141C167.268 218.201 172.371 219.566 177.59 220.198Z" fill="#EDEDED"/>
<path d="M162.334 213.444C154.755 209.995 156.564 201.832 145.511 200.29C144.21 200.01 142.862 200.035 141.572 200.364C140.282 200.693 139.086 201.316 138.078 202.185C137.504 201.349 136.755 200.648 135.882 200.132C135.009 199.616 134.034 199.297 133.025 199.197C128.701 198.723 123.089 200.788 117.162 205.44C109.097 211.756 94.4121 208.294 94.4121 208.294C94.4121 208.294 105.745 224.838 121.972 219.797C129.806 217.368 134.361 213.481 136.547 209.813C137.143 214.671 140.422 221.376 152.641 223.586C156.981 224.305 161.421 224.138 165.694 223.094C169.968 222.05 173.985 220.152 177.505 217.513C172.28 216.883 167.173 215.513 162.334 213.444Z" fill="white"/>
<path d="M213.957 166.353C213.282 166.354 212.609 166.399 211.94 166.486C215.399 166.97 218.566 168.688 220.858 171.323C223.15 173.958 224.412 177.333 224.412 180.825C224.412 184.317 223.15 187.692 220.858 190.327C218.566 192.962 215.399 194.68 211.94 195.164C212.609 195.251 213.282 195.296 213.957 195.297C215.892 195.354 217.82 195.021 219.625 194.319C221.43 193.617 223.075 192.56 224.464 191.21C225.853 189.861 226.958 188.246 227.712 186.463C228.466 184.679 228.854 182.762 228.854 180.825C228.854 178.889 228.466 176.972 227.712 175.188C226.958 173.404 225.853 171.79 224.464 170.44C223.075 169.091 221.43 168.034 219.625 167.332C217.82 166.63 215.892 166.297 213.957 166.353Z" fill="white"/>
<path d="M131.336 188.963C134.677 188.963 137.385 186.255 137.385 182.914C137.385 179.573 134.677 176.865 131.336 176.865C127.995 176.865 125.287 179.573 125.287 182.914C125.287 186.255 127.995 188.963 131.336 188.963Z" fill="white"/>
<path d="M130.39 186.886C133.067 186.886 135.237 184.716 135.237 182.04C135.237 179.364 133.067 177.194 130.39 177.194C127.714 177.194 125.544 179.364 125.544 182.04C125.544 184.716 127.714 186.886 130.39 186.886Z" fill="#2D2D2C"/>
<path d="M128.712 181.031C129.282 181.031 129.745 180.569 129.745 179.999C129.745 179.428 129.282 178.966 128.712 178.966C128.142 178.966 127.68 179.428 127.68 179.999C127.68 180.569 128.142 181.031 128.712 181.031Z" fill="#F7F2E6"/>
<path d="M153.916 192.097C157.257 192.097 159.965 189.389 159.965 186.048C159.965 182.707 157.257 179.999 153.916 179.999C150.575 179.999 147.867 182.707 147.867 186.048C147.867 189.389 150.575 192.097 153.916 192.097Z" fill="white"/>
<path d="M152.982 190.032C155.658 190.032 157.828 187.862 157.828 185.186C157.828 182.51 155.658 180.34 152.982 180.34C150.305 180.34 148.135 182.51 148.135 185.186C148.135 187.862 150.305 190.032 152.982 190.032Z" fill="#2D2D2C"/>
<path d="M151.304 184.165C151.874 184.165 152.336 183.703 152.336 183.132C152.336 182.562 151.874 182.1 151.304 182.1C150.734 182.1 150.271 182.562 150.271 183.132C150.271 183.703 150.734 184.165 151.304 184.165Z" fill="#F7F2E6"/>
<path d="M139.658 173.637L140.01 170.331C140.032 170.133 139.982 169.935 139.869 169.771C139.756 169.607 139.588 169.49 139.396 169.44C136.945 168.815 134.386 168.738 131.902 169.215C129.417 169.692 127.069 170.712 125.024 172.2C123.897 172.932 122.929 173.884 122.18 175C122.148 175.053 122.134 175.115 122.139 175.177C122.144 175.238 122.168 175.297 122.207 175.345C122.247 175.393 122.3 175.428 122.36 175.445C122.419 175.461 122.483 175.46 122.541 175.439C124.5 174.767 131.108 172.615 134.711 173.242C136.091 173.483 137.456 173.802 138.799 174.199C138.892 174.23 138.992 174.24 139.09 174.227C139.188 174.214 139.281 174.18 139.364 174.126C139.447 174.072 139.516 174 139.567 173.915C139.618 173.83 139.649 173.735 139.658 173.637Z" fill="white"/>
<path d="M148.857 174.746L149.647 171.515C149.69 171.319 149.805 171.146 149.968 171.029C150.132 170.913 150.332 170.861 150.532 170.883C153.044 171.12 155.474 171.907 157.647 173.19C159.821 174.472 161.685 176.218 163.108 178.302C163.919 179.374 164.511 180.595 164.85 181.896C164.859 181.958 164.851 182.021 164.825 182.078C164.799 182.134 164.756 182.182 164.703 182.215C164.65 182.247 164.589 182.264 164.526 182.261C164.464 182.259 164.404 182.238 164.353 182.202C162.743 180.87 157.246 176.644 153.638 176.023C152.258 175.787 150.867 175.632 149.47 175.557C149.373 175.551 149.279 175.524 149.194 175.479C149.109 175.433 149.035 175.37 148.977 175.293C148.918 175.216 148.878 175.127 148.857 175.033C148.836 174.938 148.837 174.841 148.857 174.746Z" fill="white"/>
<path d="M177.53 170.543L177.032 173.191C177.032 173.191 179.522 167.47 158.97 162.696C142.391 158.846 124.244 167.846 119.811 171.466C119.653 169.984 119.446 169.037 119.446 169.037C119.446 169.037 132.807 158.943 156.577 161.117C165.153 161.895 170.776 164.506 174.469 167.518C175.588 168.422 176.613 169.435 177.53 170.543Z" fill="#EFB68F"/>
<path d="M154.258 312.85C153.989 309.628 153.535 306.424 152.898 303.254C152.725 302.341 152.259 301.509 151.571 300.885C150.883 300.26 150.01 299.877 149.084 299.793L121.342 297.145C120.267 297.033 119.188 297.307 118.297 297.919C117.407 298.532 116.764 299.441 116.483 300.485C115.685 303.369 115.373 306.365 115.56 309.352C115.677 310.958 116.017 312.54 116.568 314.052C119.52 322.069 121.658 323.089 121.658 323.089C121.658 323.089 142.804 328.798 150.444 326.515C154.258 325.397 154.72 319.057 154.258 312.85ZM143.922 322.178C139.063 323.648 125.447 319.992 125.447 319.992C125.447 319.992 124.075 319.336 122.168 314.186C121.92 313.517 121.741 312.826 121.633 312.121C121.341 309.892 121.506 307.627 122.119 305.465C122.297 304.801 122.705 304.222 123.27 303.83C123.835 303.439 124.52 303.261 125.204 303.327L143.011 305.028C143.602 305.086 144.158 305.334 144.596 305.734C145.034 306.135 145.33 306.667 145.44 307.25C145.841 309.257 146.129 311.285 146.302 313.324C146.63 317.32 146.327 321.462 143.91 322.178H143.922Z" fill="#E4BB10"/>
<path d="M76.1087 224.145C74.1532 231.251 68.6388 232.805 68.6388 232.805C66.4524 227.643 65.0799 220.999 69.987 217.319C72.1855 217.477 77.7363 218.448 76.1087 224.145Z" fill="#A48A7B"/>
<path d="M78.9505 256.017C78.2407 256.496 77.4626 256.864 76.6427 257.11C71.2619 258.677 58.5812 247.393 64.5815 237.518C64.9337 237.178 66.3184 236.875 71.5656 241.818C75.3878 245.709 77.9595 250.654 78.9505 256.017Z" fill="#A48A7B"/>
<path d="M288.728 265.382C288.728 265.382 298.639 266.596 300.498 265.843C302.356 265.09 305.004 263.864 305.004 263.864L288.728 260.961C288.728 260.961 288.849 265.649 288.728 265.382Z" fill="#FAC9A7"/>
<path d="M119.969 299.368C120.163 298.384 126.758 299.938 128.119 300.096C129.479 300.254 136.366 300.363 136.172 301.311C135.977 302.258 129.127 301.505 127.779 301.311C126.43 301.116 119.774 300.351 119.969 299.368Z" fill="#FFDE00"/>
<path d="M138.2 301.7C137.945 302.647 140.423 302.1 140.884 302.137C141.346 302.173 143.435 303.036 143.69 302.076C143.945 301.117 141.65 300.862 141.188 300.862C140.726 300.862 138.467 300.728 138.2 301.7Z" fill="#FFDE00"/>
<path d="M310.69 155.178L323.844 165.004C324.403 165.423 325.051 165.707 325.738 165.835C326.424 165.964 327.131 165.933 327.804 165.745L357.963 157.389C358.632 157.205 359.25 156.871 359.771 156.412C360.292 155.954 360.701 155.383 360.968 154.742C361.235 154.102 361.352 153.409 361.312 152.716C361.271 152.024 361.073 151.349 360.732 150.745L350.092 131.76C348.676 129.228 346.395 127.29 343.667 126.302C340.939 125.314 337.947 125.341 335.237 126.379L313.617 134.517C311.619 135.268 309.86 136.543 308.525 138.208C307.19 139.873 306.327 141.867 306.028 143.98C305.728 146.093 306.003 148.248 306.823 150.218C307.644 152.188 308.979 153.902 310.69 155.178Z" fill="#877366"/>
<path d="M314.709 128.408L319.555 136.01" stroke="#61460F" stroke-width="1.21638" stroke-miterlimit="10"/>
<path d="M319.555 124.339L324.341 134.226" stroke="#61460F" stroke-width="1.21638" stroke-miterlimit="10"/>
<path d="M346.945 134.225L354.014 128.408" stroke="#61460F" stroke-width="1.21638" stroke-miterlimit="10"/>
<path d="M350.48 140.578L354.78 137.445" stroke="#61460F" stroke-width="1.21638" stroke-miterlimit="10"/>
<path d="M337.265 159.43L342.719 166.352" stroke="#61460F" stroke-width="1.21638" stroke-miterlimit="10"/>
<path d="M342.719 159.43L346.946 162.891" stroke="#61460F" stroke-width="1.21638" stroke-miterlimit="10"/>
<path d="M319.555 159.43L312.486 166.352" stroke="#61460F" stroke-width="1.21638" stroke-miterlimit="10"/>
<path d="M312.487 153.113L305.005 155.834" stroke="#61460F" stroke-width="1.21638" stroke-miterlimit="10"/>
<path d="M218.937 73.7369L230.05 71.1619L246.63 73.7369L265.639 78.5955L291.887 40.1401L244.845 42.1078C244.845 42.1078 227.281 63.2789 225.083 65.6475C222.884 68.016 211.94 73.7005 211.94 73.7005L218.937 73.7369Z" fill="#877366"/>
<path d="M338.772 49.6994L329.698 57.9346L326.504 47.0029C330.111 47.7196 334.46 48.5212 338.772 49.6994Z" fill="#877366"/>
<path d="M274.334 82.7497L248.451 90.2076L254.937 64.0565L280.82 56.5986L274.334 82.7497Z" fill="#1D4C91"/>
<path d="M255.059 64.1657L235.649 45.4725L261.545 38.0146L280.943 56.7079L255.059 64.1657Z" fill="#678FCA"/>
<path d="M248.355 90.17L228.945 71.489L235.431 45.3379L254.841 64.0311L248.355 90.17Z" fill="#005EAA"/>
<path d="M248.67 41.7312L263.731 55.9303C264.329 55.0717 264.991 54.2596 265.711 53.501C265.772 53.671 251.913 40.6987 251.913 40.6987L248.67 41.7312Z" fill="white"/>
<path d="M236.269 72.6194L241.467 51.084L244.917 54.3149L239.451 72.6194H236.269Z" fill="#C6C6C6"/>
<path d="M241.467 51.0837L257.731 47.8774V51.0837L244.916 54.3142L241.467 51.0837Z" fill="white"/>
<path d="M294.316 64.0688L254.95 49.7361L292.166 24.6782L331.544 39.0109L294.316 64.0688Z" fill="#E83D3E"/>
<path d="M269.453 39.8116L279.012 33.374L318.111 47.8768L308.564 54.3143L269.453 39.8116Z" fill="#FFDE00"/>
<path d="M333.269 79.373L299.078 106.241L294.766 63.7042L331.544 39.0107L333.269 79.373Z" fill="#B81829"/>
<path d="M298.763 103.532L259.215 89.7219L255.207 49.894L294.767 63.7044L298.763 103.532Z" fill="#E62236"/>
<path d="M271.81 94.1188L267.51 54.3153L305.855 29.646L317.613 33.9822L280.944 59.1981L285.438 98.8801L271.81 94.1188Z" fill="#FFDE00"/>
<path d="M308.564 54.3155L312.062 95.7224L321.147 88.7504L318.111 47.8779L308.564 54.3155Z" fill="#F39200"/>
<path d="M267.51 54.3154L280.944 59.1982L285.438 98.8803L271.81 94.119L267.51 54.3154Z" fill="#E4BB10"/>
<path d="M293.843 44.246C293.478 43.42 282.267 23.6944 292.324 13.6858C299.612 6.49513 307.179 15.9207 303.572 25.4434C300.934 32.0038 297.68 38.2995 293.855 44.246C293.855 44.246 297.268 42.1689 304.932 33.873C312.596 25.577 314.455 11.378 309.924 5.40195C308.588 3.64073 292.13 3.72575 287.988 18.605C282.134 39.6546 293.855 44.246 293.855 44.246H293.843Z" fill="#F39200"/>
<path d="M294.632 44.8046C294.632 44.8046 278.15 23.6336 267.449 29.4031C256.748 35.1726 274.579 42.5697 274.579 42.5697C278.396 43.6143 282.263 44.4656 286.166 45.1204C288.758 45.3931 291.379 45.0946 293.843 44.2459C293.843 44.2459 272.648 40.6991 274.579 34.8082C276.51 28.9172 294.632 44.8046 294.632 44.8046Z" fill="#F39200"/>
<path d="M228.945 71.4898L257.124 73.7369L295.288 77.3808L336.245 54.3027C336.245 54.3027 351.549 71.0404 352.448 77.3808C353.347 83.7212 345.61 85.5553 335.067 93.7905C324.524 102.026 297.96 109.447 294.899 113.893C291.838 118.338 230.05 80.5874 230.05 80.5874L228.945 71.4898Z" fill="#CBBBA0"/>
<path d="M213.969 63.7646L218.937 78.5467" stroke="#61460F" stroke-width="1.21638" stroke-miterlimit="10"/>
<path d="M220.188 63.7646L222.447 76.7369" stroke="#61460F" stroke-width="1.21638" stroke-miterlimit="10"/>
<path d="M225.083 61.2627L227.342 76.7371" stroke="#61460F" stroke-width="1.21638" stroke-miterlimit="10"/>
<path d="M291.279 45.0709C291.279 45.4717 289.761 43.8565 289.761 43.8565V42.7513C289.761 42.7513 289.627 41.136 289.918 40.7838C290.556 40.1017 291.303 39.5312 292.129 39.0957C292.706 39.2472 293.295 39.3447 293.89 39.3872C294.376 39.3872 295.639 39.2293 296.052 39.5451C296.465 39.8608 297.874 40.7595 297.874 40.7595C297.874 40.7595 297.814 40.0673 297.874 41.2575C297.878 42.1297 297.751 42.9975 297.498 43.8322C297.498 43.8322 296.769 44.4637 296.052 45.0467C295.336 45.6296 294.595 46.7469 294.133 46.9169C293.301 46.8965 292.48 46.7322 291.704 46.4312L291.279 45.0709Z" fill="#F39200"/>
<path d="M292.263 44.2456L272.708 56.234L276.473 57.9345L292.263 44.2456Z" fill="#F39200"/>
<path d="M296.502 41.6587C296.089 41.1729 309.547 30.9214 309.547 30.9214L312.341 32.0388L296.502 41.6587Z" fill="#F39200"/>
<path d="M272.708 56.2344C272.708 56.2344 274.943 76.2637 274.785 75.6685C274.627 75.0734 278.429 75.6685 278.429 75.6685L276.425 57.9713L272.708 56.2344Z" fill="#F39200"/>
<g clip-path="url(#clip0_319_6319)">
<path opacity="0.23" d="M125.399 195.323C130.048 195.323 133.817 191.386 133.817 186.528C133.817 181.671 130.048 177.733 125.399 177.733C120.75 177.733 116.98 181.671 116.98 186.528C116.98 191.386 120.75 195.323 125.399 195.323Z" fill="white"/>
<path d="M125.399 196.125C123.578 196.125 121.798 195.561 120.284 194.504C118.77 193.447 117.59 191.945 116.893 190.187C116.196 188.429 116.014 186.495 116.369 184.629C116.725 182.764 117.601 181.05 118.889 179.704C120.177 178.359 121.817 177.443 123.603 177.072C125.389 176.701 127.24 176.891 128.922 177.619C130.605 178.347 132.042 179.58 133.054 181.162C134.066 182.744 134.606 184.604 134.606 186.506C134.603 189.056 133.632 191.501 131.906 193.304C130.18 195.108 127.84 196.122 125.399 196.125ZM125.399 178.556C123.89 178.556 122.415 179.024 121.16 179.9C119.905 180.776 118.927 182.021 118.35 183.477C117.772 184.934 117.621 186.537 117.915 188.083C118.21 189.63 118.937 191.05 120.004 192.165C121.071 193.28 122.43 194.039 123.91 194.347C125.391 194.654 126.925 194.496 128.319 193.893C129.713 193.29 130.905 192.268 131.743 190.957C132.582 189.646 133.029 188.105 133.029 186.528C133.033 185.478 132.839 184.437 132.458 183.466C132.076 182.494 131.515 181.611 130.806 180.866C130.097 180.121 129.255 179.53 128.327 179.126C127.399 178.722 126.404 178.514 125.399 178.512V178.556Z" fill="#2D2D2C"/>
<path d="M120.837 181.933C120.397 182.8 120.063 183.723 119.844 184.678C119.752 185.14 119.685 185.607 119.644 186.078C119.607 186.325 119.607 186.572 119.576 186.83C119.566 187.1 119.541 187.37 119.502 187.637C119.335 187.419 119.191 187.184 119.071 186.934C118.961 186.679 118.876 186.412 118.819 186.138C118.704 185.577 118.704 184.997 118.819 184.436C118.938 183.871 119.181 183.343 119.529 182.893C119.861 182.441 120.317 182.106 120.837 181.933Z" fill="white"/>
<path d="M146.854 184.164C146.413 185.031 146.08 185.954 145.86 186.909C145.769 187.371 145.702 187.838 145.661 188.309C145.624 188.556 145.624 188.803 145.592 189.061C145.582 189.331 145.558 189.6 145.519 189.868C145.352 189.65 145.207 189.415 145.088 189.165C144.977 188.91 144.893 188.643 144.836 188.369C144.72 187.808 144.72 187.228 144.836 186.667C144.955 186.102 145.198 185.574 145.545 185.124C145.878 184.672 146.334 184.337 146.854 184.164Z" fill="white"/>
<path opacity="0.23" d="M151.568 197.975C156.31 197.975 160.155 193.959 160.155 189.004C160.155 184.05 156.31 180.033 151.568 180.033C146.826 180.033 142.981 184.05 142.981 189.004C142.981 193.959 146.826 197.975 151.568 197.975Z" fill="white"/>
<path d="M151.568 198.76C149.712 198.76 147.897 198.185 146.354 197.107C144.811 196.029 143.609 194.496 142.899 192.704C142.19 190.912 142.006 188.94 142.37 187.038C142.734 185.136 143.63 183.39 144.945 182.021C146.259 180.651 147.933 179.72 149.754 179.345C151.575 178.97 153.462 179.168 155.176 179.914C156.889 180.66 158.352 181.92 159.38 183.536C160.408 185.151 160.953 187.048 160.948 188.988C160.938 191.581 159.946 194.065 158.188 195.896C156.431 197.728 154.05 198.757 151.568 198.76ZM151.568 180.813C150.025 180.813 148.518 181.29 147.235 182.185C145.952 183.08 144.952 184.352 144.36 185.841C143.769 187.329 143.613 188.967 143.913 190.548C144.212 192.129 144.953 193.582 146.043 194.723C147.132 195.864 148.52 196.642 150.033 196.959C151.545 197.276 153.113 197.118 154.54 196.504C155.966 195.891 157.186 194.849 158.046 193.511C158.906 192.173 159.367 190.599 159.372 188.988C159.374 187.915 159.173 186.853 158.782 185.862C158.391 184.87 157.817 183.969 157.092 183.21C156.367 182.451 155.506 181.848 154.558 181.437C153.61 181.026 152.594 180.813 151.568 180.813Z" fill="#2D2D2C"/>
<path d="M142.288 190.025C142.24 189.905 141.005 187.072 137.963 186.934C135.062 186.808 134.384 188.768 134.358 188.85L132.855 188.356C132.897 188.219 133.864 185.095 138.031 185.287C142.077 185.468 143.67 189.213 143.733 189.372L142.288 190.025Z" fill="#2D2D2C"/>
<path d="M186.727 177.799L159.362 189.432L159.956 190.957L187.321 179.325L186.727 177.799Z" fill="#2D2D2C"/>
<path d="M117.89 183.426C117.792 183.425 117.696 183.405 117.606 183.366L116.082 182.745C115.985 182.706 115.897 182.648 115.822 182.573C115.747 182.499 115.687 182.409 115.645 182.311C115.603 182.212 115.58 182.105 115.577 181.997C115.575 181.889 115.593 181.781 115.63 181.68C115.667 181.579 115.723 181.487 115.795 181.409C115.866 181.33 115.951 181.267 116.046 181.224C116.141 181.18 116.243 181.156 116.346 181.153C116.45 181.15 116.553 181.169 116.649 181.208L118.184 181.85C118.356 181.919 118.499 182.049 118.589 182.217C118.679 182.385 118.71 182.581 118.676 182.77C118.642 182.959 118.546 183.13 118.404 183.253C118.263 183.376 118.084 183.443 117.9 183.443L117.89 183.426Z" fill="#2D2D2C"/>
</g>
<path d="M144.403 201.234C144.403 201.234 144.075 202.351 140.31 203.554C138.744 204.074 137.087 204.257 135.446 204.091C133.805 203.926 132.217 203.416 130.787 202.594C129.581 201.737 128.664 200.533 128.158 199.143C127.653 197.752 127.582 196.24 127.957 194.808C128.517 193.084 129.637 191.597 131.139 190.581C137.334 185.929 142.314 193.217 142.314 193.217L143.273 196.861L144.403 201.234Z" fill="#E83D3E"/>
<path d="M144.403 201.233C144.403 201.233 144.075 202.351 140.31 203.553C138.744 204.073 137.087 204.256 135.446 204.09C133.805 203.925 132.217 203.415 130.787 202.593C129.581 201.737 128.664 200.533 128.158 199.142C127.653 197.752 127.582 196.24 127.957 194.809C128.11 195.91 128.596 196.938 129.349 197.756C130.102 198.574 131.087 199.143 132.172 199.387C135.949 200.322 141.476 197.784 143.273 196.885L144.403 201.233Z" fill="#E62236"/>
<g clip-path="url(#clip1_319_6319)">
<path d="M182.736 179.327L181.263 188.971C181.184 189.482 181.306 190.003 181.604 190.427C181.903 190.85 182.354 191.143 182.864 191.245C184.94 191.647 188.271 191.695 190.246 188.643C193.272 183.948 192.915 174.971 188.185 175.665C184.737 176.195 182.736 179.327 182.736 179.327Z" fill="#FAC9A7"/>
<path d="M186.066 181.107C186.066 181.107 188.366 178.341 189.722 179.289C191.078 180.238 190.87 186.088 187.897 188.038C184.924 189.989 186.066 181.107 186.066 181.107Z" fill="#EFB68F"/>
</g>
<path d="M107.907 416.968C107.907 416.968 121.268 411.757 130.985 412.207C140.702 412.656 142.415 410.992 148.488 412.207C154.561 413.421 158.739 412.814 159.419 414.357C160.1 415.899 173.351 419.482 173.351 419.482C173.351 419.482 116.458 425.616 113.968 424.183C111.478 422.75 107.907 416.968 107.907 416.968Z" fill="white"/>
<path d="M215.292 409.911C215.292 409.911 239.464 398.724 247.577 399.599C251.877 400.073 258.813 396.137 264.412 392.311C269.04 389.153 272.246 394.06 277.311 396.453C294.11 404.421 284.951 418.171 283.688 418.037C281.647 417.891 215.292 409.911 215.292 409.911Z" fill="white"/>
<path opacity="0.49" d="M106.857 92.4278C105.977 91.3345 105.082 90.2561 104.171 89.1927C104.591 89.2127 105.012 89.193 105.429 89.1339C105.813 89.0993 106.412 89.1685 106.677 88.8536C106.691 88.8416 106.703 88.8265 106.71 88.8095C106.718 88.7924 106.722 88.7738 106.722 88.755C106.722 88.7361 106.718 88.7175 106.71 88.7005C106.703 88.6835 106.691 88.6684 106.677 88.6564C106.337 88.4072 105.776 88.6114 105.398 88.6564C104.917 88.6898 104.442 88.7887 103.987 88.9505C103.429 88.2931 102.863 87.6403 102.287 86.9921C102.626 87.0224 102.967 87.0339 103.307 87.0267C103.916 87.0267 104.596 87.1409 105.181 86.9506C105.212 86.942 105.239 86.9233 105.258 86.8974C105.278 86.8714 105.289 86.8396 105.289 86.807C105.289 86.7743 105.278 86.7425 105.258 86.7166C105.239 86.6906 105.212 86.6719 105.181 86.6634C104.602 86.4558 103.916 86.5319 103.31 86.525C102.856 86.4827 102.398 86.5072 101.95 86.5976C101.409 85.9887 100.869 85.3832 100.321 84.7811L100.814 84.8053L102.729 84.9057C102.775 84.9057 102.821 84.8919 102.86 84.8659C102.899 84.8399 102.929 84.803 102.948 84.7595C102.966 84.7161 102.971 84.6682 102.963 84.6216C102.955 84.575 102.934 84.5318 102.902 84.4974C102.926 84.4756 102.945 84.449 102.959 84.4192C102.972 84.3893 102.978 84.357 102.978 84.3244C102.978 84.2917 102.972 84.2594 102.959 84.2296C102.945 84.1998 102.926 84.1731 102.902 84.1514C102.001 83.2587 101.117 82.2622 100.158 81.411C100.838 81.3418 101.508 81.2772 102.168 81.2172C102.562 81.5944 103.035 81.9092 103.433 82.2552C103.97 82.7338 104.48 83.2433 104.96 83.7811C105.011 83.838 105.082 83.8718 105.158 83.8751C105.234 83.8783 105.308 83.8507 105.364 83.7984C105.42 83.7461 105.453 83.6734 105.457 83.5961C105.46 83.5189 105.433 83.4436 105.381 83.3867C104.68 82.5412 103.88 81.7849 103.001 81.1342C103.943 81.0546 104.888 80.9785 105.833 80.9162C106.086 81.222 106.37 81.4992 106.68 81.7432C107.109 82.1376 107.534 82.539 107.972 82.923C108.204 83.1203 108.554 82.8019 108.312 82.577C107.85 82.1549 107.374 81.7501 106.901 81.3383C106.728 81.1896 106.561 81.0166 106.374 80.8678C107.299 80.8101 108.224 80.764 109.149 80.7294C109.571 80.7294 109.588 80.0374 109.169 80.065C108.149 80.1239 107.129 80.1896 106.109 80.2588C106.347 79.9128 106.588 79.5875 106.833 79.2554C107.078 78.9232 107.513 78.5288 107.489 78.0547C107.489 78.0477 107.487 78.0408 107.484 78.0346C107.481 78.0283 107.476 78.0229 107.471 78.0186C107.465 78.0143 107.459 78.0113 107.452 78.0098C107.445 78.0082 107.438 78.0082 107.432 78.0098C106.993 78.1101 106.796 78.5737 106.534 78.9232C106.194 79.3834 105.854 79.847 105.493 80.3072C104.473 80.3799 103.453 80.4664 102.409 80.5598L103.854 78.8298C104.441 78.219 104.961 77.5449 105.405 76.8195C105.419 76.7981 105.425 76.7723 105.421 76.7469C105.417 76.7216 105.404 76.6985 105.385 76.6822C105.365 76.6658 105.341 76.6574 105.316 76.6585C105.29 76.6596 105.267 76.6701 105.249 76.688C104.545 77.207 104.001 77.9648 103.429 78.6256C102.858 79.2865 102.27 79.9474 101.695 80.6186C101.056 80.6775 100.417 80.7467 99.7806 80.8193C100.284 80.234 100.755 79.6206 101.192 78.982C101.671 78.3488 102.283 77.7122 102.569 76.9579C102.687 76.8886 102.8 76.8124 102.909 76.7295C102.921 76.7179 102.929 76.7029 102.933 76.6864C102.937 76.67 102.936 76.6528 102.93 76.637C102.924 76.6212 102.914 76.6074 102.901 76.5974C102.887 76.5874 102.871 76.5816 102.855 76.5808C102.008 76.6465 101.171 77.1205 100.41 77.4769C99.7908 77.7675 99.1867 78.0859 98.5973 78.4319C98.9555 77.4769 99.3148 76.5219 99.6752 75.567C101.035 75.0341 102.569 74.7227 103.834 73.9788C103.866 73.9618 103.892 73.9334 103.905 73.8988C103.918 73.8643 103.919 73.826 103.906 73.7911C103.893 73.7563 103.869 73.7273 103.837 73.7096C103.805 73.6919 103.768 73.6867 103.732 73.6951C102.423 73.8992 101.161 74.5116 99.8997 74.9614C100.126 74.3594 100.353 73.7562 100.58 73.1518C101.035 73.0619 101.454 72.6328 101.828 72.3629C102.314 72.0624 102.759 71.697 103.15 71.2765C103.219 71.1934 103.113 71.0516 103.014 71.0827C102.491 71.3105 101.998 71.6059 101.549 71.9616C101.338 72.1069 101.08 72.2453 100.848 72.4079C101.386 70.9201 101.906 69.4288 102.389 67.9098C102.46 67.6919 102.147 67.6088 102.049 67.8095C101.484 69.1243 100.947 70.4495 100.423 71.7816C100.165 70.7194 99.8146 69.5707 99.1074 68.8717C99.0087 68.7748 98.8183 68.8717 98.8591 69.0032C99.0461 69.6641 99.3862 70.2731 99.597 70.927C99.784 71.5014 99.9371 72.0861 100.073 72.657C99.8736 73.176 99.6752 73.6951 99.478 74.2141C98.9271 72.6709 97.8764 70.927 96.4482 70.446C96.3462 70.4114 96.2952 70.536 96.3462 70.6087C96.8936 71.3803 97.6622 71.9166 98.1688 72.7401C98.6141 73.4733 98.9402 74.2748 99.1346 75.1137L97.9546 78.3488C97.6589 77.3397 97.2636 76.3636 96.7746 75.4355C96.3122 74.5566 95.7035 73.3283 94.8534 72.7885C94.7344 72.7124 94.6255 72.8473 94.6698 72.965C94.7909 73.2688 94.9412 73.5597 95.1186 73.8335C95.11 73.8316 95.1011 73.8327 95.0931 73.8364C95.0852 73.8401 95.0786 73.8464 95.0744 73.8542C94.7344 74.477 94.8908 75.3559 94.8568 76.0548C94.8092 76.9683 94.714 77.8783 94.5779 78.7848C93.9182 78.1274 93.2484 77.4769 92.5785 76.8299C92.5747 76.7916 92.5631 76.7546 92.5444 76.7212C92.5256 76.6878 92.5002 76.6588 92.4697 76.6361C92.6889 75.9714 92.875 75.2958 93.0273 74.612C93.2402 73.9789 93.3805 73.3229 93.4456 72.657C93.4472 72.63 93.4398 72.6031 93.4246 72.5808C93.4094 72.5585 93.3873 72.5421 93.3618 72.5341C93.3363 72.5261 93.3089 72.5271 93.284 72.5368C93.2592 72.5466 93.2382 72.5645 93.2246 72.5878C92.9429 73.1914 92.7285 73.825 92.5853 74.477C92.4084 75.0895 92.1908 75.7019 92.0548 76.3282L91.8916 76.1725L90.5314 74.8611C90.6062 74.439 90.6436 74.0099 90.6946 73.5843C90.7952 72.9793 90.852 72.3675 90.8646 71.754C90.8625 71.7046 90.8436 71.6574 90.8113 71.6206C90.7789 71.5837 90.735 71.5593 90.687 71.5516C90.639 71.5439 90.5898 71.5532 90.5479 71.5781C90.5059 71.603 90.4736 71.6419 90.4566 71.6882C90.3353 72.2267 90.2546 72.7738 90.2151 73.3248C90.1709 73.6916 90.1165 74.0618 90.0791 74.4355C88.9602 73.3501 87.7866 72.3245 86.5631 71.363C86.3692 71.2142 86.1244 71.5221 86.291 71.709C87.2874 72.7193 88.3313 73.6778 89.382 74.6397C89.042 74.6639 88.7019 74.6985 88.3449 74.7227C87.7729 74.7326 87.2033 74.801 86.6447 74.9268C86.6087 74.9348 86.5768 74.9559 86.5552 74.9863C86.5336 75.0166 86.5238 75.054 86.5275 75.0913C86.5313 75.1286 86.5485 75.1631 86.5758 75.1883C86.603 75.2135 86.6384 75.2276 86.6753 75.2279C87.296 75.2803 87.9203 75.2687 88.5387 75.1933C88.9876 75.1656 89.4364 75.1517 89.8819 75.1068L90.0621 75.2728C90.0854 75.3122 90.1197 75.3436 90.1607 75.3628C90.6436 75.8092 91.1231 76.2555 91.5923 76.7122L91.6535 76.7745C91.0957 76.9228 90.5272 77.0258 89.9533 77.0825C89.3004 77.1309 88.5693 76.9994 87.9436 77.207C87.9315 77.2094 87.9204 77.2155 87.9118 77.2244C87.9031 77.2333 87.8973 77.2447 87.8951 77.257C87.8929 77.2694 87.8944 77.2821 87.8994 77.2935C87.9044 77.305 87.9127 77.3146 87.9232 77.3212C88.5489 77.7295 89.4671 77.6395 90.1743 77.5773C90.8267 77.5303 91.4715 77.406 92.0956 77.207C92.7281 77.8264 93.3538 78.4526 93.9795 79.0824C93.3198 79.0824 92.6363 79.1723 92.014 79.2C91.1741 79.2346 90.2083 79.1412 89.4228 79.4838C89.406 79.4935 89.3924 79.508 89.3837 79.5255C89.3749 79.543 89.3714 79.5628 89.3735 79.5823C89.3757 79.6018 89.3835 79.6203 89.3959 79.6354C89.4083 79.6504 89.4247 79.6615 89.4432 79.6671C89.5392 79.7 89.6368 79.7278 89.7357 79.7502C90.0817 80.1823 90.4831 80.5651 90.9292 80.8885C91.3373 81.2345 91.7386 81.5978 92.1432 81.9508C91.3815 82.0684 90.6164 82.186 89.8513 82.2968C89.3892 81.8708 88.883 81.4972 88.3415 81.1826C87.8348 80.8366 87.3214 80.4041 86.7467 80.2311C86.7189 80.2234 86.6895 80.2251 86.6627 80.2359C86.636 80.2467 86.6135 80.2661 86.5985 80.2911C86.5835 80.3161 86.577 80.3453 86.5798 80.3745C86.5826 80.4036 86.5946 80.431 86.6141 80.4526C86.9881 80.9474 87.573 81.2622 88.0729 81.6151C88.4435 81.8781 88.8074 82.1757 89.2018 82.4075C88.5217 82.5205 87.853 82.6359 87.1955 82.7535C86.7355 82.4209 86.2334 82.1532 85.7027 81.9577C85.2913 81.7605 84.8492 81.4248 84.3834 81.5252C84.3686 81.5287 84.3548 81.5356 84.3431 81.5453C84.3313 81.5551 84.322 81.5675 84.3157 81.5816C84.3095 81.5956 84.3065 81.611 84.307 81.6264C84.3076 81.6418 84.3116 81.6569 84.3188 81.6705C84.5534 82.1376 85.1927 82.2968 85.6347 82.5147C85.8864 82.6393 86.1448 82.7881 86.4134 82.9092C85.1961 83.1549 83.9889 83.4351 82.8021 83.7604C82.7689 83.7809 82.7429 83.8117 82.728 83.8482C82.713 83.8848 82.7099 83.9252 82.7189 83.9637C82.728 84.0022 82.7489 84.0367 82.7785 84.0624C82.8081 84.088 82.845 84.1034 82.8838 84.1064C84.0399 83.9057 85.1927 83.6877 86.3386 83.4663L86.1856 83.7223C85.9257 84.1102 85.7101 84.5269 85.5429 84.9645C85.4851 85.1479 85.7401 85.3347 85.883 85.1755C86.1643 84.8056 86.4027 84.4039 86.5937 83.9784C86.6923 83.7846 86.8045 83.5735 86.8895 83.3625L89.178 82.9161C88.6719 83.7069 88.2076 84.5247 87.7872 85.3659C87.641 85.6357 88.0355 85.8883 88.1885 85.6219C88.6917 84.7361 89.3412 83.795 89.6983 82.8192C90.749 82.622 91.7998 82.4317 92.8573 82.2622C92.1475 83.4402 91.5681 84.6946 91.1299 86.0025C91.1151 86.0531 91.119 86.1075 91.1407 86.1555C91.1624 86.2034 91.2004 86.2418 91.2478 86.2633C91.2952 86.2849 91.3486 86.2882 91.3982 86.2727C91.4479 86.2572 91.4902 86.2239 91.5175 86.179L91.5515 86.1201C92.355 85.9395 93.1421 85.6907 93.9046 85.3762C94.4419 85.1928 94.9792 85.0302 95.5131 84.8226C95.173 85.6911 94.8534 86.5527 94.5235 87.4315L92.2248 88.1235C91.5685 88.3207 90.6708 88.4107 90.1641 88.8986C90.1515 88.9107 90.1422 88.9261 90.1372 88.9432C90.1323 88.9602 90.1319 88.9782 90.136 88.9954C90.1402 89.0127 90.1487 89.0285 90.1608 89.0412C90.173 89.054 90.1882 89.0633 90.2049 89.0681C90.885 89.2031 91.6739 88.8086 92.337 88.6148C93.0001 88.4211 93.6462 88.2342 94.3025 88.0405L93.5816 89.9712C93.1123 90.12 92.6567 90.3449 92.2214 90.5386C91.6637 90.7774 91.0823 90.9885 90.5518 91.2826C90.3716 91.3829 90.4736 91.6978 90.681 91.6286C91.2115 91.4694 91.7011 91.2272 92.2282 91.0161C92.6057 90.857 93.0035 90.7151 93.3844 90.5456C92.9491 91.7151 92.5207 92.888 92.099 94.0644C91.9596 94.452 92.5479 94.6215 92.6975 94.2444C93.1259 93.1487 93.5499 92.0495 93.9693 90.9469C94.444 91.73 94.9723 92.4781 95.5505 93.1856C95.7409 93.4313 96.1728 93.1268 95.9959 92.8673C95.4508 92.0155 94.8329 91.2143 94.1495 90.4729C94.4011 89.8132 94.6516 89.1523 94.901 88.4903C95.5437 89.7048 96.4992 90.8535 97.2405 91.9503C97.4513 92.2583 97.9614 91.9884 97.7506 91.677C96.9379 90.4764 96.1387 88.9851 95.1254 87.8986C95.436 87.0797 95.7432 86.2585 96.0469 85.435C96.2993 85.8823 96.5752 86.3154 96.8732 86.7326C97.3085 87.4246 97.7336 88.1512 98.1892 88.8398L98.213 88.8709C98.2776 89.0992 98.6925 89.075 98.7333 88.7775L99.1108 86.1686C99.2288 85.6684 99.2949 85.1569 99.308 84.6427C100.015 85.4247 100.716 86.2113 101.409 87.0025C101.204 87.5065 101.046 88.0289 100.937 88.563C100.755 89.1659 100.614 89.7809 100.515 90.4037C100.485 90.6355 100.811 90.6494 100.886 90.4625C101.108 89.8462 101.287 89.2149 101.423 88.5733C101.542 88.172 101.638 87.7642 101.712 87.3519C102.354 88.0901 102.991 88.8328 103.623 89.5802C103.514 89.9816 103.429 90.3899 103.283 90.7843C103.043 91.3222 102.838 91.8759 102.671 92.4417C102.66 92.4787 102.662 92.5186 102.677 92.5541C102.693 92.5895 102.72 92.618 102.755 92.6341C102.79 92.6503 102.829 92.653 102.866 92.6418C102.902 92.6305 102.933 92.6061 102.953 92.5732C103.284 92.0635 103.515 91.4937 103.633 90.895C103.729 90.5767 103.82 90.2549 103.888 89.9262C104.715 90.9089 105.534 91.9019 106.337 92.9019C106.629 93.2894 107.153 92.7911 106.857 92.4278ZM95.343 76.2451C95.377 75.5808 95.5267 74.6985 95.258 74.0618C95.6369 74.5866 95.9877 75.1317 96.3088 75.695C96.8172 76.7198 97.2119 77.7991 97.4853 78.9128C97.5032 78.986 97.5483 79.0493 97.6111 79.0893C97.5626 79.1304 97.5298 79.1877 97.5186 79.251C97.5074 79.3142 97.5185 79.3795 97.5499 79.4353L96.9787 80.9543L96.9005 81.1549C96.2816 80.5114 95.6559 79.8782 95.0268 79.2485C95.1868 78.2541 95.2923 77.2514 95.343 76.2451ZM92.8131 81.8331C92.32 81.4214 91.8134 81.0235 91.3135 80.6186C91.0007 80.3626 90.6844 80.0512 90.341 79.809C90.9463 79.8332 91.5855 79.7467 92.1534 79.7225C92.9403 79.7476 93.7279 79.7141 94.5099 79.6221C95.0631 80.1873 95.6162 80.757 96.1694 81.3314L96.0333 81.3522L92.8131 81.8331ZM93.4932 85.0544C92.9389 85.2517 92.3438 85.4005 91.793 85.6634C92.3974 84.5892 92.8875 83.4525 93.2552 82.2726C93.2568 82.2588 93.2568 82.2448 93.2552 82.231C94.0985 82.0995 94.9554 81.9819 95.7919 81.885L96.591 81.7951L96.6216 81.8297C96.311 82.6509 95.9993 83.4709 95.6865 84.2898C94.969 84.5285 94.2379 84.7949 93.5068 85.0544H93.4932ZM97.6179 81.1169C97.8446 80.4872 98.0804 79.8574 98.3252 79.2277C99.0257 78.7744 99.7364 78.3454 100.474 77.9579C100.95 77.7087 101.474 77.5184 101.974 77.2901C101.634 77.6603 101.338 78.0963 101.032 78.4873C100.451 79.2346 99.7568 79.9647 99.3046 80.7986C99.288 80.8329 99.281 80.8712 99.2842 80.9093C98.7299 80.982 98.1722 81.0477 97.6179 81.1169ZM98.5667 86.1651C98.4715 86.8052 98.3729 87.4419 98.2776 88.0785C97.9104 87.5111 97.5295 86.954 97.1555 86.39C96.8494 85.9264 96.5978 85.352 96.1864 84.9714L97.1555 82.366C97.7608 83.0095 98.3626 83.6635 98.9611 84.3174C98.6449 84.8434 98.6585 85.5873 98.5667 86.172V86.1651ZM97.4479 81.7016L99.597 81.4767C100.451 82.5147 101.494 83.4593 102.433 84.4178L100.944 84.3555C100.604 84.3278 100.264 84.3186 99.9235 84.3278C99.0801 83.4421 98.2606 82.5701 97.4479 81.7016Z" fill="white"/>
<defs>
<clipPath id="clip0_319_6319">
<rect width="71.7664" height="21.8948" fill="white" transform="translate(115.556 176.865)"/>
</clipPath>
<clipPath id="clip1_319_6319">
<rect width="10.9474" height="15.8129" fill="white" transform="translate(181.241 175.649)"/>
</clipPath>
</defs>
</svg>
