<svg width="405" height="226" viewBox="0 0 405 226" fill="none" xmlns="http://www.w3.org/2000/svg">
<path d="M293.37 208.575L292.967 208.48L289.236 207.567L285.202 206.59L279.415 205.189L275.694 204.282L270.274 197.992C270.266 197.985 270.259 197.976 270.254 197.966C270.249 197.956 270.247 197.945 270.247 197.934C270.247 197.923 270.249 197.912 270.254 197.902C270.259 197.892 270.266 197.883 270.274 197.876H270.309L279.218 196.984L281.804 196.727L288.016 196.122C288.048 196.12 288.08 196.127 288.109 196.142C288.137 196.157 288.161 196.18 288.177 196.208L288.333 196.566C288.419 196.767 288.535 197.045 288.686 197.392C288.953 198.007 289.301 198.829 289.695 199.741C290.768 202.261 292.14 205.491 292.871 207.26C293.108 207.845 293.279 208.268 293.34 208.454C293.37 208.545 293.4 208.575 293.37 208.575Z" fill="#1D4C91"/>
<path d="M319.073 209.649L324.477 215.918H324.503L345.718 221.058C345.727 221.061 345.737 221.061 345.746 221.058C345.756 221.055 345.764 221.05 345.769 221.042C345.775 221.034 345.778 221.024 345.778 221.015C345.778 221.005 345.774 220.996 345.768 220.988L336.976 207.849C336.959 207.822 336.935 207.799 336.907 207.784C336.878 207.769 336.846 207.762 336.814 207.764L319.113 209.518C319.1 209.521 319.087 209.528 319.078 209.537C319.068 209.547 319.06 209.559 319.056 209.572C319.052 209.585 319.052 209.599 319.054 209.612C319.057 209.626 319.064 209.638 319.073 209.649Z" fill="#1D4C91"/>
<path d="M286.488 199.947L293.249 208.424C293.261 208.442 293.277 208.456 293.296 208.466C293.315 208.476 293.336 208.481 293.357 208.481C293.379 208.481 293.4 208.476 293.419 208.466C293.438 208.456 293.454 208.442 293.466 208.424L306.806 185.337C306.816 185.32 306.822 185.3 306.824 185.28C306.825 185.26 306.822 185.24 306.815 185.221C306.808 185.202 306.796 185.185 306.782 185.171C306.767 185.157 306.75 185.147 306.731 185.141L296.869 181.986C296.84 181.976 296.808 181.977 296.78 181.988C296.751 181.999 296.728 182.02 296.713 182.046L286.478 199.816L286.488 199.947Z" fill="#1D4C91"/>
<path d="M340.369 143.785V143.755L333.129 136.967H333.099L338.599 214.119L338.685 214.305L345.743 220.998C345.751 221.004 345.76 221.007 345.769 221.008C345.778 221.009 345.788 221.007 345.796 221.003C345.804 220.999 345.811 220.992 345.816 220.984C345.821 220.976 345.824 220.967 345.824 220.958L340.369 143.785Z" fill="#1D4C91"/>
<path d="M306.706 164.443L319.385 167.643L310.84 176.956L301.382 174.703L306.706 164.443Z" fill="#1D4C91"/>
<path d="M312.554 154.303L325.234 157.508L316.663 166.927L307.205 164.674L312.554 154.303Z" fill="#1D4C91"/>
<path d="M338.599 214.154V214.084L338.296 209.835L337.086 192.866L333.103 136.982V136.946C333.102 136.933 333.096 136.921 333.087 136.911C333.078 136.901 333.066 136.894 333.053 136.891L316.224 132.889L309.72 131.342C309.708 131.338 309.695 131.338 309.683 131.343C309.671 131.348 309.661 131.356 309.654 131.367L307.376 135.213L306.402 136.856L296.929 152.841L296.107 154.232L295.467 155.316L289.417 165.521L287.143 169.366L285.086 172.849L281.023 179.718L278.88 183.377L276.919 186.693L270.289 197.891C270.284 197.899 270.281 197.908 270.28 197.918C270.279 197.927 270.281 197.937 270.285 197.945C270.289 197.954 270.295 197.961 270.303 197.967C270.311 197.972 270.32 197.976 270.329 197.977L276.989 199.564L279.288 200.114L283.241 201.056L287.905 202.165L288.242 202.235L288.268 202.2L288.883 201.147L289.689 199.771L291.933 195.946L295.921 189.137C295.926 189.125 295.936 189.115 295.948 189.11C295.96 189.104 295.974 189.103 295.986 189.107L303.549 190.931L318.351 194.489C318.364 194.492 318.375 194.5 318.383 194.51C318.391 194.52 318.396 194.532 318.397 194.545L319.047 209.543V209.583C319.048 209.597 319.053 209.609 319.063 209.62C319.072 209.63 319.084 209.636 319.097 209.639L338.584 214.204L338.599 214.154ZM310.839 176.961L306.473 175.918L305.465 175.676L303.448 175.172C303.438 175.17 303.428 175.165 303.42 175.157C303.412 175.15 303.407 175.141 303.404 175.131C303.401 175.12 303.4 175.109 303.403 175.099C303.405 175.089 303.41 175.079 303.418 175.071L312.054 165.975C312.062 165.967 312.067 165.958 312.069 165.947C312.072 165.937 312.072 165.926 312.068 165.916C312.065 165.905 312.06 165.896 312.052 165.889C312.044 165.881 312.034 165.876 312.024 165.874L308.263 164.977C308.25 164.973 308.238 164.966 308.23 164.955C308.221 164.944 308.217 164.93 308.218 164.916C308.215 164.91 308.213 164.903 308.213 164.896C308.213 164.889 308.215 164.882 308.218 164.876L308.258 164.836L317.086 156.268C317.091 156.261 317.099 156.255 317.107 156.251C317.115 156.247 317.124 156.245 317.134 156.245C317.143 156.245 317.152 156.247 317.16 156.251C317.169 156.255 317.176 156.261 317.182 156.268L319.813 163.45L321.502 168.041C321.506 168.051 321.507 168.063 321.506 168.073C321.504 168.084 321.499 168.094 321.491 168.103C321.484 168.111 321.475 168.117 321.464 168.121C321.454 168.124 321.442 168.124 321.432 168.122L318.866 167.507L318.74 167.477L317.454 167.164C317.443 167.162 317.432 167.163 317.421 167.166C317.411 167.17 317.401 167.176 317.394 167.184C317.386 167.192 317.381 167.202 317.378 167.212C317.376 167.223 317.376 167.234 317.378 167.245L317.973 169.17L321.094 179.31C321.096 179.32 321.095 179.331 321.092 179.341C321.089 179.351 321.083 179.36 321.076 179.367C321.068 179.374 321.059 179.38 321.049 179.383C321.039 179.386 321.029 179.387 321.018 179.385L310.839 176.961Z" fill="#1D4C91"/>
<g style="mix-blend-mode:darken">
<path d="M292.966 208.484L289.236 207.572L285.202 206.595C284.532 204.71 283.831 202.729 283.241 201.051L281.814 197.019V196.742L281.053 179.718L285.117 172.849L287.174 169.367L289.447 165.521L291.545 191.022L291.948 195.936L292.896 207.28L292.956 208.026L292.966 208.484Z" fill="#1D4C91"/>
</g>
<g style="mix-blend-mode:darken">
<path d="M316.219 132.884V153.265H297.101L296.944 152.842L306.397 136.851L307.37 135.208L309.649 131.362C309.656 131.351 309.666 131.343 309.678 131.338C309.689 131.334 309.703 131.333 309.715 131.337L316.219 132.884Z" fill="#1D4C91"/>
</g>
<path d="M261.189 203.909L268.192 208.41L287.496 207.432C287.632 207.432 287.416 206.263 287.32 206.172L277.917 197.065C277.893 197.043 277.864 197.027 277.832 197.021C277.799 197.015 277.766 197.018 277.736 197.03L261.189 203.768C261.176 203.775 261.166 203.785 261.158 203.798C261.151 203.81 261.147 203.824 261.147 203.839C261.147 203.853 261.151 203.867 261.158 203.879C261.166 203.892 261.176 203.902 261.189 203.909Z" fill="#1D4C91"/>
<path d="M281.401 202.715C281.401 202.715 287.617 207.331 287.612 207.25L284.224 142.264C284.221 142.235 284.207 142.209 284.186 142.189C284.164 142.17 284.137 142.159 284.108 142.158C282.989 142.117 273.758 141.825 273.763 142.349C273.768 142.873 281.103 200.482 281.325 202.321C281.338 202.455 281.364 202.586 281.401 202.715Z" fill="#1D4C91"/>
<path d="M270.713 139.945L284.522 150.025C284.583 150.065 284.655 150.086 284.728 150.085L312.664 148.674C312.686 148.672 312.706 148.663 312.722 148.649C312.739 148.635 312.75 148.617 312.756 148.596C312.761 148.575 312.76 148.553 312.753 148.533C312.746 148.513 312.732 148.495 312.715 148.483L301.265 141.251C301.22 141.175 301.018 140.47 300.973 140.464L270.924 139.401C270.862 139.403 270.802 139.423 270.751 139.459C270.7 139.495 270.661 139.545 270.639 139.603C270.616 139.661 270.611 139.725 270.624 139.785C270.637 139.846 270.668 139.902 270.713 139.945Z" fill="#1D4C91"/>
<path d="M266.049 150.272L258.512 150.619L258.457 151.375H258.24L249.73 151.809L240.216 152.282L232.81 148.125C232.793 148.116 232.778 148.104 232.768 148.088C232.758 148.071 232.753 148.053 232.753 148.034C232.753 148.015 232.758 147.997 232.768 147.98C232.778 147.964 232.793 147.952 232.81 147.943H232.855L241.93 147.379L247.148 147.051L258.366 146.346L258.633 146.487L258.845 146.593L266.049 150.272Z" fill="#1D4C91"/>
<path d="M311.737 130.461C311.901 130.57 312.015 130.741 312.054 130.934C312.054 130.934 312.876 146.094 312.992 148.341C312.993 148.369 312.987 148.397 312.974 148.421C312.961 148.446 312.941 148.466 312.918 148.48C312.894 148.494 312.866 148.501 312.838 148.501C312.811 148.501 312.784 148.492 312.76 148.478C311.6 147.767 306.71 144.758 305.843 144.194L304.784 126.222C304.794 126.091 311.737 130.461 311.737 130.461Z" fill="#1D4C91"/>
<path d="M284.375 145.202L305.843 144.194V144.032L304.86 126.308C304.857 126.292 304.849 126.278 304.837 126.268C304.825 126.258 304.81 126.252 304.794 126.252L231.755 130.057L232.764 147.999H232.824L241.934 147.495L247.163 147.212L257.967 146.588L258.199 150.644L258.239 151.395L258.274 152.01L258.325 152.902L261.133 203.39V203.692V203.737H261.274L281.396 202.729L281.244 200.305L278.219 145.504H278.335L284.375 145.202Z" fill="#1D4C91"/>
<g style="mix-blend-mode:darken">
<path d="M257.377 151.451L257.967 146.598L257.72 146.406L252.865 142.692L252.013 146.764L251.978 146.925L250.964 151.778L257.377 151.451Z" fill="#1D4C91"/>
</g>
<path d="M204.319 208.072L209.865 213.288C209.881 213.304 209.902 213.316 209.925 213.321C209.948 213.325 209.972 213.324 209.994 213.315C210.016 213.306 210.035 213.292 210.049 213.272C210.063 213.253 210.07 213.23 210.071 213.207L216.716 148.775L217.725 138.922C217.728 138.904 217.727 138.885 217.721 138.867C217.714 138.849 217.704 138.833 217.689 138.821C217.296 138.433 214.16 135.369 212.804 133.973C212.622 133.792 212.3 133.973 212.274 134.225C211.569 140.867 204.293 208.072 204.319 208.072Z" fill="#1D4C91"/>
<path d="M237.866 210.218C238.345 210.773 243.79 215.928 244.925 217.027C244.939 217.041 244.949 217.06 244.952 217.081C244.956 217.101 244.953 217.122 244.944 217.141C244.935 217.159 244.921 217.175 244.903 217.185C244.885 217.195 244.865 217.2 244.844 217.198L225.6 215.127C225.58 215.123 225.561 215.114 225.544 215.102L219.545 209.845C219.538 209.836 219.533 209.826 219.53 209.815C219.528 209.804 219.528 209.793 219.531 209.782C219.534 209.771 219.54 209.761 219.547 209.753C219.555 209.745 219.564 209.738 219.575 209.734C221.304 209.341 236.248 208.313 237.866 210.218Z" fill="#1D4C91"/>
<path d="M190.839 211.597C190.855 211.609 190.874 211.618 190.894 211.622L209.95 213.329L203.161 206.713C201.542 204.808 186.599 205.836 184.87 206.229C184.859 206.233 184.179 205.598 184.823 206.242C185.468 206.887 190.839 211.597 190.839 211.597Z" fill="#1D4C91"/>
<path d="M239.454 211.841L245 217.057C245.017 217.073 245.039 217.084 245.062 217.089C245.085 217.093 245.109 217.091 245.131 217.083C245.153 217.074 245.172 217.06 245.187 217.041C245.201 217.022 245.21 217 245.212 216.976L251.862 152.544L252.87 142.692C252.872 142.673 252.87 142.655 252.864 142.637C252.858 142.62 252.848 142.604 252.835 142.591C252.441 142.203 249.305 139.139 247.949 137.743C247.768 137.561 247.445 137.743 247.445 137.995C246.689 144.642 239.414 211.821 239.454 211.841Z" fill="#1D4C91"/>
<path d="M227.506 135.5L224.572 162.79L215.371 161.782L209.376 161.137L212.31 133.842L192.391 131.705L189.038 163.002L184.435 205.839V205.92H184.5L187.087 206.197L189.673 206.474L204.319 208.072V208.011L205.731 194.863L205.801 194.207C205.968 192.665 206.144 191.032 206.306 189.329L206.961 183.281L207.39 179.295V179.229H207.47L213.51 179.849L222.585 180.822H222.62V180.857L221.925 187.338L219.525 209.694H219.585L239.455 211.846V211.786L242.631 182.228L242.807 180.6L243.518 174.008L243.695 172.355L243.962 169.886L247.426 137.632L227.506 135.5Z" fill="#1D4C91"/>
<path d="M207.47 179.269L212.824 186.401C212.828 186.403 212.832 186.404 212.836 186.404C212.841 186.404 212.845 186.403 212.849 186.401L221.894 187.368C221.894 187.368 221.929 187.368 221.934 187.338L222.63 180.857C222.63 180.847 222.626 180.838 222.62 180.83C222.613 180.823 222.604 180.818 222.595 180.817L207.505 179.194C207.495 179.189 207.483 179.189 207.473 179.192C207.463 179.196 207.454 179.204 207.449 179.214C207.445 179.224 207.444 179.236 207.448 179.246C207.452 179.256 207.459 179.265 207.47 179.269Z" fill="#1D4C91"/>
<g style="mix-blend-mode:darken">
<path d="M204.319 203.737L195.849 205.335L189.673 206.499L185.875 207.23L184.414 205.854L189.017 163.001L204.319 203.737Z" fill="#1D4C91"/>
</g>
<path d="M148.891 203.354H148.78L132.646 204.287L131.214 204.367L126.939 204.614L121.943 201.449L119.926 200.179C119.917 200.174 119.909 200.165 119.904 200.156C119.898 200.146 119.896 200.135 119.896 200.124C119.896 200.113 119.898 200.102 119.904 200.092C119.909 200.083 119.917 200.074 119.926 200.069L123.203 198.708L135.434 193.633L136.347 193.255C136.369 193.244 136.393 193.238 136.417 193.238C136.442 193.238 136.466 193.244 136.488 193.255L136.528 193.28C136.528 193.28 138.041 194.48 139.962 196.057C140.602 196.561 141.288 197.125 141.978 197.69C145.129 200.245 148.533 203.022 148.86 203.339L148.891 203.354Z" fill="#1D4C91"/>
<path d="M139.78 197.191L148.704 203.335C148.722 203.348 148.743 203.356 148.765 203.359C148.787 203.362 148.809 203.359 148.83 203.351C148.85 203.343 148.869 203.33 148.883 203.313C148.897 203.296 148.907 203.276 148.911 203.254L154.961 177.29C154.965 177.27 154.965 177.249 154.961 177.229C154.956 177.21 154.948 177.191 154.935 177.175C154.922 177.159 154.906 177.146 154.888 177.137C154.87 177.128 154.85 177.124 154.83 177.123L144.479 176.972C144.448 176.97 144.418 176.98 144.393 177C144.369 177.019 144.353 177.047 144.348 177.078L139.725 197.05L139.78 197.191Z" fill="#1D4C91"/>
<path d="M166.788 197.912L173.821 202.558C173.843 202.566 173.866 202.566 173.887 202.558L198.425 201.142C198.447 201.141 198.469 201.133 198.487 201.12C198.505 201.106 198.518 201.088 198.525 201.066C198.532 201.045 198.533 201.022 198.527 201.001C198.52 200.979 198.508 200.96 198.49 200.946L186.39 191.033C186.366 191.011 186.336 190.996 186.304 190.99C186.272 190.984 186.239 190.986 186.209 190.997C186.209 190.997 168.87 196.984 166.808 197.72C166.789 197.727 166.772 197.739 166.759 197.754C166.747 197.77 166.739 197.789 166.737 197.81C166.735 197.83 166.738 197.85 166.747 197.868C166.757 197.886 166.771 197.901 166.788 197.912Z" fill="#1D4C91"/>
<path d="M170.988 128.762L170.963 128.737L162.926 123.985C162.926 123.985 162.049 124.347 162.054 124.363L189.758 196.586L189.894 196.737L198.616 201.087C198.625 201.093 198.635 201.096 198.646 201.096C198.656 201.095 198.666 201.091 198.674 201.084C198.682 201.076 198.687 201.067 198.688 201.056C198.69 201.046 198.687 201.035 198.682 201.026L170.988 128.762Z" fill="#1D4C91"/>
<path d="M151.986 143.292C151.77 143.982 146.849 169.75 146.849 169.75L156.327 168.797L158.167 159.257L151.986 143.292Z" fill="#1D4C91"/>
<path d="M188.185 192.535L187.817 191.527V191.477L162.947 123.995L139.095 125.422L128.109 168.062L119.966 199.782L119.896 200.054H119.946L122.674 199.883L134.406 199.157L136.821 199.006L141.752 198.704L141.787 198.562L142.009 197.686L145.477 183.998L153.479 183.761L161.767 183.519L166.637 197.801H166.768L189.743 196.698L188.185 192.535ZM156.589 167.458L147.544 167.891L152.48 146.281L157.668 161.874L159.478 167.316L156.589 167.458Z" fill="#1D4C91"/>
<g style="mix-blend-mode:darken">
<path d="M136.861 198.92L136.796 199L132.626 204.292L131.194 204.373L126.919 204.619L121.923 201.455L122.649 199.877L123.198 198.688L131.769 180.021L132.046 181.054L135.429 193.613L136.861 198.92Z" fill="#1D4C91"/>
</g>
<path d="M133.972 189.062C133.543 190.155 128.557 204.614 113.452 206.701C106.349 207.709 98.1962 206.6 92.61 203.878C91.6243 203.404 90.6828 202.842 89.7968 202.2C89.6052 202.064 89.4136 201.923 89.2271 201.772C87.5093 200.405 85.9591 198.841 84.6089 197.11C83.4628 195.645 82.4136 194.106 81.4679 192.504C81.3973 192.388 81.3318 192.267 81.2662 192.161C77.9949 186.447 75.7366 180.21 74.5911 173.726C74.5893 173.703 74.5893 173.679 74.5911 173.656C74.7473 173.771 77.5505 175.989 81.3267 178.952L82.0628 179.532L85.1433 181.946L86.7516 183.211C86.9381 183.357 87.1297 183.503 87.3112 183.654C91.642 187.041 96.1241 190.549 99.0987 192.857C100.767 194.147 101.962 195.059 102.376 195.377C104.624 196.964 122.598 191.748 122.598 191.748L126.631 191.133C126.772 191.133 131.013 181.482 131.784 179.854C131.89 179.854 133.801 188.109 133.977 188.961C133.984 188.994 133.982 189.029 133.972 189.062Z" fill="#1D4C91"/>
<path d="M132.066 149.611L119.054 154.338L116.326 150.811V150.78L132.57 144.556L132.066 149.596V149.611Z" fill="#1D4C91"/>
<path d="M113.16 143.83C113.402 144.239 114.168 144.884 112.615 144.738C111.063 144.591 108.325 145.418 106.339 149.535C103.187 156.062 102.376 165.294 102.038 169.487C101.7 173.68 101.625 184.848 104.14 186.799C106.656 188.749 109.001 190.725 109.001 190.725C107.904 191.005 106.875 191.504 105.976 192.191C104.271 193.416 87.3616 193.622 87.2255 187.152C87.0894 180.681 90.4068 139.214 90.4068 139.214C90.4068 139.214 105.27 131.065 106.076 132.159C106.747 133.041 111.456 140.958 113.16 143.83Z" fill="#1D4C91"/>
<path d="M129.545 135.5C125.804 129.07 119.134 125.421 110.311 124.166C102.86 123.103 96.4013 124.499 90.9361 128.399C90.8201 128.475 90.7042 128.561 90.5882 128.651C90.0286 129.064 89.4841 129.498 88.9446 129.967C88.1847 130.624 87.4594 131.32 86.7717 132.053C80.5267 138.658 76.6076 147.965 75.0145 159.973C74.3755 164.496 74.2419 169.077 74.6162 173.63C74.6144 173.654 74.6144 173.677 74.6162 173.701C75.1808 179.789 76.8395 185.104 79.5923 189.646C80.1086 190.506 80.669 191.339 81.2712 192.141C83.1828 194.766 85.5556 197.022 88.2741 198.798C88.5816 199.005 88.9043 199.207 89.2219 199.393L89.6757 199.655C90.7148 200.24 91.791 200.757 92.8973 201.202C95.2348 202.125 97.6735 202.768 100.162 203.117C107.678 204.186 114.35 202.587 120.178 198.32C122.85 196.316 125.137 193.846 126.929 191.027C129.359 187.313 131.259 181.618 131.774 179.995C131.791 179.928 131.791 179.857 131.774 179.789C131.763 179.696 131.726 179.609 131.668 179.536C131.61 179.463 131.533 179.407 131.446 179.376L116.558 173.686C116.558 173.686 113.805 179.033 112.651 180.641C110.044 184.254 107.059 185.887 103.228 185.479C103.082 185.479 102.935 185.448 102.779 185.423L102.547 185.388C99.6431 184.887 97.5659 183.066 96.3156 179.925C95.035 176.699 94.9442 170.914 96.0433 162.568C98.0096 147.688 102.219 140.709 108.673 141.633C109.642 141.766 110.572 142.101 111.403 142.618C112.234 143.135 112.946 143.821 113.493 144.632C113.543 144.698 113.588 144.763 113.634 144.834C113.862 145.181 114.068 145.543 114.249 145.917C114.753 146.986 116.008 150.105 116.23 150.654C116.234 150.666 116.24 150.676 116.248 150.685C116.256 150.694 116.266 150.701 116.277 150.706C116.287 150.711 116.299 150.714 116.311 150.715C116.323 150.716 116.335 150.714 116.346 150.71L132.48 144.516C132.495 144.511 132.508 144.501 132.517 144.487C132.525 144.473 132.528 144.457 132.525 144.441C132.475 143.911 131.708 139.25 129.545 135.5Z" fill="#1D4C91"/>
<path d="M286.256 200.603L285.837 200.512L282.106 199.6L278.073 198.622L272.285 197.221L268.564 196.314L263.15 190.035C263.141 190.028 263.134 190.019 263.13 190.009C263.125 189.999 263.122 189.988 263.122 189.977C263.122 189.966 263.125 189.955 263.13 189.945C263.134 189.935 263.141 189.926 263.15 189.919H263.185L272.078 189.037L274.665 188.78L280.876 188.175C280.908 188.173 280.941 188.179 280.969 188.195C280.998 188.21 281.021 188.233 281.037 188.261L281.194 188.619C281.279 188.82 281.395 189.097 281.547 189.445C281.814 190.06 282.162 190.881 282.555 191.794C283.629 194.313 285 197.544 285.731 199.313C285.968 199.897 286.14 200.321 286.2 200.507C286.256 200.568 286.261 200.603 286.256 200.603Z" fill="#4AA256" stroke="#2D2D2C" stroke-width="1.32607" stroke-miterlimit="10"/>
<path d="M311.959 201.676L317.363 207.94H317.388L338.604 213.111C338.613 213.114 338.623 213.114 338.632 213.111C338.641 213.108 338.649 213.102 338.655 213.094C338.661 213.087 338.664 213.077 338.663 213.067C338.663 213.058 338.66 213.048 338.654 213.041L329.862 199.902C329.846 199.873 329.823 199.85 329.794 199.834C329.765 199.819 329.733 199.813 329.7 199.816L312.004 201.56C311.992 201.563 311.981 201.569 311.972 201.577C311.962 201.585 311.955 201.595 311.951 201.606C311.946 201.618 311.945 201.63 311.946 201.642C311.947 201.654 311.952 201.666 311.959 201.676Z" fill="#4AA256" stroke="#2D2D2C" stroke-width="1.32607" stroke-miterlimit="10"/>
<path d="M279.374 191.975L286.135 200.452C286.147 200.469 286.164 200.484 286.183 200.494C286.203 200.504 286.224 200.509 286.246 200.509C286.267 200.509 286.289 200.504 286.308 200.494C286.327 200.484 286.344 200.469 286.357 200.452L299.692 177.33C299.702 177.313 299.708 177.293 299.709 177.274C299.711 177.254 299.708 177.234 299.701 177.216C299.693 177.197 299.682 177.181 299.667 177.167C299.653 177.154 299.635 177.144 299.616 177.138L289.755 173.983C289.726 173.974 289.694 173.974 289.666 173.985C289.637 173.996 289.613 174.017 289.598 174.044L279.364 191.809L279.374 191.975Z" fill="#E83D3E" stroke="#2D2D2C" stroke-width="1.32607" stroke-miterlimit="10"/>
<path d="M333.254 135.813V135.783L326.029 128.994H325.999L331.5 206.152L331.585 206.333L338.644 213.026C338.651 213.032 338.66 213.035 338.669 213.036C338.679 213.037 338.688 213.035 338.696 213.031C338.705 213.026 338.712 213.02 338.717 213.012C338.722 213.004 338.724 212.995 338.724 212.986L333.254 135.813Z" fill="#E9C547" stroke="#2D2D2C" stroke-width="1.32607" stroke-miterlimit="10"/>
<path d="M299.591 156.465L312.271 159.666L303.725 168.984L294.267 166.726L299.591 156.465Z" fill="#E83D3E" stroke="#2D2D2C" stroke-width="1.32607" stroke-miterlimit="10"/>
<path d="M305.439 146.331L318.119 149.536L309.548 158.955L300.09 156.697L305.439 146.331Z" fill="#E83D3E" stroke="#2D2D2C" stroke-width="1.32607" stroke-miterlimit="10"/>
<path d="M331.487 206.177V206.106L331.184 201.858L329.969 184.889L325.986 129.004V128.949C325.984 128.935 325.979 128.923 325.97 128.913C325.961 128.903 325.949 128.896 325.936 128.893L309.107 124.917L302.603 123.37C302.593 123.363 302.582 123.359 302.57 123.359C302.558 123.359 302.547 123.363 302.537 123.37L300.258 127.215L299.285 128.858L289.832 144.849L289.01 146.24L288.36 147.339L282.31 157.544L280.036 161.389L277.979 164.872L273.916 171.741L271.753 175.399L269.791 178.716L263.177 189.929C263.172 189.937 263.168 189.946 263.168 189.955C263.167 189.965 263.169 189.974 263.173 189.983C263.177 189.992 263.183 189.999 263.191 190.005C263.199 190.01 263.208 190.013 263.217 190.014L269.877 191.602L272.176 192.151L276.129 193.094L280.792 194.202L281.13 194.273L281.155 194.238L281.771 193.184L282.577 191.809L284.821 187.984L288.809 181.185C288.814 181.173 288.824 181.163 288.836 181.158C288.848 181.152 288.862 181.151 288.874 181.155L296.437 182.979L311.239 186.537C311.252 186.54 311.263 186.547 311.271 186.557C311.279 186.567 311.284 186.58 311.285 186.593L311.935 201.591V201.651C311.936 201.665 311.941 201.677 311.951 201.688C311.96 201.698 311.972 201.704 311.985 201.707L331.471 206.272L331.487 206.177ZM303.727 168.984L299.361 167.941L298.353 167.699L296.336 167.195C296.326 167.192 296.316 167.187 296.308 167.18C296.3 167.173 296.295 167.164 296.291 167.153C296.288 167.143 296.288 167.132 296.291 167.122C296.293 167.111 296.298 167.102 296.306 167.094L304.932 157.977C304.939 157.97 304.945 157.96 304.947 157.95C304.95 157.939 304.949 157.928 304.946 157.918C304.943 157.908 304.937 157.899 304.93 157.891C304.922 157.884 304.912 157.879 304.902 157.876L301.141 156.979C301.127 156.976 301.116 156.968 301.107 156.957C301.099 156.946 301.095 156.933 301.095 156.919C301.093 156.913 301.091 156.906 301.091 156.899C301.091 156.892 301.093 156.885 301.095 156.879L301.136 156.838L309.964 148.246C309.971 148.239 309.98 148.235 309.989 148.233C309.999 148.231 310.009 148.231 310.018 148.233C310.028 148.236 310.036 148.241 310.043 148.247C310.051 148.254 310.056 148.262 310.059 148.271L312.691 155.452L314.38 160.044C314.384 160.054 314.385 160.065 314.383 160.076C314.381 160.087 314.377 160.097 314.369 160.105C314.362 160.114 314.353 160.12 314.342 160.123C314.332 160.126 314.32 160.127 314.31 160.124L311.743 159.509L311.617 159.479L310.332 159.167C310.321 159.165 310.31 159.165 310.299 159.169C310.289 159.172 310.279 159.178 310.272 159.186C310.264 159.194 310.259 159.204 310.256 159.215C310.253 159.225 310.253 159.237 310.256 159.247L310.851 161.172L313.972 171.312C313.974 171.323 313.973 171.333 313.97 171.343C313.966 171.353 313.961 171.362 313.954 171.37C313.946 171.377 313.937 171.383 313.927 171.386C313.917 171.389 313.907 171.39 313.896 171.388L303.727 168.984Z" fill="white" stroke="#2D2D2C" stroke-width="1.32607" stroke-miterlimit="10"/>
<path d="M278.073 198.622C277.403 196.737 276.702 194.757 276.112 193.078L274.685 189.047V188.77L273.924 171.746L277.988 164.876L278.966 164.092L282.582 158.283L284.416 183.05L284.458 187.304L278.073 198.622Z" fill="#EDEDED"/>
<path d="M309.105 125.531V145.911H289.987L290.542 144.798L299.283 129.497L300.256 127.854L302.535 124.009C302.545 124.002 302.556 123.998 302.568 123.998C302.58 123.998 302.591 124.002 302.601 124.009L309.105 125.531Z" fill="#EDEDED"/>
<path d="M254.074 195.932L261.087 200.432L280.392 199.459C280.528 199.459 280.311 198.285 280.216 198.194L270.813 189.093C270.789 189.07 270.76 189.054 270.728 189.047C270.696 189.04 270.662 189.042 270.631 189.052L254.074 195.795C254.062 195.802 254.051 195.811 254.043 195.823C254.036 195.835 254.032 195.849 254.032 195.863C254.032 195.878 254.036 195.892 254.043 195.904C254.051 195.916 254.062 195.925 254.074 195.932Z" fill="#4AA256" stroke="#2D2D2C" stroke-width="1.32607" stroke-miterlimit="10"/>
<path d="M274.287 194.737C274.287 194.737 280.503 199.358 280.498 199.272L277.11 134.291C277.106 134.262 277.093 134.235 277.072 134.215C277.051 134.194 277.023 134.182 276.994 134.18C275.875 134.145 266.643 133.847 266.648 134.372C266.653 134.896 273.989 192.509 274.211 194.344C274.224 194.477 274.249 194.608 274.287 194.737Z" fill="#E83D3E" stroke="#2D2D2C" stroke-width="1.32607" stroke-miterlimit="10"/>
<path d="M263.613 131.973L277.422 142.052C277.482 142.097 277.555 142.118 277.629 142.113L305.565 140.706C305.586 140.704 305.607 140.696 305.623 140.682C305.639 140.668 305.651 140.649 305.656 140.628C305.662 140.607 305.661 140.585 305.654 140.565C305.646 140.545 305.633 140.527 305.615 140.515L294.166 133.278C294.12 133.202 293.919 132.492 293.873 132.492L263.825 131.423C263.762 131.424 263.7 131.444 263.648 131.481C263.596 131.517 263.557 131.568 263.534 131.627C263.511 131.686 263.506 131.75 263.521 131.812C263.535 131.873 263.567 131.929 263.613 131.973Z" fill="#4AA256" stroke="#2D2D2C" stroke-width="1.32607" stroke-miterlimit="10"/>
<path d="M258.935 142.299L251.398 142.662L251.342 143.418H251.125L242.615 143.851L233.101 144.355L225.695 140.198C225.678 140.189 225.664 140.177 225.654 140.161C225.644 140.144 225.638 140.126 225.638 140.107C225.638 140.088 225.644 140.07 225.654 140.053C225.664 140.037 225.678 140.025 225.695 140.016H225.735L234.81 139.447L240.029 139.124L251.246 138.419L251.514 138.56L251.725 138.661L258.935 142.299Z" fill="#4AA256" stroke="#2D2D2C" stroke-width="1.32607" stroke-miterlimit="10"/>
<path d="M304.623 122.498C304.705 122.551 304.775 122.62 304.829 122.7C304.884 122.781 304.922 122.872 304.941 122.967C304.941 122.967 305.762 138.126 305.878 140.374C305.88 140.402 305.874 140.429 305.861 140.454C305.847 140.478 305.828 140.499 305.804 140.513C305.78 140.527 305.753 140.534 305.725 140.533C305.697 140.533 305.67 140.525 305.646 140.51C304.487 139.799 299.596 136.791 298.729 136.231L297.67 118.255C297.68 118.119 304.623 122.498 304.623 122.498Z" fill="#E9C547" stroke="#2D2D2C" stroke-width="1.32607" stroke-miterlimit="10"/>
<path d="M277.266 137.224L298.734 136.216V136.05L297.736 118.315C297.734 118.299 297.727 118.283 297.715 118.272C297.702 118.261 297.687 118.255 297.67 118.255L224.631 122.06L225.64 140.006H225.705L234.81 139.502L240.039 139.215L250.863 138.625L251.095 142.657L251.135 143.408L251.171 144.023L251.221 144.92L254.019 195.392V195.7V195.745H254.16L274.282 194.737L274.13 192.308L271.105 137.511H271.216L277.266 137.224Z" fill="white" stroke="#2D2D2C" stroke-width="1.32607" stroke-miterlimit="10"/>
<path d="M250.153 138.019L245.751 134.714L245.595 138.447L250.153 138.019Z" fill="#EDEDED"/>
<path d="M195.631 198.496C196.11 199.051 201.555 204.206 202.715 205.305C202.73 205.32 202.74 205.339 202.744 205.36C202.747 205.381 202.744 205.403 202.734 205.422C202.725 205.441 202.709 205.456 202.691 205.466C202.672 205.476 202.65 205.479 202.629 205.476L183.365 203.41C183.349 203.415 183.331 203.415 183.315 203.41L177.31 198.149C177.303 198.14 177.298 198.129 177.296 198.118C177.294 198.106 177.295 198.095 177.298 198.084C177.302 198.073 177.308 198.063 177.316 198.055C177.324 198.047 177.334 198.041 177.345 198.038C179.075 197.594 194.013 196.566 195.631 198.496Z" fill="#4AA256" stroke="#2D2D2C" stroke-width="1.32607" stroke-miterlimit="10"/>
<path d="M197.205 200.094L202.751 205.31C202.767 205.326 202.788 205.337 202.811 205.342C202.834 205.346 202.858 205.345 202.88 205.337C202.902 205.329 202.921 205.315 202.935 205.297C202.95 205.279 202.959 205.257 202.962 205.234L209.607 140.797L210.616 130.944C210.619 130.926 210.617 130.907 210.611 130.889C210.605 130.872 210.594 130.856 210.58 130.844C210.187 130.461 207.051 127.391 205.695 125.995C205.513 125.814 205.191 125.995 205.165 126.247C204.455 132.895 197.179 200.074 197.205 200.094Z" fill="#E83D3E" stroke="#2D2D2C" stroke-width="1.32607" stroke-miterlimit="10"/>
<path d="M230.752 202.246C231.231 202.795 236.676 207.951 237.81 209.049C237.827 209.063 237.838 209.083 237.843 209.104C237.848 209.126 237.846 209.148 237.836 209.168C237.827 209.188 237.812 209.204 237.793 209.215C237.773 209.225 237.751 209.229 237.729 209.226L218.465 207.154C218.447 207.158 218.428 207.158 218.41 207.154L212.41 201.898C212.403 201.889 212.398 201.879 212.396 201.868C212.393 201.857 212.394 201.846 212.397 201.835C212.4 201.824 212.405 201.814 212.413 201.806C212.42 201.797 212.43 201.791 212.44 201.787C214.195 201.364 229.133 200.341 230.752 202.246Z" fill="#4AA256" stroke="#2D2D2C" stroke-width="1.32607" stroke-miterlimit="10"/>
<path d="M232.325 203.868L237.871 209.085C237.888 209.099 237.909 209.109 237.932 209.113C237.954 209.117 237.977 209.114 237.998 209.106C238.019 209.098 238.038 209.084 238.052 209.066C238.066 209.048 238.075 209.026 238.077 209.004L244.722 144.572L245.731 134.714C245.732 134.696 245.73 134.677 245.724 134.66C245.718 134.643 245.708 134.627 245.695 134.613C245.302 134.23 242.166 131.166 240.81 129.77C240.629 129.584 240.306 129.77 240.281 130.017C239.575 136.664 232.3 203.843 232.325 203.868Z" fill="#E9C547" stroke="#2D2D2C" stroke-width="1.32607" stroke-miterlimit="10"/>
<path d="M220.391 127.517L217.457 154.807L208.256 153.799L202.261 153.154L205.17 125.879L185.25 123.743L181.893 155.024L177.29 197.861V197.942H177.385L182.558 198.496L197.204 200.069V200.008L198.616 186.905L198.687 186.25C198.853 184.708 199.029 183.075 199.191 181.371L199.846 175.324L200.275 171.337V171.272H200.355L206.365 171.917L215.44 172.89H215.475V172.92L214.78 179.401L212.38 201.757H212.44L232.294 203.894V203.833L235.471 174.276L235.647 172.648L236.358 166.056L236.534 164.403L236.802 161.933L240.265 129.679L220.391 127.517Z" fill="white" stroke="#2D2D2C" stroke-width="1.32607" stroke-miterlimit="10"/>
<path d="M200.355 171.282L205.71 178.403C205.714 178.405 205.718 178.406 205.722 178.406C205.727 178.406 205.731 178.405 205.735 178.403L214.78 179.375C214.789 179.376 214.798 179.373 214.805 179.367C214.812 179.362 214.818 179.354 214.82 179.345L215.516 172.869C215.516 172.859 215.512 172.85 215.506 172.842C215.499 172.835 215.49 172.83 215.48 172.829L200.391 171.211C200.381 171.207 200.371 171.206 200.361 171.209C200.351 171.212 200.342 171.219 200.338 171.229C200.333 171.238 200.332 171.249 200.336 171.259C200.339 171.269 200.346 171.277 200.355 171.282Z" fill="#4AA256" stroke="#2D2D2C" stroke-width="1.32607" stroke-miterlimit="10"/>
<path d="M196.25 195.939L188.734 197.357L184.855 198.02L179.126 197.626L177.901 197.572L182.531 155.252L196.25 195.939Z" fill="#EDEDED"/>
<path d="M141.704 195.422L125.512 196.308L124.08 196.389L119.805 196.636L114.809 193.456L112.792 192.186C112.783 192.18 112.775 192.172 112.77 192.162C112.764 192.153 112.761 192.142 112.761 192.131C112.761 192.119 112.764 192.109 112.77 192.099C112.775 192.089 112.783 192.081 112.792 192.075L116.069 190.714L128.3 185.639L129.213 185.261C129.235 185.25 129.259 185.245 129.283 185.245C129.308 185.245 129.332 185.25 129.354 185.261L129.394 185.287C129.394 185.287 130.907 186.486 132.828 188.064C133.468 188.568 134.154 189.132 134.844 189.696C137.995 192.252 141.376 194.945 141.704 195.263V195.422Z" fill="#4AA256" stroke="#2D2D2C" stroke-width="1.32607" stroke-miterlimit="10"/>
<path d="M132.666 189.213L141.595 195.357L141.802 195.281L147.852 169.311C147.856 169.292 147.856 169.272 147.852 169.252C147.847 169.232 147.839 169.214 147.826 169.199C147.813 169.183 147.797 169.17 147.779 169.162C147.761 169.154 147.741 169.15 147.721 169.15L137.37 168.999C137.34 168.997 137.31 169.006 137.286 169.025C137.262 169.043 137.245 169.07 137.239 169.1L132.616 189.072L132.666 189.213Z" fill="#E83D3E" stroke="#2D2D2C" stroke-width="1.32607" stroke-miterlimit="10"/>
<path d="M159.674 189.929L166.707 194.575C166.729 194.58 166.751 194.58 166.773 194.575L191.311 193.159C191.332 193.157 191.352 193.149 191.369 193.136C191.386 193.123 191.399 193.105 191.406 193.085C191.412 193.064 191.413 193.043 191.408 193.022C191.403 193.001 191.392 192.982 191.376 192.968L179.276 183.055C179.252 183.032 179.223 183.017 179.191 183.01C179.158 183.004 179.125 183.007 179.095 183.019C179.095 183.019 161.766 188.971 159.704 189.717C159.68 189.72 159.658 189.731 159.641 189.748C159.623 189.765 159.612 189.787 159.609 189.811C159.605 189.835 159.61 189.86 159.621 189.881C159.633 189.902 159.652 189.919 159.674 189.929Z" fill="#4AA256" stroke="#2D2D2C" stroke-width="1.32607" stroke-miterlimit="10"/>
<path d="M163.874 120.784L155.833 116.031C155.833 116.031 154.955 116.394 154.96 116.404L182.665 188.628L182.801 188.784L191.503 193.134C191.511 193.14 191.522 193.143 191.532 193.142C191.543 193.142 191.553 193.138 191.56 193.13C191.568 193.123 191.573 193.114 191.575 193.103C191.576 193.093 191.574 193.082 191.568 193.073L163.874 120.784Z" fill="#E9C547" stroke="#2D2D2C" stroke-width="1.32607" stroke-miterlimit="10"/>
<path d="M144.872 135.314C144.655 136.009 139.734 161.772 139.734 161.772L149.213 160.82L151.053 151.279L144.872 135.314Z" fill="#E83D3E" stroke="#2D2D2C" stroke-width="1.32607" stroke-miterlimit="10"/>
<path d="M181.071 184.556L180.703 183.548V183.498L155.812 116.011L131.98 117.463L120.974 160.099L112.807 191.803L112.736 192.075H112.787L115.514 191.904L127.246 191.178L129.661 191.027L134.592 190.725L134.627 190.584L134.849 189.707L138.318 176.019L146.319 175.782L154.607 175.54L159.478 189.823H159.609L182.584 188.719L181.071 184.556ZM149.475 159.479L140.43 159.912L145.366 138.302L150.554 153.895L152.364 159.338L149.475 159.479Z" fill="white" stroke="#2D2D2C" stroke-width="1.32607" stroke-miterlimit="10"/>
<path d="M129.591 190.307L116.015 191.276L124.655 172.043L124.932 173.076L128.315 185.635L129.591 190.307Z" fill="#EDEDED"/>
<path d="M126.858 181.089C126.429 182.183 121.443 196.642 106.338 198.728C99.2343 199.736 91.0819 198.627 85.4957 195.901C84.5092 195.429 83.5675 194.869 82.6825 194.228C82.4909 194.091 82.2993 193.945 82.1178 193.794C80.3961 192.43 78.844 190.865 77.4946 189.132C76.3462 187.669 75.2969 186.13 74.3536 184.526C74.283 184.41 74.2175 184.294 74.157 184.189C70.8888 178.469 68.6356 172.226 67.4969 165.738C67.4952 165.715 67.4952 165.691 67.4969 165.668C67.6532 165.784 70.4564 167.996 74.2326 170.964L74.9687 171.544L78.0492 173.953C78.5533 174.376 79.118 174.795 79.6575 175.218C79.844 175.364 80.0356 175.515 80.2171 175.666C84.5479 179.053 89.03 182.556 92.0045 184.869C93.6733 186.159 94.8682 187.066 95.2816 187.364C97.5302 188.956 115.504 183.74 115.504 183.74L119.537 183.12C119.678 183.12 123.918 173.474 124.69 171.841C124.796 171.841 126.706 180.101 126.883 180.953C126.891 181 126.882 181.048 126.858 181.089Z" fill="#4AA256" stroke="#2D2D2C" stroke-width="1.32607" stroke-miterlimit="10"/>
<path d="M124.937 141.634L111.924 146.366L109.197 142.838V142.808L125.441 136.584L124.937 141.624C124.937 141.624 124.942 141.634 124.937 141.634Z" fill="#E9C547" stroke="#2D2D2C" stroke-width="1.32607" stroke-miterlimit="10"/>
<path d="M106.046 135.853C106.288 136.266 107.054 136.906 105.501 136.76C103.949 136.614 101.211 137.441 99.2245 141.563C96.0735 148.115 95.2617 157.322 94.924 161.515C94.5862 165.708 94.5105 176.876 97.0263 178.821C99.5421 180.767 101.887 182.747 101.887 182.747C100.789 183.029 99.7601 183.529 98.8615 184.219C97.1574 185.443 80.2476 185.65 80.1115 179.154C79.9754 172.658 83.2928 131.217 83.2928 131.217C83.2928 131.217 98.1557 123.067 98.9623 124.161C99.6329 125.068 104.337 132.98 106.046 135.853Z" fill="#E83D3E" stroke="#2D2D2C" stroke-width="1.32607" stroke-miterlimit="10"/>
<path d="M122.416 127.523C118.675 121.092 112.005 117.443 103.182 116.193C95.7306 115.125 89.2722 116.534 83.807 120.422L83.4591 120.679C82.8995 121.087 82.355 121.52 81.8155 121.994C81.0556 122.651 80.3303 123.348 79.6426 124.081C73.3976 130.686 69.4785 139.991 67.8854 151.995C67.2463 156.521 67.1127 161.103 67.4871 165.658C67.4853 165.681 67.4853 165.705 67.4871 165.728C68.0517 171.813 69.7104 177.128 72.4632 181.674C72.9818 182.534 73.5438 183.366 74.1471 184.169C76.056 186.801 78.4271 189.065 81.145 190.851C81.4525 191.053 81.7752 191.254 82.0979 191.446C82.2441 191.537 82.3953 191.622 82.5466 191.703C83.5836 192.292 84.66 192.809 85.7682 193.25C88.1042 194.178 90.5434 194.821 93.0333 195.165C100.549 196.237 107.221 194.638 113.049 190.367C115.721 188.364 118.008 185.893 119.8 183.075C122.23 179.361 124.13 173.671 124.645 172.043C124.661 171.975 124.661 171.904 124.645 171.836C124.633 171.744 124.597 171.657 124.539 171.584C124.481 171.511 124.404 171.455 124.317 171.423L109.459 165.738C109.459 165.738 106.706 171.086 105.552 172.688C102.945 176.307 99.9605 177.934 96.1289 177.531C95.9827 177.531 95.8364 177.501 95.6801 177.476C95.6045 177.476 95.5239 177.476 95.4482 177.436C92.5442 176.942 90.467 175.121 89.2167 171.973C87.9361 168.747 87.8454 162.962 88.9445 154.616C90.9107 139.739 95.1121 132.761 101.549 133.681C102.52 133.817 103.451 134.157 104.282 134.678C105.113 135.199 105.824 135.89 106.369 136.705C106.42 136.767 106.467 136.833 106.51 136.901C106.738 137.251 106.944 137.614 107.125 137.99C107.629 139.053 108.884 142.173 109.106 142.722C109.11 142.734 109.116 142.744 109.124 142.753C109.132 142.762 109.142 142.769 109.153 142.774C109.163 142.779 109.175 142.782 109.187 142.783C109.199 142.783 109.211 142.782 109.222 142.778L125.381 136.589C125.396 136.584 125.41 136.574 125.418 136.56C125.426 136.546 125.429 136.529 125.426 136.513C125.361 135.939 124.594 131.277 122.416 127.523Z" fill="white" stroke="#2D2D2C" stroke-width="1.32607" stroke-miterlimit="10"/>
<path d="M383.333 53.4947L384.15 43.8134C384.15 43.8134 380.716 40.5729 379.254 39.1467C379.217 39.1104 379.169 39.0865 379.118 39.0784C379.066 39.0703 379.014 39.0783 378.967 39.1013L359.35 37.4382L359.153 39.8069C359.153 39.8069 349.65 53.0562 342.732 63.07L343.816 50.1534L344.633 40.4721C344.633 40.4721 341.2 37.2266 339.743 35.8054C339.707 35.7766 339.665 35.7562 339.621 35.7459C339.576 35.7355 339.53 35.7354 339.485 35.7456C339.44 35.7558 339.399 35.776 339.363 35.8047C339.327 35.8334 339.298 35.8698 339.279 35.9112V35.7449L328.006 34.7924L323.902 34.4447L323.398 28.3416C323.398 28.3416 318.709 25.1414 317.201 24.0377C317.144 23.997 317.076 23.9736 317.006 23.9702C316.936 23.9668 316.866 23.9835 316.805 24.0185C316.744 24.0535 316.694 24.1053 316.662 24.1676C316.629 24.23 316.615 24.3003 316.622 24.3704C316.622 24.5568 316.657 24.7887 316.677 25.0356V24.7786L316.642 24.3653V24.3351L316.611 23.9823L296.737 25.7008L300.271 66.9607C294.952 53.787 276.278 51.2772 274.977 51.121H274.902C271.128 50.5178 267.308 50.2614 263.487 50.3549L262.726 42.6442L261.819 33.0336C261.818 33.015 261.812 32.997 261.802 32.9811C261.793 32.9653 261.779 32.9521 261.763 32.9429C261.314 32.6506 257.73 30.3172 256.167 29.2488C256.128 29.2267 256.085 29.215 256.041 29.215C255.996 29.215 255.953 29.2267 255.915 29.2488L236.524 30.927L237.029 36.5815L221.576 36.6571L221.707 63.4128L212.692 63.4531L212.576 50.6976L212.496 41.0416C212.496 41.0232 212.493 41.0049 212.485 40.9883C212.477 40.9716 212.465 40.9571 212.45 40.9459C212.027 40.6132 208.674 37.9876 207.192 36.7831C207.043 36.7111 206.964 36.7176 206.652 36.7226C206.652 39.2072 206.45 50.6938 206.505 63.4845L206.652 36.7226L200.038 36.7529H195.379L195.505 34.6765C195.505 34.6765 192.001 31.5116 190.504 30.1408C190.467 30.108 190.42 30.0867 190.371 30.0796C190.322 30.0724 190.272 30.0797 190.227 30.1005L170.564 28.901L170.423 31.2747C170.423 31.2747 161.237 44.7458 154.552 54.9058L155.328 41.979L155.923 32.2776C155.923 32.2776 152.394 29.1177 150.922 27.7419C150.886 27.7144 150.754 27.7188 150.71 27.7097C150.666 27.7007 150.471 27.6789 150.463 27.6966L130.659 26.487L129.782 40.8955L128.905 55.2535L124.367 37.3828V37.3576L117.127 31.8492L93.8902 30.554L93.1289 32.5296C91.0769 31.5922 87.0789 29.7981 87.0789 29.8737L16.9995 42.9769C17.4256 45.2102 19.3867 55.4249 19.3867 55.4249L27.0803 58.4839L44.3733 55.2787C47.3976 71.1087 51.9752 91.7689 55.4394 107.507L62.3041 110.034L80.3989 108.3L80.1415 106.326H81.9616L94.3591 107.061H94.4801C94.4801 107.061 94.4801 107.061 94.4801 107.036C94.4921 107.03 94.5028 107.021 94.5114 107.011C94.5201 107.001 94.5266 106.989 94.5305 106.976L101.135 88.6162L109.202 89.3167L112.292 103.7H112.423C112.413 103.72 112.409 103.743 112.414 103.765C112.419 103.787 112.431 103.807 112.449 103.821L118.731 109.118C118.748 109.132 118.769 109.141 118.791 109.143L142.704 110.554C142.731 110.555 142.758 110.546 142.778 110.528C142.799 110.51 142.812 110.485 142.815 110.458L142.875 110.503C142.884 110.509 142.894 110.512 142.904 110.511C142.914 110.511 142.924 110.507 142.932 110.501C142.94 110.495 142.946 110.487 142.95 110.478C142.953 110.468 142.953 110.458 142.951 110.448L141.383 104.254L145.855 104.537L151.491 104.894C151.491 104.894 151.491 104.894 151.517 104.894L151.557 104.92V104.663L151.708 102.576L167.67 77.6549C167.075 87.699 166.359 99.5573 166.269 100.989C166.261 101.015 166.261 101.043 166.269 101.069C166.263 101.075 166.258 101.082 166.255 101.089C166.252 101.096 166.251 101.104 166.251 101.112C166.251 101.12 166.252 101.128 166.255 101.135C166.258 101.143 166.263 101.149 166.269 101.155L172.581 106.195L176.75 106.411L187.413 107.087V109.571H187.524C187.515 109.578 187.507 109.586 187.502 109.596C187.497 109.606 187.494 109.618 187.494 109.629C187.494 109.641 187.497 109.652 187.502 109.662C187.507 109.672 187.515 109.681 187.524 109.687L193.912 114.122C193.93 114.128 193.95 114.128 193.968 114.122H194.81L212.854 114.031C212.873 114.031 212.892 114.026 212.908 114.015C212.924 114.004 212.937 113.989 212.944 113.971C212.951 113.953 212.952 113.933 212.948 113.914C212.943 113.895 212.934 113.878 212.919 113.865H212.944C212.963 113.878 212.985 113.885 213.007 113.886C213.03 113.888 213.052 113.883 213.073 113.873C213.093 113.862 213.11 113.847 213.122 113.828C213.134 113.809 213.14 113.787 213.141 113.764L212.899 87.4974L221.762 87.452C221.772 87.452 221.781 87.4483 221.787 87.4417C221.794 87.4351 221.798 87.4261 221.798 87.4167L221.808 81.1121C221.807 81.1031 221.803 81.0947 221.796 81.0883C221.79 81.0819 221.781 81.0779 221.772 81.0768L212.864 81.1222L221.767 81.0819H221.808V81.1171L221.838 87.4621L221.949 109.385H221.989C221.98 109.391 221.972 109.399 221.967 109.408C221.961 109.418 221.959 109.429 221.959 109.44C221.959 109.451 221.961 109.462 221.967 109.472C221.972 109.481 221.98 109.49 221.989 109.496C221.989 109.496 223.626 112.79 228.362 113.956C233.098 115.122 241.651 113.892 247.298 113.865C247.298 113.865 247.528 107.406 247.52 106.618L249.27 107.712C249.27 107.712 250.278 108.175 253.207 108.417C256.137 108.659 261.113 108.689 268.968 107.782C292.543 105.046 300.513 97.8438 301.739 83.9646L302.979 98.3932L303.68 98.3327C303.397 98.4234 303.175 98.4939 303.054 98.5494C303.045 98.5553 303.037 98.5635 303.032 98.5732C303.027 98.5828 303.024 98.5938 303.024 98.6048C303.024 98.6159 303.027 98.6268 303.032 98.6365C303.037 98.6462 303.045 98.6544 303.054 98.6602L309.805 102.536H309.856L313.758 102.198L313.44 105.922C313.428 105.957 313.428 105.994 313.44 106.028C313.432 106.034 313.425 106.042 313.421 106.051C313.416 106.061 313.413 106.071 313.413 106.081C313.413 106.091 313.416 106.102 313.421 106.111C313.425 106.12 313.432 106.128 313.44 106.134L313.707 106.356L319.626 111.31L323.776 111.627L338.457 112.902C338.462 112.905 338.467 112.906 338.472 112.906C338.477 112.906 338.483 112.905 338.487 112.902C338.487 112.902 338.528 112.938 338.533 112.933V112.676L338.734 110.594L355.281 86.051C354.449 96.085 353.451 107.923 353.325 109.354C353.317 109.381 353.317 109.409 353.325 109.435C353.313 109.447 353.307 109.464 353.307 109.48C353.307 109.497 353.313 109.514 353.325 109.526L359.521 114.712L363.681 115.029L378.1 116.314H378.347H378.13C378.13 116.314 378.13 116.314 378.13 116.274L383.333 53.4947ZM78.3971 70.5439L77.6862 72.3834L75.0948 79.1113L69.9 50.0602C69.9 50.0602 80.533 47.9968 84.3607 47.2869L83.6657 56.9065L78.3971 70.5439ZM106.041 73.1696L107.714 67.888L108.874 73.3661L106.041 73.1696ZM206.915 91.0503V88.9942V86.7515V84.4484V81.1524C206.889 84.5996 206.905 87.9409 206.915 91.0503ZM168.008 72.3632L168.431 64.6575C168.431 64.97 168.401 65.3379 168.376 65.7411C168.376 66.2954 168.316 66.9204 168.27 67.6108C168.245 68.1148 168.215 68.6893 168.179 69.2789C168.179 69.667 168.139 70.0752 168.109 70.4885C168.079 70.9017 168.063 71.3603 168.038 71.8139L168.008 72.3632ZM168.437 64.1133C168.434 64.1017 168.434 64.0896 168.437 64.078C168.439 64.0913 168.439 64.105 168.437 64.1183C168.437 64.1183 168.437 64.1183 168.411 64.1183L168.437 64.1133ZM261.007 87.9761L260.81 85.6327C260.876 86.439 260.946 87.2202 261.017 87.9761H261.007ZM264.929 65.1514C273.556 65.1162 277.649 68.2004 278.244 75.1653C278.905 82.7752 275.028 85.7889 267.097 87.2101L264.929 65.1514ZM356.421 72.5648C356.426 72.5829 356.426 72.6021 356.421 72.6202C356.421 72.6858 356.421 72.7613 356.421 72.8369C356.315 74.3488 356.078 77.3273 355.78 80.9256C355.78 81.0768 355.755 81.228 355.745 81.3742L356.421 72.6152C356.418 72.5985 356.418 72.5815 356.421 72.5648ZM316.969 28.5583V28.4021L316.869 27.1976L316.838 26.8348L316.808 26.4971C316.843 27.1019 316.904 27.7973 316.969 28.5583Z" fill="#1D4C91"/>
<path d="M336.561 21.4271C339.218 28.4322 344.597 31.5568 349.7 32.1414C354.378 32.6807 359.334 32.2271 364.386 28.4776C369.438 24.728 370.91 21.3716 370.91 21.3716L368.954 14.7848C368.947 14.7626 368.936 14.7421 368.921 14.7247C368.906 14.7073 368.887 14.6933 368.866 14.6838C368.845 14.6742 368.822 14.6693 368.799 14.6693C368.776 14.6694 368.753 14.6743 368.732 14.684C368.732 14.684 368.732 14.6588 368.732 14.6487L360.161 13.928C357.664 18.7493 354.442 20.9936 350.496 20.661C346.584 20.3334 343.71 17.5667 341.925 12.3859L333.354 11.6602C333.886 15.534 334.936 18.7779 336.506 21.3918L336.561 21.4271Z" fill="#1D4C91"/>
<path d="M147.392 13.3888C150.211 20.3385 155.666 23.3421 160.788 23.8058C165.477 24.2341 170.418 23.6647 175.384 19.774C180.35 15.8834 181.736 12.5169 181.736 12.5169L179.629 5.96531C179.621 5.94279 179.609 5.92215 179.593 5.90479C179.576 5.88743 179.557 5.87375 179.535 5.86468C179.513 5.85561 179.489 5.85135 179.465 5.85219C179.441 5.85303 179.418 5.85895 179.397 5.86956C179.397 5.86956 179.397 5.84436 179.397 5.83428L170.826 5.33031C168.446 10.2121 165.277 12.532 161.317 12.2901C157.358 12.0482 154.429 9.36037 152.53 4.22662L143.959 3.72266C144.577 7.58305 145.707 10.8051 147.347 13.3888H147.392Z" fill="#1D4C91"/>
<path d="M332.407 108.119C332.406 108.127 332.403 108.133 332.397 108.138C332.391 108.142 332.384 108.145 332.377 108.145L317.691 106.87L313.541 106.552L307.617 101.598L307.355 101.376C307.346 101.371 307.338 101.363 307.332 101.354C307.327 101.345 307.324 101.334 307.324 101.323C307.324 101.313 307.327 101.302 307.332 101.293C307.338 101.283 307.346 101.276 307.355 101.271C308.742 100.893 318.714 99.5621 322.985 100.152C323.626 100.17 324.246 100.383 324.764 100.762C324.951 100.953 325.868 101.84 327.008 102.949L327.043 102.984C328.631 104.496 330.638 106.451 331.686 107.469L332.221 107.973L332.362 108.114L332.407 108.119Z" fill="#4AA256" stroke="#2D2D2C" stroke-width="1.32607" stroke-miterlimit="10"/>
<path d="M327.033 102.979C327.033 102.979 332.438 108.246 332.448 108.155L337.691 45.3353L338.513 35.654C338.513 35.654 335.08 32.4085 333.618 30.9873C333.436 30.8109 333.113 30.9873 333.113 31.2393C332.534 37.7304 327.063 100.873 327.033 102.611C327.02 102.734 327.02 102.857 327.033 102.979Z" fill="#E83D3E" stroke="#2D2D2C" stroke-width="1.32607" stroke-miterlimit="10"/>
<path d="M371.995 111.496H372.212L357.656 110.231L353.497 109.914L347.306 104.758C347.297 104.75 347.291 104.74 347.287 104.729C347.284 104.718 347.283 104.707 347.286 104.695C347.289 104.684 347.294 104.674 347.302 104.665C347.31 104.657 347.32 104.651 347.331 104.647C349 104.199 363.076 102.369 364.75 104.143C365.284 104.667 372.121 111.506 371.995 111.496Z" fill="#4AA256" stroke="#2D2D2C" stroke-width="1.32607" stroke-miterlimit="10"/>
<path d="M366.681 106.164C366.681 106.164 371.96 111.587 371.965 111.496L377.208 48.6766L378.03 38.9953C378.03 38.9953 374.596 35.7548 373.134 34.3286C372.958 34.1522 372.63 34.3286 372.63 34.5806C372.045 41.0717 366.58 104.214 366.55 105.952C366.583 106.029 366.628 106.1 366.681 106.164Z" fill="#E9C547" stroke="#2D2D2C" stroke-width="1.32607" stroke-miterlimit="10"/>
<path d="M327.038 102.984L332.251 107.969C332.269 107.986 332.292 107.998 332.316 108.003C332.341 108.008 332.366 108.005 332.39 107.996C332.413 107.987 332.433 107.972 332.448 107.952C332.463 107.932 332.471 107.908 332.473 107.883L332.675 105.801L349.242 81.2331L350.3 67.8074L327.265 100.727L327.033 102.964L327.038 102.984Z" fill="#4AA256" stroke="#2D2D2C" stroke-width="1.32607" stroke-miterlimit="10"/>
<path d="M362.829 9.96684L364.785 16.5638C364.785 16.5638 363.353 19.895 358.261 23.6697C353.169 27.4444 348.258 27.8728 343.58 27.3336C338.19 26.7187 332.488 23.3018 330.018 15.4298C338.518 19.2802 342.042 23.6143 342.042 23.6143L354.55 18.7107L362.552 9.9114C362.57 9.8893 362.594 9.87261 362.622 9.86306C362.649 9.85352 362.678 9.85147 362.707 9.85714C362.735 9.8628 362.761 9.87597 362.783 9.89527C362.804 9.91457 362.82 9.93928 362.829 9.96684Z" fill="#4AA256" stroke="#2D2D2C" stroke-width="1.32607" stroke-miterlimit="10"/>
<path d="M354.067 9.10526C351.576 13.9265 348.354 16.1709 344.402 15.8383C340.449 15.5056 337.592 12.7473 335.831 7.56312L327.26 6.8374C327.794 10.7112 328.845 13.9568 330.411 16.5741C331.812 18.888 333.731 20.8455 336.017 22.2928C338.303 23.74 340.893 24.6375 343.585 24.9147C347.618 25.2507 351.398 24.1437 354.924 21.5936C358.449 19.0435 362.643 11.6704 362.607 9.86121C362.607 9.86121 362.607 9.86121 362.607 9.82593L354.067 9.10526ZM372.852 34.3036L353.235 32.6405L353.038 35.0092C353.038 35.0092 343.534 48.2585 336.617 58.2723C333.496 62.8081 330.9 66.6382 329.942 68.3164C330.391 62.9794 332.967 33.588 333.164 31.1085V30.9422L321.886 29.9897L313.395 29.274L307.325 101.14C307.313 101.174 307.313 101.211 307.325 101.246C307.338 101.272 307.358 101.295 307.383 101.311C307.408 101.327 307.437 101.336 307.466 101.336L308.933 101.462L327.023 102.974V102.949L327.21 100.742V100.727L327.341 100.545C327.941 99.7136 330.532 96.0951 333.784 91.5342C339.945 82.8912 348.455 70.8363 350.24 67.7772C350.239 67.7654 350.239 67.7536 350.24 67.7419C350.241 67.7302 350.242 67.7756 350.24 67.7923C350.24 67.8578 350.24 67.9334 350.24 68.009C350.129 69.5209 349.892 72.4994 349.6 76.0977C349.574 76.3295 349.559 76.5563 349.539 76.7881C349.423 78.1992 349.302 79.701 349.171 81.2432C348.344 91.2721 347.341 103.115 347.22 104.547C347.212 104.573 347.212 104.601 347.22 104.627C347.23 104.648 347.246 104.666 347.265 104.68C347.285 104.693 347.307 104.701 347.331 104.703L366.802 106.351V106.27L372.821 35.0694L372.852 34.3036Z" fill="white" stroke="#2D2D2C" stroke-width="1.32607" stroke-miterlimit="10"/>
<g style="mix-blend-mode:darken">
<path d="M326.441 102.274L322.954 101.979L318.818 101.662C315.653 101.485 312.754 37.1555 313.42 29.2839L321.611 31.7944L326.441 102.274Z" fill="#EDEDED"/>
</g>
<path d="M311.232 95.7141C311.682 96.1549 317.055 100.453 318.467 101.58C318.489 101.599 318.504 101.625 318.511 101.653C318.517 101.681 318.515 101.711 318.504 101.738C318.493 101.764 318.475 101.787 318.45 101.803C318.426 101.819 318.397 101.827 318.369 101.826L298.753 100.945L298.703 100.938L292.514 96.2017C292.506 96.1946 292.499 96.1855 292.495 96.1751C292.491 96.1648 292.49 96.1537 292.491 96.1427C292.493 96.1317 292.497 96.1213 292.503 96.1124C292.51 96.1034 292.519 96.0964 292.529 96.0917C294.207 95.5914 309.53 93.9695 311.232 95.7141Z" fill="#4AA256" stroke="#2D2D2C" stroke-width="1.32607" stroke-miterlimit="10"/>
<path d="M251.816 90.9202C251.816 90.9202 258.205 85.2823 258.208 85.1811L259.862 35.3685L260.215 25.721C260.216 25.7031 260.213 25.6852 260.206 25.6685C260.2 25.6518 260.19 25.6368 260.177 25.6245C259.765 25.2753 256.522 22.4935 255.107 21.2291C254.92 21.0622 254.62 21.2564 254.607 21.5088C254.347 28.0219 251.788 90.9012 251.816 90.9202Z" fill="#E83D3E" stroke="#2D2D2C" stroke-width="1.32607" stroke-miterlimit="10"/>
<path d="M312.42 96.8065L318.459 101.64C318.477 101.655 318.498 101.665 318.521 101.668C318.544 101.671 318.567 101.668 318.588 101.659C318.609 101.649 318.627 101.634 318.64 101.614C318.652 101.595 318.659 101.573 318.659 101.549L321.879 29.1193C321.879 29.1193 317.65 25.333 316.3 24.0415C316.248 23.9936 316.184 23.9614 316.115 23.9489C316.046 23.9363 315.974 23.9438 315.909 23.9705C315.844 23.9972 315.788 24.042 315.748 24.0996C315.707 24.1572 315.684 24.2251 315.681 24.2953C315.321 32.2643 312.392 96.7875 312.42 96.8065Z" fill="#E9C547" stroke="#2D2D2C" stroke-width="1.32607" stroke-miterlimit="10"/>
<path d="M293.141 81.4359C290.085 95.0321 281.245 101.129 257.535 100.759C249.629 100.631 244.738 99.9647 241.827 99.3262C238.916 98.6878 238.021 98.112 238.021 98.112L233.593 94.4775L232.29 93.4107L232.803 93.3768L233.777 93.3173L242.524 92.7743L270.571 91.0376L282.011 77.5722L275.827 53.5705L270.829 45.3568L270.904 45.3667C272.173 45.6918 290.359 50.6241 293.908 64.3806C294.389 66.2554 294.584 68.192 294.487 70.125C294.371 73.9275 293.921 77.7124 293.141 81.4359Z" fill="#4AA256" stroke="#2D2D2C" stroke-width="1.32607" stroke-miterlimit="10"/>
<path d="M312.422 96.7558L312.429 96.7009L312.47 96.3961L312.498 95.683L312.528 95.4532L315.348 32.7914L315.401 31.7003L315.51 29.2188L315.55 28.3345L315.603 27.1265L315.621 26.7628L315.65 26.0804L315.715 24.6962L315.729 24.2813L315.733 24.2513L315.75 23.8976L295.821 23.0002L293.958 64.3922L293.194 81.4275L292.544 95.9007L293.248 95.9274L312.457 96.7961L312.422 96.7558ZM288.7 69.8592C289.349 55.5436 281.455 48.6913 270.902 45.3867L270.827 45.3768C267.165 44.2849 263.411 43.5307 259.611 43.1234C257.718 42.904 255.812 42.7388 253.906 42.6193L254.873 21.1934L235.408 20.2911L232.132 93.1866C232.132 93.1866 232.326 93.2529 232.754 93.3603C232.995 93.4226 233.301 93.4985 233.687 93.5799C236.517 94.1631 239.379 94.5833 242.257 94.8385C244.767 95.0885 247.838 95.3211 251.509 95.4854C285.428 96.9945 288.106 83.3738 288.7 69.8592ZM259.121 57.9683C267.673 59.0617 271.328 62.6553 271.011 69.6387C270.67 77.2696 266.427 79.7493 258.378 80.1203C256.536 80.2075 254.491 80.1764 252.245 80.0833L252.37 77.4056L252.397 76.7738L253.299 57.5759C255.246 57.5947 257.19 57.7258 259.121 57.9683Z" fill="white" stroke="#2D2D2C" stroke-width="1.32607" stroke-miterlimit="10"/>
<path d="M244.533 94.3739L237.039 33.3511L243.278 40.6804L248.792 94.6383C248.792 94.6383 248.499 94.7264 244.533 94.3739Z" fill="#EDEDED"/>
<path d="M210.655 109.67L192.712 111.576L191.874 111.661C191.857 111.667 191.838 111.669 191.819 111.667L185.017 107.897C185.007 107.892 184.999 107.884 184.993 107.875C184.986 107.865 184.982 107.854 184.981 107.843C184.98 107.831 184.982 107.82 184.986 107.809C184.99 107.799 184.997 107.789 185.006 107.782L185.031 107.78C187.482 106.912 189.98 106.181 192.512 105.589C196.789 104.538 201.484 103.668 202.536 104.499C202.711 104.628 203.426 105.082 204.361 105.661C206.48 106.967 209.763 108.965 210.681 109.525C210.69 109.536 210.697 109.548 210.7 109.562C210.704 109.575 210.705 109.59 210.702 109.603C210.7 109.617 210.694 109.63 210.686 109.642C210.678 109.653 210.668 109.663 210.655 109.67Z" fill="#4AA256" stroke="#2D2D2C" stroke-width="1.32607" stroke-miterlimit="10"/>
<path d="M204.379 105.685L210.731 109.515C210.751 109.526 210.774 109.531 210.796 109.53C210.819 109.529 210.841 109.522 210.86 109.51C210.878 109.498 210.894 109.481 210.904 109.461C210.914 109.44 210.918 109.418 210.917 109.395L203.985 46.6474L202.935 37.0686C202.933 37.0508 202.928 37.0336 202.919 37.0179C202.911 37.0022 202.899 36.9884 202.885 36.9774C202.43 36.6891 198.83 34.4143 197.229 33.3657C197.023 33.2295 196.732 33.4666 196.758 33.7173C197.45 40.1563 204.352 105.668 204.379 105.685Z" fill="#E83D3E" stroke="#2D2D2C" stroke-width="1.32607" stroke-miterlimit="10"/>
<path d="M236.78 100.826C237.332 101.277 243.602 105.045 244.93 105.852C244.949 105.863 244.963 105.88 244.972 105.9C244.98 105.92 244.982 105.942 244.976 105.963C244.971 105.984 244.959 106.003 244.942 106.017C244.926 106.03 244.905 106.038 244.883 106.039L226.107 108.03C226.09 108.037 226.071 108.039 226.052 108.036L219.25 104.262C219.24 104.257 219.231 104.249 219.225 104.24C219.219 104.231 219.215 104.221 219.214 104.21C219.213 104.199 219.214 104.187 219.219 104.177C219.223 104.167 219.23 104.158 219.239 104.151C220.825 103.398 234.847 99.3454 236.78 100.826Z" fill="#4AA256" stroke="#2D2D2C" stroke-width="1.32607" stroke-miterlimit="10"/>
<path d="M238.612 102.049L244.963 105.879C244.983 105.89 245.006 105.895 245.028 105.894C245.051 105.893 245.073 105.886 245.092 105.874C245.111 105.862 245.126 105.844 245.136 105.824C245.146 105.804 245.151 105.781 245.149 105.759L238.217 43.011L237.165 33.4121C237.163 33.3943 237.158 33.3771 237.149 33.3614C237.141 33.3457 237.129 33.3319 237.115 33.3209C236.66 33.0326 233.06 30.7578 231.459 29.7092C231.253 29.573 230.963 29.8101 230.988 30.0608C231.684 36.5399 238.584 102.031 238.612 102.049Z" fill="#E9C547" stroke="#2D2D2C" stroke-width="1.32607" stroke-miterlimit="10"/>
<path d="M234.797 66.0551L234.457 62.6907L234.227 60.4193L230.963 29.7088L211.55 31.7694L214.379 58.3754L205.409 59.3235L199.564 59.9454L196.74 33.3389L190.162 34.0349L177.328 35.4044L185.035 107.769L192.555 106.973L204.377 105.711L204.371 105.65L202.212 85.3691L201.986 83.1379L201.755 80.8515L201.423 77.5672L201.508 77.5586L207.363 76.9307L216.217 75.9942L216.252 75.9907L216.256 76.0258L216.925 82.3354L219.242 104.135L219.302 104.129L238.644 102.071L238.639 102.016L234.797 66.0551Z" fill="white" stroke="#2D2D2C" stroke-width="1.32607" stroke-miterlimit="10"/>
<path d="M201.456 77.5996L208.021 83.2823L216.834 82.3449C216.844 82.344 216.852 82.3394 216.858 82.3321C216.864 82.3249 216.867 82.3156 216.866 82.3063L216.197 75.9966C216.196 75.9873 216.192 75.9787 216.184 75.9728C216.177 75.9669 216.168 75.9641 216.159 75.965L201.449 77.5294C201.44 77.5304 201.431 77.535 201.425 77.5422C201.419 77.5495 201.416 77.5588 201.417 77.5681C201.418 77.5774 201.423 77.5859 201.43 77.5919C201.437 77.5978 201.447 77.6006 201.456 77.5996Z" fill="#4AA256" stroke="#2D2D2C" stroke-width="1.32607" stroke-miterlimit="10"/>
<path d="M193.729 34.3557L189.374 103.307L189.284 104.698L189.043 106.647C188.024 106.746 186.015 107.097 185.564 107.069L183.498 87.2505C183.498 87.2505 186.765 47.89 187.643 34.9375L193.729 34.3557Z" fill="#EDEDED"/>
<path d="M141.733 102.296C141.732 102.303 141.728 102.31 141.723 102.314C141.717 102.319 141.71 102.322 141.703 102.321L127.016 101.046L122.867 100.729L116.943 95.7749L116.681 95.5531C116.672 95.5479 116.664 95.5402 116.658 95.5309C116.653 95.5216 116.65 95.511 116.65 95.5002C116.65 95.4894 116.653 95.4788 116.658 95.4695C116.664 95.4602 116.672 95.4525 116.681 95.4473C118.067 95.0693 128.04 93.7389 132.31 94.3285C132.951 94.3471 133.572 94.5598 134.09 94.9383C134.276 95.1298 135.194 96.0168 136.333 97.1255L136.369 97.1608C137.957 98.6727 139.963 100.628 141.012 101.646L141.547 102.15L141.688 102.291L141.733 102.296Z" fill="#4AA256" stroke="#2D2D2C" stroke-width="1.32607" stroke-miterlimit="10"/>
<path d="M136.359 97.1556C136.359 97.1556 141.763 102.422 141.773 102.331L147.017 39.5118L147.839 29.8306C147.839 29.8306 144.405 26.585 142.943 25.1638C142.762 24.9874 142.439 25.1638 142.439 25.4158C141.859 31.9069 136.389 95.049 136.359 96.7877C136.346 96.91 136.346 97.0333 136.359 97.1556Z" fill="#E83D3E" stroke="#2D2D2C" stroke-width="1.32607" stroke-miterlimit="10"/>
<path d="M181.32 105.673H181.537L166.982 104.408L162.822 104.09L156.631 98.9347C156.622 98.9269 156.616 98.917 156.613 98.906C156.609 98.8949 156.609 98.8832 156.611 98.872C156.614 98.8607 156.619 98.8503 156.627 98.8419C156.635 98.8334 156.645 98.8272 156.656 98.8238C158.325 98.3753 172.401 96.5459 174.075 98.3199C174.61 98.844 181.446 105.683 181.32 105.673Z" fill="#4AA256" stroke="#2D2D2C" stroke-width="1.32607" stroke-miterlimit="10"/>
<path d="M176.007 100.341C176.007 100.341 181.285 105.763 181.29 105.673L186.534 42.8531L187.356 33.1719C187.356 33.1719 183.922 29.9313 182.46 28.5051C182.284 28.3287 181.956 28.5051 181.956 28.7571C181.371 35.2482 175.906 98.3903 175.876 100.129C175.909 100.205 175.953 100.277 176.007 100.341Z" fill="#E9C547" stroke="#2D2D2C" stroke-width="1.32607" stroke-miterlimit="10"/>
<path d="M136.363 97.1608L141.576 102.145C141.594 102.162 141.617 102.174 141.641 102.179C141.666 102.184 141.691 102.182 141.715 102.173C141.738 102.164 141.758 102.149 141.773 102.128C141.788 102.108 141.797 102.084 141.798 102.059L142 99.978L158.567 75.4096L159.626 61.9839L136.59 94.9031L136.358 97.1407L136.363 97.1608Z" fill="#4AA256" stroke="#2D2D2C" stroke-width="1.32607" stroke-miterlimit="10"/>
<path d="M172.458 3.94226L174.289 10.1159C174.289 10.1159 172.949 13.2334 168.183 16.7659C163.418 20.2984 158.822 20.6993 154.444 20.1946C149.4 19.6192 144.064 16.4216 141.752 9.05472C149.707 12.658 153.005 16.714 153.005 16.714L164.711 12.125L172.198 3.89038C172.216 3.8697 172.238 3.85408 172.264 3.84515C172.29 3.83622 172.317 3.8343 172.344 3.8396C172.37 3.8449 172.395 3.85723 172.415 3.87529C172.435 3.89335 172.45 3.91648 172.458 3.94226Z" fill="#4AA256" stroke="#2D2D2C" stroke-width="1.32607" stroke-miterlimit="10"/>
<path d="M163.533 3.20096C161.043 8.02225 157.821 10.2666 153.868 9.93397C149.916 9.60135 147.059 6.84297 145.297 1.65882L136.726 0.933105C137.261 4.80694 138.311 8.05249 139.878 10.6698C141.279 12.9837 143.198 14.9412 145.483 16.3885C147.769 17.8357 150.36 18.7332 153.051 19.0104C157.085 19.3464 160.864 18.2394 164.39 15.6893C167.916 13.1392 171.695 7.3759 172.074 3.95691C172.074 3.95691 172.074 3.95691 172.074 3.92163L163.533 3.20096ZM182.318 28.3993L162.701 26.7362L162.505 29.1049C162.505 29.1049 153.001 42.3542 146.084 52.368C142.963 56.9038 140.367 60.7339 139.409 62.4121C139.857 57.0751 142.434 27.6837 142.63 25.2042L142.509 25.0904L131.352 24.0854L122.862 23.3697L116.792 95.2355C116.779 95.2697 116.779 95.3072 116.792 95.3414C116.805 95.368 116.825 95.3905 116.85 95.4065C116.874 95.4225 116.903 95.4314 116.933 95.4321L118.4 95.5581L136.49 97.07V97.0448L136.676 94.8374V94.8223L136.807 94.6409C137.407 93.8093 139.999 90.1908 143.25 85.6299C149.411 76.9869 157.851 65.0049 159.635 61.9458C159.634 61.9341 159.704 61.8209 159.706 61.8376C159.709 61.8543 159.709 61.8713 159.706 61.888C159.706 61.9535 159.706 62.0291 159.706 62.1047C159.596 63.6166 159.359 66.5951 159.066 70.1934C159.041 70.4252 159.026 70.652 159.006 70.8838C158.89 72.2949 158.769 73.7968 158.638 75.3389C157.811 85.3679 156.808 97.2111 156.687 98.6424C156.679 98.6687 156.679 98.6966 156.687 98.723C156.697 98.7441 156.713 98.7622 156.732 98.7754C156.751 98.7887 156.774 98.7967 156.797 98.7986L176.268 100.447V100.366L182.292 28.8178L182.318 28.3993Z" fill="white" stroke="#2D2D2C" stroke-width="1.32607" stroke-miterlimit="10"/>
<path d="M136.011 95.0791V96.7433L129.685 96.5961L128.546 91.8639L128.077 89.8933L120.201 60.1313L122.697 33.5044L137.152 90.7803L137.565 92.4081L136.011 95.0791Z" fill="#EDEDED"/>
<path d="M88.3947 102.238H88.2838L71.1421 101.23L66.9777 100.983L60.7008 95.8985C60.6914 95.8926 60.6837 95.8844 60.6783 95.8747C60.673 95.865 60.6702 95.8541 60.6702 95.843C60.6702 95.8319 60.673 95.8211 60.6783 95.8114C60.6837 95.8017 60.6914 95.7935 60.7008 95.7876L77.3686 91.0553C77.4123 91.0382 77.4609 91.0382 77.5047 91.0553L77.54 91.0856C77.54 91.0856 78.8458 92.4161 80.565 94.1648C81.1297 94.7293 81.7296 95.3491 82.3447 95.9741C85.1176 98.8164 88.1225 101.911 88.3947 102.223V102.238Z" fill="#4AA256" stroke="#2D2D2C" stroke-width="1.32607" stroke-miterlimit="10"/>
<path d="M80.2727 95.2332L88.2033 102.193C88.2194 102.206 88.2385 102.216 88.259 102.22C88.2795 102.225 88.3008 102.224 88.321 102.219C88.3413 102.213 88.3599 102.203 88.3754 102.189C88.3909 102.175 88.4028 102.157 88.41 102.138L97.2078 77.6851C97.2149 77.6669 97.2177 77.6473 97.2159 77.6278C97.2141 77.6084 97.2079 77.5896 97.1976 77.573C97.1873 77.5563 97.1733 77.5423 97.1567 77.5321C97.1401 77.5218 97.1213 77.5155 97.1019 77.5137L87.0992 76.1933C87.0696 76.191 87.0401 76.198 87.0148 76.2134C86.9894 76.2287 86.9696 76.2517 86.958 76.279L80.2173 95.0871L80.2727 95.2332Z" fill="#E83D3E" stroke="#2D2D2C" stroke-width="1.32607" stroke-miterlimit="10"/>
<path d="M106.353 98.9926L112.635 104.289C112.653 104.303 112.674 104.311 112.696 104.315L136.613 105.726C136.635 105.727 136.657 105.722 136.675 105.711C136.694 105.699 136.708 105.683 136.717 105.663C136.726 105.643 136.728 105.621 136.724 105.6C136.72 105.579 136.71 105.559 136.694 105.544L126.107 94.5779C126.087 94.5536 126.061 94.5354 126.032 94.5256C126.002 94.5158 125.97 94.5147 125.94 94.5225C125.94 94.5225 108.486 98.3173 106.409 98.8112C106.389 98.8144 106.371 98.823 106.356 98.836C106.341 98.849 106.33 98.8659 106.325 98.8847C106.319 98.9036 106.319 98.9237 106.324 98.9428C106.329 98.9618 106.339 98.9791 106.353 98.9926Z" fill="#4AA256" stroke="#2D2D2C" stroke-width="1.32607" stroke-miterlimit="10"/>
<path d="M118.247 32.5297V32.5045L110.986 26.9961C110.986 26.9961 110.094 27.2481 110.099 27.2582L128.718 100.333L128.834 100.495L136.765 105.696C136.773 105.7 136.782 105.701 136.792 105.7C136.801 105.699 136.81 105.695 136.817 105.69C136.824 105.684 136.83 105.676 136.833 105.667C136.836 105.659 136.837 105.649 136.835 105.64L118.247 32.5297Z" fill="#E9C547" stroke="#2D2D2C" stroke-width="1.32607" stroke-miterlimit="10"/>
<path d="M98.2007 44.4385C97.9184 45.0886 90.2197 69.4806 90.2197 69.4806L99.5065 69.6318L102.37 60.6058L98.2007 44.4385Z" fill="#E83D3E" stroke="#2D2D2C" stroke-width="1.32607" stroke-miterlimit="10"/>
<path d="M127.653 96.1906L127.436 95.2633L127.401 95.1322L110.621 26.9091L87.7482 25.6956L86.4626 29.0167L77.5489 52.0884L72.2753 65.7257L71.5644 67.5652L66.2908 81.2278L60.7752 95.4901L60.6794 95.742H60.7299L71.267 96.3216L74.8264 96.5182L77.9069 96.6845L81.9906 96.9112L82.036 96.7802L82.3486 95.9588L87.2592 83.0874L95.0284 83.7678L103.095 84.4683L106.227 98.5358L106.673 98.8447L128.687 100.363L127.653 96.1906ZM99.9239 68.3312L91.1211 67.7315L98.3458 47.3662L101.603 63.0497L102.737 68.5278L99.9239 68.3312Z" fill="white" stroke="#2D2D2C" stroke-width="1.32607" stroke-miterlimit="10"/>
<g style="mix-blend-mode:darken">
<path d="M78.9872 101.674L77.9033 96.6847L76.7084 91.2066L71.5608 67.5654L66.2872 81.228L70.1895 93.0561L71.2634 96.3218L72.2767 101.457L75.8815 101.488L78.9872 101.674Z" fill="#EDEDED"/>
</g>
<path d="M95.238 47.3435L78.5962 50.9782L86.2564 28.4617L87.7338 27.6797L93.31 31.0931L95.238 47.3435Z" fill="#EDEDED"/>
<path d="M50.8589 99.8368L58.2198 103.274L76.7379 99.8418C76.8689 99.8166 76.5059 98.7179 76.4051 98.6424L66.1402 91.0828C66.1145 91.0644 66.0837 91.0544 66.052 91.0544C66.0204 91.0544 65.9895 91.0644 65.9638 91.0828L50.8387 99.7309C50.833 99.7392 50.829 99.7485 50.827 99.7583C50.8249 99.7681 50.8248 99.7782 50.8267 99.7881C50.8285 99.7979 50.8323 99.8073 50.8379 99.8156C50.8434 99.824 50.8506 99.8312 50.8589 99.8368Z" fill="#4AA256" stroke="#2D2D2C" stroke-width="1.32607" stroke-miterlimit="10"/>
<path d="M70.209 96.0671C70.209 96.0671 76.8086 99.7259 76.7884 99.6352L65.1119 37.3095C65.1049 37.282 65.0884 37.2579 65.0653 37.2413C65.0423 37.2247 65.0142 37.2168 64.9858 37.2188C63.9019 37.3297 54.9428 38.2268 55.0184 38.7307C55.094 39.2347 69.6393 93.9404 70.0981 95.7043C70.1223 95.8288 70.1594 95.9504 70.209 96.0671Z" fill="#E83D3E" stroke="#2D2D2C" stroke-width="1.32607" stroke-miterlimit="10"/>
<path d="M51.7714 36.8157L66.4175 44.7481C66.4786 44.783 66.5506 44.7938 66.6192 44.7784L93.4309 39.8093C93.451 39.8026 93.4686 39.7898 93.481 39.7726C93.4935 39.7554 93.5002 39.7347 93.5002 39.7135C93.5002 39.6923 93.4935 39.6716 93.481 39.6544C93.4686 39.6372 93.451 39.6244 93.4309 39.6177L81.4316 34.1094C81.3762 34.0439 81.0939 33.3837 81.0485 33.3887L51.8672 36.2311C51.8026 36.2416 51.7429 36.2722 51.6966 36.3185C51.6503 36.3647 51.6197 36.4244 51.6091 36.489C51.5985 36.5535 51.6085 36.6198 51.6376 36.6785C51.6667 36.7371 51.7136 36.7851 51.7714 36.8157Z" fill="#4AA256" stroke="#2D2D2C" stroke-width="1.32607" stroke-miterlimit="10"/>
<path d="M48.5905 47.3939L41.3557 48.7193L41.4011 49.4602H41.265H41.1893L33.0269 50.9721L23.9014 52.6654L16.2028 49.6063C16.1854 49.599 16.1706 49.5867 16.1602 49.571C16.1498 49.5554 16.1443 49.537 16.1443 49.5181C16.1443 49.4993 16.1498 49.4809 16.1602 49.4652C16.1706 49.4495 16.1854 49.4373 16.2028 49.4299H16.2431L24.94 47.7064L29.9414 46.6984L40.6852 44.5667L40.9675 44.6674L41.1843 44.743L48.5905 47.3939Z" fill="#4AA256" stroke="#2D2D2C" stroke-width="1.32607" stroke-miterlimit="10"/>
<path d="M90.1842 22.362C90.2701 22.4027 90.3469 22.4603 90.4101 22.5313C90.4734 22.6023 90.5217 22.6852 90.5523 22.7752C90.5523 22.7752 93.3101 37.3147 93.7084 39.4666C93.7151 39.4937 93.714 39.5221 93.7051 39.5485C93.6962 39.575 93.6799 39.5983 93.6582 39.6158C93.6364 39.6333 93.6102 39.6442 93.5824 39.6472C93.5547 39.6503 93.5267 39.6453 93.5017 39.6329C92.2917 39.0937 87.1743 36.8208 86.2668 36.3874L82.9192 19.1618C82.8889 19.0257 90.1842 22.362 90.1842 22.362Z" fill="#E9C547" stroke="#2D2D2C" stroke-width="1.32607" stroke-miterlimit="10"/>
<path d="M65.6362 40.1251L86.2416 36.3654V36.305V36.2697V36.2042L82.9998 19.2154C82.9986 19.2074 82.9958 19.1998 82.9915 19.1929C82.9873 19.186 82.9817 19.18 82.9752 19.1753C82.9686 19.1706 82.9611 19.1673 82.9532 19.1655C82.9453 19.1638 82.9372 19.1636 82.9292 19.165L12.8499 32.2682L16.132 49.4737H16.1975L24.9297 47.8156L29.9412 46.8681L40.322 44.8926L41.0681 48.7782L41.2043 49.4989L41.3202 50.0885L41.4866 50.9503L50.7179 99.3312L50.7734 99.6235L50.9045 99.6638L70.2091 96.0806L69.7503 93.7523L59.7274 41.2035H59.8383L65.6362 40.1251Z" fill="white" stroke="#2D2D2C" stroke-width="1.32607" stroke-miterlimit="10"/>
</svg>
