<svg width="288" height="72" viewBox="0 0 288 72" fill="none" xmlns="http://www.w3.org/2000/svg">
<path fill-rule="evenodd" clip-rule="evenodd" d="M142.172 11.1681C139.4 4.41202 132.821 0 125.519 0H18C8.05887 0 0 8.05887 0 18V40V576C0 587.046 8.9543 596 20 596H268C279.046 596 288 587.046 288 576V60C288 48.9543 279.046 40 268 40H166.071C158.769 40 152.19 35.588 149.418 28.8319L142.172 11.1681Z" fill="#5EA7FF"/>
<path fill-rule="evenodd" clip-rule="evenodd" d="M142.681 22.409C139.601 14.9022 132.291 10 124.177 10H20C8.95431 10 0 18.9543 0 30V50V586C0 597.046 8.9543 606 20 606H268C279.046 606 288 597.046 288 586V70C288 58.9543 279.046 50 268 50H167.413C159.299 50 151.989 45.0978 148.909 37.591L142.681 22.409Z" fill="#0060D3"/>
</svg>
