<svg width="248" height="53" viewBox="0 0 248 53" fill="none" xmlns="http://www.w3.org/2000/svg">
<g clip-path="url(#clip0_1920_1554)">
<path fill-rule="evenodd" clip-rule="evenodd" d="M218.596 11.693C215.343 4.56983 208.233 0 200.403 0H49.005C41.379 0 34.417 4.33648 31.055 11.1808L16.493 40.8192C13.131 47.6635 6.168 52 -1.457 52H-141C-152.046 52 -161 60.9543 -161 72V578C-161 594.569 -147.569 608 -131 608H1179C1195.57 608 1209 594.569 1209 578V82C1209 65.4315 1195.57 52 1179 52H249.854C242.024 52 234.913 47.4302 231.661 40.307L218.596 11.693Z" fill="#5EA7FF"/>
<mask id="mask0_1920_1554" style="mask-type:luminance" maskUnits="userSpaceOnUse" x="-161" y="0" width="1370" height="608">
<path fill-rule="evenodd" clip-rule="evenodd" d="M218.596 11.693C215.343 4.56983 208.233 0 200.403 0H49.005C41.379 0 34.417 4.33648 31.055 11.1808L16.493 40.8192C13.131 47.6635 6.168 52 -1.457 52H-141C-152.046 52 -161 60.9543 -161 72V578C-161 594.569 -147.569 608 -131 608H1179C1195.57 608 1209 594.569 1209 578V82C1209 65.4315 1195.57 52 1179 52H249.854C242.024 52 234.913 47.4302 231.661 40.307L218.596 11.693Z" fill="#DFDFDF"/>
</mask>
<g mask="url(#mask0_1920_1554)">
<path d="M49.005 1H200.403V-1H49.005V1ZM17.391 41.2601L31.952 11.6218L30.157 10.7399L15.596 40.3782L17.391 41.2601ZM-141 53H-1.457V51H-141V53ZM-160 578V72H-162V578H-160ZM-131 607C-147.016 607 -160 594.016 -160 578H-162C-162 595.121 -148.121 609 -131 609V607ZM1179 607H-131V609H1179V607ZM1208 578C1208 594.016 1195.02 607 1179 607V609C1196.12 609 1210 595.121 1210 578H1208ZM1208 82V578H1210V82H1208ZM1179 53C1195.02 53 1208 65.9837 1208 82H1210C1210 64.8792 1196.12 51 1179 51V53ZM249.854 53H1179V51H249.854V53ZM217.686 12.1083L230.751 40.7224L232.571 39.8917L219.505 11.2776L217.686 12.1083ZM-141 51C-152.598 51 -162 60.402 -162 72H-160C-160 61.5066 -151.493 53 -141 53V51ZM15.596 40.3782C12.401 46.8803 5.787 51 -1.457 51V53C6.55 53 13.86 48.4467 17.391 41.2601L15.596 40.3782ZM200.403 1C207.842 1 214.596 5.34134 217.686 12.1083L219.505 11.2776C216.09 3.79832 208.625 -1 200.403 -1V1ZM249.854 51C242.415 51 235.66 46.6587 232.571 39.8917L230.751 40.7224C234.166 48.2017 241.632 53 249.854 53V51ZM49.005 -1C40.998 -1 33.688 3.55331 30.157 10.7399L31.952 11.6218C35.147 5.11966 41.761 1 49.005 1V-1Z" fill="#DFDFDF"/>
</g>
</g>
<defs>
<clipPath id="clip0_1920_1554">
<rect width="1370" height="608" fill="white" transform="translate(-161)"/>
</clipPath>
</defs>
</svg>
