<svg width="184" height="185" viewBox="0 0 184 185" fill="none" xmlns="http://www.w3.org/2000/svg">
<path d="M92 1.54598L106.142 19.9422L106.408 20.2892L106.788 20.0707L126.893 8.48662L132.918 30.8943L133.032 31.317L133.466 31.2602L156.474 28.2519L153.465 51.2597L153.409 51.6937L153.831 51.8073L176.239 57.8327L164.655 77.9378L164.436 78.3171L164.783 78.5839L183.18 92.7256L164.783 106.867L164.436 107.134L164.655 107.513L176.239 127.619L153.831 133.644L153.409 133.757L153.465 134.191L156.474 157.199L133.466 154.191L133.032 154.134L132.918 154.557L126.893 176.965L106.788 165.38L106.408 165.162L106.142 165.509L92 183.905L77.8583 165.509L77.5915 165.162L77.2122 165.38L57.1071 176.965L51.0818 154.557L50.9681 154.134L50.5341 154.191L27.5263 157.199L30.5347 134.191L30.5914 133.757L30.1687 133.644L7.76103 127.619L19.3451 107.513L19.5636 107.134L19.2166 106.867L0.820397 92.7256L19.2166 78.5839L19.5636 78.3171L19.3451 77.9378L7.76103 57.8327L30.1687 51.8073L30.5914 51.6937L30.5347 51.2597L27.5263 28.2519L50.5341 31.2602L50.9681 31.317L51.0818 30.8943L57.1071 8.48662L77.2122 20.0707L77.5915 20.2892L77.8583 19.9422L92 1.54598Z" stroke="#E52C56"/>
</svg>
