<svg width="184" height="185" viewBox="0 0 184 185" fill="none" xmlns="http://www.w3.org/2000/svg">
<path d="M92 0.725586L106.538 19.6375L127.207 7.72867L133.401 30.7645L157.054 27.6718L153.961 51.3245L176.997 57.5187L165.088 78.1875L184 92.7256L165.088 107.264L176.997 127.932L153.961 134.127L157.054 157.779L133.401 154.687L127.207 177.723L106.538 165.814L92 184.726L77.4619 165.814L56.7931 177.723L50.5989 154.687L26.9462 157.779L30.0389 134.127L7.00308 127.932L18.9119 107.264L0 92.7256L18.9119 78.1875L7.00308 57.5187L30.0389 51.3245L26.9462 27.6718L50.5989 30.7645L56.7931 7.72867L77.4619 19.6375L92 0.725586Z" fill="#F5C836"/>
</svg>
