<svg width="242" height="83" viewBox="0 0 242 83" fill="none" xmlns="http://www.w3.org/2000/svg">
<path d="M21.4076 70.2982C21.4076 76.0755 16.7537 80.7345 10.983 80.7345C5.2122 80.7345 0.55835 76.0755 0.55835 70.2982C0.55835 64.5209 5.2122 59.8618 10.983 59.8618C16.7537 59.8618 21.4076 64.5209 21.4076 70.2982Z" fill="#7756FF"/>
<path d="M56.2187 70.4848C56.2187 74.5848 52.868 77.9394 48.7726 77.9394C44.6772 77.9394 41.3264 74.5848 41.3264 70.4848C41.3264 66.3848 44.6772 63.0303 48.7726 63.0303C52.868 63.0303 56.2187 66.3848 56.2187 70.4848Z" fill="#7756FF"/>
<path d="M83.2108 70.4844C83.2108 72.3481 81.7216 73.839 79.86 73.839C77.9985 73.839 76.5093 72.3481 76.5093 70.4844C76.5093 68.6208 77.9985 67.1299 79.86 67.1299C81.7216 67.1299 83.2108 68.6208 83.2108 70.4844Z" fill="#7756FF"/>
<path d="M46.7247 48.3073C44.8632 48.3073 43.5601 46.8164 43.5601 45.1391V31.3482C43.5601 26.6891 41.3263 22.9618 36.3001 22.9618C31.274 22.9618 28.1094 26.8755 28.1094 31.3482V44.9528C28.1094 46.8164 26.8063 48.1209 24.9447 48.1209C23.0832 48.1209 21.7801 46.63 21.7801 44.9528V31.1618C21.7801 26.5028 19.3601 22.7755 14.334 22.7755C9.12166 22.7755 6.51551 26.6891 6.51551 31.1618V44.7664C6.51551 46.63 5.21243 47.9346 3.35089 47.9346C1.48936 47.9346 0.186279 46.4437 0.186279 44.7664V20.7255C0.186279 18.8618 1.48936 17.3709 3.35089 17.3709C5.58474 17.3709 6.51551 18.8618 6.51551 20.7255V22.9618C8.37705 19.4209 12.1001 17.1846 16.1955 17.1846C21.0355 17.1846 24.7586 19.6073 26.6201 23.3346C29.2263 19.2346 33.1355 17.1846 37.9755 17.1846C46.1663 17.1846 50.2617 22.9618 50.2617 30.9755V45.1391C50.0755 46.8164 48.7724 48.3073 46.7247 48.3073Z" fill="#7756FF"/>
<path d="M59.0109 48.3073C57.1494 48.3073 55.8463 46.8164 55.8463 45.1391V20.7255C55.8463 18.8619 57.1494 17.5573 59.0109 17.5573C60.8725 17.5573 62.1755 19.0482 62.1755 20.7255V45.1391C62.1755 46.8164 60.8725 48.3073 59.0109 48.3073ZM59.0109 5.25732C61.0586 5.25732 62.734 6.9346 62.734 8.9846C62.734 11.0346 61.0586 12.7119 59.0109 12.7119C56.9632 12.7119 55.2878 11.0346 55.2878 8.9846C55.2878 6.9346 56.9632 5.25732 59.0109 5.25732Z" fill="#7756FF"/>
<path d="M80.2324 28.5531L88.4232 18.4894C88.9817 17.9303 89.7263 17.5576 90.4709 17.5576C92.3324 17.5576 93.4494 18.6758 93.4494 20.3531C93.4494 20.9122 93.2632 21.6576 92.7047 22.2167L83.7694 32.8394L92.8909 43.6485C93.4494 44.2076 93.6355 44.7667 93.6355 45.5122C93.6355 47.0031 92.3324 48.3076 90.8432 48.3076C89.9124 48.3076 89.1678 47.9349 88.6094 47.1894L80.4186 36.9394L72.2278 47.1894C71.6694 47.9349 70.9247 48.3076 69.994 48.3076C68.5047 48.3076 67.2017 47.0031 67.2017 45.5122C67.2017 44.7667 67.3878 44.2076 67.9463 43.6485L77.0678 32.8394L68.1324 22.2167C67.574 21.6576 67.3878 20.9122 67.3878 20.3531C67.3878 18.6758 68.5047 17.5576 70.3663 17.5576C71.297 17.5576 71.8555 17.9303 72.414 18.4894L80.2324 28.5531Z" fill="#7756FF"/>
<path d="M113.926 22.5893C108.341 22.5893 104.805 27.4347 104.805 33.0256C104.805 38.4302 108.528 43.462 113.926 43.462C119.511 43.462 123.048 39.362 123.048 33.0256C123.048 26.6893 119.511 22.5893 113.926 22.5893ZM115.229 48.6802C110.575 48.6802 106.852 46.2575 104.805 42.7165V57.9984C104.805 59.862 103.501 61.1665 101.64 61.1665C99.7784 61.1665 98.4753 59.6756 98.4753 57.9984V20.7256C98.4753 18.862 99.5923 17.5575 101.454 17.5575C103.315 17.5575 104.618 19.0484 104.618 20.912V23.3347C106.666 19.7938 110.761 17.3711 115.229 17.3711C123.048 17.3711 129.377 23.8938 129.377 33.0256C129.377 42.3438 123.048 48.6802 115.229 48.6802Z" fill="#7756FF"/>
<path d="M147.62 22.7756C142.221 22.7756 138.312 27.4347 138.312 33.0256C138.312 38.9893 141.477 43.2756 147.62 43.2756C153.204 43.2756 156.928 38.4302 156.928 33.0256C156.741 26.5029 153.018 22.7756 147.62 22.7756ZM163.257 45.1393C163.257 47.0029 161.954 48.3075 160.092 48.3075C158.231 48.3075 156.928 46.8165 156.928 45.1393V43.6484C155.066 46.4438 151.343 48.6802 147.061 48.6802C137.568 48.6802 131.983 41.5984 131.983 33.0256C131.983 24.4529 138.126 17.3711 147.806 17.3711C157.672 17.3711 163.443 23.8938 163.443 33.0256V45.1393H163.257Z" fill="#7756FF"/>
<path d="M182.431 17.1846C190.621 17.1846 196.764 23.5209 196.764 31.5346V45.1391C196.764 47.0028 195.275 48.3073 193.6 48.3073C191.738 48.3073 190.435 46.8164 190.435 45.1391V30.7891C190.435 26.5028 187.084 23.1482 182.617 23.1482C178.149 23.1482 174.798 26.5028 174.798 30.7891V45.1391C174.798 47.0028 173.309 48.3073 171.634 48.3073C169.772 48.3073 168.469 46.8164 168.469 45.1391V31.5346C168.283 23.5209 174.24 17.1846 182.431 17.1846Z" fill="#7756FF"/>
<path d="M215.938 22.4028C211.284 22.4028 208.12 25.7573 207.375 30.0437H224.129C223.57 25.7573 220.592 22.4028 215.938 22.4028ZM230.086 33.0255C230.086 34.1437 229.527 35.2618 227.666 35.2618H207.375C207.747 39.9209 210.912 43.4618 216.497 43.4618C220.034 43.4618 222.081 42.1573 224.315 40.1073C224.874 39.5482 225.618 38.9891 226.363 38.9891C227.852 38.9891 228.969 40.1073 228.969 41.5982C228.969 42.3437 228.597 42.9028 228.224 43.4618C225.618 46.4437 220.964 48.4937 216.124 48.4937C205.886 48.4937 200.674 41.4118 200.674 32.8391C200.674 23.8937 207.189 17.1846 215.938 17.1846C224.501 17.1846 230.086 24.2664 230.086 33.0255Z" fill="#7756FF"/>
<path d="M237.719 48.3072C235.857 48.3072 234.554 46.8163 234.554 45.139V4.88449C234.554 3.02085 235.857 1.71631 237.719 1.71631C239.58 1.71631 240.883 3.20722 240.883 4.88449V45.139C240.883 46.8163 239.58 48.3072 237.719 48.3072Z" fill="#7756FF"/>
</svg>
