<svg xmlns="http://www.w3.org/2000/svg">

    <symbol id="circle" viewBox="0 0 60 60">
        <path d="M30 60c-16.57 0-30-13.43-30-30s13.43-30 30-30 30 13.43 30 30c.008 16.57-13.43 30-30 30z"/>
    </symbol>

    <symbol id="circles" viewBox="0 0 60 60">
        <rect width="30" height="30" rx="15" fill="#E4003A"/>
        <rect y="30" width="30" height="30" rx="15" fill="#FBBB21"/>
        <rect x="30" width="30" height="30" rx="15" fill="#F39DB1"/>
        <rect x="30" y="30" width="30" height="30" rx="15" fill="#00A984"/>
    </symbol>

    <symbol id="circle-half" viewBox="0 0 60 60">
        <path d="M60 30c0-16.6-13.4-30-30-30v60c16.6 0 30-13.4 30-30z"/>
    </symbol>

    <symbol id="circle-half-2" viewBox="0 0 60 60">
        <path d="M30 30v-30c-16.57 0-30 13.43-30 30s13.43 30 30 30v-30zM60 30v-30c-16.57 0-30 13.43-30 30s13.43 30 30 30v-30z"/>
    </symbol>

    <symbol id="circle-half-2-lines" viewBox="0 0 120 120">
        <path d="M59.5.502v118.994c-32.627-.272-59-27.155-58.999-60.297 0-32.251 26.361-58.433 59-58.698zm60 0l-.001 118.995c-32.626-.272-58.999-27.155-58.999-60.297 0-32.251 26.361-58.433 59-58.697z"/>
    </symbol>

    <symbol id="circle-half-2-lines-388" viewBox="0 0 388 388">
        <path d="M194.5 194c0-106.7 86.363-193.23 193-193.499v386.998c-106.637-.269-193-86.799-193-193.499zM.5 194c0-106.7 86.363-193.23 193-193.499v386.998c-106.637-.269-193-86.799-193-193.499z"/>
    </symbol>

    <symbol id="circle-two-half" viewBox="0 0 60 60">
        <path d="M0 60C16.5698 60 30 46.5698 30 30C30 13.4302 16.5698 1.44858e-06 5.24537e-06 0L0 60Z"/>
        <path d="M60 0C43.4302 0 30 13.4302 30 30C30 46.5698 43.4302 60 60 60V0Z"/>
    </symbol>

    <symbol id="circle-four-quarter" viewBox="0 0 60 60">
        <path d="M30 30C13.4315 30 -5.87108e-07 16.5685 -1.31134e-06 0L30 -1.31134e-06L30 30Z"/>
        <path d="M60 60C43.4315 60 30 46.5685 30 30L60 30L60 60Z"/>
        <path d="M30 60C13.4315 60 1.60169e-07 46.5685 3.57746e-07 30L30 30L30 60Z"/>
        <path d="M60 30C43.4315 30 30 16.5685 30 0L60 2.26494e-06L60 30Z"/>
    </symbol>

    <symbol id="circle-no-quarter" viewBox="0 0 60 60">
        <path fill-rule="evenodd" clip-rule="evenodd" d="M30 60C46.5685 60 60 46.5685 60 30L30 30L30 0C13.4315 0 0 13.4315 0 30C0 46.5685 13.4315 60 30 60Z"/>
    </symbol>

    <symbol id="circle-lines" viewBox="0 0 120 120">
        <rect x="0.5" y="119.5" width="119" height="119" rx="59.5" transform="rotate(-90 0.5 119.5)"/>
    </symbol>

    <symbol id="circle-four-quarter-lines" viewBox="0 0 120 120">
        <path d="M59.5 60.5L59.5 119.498C27.0333 119.231 0.769225 92.9667 0.502057 60.5H59.5Z"/>
        <path d="M119.5 60.5L119.5 119.498C87.0333 119.231 60.7692 92.9667 60.5021 60.5H119.5Z"/>
        <path d="M59.5 0.5L59.5 59.4979C27.0333 59.2308 0.769225 32.9667 0.502057 0.5H59.5Z"/>
        <path d="M119.5 0.5L119.5 59.4979C87.0333 59.2308 60.7692 32.9667 60.5021 0.5H119.5Z"/>
    </symbol>

    <symbol id="square" viewBox="0 0 60 60">
        <path d="M0 0h60v60h-60z"/>
    </symbol>

    <symbol id="square-lines" viewBox="0 0 120 120">
        <path d="M.5 119.5v-119h119v119h-119z"/>
    </symbol>

    <symbol id="triangle" viewBox="0 0 60 60">
        <path d="M60 0v60h-60l60-60z"/>
    </symbol>

    <symbol id="triangle-2" viewBox="0 0 49 56">
        <path d="M49 28L6.67793e-07 56L0 5.84319e-07L49 28Z"/>
    </symbol>

    <symbol id="triangle-small-big" viewBox="0 0 60 60">
        <path d="M-1.50547e-06 30L29.9961 30.0039L30 60L-1.50547e-06 30Z"/>
        <path d="M0 0H60L60 60L0 0Z"/>
    </symbol>

    <symbol id="quadrant" viewBox="0 0 60 60">
        <path d="M0 60c0-33.137 26.863-60 60-60v60h-60z"/>
    </symbol>

    <symbol id="quadrant-line" viewBox="0 0 60 60">
        <path d="M0 60c0-15.913 6.321-31.174 17.574-42.426 11.252-11.252 26.513-17.574 42.426-17.574v30.491c-7.826 0-15.332 3.109-20.866 8.643-5.534 5.534-8.643 13.04-8.643 20.866h-30.491z"/>
    </symbol>

    <symbol id="quadrant-line-lines" viewBox="0 0 120 120">
        <path d="M119.5 59.899c-32.705.473-59.129 26.896-59.601 59.601h-59.398c.269-65.602 53.397-118.73 118.999-118.999v59.398z"/>
    </symbol>

    <symbol id="star-4" viewBox="0 0 60 60">
        <path d="M.326 29.948l-.326.052.326.052c15.2 2.5 27.122 14.422 29.622 29.622l.052.326.052-.326c2.5-15.2 14.422-27.122 29.622-29.622l.326-.052-.326-.052c-15.2-2.5-27.122-14.422-29.622-29.622l-.052-.326-.052.326c-2.5 15.2-14.422 27.111-29.622 29.622z"/>
    </symbol>

    <symbol id="star-4-invert" viewBox="0 0 60 60">
        <path d="M30 0C30 16.5685 16.5685 30 0 30L2.62268e-06 -2.62268e-06L30 0Z"/>
        <path d="M30 60C30 43.4315 43.4315 30 60 30L60 60L30 60Z"/>
        <path d="M0 30C16.5685 30 30 43.4315 30 60L3.57746e-07 60L0 30Z"/>
        <path d="M60 30C43.4315 30 30 16.5685 30 0L60 2.26494e-06L60 30Z"/>
    </symbol>

    <symbol id="star-lines" viewBox="0 0 120 120">
        <path d="M59.4979 0.500008C59.2307 32.9642 32.9642 59.2307 0.500004 59.4979L0.500009 0.500002L59.4979 0.500008Z"/>
        <path d="M60.502 119.5C60.7693 87.0358 87.0358 60.7693 119.5 60.5021L119.5 119.5L60.502 119.5Z"/>
        <path d="M0.500004 60.5021C32.9642 60.7693 59.2307 87.0358 59.4979 119.5L0.500005 119.5L0.500004 60.5021Z"/>
        <path d="M119.5 59.4979C87.0358 59.2307 60.7693 32.9642 60.5021 0.500004L119.5 0.500008L119.5 59.4979Z"/>
    </symbol>

    <symbol id="star-rounded" viewBox="0 0 60 60">
        <path d="M25.809 3.42103C26.7413 -1.14034 33.2587 -1.14034 34.191 3.42103C36.4952 14.6946 45.3054 23.5048 56.579 25.809C61.1403 26.7413 61.1403 33.2587 56.579 34.191C45.3054 36.4952 36.4952 45.3054 34.191 56.579C33.2587 61.1403 26.7413 61.1403 25.809 56.579C23.5048 45.3054 14.6946 36.4952 3.42103 34.191C-1.14034 33.2587 -1.14034 26.7413 3.42103 25.809C14.6946 23.5048 23.5048 14.6946 25.809 3.42103Z"/>
    </symbol>

    <symbol id="leaf" viewBox="0 0 60 60">
        <path d="M30 60c-16.569 0-30-13.431-30-30h30v30zM30 0c16.569 0 30 13.431 30 30h-30v-30zM0 0h30v30h-30v-30zM30 30h30v30h-30v-30z"/>
    </symbol>

    <symbol id="leaf-2" viewBox="0 0 60 30">
        <path d="M0 0C0 16.5698 13.4302 30 30 30L59.9988 30C59.9988 13.4302 46.5698 0 30 0H0Z"/>
    </symbol>

    <symbol id="leaf-double" viewBox="0 0 60 60">
        <path fill-rule="evenodd" clip-rule="evenodd" d="M30 60L60 60C60 43.4302 46.5698 30 30 30L30 30.0002L0 30.0002C-7.24298e-07 46.57 13.4302 60.0002 30 60.0002L30 60Z"/>
        <path fill-rule="evenodd" clip-rule="evenodd" d="M30 -3.21869e-06L-1.31134e-06 0C-5.87052e-07 16.5698 13.4302 30 30 30L30 29.9998L60 29.9998C60 13.43 46.5698 -0.000219473 30 -0.000218749L30 -3.21869e-06Z"/>
    </symbol>

    <symbol id="arrow-2" viewBox="0 0 60 60">
        <path d="M30 0l30 30-30 30v-60zM0 0l30 30-30 30v-60z"/>
    </symbol>
    
    <symbol id="arrow-diagonal" viewBox="0 0 60 60">
        <path fill-rule="evenodd" clip-rule="evenodd" d="M-1.87327e-06 17.1446L-2.62261e-06 0.00174713L60 0.00174451L60 17.1446L59.9983 17.1446L59.9983 60L42.8555 60L42.8555 29.7375L13.9698 58.6232L1.38172 46.0351L30.2723 17.1446L-1.87327e-06 17.1446Z"/>
    </symbol>

    <symbol id="circle-hole" viewBox="0 0 89 92">
        <path d="M0.493622 63.5843C4.56184 73.4184 11.914 81.5376 21.2975 86.5586C30.6809 91.5796 41.5151 93.1917 51.9538 91.1202C62.3926 89.0486 71.7902 83.4217 78.5453 75.1981C85.3005 66.9745 88.9952 56.6631 89 46.0207C89.0048 35.3784 85.3193 25.0636 78.5716 16.8339C71.8239 8.60425 62.4314 2.96884 51.9945 0.887924C41.5576 -1.193 30.722 0.40932 21.334 5.42186C11.9461 10.4344 4.58656 18.547 0.509476 28.3774L1.43406 28.7609C5.42242 19.1444 12.6218 11.2083 21.8055 6.30483C30.9892 1.40136 41.5889 -0.166086 51.7988 1.86955C62.0086 3.90519 71.1967 9.41797 77.7976 17.4686C84.3985 25.5192 88.0037 35.6095 87.999 46.0203C87.9944 56.431 84.38 66.5181 77.7719 74.5628C71.1637 82.6074 61.9706 88.1119 51.759 90.1384C41.5474 92.1648 30.949 90.5878 21.7697 85.6761C12.5905 80.7643 5.39825 72.8218 1.41856 63.2017L0.493622 63.5843Z"/>
    </symbol>

    <symbol id="circle-with-corners" viewBox="0 0 140 140">
        <path d="M77.8853 7.90753L78.1435 8.14425L78.4541 7.98242L87.9418 3.04041L93.6873 12.0641L93.8754 12.3596L94.2174 12.2837L104.661 9.96567L107.875 20.169L107.98 20.5031L108.33 20.5183L119.018 20.9822L119.482 31.6697L119.497 32.0197L119.831 32.1249L130.034 35.3392L127.716 45.7826L127.64 46.1246L127.936 46.3127L136.96 52.0582L132.018 61.5459L131.856 61.8565L132.092 62.1147L139.322 70L132.092 77.8853L131.856 78.1435L132.018 78.4541L136.96 87.9418L127.936 93.6873L127.64 93.8754L127.716 94.2174L130.034 104.661L119.831 107.875L119.497 107.98L119.482 108.33L119.018 119.018L108.33 119.482L107.98 119.497L107.875 119.831L104.661 130.034L94.2174 127.716L93.8754 127.64L93.6873 127.936L87.9418 136.96L78.4541 132.018L78.1435 131.856L77.8853 132.092L70 139.322L62.1147 132.092L61.8565 131.856L61.5459 132.018L52.0582 136.96L46.3127 127.936L46.1246 127.64L45.7826 127.716L35.3392 130.034L32.1249 119.831L32.0197 119.497L31.6697 119.482L20.9822 119.018L20.5183 108.33L20.5031 107.98L20.169 107.875L9.96567 104.661L12.2837 94.2174L12.3596 93.8754L12.0641 93.6873L3.04041 87.9418L7.98242 78.4541L8.14425 78.1435L7.90753 77.8853L0.67833 70L7.90753 62.1147L8.14425 61.8565L7.98242 61.5459L3.04041 52.0582L12.0641 46.3127L12.3596 46.1246L12.2837 45.7826L9.96567 35.3392L20.169 32.1249L20.5031 32.0197L20.5183 31.6697L20.9822 20.9822L31.6697 20.5183L32.0197 20.5031L32.1249 20.169L35.3392 9.96567L45.7826 12.2837L46.1246 12.3596L46.3127 12.0641L52.0582 3.04041L61.5459 7.98242L61.8565 8.14425L62.1147 7.90753L70 0.67833L77.8853 7.90753Z"/>
    </symbol>

    <symbol id="ino-logo" viewBox="0 0 40 43">
        <path d="M20.0064 0.382812C17.0044 0.385908 14.1262 1.55727 12.0034 3.63985C9.88069 5.72244 8.68675 8.54613 8.68359 11.4913V11.8772V22.8454C10.4455 22.6509 12.0735 21.8295 13.2596 20.5366C14.4457 19.2436 15.1075 17.5689 15.1197 15.8295V13.2219V11.4913C15.1197 10.2229 15.6333 9.0065 16.5475 8.10961C17.4617 7.21271 18.7016 6.70883 19.9945 6.70883C21.2873 6.70883 22.5273 7.21271 23.4415 8.10961C24.3557 9.0065 24.8692 10.2229 24.8692 11.4913V11.8772V15.7827C24.8814 17.5222 25.5432 19.1968 26.7293 20.4898C27.9154 21.7827 29.5435 22.6042 31.3054 22.7987V13.9001V11.3978C31.2771 8.47287 30.0755 5.67663 27.9606 3.61487C25.8456 1.55312 22.9879 0.391909 20.0064 0.382812V0.382812Z" />
        <path d="M20.0066 19.8682C17.7662 19.8659 15.5754 20.5157 13.7115 21.7354C11.8477 22.9552 10.3945 24.69 9.53603 26.7203C8.67755 28.7506 8.45236 30.9851 8.88888 33.141C9.32539 35.2969 10.404 37.2774 11.9882 38.8316C13.5725 40.3859 15.5911 41.4441 17.7887 41.8724C19.9862 42.3006 22.2638 42.0796 24.3333 41.2374C26.4027 40.3952 28.171 38.9696 29.4142 37.141C30.6575 35.3124 31.3199 33.1631 31.3175 30.965C31.3112 28.0239 30.1175 25.2049 27.9976 23.1252C25.8778 21.0455 23.0045 19.8743 20.0066 19.8682V19.8682ZM20.0066 35.7592C19.0396 35.7615 18.0936 35.4823 17.2885 34.9569C16.4833 34.4316 15.8551 33.6836 15.4834 32.8078C15.1117 31.932 15.0132 30.9676 15.2004 30.0369C15.3876 29.1061 15.8521 28.2508 16.535 27.5792C17.218 26.9075 18.0887 26.4497 19.0369 26.2638C19.9852 26.0779 20.9683 26.1721 21.8619 26.5346C22.7556 26.8972 23.5195 27.5116 24.057 28.3003C24.5945 29.0889 24.8813 30.0163 24.8813 30.965C24.8813 32.2345 24.3681 33.4521 23.4543 34.3509C22.5404 35.2496 21.3006 35.7561 20.0066 35.7592V35.7592Z"/>
        <path d="M2.21196 0.383789H0.638672V15.8305C0.650882 17.5699 1.31264 19.2446 2.49872 20.5375C3.6848 21.8305 5.31286 22.6519 7.07475 22.8464V5.1663C7.07476 3.89992 6.5628 2.68524 5.65118 1.78868C4.73956 0.892121 3.50276 0.386885 2.21196 0.383789V0.383789Z"/>
        <path d="M37.8006 0.382812C37.1604 0.382812 36.5265 0.506525 35.9351 0.746869C35.3436 0.987213 34.8062 1.33949 34.3536 1.78358C33.9009 2.22768 33.5418 2.7549 33.2969 3.33514C33.0519 3.91538 32.9258 4.53728 32.9258 5.16532V22.8922C34.6877 22.6977 36.3158 21.8762 37.5019 20.5833C38.688 19.2904 39.3497 17.6157 39.3619 15.8763V0.382812H37.8006Z"/>
    </symbol>

    <symbol id="asterisk" viewBox="0 0 64 64">
        <path fill-rule="evenodd" clip-rule="evenodd" d="M37.1923 2H26.8077V19.4659L14.4564 7.11461L7.11338 14.4576L19.4634 26.8077H2V37.1923H19.4647L7.11566 49.5413L14.4587 56.8844L26.8077 44.5354V62H37.1923V44.5366L49.5398 56.884L56.8828 49.541L44.5341 37.1923H62V26.8077H44.5354L56.8851 14.458L49.5421 7.11493L37.1923 19.4647V2Z"/>
    </symbol>

    <symbol id="circle-parts" viewBox="0 0 64 64">
        <path fill-rule="evenodd" clip-rule="evenodd" d="M42.6066 6.3934C45.4196 9.20644 47 13.0218 47 17L32 17L17 17C17 13.0217 18.5804 9.20644 21.3934 6.3934C24.2064 3.58035 28.0218 2 32 2C35.9782 2 39.7936 3.58035 42.6066 6.3934ZM17 32L17 17V2C15.0302 2 13.0796 2.38799 11.2597 3.14181C9.43986 3.89563 7.78627 5.00052 6.39339 6.3934C5.00051 7.78628 3.89562 9.43987 3.1418 11.2598C2.38798 13.0796 2 15.0302 2 17L17 17C13.0218 17 9.20644 18.5804 6.3934 21.3934C3.58035 24.2064 2 28.0218 2 32C2 35.9782 3.58035 39.7936 6.3934 42.6066C9.20644 45.4196 13.0218 47 17 47H2C2 48.9698 2.38799 50.9204 3.14181 52.7403C3.89563 54.5601 5.00052 56.2137 6.3934 57.6066C7.78628 58.9995 9.43987 60.1044 11.2598 60.8582C13.0796 61.612 15.0302 62 17 62L17 47.0093C17.0025 50.9842 18.5825 54.7957 21.3934 57.6066C24.2064 60.4196 28.0218 62 32 62C35.9782 62 39.7936 60.4196 42.6066 57.6066C45.4171 54.7961 46.9972 50.9851 47 47.0107V62C48.9698 62 50.9204 61.612 52.7403 60.8582C54.5601 60.1044 56.2137 58.9995 57.6066 57.6066C58.9995 56.2137 60.1044 54.5601 60.8582 52.7402C61.612 50.9204 62 48.9698 62 47L47 47C50.9782 47 54.7936 45.4196 57.6066 42.6066C60.4196 39.7936 62 35.9782 62 32C62 28.0218 60.4196 24.2064 57.6066 21.3934C54.7936 18.5804 50.9782 17 47 17H62C62 15.0302 61.612 13.0796 60.8582 11.2597C60.1044 9.43986 58.9995 7.78628 57.6066 6.3934C56.2137 5.00052 54.5601 3.89563 52.7402 3.14181C50.9204 2.38799 48.9698 2 47 2V17V32C47 23.7157 40.2843 17 32 17C23.7157 17 17 23.7157 17 32ZM32 47H47L47 32C47 40.2843 40.2843 47 32 47ZM32 47C23.7157 47 17 40.2843 17 32L17 47H32Z"/>
    </symbol>

    <symbol id="switch" viewBox="0 0 96 54">
        <path fill-rule="evenodd" clip-rule="evenodd" d="M27.8081 0C12.4501 0 0 12.0884 0 27C0 41.9116 12.4501 54 27.8081 54H68.1919C83.5498 54 96 41.9116 96 27C96 12.0884 83.5498 0 68.1919 0H27.8081ZM68.1919 44.1818C77.9652 44.1818 85.888 36.4893 85.888 27C85.888 17.5107 77.9652 9.81818 68.1919 9.81818C58.4186 9.81818 50.4959 17.5107 50.4959 27C50.4959 36.4893 58.4186 44.1818 68.1919 44.1818Z"/>
    </symbol>

    <symbol id="eye" viewBox="0 0 101 62">
        <path fill-rule="evenodd" clip-rule="evenodd" d="M101 31C101 31 78.3905 62 50.5 62C22.6097 62 0 31 0 31C0 31 22.6097 0 50.5 0C78.3905 0 101 31 101 31ZM73.5485 31C73.5485 43.4565 63.2296 53.5546 50.5 53.5546C37.7704 53.5546 27.4514 43.4565 27.4514 31C27.4514 18.5435 37.7704 8.44539 50.5 8.44539C63.2296 8.44539 73.5485 18.5435 73.5485 31ZM50.5 43.9244C57.7945 43.9244 63.7077 38.1379 63.7077 31C63.7077 23.8621 57.7945 18.0756 50.5 18.0756C43.2055 18.0756 37.2923 23.8621 37.2923 31C37.2923 38.1379 43.2055 43.9244 50.5 43.9244Z"/>
    </symbol>

    <symbol id="four-square" viewBox="0 0 76 76">
        <path fill-rule="evenodd" clip-rule="evenodd" d="M76 19L57 0L38 19L19 0L0 19L19 38L0 57L19 76L38 57L57 76L76 57L57 38L76 19ZM57 38L38 57L19 38L38 19L57 38Z"/>
    </symbol>

    <symbol id="wave" viewBox="0 0 61 66">
        <path fill-rule="evenodd" clip-rule="evenodd" d="M2.08282 60.3522L8.35585 66L21.5645 48.088L10.4383 33L21.5645 17.912L8.35585 -4.51505e-06L2.08282 5.64782L11.1266 17.912L0.000414872 33L11.1266 48.088L2.08282 60.3522ZM46.7933 66L40.5203 60.3522L49.5641 48.088L38.4379 33L49.5641 17.912L40.5203 5.64782L46.7934 -1.15473e-06L60.002 17.912L48.8758 33L60.002 48.088L46.7933 66ZM27.5751 66L21.3021 60.3522L30.3459 48.088L19.2197 33L30.3459 17.912L21.3021 5.64782L27.5751 -2.83484e-06L40.7837 17.912L29.6575 33L40.7837 48.088L27.5751 66Z"/>
    </symbol>
</svg>
