<svg xmlns="http://www.w3.org/2000/svg">

    <symbol id="circle" viewBox="0 0 60 60">
        <path d="M30 60c-16.57 0-30-13.43-30-30s13.43-30 30-30 30 13.43 30 30c.008 16.57-13.43 30-30 30z"/>
    </symbol>

    <symbol id="circles" viewBox="0 0 60 60">
        <rect width="30" height="30" rx="15" fill="#E4003A"/>
        <rect y="30" width="30" height="30" rx="15" fill="#FBBB21"/>
        <rect x="30" width="30" height="30" rx="15" fill="#F39DB1"/>
        <rect x="30" y="30" width="30" height="30" rx="15" fill="#00A984"/>
    </symbol>

    <symbol id="circle-half" viewBox="0 0 60 60">
        <path d="M60 30c0-16.6-13.4-30-30-30v60c16.6 0 30-13.4 30-30z"/>
    </symbol>

    <symbol id="circle-half-2" viewBox="0 0 60 60">
        <path d="M30 30v-30c-16.57 0-30 13.43-30 30s13.43 30 30 30v-30zM60 30v-30c-16.57 0-30 13.43-30 30s13.43 30 30 30v-30z"/>
    </symbol>

    <symbol id="circle-half-2-lines" viewBox="0 0 120 120">
        <path d="M59.5.502v118.994c-32.627-.272-59-27.155-58.999-60.297 0-32.251 26.361-58.433 59-58.698zm60 0l-.001 118.995c-32.626-.272-58.999-27.155-58.999-60.297 0-32.251 26.361-58.433 59-58.697z"/>
    </symbol>

    <symbol id="circle-half-2-lines-388" viewBox="0 0 388 388">
        <path d="M194.5 194c0-106.7 86.363-193.23 193-193.499v386.998c-106.637-.269-193-86.799-193-193.499zM.5 194c0-106.7 86.363-193.23 193-193.499v386.998c-106.637-.269-193-86.799-193-193.499z"/>
    </symbol>

    <symbol id="circle-two-half" viewBox="0 0 60 60">
        <path d="M0 60C16.5698 60 30 46.5698 30 30C30 13.4302 16.5698 1.44858e-06 5.24537e-06 0L0 60Z"/>
        <path d="M60 0C43.4302 0 30 13.4302 30 30C30 46.5698 43.4302 60 60 60V0Z"/>
    </symbol>

    <symbol id="circle-four-quarter" viewBox="0 0 60 60">
        <path d="M30 30C13.4315 30 -5.87108e-07 16.5685 -1.31134e-06 0L30 -1.31134e-06L30 30Z"/>
        <path d="M60 60C43.4315 60 30 46.5685 30 30L60 30L60 60Z"/>
        <path d="M30 60C13.4315 60 1.60169e-07 46.5685 3.57746e-07 30L30 30L30 60Z"/>
        <path d="M60 30C43.4315 30 30 16.5685 30 0L60 2.26494e-06L60 30Z"/>
    </symbol>

    <symbol id="circle-no-quarter" viewBox="0 0 60 60">
        <path fill-rule="evenodd" clip-rule="evenodd" d="M30 60C46.5685 60 60 46.5685 60 30L30 30L30 0C13.4315 0 0 13.4315 0 30C0 46.5685 13.4315 60 30 60Z"/>
    </symbol>

    <symbol id="circle-lines" viewBox="0 0 120 120">
        <rect x="0.5" y="119.5" width="119" height="119" rx="59.5" transform="rotate(-90 0.5 119.5)"/>
    </symbol>

    <symbol id="circle-four-quarter-lines" viewBox="0 0 120 120">
        <path d="M59.5 60.5L59.5 119.498C27.0333 119.231 0.769225 92.9667 0.502057 60.5H59.5Z"/>
        <path d="M119.5 60.5L119.5 119.498C87.0333 119.231 60.7692 92.9667 60.5021 60.5H119.5Z"/>
        <path d="M59.5 0.5L59.5 59.4979C27.0333 59.2308 0.769225 32.9667 0.502057 0.5H59.5Z"/>
        <path d="M119.5 0.5L119.5 59.4979C87.0333 59.2308 60.7692 32.9667 60.5021 0.5H119.5Z"/>
    </symbol>

    <symbol id="square" viewBox="0 0 60 60">
        <path d="M0 0h60v60h-60z"/>
    </symbol>

    <symbol id="square-lines" viewBox="0 0 120 120">
        <path d="M.5 119.5v-119h119v119h-119z"/>
    </symbol>

    <symbol id="triangle" viewBox="0 0 60 60">
        <path d="M60 0v60h-60l60-60z"/>
    </symbol>

    <symbol id="triangle-2" viewBox="0 0 49 56">
        <path d="M49 28L6.67793e-07 56L0 5.84319e-07L49 28Z"/>
    </symbol>

    <symbol id="triangle-small-big" viewBox="0 0 60 60">
        <path d="M-1.50547e-06 30L29.9961 30.0039L30 60L-1.50547e-06 30Z"/>
        <path d="M0 0H60L60 60L0 0Z"/>
    </symbol>

    <symbol id="quadrant" viewBox="0 0 60 60">
        <path d="M0 60c0-33.137 26.863-60 60-60v60h-60z"/>
    </symbol>

    <symbol id="quadrant-line" viewBox="0 0 60 60">
        <path d="M0 60c0-15.913 6.321-31.174 17.574-42.426 11.252-11.252 26.513-17.574 42.426-17.574v30.491c-7.826 0-15.332 3.109-20.866 8.643-5.534 5.534-8.643 13.04-8.643 20.866h-30.491z"/>
    </symbol>

    <symbol id="quadrant-line-lines" viewBox="0 0 120 120">
        <path d="M119.5 59.899c-32.705.473-59.129 26.896-59.601 59.601h-59.398c.269-65.602 53.397-118.73 118.999-118.999v59.398z"/>
    </symbol>

    <symbol id="star-4" viewBox="0 0 60 60">
        <path d="M.326 29.948l-.326.052.326.052c15.2 2.5 27.122 14.422 29.622 29.622l.052.326.052-.326c2.5-15.2 14.422-27.122 29.622-29.622l.326-.052-.326-.052c-15.2-2.5-27.122-14.422-29.622-29.622l-.052-.326-.052.326c-2.5 15.2-14.422 27.111-29.622 29.622z"/>
    </symbol>

    <symbol id="star-4-invert" viewBox="0 0 60 60">
        <path d="M30 0C30 16.5685 16.5685 30 0 30L2.62268e-06 -2.62268e-06L30 0Z"/>
        <path d="M30 60C30 43.4315 43.4315 30 60 30L60 60L30 60Z"/>
        <path d="M0 30C16.5685 30 30 43.4315 30 60L3.57746e-07 60L0 30Z"/>
        <path d="M60 30C43.4315 30 30 16.5685 30 0L60 2.26494e-06L60 30Z"/>
    </symbol>

    <symbol id="star-lines" viewBox="0 0 120 120">
        <path d="M59.4979 0.500008C59.2307 32.9642 32.9642 59.2307 0.500004 59.4979L0.500009 0.500002L59.4979 0.500008Z"/>
        <path d="M60.502 119.5C60.7693 87.0358 87.0358 60.7693 119.5 60.5021L119.5 119.5L60.502 119.5Z"/>
        <path d="M0.500004 60.5021C32.9642 60.7693 59.2307 87.0358 59.4979 119.5L0.500005 119.5L0.500004 60.5021Z"/>
        <path d="M119.5 59.4979C87.0358 59.2307 60.7693 32.9642 60.5021 0.500004L119.5 0.500008L119.5 59.4979Z"/>
    </symbol>

    <symbol id="star-rounded" viewBox="0 0 60 60">
        <path d="M25.809 3.42103C26.7413 -1.14034 33.2587 -1.14034 34.191 3.42103C36.4952 14.6946 45.3054 23.5048 56.579 25.809C61.1403 26.7413 61.1403 33.2587 56.579 34.191C45.3054 36.4952 36.4952 45.3054 34.191 56.579C33.2587 61.1403 26.7413 61.1403 25.809 56.579C23.5048 45.3054 14.6946 36.4952 3.42103 34.191C-1.14034 33.2587 -1.14034 26.7413 3.42103 25.809C14.6946 23.5048 23.5048 14.6946 25.809 3.42103Z"/>
    </symbol>

    <symbol id="leaf" viewBox="0 0 60 60">
        <path d="M30 60c-16.569 0-30-13.431-30-30h30v30zM30 0c16.569 0 30 13.431 30 30h-30v-30zM0 0h30v30h-30v-30zM30 30h30v30h-30v-30z"/>
    </symbol>

    <symbol id="leaf-2" viewBox="0 0 60 30">
        <path d="M0 0C0 16.5698 13.4302 30 30 30L59.9988 30C59.9988 13.4302 46.5698 0 30 0H0Z"/>
    </symbol>

    <symbol id="leaf-double" viewBox="0 0 60 60">
        <path fill-rule="evenodd" clip-rule="evenodd" d="M30 60L60 60C60 43.4302 46.5698 30 30 30L30 30.0002L0 30.0002C-7.24298e-07 46.57 13.4302 60.0002 30 60.0002L30 60Z"/>
        <path fill-rule="evenodd" clip-rule="evenodd" d="M30 -3.21869e-06L-1.31134e-06 0C-5.87052e-07 16.5698 13.4302 30 30 30L30 29.9998L60 29.9998C60 13.43 46.5698 -0.000219473 30 -0.000218749L30 -3.21869e-06Z"/>
    </symbol>

    <symbol id="arrow-2" viewBox="0 0 60 60">
        <path d="M30 0l30 30-30 30v-60zM0 0l30 30-30 30v-60z"/>
    </symbol>
    
    <symbol id="arrow-diagonal" viewBox="0 0 60 60">
        <path fill-rule="evenodd" clip-rule="evenodd" d="M-1.87327e-06 17.1446L-2.62261e-06 0.00174713L60 0.00174451L60 17.1446L59.9983 17.1446L59.9983 60L42.8555 60L42.8555 29.7375L13.9698 58.6232L1.38172 46.0351L30.2723 17.1446L-1.87327e-06 17.1446Z"/>
    </symbol>

    <symbol id="circle-hole" viewBox="0 0 89 92">
        <path d="M0.493622 63.5843C4.56184 73.4184 11.914 81.5376 21.2975 86.5586C30.6809 91.5796 41.5151 93.1917 51.9538 91.1202C62.3926 89.0486 71.7902 83.4217 78.5453 75.1981C85.3005 66.9745 88.9952 56.6631 89 46.0207C89.0048 35.3784 85.3193 25.0636 78.5716 16.8339C71.8239 8.60425 62.4314 2.96884 51.9945 0.887924C41.5576 -1.193 30.722 0.40932 21.334 5.42186C11.9461 10.4344 4.58656 18.547 0.509476 28.3774L1.43406 28.7609C5.42242 19.1444 12.6218 11.2083 21.8055 6.30483C30.9892 1.40136 41.5889 -0.166086 51.7988 1.86955C62.0086 3.90519 71.1967 9.41797 77.7976 17.4686C84.3985 25.5192 88.0037 35.6095 87.999 46.0203C87.9944 56.431 84.38 66.5181 77.7719 74.5628C71.1637 82.6074 61.9706 88.1119 51.759 90.1384C41.5474 92.1648 30.949 90.5878 21.7697 85.6761C12.5905 80.7643 5.39825 72.8218 1.41856 63.2017L0.493622 63.5843Z"/>
    </symbol>

    <symbol id="circle-with-corners" viewBox="0 0 140 140">
        <path d="M77.8853 7.90753L78.1435 8.14425L78.4541 7.98242L87.9418 3.04041L93.6873 12.0641L93.8754 12.3596L94.2174 12.2837L104.661 9.96567L107.875 20.169L107.98 20.5031L108.33 20.5183L119.018 20.9822L119.482 31.6697L119.497 32.0197L119.831 32.1249L130.034 35.3392L127.716 45.7826L127.64 46.1246L127.936 46.3127L136.96 52.0582L132.018 61.5459L131.856 61.8565L132.092 62.1147L139.322 70L132.092 77.8853L131.856 78.1435L132.018 78.4541L136.96 87.9418L127.936 93.6873L127.64 93.8754L127.716 94.2174L130.034 104.661L119.831 107.875L119.497 107.98L119.482 108.33L119.018 119.018L108.33 119.482L107.98 119.497L107.875 119.831L104.661 130.034L94.2174 127.716L93.8754 127.64L93.6873 127.936L87.9418 136.96L78.4541 132.018L78.1435 131.856L77.8853 132.092L70 139.322L62.1147 132.092L61.8565 131.856L61.5459 132.018L52.0582 136.96L46.3127 127.936L46.1246 127.64L45.7826 127.716L35.3392 130.034L32.1249 119.831L32.0197 119.497L31.6697 119.482L20.9822 119.018L20.5183 108.33L20.5031 107.98L20.169 107.875L9.96567 104.661L12.2837 94.2174L12.3596 93.8754L12.0641 93.6873L3.04041 87.9418L7.98242 78.4541L8.14425 78.1435L7.90753 77.8853L0.67833 70L7.90753 62.1147L8.14425 61.8565L7.98242 61.5459L3.04041 52.0582L12.0641 46.3127L12.3596 46.1246L12.2837 45.7826L9.96567 35.3392L20.169 32.1249L20.5031 32.0197L20.5183 31.6697L20.9822 20.9822L31.6697 20.5183L32.0197 20.5031L32.1249 20.169L35.3392 9.96567L45.7826 12.2837L46.1246 12.3596L46.3127 12.0641L52.0582 3.04041L61.5459 7.98242L61.8565 8.14425L62.1147 7.90753L70 0.67833L77.8853 7.90753Z"/>
    </symbol>

    <symbol id="ino-logo" viewBox="0 0 40 43">
        <path d="M20.0064 0.382812C17.0044 0.385908 14.1262 1.55727 12.0034 3.63985C9.88069 5.72244 8.68675 8.54613 8.68359 11.4913V11.8772V22.8454C10.4455 22.6509 12.0735 21.8295 13.2596 20.5366C14.4457 19.2436 15.1075 17.5689 15.1197 15.8295V13.2219V11.4913C15.1197 10.2229 15.6333 9.0065 16.5475 8.10961C17.4617 7.21271 18.7016 6.70883 19.9945 6.70883C21.2873 6.70883 22.5273 7.21271 23.4415 8.10961C24.3557 9.0065 24.8692 10.2229 24.8692 11.4913V11.8772V15.7827C24.8814 17.5222 25.5432 19.1968 26.7293 20.4898C27.9154 21.7827 29.5435 22.6042 31.3054 22.7987V13.9001V11.3978C31.2771 8.47287 30.0755 5.67663 27.9606 3.61487C25.8456 1.55312 22.9879 0.391909 20.0064 0.382812V0.382812Z" />
        <path d="M20.0066 19.8682C17.7662 19.8659 15.5754 20.5157 13.7115 21.7354C11.8477 22.9552 10.3945 24.69 9.53603 26.7203C8.67755 28.7506 8.45236 30.9851 8.88888 33.141C9.32539 35.2969 10.404 37.2774 11.9882 38.8316C13.5725 40.3859 15.5911 41.4441 17.7887 41.8724C19.9862 42.3006 22.2638 42.0796 24.3333 41.2374C26.4027 40.3952 28.171 38.9696 29.4142 37.141C30.6575 35.3124 31.3199 33.1631 31.3175 30.965C31.3112 28.0239 30.1175 25.2049 27.9976 23.1252C25.8778 21.0455 23.0045 19.8743 20.0066 19.8682V19.8682ZM20.0066 35.7592C19.0396 35.7615 18.0936 35.4823 17.2885 34.9569C16.4833 34.4316 15.8551 33.6836 15.4834 32.8078C15.1117 31.932 15.0132 30.9676 15.2004 30.0369C15.3876 29.1061 15.8521 28.2508 16.535 27.5792C17.218 26.9075 18.0887 26.4497 19.0369 26.2638C19.9852 26.0779 20.9683 26.1721 21.8619 26.5346C22.7556 26.8972 23.5195 27.5116 24.057 28.3003C24.5945 29.0889 24.8813 30.0163 24.8813 30.965C24.8813 32.2345 24.3681 33.4521 23.4543 34.3509C22.5404 35.2496 21.3006 35.7561 20.0066 35.7592V35.7592Z"/>
        <path d="M2.21196 0.383789H0.638672V15.8305C0.650882 17.5699 1.31264 19.2446 2.49872 20.5375C3.6848 21.8305 5.31286 22.6519 7.07475 22.8464V5.1663C7.07476 3.89992 6.5628 2.68524 5.65118 1.78868C4.73956 0.892121 3.50276 0.386885 2.21196 0.383789V0.383789Z"/>
        <path d="M37.8006 0.382812C37.1604 0.382812 36.5265 0.506525 35.9351 0.746869C35.3436 0.987213 34.8062 1.33949 34.3536 1.78358C33.9009 2.22768 33.5418 2.7549 33.2969 3.33514C33.0519 3.91538 32.9258 4.53728 32.9258 5.16532V22.8922C34.6877 22.6977 36.3158 21.8762 37.5019 20.5833C38.688 19.2904 39.3497 17.6157 39.3619 15.8763V0.382812H37.8006Z"/>
    </symbol>

    <symbol id="asterisk" viewBox="0 0 64 64">
        <path fill-rule="evenodd" clip-rule="evenodd" d="M37.1923 2H26.8077V19.4659L14.4564 7.11461L7.11338 14.4576L19.4634 26.8077H2V37.1923H19.4647L7.11566 49.5413L14.4587 56.8844L26.8077 44.5354V62H37.1923V44.5366L49.5398 56.884L56.8828 49.541L44.5341 37.1923H62V26.8077H44.5354L56.8851 14.458L49.5421 7.11493L37.1923 19.4647V2Z"/>
    </symbol>

    <symbol id="circle-parts" viewBox="0 0 64 64">
        <path fill-rule="evenodd" clip-rule="evenodd" d="M42.6066 6.3934C45.4196 9.20644 47 13.0218 47 17L32 17L17 17C17 13.0217 18.5804 9.20644 21.3934 6.3934C24.2064 3.58035 28.0218 2 32 2C35.9782 2 39.7936 3.58035 42.6066 6.3934ZM17 32L17 17V2C15.0302 2 13.0796 2.38799 11.2597 3.14181C9.43986 3.89563 7.78627 5.00052 6.39339 6.3934C5.00051 7.78628 3.89562 9.43987 3.1418 11.2598C2.38798 13.0796 2 15.0302 2 17L17 17C13.0218 17 9.20644 18.5804 6.3934 21.3934C3.58035 24.2064 2 28.0218 2 32C2 35.9782 3.58035 39.7936 6.3934 42.6066C9.20644 45.4196 13.0218 47 17 47H2C2 48.9698 2.38799 50.9204 3.14181 52.7403C3.89563 54.5601 5.00052 56.2137 6.3934 57.6066C7.78628 58.9995 9.43987 60.1044 11.2598 60.8582C13.0796 61.612 15.0302 62 17 62L17 47.0093C17.0025 50.9842 18.5825 54.7957 21.3934 57.6066C24.2064 60.4196 28.0218 62 32 62C35.9782 62 39.7936 60.4196 42.6066 57.6066C45.4171 54.7961 46.9972 50.9851 47 47.0107V62C48.9698 62 50.9204 61.612 52.7403 60.8582C54.5601 60.1044 56.2137 58.9995 57.6066 57.6066C58.9995 56.2137 60.1044 54.5601 60.8582 52.7402C61.612 50.9204 62 48.9698 62 47L47 47C50.9782 47 54.7936 45.4196 57.6066 42.6066C60.4196 39.7936 62 35.9782 62 32C62 28.0218 60.4196 24.2064 57.6066 21.3934C54.7936 18.5804 50.9782 17 47 17H62C62 15.0302 61.612 13.0796 60.8582 11.2597C60.1044 9.43986 58.9995 7.78628 57.6066 6.3934C56.2137 5.00052 54.5601 3.89563 52.7402 3.14181C50.9204 2.38799 48.9698 2 47 2V17V32C47 23.7157 40.2843 17 32 17C23.7157 17 17 23.7157 17 32ZM32 47H47L47 32C47 40.2843 40.2843 47 32 47ZM32 47C23.7157 47 17 40.2843 17 32L17 47H32Z"/>
    </symbol>

    <symbol id="switch" viewBox="0 0 96 54">
        <path fill-rule="evenodd" clip-rule="evenodd" d="M27.8081 0C12.4501 0 0 12.0884 0 27C0 41.9116 12.4501 54 27.8081 54H68.1919C83.5498 54 96 41.9116 96 27C96 12.0884 83.5498 0 68.1919 0H27.8081ZM68.1919 44.1818C77.9652 44.1818 85.888 36.4893 85.888 27C85.888 17.5107 77.9652 9.81818 68.1919 9.81818C58.4186 9.81818 50.4959 17.5107 50.4959 27C50.4959 36.4893 58.4186 44.1818 68.1919 44.1818Z"/>
    </symbol>

    <symbol id="eye" viewBox="0 0 101 62">
        <path fill-rule="evenodd" clip-rule="evenodd" d="M101 31C101 31 78.3905 62 50.5 62C22.6097 62 0 31 0 31C0 31 22.6097 0 50.5 0C78.3905 0 101 31 101 31ZM73.5485 31C73.5485 43.4565 63.2296 53.5546 50.5 53.5546C37.7704 53.5546 27.4514 43.4565 27.4514 31C27.4514 18.5435 37.7704 8.44539 50.5 8.44539C63.2296 8.44539 73.5485 18.5435 73.5485 31ZM50.5 43.9244C57.7945 43.9244 63.7077 38.1379 63.7077 31C63.7077 23.8621 57.7945 18.0756 50.5 18.0756C43.2055 18.0756 37.2923 23.8621 37.2923 31C37.2923 38.1379 43.2055 43.9244 50.5 43.9244Z"/>
    </symbol>

    <symbol id="four-square" viewBox="0 0 76 76">
        <path fill-rule="evenodd" clip-rule="evenodd" d="M76 19L57 0L38 19L19 0L0 19L19 38L0 57L19 76L38 57L57 76L76 57L57 38L76 19ZM57 38L38 57L19 38L38 19L57 38Z"/>
    </symbol>

    <symbol id="wave" viewBox="0 0 61 66">
        <path fill-rule="evenodd" clip-rule="evenodd" d="M2.08282 60.3522L8.35585 66L21.5645 48.088L10.4383 33L21.5645 17.912L8.35585 -4.51505e-06L2.08282 5.64782L11.1266 17.912L0.000414872 33L11.1266 48.088L2.08282 60.3522ZM46.7933 66L40.5203 60.3522L49.5641 48.088L38.4379 33L49.5641 17.912L40.5203 5.64782L46.7934 -1.15473e-06L60.002 17.912L48.8758 33L60.002 48.088L46.7933 66ZM27.5751 66L21.3021 60.3522L30.3459 48.088L19.2197 33L30.3459 17.912L21.3021 5.64782L27.5751 -2.83484e-06L40.7837 17.912L29.6575 33L40.7837 48.088L27.5751 66Z"/>
    </symbol>

    <symbol id="dashed-arrow-1" viewBox="0 0 319 77">
        <path d="M24.1363 64.0046C23.8576 63.5278 24.0182 62.9154 24.495 62.6367L32.2649 58.0948C32.7417 57.8161 33.3542 57.9767 33.6329 58.4535C33.9116 58.9303 33.751 59.5427 33.2742 59.8215L26.3676 63.8587L30.4048 70.7652C30.6835 71.242 30.523 71.8545 30.0462 72.1332C29.5694 72.4119 28.9569 72.2513 28.6782 71.7745L24.1363 64.0046ZM317 29.9997L316.05 30.3131L317 29.9997ZM2.10164 49.298C1.66085 49.6307 1.03377 49.5431 0.701023 49.1024C0.368276 48.6616 0.455864 48.0345 0.896656 47.7017L2.10164 49.298ZM4.07212 45.3813C4.52294 45.0622 5.14703 45.1691 5.46605 45.6199C5.78508 46.0707 5.67823 46.6948 5.22741 47.0138L4.07212 45.3813ZM11.7686 42.6636C11.3004 42.9566 10.6834 42.8146 10.3904 42.3464C10.0974 41.8782 10.2395 41.2612 10.7076 40.9682L11.7686 42.6636ZM17.5552 36.9224C18.0374 36.6532 18.6466 36.8258 18.9158 37.3081C19.185 37.7903 19.0123 38.3995 18.5301 38.6687L17.5552 36.9224ZM25.4432 35.0106C24.9496 35.2583 24.3486 35.0589 24.101 34.5653C23.8533 34.0716 24.0526 33.4707 24.5463 33.223L25.4432 35.0106ZM31.709 29.8078C32.212 29.5798 32.8046 29.8028 33.0326 30.3059C33.2605 30.8089 33.0376 31.4015 32.5345 31.6295L31.709 29.8078ZM39.7792 28.5037C39.2684 28.7135 38.6841 28.4695 38.4742 27.9587C38.2644 27.4478 38.5084 26.8635 39.0193 26.6537L39.7792 28.5037ZM46.3748 23.7712C46.8921 23.5779 47.4683 23.8405 47.6616 24.3578C47.855 24.8751 47.5924 25.4513 47.075 25.6446L46.3748 23.7712ZM54.4781 23.0025C53.9553 23.1806 53.3871 22.9012 53.209 22.3784C53.0309 21.8557 53.3103 21.2875 53.8331 21.1094L54.4781 23.0025ZM61.3913 18.6493C61.9187 18.4854 62.4791 18.78 62.643 19.3074C62.8069 19.8348 62.5123 20.3952 61.9849 20.5592L61.3913 18.6493ZM69.5082 18.3239C68.9769 18.4747 68.4239 18.1663 68.2731 17.635C68.1223 17.1037 68.4307 16.5507 68.962 16.3999L69.5082 18.3239ZM76.6037 14.3268C77.1384 14.1883 77.6841 14.5094 77.8226 15.0441C77.9611 15.5787 77.64 16.1244 77.1054 16.2629L76.6037 14.3268ZM84.7677 14.3668C84.2302 14.4937 83.6916 14.1609 83.5647 13.6234C83.4377 13.0859 83.7706 12.5472 84.3081 12.4203L84.7677 14.3668ZM92.0097 10.6842C92.5496 10.5682 93.0814 10.9118 93.1975 11.4518C93.3135 11.9917 92.9699 12.5235 92.43 12.6396L92.0097 10.6842ZM100.152 11.0575C99.6104 11.1632 99.0852 10.8095 98.9795 10.2674C98.8738 9.72535 99.2276 9.20022 99.7697 9.09451L100.152 11.0575ZM107.551 7.65097C108.095 7.55512 108.613 7.91835 108.709 8.46225C108.805 9.00616 108.442 9.52477 107.898 9.62062L107.551 7.65097ZM115.664 8.32187C115.119 8.40828 114.606 8.03613 114.52 7.49064C114.434 6.94516 114.806 6.43291 115.351 6.34651L115.664 8.32187ZM123.182 5.17331C123.729 5.096 124.234 5.47663 124.312 6.02348C124.389 6.57033 124.008 7.07631 123.462 7.15362L123.182 5.17331ZM131.268 6.11416C130.72 6.18269 130.22 5.79399 130.152 5.24596C130.083 4.69795 130.472 4.19815 131.02 4.12962L131.268 6.11416ZM138.879 3.20932C139.428 3.14935 139.922 3.5458 139.982 4.09482C140.042 4.64384 139.645 5.13752 139.096 5.19749L138.879 3.20932ZM146.933 4.40188C146.383 4.45351 145.895 4.0496 145.844 3.49973C145.792 2.94987 146.196 2.46226 146.746 2.41063L146.933 4.40188ZM154.633 1.72969C155.183 1.68628 155.665 2.09742 155.708 2.64799C155.752 3.19857 155.34 3.68009 154.79 3.7235L154.633 1.72969ZM162.644 3.1624C162.093 3.1977 161.618 2.77953 161.583 2.22837C161.547 1.67722 161.965 1.20179 162.517 1.16649L162.644 3.1624ZM170.418 0.718368C170.969 0.69113 171.439 1.11622 171.466 1.66783C171.493 2.21944 171.068 2.6887 170.516 2.71594L170.418 0.718368ZM178.396 2.38451C177.844 2.40369 177.381 1.97179 177.362 1.41984C177.342 0.867881 177.774 0.404896 178.326 0.385717L178.396 2.38451ZM186.21 0.169591C186.762 0.15851 187.219 0.597151 187.23 1.14932C187.241 1.7015 186.803 2.1581 186.25 2.16918L186.21 0.169591ZM194.155 2.06948C193.603 2.0723 193.153 1.62689 193.15 1.07461C193.147 0.52233 193.593 0.072335 194.145 0.0695078L194.155 2.06948ZM202.053 0.0889801C202.605 0.0945608 203.048 0.546772 203.043 1.09903C203.037 1.65129 202.585 2.09446 202.032 2.08888L202.053 0.0889801ZM209.891 2.22944C209.339 2.21522 208.903 1.75612 208.917 1.20402C208.931 0.651917 209.39 0.215881 209.943 0.230108L209.891 2.22944ZM217.879 0.499138C218.431 0.522401 218.859 0.988582 218.836 1.54037C218.812 2.09217 218.346 2.52062 217.795 2.49736L217.879 0.499138ZM225.656 2.89574C225.104 2.86301 224.684 2.38955 224.717 1.83824C224.749 1.28693 225.223 0.866527 225.774 0.899254L225.656 2.89574ZM233.637 1.4369C234.187 1.47965 234.599 1.96067 234.556 2.5113C234.514 3.06192 234.033 3.47365 233.482 3.43091L233.637 1.4369ZM241.367 4.12044C240.818 4.06681 240.415 3.57774 240.469 3.02806C240.523 2.47839 241.012 2.07626 241.561 2.12989L241.367 4.12044ZM249.44 2.98313C249.989 3.04862 250.38 3.54627 250.315 4.09465C250.249 4.64304 249.752 5.03451 249.203 4.96903L249.44 2.98313ZM256.983 5.99087C256.436 5.91225 256.056 5.40536 256.135 4.8587C256.214 4.31204 256.721 3.93262 257.267 4.01124L256.983 5.99087ZM265.061 5.23845C265.605 5.33198 265.971 5.84905 265.877 6.39336C265.784 6.93766 265.267 7.3031 264.722 7.20957L265.061 5.23845ZM272.486 8.66909C271.945 8.55804 271.596 8.02944 271.707 7.48844C271.818 6.94744 272.347 6.59889 272.888 6.70994L272.486 8.66909ZM280.647 8.45582C281.183 8.58794 281.511 9.12975 281.379 9.666C281.247 10.2022 280.705 10.5299 280.169 10.3978L280.647 8.45582ZM287.747 12.4561C287.218 12.2976 286.917 11.7402 287.076 11.2112C287.234 10.6821 287.792 10.3817 288.321 10.5402L287.747 12.4561ZM295.866 13.0623C296.383 13.2557 296.646 13.8318 296.453 14.3491C296.259 14.8665 295.683 15.1291 295.166 14.9357L295.866 13.0623ZM302.3 17.9772C301.804 17.7343 301.599 17.1353 301.842 16.6393C302.085 16.1433 302.684 15.9381 303.18 16.181L302.3 17.9772ZM310.158 20.2721C310.607 20.5937 310.71 21.2184 310.388 21.6674C310.067 22.1164 309.442 22.2197 308.993 21.8981L310.158 20.2721ZM314.379 27.0747C314.06 26.6238 314.167 25.9997 314.618 25.6809C315.069 25.362 315.693 25.4691 316.012 25.92L314.379 27.0747ZM318.817 33.9734C318.856 34.5243 318.441 35.0025 317.89 35.0415C317.339 35.0804 316.861 34.6654 316.822 34.1145L318.817 33.9734ZM315.22 41.4609C315.479 40.973 316.084 40.7873 316.572 41.0461C317.06 41.3049 317.246 41.9102 316.987 42.3981L315.22 41.4609ZM311.605 48.9483C311.189 49.3124 310.557 49.2709 310.193 48.8556C309.829 48.4403 309.871 47.8085 310.286 47.4444L311.605 48.9483ZM303.72 52.0612C304.198 51.7842 304.809 51.947 305.086 52.4248C305.363 52.9026 305.201 53.5145 304.723 53.7915L303.72 52.0612ZM297.246 57.5305C296.739 57.751 296.15 57.5193 295.93 57.0129C295.709 56.5066 295.941 55.9174 296.447 55.6968L297.246 57.5305ZM288.893 58.6343C289.414 58.4525 289.985 58.7278 290.167 59.2493C290.348 59.7707 290.073 60.3409 289.552 60.5228L288.893 58.6343ZM281.674 63.0209C281.144 63.1742 280.589 62.8684 280.436 62.3378C280.283 61.8072 280.589 61.2528 281.119 61.0995L281.674 63.0209ZM273.229 63.1962C273.765 63.065 274.307 63.3935 274.438 63.93C274.569 64.4664 274.24 65.0077 273.704 65.1389L273.229 63.1962ZM265.709 66.9507C265.168 67.0642 264.638 66.718 264.525 66.1775C264.411 65.637 264.757 65.1069 265.298 64.9934L265.709 66.9507ZM257.295 66.5569C257.838 66.4582 258.358 66.8187 258.457 67.3621C258.556 67.9055 258.195 68.426 257.652 68.5247L257.295 66.5569ZM249.538 69.8996C248.993 69.9857 248.481 69.6133 248.394 69.0678C248.308 68.5222 248.681 68.0102 249.226 67.9241L249.538 69.8996ZM241.101 69.1211C241.649 69.046 242.153 69.4286 242.228 69.9758C242.303 70.523 241.921 71.0274 241.373 71.1025L241.101 69.1211ZM233.221 72.1471C232.672 72.2125 232.175 71.821 232.109 71.2726C232.044 70.7242 232.435 70.2266 232.984 70.1611L233.221 72.1471ZM224.87 71.063C225.419 71.0063 225.911 71.4056 225.967 71.955C226.024 72.5044 225.625 72.9957 225.075 73.0524L224.87 71.063ZM216.883 73.8379C216.333 73.8867 215.848 73.4803 215.799 72.9301C215.75 72.38 216.157 71.8945 216.707 71.8457L216.883 73.8379ZM208.525 72.5158C209.076 72.4744 209.556 72.8872 209.597 73.4379C209.639 73.9886 209.226 74.4687 208.675 74.5102L208.525 72.5158ZM200.503 75.0743C199.951 75.1089 199.477 74.6902 199.442 74.139C199.407 73.5878 199.826 73.1129 200.377 73.0782L200.503 75.0743ZM192.192 73.5447C192.743 73.5165 193.213 73.9407 193.242 74.4923C193.27 75.0438 192.846 75.5139 192.294 75.5421L192.192 73.5447ZM184.079 75.9168C183.527 75.939 183.062 75.5096 183.04 74.9577C183.018 74.4059 183.447 73.9406 183.999 73.9184L184.079 75.9168ZM175.822 74.2028C176.374 74.1865 176.835 74.6208 176.851 75.1729C176.867 75.7249 176.433 76.1856 175.881 76.2019L175.822 74.2028ZM167.664 76.4019C167.112 76.4126 166.656 75.9735 166.645 75.4213C166.635 74.8692 167.074 74.4129 167.626 74.4023L167.664 76.4019ZM159.435 74.5186C159.987 74.5135 160.439 74.9571 160.444 75.5094C160.449 76.0616 160.005 76.5134 159.453 76.5185L159.435 74.5186ZM151.238 76.5535C150.686 76.5531 150.238 76.1051 150.238 75.5528C150.239 75.0005 150.687 74.5531 151.239 74.5535L151.238 76.5535ZM143.047 74.5078C143.599 74.5136 144.042 74.9659 144.036 75.5182C144.031 76.0705 143.578 76.5134 143.026 76.5077L143.047 74.5078ZM134.815 76.3812C134.263 76.37 133.824 75.9133 133.835 75.3611C133.847 74.809 134.303 74.3704 134.856 74.3817L134.815 76.3812ZM126.656 74.1743C127.208 74.191 127.642 74.652 127.625 75.2041C127.608 75.7561 127.147 76.1901 126.595 76.1733L126.656 74.1743ZM118.4 75.8836C117.848 75.8612 117.418 75.3958 117.441 74.844C117.463 74.2921 117.929 73.8629 118.48 73.8852L118.4 75.8836ZM110.29 73.511C110.842 73.5391 111.266 74.009 111.238 74.5606C111.21 75.1122 110.74 75.5365 110.188 75.5084L110.29 73.511ZM101.974 75.0447C101.423 75.0105 101.004 74.5359 101.038 73.9847C101.072 73.4335 101.546 73.0143 102.098 73.0485L101.974 75.0447ZM93.9439 72.4962C94.4947 72.5368 94.9083 73.0161 94.8678 73.5669C94.8272 74.1177 94.3479 74.5314 93.7971 74.4908L93.9439 72.4962ZM85.6064 73.8378C85.0562 73.7905 84.6485 73.3061 84.6958 72.7558C84.7432 72.2056 85.2276 71.7979 85.7779 71.8452L85.6064 73.8378ZM77.5981 71.0869C78.1477 71.1417 78.5488 71.6315 78.4941 72.1811C78.4394 72.7307 77.9495 73.1318 77.3999 73.0771L77.5981 71.0869ZM69.2343 72.204C68.6856 72.1412 68.2918 71.6454 68.3546 71.0967C68.4175 70.548 68.9132 70.1541 69.4619 70.217L69.2343 72.204ZM61.3775 69.2248C61.9251 69.2967 62.3107 69.7989 62.2388 70.3465C62.1669 70.8941 61.6647 71.2797 61.1171 71.2078L61.3775 69.2248ZM52.9538 70.0586C52.4077 69.9762 52.0317 69.4667 52.1141 68.9206C52.1964 68.3745 52.7059 67.9986 53.252 68.0809L52.9538 70.0586ZM45.1488 66.7681C45.6929 66.8628 46.0572 67.3806 45.9626 67.9247C45.8679 68.4689 45.3501 68.8332 44.806 68.7385L45.1488 66.7681ZM36.7037 67.2179C36.1624 67.1082 35.8124 66.5806 35.9221 66.0393C36.0317 65.498 36.5593 65.148 37.1006 65.2577L36.7037 67.2179ZM29.1185 63.5009C29.6556 63.6296 29.9868 64.1692 29.8582 64.7063C29.7295 65.2434 29.1899 65.5746 28.6528 65.4459L29.1185 63.5009ZM0.896656 47.7017C1.93573 46.9174 2.99442 46.1439 4.07212 45.3813L5.22741 47.0138C4.16604 47.7649 3.12393 48.5263 2.10164 49.298L0.896656 47.7017ZM10.7076 40.9682C12.9255 39.5804 15.2095 38.232 17.5552 36.9224L18.5301 38.6687C16.2121 39.9628 13.9569 41.2943 11.7686 42.6636L10.7076 40.9682ZM24.5463 33.223C26.8832 32.0504 29.2721 30.9121 31.709 29.8078L32.5345 31.6295C30.1206 32.7234 27.7556 33.8503 25.4432 35.0106L24.5463 33.223ZM39.0193 26.6537C41.4317 25.6627 43.8846 24.702 46.3748 23.7712L47.075 25.6446C44.6041 26.5682 42.1711 27.5211 39.7792 28.5037L39.0193 26.6537ZM53.8331 21.1094C56.3212 20.2617 58.8416 19.4418 61.3913 18.6493L61.9849 20.5592C59.4519 21.3465 56.9486 22.1608 54.4781 23.0025L53.8331 21.1094ZM68.962 16.3999C71.4854 15.6836 74.0336 14.9927 76.6037 14.3268L77.1054 16.2629C74.5496 16.9251 72.0163 17.6119 69.5082 18.3239L68.962 16.3999ZM84.3081 12.4203C86.8576 11.8182 89.4257 11.2396 92.0097 10.6842L92.43 12.6396C89.8588 13.1922 87.3039 13.7678 84.7677 14.3668L84.3081 12.4203ZM99.7697 9.09451C102.351 8.59114 104.946 8.11006 107.551 7.65097L107.898 9.62062C105.304 10.0777 102.722 10.5565 100.152 11.0575L99.7697 9.09451ZM115.351 6.34651C117.954 5.93422 120.565 5.54325 123.182 5.17331L123.462 7.15362C120.856 7.52204 118.256 7.91136 115.664 8.32187L115.351 6.34651ZM131.02 4.12962C133.637 3.80237 136.258 3.49571 138.879 3.20932L139.096 5.19749C136.485 5.48277 133.875 5.78823 131.268 6.11416L131.02 4.12962ZM146.746 2.41063C149.377 2.16363 152.007 1.93674 154.633 1.72969L154.79 3.7235C152.174 3.92978 149.554 4.15581 146.933 4.40188L146.746 2.41063ZM162.517 1.16649C165.157 0.997332 167.792 0.848059 170.418 0.718368L170.516 2.71594C167.9 2.84515 165.275 2.99387 162.644 3.1624L162.517 1.16649ZM178.326 0.385717C180.966 0.294008 183.595 0.222066 186.21 0.169591L186.25 2.16918C183.645 2.22147 181.026 2.29314 178.396 2.38451L178.326 0.385717ZM194.145 0.0695078C196.799 0.055934 199.436 0.0625365 202.053 0.0889801L202.032 2.08888C199.426 2.06254 196.799 2.05596 194.155 2.06948L194.145 0.0695078ZM209.943 0.230108C212.613 0.298908 215.26 0.388714 217.879 0.499138L217.795 2.49736C215.187 2.38741 212.551 2.29797 209.891 2.22944L209.943 0.230108ZM225.774 0.899254C228.429 1.05684 231.051 1.2362 233.637 1.4369L233.482 3.43091C230.909 3.23116 228.299 3.05263 225.656 2.89574L225.774 0.899254ZM241.561 2.12989C244.234 2.39068 246.862 2.67526 249.44 2.98313L249.203 4.96903C246.64 4.66292 244.026 4.37988 241.367 4.12044L241.561 2.12989ZM257.267 4.01124C259.929 4.39407 262.529 4.80335 265.061 5.23845L264.722 7.20957C262.209 6.7777 259.627 6.37124 256.983 5.99087L257.267 4.01124ZM272.888 6.70994C275.569 7.26023 278.158 7.84247 280.647 8.45582L280.169 10.3978C277.706 9.79109 275.143 9.21453 272.486 8.66909L272.888 6.70994ZM288.321 10.5402C290.987 11.339 293.506 12.1801 295.866 13.0623L295.166 14.9357C292.852 14.0708 290.375 13.2436 287.747 12.4561L288.321 10.5402ZM303.18 16.181C305.813 17.4704 308.15 18.8343 310.158 20.2721L308.993 21.8981C307.093 20.5376 304.855 19.2286 302.3 17.9772L303.18 16.181ZM316.012 25.92C316.866 27.127 317.519 28.3829 317.949 29.6863L316.05 30.3131C315.69 29.2205 315.133 28.1405 314.379 27.0747L316.012 25.92ZM317.949 29.6863C318.43 31.1411 318.718 32.5706 318.817 33.9734L316.822 34.1145C316.735 32.8895 316.483 31.6231 316.05 30.3131L317.949 29.6863ZM316.987 42.3981C315.748 44.7343 313.924 46.9146 311.605 48.9483L310.286 47.4444C312.468 45.5318 314.119 43.5359 315.22 41.4609L316.987 42.3981ZM304.723 53.7915C302.463 55.1013 299.963 56.3469 297.246 57.5305L296.447 55.6968C299.107 54.5386 301.537 53.3266 303.72 52.0612L304.723 53.7915ZM289.552 60.5228C287.055 61.3936 284.425 62.2261 281.674 63.0209L281.119 61.0995C283.839 60.3137 286.434 59.492 288.893 58.6343L289.552 60.5228ZM273.704 65.1389C271.121 65.7705 268.454 66.3743 265.709 66.9507L265.298 64.9934C268.023 64.4212 270.669 63.8222 273.229 63.1962L273.704 65.1389ZM257.652 68.5247C255.005 69.0056 252.299 69.4638 249.538 69.8996L249.226 67.9241C251.973 67.4905 254.664 67.0349 257.295 66.5569L257.652 68.5247ZM241.373 71.1025C238.697 71.47 235.978 71.8181 233.221 72.1471L232.984 70.1611C235.73 69.8335 238.437 69.4869 241.101 69.1211L241.373 71.1025ZM225.075 73.0524C222.374 73.3314 219.642 73.5931 216.883 73.8379L216.707 71.8457C219.457 71.6018 222.179 71.341 224.87 71.063L225.075 73.0524ZM208.675 74.5102C205.971 74.7137 203.246 74.9017 200.503 75.0743L200.377 73.0782C203.113 72.9062 205.83 72.7188 208.525 72.5158L208.675 74.5102ZM192.294 75.5421C189.569 75.6817 186.829 75.8065 184.079 75.9168L183.999 73.9184C186.742 73.8084 189.474 73.6839 192.192 73.5447L192.294 75.5421ZM175.881 76.2019C173.148 76.2826 170.408 76.3492 167.664 76.4019L167.626 74.4023C170.363 74.3497 173.096 74.2832 175.822 74.2028L175.881 76.2019ZM159.453 76.5185C156.715 76.5437 153.975 76.5553 151.238 76.5535L151.239 74.5535C153.97 74.5553 156.703 74.5437 159.435 74.5186L159.453 76.5185ZM143.026 76.5077C140.283 76.4789 137.544 76.4367 134.815 76.3812L134.856 74.3817C137.578 74.437 140.31 74.4791 143.047 74.5078L143.026 76.5077ZM126.595 76.1733C123.85 76.0902 121.117 75.9935 118.4 75.8836L118.48 73.8852C121.191 73.9949 123.917 74.0913 126.656 74.1743L126.595 76.1733ZM110.188 75.5084C107.429 75.3677 104.69 75.213 101.974 75.0447L102.098 73.0485C104.806 73.2164 107.538 73.3706 110.29 73.511L110.188 75.5084ZM93.7971 74.4908C91.0363 74.2877 88.3047 74.07 85.6064 73.8378L85.7779 71.8452C88.4677 72.0766 91.1911 72.2937 93.9439 72.4962L93.7971 74.4908ZM77.3999 73.0771C74.6351 72.8017 71.9116 72.5106 69.2343 72.204L69.4619 70.217C72.1291 70.5225 74.8427 70.8125 77.5981 71.0869L77.3999 73.0771ZM61.1171 71.2078C58.3347 70.8425 55.6116 70.4593 52.9538 70.0586L53.252 68.0809C55.8966 68.4797 58.607 68.8611 61.3775 69.2248L61.1171 71.2078ZM44.806 68.7385C42.0147 68.2529 39.3112 67.7459 36.7037 67.2179L37.1006 65.2577C39.6888 65.7818 42.3741 66.2854 45.1488 66.7681L44.806 68.7385ZM28.6528 65.4459C27.3176 65.1262 26.0149 64.8 24.746 64.4673L25.2533 62.5327C26.5076 62.8616 27.7965 63.1843 29.1185 63.5009L28.6528 65.4459Z"/>
    </symbol>

    <symbol id="dashed-arrow-2" viewBox="0 0 95 124">
        <path d="M2.09195 0.135195C1.61433 -0.142111 1.00235 0.0202734 0.725039 0.497892C0.447732 0.975511 0.610117 1.5875 1.08774 1.8648L2.09195 0.135195ZM87.1465 123.312C87.5938 123.636 88.219 123.536 88.543 123.089L93.8227 115.8C94.1467 115.353 94.0468 114.727 93.5995 114.403C93.1522 114.079 92.527 114.179 92.203 114.627L87.5099 121.105L81.0311 116.412C80.5839 116.088 79.9586 116.188 79.6346 116.636C79.3107 117.083 79.4106 117.708 79.8579 118.032L87.1465 123.312ZM4.38686 3.82738C4.85848 4.11478 5.47378 3.96544 5.76117 3.49382C6.04857 3.0222 5.89922 2.4069 5.42761 2.11951L4.38686 3.82738ZM11.9298 6.27447C11.4709 5.96718 10.8497 6.09009 10.5425 6.54899C10.2352 7.0079 10.3581 7.62902 10.817 7.93631L11.9298 6.27447ZM17.0631 12.3171C17.5082 12.6439 18.1341 12.548 18.4609 12.1028C18.7878 11.6576 18.6919 11.0318 18.2467 10.7049L17.0631 12.3171ZM24.3638 15.4046C23.9333 15.0586 23.3039 15.1272 22.9579 15.5577C22.612 15.9882 22.6805 16.6176 23.111 16.9636L24.3638 15.4046ZM28.9475 21.8678C29.3625 22.2322 29.9943 22.1913 30.3588 21.7763C30.7232 21.3614 30.6823 20.7296 30.2674 20.3651L28.9475 21.8678ZM35.9557 25.5867C35.5572 25.2044 34.9241 25.2176 34.5418 25.6162C34.1595 26.0148 34.1727 26.6478 34.5713 27.0301L35.9557 25.5867ZM39.9675 32.4377C40.3489 32.837 40.9819 32.8515 41.3813 32.4701C41.7807 32.0886 41.7952 31.4556 41.4137 31.0562L39.9675 32.4377ZM46.6239 36.7537C46.2601 36.3382 45.6283 36.2962 45.2128 36.66C44.7972 37.0238 44.7553 37.6555 45.119 38.0711L46.6239 36.7537ZM50.017 43.9152C50.3626 44.346 50.992 44.415 51.4228 44.0695C51.8536 43.7239 51.9227 43.0945 51.5771 42.6637L50.017 43.9152ZM56.2763 48.7839C55.9493 48.3388 55.3235 48.2431 54.8784 48.5701C54.4333 48.897 54.3375 49.5229 54.6645 49.968L56.2763 48.7839ZM59.0587 56.2212C59.3667 56.6796 59.988 56.8015 60.4464 56.4935C60.9049 56.1855 61.0268 55.5642 60.7188 55.1058L59.0587 56.2212ZM64.8827 61.5898C64.594 61.119 63.9782 60.9715 63.5075 61.2603C63.0367 61.5491 62.8892 62.1648 63.1779 62.6356L64.8827 61.5898ZM67.0409 69.2327C67.3102 69.7149 67.9194 69.8875 68.4016 69.6183C68.8838 69.349 69.0564 68.7398 68.7871 68.2576L67.0409 69.2327ZM72.4078 75.0609C72.1582 74.5682 71.5565 74.3711 71.0638 74.6207C70.5711 74.8703 70.3741 75.472 70.6237 75.9647L72.4078 75.0609ZM73.9418 82.8555C74.1714 83.3579 74.7647 83.579 75.267 83.3494C75.7693 83.1199 75.9904 82.5266 75.7609 82.0243L73.9418 82.8555ZM78.8235 89.0983C78.6143 88.5872 78.0303 88.3424 77.5192 88.5516C77.0081 88.7608 76.7633 89.3447 76.9725 89.8558L78.8235 89.0983ZM79.7165 96.9693C79.9047 97.4885 80.4782 97.7569 80.9974 97.5687C81.5167 97.3805 81.785 96.807 81.5968 96.2878L79.7165 96.9693ZM84.0762 103.604C83.9101 103.077 83.3485 102.785 82.8218 102.951C82.295 103.117 82.0027 103.678 82.1687 104.205L84.0762 103.604ZM84.3035 111.55C84.4452 112.083 84.9928 112.401 85.5266 112.26C86.0604 112.118 86.3783 111.57 86.2366 111.037L84.3035 111.55ZM88.02 118.559C87.9087 118.018 87.3799 117.67 86.839 117.781C86.298 117.893 85.9498 118.422 86.0611 118.963L88.02 118.559ZM1.08774 1.8648C2.20148 2.51145 3.30113 3.16576 4.38686 3.82738L5.42761 2.11951C4.3298 1.45053 3.21797 0.788967 2.09195 0.135195L1.08774 1.8648ZM10.817 7.93631C12.957 9.36931 15.0385 10.8307 17.0631 12.3171L18.2467 10.7049C16.1991 9.20157 14.094 7.72365 11.9298 6.27447L10.817 7.93631ZM23.111 16.9636C25.117 18.5756 27.062 20.2116 28.9475 21.8678L30.2674 20.3651C28.3601 18.6899 26.3929 17.0351 24.3638 15.4046L23.111 16.9636ZM34.5713 27.0301C36.4332 28.816 38.2313 30.6201 39.9675 32.4377L41.4137 31.0562C39.6577 29.2179 37.8391 27.3932 35.9557 25.5867L34.5713 27.0301ZM45.119 38.0711C46.8172 40.0108 48.449 41.9606 50.017 43.9152L51.5771 42.6637C49.9915 40.6872 48.3412 38.7154 46.6239 36.7537L45.119 38.0711ZM54.6645 49.968C56.1979 52.0552 57.6616 54.1417 59.0587 56.2212L60.7188 55.1058C59.3065 53.0036 57.8266 50.8942 56.2763 48.7839L54.6645 49.968ZM63.1779 62.6356C64.5382 64.8531 65.8247 67.0548 67.0409 69.2327L68.7871 68.2576C67.5579 66.0564 66.2577 63.8312 64.8827 61.5898L63.1779 62.6356ZM70.6237 75.9647C71.8088 78.3042 72.9132 80.6047 73.9418 82.8555L75.7609 82.0243C74.7215 79.7498 73.6055 77.4251 72.4078 75.0609L70.6237 75.9647ZM76.9725 89.8558C77.9783 92.3137 78.8905 94.6903 79.7165 96.9693L81.5968 96.2878C80.7618 93.9841 79.8399 91.5821 78.8235 89.0983L76.9725 89.8558ZM82.1687 104.205C83.0063 106.862 83.7123 109.322 84.3035 111.55L86.2366 111.037C85.6378 108.78 84.9233 106.291 84.0762 103.604L82.1687 104.205ZM86.0611 118.963C86.3706 120.466 86.5938 121.709 86.7457 122.66L88.7206 122.344C88.5636 121.362 88.335 120.09 88.02 118.559L86.0611 118.963Z"/>
    </symbol>

    <symbol id="dashed-arrow-3" viewBox="0 0 26 92">
        <path d="M23.2918 90.9318C23.1462 91.4645 22.5964 91.7785 22.0636 91.6329L13.3817 89.2614C12.8489 89.1159 12.535 88.5661 12.6805 88.0333C12.826 87.5005 13.3759 87.1866 13.9087 87.3321L21.6259 89.4401L23.7339 81.7228C23.8795 81.1901 24.4293 80.8761 24.9621 81.0217C25.4949 81.1672 25.8088 81.7171 25.6633 82.2498L23.2918 90.9318ZM0.531579 0.97435C0.545745 0.422247 1.0048 -0.013837 1.5569 0.000329052C2.109 0.0144951 2.54509 0.473547 2.53092 1.02565L0.531579 0.97435ZM2.47387 4.88382C2.47169 5.4361 2.02222 5.88205 1.46993 5.87987C0.917654 5.8777 0.471707 5.42822 0.473883 4.87594L2.47387 4.88382ZM0.611305 12.6753C0.589722 12.1234 1.0196 11.6585 1.57146 11.637C2.12333 11.6154 2.58819 12.0453 2.60978 12.5971L0.611305 12.6753ZM3.07511 20.296C3.1201 20.8465 2.71034 21.3292 2.15989 21.3742C1.60944 21.4192 1.12674 21.0094 1.08175 20.459L3.07511 20.296ZM1.87979 28.2144C1.8118 27.6663 2.20098 27.1669 2.74906 27.0989C3.29715 27.0309 3.79658 27.4201 3.86458 27.9682L1.87979 28.2144ZM4.97247 35.6007C5.06306 36.1455 4.69485 36.6606 4.15005 36.7512C3.60524 36.8418 3.09015 36.4736 2.99956 35.9288L4.97247 35.6007ZM4.43488 43.5882C4.3221 43.0476 4.66896 42.5179 5.2096 42.4051C5.75025 42.2923 6.27996 42.6392 6.39273 43.1798L4.43488 43.5882ZM8.11955 50.6917C8.25417 51.2273 7.92909 51.7707 7.39346 51.9053C6.85784 52.0399 6.31449 51.7148 6.17988 51.1792L8.11955 50.6917ZM8.23581 58.7087C8.07952 58.179 8.38223 57.6229 8.91194 57.4666C9.44165 57.3103 9.99776 57.613 10.1541 58.1427L8.23581 58.7087ZM12.4848 65.4846C12.6627 66.0074 12.3831 66.5755 11.8603 66.7534C11.3375 66.9313 10.7694 66.6517 10.5914 66.1289L12.4848 65.4846ZM13.2588 73.4553C13.0588 72.9405 13.3139 72.361 13.8287 72.161C14.3435 71.9609 14.923 72.216 15.123 72.7308L13.2588 73.4553ZM18.0818 79.8606C18.3054 80.3656 18.0774 80.9562 17.5724 81.1799C17.0674 81.4036 16.4768 81.1755 16.2531 80.6705L18.0818 79.8606ZM19.6067 87.7246C19.3547 87.2331 19.5489 86.6304 20.0404 86.3785C20.5318 86.1265 21.1345 86.3207 21.3864 86.8122L19.6067 87.7246ZM2.53092 1.02565C2.49769 2.32076 2.4789 3.60692 2.47387 4.88382L0.473883 4.87594C0.478971 3.58471 0.497974 2.28407 0.531579 0.97435L2.53092 1.02565ZM2.60978 12.5971C2.71191 15.2088 2.86915 17.7762 3.07511 20.296L1.08175 20.459C0.873546 17.9115 0.714575 15.3159 0.611305 12.6753L2.60978 12.5971ZM3.86458 27.9682C4.18769 30.5725 4.55965 33.118 4.97247 35.6007L2.99956 35.9288C2.58234 33.4197 2.20639 30.8469 1.87979 28.2144L3.86458 27.9682ZM6.39273 43.1798C6.9324 45.7669 7.51156 48.2726 8.11955 50.6917L6.17988 51.1792C5.5655 48.7347 4.98024 46.2026 4.43488 43.5882L6.39273 43.1798ZM10.1541 58.1427C10.9133 60.7159 11.6957 63.1659 12.4848 65.4846L10.5914 66.1289C9.79384 63.7852 9.00309 61.3091 8.23581 58.7087L10.1541 58.1427ZM15.123 72.7308C16.1413 75.3509 17.1396 77.7335 18.0818 79.8606L16.2531 80.6705C15.2989 78.5162 14.2887 76.1052 13.2588 73.4553L15.123 72.7308ZM21.3864 86.8122C22.0984 88.2009 22.7125 89.3264 23.1955 90.1725L21.4587 91.1641C20.9595 90.2897 20.3312 89.1377 19.6067 87.7246L21.3864 86.8122Z"/>
    </symbol>

    <symbol id="dashed-arrow-4" viewBox="0 0 329 99">
        <path d="M328.843 20.4614C329.14 20.9267 329.004 21.5451 328.539 21.8426L320.957 26.6916C320.492 26.9892 319.873 26.8532 319.576 26.388C319.278 25.9227 319.414 25.3043 319.879 25.0067L326.619 20.6965L322.309 13.9569C322.011 13.4917 322.147 12.8733 322.612 12.5757C323.078 12.2781 323.696 12.4141 323.994 12.8794L328.843 20.4614ZM1.0009 58.4985L2.00091 58.4985L1.0009 58.4985ZM298.989 52.6407C299.463 52.3582 300.077 52.5139 300.359 52.9885C300.642 53.4631 300.486 54.0768 300.011 54.3593L298.989 52.6407ZM323.878 21.1267C323.339 21.0105 322.995 20.4786 323.111 19.9386C323.228 19.3987 323.76 19.0553 324.299 19.1715L323.878 21.1267ZM316.517 17.5311C317.058 17.6427 317.406 18.1716 317.295 18.7125C317.183 19.2534 316.654 19.6014 316.113 19.4899L316.517 17.5311ZM308.378 17.9294C307.836 17.8226 307.483 17.2967 307.59 16.7549C307.697 16.213 308.223 15.8604 308.765 15.9672L308.378 17.9294ZM300.931 14.4588C301.473 14.5608 301.831 15.0835 301.729 15.6263C301.627 16.1691 301.104 16.5264 300.561 16.4244L300.931 14.4588ZM292.817 15.005C292.273 14.9079 291.911 14.3885 292.008 13.8448C292.105 13.3011 292.625 12.9391 293.168 13.0362L292.817 15.005ZM285.296 11.6674C285.841 11.7595 286.208 12.2756 286.116 12.8201C286.023 13.3647 285.507 13.7315 284.963 13.6394L285.296 11.6674ZM277.177 12.3595C276.631 12.2725 276.26 11.7598 276.347 11.2144C276.434 10.6691 276.946 10.2975 277.492 10.3845L277.177 12.3595ZM269.615 9.16573C270.162 9.24758 270.538 9.75671 270.456 10.3029C270.374 10.8491 269.865 11.2255 269.319 11.1436L269.615 9.16573ZM261.496 10.0096C260.949 9.93301 260.568 9.42753 260.645 8.88058C260.721 8.33363 261.227 7.95234 261.774 8.02893L261.496 10.0096ZM253.889 6.96419C254.437 7.03541 254.823 7.53711 254.752 8.08479C254.681 8.63246 254.179 9.01871 253.632 8.9475L253.889 6.96419ZM245.778 7.96612C245.23 7.90039 244.839 7.40257 244.904 6.85421C244.97 6.30585 245.468 5.9146 246.016 5.98033L245.778 7.96612ZM238.121 5.0747C238.67 5.13482 239.066 5.62861 239.006 6.17761C238.946 6.72662 238.452 7.12293 237.903 7.06281L238.121 5.0747ZM230.027 6.24167C229.477 6.18728 229.076 5.69765 229.13 5.14805C229.184 4.59845 229.674 4.197 230.224 4.25139L230.027 6.24167ZM222.313 3.5111C222.863 3.55961 223.27 4.04492 223.222 4.59507C223.173 5.14522 222.688 5.55188 222.138 5.50337L222.313 3.5111ZM214.246 4.85085C213.696 4.80837 213.284 4.32753 213.326 3.77689C213.369 3.22624 213.85 2.81429 214.4 2.85678L214.246 4.85085ZM206.471 2.28957C207.022 2.32587 207.44 2.80204 207.403 3.35313C207.367 3.90422 206.891 4.32155 206.34 4.28525L206.471 2.28957ZM198.445 3.8107C197.893 3.78075 197.47 3.30942 197.5 2.75795C197.53 2.20648 198.002 1.78369 198.553 1.81364L198.445 3.8107ZM190.602 1.42908C191.153 1.45246 191.582 1.91873 191.558 2.47052C191.535 3.02231 191.069 3.45067 190.517 3.42729L190.602 1.42908ZM182.631 3.14111C182.079 3.12447 181.645 2.66346 181.662 2.11143C181.678 1.5594 182.139 1.12538 182.691 1.14202L182.631 3.14111ZM174.714 0.951976C175.267 0.9616 175.707 1.41705 175.697 1.96925C175.687 2.52145 175.232 2.9613 174.68 2.95167L174.714 0.951976ZM166.82 2.86552C166.267 2.86308 165.822 2.4134 165.824 1.86112C165.826 1.30884 166.276 0.863103 166.828 0.865542L166.82 2.86552ZM158.824 0.884728C159.376 0.879592 159.828 1.32312 159.833 1.87539C159.838 2.42765 159.395 2.87951 158.843 2.88464L158.824 0.884728ZM150.952 3.01336C150.4 3.0263 149.942 2.58919 149.929 2.03706C149.916 1.48492 150.353 1.02684 150.905 1.01391L150.952 3.01336ZM142.95 1.25883C143.502 1.23771 143.967 1.66798 143.988 2.21986C144.009 2.77174 143.579 3.23625 143.027 3.25737L142.95 1.25883ZM135.105 3.62164C134.554 3.65133 134.083 3.22833 134.053 2.67684C134.023 2.12536 134.446 1.65422 134.998 1.62453L135.105 3.62164ZM127.122 2.11193C127.673 2.07332 128.151 2.48863 128.19 3.03956C128.229 3.5905 127.813 4.06842 127.262 4.10704L127.122 2.11193ZM119.315 4.73278C118.765 4.78095 118.28 4.37399 118.232 3.82381C118.184 3.27363 118.591 2.78857 119.141 2.7404L119.315 4.73278ZM111.23 3.50522C111.78 3.44699 112.272 3.845 112.33 4.39421C112.389 4.94342 111.991 5.43584 111.441 5.49407L111.23 3.50522ZM103.632 6.39787C103.084 6.46674 102.584 6.07835 102.515 5.53038C102.446 4.9824 102.834 4.48235 103.382 4.41348L103.632 6.39787ZM95.4512 5.49433C95.9976 5.41391 96.5058 5.79167 96.5862 6.33806C96.6666 6.88446 96.2889 7.3926 95.7425 7.47301L95.4512 5.49433ZM87.9223 8.71358C87.3779 8.80639 86.8613 8.44027 86.7685 7.89584C86.6757 7.35141 87.0418 6.83483 87.5863 6.74202L87.9223 8.71358ZM79.7852 8.16946C80.3272 8.06327 80.8527 8.41653 80.9589 8.95851C81.0651 9.50049 80.7118 10.0259 80.1698 10.1321L79.7852 8.16946ZM72.4583 11.7503C71.9194 11.8711 71.3845 11.5322 71.2637 10.9934C71.1428 10.4545 71.4817 9.91961 72.0206 9.79875L72.4583 11.7503ZM64.2445 11.6652C64.7795 11.528 65.3244 11.8504 65.4616 12.3854C65.5988 12.9203 65.2764 13.4653 64.7414 13.6025L64.2445 11.6652ZM57.1105 15.6968C56.5805 15.8522 56.0249 15.5486 55.8694 15.0187C55.714 14.4888 56.0175 13.9331 56.5475 13.7776L57.1105 15.6968ZM48.9389 16.169C49.4623 15.9928 50.0295 16.2744 50.2056 16.7978C50.3818 17.3212 50.1002 17.8884 49.5768 18.0645L48.9389 16.169ZM42.1605 20.7458C41.6457 20.9458 41.0663 20.6905 40.8663 20.1757C40.6663 19.6609 40.9216 19.0815 41.4364 18.8815L42.1605 20.7458ZM34.0716 21.9698C34.5746 21.7419 35.1672 21.9649 35.3951 22.468C35.623 22.9711 35.3999 23.5636 34.8969 23.7915L34.0716 21.9698ZM27.8465 27.2661C27.36 27.5275 26.7537 27.345 26.4923 26.8584C26.231 26.3719 26.4135 25.7656 26.9001 25.5043L27.8465 27.2661ZM20.0176 29.5751C20.4799 29.2729 21.0996 29.4026 21.4018 29.8649C21.704 30.3271 21.5743 30.9469 21.112 31.2491L20.0176 29.5751ZM14.8276 35.8635C14.403 36.2167 13.7725 36.1587 13.4194 35.734C13.0662 35.3093 13.1242 34.6788 13.5489 34.3257L14.8276 35.8635ZM7.72051 39.9709C8.08315 39.5543 8.71482 39.5106 9.13135 39.8733C9.54789 40.2359 9.59162 40.8676 9.22897 41.2841L7.72051 39.9709ZM4.84438 47.5738C4.58583 48.0618 3.98061 48.2478 3.49259 47.9892C3.00456 47.7307 2.81856 47.1254 3.07711 46.6374L4.84438 47.5738ZM0.364544 54.3737C0.460859 53.8298 0.979804 53.4671 1.52362 53.5634C2.06744 53.6597 2.4302 54.1787 2.33388 54.7225L0.364544 54.3737ZM2.27303 62.4345C2.35073 62.9812 1.97044 63.4875 1.42365 63.5652C0.876856 63.6429 0.370626 63.2626 0.292924 62.7158L2.27303 62.4345ZM2.7024 70.6609C2.46179 70.1638 2.66969 69.5657 3.16681 69.3251C3.66393 69.0845 4.26196 69.2924 4.50259 69.7895L2.7024 70.6609ZM8.85999 76.1606C9.23194 76.5689 9.20252 77.2013 8.79429 77.5733C8.38606 77.9453 7.75356 77.9158 7.38161 77.5076L8.85999 76.1606ZM13.5998 82.9232C13.148 82.6054 13.0395 81.9816 13.3572 81.5299C13.675 81.0782 14.2988 80.9696 14.7505 81.2874L13.5998 82.9232ZM21.5659 85.2896C22.0613 85.5338 22.2648 86.1334 22.0206 86.6287C21.7763 87.1241 21.1767 87.3276 20.6814 87.0833L21.5659 85.2896ZM28.2084 90.2652C27.6891 90.0771 27.4207 89.5037 27.6088 88.9844C27.7969 88.4651 28.3704 88.1967 28.8896 88.3848L28.2084 90.2652ZM36.494 90.7769C37.0268 90.922 37.3412 91.4716 37.1961 92.0044C37.0511 92.5373 36.5015 92.8517 35.9686 92.7067L36.494 90.7769ZM43.8639 94.5809C43.323 94.4696 42.9746 93.9409 43.0859 93.3999C43.1972 92.8589 43.7259 92.5106 44.2668 92.6219L43.8639 94.5809ZM52.1537 94.0314C52.6996 94.1154 53.074 94.626 52.99 95.1719C52.9061 95.7177 52.3955 96.0922 51.8496 96.0082L52.1537 94.0314ZM59.9029 97.0722C59.3541 97.0108 58.9589 96.5161 59.0202 95.9673C59.0816 95.4184 59.5763 95.0232 60.1252 95.0846L59.9029 97.0722ZM68.1617 95.8381C68.7123 95.8803 69.1245 96.361 69.0822 96.9116C69.04 97.4623 68.5593 97.8745 68.0087 97.8322L68.1617 95.8381ZM76.0407 98.3265C75.489 98.3006 75.0629 97.8323 75.0889 97.2806C75.1148 96.7289 75.5831 96.3028 76.1348 96.3287L76.0407 98.3265ZM84.1549 96.6002C84.707 96.6119 85.1452 97.069 85.1335 97.6212C85.1218 98.1733 84.6647 98.6115 84.1125 98.5998L84.1549 96.6002ZM92.2223 98.6762C91.67 98.6772 91.2215 98.2304 91.2204 97.6781C91.2194 97.1258 91.6662 96.6772 92.2185 96.6762L92.2223 98.6762ZM100.26 96.5765C100.812 96.564 101.27 97.0015 101.283 97.5537C101.295 98.1058 100.858 98.5635 100.305 98.576L100.26 96.5765ZM108.364 98.3174C107.812 98.3402 107.346 97.9114 107.323 97.3596C107.301 96.8078 107.729 96.342 108.281 96.3191L108.364 98.3174ZM116.334 95.9155C116.885 95.8831 117.358 96.3038 117.391 96.8552C117.423 97.4065 117.002 97.8797 116.451 97.912L116.334 95.9155ZM124.509 97.3732C123.959 97.4145 123.479 97.0014 123.438 96.4507C123.396 95.8999 123.809 95.42 124.36 95.3788L124.509 97.3732ZM132.372 94.7179C132.923 94.6683 133.409 95.0741 133.458 95.6242C133.508 96.1742 133.102 96.6603 132.552 96.7098L132.372 94.7179ZM140.604 95.9265C140.055 95.9839 139.563 95.5851 139.505 95.0358C139.448 94.4865 139.847 93.9947 140.396 93.9374L140.604 95.9265ZM148.388 93.0473C148.936 92.9825 149.434 93.3745 149.498 93.923C149.563 94.4715 149.171 94.9687 148.623 95.0335L148.388 93.0473ZM156.638 94.0322C156.091 94.1043 155.588 93.7188 155.516 93.1712C155.444 92.6236 155.83 92.1213 156.377 92.0493L156.638 94.0322ZM164.352 90.9482C164.899 90.8692 165.406 91.2483 165.485 91.7949C165.564 92.3415 165.185 92.8486 164.638 92.9277L164.352 90.9482ZM172.625 91.7222C172.079 91.808 171.567 91.4353 171.482 90.8897C171.396 90.3442 171.768 89.8323 172.314 89.7465L172.625 91.7222ZM180.26 88.4461C180.804 88.3535 181.321 88.7199 181.413 89.2644C181.506 89.8088 181.14 90.3252 180.595 90.4178L180.26 88.4461ZM188.541 89.0168C187.998 89.116 187.477 88.7561 187.378 88.2128C187.278 87.6695 187.638 87.1486 188.182 87.0494L188.541 89.0168ZM196.105 85.5516C196.647 85.4456 197.172 85.7991 197.278 86.3411C197.384 86.8832 197.03 87.4085 196.488 87.5144L196.105 85.5516ZM204.393 85.9178C203.853 86.0305 203.323 85.6836 203.21 85.143C203.097 84.6023 203.444 84.0726 203.985 83.9599L204.393 85.9178ZM211.856 82.2657C212.396 82.146 212.93 82.4861 213.049 83.0252C213.169 83.5644 212.829 84.0985 212.29 84.2182L211.856 82.2657ZM220.178 82.4119C219.64 82.5388 219.102 82.2059 218.975 81.6684C218.848 81.1309 219.181 80.5923 219.718 80.4654L220.178 82.4119ZM227.517 78.567C228.053 78.4326 228.596 78.7579 228.73 79.2935C228.865 79.8292 228.54 80.3724 228.004 80.5068L227.517 78.567ZM235.829 78.4818C235.296 78.6242 234.748 78.3071 234.605 77.7735C234.463 77.2399 234.78 76.6918 235.314 76.5495L235.829 78.4818ZM243.095 74.4066C243.626 74.2557 244.179 74.5639 244.33 75.0952C244.481 75.6264 244.173 76.1795 243.642 76.3305L243.095 74.4066ZM251.382 74.0579C250.854 74.2182 250.295 73.9197 250.135 73.3912C249.975 72.8627 250.273 72.3043 250.801 72.144L251.382 74.0579ZM258.429 69.7493C258.955 69.5785 259.519 69.8659 259.69 70.3912C259.86 70.9164 259.573 71.4806 259.048 71.6513L258.429 69.7493ZM266.753 69.0516C266.232 69.2343 265.662 68.9598 265.479 68.4386C265.296 67.9174 265.571 67.3468 266.092 67.1642L266.753 69.0516ZM273.663 64.3993C274.179 64.2027 274.756 64.4617 274.953 64.9777C275.15 65.4938 274.891 66.0716 274.375 66.2683L273.663 64.3993ZM281.899 63.2635C281.39 63.477 280.804 63.2373 280.591 62.728C280.377 62.2186 280.617 61.6326 281.126 61.4191L281.899 63.2635ZM288.459 58.1683C288.959 57.9333 289.554 58.148 289.789 58.6478C290.024 59.1475 289.81 59.7432 289.31 59.9782L288.459 58.1683ZM296.566 56.3184C296.08 56.5824 295.473 56.4031 295.209 55.918C294.945 55.4329 295.124 54.8257 295.61 54.5617L296.566 56.3184ZM327.785 21.9769C326.48 21.6899 325.178 21.4066 323.878 21.1267L324.299 19.1715C325.602 19.452 326.907 19.736 328.215 20.0235L327.785 21.9769ZM316.113 19.4899C313.524 18.9557 310.945 18.4356 308.378 17.9294L308.765 15.9672C311.338 16.4745 313.922 16.9958 316.517 17.5311L316.113 19.4899ZM300.561 16.4244C297.968 15.9371 295.386 15.464 292.817 15.005L293.168 13.0362C295.744 13.4962 298.331 13.9704 300.931 14.4588L300.561 16.4244ZM284.963 13.6394C282.354 13.1982 279.759 12.7717 277.177 12.3595L277.492 10.3845C280.08 10.7976 282.682 11.2252 285.296 11.6674L284.963 13.6394ZM269.319 11.1436C266.697 10.7507 264.089 10.3728 261.496 10.0096L261.774 8.02893C264.373 8.393 266.987 8.77186 269.615 9.16573L269.319 11.1436ZM253.632 8.9475C250.998 8.60509 248.38 8.27804 245.778 7.96612L246.016 5.98033C248.625 6.29305 251.25 6.62093 253.889 6.96419L253.632 8.9475ZM237.903 7.06281C235.261 6.77343 232.635 6.49979 230.027 6.24167L230.224 4.25139C232.839 4.5102 235.472 4.78456 238.121 5.0747L237.903 7.06281ZM222.138 5.50337C219.489 5.26979 216.858 5.05237 214.246 4.85085L214.4 2.85678C217.019 3.05887 219.657 3.27688 222.313 3.5111L222.138 5.50337ZM206.34 4.28525C203.688 4.11057 201.056 3.95248 198.445 3.8107L198.553 1.81364C201.172 1.95584 203.811 2.11439 206.471 2.28957L206.34 4.28525ZM190.517 3.42729C187.866 3.31497 185.237 3.21968 182.631 3.14111L182.691 1.14202C185.306 1.22084 187.942 1.31641 190.602 1.42908L190.517 3.42729ZM174.68 2.95167C172.035 2.90558 169.415 2.87698 166.82 2.86552L166.828 0.865542C169.432 0.877036 172.061 0.905729 174.714 0.951976L174.68 2.95167ZM158.843 2.88464C156.184 2.90936 153.554 2.9524 150.952 3.01336L150.905 1.01391C153.517 0.952727 156.156 0.90953 158.824 0.884728L158.843 2.88464ZM143.027 3.25737C140.354 3.35963 137.714 3.48122 135.105 3.62164L134.998 1.62453C137.617 1.48354 140.268 1.36149 142.95 1.25883L143.027 3.25737ZM127.262 4.10704C124.576 4.29531 121.927 4.50408 119.315 4.73278L119.141 2.7404C121.764 2.51067 124.425 2.301 127.122 2.11193L127.262 4.10704ZM111.441 5.49407C108.796 5.77448 106.193 6.07597 103.632 6.39787L103.382 4.41348C105.957 4.08993 108.573 3.78697 111.23 3.50522L111.441 5.49407ZM95.7425 7.47301C93.0859 7.864 90.4789 8.27779 87.9223 8.71358L87.5863 6.74202C90.1581 6.30363 92.7801 5.88747 95.4512 5.49433L95.7425 7.47301ZM80.1698 10.1321C77.5397 10.6475 74.9688 11.1872 72.4583 11.7503L72.0206 9.79875C74.5494 9.2316 77.1379 8.68818 79.7852 8.16946L80.1698 10.1321ZM64.7414 13.6025C62.1229 14.2741 59.5788 14.9726 57.1105 15.6968L56.5475 13.7776C59.0386 13.0468 61.6048 12.3422 64.2445 11.6652L64.7414 13.6025ZM49.5768 18.0645C47.008 18.929 44.5352 19.8234 42.1605 20.7458L41.4364 18.8815C43.8411 17.9474 46.3426 17.0427 48.9389 16.169L49.5768 18.0645ZM34.8969 23.7915C32.4132 24.9167 30.0622 26.0759 27.8465 27.2661L26.9001 25.5043C29.1583 24.2912 31.5499 23.1122 34.0716 21.9698L34.8969 23.7915ZM21.112 31.2491C18.8159 32.7502 16.7198 34.2901 14.8276 35.8635L13.5489 34.3257C15.5058 32.6986 17.6642 31.1137 20.0176 29.5751L21.112 31.2491ZM9.22897 41.2841C7.43524 43.3445 5.97257 45.4444 4.84438 47.5738L3.07711 46.6374C4.28532 44.3571 5.83892 42.1322 7.72051 39.9709L9.22897 41.2841ZM2.33388 54.7225C2.1125 55.9723 2.00098 57.2313 2.00091 58.4985L0.000891368 58.4984C0.000981485 57.1133 0.122943 55.7376 0.364544 54.3737L2.33388 54.7225ZM2.00091 58.4985C2.00085 59.855 2.09287 61.1665 2.27303 62.4345L0.292924 62.7158C0.0990502 61.3513 0.000825557 59.9457 0.000891368 58.4984L2.00091 58.4985ZM4.50259 69.7895C5.60711 72.0713 7.06689 74.1926 8.85999 76.1606L7.38161 77.5076C5.46949 75.4089 3.89731 73.1295 2.7024 70.6609L4.50259 69.7895ZM14.7505 81.2874C16.8001 82.7293 19.0771 84.0623 21.5659 85.2896L20.6814 87.0833C18.1121 85.8164 15.7444 84.4319 13.5998 82.9232L14.7505 81.2874ZM28.8896 88.3848C31.2917 89.255 33.8299 90.0516 36.494 90.7769L35.9686 92.7067C33.2574 91.9685 30.6668 91.1559 28.2084 90.2652L28.8896 88.3848ZM44.2668 92.6219C46.8095 93.1449 49.4409 93.6141 52.1537 94.0314L51.8496 96.0082C49.1064 95.5862 46.4419 95.1111 43.8639 94.5809L44.2668 92.6219ZM60.1252 95.0846C62.7441 95.3774 65.4248 95.6281 68.1617 95.8381L68.0087 97.8322C65.2501 97.6206 62.5463 97.3678 59.9029 97.0722L60.1252 95.0846ZM76.1348 96.3287C78.7663 96.4527 81.4412 96.5428 84.1549 96.6002L84.1125 98.5998C81.3825 98.542 78.6903 98.4513 76.0407 98.3265L76.1348 96.3287ZM92.2185 96.6762C94.8695 96.6712 97.5513 96.6376 100.26 96.5765L100.305 98.576C97.5832 98.6374 94.8875 98.6711 92.2223 98.6762L92.2185 96.6762ZM108.281 96.3191C110.945 96.209 113.63 96.0742 116.334 95.9155L116.451 97.912C113.736 98.0714 111.04 98.2068 108.364 98.3174L108.281 96.3191ZM124.36 95.3788C127.018 95.1799 129.69 94.9593 132.372 94.7179L132.552 96.7098C129.86 96.9521 127.178 97.1735 124.509 97.3732L124.36 95.3788ZM140.396 93.9374C143.054 93.6598 145.719 93.3628 148.388 93.0473L148.623 95.0335C145.945 95.35 143.271 95.648 140.604 95.9265L140.396 93.9374ZM156.377 92.0493C159.036 91.6996 161.696 91.3323 164.352 90.9482L164.638 92.9277C161.973 93.3129 159.306 93.6813 156.638 94.0322L156.377 92.0493ZM172.314 89.7465C174.969 89.3288 177.619 88.895 180.26 88.4461L180.595 90.4178C177.946 90.8681 175.288 91.3032 172.625 91.7222L172.314 89.7465ZM188.182 87.0494C190.836 86.5646 193.478 86.065 196.105 85.5516L196.488 87.5144C193.853 88.0295 191.203 88.5305 188.541 89.0168L188.182 87.0494ZM203.985 83.9599C206.629 83.4085 209.254 82.8434 211.856 82.2657L212.29 84.2182C209.679 84.7978 207.046 85.3646 204.393 85.9178L203.985 83.9599ZM219.718 80.4654C222.347 79.8448 224.948 79.2116 227.517 78.567L228.004 80.5068C225.425 81.1538 222.815 81.7891 220.178 82.4119L219.718 80.4654ZM235.314 76.5495C237.948 75.8465 240.544 75.1318 243.095 74.4066L243.642 76.3305C241.08 77.0587 238.474 77.7762 235.829 78.4818L235.314 76.5495ZM250.801 72.144C253.4 71.3557 255.944 70.557 258.429 69.7493L259.048 71.6513C256.549 72.4633 253.992 73.2659 251.382 74.0579L250.801 72.144ZM266.092 67.1642C268.697 66.2512 271.223 65.3289 273.663 64.3993L274.375 66.2683C271.917 67.2047 269.374 68.1331 266.753 69.0516L266.092 67.1642ZM281.126 61.4191C283.697 60.3413 286.144 59.2568 288.459 58.1683L289.31 59.9782C286.967 61.0799 284.493 62.1759 281.899 63.2635L281.126 61.4191ZM295.61 54.5617C296.787 53.9211 297.914 53.2806 298.989 52.6407L300.011 54.3593C298.913 55.0133 297.763 55.6665 296.566 56.3184L295.61 54.5617Z"/>
    </symbol>

    <symbol id="two-circles-lines" viewBox="0 0 422 172">
        <path d="M309 198.5C371.132 198.5 421.5 148.132 421.5 86C421.5 23.868 371.132 -26.5 309 -26.5C246.868 -26.5 196.5 23.868 196.5 86C196.5 148.132 246.868 198.5 309 198.5Z"/>
        <path d="M113 198.5C175.132 198.5 225.5 148.132 225.5 86C225.5 23.868 175.132 -26.5 113 -26.5C50.868 -26.5 0.5 23.868 0.5 86C0.5 148.132 50.868 198.5 113 198.5Z"/>
    </symbol>

    <symbol id="two-quarters-circle-line" viewBox="0 0 174 174">
        <g opacity="0.71">
            <path d="M58.3281 58.3296L172.999 58.3296C172.999 121.665 121.664 173 58.3281 173L58.3281 58.3296Z" stroke-width="2"/>
            <path d="M58.3359 58.3354L58.3359 1.00015C26.6681 1.00015 1.00065 26.6676 1.00065 58.3355L58.3359 58.3354Z" stroke-width="2"/>
        </g>
    </symbol>

    <symbol id="pencil" viewBox="0 0 174 174">
        <path d="M130.25 1H173V43.75M130.25 1L23.375 107.875L66.125 150.625L173 43.75M130.25 1L173 43.75" stroke-width="2"/>
        <path d="M23.375 107.875L66.125 150.625L44.75 172L2 129.25L23.375 107.875Z" stroke-width="2"/>
    </symbol>

    <symbol id="barrier" viewBox="0 0 241 143">
        <path d="M183.518 1H129.088L185.204 70.7483L185.707 71.3741L185.205 72.0007L129.083 142H183.518L239.224 72.1234C239.515 71.7586 239.515 71.2414 239.224 70.8766L183.518 1Z" stroke-width="2"/>
        <path d="M57.4817 1H111.912L55.7964 70.7483L55.293 71.3741L55.7954 72.0007L111.917 142H57.4817L1.77582 72.1234C1.48507 71.7586 1.48507 71.2414 1.77583 70.8766L57.4817 1Z" stroke-width="2"/>
    </symbol>

    <symbol id="barrier" viewBox="0 0 241 143">
        <path d="M183.518 1H129.088L185.204 70.7483L185.707 71.3741L185.205 72.0007L129.083 142H183.518L239.224 72.1234C239.515 71.7586 239.515 71.2414 239.224 70.8766L183.518 1Z" stroke-width="2"/>
        <path d="M57.4817 1H111.912L55.7964 70.7483L55.293 71.3741L55.7954 72.0007L111.917 142H57.4817L1.77582 72.1234C1.48507 71.7586 1.48507 71.2414 1.77583 70.8766L57.4817 1Z" stroke-width="2"/>
    </symbol>

    <symbol id="circle-divided-quarters" viewBox="0 0 170 170">
        <path d="M85.0039 85.0029L1.00672 85.0029C1.53866 38.8472 38.8481 1.5377 85.0039 1.00577L85.0039 85.0029Z" stroke-width="2"/>
        <path d="M84.9961 84.9971L168.993 84.9971C168.461 131.153 131.152 168.462 84.9961 168.994L84.9961 84.9971Z" stroke-width="2"/>
        <path d="M85.0039 84.9971L85.0039 168.994C38.8482 168.462 1.53868 131.153 1.00674 84.9971L85.0039 84.9971Z" stroke-width="2"/>
    </symbol>

    <symbol id="check-line" viewBox="0 0 207 169">
        <path fill-rule="evenodd" clip-rule="evenodd" d="M205 35.0642L90.6562 166.497C89.9333 167.328 88.6746 167.418 87.8407 166.699L2 92.6329L34.4564 51.0268L82.7038 95.0236C83.5461 95.7917 84.8592 95.7015 85.5885 94.8253L162.857 2L205 35.0642Z" stroke-width="2"/>
    </symbol>

    <symbol id="check-fill" viewBox="0 0 114 89">
        <path fill-rule="evenodd" clip-rule="evenodd" d="M37.9457 88.1317L37.9438 88.1336L0 50.1898L13.0626 37.1272L37.9447 62.0093L99.954 0L113.017 13.0626L37.9466 88.1326L37.9457 88.1317Z"/> 
    </symbol>

    <symbol id="cross-fill" viewBox="0 0 89 89">
        <path fill-rule="evenodd" clip-rule="evenodd" d="M14.3551 0L0.213008 14.1421L30.1586 44.0877L0 74.2463L14.1421 88.3884L44.3007 58.2298L74.4592 88.3883L88.6013 74.2462L58.4428 44.0877L88.3883 14.1422L74.2462 4.57764e-05L44.3007 29.9456L14.3551 0Z"/>
    </symbol>

    <symbol id="ring-half" viewBox="0 0 139 279">
        <path d="M-1.21518e-05 278.266C36.8651 278.266 72.2203 263.621 98.2878 237.553C124.355 211.486 139 176.131 139 139.266C139 102.401 124.355 67.0453 98.2879 40.9778C72.2203 14.9102 36.8651 0.265628 4.45314e-06 0.265625L-1.56043e-06 79.6942C15.7417 79.6942 30.8387 86.1648 41.9698 97.2959C53.1008 108.427 59.3542 123.524 59.3542 139.266C59.3542 155.007 53.1008 170.104 41.9698 181.235C30.8387 192.366 15.7417 198.837 -8.66986e-06 198.837L-1.21518e-05 278.266Z"/>
    </symbol>

</svg>
