<svg xmlns="http://www.w3.org/2000/svg">

    <symbol id="instagram" viewBox="0 0 24 24">
        <path d="M11.998 7.69c-2.385 0-4.31 1.925-4.31 4.31s1.925 4.31 4.31 4.31 4.31-1.925 4.31-4.31-1.925-4.31-4.31-4.31zm0 7.111c-1.542 0-2.801-1.259-2.801-2.801 0-1.542 1.259-2.801 2.801-2.801 1.543 0 2.801 1.259 2.801 2.801 0 1.542-1.259 2.801-2.801 2.801zm4.487-8.292c-.557 0-1.007.45-1.007 1.007 0 .557.45 1.007 1.007 1.007.557 0 1.006-.448 1.006-1.007 0-.132-.026-.263-.076-.385-.051-.122-.125-.233-.218-.327-.093-.093-.204-.168-.327-.218-.122-.051-.253-.076-.385-.076zm3.915 5.491c0-1.16.011-2.309-.055-3.467-.065-1.345-.372-2.539-1.355-3.522-.986-.986-2.177-1.29-3.522-1.355-1.16-.065-2.309-.055-3.467-.055-1.16 0-2.309-.01-3.467.055-1.345.065-2.538.372-3.522 1.355-.986.986-1.29 2.177-1.355 3.522-.065 1.16-.055 2.309-.055 3.467s-.01 2.309.055 3.467c.065 1.345.372 2.539 1.355 3.522.986.986 2.177 1.29 3.522 1.355 1.16.065 2.309.055 3.467.055 1.16 0 2.309.011 3.467-.055 1.345-.065 2.539-.372 3.522-1.355.986-.985 1.29-2.177 1.355-3.522.067-1.158.055-2.307.055-3.467zm-1.849 4.955c-.153.383-.338.668-.635.962-.296.296-.58.481-.962.635-1.105.439-3.73.341-4.955.341s-3.852.099-4.957-.338c-.382-.153-.668-.338-.962-.635-.296-.296-.481-.58-.635-.962-.437-1.107-.338-3.732-.338-4.957 0-1.225-.099-3.852.338-4.957.153-.382.338-.668.635-.962.296-.294.58-.481.962-.635 1.105-.437 3.732-.338 4.957-.338 1.225 0 3.852-.099 4.957.338.382.153.668.338.962.635.296.296.481.58.635.962.437 1.105.338 3.732.338 4.957 0 1.225.099 3.85-.34 4.955z"/>
    </symbol>

    <symbol id="vk" viewBox="0 0 24 24">
        <path d="M14.579 3.6h-5.157c-4.707 0-5.821 1.114-5.821 5.821v5.157c0 4.707 1.114 5.821 5.821 5.821h5.157c4.707 0 5.821-1.114 5.821-5.821v-5.157c0-4.707-1.114-5.821-5.821-5.821zm2.407 5.335c.368 0 .451.19.368.451-.13.598-1.205 2.183-1.538 2.675l-.098.147c-.13.213-.178.308 0 .545.064.088.201.221.356.374.16.157.341.335.485.503.522.593.925 1.091 1.031 1.435.095.344-.071.522-.427.522h-1.221c-.324 0-.49-.186-.846-.582-.152-.17-.34-.378-.589-.627-.723-.7-1.043-.794-1.221-.794-.249 0-.32.059-.32.415v1.103c0 .296-.095.474-.877.474-1.292 0-2.727-.783-3.735-2.241-1.518-2.134-1.933-3.747-1.933-4.067 0-.178.059-.344.415-.344h1.233c.308 0 .427.13.545.474.605 1.743 1.612 3.272 2.027 3.272.154 0 .225-.071.225-.462v-1.802c-.029-.512-.208-.735-.34-.901-.082-.103-.146-.183-.146-.297 0-.142.119-.285.308-.285h1.921c.261 0 .356.142.356.451v2.431c0 .261.107.356.19.356.154 0 .285-.095.569-.379.877-.984 1.506-2.502 1.506-2.502.083-.178.225-.344.534-.344h1.221z"/>
    </symbol>

    <symbol id="facebook" viewBox="0 0 24 24">
        <path d="M12 3.6c4.64 0 8.4 3.76 8.4 8.4 0 4.193-3.071 7.668-7.087 8.298v-5.87h1.957l.372-2.428h-2.33v-1.575c0-.197.029-.393.096-.571l.021-.053c.171-.395.548-.689 1.251-.689h1.06v-2.067s-.961-.164-1.88-.164c-1.4 0-2.446.619-2.909 1.771-.172.427-.264.928-.264 1.497v1.85h-2.133v2.428h2.133v5.87c-4.016-.63-7.087-4.105-7.087-8.298 0-4.64 3.76-8.4 8.4-8.4z"/>
    </symbol>

    <symbol id="behance" viewBox="0 0 24 24">
        <path d="M19.5 8.12h-5.25v-1.52h5.25v1.52zm1.294 7.6c-.331.986-1.522 2.28-3.826 2.28-2.305 0-4.173-1.314-4.173-4.313 0-2.972 1.744-4.499 4.099-4.499 2.312 0 3.723 1.354 4.031 3.364.058.384.082.903.071 1.626h-6.02c.098 2.44 2.612 2.517 3.441 1.542h2.376zm-5.764-3.04h3.724c-.079-1.176-.852-1.686-1.858-1.686-1.1 0-1.708.584-1.866 1.686zm-7.18 5.311h-4.849v-11.375h5.215c4.107.062 4.185 4.137 2.04 5.249 2.596.958 2.683 6.126-2.405 6.126zm-2.599-6.831h2.688c1.881 0 2.179-2.28-.234-2.28h-2.454v2.28zm2.543 2.28h-2.543v2.292h2.506c2.291 0 2.151-2.292.037-2.292z"/>
    </symbol>

    <symbol id="dribbble" viewBox="0 0 24 24">
        <path d="M12 3c-4.969 0-9 4.031-9 9 0 4.968 4.031 9 9 9 4.959 0 9-4.032 9-9 0-4.969-4.041-9-9-9zm5.945 4.149c1.074 1.308 1.718 2.977 1.738 4.783-.254-.049-2.792-.566-5.349-.244l-.166-.4c-.156-.371-.332-.752-.508-1.113 2.831-1.152 4.119-2.811 4.285-3.026zm-5.945-2.821c1.952 0 3.739.732 5.095 1.933-.137.195-1.298 1.747-4.031 2.772-1.259-2.313-2.655-4.207-2.87-4.5.576-.137 1.181-.205 1.806-.205zm-3.27.722c.205.273 1.572 2.177 2.85 4.441-3.592.957-6.765.937-7.106.937.498-2.382 2.108-4.363 4.256-5.379zm-4.422 6.96v-.234c.332.01 4.061.059 7.897-1.093.225.43.429.869.625 1.308l-.303.088c-3.963 1.279-6.072 4.773-6.247 5.066-1.22-1.357-1.972-3.163-1.972-5.135zm7.692 7.682c-1.777 0-3.416-.605-4.715-1.62.137-.283 1.698-3.29 6.033-4.803l.049-.02c1.084 2.801 1.523 5.154 1.64 5.828-.927.4-1.943.615-3.007.615zm4.285-1.318c-.078-.469-.488-2.714-1.493-5.476 2.411-.381 4.519.244 4.783.332-.332 2.138-1.562 3.983-3.29 5.144z"/>
    </symbol>

    <symbol id="whatsapp" viewBox="0 0 24 24">
        <path d="M11.997 22c-1.8 0-3.559-.484-5.094-1.396l-.363-.219-3.784.992 1.01-3.691-.237-.381c-1.004-1.592-1.529-3.431-1.529-5.317 0-5.502 4.488-9.989 10.003-9.989 2.671 0 5.18 1.044 7.072 2.93 1.886 1.892 2.925 4.4 2.925 7.07-.006 5.519-4.494 10-10.003 10zm5.486-7.486c-.3-.15-1.777-.877-2.054-.98-.277-.098-.479-.15-.675.15-.202.3-.779.98-.952 1.176-.173.202-.352.225-.652.075-.3-.15-1.269-.467-2.417-1.494-.894-.796-1.494-1.782-1.673-2.082-.173-.3-.017-.461.133-.611.133-.133.3-.352.45-.525.15-.173.202-.3.3-.502.098-.202.052-.375-.023-.525-.075-.15-.675-1.632-.929-2.232-.242-.588-.49-.507-.675-.513l-.577-.012c-.202 0-.525.075-.802.375s-1.05 1.027-1.05 2.509 1.079 2.907 1.229 3.108c.15.202 2.117 3.235 5.134 4.539.715.311 1.275.496 1.713.634.721.231 1.373.196 1.892.121.577-.087 1.777-.727 2.03-1.43.248-.704.248-1.303.173-1.43-.075-.127-.277-.202-.577-.352z"/>
    </symbol>

    <symbol id="telegram" viewBox="0 0 24 24">
        <path d="M22 12c0 5.523-4.477 10-10 10s-10-4.477-10-10 4.477-10 10-10 10 4.477 10 10zm-9.642-2.618c-.973.405-2.917 1.242-5.832 2.512-.473.188-.721.372-.744.552-.038.304.343.424.862.587l.219.07c.511.166 1.197.36 1.554.368.324.007.685-.127 1.084-.401 2.724-1.839 4.13-2.768 4.218-2.788.062-.014.149-.032.207.02.058.052.053.15.046.177-.038.161-1.534 1.552-2.308 2.271l-.447.42-.235.232c-.474.457-.83.8.02 1.36.408.269.735.492 1.061.714.356.242.711.484 1.171.785l.338.234c.414.295.787.561 1.246.518.267-.025.543-.276.683-1.025.331-1.771.982-5.608 1.133-7.189.013-.139-.003-.316-.017-.394-.013-.078-.041-.189-.142-.271-.12-.097-.305-.118-.387-.116-.376.007-.953.207-3.73 1.362z"/>
    </symbol>

    <symbol id="hh" viewBox="0 0 48 48">
        <path d="M13.6501 13.1689V21.3329C14.8931 19.8509 16.3831 19.1049 18.1111 19.1049C19.0011 19.1049 19.7981 19.2749 20.5131 19.6119C21.2301 19.9469 21.7661 20.3769 22.1281 20.8989C22.4921 21.4259 22.7381 22.0029 22.8711 22.6389C23.0031 23.2719 23.0691 24.2569 23.0691 25.5929V34.3219H19.2071V26.4599C19.2071 24.8999 19.1371 23.9119 18.9901 23.4919C18.8523 23.0805 18.5791 22.728 18.2151 22.4919C17.8431 22.2409 17.3801 22.1169 16.8211 22.1169C16.1811 22.1169 15.6071 22.2769 15.1081 22.5949C14.5981 22.9149 14.2321 23.3929 14.0001 24.0319C13.7641 24.6719 13.6461 25.6169 13.6501 26.8679L13.6461 34.3219H9.78906V13.1689H13.6511H13.6501ZM28.8571 13.1689V21.3329C30.1011 19.8509 31.5901 19.1049 33.3171 19.1049C34.2041 19.1049 35.0071 19.2749 35.7231 19.6119C36.4371 19.9469 36.9731 20.3769 37.3331 20.8989C37.6964 21.4224 37.9492 22.0145 38.0761 22.6389C38.2091 23.2719 38.2751 24.2569 38.2751 25.5929V34.3219H34.4171V26.4599C34.4171 24.8999 34.3441 23.9119 34.1971 23.4919C34.0593 23.08 33.7852 22.7272 33.4201 22.4919C33.0521 22.2409 32.5851 22.1169 32.0261 22.1169C31.3871 22.1169 30.8131 22.2769 30.3131 22.5949C29.8101 22.9149 29.4421 23.3929 29.2071 24.0319C28.9751 24.6719 28.8571 25.6169 28.8571 26.8679V34.3219H25.0001V13.1689H28.8571Z"/>
    </symbol>

    <symbol id="habr" viewBox="0 0 48 48">
        <path class="symboll" fill-rule="evenodd" clip-rule="evenodd" d="M31.8145 28.1971C31.9448 28.2462 32.0813 28.2984 32.2302 28.3506C32.2891 28.1818 32.3356 27.9853 32.3573 27.7612C32.1588 27.7581 31.9665 27.7551 31.7804 27.7489C31.7928 27.9024 31.8052 28.0559 31.8145 28.1971ZM25.5242 12.6433C26.2593 12.8275 27.2488 13.0362 27.9839 13.0485C26.6687 11.2773 24.5285 10.866 22.5838 11.3878C23.871 11.6702 24.8232 12.1184 25.5242 12.6433ZM28.8182 12.9073C29.1067 12.763 29.3548 12.5082 29.5565 12.2258C29.1315 11.9434 28.5825 11.6702 27.8753 11.4645C27.8102 11.5444 27.7543 11.6119 27.7078 11.6641C28.2072 12.057 28.5639 12.4959 28.8182 12.9073ZM29.8976 11.661C30.1272 11.2098 30.245 10.823 30.245 10.8199C30.2357 10.8568 30.1768 11.2497 29.9752 11.7132C30.3722 11.9864 30.6793 12.2719 30.9088 12.5328C31.2531 12.1951 31.8393 11.4983 31.8641 10.6664C31.9014 9.54603 31.0267 9.46008 31.0267 9.46008C30.9553 9.45087 30.9026 9.38947 30.9119 9.31887C30.9212 9.24827 30.9833 9.19916 31.0546 9.2053C31.0577 9.2053 32.1681 9.3158 32.1247 10.6756C32.0937 11.6088 31.4423 12.3762 31.0732 12.7354C31.1694 12.8582 31.2469 12.9748 31.312 13.0792L32.8071 12.0017C33.6507 10.8015 33.5918 9.56137 33.5918 9.55523C33.5887 9.48463 33.6445 9.42631 33.7159 9.42324C33.7872 9.42017 33.8462 9.47542 33.8493 9.54603C33.8493 9.54909 33.8958 10.5314 33.3375 11.618L38.17 8.13399L31.6749 13.8957C31.8424 14.3592 31.8579 14.7705 31.8176 15.1635L31.8983 15.1911C33.4553 14.1781 35.2264 13.4905 35.2295 13.4874C35.2264 13.4905 34.0168 14.4912 32.6303 15.4796C32.9311 15.6085 33.2568 15.7559 33.5949 15.9278C33.9299 15.7375 34.4944 15.4459 35.1117 15.2494C35.5831 14.6877 35.9274 14.4851 35.9305 14.4851C35.9802 14.4544 36.0422 14.4697 36.0732 14.5188C36.1042 14.5679 36.0887 14.6293 36.0391 14.66C36.0391 14.66 35.8127 14.792 35.4777 15.1481C35.6483 15.1051 35.8189 15.0744 35.9895 15.056C36.3524 15.0161 36.6284 15.0622 36.8393 15.1481C37.0068 14.9424 37.1526 14.7214 37.2581 14.4912C37.7792 13.3616 36.9076 13.8527 36.9076 13.8558C36.8579 13.8834 36.7928 13.865 36.7649 13.8159C36.737 13.7668 36.7556 13.7023 36.8052 13.6747C36.8083 13.6716 38.2351 12.8674 37.4473 14.5741C37.3387 14.8104 37.1929 15.0315 37.0254 15.2433C37.4535 15.5226 37.5031 15.9923 37.5031 15.9953C37.5093 16.0659 37.4597 16.1304 37.3883 16.1365C37.317 16.1457 37.2519 16.0935 37.2457 16.0229C37.2457 16.0229 37.2084 15.6577 36.8548 15.4459C36.2903 16.0721 35.5583 16.5571 35.1024 16.8241C35.915 17.3889 36.6873 18.0919 37.2457 18.9422C38.111 18.2208 38.8772 18.0366 39.116 19.289V19.2952L39.1315 19.3719C39.1905 19.2798 39.2525 19.1877 39.3145 19.1018C39.4789 18.8685 39.634 18.7119 39.7798 18.6137C39.8046 18.5431 39.817 18.5032 39.817 18.5032C39.8325 18.448 39.8914 18.4203 39.9473 18.4357C39.9783 18.4449 40.0031 18.4694 40.0124 18.4971C40.6421 18.3006 41.0205 19.1755 41.0236 19.1785C41.0453 19.2307 41.0236 19.2921 40.9708 19.3136C40.9181 19.3351 40.8561 19.3136 40.8344 19.2614C40.8344 19.2583 40.4994 18.4848 39.938 18.7764C39.8294 19.0619 39.603 19.596 39.2308 20.1946C39.2835 20.9282 39.2711 22.0057 38.9082 23.0094L38.9609 23.0371C38.9051 23.1384 38.8462 23.2304 38.7841 23.3164C38.6383 23.6479 38.4491 23.9702 38.2041 24.2588C37.0937 25.591 35.7878 25.9194 35.1272 25.9962C35.1892 26.3584 35.1954 26.7759 35.1148 27.2455C35.8623 27.2363 36.6346 27.221 37.3852 27.1933C38.6352 27.1473 39.8201 27.0736 40.6917 26.957C41.2686 26.8802 41.5912 26.7697 41.7494 26.6654C41.5757 26.6807 40.7134 26.65 41.2872 26.297C41.5602 26.1282 41.8548 26.122 42.0502 26.2049C42.1929 26.2663 42.2953 26.3737 42.3325 26.5088C42.3697 26.6469 42.3387 26.7974 42.2115 26.9416C42.0347 27.1412 41.5974 27.356 40.7599 27.4665C39.8728 27.5863 38.6725 27.6599 37.4039 27.706C36.6098 27.7336 35.7878 27.752 34.9969 27.7612C34.8511 28.2524 34.634 28.6637 34.3859 29.0014C35.5955 29.293 37.0161 29.517 38.5236 29.517C42.8536 29.517 45 28.7496 45 28.7496C45 28.7496 42.4163 30.0481 39.2091 30.177C39.1067 30.5147 38.7934 31.0334 37.8288 31.0334C36.8052 31.0334 35.397 30.3428 34.6774 29.9499C35.3133 30.8523 35.397 32.0833 35.397 32.0863C35.4032 32.1569 35.3474 32.2183 35.2761 32.2245C35.2047 32.2306 35.1427 32.1754 35.1365 32.1047C35.1365 32.0986 35.0248 30.4287 34.054 29.6521L33.84 29.6122C33.4709 29.9529 33.0986 30.174 32.8319 30.309L35.8964 33.9435L35.6297 34.1768L32.4969 30.6835C32.438 30.7418 32.3697 30.8094 32.2891 30.8769C32.0751 31.2974 31.7215 31.8715 31.1507 32.4977C31.5788 32.5867 32.255 32.8384 32.8257 33.5321C33.7748 34.6863 32.5682 35.6962 32.5651 35.6993L32.4721 35.6103C32.4752 35.6072 33.4243 34.6648 32.6241 33.6917C32.0192 32.9581 31.2965 32.7678 30.9398 32.7187C30.6855 32.9796 30.3908 33.2497 30.0558 33.5198C30.3319 33.9281 30.6017 34.3855 30.7537 34.7968C30.8778 35.1253 30.9615 35.5212 30.9522 35.908C30.9119 37.2495 29.6743 37.6884 28.4708 37.6516C28.1359 37.6424 27.7947 37.584 27.4535 37.4889C27.621 38.2409 27.7109 39.1496 27.6241 40.2086C27.317 43.8829 24.1408 43.6435 24.1346 43.6435C24.1439 43.6435 27.0968 43.4256 27.3666 40.1902C27.4566 39.0912 27.3294 38.1519 27.1154 37.3876C26.5757 37.2034 26.0391 36.9425 25.5428 36.6478C25.3257 37.0039 24.9659 37.2709 24.3797 37.2556C24.2463 37.2525 24.1191 37.231 23.995 37.1911C23.7314 37.2679 23.4119 37.2157 23.0366 36.964C22.773 36.7859 22.5527 36.5772 22.3666 36.3531C21.8548 37.1021 21.3245 37.8572 20.7847 38.597C20.6979 40.2454 20.5459 41.8386 20.2885 43.1155C19.9101 44.9849 19.5689 46.311 18.5391 45.9365C19.1408 46.0562 19.5968 44.9297 19.9163 43.3611C20.1582 42.1609 20.3164 40.6598 20.4156 39.1004C19.6278 40.1595 18.8245 41.1755 18.0304 42.0903C17.4349 42.7717 16.7246 43.5084 16.0639 43.708C17.4752 42.3819 18.9981 40.5155 20.4498 38.5356C20.4901 37.7866 20.518 37.0315 20.5397 36.2917C19.1315 38.1458 17.6365 39.9661 16.2872 41.3167C11.1228 46.0746 14.6588 39.8034 14.8977 40.0704C14.8915 40.0827 12.6768 44.2482 15.9957 40.9299C17.4256 39.4995 19.0416 37.5595 20.5552 35.6256L20.5583 35.4752C20.2171 35.4046 19.8542 35.3125 19.4975 35.1989C19.3517 35.3647 19.2091 35.5243 19.0726 35.6747C18.7159 37.3937 17.5993 38.6553 17.5962 38.6584C17.5496 38.7106 17.4659 38.7167 17.4132 38.6707C17.3604 38.6246 17.3542 38.5418 17.4008 38.4896C17.4039 38.4865 18.2847 37.4889 18.7035 36.0738C18.5608 36.2273 18.4305 36.3685 18.3065 36.4974C16.9448 38.376 16.4051 37.7252 16.2066 37.5349C16.1601 37.4827 16.1663 37.3999 16.2221 37.3538C16.2779 37.3078 16.3586 37.3139 16.4051 37.3692C16.4051 37.3692 16.7308 37.7713 18.1204 36.3194C18.3313 36.0983 18.5732 35.8405 18.8338 35.5519C18.871 35.3678 18.8958 35.1775 18.9113 34.981L18.7872 34.9288C18.3189 35.2388 17.6613 35.4384 16.7494 35.3647C16.6284 35.3555 16.5106 35.3401 16.3989 35.3248C16.1477 35.6839 15.7941 35.9449 15.3908 36.0953C14.9411 36.2641 14.4324 36.3009 13.933 36.1966C13.4367 36.0922 12.9529 35.8466 12.5527 35.4537C12.0999 35.0056 11.7587 34.3609 11.6439 33.5137C11.4113 31.7886 12.2829 30.8339 13.0924 30.3305C12.9405 29.9652 12.8598 29.7012 12.835 29.6122C12.6892 29.4986 12.5434 29.3789 12.4008 29.2561L12.3263 29.2776C12.3263 29.2776 12.317 29.2377 12.3015 29.1733C12.1743 29.0627 12.0503 28.9492 11.9262 28.8325L11.9231 28.8356L11.9076 28.8172C11.2004 28.1449 10.6111 27.3898 10.4405 26.6469C10.1861 25.5388 10.791 24.5995 11.464 23.9365L11.4826 23.918C11.6812 23.7247 11.8828 23.5558 12.0751 23.4116C12.1588 22.8652 12.3139 22.3771 12.5093 21.9504C12.4318 21.3641 12.3946 20.7563 12.4194 20.1547C12.4318 19.8661 12.4566 19.5745 12.4969 19.286C12.255 19.3443 12.0006 19.4272 11.7432 19.5407C11.4268 19.6819 11.1725 19.8385 10.9678 20.0073C10.5738 20.3327 10.3753 20.698 10.3071 21.0541C10.2947 21.1155 10.2885 21.1738 10.2823 21.2321C10.4032 21.2505 10.5273 21.2812 10.6483 21.315C11.2407 21.4869 11.8083 21.846 11.9138 22.2758C11.9789 22.5336 11.9541 22.7454 11.8704 22.902C11.8021 23.0278 11.6998 23.1199 11.5695 23.1691C11.4516 23.2151 11.312 23.2274 11.1663 23.2028C10.9274 23.1598 10.6545 23.0125 10.4094 22.7485C10.0558 22.7516 8.95783 22.6933 9.00125 21.8031C9.01366 21.5759 9.12842 21.4163 9.31763 21.315C9.46341 21.2352 9.65572 21.1983 9.86664 21.1953C9.87284 21.1216 9.88215 21.0479 9.89455 20.9743C9.9783 20.5322 10.2202 20.081 10.6979 19.6881C10.9305 19.4978 11.2159 19.3167 11.5664 19.1601C11.9107 19.0066 12.2457 18.9053 12.5651 18.8439C12.7699 17.8218 13.1917 16.8425 13.9206 15.9984C13.4181 15.5226 12.6706 14.924 11.5912 14.2886C12.9808 14.4298 13.8896 14.967 14.451 15.4612C14.9504 15.0222 15.4839 14.7429 16.0298 14.5802C16.2066 14.4636 16.3865 14.3684 16.5633 14.2917C16.1446 13.69 15.1923 12.6586 13.1421 11.5904C15.7165 12.189 16.8362 13.3094 17.3015 14.0062C17.3108 13.997 17.3325 13.9816 17.3666 13.9602L17.3697 13.9571L17.3728 13.954L17.3759 13.9509L17.3945 13.9387L17.4318 13.9141C17.5496 13.779 17.6861 13.6256 17.8443 13.4598C17.379 12.7937 16.4888 11.793 14.8294 10.6634C16.7618 11.1944 17.8381 12.146 18.4212 12.9103C20.3009 11.2466 22.6706 10.3748 25.1055 10.4117C26.2748 10.4301 27.2395 10.5836 28.0335 10.8138C28.6632 9.98498 29.5254 8.65276 29.1749 7.93447C28.9609 7.48937 28.5515 7.23766 28.0738 7.25301C27.6334 7.26836 27.1371 7.40342 26.6563 7.63057C26.2128 7.84238 25.7847 8.12786 25.4311 8.47165C25.0527 8.83694 24.9628 9.15925 25.031 9.39254C25.0651 9.50305 25.1334 9.59821 25.2233 9.66881C25.3164 9.74248 25.4311 9.7916 25.5521 9.81308C26.7308 10.0126 26.157 8.56067 25.8592 9.12549C25.8158 9.20837 25.7196 9.25748 25.6266 9.22985C24.6495 8.94438 27.4163 8.20767 26.4702 9.65346C26.2376 10.0095 25.853 10.1262 25.5056 10.0679C25.3412 10.0402 25.1861 9.9727 25.0589 9.87141C24.9287 9.76704 24.8294 9.63197 24.7798 9.46621C24.6867 9.14697 24.786 8.73564 25.245 8.29055C25.6173 7.92833 26.0701 7.62444 26.5416 7.40342C27.0534 7.16092 27.5869 7.01665 28.0645 7.0013C28.5577 6.98595 28.9919 7.10567 29.2835 7.40342C29.3704 7.49244 29.4479 7.59681 29.5068 7.71959C29.8914 8.5177 29.0012 9.9635 28.3065 10.9028C28.9516 11.1177 29.4758 11.3817 29.8976 11.661ZM29.6557 12.2903L29.6526 12.2964C29.4355 12.6064 29.2122 12.9165 28.9268 13.0853C28.9795 13.1774 29.0261 13.2664 29.0695 13.3554C29.3548 13.4721 29.6495 13.6348 29.9194 13.7944C30.0403 13.8681 30.1582 13.9448 30.2699 14.0185L30.8065 13.5304C30.6514 13.2449 30.3164 12.7569 29.6557 12.2903ZM27.0534 13.1682C26.6594 13.1099 26.2562 13.027 25.8871 12.9441C26.0329 13.0761 26.1663 13.2112 26.2872 13.3493C26.3524 13.3524 26.7928 13.1866 27.0534 13.1682ZM28.5329 32.8875H28.6104L28.5856 32.8599L28.5329 32.8875ZM28.871 32.8814C28.9237 32.8783 28.9733 32.8722 29.0261 32.866C28.9888 32.8046 28.9454 32.7402 28.902 32.6757C28.8586 32.7033 28.8151 32.731 28.7717 32.7586C28.8058 32.7985 28.8369 32.8384 28.871 32.8814ZM29.2494 32.8353L29.2959 32.8261C29.206 32.7095 29.1284 32.6174 29.0757 32.5529L29.0695 32.556C29.1346 32.6542 29.1967 32.7494 29.2494 32.8353ZM29.5161 32.7739C29.7705 32.7033 30.0124 32.5959 30.2357 32.4393C30.3784 32.338 30.5056 32.2398 30.6173 32.1447C30.7506 31.9758 30.8716 31.807 30.9802 31.6412C30.8747 31.6781 30.7692 31.7118 30.6545 31.7425L30.5397 31.7702L30.4932 31.8162C30.1582 32.1232 29.7208 32.3258 29.2618 32.4547C29.3238 32.5314 29.4138 32.6389 29.5161 32.7739ZM29.2897 33.3357L29.2153 33.3479L29.2835 33.4462L29.3238 33.4155L29.2897 33.3357ZM28.9826 33.3756C28.3437 33.4308 27.7202 33.3387 27.2581 33.2313C26.7866 33.2712 26.3213 33.2313 25.9026 33.1515C25.4901 33.2497 25.031 33.3479 24.5844 33.4431C25.2016 34.0355 26.647 35.159 28.7376 33.8299C28.871 33.747 28.9981 33.6611 29.1191 33.572C29.0788 33.5106 29.0323 33.4431 28.9826 33.3756ZM12.2767 27.9638C12.2891 27.9208 12.3015 27.8779 12.317 27.838C12.3821 27.6722 12.469 27.5556 12.5651 27.4757C12.4194 27.0276 12.2922 26.5549 12.1836 26.0514C12.0937 25.634 12.0379 25.2411 12.013 24.8666C11.8611 25.6309 11.7556 26.7329 12.1278 27.6446C12.1712 27.7582 12.224 27.8625 12.2767 27.9638ZM12.7761 28.0835C12.7264 28.2462 12.7202 28.4427 12.7295 28.6176C12.8784 28.7926 13.0397 28.9461 13.1979 29.0812C13.1204 28.9215 13.049 28.7558 12.9777 28.587L12.9312 28.5962C12.9312 28.5962 12.9125 28.5163 12.8939 28.3813C12.8536 28.2861 12.8133 28.1848 12.7761 28.0835ZM19.3083 15.9984C19.3424 16.0475 19.3921 16.0843 19.4603 16.1058C19.7643 16.1948 20.031 16.0168 20.031 16.0168C20.031 16.0168 20.031 16.3821 19.7147 16.4251C19.5875 16.4435 19.4386 16.422 19.3083 16.3882C19.3207 16.4957 19.3424 16.5908 19.3673 16.6706C19.6371 16.6492 19.879 16.6399 20.0838 16.6399C20.1241 16.376 20.1644 16.0935 20.2016 15.8173C19.9659 15.6976 19.7146 15.584 19.451 15.4796C19.3704 15.6669 19.3269 15.8388 19.3083 15.9984ZM17.5248 16.4619C17.5248 16.4619 17.4008 15.9646 17.3697 15.0315H17.348C16.6718 15.8296 16.6036 16.8425 16.6377 17.4473C16.6998 17.4104 16.768 17.3767 16.8331 17.3398C17.1929 17.1526 17.5713 17.0144 17.9467 16.9131C17.7575 16.5233 17.6334 15.9462 17.7978 15.142C17.7357 15.2341 17.6768 15.3384 17.6272 15.452C17.4566 15.851 17.5248 16.4619 17.5248 16.4619ZM19.4324 14.528C19.5782 14.3561 19.7612 14.1505 19.9721 13.9417C19.4231 13.9233 19.1222 14.043 18.6601 14.2057C18.7531 14.2334 18.8431 14.2671 18.9361 14.3009C19.1036 14.3653 19.268 14.4421 19.4324 14.528ZM20.3443 14.2947C20.1675 14.4697 20.0093 14.6416 19.8821 14.792C20.0186 14.881 20.1551 14.9762 20.2885 15.0775C20.3133 14.8227 20.3319 14.5864 20.3412 14.3746L20.3443 14.2947ZM28.3716 13.6839C28.2072 13.6593 28.0273 13.6471 27.8474 13.644C28.0645 13.7146 28.2692 13.7944 28.4615 13.8834C28.4367 13.819 28.4057 13.7545 28.3716 13.6839ZM28.1359 15.6853C28.1793 15.409 28.1793 15.0744 28.1638 14.7705C27.8753 14.7337 27.531 14.7061 27.1216 14.6938C27.317 15.1696 27.4132 15.6239 27.4659 15.9953C27.6675 15.9124 27.9001 15.8019 28.1359 15.6853ZM29.9845 31.8745C29.9318 31.8807 29.879 31.8868 29.8263 31.8929C29.7767 31.939 29.7271 31.9881 29.6774 32.0341C29.786 31.985 29.8883 31.9328 29.9845 31.8745ZM31.312 30.352C31.5105 30.22 31.6594 30.0911 31.7556 29.9928C31.8517 29.6736 31.9014 29.4004 31.9169 29.2009L31.8393 29.1825C31.7401 29.3789 31.585 29.6644 31.3679 30.0051C31.3555 30.1156 31.3369 30.2323 31.312 30.352ZM25.1799 35.2634C25.1427 35.4353 25.0838 35.6655 25 35.9111C25.121 35.997 25.245 36.0799 25.3722 36.1628C25.4839 35.8466 25.5087 35.4936 25.5087 35.2573C25.4032 35.2634 25.2916 35.2634 25.1799 35.2634ZM24.8759 36.2242C24.7674 36.4728 24.6278 36.7123 24.4541 36.8964C24.8294 36.8872 25.0744 36.7031 25.2295 36.4544C25.1117 36.3807 24.9938 36.304 24.8759 36.2242ZM22.1681 36.0953C22.072 35.9571 21.9882 35.8159 21.9138 35.6809C21.6874 35.6563 21.3989 35.6225 21.0794 35.5673L20.8747 35.8405C20.8623 36.5619 20.8437 37.2986 20.8096 38.0322C21.2717 37.3937 21.7277 36.743 22.1681 36.0953ZM21.7091 35.2481C21.678 35.1713 21.6501 35.1007 21.6284 35.0332C21.5695 35.0393 21.5106 35.0485 21.4578 35.0577L21.3555 35.1989C21.4795 35.2174 21.5974 35.2358 21.7091 35.2481ZM19.0354 34.1307C18.9082 34.2535 18.7872 34.3517 18.6818 34.4285L18.719 34.4469C18.8431 34.3486 18.9485 34.2412 19.0354 34.1307ZM17.7885 33.833C17.9994 33.793 18.2196 33.6979 18.4026 33.4953C18.4988 33.3848 18.5794 33.2804 18.6445 33.1822C18.139 32.955 17.6861 32.6788 17.2922 32.3933C17.1185 32.5898 16.9417 32.7985 16.7587 33.0134C17.1309 33.3295 17.4814 33.5997 17.7885 33.833ZM16.0949 33.8145L16.005 33.925C15.7879 34.1952 15.5831 34.4223 15.3908 34.6096C15.7879 34.7845 16.2469 34.9104 16.7742 34.9534C17.438 35.0056 17.9436 34.895 18.3282 34.7017C18.2848 34.6771 18.2444 34.6525 18.201 34.628L18.1979 34.6403C17.2798 34.4162 16.8859 34.2688 16.0949 33.8145ZM11.371 26.5088C11.3276 25.7537 11.4485 25.02 11.5664 24.5043C11.3462 24.9402 11.2748 25.5818 11.34 26.251C11.3493 26.3369 11.3586 26.4229 11.371 26.5088ZM23.6166 12.7998C22.7047 12.72 21.9262 13.1252 21.433 13.4782C21.5044 13.5059 21.5757 13.5396 21.6501 13.5734C22.0285 13.7484 22.3418 13.9602 22.6055 14.1934C23.2103 13.822 23.8865 13.5427 24.6402 13.4199C24.3455 13.1866 24.0074 12.9748 23.6166 12.7998ZM21.0732 13.1068C21.4082 12.8582 21.8704 12.585 22.4194 12.4192C21.9789 12.3333 21.495 12.2841 20.9584 12.2903C20.9988 12.5113 21.0422 12.7876 21.0732 13.1068ZM36.281 18.9176C36.1135 18.9145 35.8871 18.9514 35.6452 19.1202C35.8313 19.4302 35.9833 19.7679 36.0825 20.1332C36.2779 19.903 36.4764 19.6819 36.678 19.4763C36.5571 19.2798 36.4237 19.0956 36.281 18.9176ZM35.1086 19.7495C34.8046 20.3358 34.6588 21.1646 34.5937 21.6404C34.5937 21.7294 34.5937 21.8246 34.5875 21.9166C34.5844 21.9811 34.5782 22.0456 34.5751 22.1131C34.8046 21.7816 35.1024 21.3641 35.4374 20.9313C35.4001 20.4985 35.2854 20.1056 35.1086 19.7495ZM34.3672 20.259C34.4758 19.8968 34.6216 19.5377 34.8108 19.2522C34.1098 18.2668 32.9436 17.5977 31.9076 17.1679C31.951 17.2754 31.9913 17.3889 32.0316 17.5086C32.835 18.0059 33.9051 18.89 34.3672 20.259ZM35.3567 18.6966C35.5366 18.5738 35.7103 18.5001 35.8747 18.4572C34.6061 17.1526 32.804 16.3391 31.678 15.9278C31.6563 16.0291 31.6346 16.1304 31.6129 16.2348C32.8226 16.6737 34.3952 17.4442 35.3567 18.6966ZM37.3666 23.8106C37.7947 23.694 38.2847 23.43 38.6073 22.8437L38.6383 22.859C38.9082 22.0885 38.964 21.2689 38.9454 20.6182C38.7376 20.9037 38.4957 21.1922 38.2165 21.4654L38.1204 21.668C38.1452 22.5981 37.8567 23.2949 37.3666 23.8106ZM38.0459 23.9733C37.5744 24.2342 37.0844 24.2925 36.768 24.2987C36.219 24.6486 35.5459 24.8696 34.8201 25.0078L34.817 25.0507C34.8387 25.0937 34.8635 25.1398 34.8852 25.1858C35.3722 25.2902 36.2283 25.3669 37.0534 24.9249C37.3635 24.7039 37.6768 24.4245 37.9746 24.0654C37.9963 24.0316 38.0211 24.004 38.0459 23.9733ZM33.3716 26.6654C33.7035 26.5426 34.0571 26.2724 34.2587 25.6984C34.1967 25.5265 34.1191 25.373 34.0385 25.2441C33.995 25.2748 33.9516 25.3055 33.9051 25.3362C33.8213 25.8304 33.6073 26.2847 33.3716 26.6654ZM34.3579 23.9518C34.3269 23.786 34.2866 23.6326 34.2401 23.4914C34.1625 23.6847 34.0726 23.872 33.9733 24.0531C34.0199 24.0869 34.0695 24.1298 34.1253 24.179C34.206 24.1084 34.2835 24.0316 34.3579 23.9518ZM34.4975 23.0094C34.5627 23.1721 34.6278 23.3594 34.6867 23.565C34.8294 23.3747 34.9566 23.1721 35.0682 22.9511C34.8666 22.9757 34.6774 22.9941 34.4975 23.0094ZM34.3952 26.3553C34.0354 26.9017 33.5298 27.089 33.1297 27.1442C33.1328 27.1811 33.1359 27.2179 33.139 27.2547C33.5143 27.2547 33.9144 27.2547 34.33 27.2547L34.3331 27.2363C34.3983 26.9079 34.4138 26.6162 34.3952 26.3553ZM36.098 25.4375C35.67 25.4928 35.2792 25.4621 34.9783 25.4099C35.0124 25.4989 35.0434 25.5941 35.0682 25.6923C35.3195 25.6677 35.6824 25.6002 36.098 25.4375ZM29.5782 33.8851C29.634 33.9619 29.6464 34.0233 29.634 34.0601C29.6712 34.1645 29.6278 34.1706 29.5161 34.0847C29.482 34.0693 29.4448 34.0417 29.4076 34.0018C29.2804 34.0877 29.1501 34.1737 29.0106 34.2596C28.111 34.8214 27.255 35.0792 26.4981 35.1652C26.7153 35.4875 27.0999 36.1505 27.3666 37.1359C27.7264 37.2433 28.0924 37.3108 28.4491 37.317C29.5565 37.3415 30.7072 37.2372 30.7506 35.8988C30.763 35.5397 30.6824 35.1744 30.5645 34.8643C30.4187 34.4714 30.1613 34.0355 29.8976 33.6457C29.7953 33.7286 29.6898 33.8053 29.5782 33.8851ZM26.0825 35.2143C26.0236 35.2204 25.9522 35.2296 25.8685 35.2358C25.8685 35.5182 25.8375 35.9602 25.6824 36.3593C26.1011 36.614 26.5478 36.8412 27.0006 37.0131C26.6998 36.1075 26.2965 35.4967 26.0825 35.2143ZM20.9677 35.0854L20.884 34.9749V35.1191L20.9336 35.1283L20.9677 35.0854ZM22.2457 33.9742C22.5248 34.143 22.8164 34.2719 23.0366 34.2474C23.2754 34.2197 23.4615 34.0877 23.598 33.9404L23.8213 33.5935C23.3561 33.6825 22.956 33.7531 22.7109 33.7869C22.5931 33.8023 22.4752 33.8145 22.3511 33.8268L22.2457 33.9742ZM18.1607 31.4325C18.3437 31.6259 18.6042 31.8776 18.902 32.0833C19.1501 31.8776 19.4076 31.5645 19.5844 31.0979L19.0788 30.484C18.7996 30.7633 18.4926 31.0795 18.1607 31.4325ZM19.6991 32.4485C19.9969 32.5069 20.2978 32.4608 20.5707 32.2429C20.5676 31.7947 20.5645 31.3926 20.5614 31.0427L20.3939 31.1409C20.2295 31.7333 19.969 32.1539 19.6991 32.4485ZM20.8747 31.9789C21.0794 31.7824 21.2252 31.6013 21.3276 31.4417L20.8871 30.8554L20.8592 30.8708L20.8747 31.9789ZM21.4609 32.8445C21.647 32.8814 22.0813 32.9673 22.5217 33.0318C22.7202 32.7647 22.9125 32.5038 23.0986 32.246C22.8381 32.1385 22.5465 31.9973 22.2581 31.8131C22.103 32.0188 21.9479 32.2214 21.7928 32.424C21.6812 32.5652 21.5695 32.7064 21.4609 32.8445ZM22.8877 33.0748C23.0893 33.0962 23.2785 33.1054 23.4243 33.0993C23.4771 33.0962 23.5329 33.0901 23.5856 33.0809C23.719 33.0441 23.8493 33.0042 23.9764 32.9612C24.116 32.8998 24.2463 32.8292 24.3548 32.7616L24.4045 32.6849C24.2618 32.6204 24.1625 32.5713 24.1253 32.5529C24.0447 32.5406 23.7686 32.4854 23.3933 32.3565C23.2289 32.5898 23.0583 32.8323 22.8877 33.0748ZM18.629 18.1993L18.7779 19.2798L18.5546 19.4794C18.3933 19.4333 18.2196 19.3842 18.0335 19.3351C17.8102 19.2768 17.6055 19.2307 17.4132 19.1939C17.6179 18.9237 17.8784 18.669 18.2103 18.4449C18.3499 18.3497 18.4895 18.2699 18.629 18.1993ZM23.6911 15.8388C24.1036 15.7927 24.7829 15.7283 25.5397 15.6914C25.8189 15.6791 26.0515 15.6761 26.2469 15.6791C26.1383 15.3845 25.9895 15.056 25.7878 14.7276C24.7736 14.792 24.0137 15.0253 23.4584 15.2924C23.5546 15.4796 23.6321 15.6607 23.6911 15.8388ZM26.3182 15.8848C26.1197 15.8787 25.8685 15.8817 25.5521 15.8971C25.1241 15.9186 24.7209 15.9462 24.3766 15.9769C25.1985 16.026 25.8685 16.1734 26.4082 16.2041C26.3834 16.1058 26.3555 15.9984 26.3182 15.8848ZM12.5589 24.3785C12.6365 24.5504 12.5745 24.7468 12.4256 24.8481C12.4504 25.2011 12.5031 25.5726 12.5869 25.9686C12.6861 26.4229 12.8009 26.8526 12.9281 27.2578C13.018 26.8096 13.2227 26.3185 13.6383 25.8949C13.4398 25.4621 13.232 24.9341 13.0459 24.3417C12.5093 24.271 12.5589 24.3785 12.5589 24.3785ZM12.4535 23.6786C12.5651 23.6571 12.6923 23.6418 12.8412 23.6387C12.8226 23.565 12.8009 23.4883 12.7823 23.4146C12.6861 23.4729 12.5776 23.5466 12.4566 23.6326L12.4535 23.6786ZM13.781 23.7154C14.0261 23.7554 14.299 23.8106 14.603 23.8843C14.4758 23.212 14.4789 22.6441 14.5813 22.1653C14.7209 21.5084 15.0496 21.0203 15.4994 20.6765C15.4653 20.5783 15.428 20.4586 15.397 20.3266C14.6681 20.9221 13.8089 21.9903 13.781 23.7154ZM15.1644 24.0347C15.273 24.0654 15.3784 24.0991 15.4777 24.1298C15.4405 23.6356 15.518 23.0094 15.8902 22.3065C15.9802 22.1346 16.0856 21.9811 16.2004 21.843C16.1849 21.6619 16.1663 21.2904 16.2283 20.83C16.1756 20.8545 16.1259 20.8822 16.0763 20.9098C15.5862 21.1861 15.2264 21.625 15.09 22.2696C14.9907 22.7424 15.0031 23.3256 15.1644 24.0347ZM15.5614 24.9586L15.4218 24.9126L15.4467 24.9832L15.5614 24.9586ZM14.817 24.7346C14.7395 24.7131 14.6557 24.6916 14.572 24.6701C14.2835 24.5964 14.0354 24.5381 13.8245 24.489C13.84 24.6056 13.8555 24.7254 13.8772 24.8451C13.964 25.0784 14.054 25.2932 14.1408 25.4928C14.3673 25.3485 14.634 25.2226 14.9442 25.1183C14.8977 24.9893 14.8573 24.8604 14.817 24.7346ZM19.1532 35.0792L19.1408 35.202L19.2246 35.1068L19.1532 35.0792ZM39.5968 19.0742C39.5627 19.1171 39.5254 19.1632 39.4882 19.2154C39.3859 19.3627 39.2835 19.5162 39.1842 19.6758C39.1904 19.728 39.1998 19.7832 39.206 19.8446C39.3703 19.5592 39.5006 19.2921 39.5968 19.0742ZM38.9175 20.1209C38.7872 20.3481 38.6632 20.5752 38.5484 20.7993C38.688 20.6274 38.8151 20.4555 38.9299 20.2836L38.9175 20.1209ZM38.0955 21.2475C38.3127 20.7962 38.5856 20.2713 38.8834 19.774C38.8524 19.5346 38.8213 19.3811 38.8151 19.3504V19.3443C38.6476 18.4725 38.08 18.6168 37.4007 19.1847C37.7605 19.7955 38.0118 20.4831 38.0955 21.2475ZM14.8977 29.9468C15.1241 29.6153 15.4777 29.2162 16.005 28.8816C15.5707 28.5348 15.0465 28.0498 14.5689 27.4389C14.0943 27.973 13.9857 28.5777 14.0106 29.0842C14.1532 29.2715 14.4789 29.6521 14.8977 29.9468ZM16.1539 29.0904C15.6545 29.4035 15.3226 29.778 15.1117 30.0849C15.4932 30.3182 15.7134 30.4226 15.822 30.4656L15.9336 30.3858V30.3888C15.946 30.3059 15.9647 30.1647 15.9926 29.9192C16.0236 29.6337 16.0949 29.3206 16.1539 29.0904ZM21.1228 14.1842C21.1228 14.2579 21.1197 14.3316 21.1166 14.4083C21.1042 14.7276 21.067 15.1113 21.0205 15.5103C21.3027 15.2095 21.6098 14.921 21.9479 14.6539C21.7649 14.5127 21.5571 14.3807 21.3182 14.2702C21.2531 14.2364 21.188 14.2088 21.1228 14.1842ZM20.8964 16.4619C20.8561 16.7382 20.8127 17.0052 20.7754 17.2477C20.9119 17.085 21.067 16.9285 21.2221 16.7873L20.8964 16.4619ZM20.304 13.1927C20.273 12.8919 20.2326 12.6279 20.1954 12.4253C19.7612 12.6924 19.3797 12.9779 19.0509 13.2541C19.4262 13.1774 19.848 13.1436 20.304 13.1927ZM34.9163 16.6952C35.3381 16.4527 36.0856 15.9769 36.6594 15.3568C36.495 15.3047 36.2872 15.2801 36.0205 15.3077C35.7382 15.3384 35.4529 15.409 35.1737 15.498C34.9752 15.7467 34.7581 16.0598 34.5347 16.4527C34.6619 16.5294 34.7891 16.6092 34.9163 16.6952ZM34.3579 16.3422C34.5161 16.0659 34.6712 15.8265 34.8201 15.6208C34.451 15.7651 34.116 15.9309 33.8679 16.0659C34.0292 16.1549 34.1936 16.247 34.3579 16.3422ZM37.3139 22.1898C36.92 22.4385 36.4795 22.6441 35.9832 22.7792C35.8002 23.3041 35.5304 23.7584 35.2109 24.1513C36.2996 23.8444 37.1402 23.255 37.3139 22.1898ZM33.5856 23.0278C33.4305 23.0217 33.2847 23.0125 33.1452 22.9972C33.2537 23.1107 33.3561 23.2335 33.4491 23.3716C33.5019 23.2611 33.5453 23.1476 33.5856 23.0278ZM32.8939 22.7639C33.1172 22.7976 33.3685 22.8222 33.6507 22.8283C33.7376 22.5275 33.7965 22.2113 33.812 21.8798C33.8834 20.3972 33.1359 19.3627 32.3635 18.6997C32.4628 19.1785 32.5031 19.6052 32.4969 19.9797C32.5589 20.4432 32.5931 20.9374 32.5806 21.447C32.5713 21.8246 32.5558 22.1776 32.5372 22.5029C32.6582 22.5766 32.7761 22.6656 32.8939 22.7639ZM34.4789 22.8038C34.6929 22.7884 34.9225 22.7608 35.1644 22.727C35.3257 22.3372 35.4311 21.9013 35.4467 21.4163C35.0155 22.0026 34.6619 22.5306 34.4789 22.8038ZM36.0577 22.5428C36.5385 22.3986 36.9665 22.1837 37.3418 21.9258C37.3449 21.8491 37.348 21.7693 37.3449 21.6895C37.3263 20.9681 37.134 20.3174 36.8238 19.7372C36.6036 19.9705 36.3803 20.2283 36.1632 20.4954C36.188 20.6305 36.2035 20.7655 36.2159 20.9067C36.2624 21.5084 36.1973 22.0517 36.0577 22.5428ZM32.3232 21.094C32.1712 21.5667 31.9448 21.8982 31.7463 22.1131C31.9045 22.1714 32.0906 22.2482 32.286 22.3525C32.3015 22.0671 32.3139 21.7632 32.3201 21.4378C32.3232 21.3242 32.3232 21.2076 32.3232 21.094ZM31.2035 21.0664C31.2314 21.1216 31.2593 21.1738 31.2872 21.229C31.3089 21.272 31.3275 21.315 31.3493 21.358C31.4454 21.1523 31.6005 20.6704 31.4268 19.8784C31.188 18.7856 30.6266 19.6758 30.6266 19.6758C30.9212 19.9981 31.1073 20.6427 31.2035 21.0664ZM31.7277 22.6534C31.8269 23.3655 31.7525 23.9948 31.6749 24.3969C31.8145 24.4061 31.9541 24.4123 32.0968 24.4184C32.1495 24.0439 32.2053 23.5405 32.2488 22.9204C32.0689 22.8068 31.889 22.7209 31.7277 22.6534ZM17.2146 18.6291C17.4132 18.4111 17.6458 18.2055 17.9218 18.0182C18.291 17.7696 18.6632 17.5946 19.023 17.478C18.8648 17.4994 18.7035 17.5271 18.5391 17.5608L18.5143 17.5977C18.5143 17.5977 18.5019 17.5885 18.4771 17.5731C18.049 17.6652 17.6086 17.8064 17.196 18.0213C17.0378 18.1042 16.8952 18.187 16.768 18.2668C16.9169 18.3835 17.0906 18.5186 17.2146 18.6291ZM16.3493 22.5459C16.0267 23.1537 15.9615 23.6847 15.9895 24.0961C16.1073 23.6909 16.2934 23.1936 16.585 22.6441C16.8393 22.1591 17.1836 21.7939 17.531 21.5207C17.0844 21.6956 16.6377 22.0026 16.3493 22.5459ZM13.8958 26.4137C13.1545 27.3192 13.4367 28.4795 13.4367 28.4826L13.3902 28.4918C13.4553 28.6422 13.5236 28.7926 13.5918 28.9369C13.5918 28.3598 13.7562 27.6875 14.3176 27.0982C14.1687 26.8864 14.0261 26.6562 13.8958 26.4137ZM14.7395 16.9193C14.6681 16.8211 14.5472 16.6584 14.358 16.4496C13.7717 17.1403 13.415 17.9353 13.2196 18.7733C14.0013 18.7365 14.6433 18.9053 15.031 19.0465C15.0714 18.9514 15.1241 18.8409 15.2047 18.715C15.0279 18.3559 14.7519 17.6744 14.7395 16.9193ZM27.4845 11.4922L27.5807 11.3817C27.4504 11.3479 27.317 11.3203 27.1774 11.2896C27.2829 11.3571 27.3852 11.4246 27.4845 11.4922ZM32.4969 23.0984C32.4535 23.6387 32.4038 24.0838 32.3573 24.4276C32.5093 24.4307 32.6582 24.4337 32.8133 24.4307C32.9404 24.2649 33.0614 24.0899 33.1731 23.9058C32.9932 23.565 32.7481 23.301 32.4969 23.0984ZM32.2705 27.2486L32.348 27.1657V27.1596C32.3046 26.8035 32.2146 26.5027 32.1123 26.254L32.0689 26.2694C31.9355 26.3799 31.8021 26.4781 31.6749 26.5733C31.6687 26.6961 31.6718 26.8373 31.6967 26.9969C31.7091 27.0736 31.7184 27.1534 31.7277 27.2363C31.9014 27.2394 32.0844 27.2455 32.2705 27.2486ZM34.1842 27.7643C33.8213 27.7674 33.4677 27.7674 33.1359 27.7643C33.111 28.0774 33.0428 28.3598 32.9591 28.5962C33.1545 28.6576 33.3623 28.722 33.5763 28.7834C33.812 28.5163 34.0292 28.1818 34.1842 27.7643ZM32.9653 26.3461C33.08 26.1558 33.1855 25.9501 33.2661 25.7291C33.111 25.8151 32.9622 25.8887 32.8257 25.9563C32.8784 26.076 32.9249 26.208 32.9653 26.3461ZM32.59 29.3513C32.5217 29.4526 32.4783 29.5048 32.4783 29.5048L32.1805 29.2592L32.0689 29.2346L32.3232 29.6982C32.438 29.649 32.6334 29.557 32.8598 29.4096L32.59 29.3513ZM16.4919 31.0273L16.5447 31.0795C16.83 31.3036 17.2767 31.2268 17.2767 31.2268C17.2767 31.2268 17.0472 31.015 16.8859 30.837C16.7215 30.659 16.4919 30.1954 16.4919 30.1954C16.4919 30.1954 16.2903 30.7664 16.4919 31.0273ZM20.4187 33.7163C20.2233 33.6795 20.0186 33.6365 19.8108 33.5812C19.6991 33.8882 19.4975 34.2903 19.1408 34.6341C19.2649 34.6832 19.389 34.7293 19.5161 34.7723C19.8046 34.4438 20.1086 34.0908 20.4187 33.7163ZM12.4566 32.8353C12.4504 32.7647 12.5031 32.7033 12.5745 32.6972C12.6458 32.691 12.7078 32.7432 12.714 32.8138C12.714 32.823 12.9994 35.9909 14.7891 34.7661C13.4274 33.9772 12.8753 32.7156 12.8722 32.7125C12.8257 32.6082 12.8722 32.4885 12.9777 32.4424C13.0831 32.3964 13.2041 32.4424 13.2506 32.5468C13.2537 32.5498 13.7903 33.7838 15.1334 34.4899C15.3381 34.3057 15.5583 34.0662 15.8003 33.7685L15.8685 33.6825C15.5304 33.4707 15.183 33.219 14.848 32.9151C14.0416 32.1815 13.5205 31.2913 13.2103 30.616C12.4876 31.0795 11.737 31.939 11.9417 33.4707C12.0472 34.2474 12.3542 34.8306 12.7637 35.2358C13.1173 35.5857 13.5453 35.8037 13.9857 35.8957C14.4262 35.9878 14.8728 35.9571 15.2668 35.8067C15.5707 35.6931 15.8406 35.509 16.0453 35.2603C15.6793 35.1774 15.3505 35.0547 15.0527 34.9104C12.8071 36.7368 12.4566 32.8476 12.4566 32.8353ZM16.1601 33.3173L16.2903 33.1546C15.518 32.4731 14.6743 31.5891 13.9268 30.4072L13.7872 30.3121C13.7314 30.3366 13.6756 30.3612 13.6166 30.3888C13.9051 31.0242 14.3952 31.8745 15.1644 32.5744C15.4901 32.8722 15.8313 33.1177 16.1601 33.3173ZM16.5509 32.8292L16.9758 32.292L16.2624 32.5652C16.3586 32.6573 16.4547 32.7463 16.5509 32.8292ZM17.8877 31.1194C18.1731 30.748 18.4336 30.4072 18.6663 30.0972C18.3871 29.9284 17.8939 29.7196 17.531 30.0696C17.1309 30.4471 17.6148 30.9076 17.8877 31.1194ZM16.4919 33.3295L16.3896 33.4523C16.616 33.5782 16.8331 33.6856 17.0379 33.7746C16.8642 33.6365 16.6812 33.4892 16.4919 33.3295ZM20.5707 33.9373C20.3009 34.2596 20.0372 34.5697 19.786 34.8613C20.0465 34.938 20.3071 35.0025 20.5614 35.0577C20.5645 34.674 20.5676 34.2995 20.5707 33.9373ZM15.5614 18.2576C15.6607 18.1563 15.7723 18.0489 15.9057 17.9415C15.8406 17.4749 15.7444 16.2562 16.3369 15.1481C16.2221 15.1757 16.1104 15.2126 15.9957 15.2525C14.9039 16.1918 15.2668 17.5547 15.5614 18.2576ZM18.3561 16.8149C18.5236 16.7811 18.6849 16.7535 18.8462 16.729C18.7562 16.376 18.7221 15.8756 18.9609 15.3077C18.7221 15.231 18.4771 15.1696 18.2289 15.1205C18.0335 15.9462 18.1762 16.4865 18.3561 16.8149ZM14.8418 19.4118C14.4727 19.2829 13.8679 19.1325 13.1328 19.1877C13.0769 19.5131 13.0459 19.8446 13.0335 20.1762C13.0211 20.4616 13.0242 20.7471 13.0397 21.0326C13.657 20.1823 14.3952 19.6697 14.8418 19.4118ZM10.304 21.6557C10.3288 21.7939 10.3722 21.9228 10.4281 22.0425C10.4901 22.1806 10.5707 22.3065 10.6576 22.4109C10.853 22.6411 11.0639 22.7669 11.2376 22.7976C11.3058 22.8099 11.3679 22.8068 11.4144 22.7884C11.4516 22.7731 11.4826 22.7485 11.5013 22.7086C11.5385 22.638 11.5478 22.5244 11.5075 22.374C11.4392 22.0977 10.9957 21.846 10.5273 21.7079C10.4529 21.6895 10.3784 21.6711 10.304 21.6557ZM10.0496 22.2113C9.96589 22.0271 9.90386 21.8246 9.87594 21.6097C9.72706 21.6097 9.59989 21.6312 9.51304 21.6803C9.45411 21.711 9.41689 21.7601 9.41378 21.8246C9.39517 22.1868 9.79219 22.2973 10.1055 22.331C10.0869 22.2911 10.0683 22.2543 10.0496 22.2113ZM22.9746 14.5679C23.0552 14.6631 23.1297 14.7583 23.1948 14.8565C23.7531 14.5802 24.4944 14.3377 25.4529 14.2395C25.3567 14.1167 25.2512 13.9939 25.1396 13.8742C25.0713 13.8803 25.0031 13.8865 24.9318 13.8957C24.2091 13.9847 23.5577 14.2303 22.9746 14.5679ZM22.9374 16.0229C22.897 15.9155 22.8505 15.8019 22.7916 15.6914C22.5745 15.851 22.4194 16.0015 22.3139 16.1181C22.4814 16.0874 22.6954 16.0536 22.9374 16.0229ZM26.8673 14.1597C27.1774 14.1505 27.4628 14.1443 27.7295 14.1443C27.4225 14.043 27.0844 13.9602 26.7153 13.908C26.768 13.9909 26.8176 14.0768 26.8673 14.1597ZM38.4926 30.1832C38.3964 30.3581 38.2444 30.5423 38.0211 30.5423C37.8009 30.5423 37.6179 30.3366 37.4907 30.134C37.835 30.1617 38.17 30.177 38.4926 30.1832ZM12.6396 22.77C12.6117 22.8682 12.5838 22.9665 12.5589 23.0678L12.683 22.991C12.6706 22.9173 12.6551 22.8437 12.6396 22.77ZM11.0918 27.1872C11.0112 26.8925 10.9584 26.5856 10.9274 26.2878C10.8995 25.9962 10.8964 25.7107 10.9181 25.4375C10.7941 25.7844 10.7506 26.1589 10.8406 26.5579C10.8871 26.7667 10.974 26.9785 11.0918 27.1872ZM30.9305 26.1558C31.0422 26.0821 31.1601 25.9962 31.2841 25.9041C31.3058 25.8642 31.3182 25.8181 31.3244 25.766C31.3741 25.3823 30.9864 25.2441 30.9864 25.2441C30.9864 25.2441 31.0236 25.7936 30.8871 26.033C30.8437 26.1128 30.8716 26.1527 30.9305 26.1558ZM18.1762 28.0129C18.6135 28.0436 19.0292 27.9331 19.0292 27.9331C19.0292 27.9331 18.9299 28.2278 18.6911 28.2493C18.4522 28.2708 18.1762 28.0129 18.1762 28.0129ZM28.1886 30.3643C28.2382 30.3735 28.7748 30.5822 29.2711 30.0481C29.7674 29.517 29.5689 28.8264 29.5689 28.8264C29.5689 28.8264 29.4107 29.3789 28.9237 29.7995C28.4367 30.2261 28.1886 30.3643 28.1886 30.3643ZM28.0583 29.4188C28.0583 29.4188 28.3654 29.5263 28.6942 29.2807C29.023 29.0351 28.8338 28.6207 28.8338 28.6207L28.0583 29.4188ZM29.5999 30.6497C29.5999 30.6497 30.0775 30.5024 30.2357 30.0113C30.3939 29.5201 30.3753 29.2531 30.3753 29.2531C30.3753 29.2531 30.7816 29.8639 30.5242 30.2384C30.2637 30.6098 29.5999 30.6497 29.5999 30.6497ZM30.0434 21.8092C30.0434 21.8092 30.1582 22.1346 30.3505 22.1837C30.5428 22.2328 30.6669 22.1898 30.6669 22.1898C30.6669 22.1898 30.7506 22.6441 30.4094 22.549C30.0682 22.4538 30.0434 21.8092 30.0434 21.8092ZM29.8263 20.6888C30.1985 21.0295 30.5459 21.7018 30.5459 21.7018C30.5459 21.7018 30.1148 21.6127 29.9069 21.3979C29.696 21.1799 29.8263 20.6888 29.8263 20.6888ZM30.1365 19.2583L29.1718 18.0857C29.1718 18.0857 29.817 17.9783 30.0744 18.2822C30.335 18.5892 30.1365 19.2583 30.1365 19.2583ZM28.4957 19.1233C28.4957 19.1233 28.5639 18.5339 27.9808 17.923C27.3945 17.3122 26.8393 17.8831 26.8393 17.8831C26.8393 17.8831 27.6148 18.1594 27.8815 18.4142C28.1483 18.669 28.4957 19.1233 28.4957 19.1233ZM17.5651 23.7676C17.6086 23.5896 17.897 23.2918 17.897 23.2918C17.897 23.2918 17.5589 23.2489 17.5062 23.4085C17.4504 23.5712 17.5651 23.7676 17.5651 23.7676ZM16.3586 27.1473C16.3586 27.1473 16.6656 27.3131 16.9634 27.3652C17.2612 27.4144 17.4783 27.3959 17.4783 27.3959C17.4783 27.3959 16.7928 27.7888 16.5106 27.574C16.2283 27.356 16.3586 27.1473 16.3586 27.1473ZM17.9994 26.475C17.9994 26.475 17.8598 26.8096 17.8691 27.2332C17.8784 27.6569 18.2072 27.8134 18.2072 27.8134C18.2072 27.8134 17.9932 27.2946 17.9994 26.475ZM21.464 30.0082C21.464 30.0082 21.9758 30.3827 22.5279 30.53C22.6334 30.5577 22.7295 30.5791 22.8195 30.5976H22.8257H22.8319H22.8381H22.8443H22.8474H22.8536H22.8598H22.8629H22.866H22.8691H22.8753H22.8815H22.8877H22.8908H22.8939H22.9001H22.9063H22.9125H22.9156H22.9187H22.9249H22.928H22.9342H22.9374H22.9405H22.9436H22.9467H22.9498H22.9529H22.956H22.9591H22.9622H22.9653H22.9684H22.9715H22.9746H22.9777H22.9808H22.9839H22.987H22.9901H22.9932H22.9963H22.9994H23.0025H23.0056H23.0087H23.0118H23.0149H23.018H23.0211H23.0242H23.0273H23.0304H23.0335H23.0366H23.0397H23.0428H23.0459H23.049H23.0521H23.0552H23.0583H23.0614H23.0645H23.0676H23.0707H23.0738C23.2909 30.6283 23.415 30.6283 23.415 30.6283C23.415 30.6283 23.2103 30.7664 22.9063 30.837H22.9001H22.8939H22.8908H22.8877H22.8815H22.8753L22.866 30.8401H22.8629H22.8598H22.8536H22.8474H22.8412H22.835H22.8319H22.8288H22.8226H22.8164H22.8102H22.804H22.8009H22.7947H22.7885H22.7823H22.7761H22.7699H22.7637H22.7575H22.7512H22.745H22.7388H22.7326H22.7264H22.7202H22.7171H22.7109H22.7047H22.6985H22.6923H22.6892H22.6861H22.6799H22.6737H22.6675H22.6613H22.6582H22.6551H22.6489H22.6427H22.6365H22.6303H22.6272H22.6241H22.6179H22.6117H22.6055H22.5993H22.5931H22.5869H22.5807H22.5745H22.5682H22.562H22.5558H22.5496H22.5434H22.5372H22.531H22.5248H22.5186C22.4008 30.8401 22.2798 30.8247 22.1526 30.7879C21.5633 30.6896 21.464 30.0082 21.464 30.0082ZM25.5552 32.0035C25.5552 32.0035 25.7227 32.2582 25.9367 32.3565C26.1508 32.4547 25.8716 32.5376 25.6235 32.3902C25.3784 32.246 25.5552 32.0035 25.5552 32.0035ZM25.9553 31.497C25.9553 31.497 26.83 31.7241 27.4349 31.4386C28.0397 31.1532 28.2692 30.8677 28.2692 30.8677C28.2692 30.8677 27.7543 32.3258 27.1557 32.3043C26.5602 32.2828 25.9553 31.497 25.9553 31.497Z"/>
    </symbol>

    <symbol id="figma" viewBox="0 0 40 40">
        <path d="M7.08333 0H32.9167C36.8333 0 40 3.24786 40 7.26496V32.735C40 36.7521 36.8333 40 32.9167 40H7.08333C3.16667 40 0 36.7521 0 32.735V7.26496C0 3.24786 3.16667 0 7.08333 0Z" fill="#1E1E1E"/>
        <g clip-path="url(#clip0_3147_45109)">
            <path d="M20.334 20.5131C20.334 19.4099 20.7642 18.3519 21.53 17.5718C22.2957 16.7918 23.3343 16.3535 24.4173 16.3535C25.5003 16.3535 26.5389 16.7918 27.3047 17.5718C28.0704 18.3519 28.5006 19.4099 28.5006 20.5131C28.5006 21.6162 28.0704 22.6742 27.3047 23.4543C26.5389 24.2344 25.5003 24.6726 24.4173 24.6726C23.3343 24.6726 22.2957 24.2344 21.53 23.4543C20.7642 22.6742 20.334 21.6162 20.334 20.5131Z" fill="#1ABCFE"/>
            <path d="M12.168 28.8314C12.168 27.7282 12.5982 26.6702 13.3639 25.8902C14.1297 25.1101 15.1683 24.6719 16.2513 24.6719H20.3346V28.8314C20.3346 29.9346 19.9044 30.9926 19.1387 31.7727C18.3729 32.5527 17.3343 32.991 16.2513 32.991C15.1683 32.991 14.1297 32.5527 13.3639 31.7727C12.5982 30.9926 12.168 29.9346 12.168 28.8314V28.8314Z" fill="#0ACF83"/>
            <path d="M20.334 8.0332V16.3523H24.4173C25.5003 16.3523 26.5389 15.9141 27.3047 15.134C28.0704 14.3539 28.5006 13.2959 28.5006 12.1927C28.5006 11.0896 28.0704 10.0316 27.3047 9.25151C26.5389 8.47144 25.5003 8.0332 24.4173 8.0332H20.334Z" fill="#FF7262"/>
            <path d="M12.168 12.1927C12.168 13.2959 12.5982 14.3539 13.3639 15.134C14.1297 15.9141 15.1683 16.3523 16.2513 16.3523H20.3346V8.0332H16.2513C15.1683 8.0332 14.1297 8.47144 13.3639 9.25151C12.5982 10.0316 12.168 11.0896 12.168 12.1927V12.1927Z" fill="#F24E1E"/>
            <path d="M12.168 20.5131C12.168 21.6162 12.5982 22.6742 13.3639 23.4543C14.1297 24.2344 15.1683 24.6726 16.2513 24.6726H20.3346V16.3535H16.2513C15.1683 16.3535 14.1297 16.7918 13.3639 17.5718C12.5982 18.3519 12.168 19.4099 12.168 20.5131V20.5131Z" fill="#A259FF"/>
        </g>
        <defs>
            <clipPath id="clip0_3147_45109">
            <rect width="16.3333" height="24.9573" fill="white" transform="translate(12.166 8.0332)"/>
            </clipPath>
        </defs>
    </symbol>

    <symbol id="ai" viewBox="0 0 40 40">
        <path d="M7.08356 0H32.9164C36.8329 0 40 3.24733 40 7.26502V32.735C40 36.7518 36.8338 40 32.9164 40H7.08356C3.16711 40 0 36.7527 0 32.735V7.26502C0 3.24825 3.16622 0 7.08356 0Z" fill="#330000"/>
        <path d="M19.3837 23.9998H13.1837L11.9171 28.0166C11.8833 28.1706 11.7499 28.2727 11.6006 28.2554H8.46728C8.28416 28.2554 8.2335 28.1533 8.28416 27.9473L13.6513 12.1017C13.7011 11.9303 13.7508 11.7425 13.8184 11.5374C13.8851 11.1782 13.9179 10.8026 13.9179 10.4261C13.9011 10.3404 13.9677 10.2547 14.0513 10.2383C14.0682 10.2383 14.0851 10.2383 14.1011 10.2383H18.3677C18.5011 10.2383 18.5677 10.2893 18.5846 10.375L24.6682 27.981C24.7179 28.1688 24.6682 28.2545 24.5011 28.2545H21.0175C20.9011 28.2718 20.7846 28.1861 20.7508 28.0667L19.3837 23.9998ZM14.1508 20.5291H18.3837C18.2842 20.1699 18.1508 19.7432 18.0006 19.2984C17.8504 18.8371 17.7002 18.3411 17.5508 17.8288C17.3837 17.2991 17.2344 16.7858 17.0673 16.2562C16.9002 15.7265 16.7508 15.2305 16.6175 14.7346C16.4842 14.256 16.3677 13.8111 16.2513 13.4008H16.2175C16.0673 14.1356 15.8842 14.8704 15.6504 15.6061C15.4006 16.4266 15.1508 17.2818 14.8842 18.136C14.6504 19.0075 14.4006 19.8116 14.1508 20.5291Z" fill="#FF9A00"/>
        <path d="M28.2996 13.1614C27.7494 13.1787 27.2161 12.9562 26.8161 12.5633C26.433 12.1357 26.233 11.5714 26.249 10.9907C26.2321 10.4091 26.449 9.86298 26.849 9.46914C27.249 9.07622 27.7823 8.87109 28.3325 8.87109C28.9823 8.87109 29.4827 9.07622 29.849 9.46914C30.2152 9.87939 30.4161 10.4264 30.3992 10.9907C30.4161 11.5723 30.2161 12.1357 29.8161 12.5633C29.4321 12.9736 28.8659 13.196 28.2996 13.1614ZM26.433 27.9986V14.837C26.433 14.6656 26.4996 14.5981 26.6499 14.5981H29.9494C30.0996 14.5981 30.1663 14.6838 30.1663 14.837V27.9995C30.1663 28.1873 30.0996 28.273 29.9494 28.273H26.6827C26.5156 28.2721 26.433 28.1691 26.433 27.9986Z" fill="#FF9A00"/>
    </symbol>

    <symbol id="ps" viewBox="0 0 40 40">
        <path d="M7.08333 0H32.9167C36.8333 0 40 3.24786 40 7.26496V32.735C40 36.7521 36.8333 40 32.9167 40H7.08333C3.16667 40 0 36.7521 0 32.735V7.26496C0 3.24786 3.16667 0 7.08333 0Z" fill="#001E36"/>
        <path d="M9 28.0503V10.4605C9 10.3409 9.05 10.2725 9.16667 10.2725C9.45 10.2725 9.71667 10.2725 10.1 10.2554C10.5 10.2383 10.9167 10.2383 11.3667 10.2212C11.8167 10.2041 12.3 10.2041 12.8167 10.187C13.3333 10.1699 13.8333 10.1699 14.3333 10.1699C15.7 10.1699 16.8333 10.3409 17.7667 10.6998C18.6 10.9904 19.3667 11.4691 20 12.1015C20.5333 12.6486 20.95 13.3152 21.2167 14.0503C21.4667 14.7682 21.6 15.5033 21.6 16.2725C21.6 17.7426 21.2667 18.9562 20.6 19.9135C19.9333 20.8708 19 21.5887 17.9167 21.999C16.7833 22.4263 15.5333 22.5802 14.1667 22.5802C13.7667 22.5802 13.5 22.5802 13.3333 22.5631C13.1667 22.546 12.9333 22.546 12.6167 22.546V28.0332C12.6333 28.1528 12.55 28.2554 12.4333 28.2725C12.4167 28.2725 12.4 28.2725 12.3667 28.2725H9.2C9.06667 28.2725 9 28.2041 9 28.0503ZM12.6333 13.5716V19.3152C12.8667 19.3323 13.0833 19.3494 13.2833 19.3494H14.1667C14.8167 19.3494 15.4667 19.2468 16.0833 19.0417C16.6167 18.8879 17.0833 18.5631 17.45 18.1357C17.8 17.7084 17.9667 17.1272 17.9667 16.3751C17.9833 15.8451 17.85 15.3152 17.5833 14.8537C17.3 14.4092 16.9 14.0674 16.4167 13.8793C15.8 13.6229 15.1333 13.5203 14.45 13.5374C14.0167 13.5374 13.6333 13.5374 13.3167 13.5545C12.9833 13.5374 12.75 13.5545 12.6333 13.5716Z" fill="#31A8FF"/>
        <path d="M31.9997 18.2715C31.4997 17.9979 30.9663 17.8099 30.3997 17.6903C29.783 17.5535 29.1663 17.468 28.533 17.468C28.1997 17.4509 27.8497 17.5022 27.533 17.5877C27.3163 17.639 27.133 17.7586 27.0163 17.9296C26.933 18.0663 26.883 18.2373 26.883 18.3911C26.883 18.545 26.9497 18.6988 27.0497 18.8356C27.1997 19.0236 27.3997 19.1774 27.6163 19.2971C27.9997 19.5022 28.3997 19.6903 28.7997 19.8612C29.6997 20.1689 30.5663 20.5962 31.3663 21.1091C31.9163 21.468 32.3663 21.9467 32.683 22.5279C32.9497 23.0749 33.083 23.6732 33.0663 24.2885C33.083 25.092 32.8497 25.8954 32.4163 26.562C31.9497 27.2458 31.2997 27.7757 30.5497 28.0834C29.733 28.4424 28.733 28.6304 27.533 28.6304C26.7663 28.6304 26.0163 28.562 25.2663 28.4082C24.683 28.3056 24.0996 28.1176 23.5663 27.8612C23.4496 27.7928 23.3663 27.6732 23.383 27.5364V24.562C23.383 24.5108 23.3996 24.4424 23.4496 24.4082C23.4996 24.374 23.5497 24.3911 23.5997 24.4253C24.2497 24.8185 24.933 25.092 25.6663 25.2629C26.2997 25.4338 26.9663 25.5193 27.633 25.5193C28.2663 25.5193 28.7163 25.4338 29.0163 25.28C29.283 25.1603 29.4663 24.8697 29.4663 24.562C29.4663 24.3227 29.333 24.1005 29.0663 23.8783C28.7997 23.6561 28.2497 23.3997 27.433 23.0749C26.583 22.7672 25.7996 22.3569 25.0663 21.8441C24.5496 21.468 24.1163 20.9723 23.7996 20.3911C23.533 19.8441 23.3996 19.2458 23.4163 18.6475C23.4163 17.9125 23.6163 17.2116 23.983 16.5791C24.3996 15.8954 25.0163 15.3484 25.733 15.0065C26.5163 14.5962 27.4997 14.4082 28.683 14.4082C29.3663 14.4082 30.0663 14.4595 30.7497 14.562C31.2497 14.6304 31.733 14.7672 32.183 14.9552C32.2497 14.9723 32.3163 15.0407 32.3497 15.1091C32.3663 15.1774 32.383 15.2458 32.383 15.3142V18.1005C32.383 18.1689 32.3497 18.2373 32.2997 18.2715C32.1497 18.3056 32.0663 18.3056 31.9997 18.2715Z" fill="#31A8FF"/>
    </symbol>

    <symbol id="ae" viewBox="0 0 40 40">
        <path d="M7.08333 0H32.9167C36.8333 0 40 3.24786 40 7.26496V32.735C40 36.7521 36.8333 40 32.9167 40H7.08333C3.16667 40 0 36.7521 0 32.735V7.26496C0 3.24786 3.16667 0 7.08333 0Z" fill="#00005B"/>
        <path d="M16.0655 23.932H9.86553L8.59886 27.9662C8.56553 28.1201 8.43219 28.2226 8.28219 28.2055H5.14886C4.96552 28.2055 4.91552 28.103 4.96552 27.8979L10.3322 12.1201C10.3822 11.9491 10.4322 11.7953 10.4989 11.5902C10.5655 11.2312 10.5989 10.8551 10.5989 10.479C10.5822 10.3936 10.6489 10.3081 10.7322 10.291H10.7822H15.0489C15.1655 10.291 15.2489 10.3423 15.2655 10.4278L21.3489 27.8637C21.3989 28.0517 21.3489 28.1372 21.1822 28.1372H17.6989C17.5822 28.1543 17.4655 28.0688 17.4322 27.9491L16.0655 23.8466V23.932ZM10.8322 20.5303H15.0655C14.9655 20.1714 14.8322 19.744 14.6822 19.2996C14.5322 18.838 14.3822 18.3423 14.2322 17.8295C14.0655 17.2996 13.9155 16.7867 13.7489 16.2568C13.5822 15.7269 13.4322 15.2312 13.2989 14.7355C13.1655 14.2568 13.0489 13.8124 12.9322 13.4021H12.8989C12.7489 14.1372 12.5655 14.8722 12.3322 15.6073C12.0822 16.4278 11.8322 17.2825 11.5655 18.1372C11.3489 19.009 11.0822 19.8124 10.8322 20.5303Z" fill="#9999FF"/>
        <path d="M31.1652 22.3923H25.8819C25.9486 22.9222 26.1152 23.4521 26.3986 23.9136C26.6986 24.3752 27.1152 24.7342 27.6152 24.9393C28.2819 25.2299 29.0152 25.3837 29.7486 25.3666C30.3319 25.3495 30.9152 25.2983 31.4819 25.1786C31.9986 25.1102 32.4986 24.9735 32.9652 24.7854C33.0486 24.7171 33.0986 24.7513 33.0986 24.9222V27.5376C33.0986 27.606 33.0819 27.6743 33.0652 27.7427C33.0319 27.794 32.9986 27.8282 32.9486 27.8624C32.4152 28.1017 31.8652 28.2726 31.2819 28.3752C30.4986 28.529 29.7152 28.5974 28.9152 28.5803C27.6486 28.5803 26.5819 28.3752 25.7152 27.982C24.8986 27.623 24.1819 27.0589 23.6152 26.3581C23.0819 25.6914 22.6986 24.9393 22.4652 24.1188C22.2319 23.3154 22.1152 22.4777 22.1152 21.623C22.1152 20.7 22.2486 19.794 22.5319 18.9051C22.7986 18.0504 23.2152 17.2641 23.7819 16.5632C24.3319 15.8795 25.0152 15.3324 25.7986 14.9393C26.5819 14.5461 27.5152 14.4094 28.5819 14.4094C29.4652 14.3923 30.3486 14.5632 31.1652 14.9393C31.8486 15.247 32.4486 15.7085 32.9152 16.3068C33.3486 16.888 33.6986 17.5376 33.9152 18.2555C34.1319 18.9393 34.2319 19.6401 34.2319 20.341C34.2319 20.7512 34.2152 21.1102 34.1986 21.435C34.1652 21.7598 34.1486 21.9991 34.1319 22.153C34.1152 22.2726 34.0152 22.3752 33.8986 22.3752C33.7986 22.3752 33.6152 22.3923 33.3486 22.4094C33.0819 22.4436 32.7652 22.4606 32.3819 22.4606C31.9986 22.4606 31.5986 22.3923 31.1652 22.3923ZM25.8819 19.8965H29.3986C29.8319 19.8965 30.1486 19.8965 30.3486 19.8795C30.4819 19.8624 30.6152 19.8282 30.7319 19.7427V19.5718C30.7319 19.3495 30.6986 19.1444 30.6319 18.9393C30.3319 17.982 29.4486 17.3324 28.4652 17.3666C27.5486 17.3154 26.6819 17.8111 26.2486 18.6658C26.0486 19.0589 25.9319 19.4692 25.8819 19.8965Z" fill="#9999FF"/>
    </symbol>

</svg>
