<svg xmlns="http://www.w3.org/2000/svg">

    <symbol id="arrow-right" viewBox="0 0 24 24">
        <path d="M19.4 16.3l-.7-.7 3.4-3.5h-21.3v-1h21.4l-3.5-3.8.7-.7 4.3 4.6.1.3-.2.5-4.2 4.3z"/>
    </symbol>

    <symbol id="arrow-2-bottom" viewBox="0 0 24 24">
        <path d="M12 15l-6-6h12l-6 6z"/>
    </symbol>

    <symbol id="arrow-diagonal" viewBox="0 0 24 24">
        <path d="M6.25 17.75L17.75 6.25M17.75 6.25L9.25001 6.24999M17.75 6.25L17.75 14.75" stroke-width="2"/>
    </symbol>

    <symbol id="two-triangle-top" viewBox="0 0 24 24">
        <path d="M12 4L20 12L12 20L12 4Z"/>
        <path d="M4 4L12 12L4 20L4 4Z"/>
    </symbol>

    <symbol id="attach" viewBox="0 0 24 24">
        <path d="M7.754 16.509c1.515 1.534 3.989 1.541 5.513.017l2.379-2.379.707.707-2.379 2.379c-1.916 1.916-5.027 1.907-6.932-.021-1.926-1.949-1.873-5.101.118-6.985l5.268-4.983c1.437-1.359 3.695-1.328 5.094.071 1.45 1.45 1.423 3.808-.06 5.225l-5.211 4.979c-.978.934-2.523.917-3.48-.04-.995-.995-.968-2.616.059-3.577l4.761-4.457.683.73-4.761 4.457c-.614.575-.63 1.545-.035 2.14.572.572 1.497.583 2.082.024l5.211-4.979c1.077-1.029 1.096-2.742.043-3.795-1.016-1.016-2.656-1.039-3.699-.051l-5.268 4.983c-1.583 1.498-1.626 4.005-.094 5.555z"/>
    </symbol>

    <symbol id="close" viewBox="0 0 24 24">
        <path d="M18.364 7.05l-11.314 11.314-1.414-1.414 11.314-11.314 1.414 1.414zM7.05 5.636l11.314 11.314-1.414 1.414-5.657-5.657-5.657-5.657 1.414-1.414z"/>
    </symbol>

    <symbol id="triangle-play" viewBox="0 0 12 14">
        <path d="M12 7L3.01142e-07 13.9282L9.06825e-07 0.0717964L12 7Z"/>
    </symbol>

    <symbol id="pin" viewBox="0 0 14 18">
        <path d="M4.18483 7.125C4.18483 8.7212 5.45381 10 7.00062 10C8.54743 10 9.81641 8.7212 9.81641 7.125C9.81641 5.5288 8.54743 4.25 7.00062 4.25C5.45381 4.25 4.18483 5.5288 4.18483 7.125Z"/>
        <path d="M0.5 6.88696C0.5 7.70874 0.886628 8.78734 1.5341 9.99116C2.17313 11.1793 3.03111 12.4264 3.89809 13.5673C4.76366 14.7063 5.63041 15.7292 6.28138 16.4679C6.5702 16.7956 6.81611 17.0669 7 17.267C7.18389 17.0669 7.4298 16.7956 7.71862 16.4679C8.36959 15.7292 9.23634 14.7063 10.1019 13.5673C10.9689 12.4264 11.8269 11.1793 12.4659 9.99116C13.1134 8.78734 13.5 7.70874 13.5 6.88696C13.5 3.36718 10.5976 0.5 7 0.5C3.40244 0.5 0.5 3.36718 0.5 6.88696Z"/>
    </symbol>

</svg>
