<svg xmlns="http://www.w3.org/2000/svg">

    <symbol id="logo-inostudio" viewBox="0 0 175 14"><path fill-rule="evenodd" clip-rule="evenodd" d="M52.987 10.363c1.975 0 3.269-1.475 3.269-3.363 0-1.887-1.294-3.397-3.269-3.397s-3.269 1.51-3.269 3.397c0 1.853 1.294 3.363 3.269 3.363zm-50.807-.721c1.192 0 2.179.995 2.179 2.162 0 1.201-.988 2.162-2.179 2.162-1.192 0-2.179-.995-2.179-2.162 0-1.167.988-2.162 2.179-2.162zm10.148-9.402h4.121v13.52h-4.121v-13.52zm21.454 0h4.12v13.52h-3.95l-5.04-6.828v6.828h-4.12v-13.52h4.257l4.733 6.382v-6.382zm19.206-.24c4.223 0 7.458 2.848 7.458 7s-3.269 6.966-7.458 6.966c-4.223 0-7.458-2.814-7.458-6.966s3.235-7 7.458-7zm20.645 4.889c2.25.432 5.61 1.077 5.61 4.41 0 2.951-2.247 4.667-5.857 4.632-2.895 0-4.87-.824-6.334-2.127l2.145-3.02c1.022.961 2.554 1.75 4.393 1.75.749 0 1.498-.206 1.498-.721 0-.432-.833-.578-1.947-.773-2.25-.394-5.647-.989-5.647-4.546 0-2.265 1.907-4.461 5.653-4.461 2.248 0 4.223.618 5.789 1.887l-2.213 2.882c-1.192-.892-2.724-1.338-4.018-1.338-.817 0-1.056.275-1.056.618 0 .425.852.589 1.984.806zm11.909-4.649h11.408v3.569h-3.644v9.951h-4.12v-9.951h-3.644v-3.569zm28.332 0h4.2219999999999995v7.961c0 3.363-2.145 5.799-6.742 5.799-4.597 0-6.743-2.471-6.743-5.799v-7.961h4.189v7.824c0 1.304.851 2.333 2.554 2.333 1.668 0 2.52-1.029 2.52-2.333v-7.824zm18.627 0c4.291 0 7.492 2.402 7.492 6.725 0 4.324-3.201 6.76-7.458 6.76h-6.13v-13.485h6.096zm15.085 0h4.121v13.52h-4.121v-13.52zm19.206-.24c4.223 0 7.458 2.848 7.458 7s-3.269 6.966-7.458 6.966c-4.222 0-7.457-2.814-7.457-6.966s3.235-7 7.457-7zm.001 3.603c-1.975 0-3.269 1.51-3.269 3.397 0 1.887 1.294 3.363 3.269 3.363s3.269-1.51 3.269-3.363c0-1.887-1.294-3.397-3.269-3.397zm-34.257.206h-1.975v6.382h1.975c2.077 0 3.303-1.51 3.303-3.191-.034-1.853-1.124-3.191-3.303-3.191z"/></symbol>

    <symbol id="social-behance" viewBox="0 0 32 32"><path d="M13.1 15.2c.9-.4 1.5-.9 1.9-1.5.4-.6.6-1.4.6-2.3 0-.8-.1-1.5-.4-2.1-.3-.6-.7-1-1.2-1.4-.5-.3-1.1-.6-1.8-.8-.8 0-1.5-.1-2.5-.1h-8.7v18h9c.9 0 1.6-.1 2.4-.3.8-.2 1.5-.5 2.1-.9.6-.4 1.1-1 1.5-1.7.4-.7.6-1.5.6-2.4 0-1.1-.3-2.1-.9-2.9-.6-.8-1.5-1.4-2.6-1.6zm-8-5.2h3.8c.4 0 .7 0 1.1.1l.9.3c.3.1.5.3.6.6.1.3.2.6.2 1 0 .8-.2 1.3-.7 1.7-.5.3-1.1.5-1.8.5h-4.1v-4.2zm7.1 10.6c-.1.3-.4.6-.6.7-.3.2-.6.3-.9.4-.4.1-.7.1-1.1.1h-4.5v-5h4.4c.9 0 1.6.2 2.1.6.5.4.8 1 .8 2 0 .5-.1 1-.2 1.2zm18.6-4.6c-.2-.9-.6-1.7-1.2-2.5-.6-.7-1.2-1.3-2.1-1.7-.9-.4-1.8-.6-3-.6-1 0-1.9.2-2.8.6-.9.3-1.6.8-2.2 1.5-.6.6-1.1 1.3-1.4 2.2-.4.8-.5 1.7-.5 2.7 0 1 .1 1.9.5 2.8.4.8.8 1.6 1.4 2.1.6.6 1.3 1 2.1 1.4.9.3 1.8.5 2.8.5 1.5 0 2.8-.3 3.8-1 1.1-.7 1.8-1.8 2.4-3.4h-3.3c-.1.4-.4.8-1 1.2-.6.3-1.2.6-1.9.6-1.1 0-1.8-.3-2.3-.8-.6-.6-.9-1.5-.9-2.6h9.7c.2-1.1.1-2-.1-3zm-9.5.7c0-.3.1-.6.1-.8.1-.3.3-.6.5-.9.2-.3.6-.6.9-.7.4-.2.9-.3 1.5-.3.9 0 1.6.3 2.1.7.4.5.8 1.2.9 2.1l-6-.1zm6.8-7.1h-7.5v-1.8h7.5v1.8z"/></symbol>

    <symbol id="social-facebook" viewBox="0 0 32 32"><path d="M16 1.3c8.1 0 14.7 6.6 14.7 14.7 0 7.3-5.4 13.4-12.4 14.5v-10.3h3.4l.7-4.2h-4.1v-2.8c0-.7.2-1.4.8-1.9.3-.2.6-.3 1.1-.4h2.4v-3.6s-1.7-.3-3.3-.3c-.4 0-.8 0-1.2.1-.9.1-1.7.5-2.3 1-1.3 1-2 2.5-2 4.6v3.3h-3.8v4.2h3.7v10.2c-7-1-12.4-7.1-12.4-14.4 0-8.1 6.6-14.7 14.7-14.7z"/></symbol>

    <symbol id="social-telegram" viewBox="0 0 32 32"><path d="M32 16c0 8.8-7.2 16-16 16s-16-7.2-16-16 7.2-16 16-16 16 7.2 16 16zm-21.3-1.5c-1.6.7-3.2 1.5-4.7 2.3-.8.6.3 1 1.3 1.4l.4.2c.1 0 .2.1.4.1 1.1.3 2.3.7 3.4.2 1.7-1 3.4-2.2 5-3.3.5-.4 1.1-.8 1.6-1.1 0 0 .1 0 .1-.1.3-.2 1-.6 1.1-.5.1.1.2.2 0 .4-.9 1-1.9 1.9-2.9 2.8l-2 1.8c-.6.5-1.2 1.5-.5 2l5.8 3.9c.8.7 2.1.1 2.3-.9.5-3 1.9-11.8 2-13.1 0-.1 0-.3-.1-.4-.3-.7-1.3-.5-1.9-.3-3.4 1.3-6.8 2.7-10.1 4.1-.4.2-.8.4-1.2.5z" fill="#0088CC"/></symbol>

    <symbol id="social-vk" viewBox="0 0 32 32"><path d="M29.8 25h-3.3c-1.3 0-1.6-1-3.8-3.3-1.9-1.9-2.8-2.1-3.3-2.1-.7 0-.9.2-.9 1.1v3c0 .8-.3 1.3-2.3 1.3-3.5 0-7.3-2.1-10-6.1-4.1-5.7-5.2-10.1-5.2-11 0-.4.2-.9 1.1-.9h3.3c.8 0 1.2.4 1.5 1.3 1.6 4.7 4.3 8.8 5.4 8.8.4 0 .6-.2.6-1.3v-4.8c-.1-2.2-1.3-2.4-1.3-3.2 0-.4.3-.8.8-.8h5.2c.7 0 .9.4.9 1.2v6.6c0 .7.3.9.5.9.4 0 .8-.2 1.5-1 2.4-2.7 4-6.8 4-6.8.3-.5.7-.9 1.5-.9h3.3c1 0 1.2.5 1 1.2-.4 1.9-4.4 7.6-4.4 7.6-.3.6-.5.8 0 1.5.3.5 1.5 1.5 2.3 2.4 1.4 1.6 2.5 3 2.8 3.9.2.9-.3 1.4-1.2 1.4z"/></symbol>

    <symbol id="social-whats-app" viewBox="0 0 32 32"><path d="M27.3 4.7c-3-3-7-4.7-11.3-4.7-8.7 0-15.9 7.1-15.9 15.9 0 2.8.7 5.5 2.1 7.9l-2.2 8.2 8.4-2.2c2.3 1.3 4.9 1.9 7.6 1.9 8.8 0 15.9-7.1 15.9-15.9.1-4.2-1.6-8.1-4.6-11.1zm-11.2 24.3c-2.4 0-4.7-.6-6.7-1.8l-.5-.3-5 1.3 1.3-4.9-.3-.5c-1.3-2.1-2-4.5-2-7 0-7.3 5.9-13.2 13.2-13.2 3.5 0 6.9 1.4 9.4 3.9s3.9 5.8 3.9 9.3c-.1 7.3-6 13.2-13.3 13.2zm7.2-9.8c-.4-.2-2.3-1.2-2.7-1.3-.4-.1-.6-.2-.9.2-.3.4-1 1.3-1.3 1.6-.2.3-.5.3-.9.1-.4-.2-1.7-.6-3.2-2-1.2-1-2-2.3-2.2-2.7-.2-.4 0-.6.2-.8l.6-.7s.3-.4.4-.7c.1-.3.1-.5 0-.7-.1-.2-.9-2.2-1.2-2.9-.3-.8-.6-.7-.9-.7h-.8s-.7 0-1 .4c-.4.4-1.4 1.4-1.4 3.3s1.4 3.8 1.6 4.1c.2.3 2.8 4.3 6.8 6 .9.4 1.7.7 2.3.8 1 .3 1.8.3 2.5.2.8-.1 2.4-1 2.7-1.9.3-.9.3-1.7.2-1.9-.1-.1-.4-.2-.8-.4z" fill="#14CCA0"/></symbol>

    <symbol id="social-instagram" viewBox="0 0 32 32"><path d="M23.3 29.3h-14.6c-3.3 0-6-2.7-6-6v-14.6c0-3.3 2.7-6 6-6h14.7c3.3 0 6 2.7 6 6v14.7c-.1 3.2-2.8 5.9-6.1 5.9zm-14.6-24.6c-2.2 0-4 1.8-4 4v14.7c0 2.2 1.8 4 4 4h14.7c2.2 0 4-1.8 4-4v-14.7c0-2.2-1.8-4-4-4h-14.7zm7.3 18c-3.7 0-6.7-3-6.7-6.7s3-6.7 6.7-6.7 6.7 3 6.7 6.7-3 6.7-6.7 6.7zm0-11.4c-2.6 0-4.7 2.1-4.7 4.7s2.1 4.7 4.7 4.7 4.7-2.1 4.7-4.7-2.1-4.7-4.7-4.7zm6.7-1.1c-.7 0-1.3-.6-1.3-1.3s.6-1.3 1.3-1.3 1.3.5 1.3 1.3-.6 1.3-1.3 1.3zm0-1.7c-.2 0-.3.1-.3.3s.1.3.3.3.3 0 .3-.2-.1-.4-.3-.4z"/></symbol>

    <symbol id="close" viewBox="0 0 24 24"><path d="M16.9 19.1l-4.9-5-4.9 4.9-2.1-2.1 4.9-4.9-5-4.9 2.1-2.1 5 4.9 4.9-4.9 2.1 2.1-4.9 4.9 4.9 4.9-2.1 2.2z"/></symbol>

    <symbol id="close-2" viewBox="0 0 24 24">
        <path d="M5 5L19 19M19 5L5 19" stroke="#444449"/>
    </symbol>

    <symbol id="at" viewBox="0 0 32 32"><path d="M18.9 20.7c-.3.4-.6.8-.9 1.1-1.2 1.4-2.8 2.3-4.7 2.4-3.1.2-5.3-1.6-5.8-4.6-1-6.7 4.5-12.4 11.5-12 1.4.1 2.8.4 4.2.7.7.1 1 .5.8 1.2-.5 2.6-.9 5.2-1.3 7.9-.1.8-.1 1.6-.1 2.3.1 1.2.9 1.7 2.1 1.4 1.3-.3 2.1-1.2 2.7-2.3 1.1-2 1.3-4.1 1.2-6.3-.5-6.3-5.3-9.9-11.9-9.5-7.2.3-12.3 5.3-13 12.1-.2 2.1-.2 4.1.4 6.1 1.3 4.7 5.3 7.8 10.4 7.9 2 0 4-.3 6.1-.5.6 0 1.3-.1 1.9 0 .6.1.7.5.4 1-.3.4-.7.8-1.1 1-1.1.5-2.2.9-3.3 1.1-3.7.6-7.3.4-10.6-1.3-4.7-2.4-7.4-6.2-7.7-11.3-.7-7.1 1.9-12.9 8.4-16.7 4.3-2.5 9-3 13.8-1.7 6.5 1.9 10.2 7.5 9.5 14.3-.2 2.1-.9 4.2-2.2 5.9-1.7 2.2-3.9 3.3-6.8 3.3-2.2 0-3.4-1-3.9-3 0-.1-.1-.3-.1-.5zm.4-9.3c-2.2-.5-3.9 0-5.3 1.5s-1.9 3.2-1.8 5.2c0 .9.3 1.7 1.2 2.2.9.5 1.8.3 2.7-.3 1-.7 1.8-1.7 2.1-2.8.4-1.9.7-3.8 1.1-5.8z"/></symbol>

    <symbol id="phone" viewBox="0 0 32 32"><path d="M0 7.7v-.2c0-.8.4-1.4.8-1.9.8-.9 1.7-1.7 2.7-2.3.6-.4 1.4-.4 2.1-.1.6.2 1.1.5 1.6.9.3.3.5.7.7 1.2.6 1.7.9 3.5 1.2 5.3.1.5-.1.9-.4 1.2l-1.8 1.8c-.6.6-.6.6-.3 1.3 1.2 2.6 2.9 5 5 6.9 1.2 1.1 2.5 2.2 3.9 3 .3.2.5.2.8-.1.6-.6 1.3-1.1 2-1.7.6-.5 1.2-.6 2-.4 1.6.5 3.2 1 4.7 1.7.6.3 1.1.6 1.3 1.3.3.8.7 1.5.5 2.4-.1.3-.2.6-.4.8-.8 1.1-1.8 2-3.1 2.7l-.9.4h-1.5000000000000002c-.1 0-.1 0-.2-.1-1.4-.1-2.7-.4-4.1-.8-2.9-.9-5.5-2.4-7.9-4.4-2.7-2.3-4.8-5-6.3-8.2-1.2-2.4-1.9-4.9-2.3-7.6 0-.3 0-.8-.1-1.3v-1.8zm16.7-7.7c.7.1 1.4.1 2 .3 5.2 1 9 3.8 11.5 8.5 1 1.9 1.5 3.9 1.7 6.1 0 .1 0 .2.1.2v.5c0 .4-.3.6-.6.6h-.7c-.4 0-.6-.3-.6-.6-.2-3.6-1.5-6.8-4.1-9.5-2.7-2.6-5.9-3.9-9.5-4.1-.4 0-.6-.3-.6-.6v-.6c.3-.3.4-.5.8-.8zm8.3 16.3h-.2c-.5 0-.8-.4-.9-.8-.6-4.6-3.3-7.2-8.2-7.5v-1c0-.5.4-.9.9-.9 4.7.2 9 4.1 9.3 9.3.1.4-.4.9-.9.9zm-6 .1c-.5 0-.9-.4-1-.8-.2-.8-.7-1.3-1.5-1.5-.5-.1-.8-.5-.8-.9v-.1c0-.6.5-1.1 1.1-.9 1.5.3 2.8 1.5 3.1 3.1.1.5-.3 1.1-.9 1.1z"/></symbol>

    <symbol id="phone-2" viewBox="0 0 24 24"><path d="M20 15.5c-1.25 0-2.45-.2-3.57-.57-.35-.11-.74-.03-1.02.24l-2.2 2.2c-2.83-1.44-5.15-3.75-6.59-6.58l2.2-2.21c.28-.27.36-.66.25-1.01-.37-1.12-.57-2.32-.57-3.57 0-.55-.45-1-1-1h-3.5c-.55 0-1 .45-1 1 0 9.39 7.61 17 17 17 .55 0 1-.45 1-1v-3.5c0-.55-.45-1-1-1z"/></symbol>

    <symbol id="attach" viewBox="0 0 24 24"><path d="M10.5 20.8c-1.6 0-3.2-.6-4.5-1.8-2.5-2.5-2.5-6.5 0-8.9l6.3-6.3c.9-.9 2-1.3 3.2-1.3s2.4.5 3.2 1.3c.9.8 1.3 2 1.3 3.2s-.5 2.4-1.3 3.2l-6.3 6.3c-1.1 1.1-2.8 1.1-3.9 0-.5-.5-.8-1.2-.8-2s.3-1.4.8-2l4.3-4.3 1.4 1.4-4.2 4.4c-.1.1-.2.3-.2.5s0 .4.2.5c.3.3.8.3 1.1 0l6.3-6.3c1-1 1-2.6 0-3.6s-2.6-1-3.6 0l-6.3 6.3c-1.7 1.7-1.7 4.4 0 6.1s4.4 1.7 6.1 0l4.3-4.3 1.4 1.4-4.3 4.4c-1.3 1.2-2.9 1.8-4.5 1.8z"/></symbol>

    <symbol id="arrow-1-right" viewBox="0 0 24 24"><path d="M17 18.7l-1.4-1.4 4.3-4.3h-19.6v-2h19.6l-4.3-4.3 1.4-1.4 6.7 6.7z"/></symbol>

    <symbol id="arrow-2-down" viewBox="0 0 24 24"><path d="M12 15l-6-6h12l-6 6z"/></symbol>

    <symbol id="arrow-3-right" viewBox="0 0 24 24"><path d="M15.086 12l-8.293-8.293 1.414-1.414 9.707 9.707-9.707 9.707-1.414-1.414 8.293-8.293z"/></symbol>

    <symbol id="pin" viewBox="0 0 24 24"><path d="M12 0c4.413 0 8 3.639 8 8.118 0 6.088-8 14.882-8 14.882s-8-8.794-8-14.882c0-4.478 3.587-8.118 8-8.118zm0 13c2.761 0 5-2.239 5-5s-2.239-5-5-5-5 2.239-5 5 2.239 5 5 5z"/></symbol>

    <symbol id="people" viewBox="0 0 24 24"><path d="M12 2c-5.52 0-10 4.48-10 10s4.48 10 10 10 10-4.48 10-10-4.48-10-10-10zm0 3c1.66 0 3 1.34 3 3s-1.34 3-3 3-3-1.34-3-3 1.34-3 3-3zm0 14.2c-2.5 0-4.71-1.28-6-3.22.03-1.99 4-3.08 6-3.08 1.99 0 5.97 1.09 6 3.08-1.29 1.94-3.5 3.22-6 3.22z"/></symbol>

    <symbol id="email" viewBox="0 0 24 24"><path d="M20 4h-16c-1.1 0-1.99.9-1.99 2l-.01 12c0 1.1.9 2 2 2h16c1.1 0 2-.9 2-2v-12c0-1.1-.9-2-2-2zm0 4l-8 5-8-5v-2l8 5 8-5v2z"/></symbol>

    <symbol id="mouse" viewBox="0 0 24 24"><path d="M3.5 9c0-4.694 3.806-8.5 8.5-8.5s8.5 3.806 8.5 8.5v6c0 4.694-3.806 8.5-8.5 8.5s-8.5-3.806-8.5-8.5v-6zm8.5-5.5c-3.038 0-5.5 2.462-5.5 5.5v6c0 3.038 2.462 5.5 5.5 5.5s5.5-2.462 5.5-5.5v-6c0-3.038-2.462-5.5-5.5-5.5zM10.5 17v-5h3v5h-3z"/></symbol>

    <symbol id="to-top" viewBox="0 0 24 24"><path d="M20 5.5h-16v-3h16v3zm-8 1.379l8.061 8.061-2.121 2.121-4.439-4.439v9.379h-3v-9.379l-4.439 4.439-2.121-2.121 8.061-8.061z"/></symbol>

    <symbol id="go-to" viewBox="0 0 24 24"><path d="M13 5H19M19 5V11M19 5L11 13" stroke="#283844" fill="none" stroke-width="2"/><path d="M9 5H5V19H19V15" stroke="#283844" fill="none" stroke-width="2"/></symbol>

    <symbol id="shield" viewBox="0 0 107 131">
        <path d="M0 15.302L53.5 0L107 15.302V40.429C107 78.1118 86.5028 112.812 53.5 131C20.4972 112.812 0 78.1118 0 40.429V15.302Z" fill="#5E30C4"/>
        <path d="M36 60.8667L48.0909 73L74 47" stroke="white" stroke-width="11" fill="none"/>
    </symbol>

    <symbol id="rhomb-grey" viewBox="0 0 30 30"><rect x="14.8492" width="21" height="21" transform="rotate(45 14.8492 0)" fill="#E8E8E8"/></symbol>

    <symbol id="list" viewBox="0 0 73 58"><rect width="73" height="14" fill="#67DEE0"/><rect y="22" width="44" height="14" fill="#67DEE0"/><rect y="44" width="62" height="14" fill="#67DEE0"/></symbol>

    <symbol id="cursor" viewBox="0 0 60 61"><path d="M0 0L60 24.7482L35.477 36.0683L24.3425 61L0 0Z" fill="#EF3124"/></symbol>

    <symbol id="arrow-diagonal" viewBox="0 0 128 130"><rect x="1.00012" y="0.996582" width="127" height="22" fill="#283844"/><rect x="128" y="1.99658" width="127" height="22" transform="rotate(90 128 1.99658)" fill="#283844"/><rect width="158.739" height="22.5636" transform="matrix(-0.705667 0.708543 -0.705667 -0.708543 127.94 16.9839)" fill="#283844"/></symbol>

    <symbol id="circle-grey" viewBox="0 0 19 20"><rect x="9.27405" y="0.996582" width="13.1152" height="13.1152" rx="6.55761" transform="rotate(45 9.27405 0.996582)" fill="#E8E8E8"/></symbol>

    <symbol id="circle-blue" viewBox="0 0 60 60"><rect x="30.332" y="0.660156" width="41.9571" height="41.9571" rx="20.9786" transform="rotate(45 30.332 0.660156)" fill="#67DEE0"/></symbol>

    <symbol id="square-red" viewBox="0 0 28 28"><rect x="28.0001" y="0.996582" width="27" height="28" transform="rotate(90 28.0001 0.996582)" fill="#EF3124"/></symbol>

    <symbol id="rhomb-purple" viewBox="0 0 30 31"><rect x="14.834" y="0.996582" width="20.9785" height="20.9785" transform="rotate(45 14.834 0.996582)" fill="#5E30C4"/></symbol>

    <symbol id="circle-red" viewBox="0 0 32 32"><rect x="31.8395" y="0.492188" width="31.3473" height="31.3473" rx="15.6737" transform="rotate(90 31.8395 0.492188)" fill="#EF3124"/></symbol>

    <symbol id="flash" viewBox="0 0 116 162"><path d="M-6.10352e-05 90L33.5789 0H91.5789L61.0526 56.3774H116L28.152 162L55.6257 90H-6.10352e-05Z" fill="#67DEE0"/></symbol>

</svg>
