<svg viewBox="0 0 540 540" xmlns="http://www.w3.org/2000/svg">
<path fill-rule="evenodd" clip-rule="evenodd" d="M270 -2.36041e-05C198.392 -2.98644e-05 129.716 28.4463 79.0812 79.0811C28.4464 129.716 2.98644e-05 198.391 2.36042e-05 270C1.73439e-05 341.608 28.4463 410.284 79.0812 460.919C129.716 511.554 198.392 540 270 540L270 404C270 478.006 329.994 538 404 538C478.006 538 538 478.006 538 404C538 329.994 478.006 270 404 270C329.994 270 270 329.994 270 404L270 270L270 -2.36041e-05ZM270 -2.36041e-05C270 35.4569 276.984 70.5666 290.553 103.325C304.121 136.082 324.009 165.847 349.081 190.919C374.153 215.991 403.918 235.879 436.676 249.448C469.433 263.016 504.543 270 540 270L540 0L270 -2.36041e-05Z" fill="black"/>
</svg>
