<svg width="391" height="391" viewBox="0 0 391 391" fill="none" xmlns="http://www.w3.org/2000/svg">
<g style="mix-blend-mode:multiply" opacity="0.58">
<path d="M197.61 390.998C304.14 390.998 390.5 384.257 390.5 375.942C390.5 367.626 304.14 360.885 197.61 360.885C91.0795 360.885 4.71973 367.626 4.71973 375.942C4.71973 384.257 91.0795 390.998 197.61 390.998Z" fill="#D8D8D8"/>
</g>
<path d="M366.402 70.6932C365.53 66.1538 359.171 55.3653 355.196 53.1251C351.22 50.8849 338.689 48.7979 336.375 46.6756C330.853 41.5938 327.738 31.3477 335.213 30.994C342.188 30.711 348 24.3794 348.244 21.7973C348.488 19.2151 350.732 12.8128 336.398 0.998535C340.421 10.4311 341.316 16.6448 338.723 22.6462C336.131 28.6477 318.601 30.4516 321.798 36.123C323.251 38.7051 322.077 51.0499 324.192 53.1251C330.307 59.1383 343.001 62.6755 342.955 65.1752C342.908 67.6748 339.77 78.982 335.352 79.1471C330.935 79.3122 327.715 76.223 327.215 73.6762C327.045 72.8607 327.036 72.0192 327.189 71.2002C327.342 70.3813 327.653 69.6012 328.105 68.905C328.557 68.2088 329.14 67.6104 329.822 67.1442C330.503 66.6781 331.268 66.3535 332.074 66.1892C328.459 60.9305 317.578 64.4088 316.66 67.2621C315.741 70.1154 316.474 81.8472 321.309 85.9975C326.145 90.1478 331.504 88.8155 337.805 89.4404C344.106 90.0653 347.105 94.3571 352.603 91.4094C358.102 88.4617 367.564 76.8951 366.402 70.6932Z" fill="#4B376B"/>
<g style="mix-blend-mode:multiply" opacity="0.48">
<g style="mix-blend-mode:multiply">
<path d="M366.401 70.693C365.53 66.1536 359.171 55.3651 355.195 53.1249C354.939 52.9834 354.66 52.8419 354.347 52.7004C354.566 53.7737 355.045 54.7747 355.742 55.6127C356.695 56.7918 357.904 57.8176 358.88 59.0202C360.054 60.5776 360.889 62.3692 361.332 64.2773C361.775 66.1854 361.815 68.1668 361.449 70.0917C360.678 73.9419 358.917 77.5171 356.346 80.4557C354.126 83.144 351.057 85.6082 347.604 85.3488C349.46 82.7278 350.711 79.7169 351.264 76.5391C351.818 73.3614 351.659 70.098 350.801 66.9907C349.732 70.3319 348.334 73.5552 346.628 76.6119C344.895 79.6711 342.3 82.1348 339.176 83.6863C333.666 86.1859 326.738 84.2759 322.704 79.7129C321.063 77.7593 319.84 75.4816 319.111 73.0239C318.383 70.5661 318.165 67.9818 318.472 65.4344C317.707 65.8164 317.089 66.4472 316.717 67.2265C315.799 70.0799 316.531 81.8116 321.367 85.9619C326.203 90.1122 331.562 88.7799 337.863 89.4048C344.163 90.0297 347.162 94.3215 352.661 91.3738C358.159 88.4262 367.564 76.8949 366.401 70.693Z" fill="#84529C"/>
</g>
<g style="mix-blend-mode:multiply">
<path d="M324.191 53.1602C326.935 55.8603 331.004 58.0652 334.654 59.8927C333.189 58.7136 331.748 57.4402 330.376 56.1315C328.431 54.5463 326.964 52.438 326.144 50.0475C325.389 47.0527 326.563 43.822 325.9 40.7918C325.61 39.4831 324.994 38.2804 324.633 36.9834C324.407 36.3536 324.319 35.6813 324.375 35.0133C324.431 34.3454 324.63 33.6979 324.959 33.1161C325.958 31.6423 327.946 31.3947 329.609 30.758C331.914 29.9647 333.878 28.3855 335.165 26.2893L335.328 25.9709C329.516 29.5081 319.263 31.6423 321.773 36.0991C323.25 38.7049 322.076 51.0497 324.191 53.1602Z" fill="#84529C"/>
</g>
</g>
<path d="M13.7756 161.387C14.5544 157.378 20.2389 147.875 23.7961 145.87C27.3533 143.866 35.5139 141.26 37.5831 139.374C42.512 134.881 45.3252 127.382 38.6642 127.111C32.4217 126.864 30.2595 120.473 30.027 118.198C29.7945 115.922 28.0159 107.256 40.6056 99.8159C37.0135 108.152 36.2114 113.646 38.4898 118.94C40.7683 124.234 56.4734 125.838 53.6021 130.849C52.3001 133.136 53.3579 144.043 51.4631 145.87C47.8013 149.407 41.4774 152.013 37.7342 153.994C35.8975 154.961 36.0603 159.147 36.0719 159.889C36.0719 162.106 37.5482 168.744 41.5007 168.886C45.4531 169.027 48.3244 166.292 48.7197 164.04C48.8684 163.317 48.874 162.571 48.7358 161.846C48.5977 161.121 48.3188 160.432 47.9152 159.817C47.5117 159.203 46.9916 158.676 46.3853 158.267C45.7789 157.858 45.0985 157.576 44.3836 157.437C47.6153 152.78 57.3336 155.857 58.159 158.38C58.9843 160.903 58.3101 171.267 53.9973 174.887C49.6845 178.507 44.8951 177.375 39.2687 177.929C33.6423 178.483 30.9686 182.268 26.0513 179.662C21.134 177.057 12.7177 166.869 13.7756 161.387Z" fill="#4B376B"/>
<g style="mix-blend-mode:multiply" opacity="0.48">
<g style="mix-blend-mode:multiply">
<path d="M13.7754 161.387C14.5543 157.378 20.2388 147.875 23.796 145.87C24.0169 145.741 24.2726 145.623 24.5516 145.493C24.3516 146.441 23.9243 147.323 23.3078 148.064C22.4475 149.136 21.3664 150.021 20.5062 151.082C19.453 152.448 18.7006 154.028 18.2995 155.714C17.8985 157.4 17.8581 159.153 18.1812 160.856C18.8704 164.267 20.4434 167.429 22.7381 170.018C24.726 172.376 27.4694 174.569 30.55 174.345C28.8945 172.032 27.7789 169.367 27.2876 166.552C26.7962 163.738 26.9419 160.847 27.7136 158.097C28.6715 161.048 29.9218 163.892 31.4451 166.587C32.9879 169.312 35.3053 171.502 38.0945 172.871C40.6134 173.867 43.3714 174.062 46.0022 173.43C48.6329 172.798 51.0119 171.37 52.8231 169.334C54.2835 167.613 55.3738 165.603 56.0243 163.43C56.6749 161.258 56.8713 158.972 56.6011 156.718C57.2794 157.058 57.8302 157.612 58.1705 158.298C58.9842 160.821 58.3216 171.185 54.0088 174.805C49.696 178.425 44.9066 177.293 39.2802 177.847C33.6538 178.401 30.9801 182.186 26.0628 179.58C21.1456 176.974 12.7176 166.87 13.7754 161.387Z" fill="#84529C"/>
</g>
<g style="mix-blend-mode:multiply">
<path d="M51.4748 145.87C48.6704 148.279 45.5382 150.264 42.175 151.766C43.477 150.705 44.7557 149.608 45.9879 148.453C47.719 147.055 49.028 145.192 49.766 143.076C50.4402 140.423 49.394 137.57 49.9868 134.893C50.2426 133.714 50.8006 132.677 51.1493 131.533C51.3512 130.977 51.4308 130.383 51.3826 129.792C51.3345 129.201 51.1596 128.629 50.8703 128.114C49.9752 126.817 48.1966 126.593 46.7087 126.086C44.6512 125.39 42.8937 123.994 41.7333 122.136L41.5938 121.853C46.7435 125.024 55.9387 126.864 53.6952 130.802C52.3118 133.136 53.3697 144.043 51.4748 145.87Z" fill="#84529C"/>
</g>
</g>
<path d="M10.9272 334.12C11.1834 332.784 11.0586 331.401 10.5674 330.135" stroke="#268E26" stroke-width="0.63" stroke-linecap="round" stroke-linejoin="round"/>
<path d="M10.1951 334.403C10.1951 334.403 9.79985 331.326 8.11426 330.996" stroke="white" stroke-width="0.63" stroke-linecap="round" stroke-linejoin="round"/>
<path d="M9.29983 334.486C9.29983 334.486 8.46284 331.892 6.76562 332.128" stroke="#0032D0" stroke-width="0.63" stroke-linecap="round" stroke-linejoin="round"/>
<path d="M12.1249 334.615C12.1249 334.615 11.8459 331.349 13.5198 330.394" stroke="#D30000" stroke-width="0.63" stroke-linecap="round" stroke-linejoin="round"/>
<path d="M12.8804 332.988L8.3584 334.085C8.53277 334.828 12.8339 352.384 28.1205 360.968C38.1643 366.592 50.4634 366.969 64.6805 362.088C107.123 347.526 159.318 359.447 159.829 359.576L160.876 354.978C158.702 354.459 106.913 342.621 63.2274 357.619C50.3122 362.052 39.2919 361.793 30.4455 356.853C16.9142 349.307 12.9269 333.153 12.8804 332.988Z" fill="#2B232D"/>
<path d="M8.35868 334.085C8.3432 333.889 8.28387 333.698 8.18517 333.529C8.08648 333.359 7.95102 333.215 7.78906 333.106C8.95154 333.354 8.95154 333.601 8.95154 333.601L9.41653 332.128L9.90478 333.307C9.90478 333.307 10.8813 331.632 11.8345 331.349C11.767 331.838 11.767 332.334 11.8345 332.823L13.4736 331.526C13.2427 331.688 13.0606 331.911 12.9477 332.171C12.8348 332.431 12.7955 332.718 12.8342 333C12.8342 334.179 12.3692 334.686 12.067 334.792C11.3182 334.943 10.5613 335.05 9.80015 335.111C9.71878 335.075 8.35868 334.085 8.35868 334.085Z" fill="#2B232D"/>
<g style="mix-blend-mode:multiply" opacity="0.5">
<path d="M65.9014 360.897C51.6842 365.778 39.3852 365.401 29.3414 359.718C17.0773 352.856 11.8461 340.204 10.2186 335.075C10.0443 334.533 9.90477 334.085 9.81178 333.731C9.71878 333.377 9.60253 332.941 9.57928 332.859C9.56735 332.67 9.50727 332.487 9.40491 332.328L8.99804 333.602C8.99804 333.602 8.99804 333.531 8.81204 333.436C8.49047 333.272 8.14516 333.161 7.78906 333.106C7.94927 333.217 8.08342 333.362 8.1819 333.531C8.28038 333.7 8.34075 333.889 8.35868 334.085C8.54468 334.828 12.8342 352.384 28.1208 360.968C38.1646 366.592 50.4636 366.969 64.6807 362.088C107.123 347.526 159.318 359.447 159.841 359.576L160.167 358.15C153.134 356.652 105.309 347.326 65.9014 360.897Z" fill="#140716"/>
</g>
<path d="M0.5 322.966C2.6239 323.662 4.41759 325.133 5.53353 327.093" stroke="white" stroke-width="0.63" stroke-linecap="round" stroke-linejoin="round"/>
<path d="M6.54492 320.113C6.54492 320.113 6.54492 324.688 7.78877 326.645" stroke="white" stroke-width="0.63" stroke-linecap="round" stroke-linejoin="round"/>
<path d="M13.0086 320.337C13.0086 320.337 10.1605 323.285 10.2187 326.492" stroke="white" stroke-width="0.63" stroke-linecap="round" stroke-linejoin="round"/>
<path d="M304.569 361.887V357.171C335.41 356.794 357.497 348.01 365.181 333.059C369.715 324.228 368.668 313.699 362.251 304.184C347.221 281.781 311.102 301.519 310.754 301.719L308.522 297.593C310.149 296.685 348.72 275.662 366.099 301.531C373.493 312.531 374.655 324.817 369.308 335.24C364.263 344.956 349.22 361.345 304.569 361.887Z" fill="#2B232D"/>
<g style="mix-blend-mode:multiply" opacity="0.5">
<g style="mix-blend-mode:multiply">
<path d="M366.716 339.355C359.811 348.976 343.373 361.416 304.57 361.887L304.512 357.171H305.895V360.142C342.385 359.718 359.102 348.67 366.716 339.355Z" fill="#140716"/>
</g>
<g style="mix-blend-mode:multiply">
<path d="M310.707 301.719L308.464 297.581C308.65 297.486 309.278 297.145 310.277 296.649L312.056 299.951C312.428 299.75 348.534 280.048 363.554 302.415C369.959 311.93 371.017 322.459 366.483 331.29C365.515 333.175 364.345 334.947 362.996 336.573C363.798 335.449 364.517 334.267 365.146 333.035C369.692 324.204 368.634 313.675 362.228 304.16C347.174 281.817 311.068 301.519 310.707 301.719Z" fill="#140716"/>
</g>
</g>
<path d="M256.931 246.834C254.281 258.825 238.703 262.704 193.39 262.009C148.053 262.704 132.499 258.825 129.861 246.834C127.233 231.4 133.65 214.292 143.741 195.45C146.669 189.909 149.111 184.117 151.041 178.142C152.494 173.697 153.633 169.428 154.528 165.585C155.075 163.227 155.493 161.022 155.854 159.029C156.086 157.638 156.295 156.364 156.47 155.209C156.47 154.949 156.551 154.702 156.574 154.442C156.667 153.865 156.737 153.263 156.807 152.804C156.876 152.344 156.923 151.813 156.969 151.389C157.214 149.302 157.283 148.111 157.283 148.111L162.515 147.934L164.839 147.84L170.152 147.651L188.542 147.014C188.542 146.79 188.542 146.661 188.542 146.661L193.378 146.849L198.214 146.661C198.214 146.661 198.214 146.79 198.214 147.014L225.044 147.993L228.311 148.111H229.531C229.531 148.111 229.531 148.37 229.531 148.818C229.531 149.042 229.531 149.337 229.601 149.679C229.659 150.328 229.741 151.176 229.857 152.214C229.857 152.627 229.95 153.075 230.008 153.558C230.171 154.997 230.38 156.683 230.647 158.581C230.74 159.206 230.833 159.866 230.938 160.538C231.147 161.937 231.391 163.435 231.67 165.031C232.321 168.815 233.158 173.084 234.216 177.658C234.216 177.8 234.298 177.965 234.332 178.118C234.534 178.967 234.743 179.828 234.96 180.7C236.123 185.417 237.529 190.333 239.203 195.38C245.202 213.313 259.454 232.025 256.931 246.834Z" fill="#4B376B"/>
<path d="M127.233 87.9667C125.234 82.8967 124.641 77.0957 123.746 68.1937C122.432 55.0471 121.793 44.129 121.2 37.4083C120.433 28.7657 125.106 30.4636 128.442 31.8431C134.417 34.3191 142.869 40.0966 147.17 43.2683C153.866 48.1732 164.374 62.0626 164.095 68.4885C157.446 76.9778 145.449 85.6675 127.233 87.9667Z" fill="#4B376B"/>
<g style="mix-blend-mode:multiply" opacity="0.5">
<path d="M164.13 68.4884L163.119 69.6674C160.898 62.593 152.447 51.9814 146.751 47.784C142.462 44.6358 133.964 38.8348 128.024 36.3588C125.582 35.3448 122.432 34.1539 121.211 36.9837C120.607 28.7302 125.187 30.4281 128.477 31.7958C134.452 34.2601 142.915 40.0493 147.204 43.2092C153.865 48.173 164.363 62.0625 164.13 68.4884Z" fill="#4B376B"/>
</g>
<path d="M132.988 86.9997C131.523 83.0852 132.034 77.9917 131.209 71.212C129.989 61.1782 129.268 52.8657 128.698 47.7368C127.966 41.1458 131.105 42.5607 133.348 43.7044C137.37 45.756 143.113 50.4015 146.042 52.9011C150.611 56.8038 159.806 68.3351 159.794 73.2164C155.633 79.4891 144.985 85.7381 132.988 86.9997Z" fill="#1F1F21"/>
<g style="mix-blend-mode:multiply" opacity="0.35">
<path d="M159.725 72.3911C156.799 67.8289 153.314 63.6611 149.355 59.9873C146.426 57.4759 140.672 52.8304 136.65 50.7906C134.406 49.6115 131.267 48.2202 132 54.8112C132.569 59.9402 133.29 68.2526 134.511 78.2864C134.894 81.4463 134.987 84.1818 135.127 86.705C134.418 86.8229 133.708 86.9172 132.988 86.988C131.523 83.0852 132.046 77.9917 131.209 71.2002C129.989 61.1664 129.279 52.8657 128.698 47.7368C127.966 41.1458 131.105 42.5607 133.348 43.7044C137.37 45.7442 143.113 50.4015 146.054 52.9011C150.378 56.6034 158.865 67.1325 159.725 72.3911Z" fill="#A62E3A"/>
</g>
<path d="M228.066 60.2348C230.647 70.8465 262.639 89.7115 267.126 85.7734C270.357 82.9555 270.764 66.0476 270.88 61.7441C271.241 48.5621 269.59 39.3418 270.741 34.3897C271.892 29.4376 268.114 24.6742 259.849 29.8503C251.583 35.0264 237.052 46.086 228.066 60.2348Z" fill="#3D243E"/>
<path d="M228.066 60.2348C230.647 70.8465 262.639 89.7115 267.126 85.7734C270.357 82.9555 270.764 66.0476 270.88 61.7441C271.241 48.5621 269.59 39.3418 270.741 34.3897C271.892 29.4376 268.114 24.6742 259.849 29.8503C251.583 35.0264 237.052 46.086 228.066 60.2348Z" fill="#3D243E"/>
<path d="M228.066 60.2348C230.647 70.8465 262.639 89.7115 267.126 85.7734C270.357 82.9555 270.764 66.0476 270.88 61.7441C271.241 48.5621 269.59 39.3418 270.741 34.3897C271.892 29.4376 268.114 24.6742 259.849 29.8503C251.583 35.0264 237.052 46.086 228.066 60.2348Z" fill="#4B376B"/>
<g style="mix-blend-mode:multiply" opacity="0.5">
<path d="M267.057 85.7381C266.376 86.207 265.541 86.3849 264.732 86.2334C266.778 80.6917 267.057 68.0875 267.184 64.456C267.533 51.274 265.882 42.0537 267.033 37.1134C268.184 32.1731 264.406 27.3979 256.141 32.5622C254.293 33.7413 252.119 35.1915 249.771 36.913C252.964 34.376 256.29 32.0145 259.733 29.8386C267.998 24.6625 271.776 29.4259 270.625 34.378C269.474 39.3301 271.125 48.5268 270.765 61.7323C270.707 66.0123 270.3 82.9202 267.057 85.7381Z" fill="#4B376B"/>
</g>
<path d="M231.427 65.9651C232.961 72.2732 254.037 86.0093 256.699 83.7455C258.629 82.0712 262.511 68.2054 263.407 58.5134C264.174 50.6844 262.628 45.1664 263.325 42.2187C264.023 39.2711 261.756 36.4295 256.839 39.5069C251.921 42.5842 236.809 57.5584 231.427 65.9651Z" fill="#1F1F21"/>
<g style="mix-blend-mode:multiply" opacity="0.35">
<path d="M263.407 58.5134C262.465 68.2171 258.629 82.0947 256.699 83.7454C256.518 83.889 256.3 83.9751 256.071 83.993C257.994 77.7599 259.333 71.3567 260.07 64.8685C260.826 57.0395 259.303 51.5215 259.977 48.562C260.651 45.6026 258.419 42.7728 253.491 45.862C249.48 48.3852 238.657 58.8317 231.892 67.1559C231.697 66.78 231.542 66.385 231.427 65.9769C236.809 57.5701 251.91 42.6077 256.839 39.5304C261.767 36.453 264.011 39.271 263.325 42.2304C262.639 45.1899 264.174 50.6961 263.407 58.5134Z" fill="#A62E3A"/>
</g>
<path d="M277.263 116.075C277.567 123.958 275.477 131.745 271.276 138.383C268.686 142.484 265.513 146.175 261.86 149.337C261.14 149.962 260.419 150.575 259.663 151.165C258.908 151.754 258.164 152.344 257.338 152.898C256.757 153.31 256.176 153.735 255.56 154.077C254.944 154.419 254.397 154.879 253.735 155.256C251.828 156.459 249.864 157.567 247.841 158.581L247.504 158.734L246.795 159.041L246.295 159.229L245.83 159.394C245.349 159.559 244.826 159.725 244.26 159.89L243.098 160.208L242.145 160.456L241.517 160.609L239.715 161.01L237.39 161.47C236.356 161.682 235.274 161.87 234.147 162.059L233.112 162.224L231.264 162.507H231.124H230.996L229.381 162.743L227.404 163.014H227.16H227.079L224.103 163.38L222.348 163.592L220.65 163.769L219.325 163.91L216.721 164.17L214.454 164.37L213.292 164.464L209.805 164.736L207.48 164.901L204.294 165.101L202.853 165.184L201.586 165.243L199.482 165.337L197.773 165.408H195.68H194.204H192.391C183.067 165.723 173.734 165.238 164.491 163.957L163.329 163.769L162.248 163.615L159.458 163.25H159.365L158.946 163.191L157.133 162.979L155.215 162.743L153.355 162.507L151.704 162.271H151.495C150.878 162.177 150.262 162.083 149.646 161.965C149.03 161.847 148.414 161.753 147.798 161.623L146.031 161.222H145.915C145.403 161.092 144.892 160.963 144.38 160.809L144.159 160.75C140.404 159.66 136.831 158.006 133.558 155.845C133.023 155.492 132.488 155.126 131.977 154.749C131.465 154.372 130.977 153.983 130.489 153.57C129.907 153.122 129.326 152.638 128.791 152.131L128.478 151.837C126.281 149.83 124.287 147.606 122.526 145.198C121.442 143.716 120.566 142.09 119.922 140.364C117.085 132.972 117.876 123.857 118.689 116.382C119.073 112.786 119.608 109.237 120.131 105.664C121.1 98.7567 123.298 92.085 126.618 85.9739C128.083 83.2963 129.813 80.776 131.779 78.4515C132.555 77.521 133.377 76.6316 134.243 75.7868C136.374 73.6596 138.733 71.781 141.276 70.1862C145.161 67.7638 149.241 65.6774 153.471 63.9489L155.191 63.2533C156.493 62.7345 157.83 62.2393 159.19 61.7677C160.039 61.4729 160.911 61.1781 161.794 60.9069C168.692 58.723 175.763 57.145 182.928 56.1907C189.402 55.3277 195.928 54.9337 202.458 55.0116C205.596 55.0116 208.747 55.1059 211.885 55.2474C217.907 55.4513 223.903 56.1254 229.822 57.2636C232.089 57.7273 234.332 58.3058 236.542 58.9968C237.146 59.1737 237.704 59.3742 238.343 59.5746C244.441 61.6226 250.101 64.8232 255.025 69.0071C256.319 70.1312 257.578 71.3378 258.803 72.6269C259.163 73.0042 259.512 73.3933 259.861 73.8059C259.861 73.8059 259.861 73.8059 259.919 73.8059C259.977 73.8059 260.163 74.0889 260.279 74.2422C260.396 74.3955 260.582 74.5841 260.721 74.761C261.093 75.1854 261.442 75.6217 261.802 76.0815C262.186 76.565 262.558 77.0484 262.965 77.5672L263.546 78.3807L263.732 78.6401C263.964 78.9702 264.174 79.3122 264.406 79.6541C264.639 79.996 264.848 80.3144 265.057 80.6563C265.266 80.9982 265.313 81.0454 265.429 81.2458L265.755 81.7528L266.103 82.366C266.382 82.8376 266.661 83.2974 266.929 83.7808L267.498 84.8184C268.568 86.7757 269.533 88.6858 270.416 90.5487C271.102 92.0107 271.73 93.4492 272.299 94.8523C272.59 95.5597 272.857 96.2554 273.125 96.951C273.392 97.6467 273.636 98.3305 273.869 99.0026C274.101 99.6747 274.322 100.37 274.531 101.031C274.741 101.691 275.02 102.681 275.24 103.495C275.461 104.308 275.671 105.11 275.845 105.853C276.205 107.433 276.484 108.989 276.705 110.499C276.705 110.829 276.798 111.147 276.833 111.489C276.833 111.807 276.914 112.149 276.938 112.479V112.751V113.033C276.938 113.175 276.938 113.305 276.938 113.434V113.847C277.131 114.72 277.24 115.462 277.263 116.075Z" fill="#4B376B"/>
<path d="M182.231 112.338L181.905 108.801C181.801 106.926 180.58 106.726 179.918 108.659L179.72 109.532C179.255 112.114 178.348 112.821 175.686 112.326L126.862 105.004C124.804 104.568 124.804 108.4 126.351 108.6L178.557 115.934C180.603 116.241 182.242 115.109 182.231 112.338Z" fill="#1D111E"/>
<path d="M180.173 116.158C177.988 153.204 123.095 147.604 127.245 108.73L180.173 116.158Z" fill="#FABD3C"/>
<g style="mix-blend-mode:multiply" opacity="0.9">
<path d="M179.987 118.316C175.895 152.426 124.804 147.014 127.094 110.487C129.175 141.107 172.268 145.811 179.987 118.316Z" fill="#FABD3C"/>
</g>
<path d="M172.744 114.861C171.164 141.532 131.628 137.499 134.615 109.508L172.744 114.861Z" fill="#1D111E"/>
<path d="M141.346 116.511C134.313 119.07 131.407 124.211 134.452 124.93C137.498 125.649 142.369 120.296 143.45 119.247C145.647 117.113 145.054 115.167 141.346 116.511Z" fill="white"/>
<path d="M143.136 124.105C138.335 125.85 136.336 129.363 138.428 129.858C140.52 130.354 143.834 126.687 144.578 125.968C146.077 124.506 145.67 123.185 143.136 124.105Z" fill="white"/>
<path d="M260.081 108.235L207.897 115.568C204.631 115.993 203.364 114.908 203.538 111.336C203.538 110.616 203.806 108.447 203.806 108.447C203.922 106.289 205.503 107.197 205.758 108.317C206.235 112.184 208.572 112.267 210.966 111.913L259.79 104.603C262.418 104.261 262.58 107.963 260.081 108.235Z" fill="#1D111E"/>
<path d="M205.619 115.887C207.805 152.921 262.697 147.321 258.547 108.458L205.619 115.887Z" fill="#FABD3C"/>
<g style="mix-blend-mode:multiply" opacity="0.9">
<path d="M206.235 120.721C215.384 146.354 257.094 141.013 258.721 110.664C260.511 145.8 212.594 151.707 206.235 120.721Z" fill="#FABD3C"/>
</g>
<path d="M213.048 114.578C214.629 141.249 254.165 137.216 251.177 109.225L213.048 114.578Z" fill="#1D111E"/>
<path d="M244.446 116.241C251.421 118.787 254.385 123.928 251.339 124.647C248.294 125.367 243.423 120.014 242.342 118.964C240.145 116.83 240.738 114.896 244.446 116.241Z" fill="white"/>
<path d="M242.655 123.822C247.456 125.567 249.456 129.08 247.305 129.576C245.155 130.071 241.9 126.404 241.156 125.685C239.691 124.234 240.121 122.902 242.655 123.822Z" fill="white"/>
<path d="M198.017 125.779C197.377 124.211 187.647 124.211 186.648 126.192C185.869 127.736 189.879 133.172 192.32 133.16C194.204 133.148 198.842 127.843 198.017 125.779Z" fill="#A62E3A"/>
<g style="mix-blend-mode:multiply" opacity="0.28">
<path d="M192.332 133.16C190.39 133.16 187.473 129.764 186.729 127.583C187.961 129.281 189.739 130.873 191.065 130.861C192.576 130.861 195.854 127.442 196.668 124.966C197.388 125.154 197.83 125.402 198.005 125.72C198.853 127.842 194.203 133.148 192.332 133.16Z" fill="#A62E3A"/>
</g>
<g style="mix-blend-mode:multiply" opacity="0.5">
<path d="M302.838 137.629C301.42 137.393 299.757 136.379 300.036 134.952C300.152 134.551 300.383 134.195 300.7 133.928C301.017 133.661 301.405 133.496 301.815 133.455C302.637 133.4 303.46 133.537 304.221 133.856C306.128 134.516 308.278 135.931 308.069 137.97C307.98 138.521 307.758 139.04 307.423 139.482C307.089 139.924 306.652 140.276 306.151 140.505C305.145 140.957 304.073 141.236 302.977 141.331C300.222 141.732 297.06 142.003 295.038 140.069C294.532 139.414 293.909 138.862 293.201 138.442C291.631 137.817 290.109 139.397 289.097 140.8C288.086 142.203 286.458 143.701 284.936 142.934C283.901 142.416 283.587 141.095 282.878 140.175C282.332 139.494 281.57 139.026 280.722 138.852C279.874 138.678 278.992 138.808 278.228 139.22C277.635 139.562 277.147 140.057 276.543 140.399C276.254 140.583 275.918 140.674 275.579 140.661C275.239 140.649 274.91 140.533 274.636 140.329C274.417 140.067 274.226 139.782 274.066 139.48C273.743 139.085 273.326 138.78 272.854 138.594C272.382 138.409 271.871 138.348 271.369 138.419H271.288C270.32 138.578 269.375 138.859 268.475 139.256C266.471 139.947 264.403 140.429 262.302 140.694C260.628 140.918 258.931 141.06 257.234 141.189C255.909 141.307 254.583 141.402 253.281 141.543C243.528 142.545 237.227 146.377 227.625 144.432M300.548 156.093C301.755 156.219 302.972 155.968 304.035 155.374C304.54 155.046 304.9 154.533 305.041 153.942C305.182 153.351 305.092 152.727 304.791 152.202C304.357 151.694 303.767 151.35 303.117 151.223C299.772 150.265 296.198 150.589 293.073 152.131C291.963 152.861 290.709 153.336 289.4 153.522C287.598 153.522 286.028 152.131 284.226 152.049C282.425 151.966 281.099 153.004 279.577 153.558C278.218 154.033 276.764 154.161 275.345 153.931C273.925 153.701 272.584 153.119 271.439 152.237C270.695 151.648 269.893 150.893 268.963 151.058C268.631 151.14 268.319 151.288 268.045 151.494C266.487 152.579 265.092 154.147 263.22 154.383C261.852 154.427 260.494 154.128 259.268 153.511C258.687 153.287 258.106 153.063 257.396 152.862C256.234 152.497 254.874 152.155 253.444 151.848C252.282 151.589 251.026 151.353 249.736 151.141C242.438 149.914 235.043 149.389 227.649 149.573M225.986 155.079H226.114C226.963 155.256 227.951 155.432 229.032 155.609L231.171 155.951L235.24 156.588L238.262 157.107C241.151 157.577 244.008 158.226 246.818 159.052V159.052C247.812 159.35 248.783 159.721 249.724 160.161C252.119 161.34 254.56 162.802 257.222 162.637C258.64 162.554 260.035 161.988 261.442 162.189C263.325 162.448 264.86 164.016 266.754 164.217C268.254 164.358 269.73 163.615 271.23 163.733C272.255 163.934 273.268 164.194 274.264 164.511C276.147 164.877 278.554 164.429 279.565 166.068C279.96 166.693 280.018 167.483 280.39 168.119C280.733 168.656 281.216 169.084 281.785 169.357C284.54 170.855 287.888 170.454 290.98 170.018C291.829 169.9 292.829 169.664 293.166 168.838C293.276 168.447 293.239 168.029 293.063 167.663C292.887 167.297 292.584 167.011 292.213 166.858C291.451 166.591 290.616 166.637 289.888 166.987" stroke="#1D111E" stroke-width="0.68" stroke-linecap="round" stroke-linejoin="round"/>
</g>
<g style="mix-blend-mode:screen" opacity="0.65">
<path d="M193.25 125.449C192.297 125.208 191.305 125.161 190.334 125.311C189.362 125.46 188.429 125.804 187.589 126.322C187.298 126.534 187.391 127.123 187.798 127.135C188.654 127.067 189.5 126.905 190.321 126.652C191.245 126.509 192.177 126.418 193.111 126.381C193.564 126.345 193.715 125.591 193.25 125.449Z" fill="#A62E3A"/>
</g>
<path style="mix-blend-mode:color-dodge" d="M151.401 159.43C162.219 159.43 170.989 153.327 170.989 145.8C170.989 138.272 162.219 132.17 151.401 132.17C140.583 132.17 131.813 138.272 131.813 145.8C131.813 153.327 140.583 159.43 151.401 159.43Z" fill="url(#paint0_radial_192_464)"/>
<path style="mix-blend-mode:color-dodge" d="M237.936 157.154C248.754 157.154 257.524 151.052 257.524 143.524C257.524 135.996 248.754 129.894 237.936 129.894C227.118 129.894 218.349 135.996 218.349 143.524C218.349 151.052 227.118 157.154 237.936 157.154Z" fill="url(#paint1_radial_192_464)"/>
<g style="mix-blend-mode:screen" opacity="0.43">
<path d="M177.382 109.755C172.814 109.755 168.164 108.282 163.7 107.315C159.411 106.383 155.086 105.24 150.715 104.697C150.111 104.615 150.029 105.57 150.576 105.747C155.168 107.173 159.992 107.975 164.677 108.989L171.407 110.451C173.372 110.875 175.557 111.63 177.545 110.982C177.688 110.941 177.811 110.849 177.893 110.723C177.974 110.597 178.008 110.446 177.988 110.297C177.968 110.148 177.896 110.011 177.785 109.911C177.674 109.812 177.531 109.757 177.382 109.755Z" fill="#3D243E"/>
</g>
<g style="mix-blend-mode:screen" opacity="0.43">
<path d="M259.151 102.446C250.746 102.693 242.295 104.462 233.995 105.664L221.208 107.527C218.883 107.858 207.63 110.534 207.735 106.348C207.735 105.641 206.572 105.44 206.468 106.183C205.875 110.298 211.187 110.121 213.815 109.909C218.72 109.532 223.614 108.6 228.485 107.893C238.668 106.419 248.875 104.568 259.14 103.837C260.023 103.778 260.046 102.422 259.151 102.446Z" fill="#3D243E"/>
</g>
<path d="M179.917 60.0815C183.602 54.7403 192.844 47.041 195.378 49.0454C196.052 49.6939 192.821 52.6769 192.379 54.8464C195.866 52.3468 203.713 46.5929 203.632 48.9511C203.713 50.1301 202.027 52.4883 201.225 54.1743C203.074 52.4293 211.688 47.3122 212.036 49.8236C212.354 52.35 212.172 54.9153 211.502 57.3696L192.611 59.7277L179.917 60.0815Z" fill="#4B376B"/>
<g style="mix-blend-mode:multiply" opacity="0.5">
<path d="M277.263 116.075C277.567 123.958 275.477 131.745 271.277 138.383C268.686 142.484 265.513 146.175 261.86 149.337C261.14 149.962 260.419 150.575 259.663 151.164C258.908 151.754 258.152 152.344 257.338 152.886C256.757 153.31 256.176 153.723 255.571 154.136C254.967 154.548 254.409 154.937 253.746 155.315C251.84 156.51 249.875 157.614 247.853 158.628L247.515 158.793L246.806 159.1L246.307 159.288L245.842 159.453C245.361 159.618 244.838 159.783 244.272 159.949L243.11 160.267L242.156 160.514L241.529 160.668L239.727 161.069L237.402 161.528C236.053 161.788 234.624 162.035 233.112 162.283L231.264 162.566H231.125H230.962L229.346 162.802L227.37 163.073H227.126H227.044L224.068 163.439L222.313 163.651L220.616 163.828L219.291 163.969L216.687 164.229L214.42 164.429L213.257 164.523L209.77 164.794L207.445 164.96L204.26 165.16L202.818 165.243L201.551 165.301L199.447 165.396L197.738 165.467H195.646H194.169H192.356C183.032 165.782 173.699 165.297 164.456 164.016L162.236 163.674L159.446 163.309H159.353L157.121 163.038L155.203 162.802L153.343 162.566L151.692 162.33H151.483C150.867 162.236 150.251 162.142 149.635 162.024C149.019 161.906 148.403 161.811 147.786 161.682L146.02 161.281H145.903C145.392 161.151 144.88 161.021 144.369 160.868L144.148 160.809C140.393 159.718 136.82 158.065 133.546 155.904C133.011 155.551 132.477 155.185 131.965 154.808C131.454 154.43 130.931 154.041 130.431 153.629C133.496 155.085 136.73 156.143 140.056 156.777C142.904 157.437 146.206 158.05 149.856 158.604C151.018 158.793 152.297 158.97 153.576 159.147C155.482 159.406 157.458 159.642 159.504 159.866H159.934C161.55 160.031 163.213 160.196 164.898 160.338C183.87 161.988 207.061 162 226.312 158.392L227.219 158.215C228.951 157.885 230.636 157.52 232.287 157.119C232.892 156.977 233.45 156.836 234.077 156.671L235.1 156.4C240.113 155.126 244.971 153.291 249.585 150.929C252.26 149.557 254.762 147.863 257.036 145.882C258.901 144.223 260.613 142.396 262.151 140.423C275.74 122.938 270.498 99.1558 265.859 85.9503C265.639 85.3371 265.418 84.7712 265.208 84.1817C264.19 81.4241 263.026 78.7241 261.721 76.0933C262.105 76.5767 262.477 77.0601 262.883 77.5789L263.465 78.3924L263.651 78.6518C263.883 78.982 264.092 79.3239 264.325 79.6658C264.557 80.0078 264.767 80.3261 264.976 80.668C265.185 81.01 265.232 81.0571 265.348 81.2576L265.673 81.7646L266.022 82.3777C266.301 82.8493 266.58 83.3092 266.847 83.7926L267.417 84.8302C268.487 86.7874 269.451 88.6975 270.335 90.5604C271.021 92.0225 271.649 93.4609 272.218 94.864C272.509 95.5715 272.776 96.2671 273.044 96.9627C273.311 97.6584 273.555 98.3423 273.787 99.0143C274.02 99.6864 274.241 100.382 274.439 101.042C274.636 101.703 274.938 102.693 275.159 103.507C275.38 104.32 275.589 105.122 275.764 105.865C276.124 107.445 276.403 109.001 276.624 110.51C276.624 110.84 276.717 111.159 276.752 111.501C276.752 111.819 276.833 112.161 276.856 112.491V112.762C276.862 112.856 276.862 112.951 276.856 113.045V113.446V113.859C277.104 114.723 277.24 115.462 277.263 116.075Z" fill="#4B376B"/>
</g>
<g style="mix-blend-mode:multiply" opacity="0.5">
<path d="M168.187 144.397C158.574 146.342 152.273 142.51 142.531 141.508C139.451 141.189 136.335 141.06 133.232 140.623C131.21 140.357 129.22 139.887 127.291 139.22C126.365 138.806 125.387 138.52 124.385 138.371C123.885 138.301 123.376 138.361 122.906 138.547C122.436 138.733 122.021 139.038 121.7 139.433C121.54 139.735 121.349 140.02 121.13 140.282C120.956 140.428 120.751 140.531 120.531 140.582C120.311 140.633 120.082 140.631 119.863 140.576C119.635 140.539 119.415 140.463 119.212 140.352C118.619 140.022 118.119 139.527 117.538 139.173C116.773 138.765 115.893 138.638 115.046 138.812C114.198 138.986 113.436 139.451 112.888 140.128C112.191 141.048 111.865 142.369 110.831 142.887C109.319 143.654 107.692 142.133 106.681 140.753C105.669 139.374 104.146 137.806 102.565 138.395C101.81 138.702 101.333 139.456 100.729 140.022C98.7176 141.956 95.544 141.685 92.8006 141.284C91.7046 141.191 90.6319 140.912 89.627 140.458C89.1264 140.227 88.6889 139.875 88.3527 139.433C88.0164 138.992 87.7914 138.473 87.6973 137.923C87.4997 135.884 89.6386 134.469 91.5567 133.808C92.3178 133.489 93.1412 133.352 93.9631 133.408C94.3712 133.45 94.7575 133.615 95.0724 133.882C95.3872 134.149 95.6163 134.505 95.73 134.905C96.0207 136.332 94.3583 137.346 92.9401 137.582M168.164 149.549C160.143 149.148 144.008 150.551 136.521 153.499L135.638 153.853C134.673 154.267 133.626 154.445 132.581 154.371C131 154.171 129.756 153.015 128.454 152.013C128.221 151.836 127.989 151.66 127.745 151.494C127.472 151.286 127.159 151.138 126.826 151.058C125.908 150.881 125.094 151.636 124.35 152.237C123.206 153.121 121.865 153.704 120.445 153.934C119.025 154.165 117.571 154.035 116.213 153.558C114.655 153.004 113.179 151.966 111.563 152.049C109.947 152.131 108.192 153.546 106.378 153.522C105.072 153.336 103.822 152.861 102.717 152.131C99.5916 150.59 96.0172 150.267 92.6727 151.223C92.021 151.346 91.4304 151.692 90.9987 152.202C90.7211 152.73 90.652 153.346 90.8052 153.924C90.9585 154.502 91.3227 154.999 91.8241 155.315C92.8886 155.905 94.1042 156.156 95.3115 156.034M105.948 167.023C105.22 166.673 104.385 166.626 103.623 166.893C103.25 167.044 102.946 167.33 102.769 167.697C102.593 168.063 102.558 168.483 102.67 168.874C102.996 169.688 103.995 169.923 104.855 170.053C107.948 170.489 111.296 170.89 114.039 169.393C114.614 169.124 115.102 168.694 115.446 168.155C115.818 167.518 115.876 166.728 116.259 166.103C117.282 164.464 119.689 164.924 121.56 164.547C122.561 164.231 123.577 163.971 124.606 163.769C126.106 163.651 127.582 164.393 129.082 164.252C130.976 164.052 132.511 162.483 134.394 162.224C135.801 162.024 137.196 162.59 138.614 162.672C140.659 162.637 142.661 162.068 144.426 161.021L146.065 160.196C146.819 159.834 147.596 159.523 148.39 159.265C148.89 159.099 149.402 158.934 149.948 158.781C153.419 157.88 156.935 157.164 160.48 156.635L162.805 156.258L164.223 156.034C166.351 155.716 168.269 155.397 169.78 155.091" stroke="#1D111E" stroke-width="0.68" stroke-linecap="round" stroke-linejoin="round"/>
</g>
<g style="mix-blend-mode:multiply" opacity="0.5">
<path d="M230.962 162.601C229.833 161.151 228.627 159.765 227.347 158.451C227.01 158.097 226.661 157.755 226.312 157.413C224.92 156.041 223.449 154.754 221.906 153.558C216.47 149.12 210.11 145.995 203.307 144.42C203.132 145.175 202.876 145.764 202.516 145.882C201.749 146.118 200.61 144.951 199.715 143.842C195.417 143.357 191.068 143.758 186.927 145.021C186.369 145.906 185.765 146.625 185.16 146.566C184.893 146.566 184.649 146.271 184.416 145.894C183.247 146.363 182.102 146.895 180.987 147.486C178.448 148.819 176.042 150.398 173.803 152.202C173.338 152.567 172.885 152.945 172.431 153.381C168.732 156.657 165.274 160.204 162.085 163.993C158.9 167.659 155.633 171.315 152.785 175.253C152.785 175.253 152.692 175.359 152.681 175.406C153.169 173.284 155.796 165.655 156.168 163.863C156.168 163.863 157.331 163.427 157.331 163.415C156.587 163.332 158.075 163.509 157.331 163.415C158.121 162.33 158.935 161.269 159.783 160.208L160.307 159.559C160.899 158.84 161.469 158.133 162.12 157.425L163.015 156.423C163.875 155.491 164.747 154.572 165.654 153.687C167.212 152.128 168.849 150.652 170.56 149.266L171.187 148.747C174.624 145.983 178.423 143.717 182.475 142.015C180.975 140.682 181.068 139.657 181.068 139.657L205.585 138.478C205.618 139.154 205.469 139.826 205.155 140.423C209.959 141.59 214.558 143.499 218.791 146.083C223.408 148.847 227.622 152.252 231.311 156.199C231.45 156.329 231.578 156.47 231.706 156.612C231.834 156.753 232.287 157.236 232.566 157.555C233.636 158.734 234.647 160.007 235.577 161.269C237.532 160.586 239.631 160.448 241.657 160.868L239.855 161.269L237.53 161.729C236.495 161.941 235.414 162.13 234.275 162.318L233.24 162.483L231.392 162.766H231.253L230.962 162.601Z" fill="#4B376B"/>
</g>
<path d="M329.656 378.819H58.9847C54.7671 378.819 50.7222 377.119 47.7398 374.095C44.7575 371.07 43.082 366.967 43.082 362.689H345.559C345.559 366.967 343.883 371.07 340.901 374.095C337.919 377.119 333.874 378.819 329.656 378.819Z" fill="#514E6E"/>
<path d="M336.771 203.822V345.758C336.771 351.864 334.383 357.721 330.131 362.045C325.88 366.368 320.111 368.805 314.091 368.82H74.62C68.5926 368.82 62.812 366.392 58.55 362.069C54.2879 357.746 51.8936 351.883 51.8936 345.77V203.822C51.8936 197.708 54.2879 191.845 58.55 187.522C62.812 183.2 68.5926 180.771 74.62 180.771H314.091C320.11 180.783 325.879 183.218 330.131 187.539C334.383 191.861 336.771 197.716 336.771 203.822Z" fill="#514E6E"/>
<path d="M311.754 186.902H76.8865C68.2 186.902 61.1582 194.044 61.1582 202.855V346.736C61.1582 355.547 68.2 362.689 76.8865 362.689H311.754C320.44 362.689 327.482 355.547 327.482 346.736V202.855C327.482 194.044 320.44 186.902 311.754 186.902Z" fill="#D3D3FE"/>
<g style="mix-blend-mode:multiply">
<path d="M327.482 198.056V346.748C327.481 349.231 326.911 351.68 325.815 353.901C324.719 356.121 323.129 358.053 321.17 359.541C323.191 356.784 324.28 353.438 324.273 350.003V201.31C324.275 199.845 323.991 198.394 323.439 197.04C322.887 195.686 322.077 194.456 321.056 193.42C320.034 192.384 318.821 191.562 317.486 191.002C316.152 190.442 314.721 190.155 313.276 190.156H73.6779C70.2892 190.154 66.9904 191.262 64.2734 193.316C65.7446 191.318 67.6571 189.696 69.8576 188.582C72.058 187.468 74.4852 186.893 76.9445 186.902H316.485C317.929 186.901 319.36 187.188 320.695 187.748C322.03 188.308 323.243 189.13 324.264 190.166C325.286 191.202 326.096 192.432 326.648 193.786C327.2 195.14 327.483 196.591 327.482 198.056Z" fill="#C4BFFF"/>
</g>
<g style="mix-blend-mode:multiply" opacity="0.78">
<g style="mix-blend-mode:multiply">
<path d="M339.735 362.689C315.633 363.373 291.535 363.833 267.44 364.069C255.397 364.234 243.342 364.257 231.299 364.364L195.157 364.446L159.004 364.352C146.961 364.257 134.906 364.222 122.863 364.057C98.7686 363.821 74.6704 363.365 50.5684 362.689H339.735Z" fill="#E17022"/>
</g>
</g>
<g style="mix-blend-mode:multiply" opacity="0.2">
<g style="mix-blend-mode:multiply">
<path d="M285.122 204.34H99.7295C97.263 204.34 94.8976 205.334 93.1535 207.103C91.4095 208.872 90.4297 211.271 90.4297 213.773V339.674C90.4297 342.175 91.4095 344.575 93.1535 346.343C94.8976 348.112 97.263 349.106 99.7295 349.106H285.122C287.588 349.106 289.953 348.112 291.697 346.343C293.442 344.575 294.421 342.175 294.421 339.674V213.749C294.415 211.252 293.433 208.859 291.689 207.095C289.946 205.331 287.584 204.34 285.122 204.34Z" fill="#0A2DE4"/>
</g>
<g style="mix-blend-mode:multiply">
<path d="M103.101 218.242C104.423 218.242 105.495 217.154 105.495 215.813C105.495 214.471 104.423 213.384 103.101 213.384C101.778 213.384 100.706 214.471 100.706 215.813C100.706 217.154 101.778 218.242 103.101 218.242Z" fill="black"/>
</g>
<g style="mix-blend-mode:multiply">
<path d="M114.411 218.242C115.734 218.242 116.806 217.154 116.806 215.813C116.806 214.471 115.734 213.384 114.411 213.384C113.089 213.384 112.017 214.471 112.017 215.813C112.017 217.154 113.089 218.242 114.411 218.242Z" fill="black"/>
</g>
<g style="mix-blend-mode:multiply">
<path d="M125.735 218.242C127.057 218.242 128.129 217.154 128.129 215.813C128.129 214.471 127.057 213.384 125.735 213.384C124.412 213.384 123.34 214.471 123.34 215.813C123.34 217.154 124.412 218.242 125.735 218.242Z" fill="black"/>
</g>
</g>
<path d="M298.176 209.976V335.853C298.176 338.355 297.196 340.754 295.452 342.523C293.708 344.292 291.342 345.286 288.876 345.286H103.519C101.052 345.286 98.6867 344.292 96.9426 342.523C95.1986 340.754 94.2188 338.355 94.2188 335.853V209.976C94.2188 207.475 95.1986 205.075 96.9426 203.306C98.6867 201.537 101.052 200.544 103.519 200.544H288.911C291.371 200.553 293.728 201.551 295.464 203.319C297.201 205.087 298.176 207.481 298.176 209.976Z" fill="white"/>
<path d="M171.358 290.322H163.146V280.721H152.124V290.322H138.582L160.625 259.469H148.379L124.606 292.007V299.995H151.764V310.768H163.146V299.995H171.358V290.322Z" fill="#5C51E5"/>
<path d="M196.46 311.647C208.922 311.647 218.071 302.047 218.071 285.118C218.071 268.19 208.922 258.589 196.46 258.589C184.069 258.589 174.849 268.19 174.849 285.118C174.849 302.047 184.069 311.647 196.46 311.647ZM196.46 301.607C190.697 301.607 186.663 296.771 186.663 285.118C186.663 273.466 190.697 268.629 196.46 268.629C202.295 268.629 206.329 273.466 206.329 285.118C206.329 296.771 202.295 301.607 196.46 301.607Z" fill="#5C51E5"/>
<path d="M269.916 290.322H261.704V280.721H250.682V290.322H237.14L259.183 259.469H246.937L223.164 292.007V299.995H250.322V310.768H261.704V299.995H269.916V290.322Z" fill="#5C51E5"/>
<path d="M298.176 209.976V223.512H94.2422V209.976C94.2422 207.475 95.222 205.075 96.966 203.306C98.7101 201.537 101.076 200.544 103.542 200.544H288.911C291.371 200.553 293.728 201.551 295.464 203.319C297.201 205.087 298.176 207.481 298.176 209.976Z" fill="#5C51E5"/>
<path d="M106.89 214.398C108.212 214.398 109.285 213.31 109.285 211.969C109.285 210.627 108.212 209.54 106.89 209.54C105.567 209.54 104.495 210.627 104.495 211.969C104.495 213.31 105.567 214.398 106.89 214.398Z" fill="white"/>
<path d="M118.201 214.398C119.524 214.398 120.596 213.31 120.596 211.969C120.596 210.627 119.524 209.54 118.201 209.54C116.879 209.54 115.807 210.627 115.807 211.969C115.807 213.31 116.879 214.398 118.201 214.398Z" fill="white"/>
<path d="M129.512 214.398C130.834 214.398 131.907 213.31 131.907 211.969C131.907 210.627 130.834 209.54 129.512 209.54C128.189 209.54 127.117 210.627 127.117 211.969C127.117 213.31 128.189 214.398 129.512 214.398Z" fill="white"/>
<g style="mix-blend-mode:multiply" opacity="0.5">
<path d="M146.694 180.771H151.704C150.541 183.011 149.379 185.216 148.426 187.35L147.391 189.567C146.078 192.42 144.787 195.25 143.532 198.08C140.3 205.343 137.301 212.606 134.836 219.999C134.116 222.18 133.418 224.373 132.79 226.59C132.739 226.894 132.708 227.201 132.697 227.509C132.692 227.584 132.692 227.659 132.697 227.733V228.264C132.697 228.335 132.697 228.405 132.697 228.476C132.697 228.547 132.697 228.747 132.697 228.865V229.018C132.716 229.127 132.743 229.233 132.779 229.337C132.774 229.368 132.774 229.4 132.779 229.431C132.85 229.649 132.965 229.849 133.116 230.021L133.023 229.95C132.591 229.651 132.176 229.328 131.779 228.983C131.779 228.983 131.779 228.983 131.698 228.983L132.558 231.341C132.196 231.151 131.894 230.861 131.688 230.504C131.482 230.147 131.381 229.738 131.395 229.325C131.322 229.573 131.263 229.825 131.221 230.08C131.131 229.62 130.945 229.186 130.675 228.806L130.919 231.707C130.047 231.035 130.152 229.596 130.338 228.641C130.247 228.661 130.165 228.711 130.105 228.783C130.105 228.783 129.408 229.301 129.152 229.278L128.338 231.341C128.357 230.481 128.593 229.641 129.024 228.901C128.954 228.476 128.745 227.839 128.419 227.721C127.885 228.606 126.978 229.738 125.827 229.785L127.699 227.922C126.757 228.346 126.397 228.075 126.397 228.075C127.396 227.686 128.338 225.823 128.338 225.823C131.988 212.759 137.498 200.332 143.311 187.716C144.369 185.452 145.438 183.141 146.694 180.771Z" fill="#4B376B"/>
</g>
<g style="mix-blend-mode:multiply" opacity="0.5">
<path d="M254.978 186.395L254.676 186.595C254.519 186.695 254.345 186.761 254.164 186.792C253.982 186.823 253.796 186.816 253.616 186.774C253.437 186.731 253.268 186.652 253.118 186.543C252.969 186.433 252.842 186.295 252.746 186.136L250.514 182.516L245.085 185.959L247.306 189.578C247.405 189.736 247.473 189.912 247.505 190.096C247.537 190.28 247.532 190.469 247.491 190.651C247.45 190.834 247.373 191.006 247.266 191.158C247.158 191.31 247.021 191.438 246.864 191.536L246.562 191.736C246.405 191.835 246.231 191.902 246.049 191.933C245.868 191.963 245.682 191.957 245.502 191.914C245.323 191.872 245.153 191.793 245.004 191.684C244.855 191.574 244.728 191.436 244.632 191.276L242.4 187.657L238.982 189.814C238.709 189.988 238.405 190.105 238.087 190.16C237.769 190.214 237.443 190.204 237.129 190.131C236.815 190.057 236.518 189.922 236.256 189.732C235.993 189.542 235.77 189.302 235.599 189.024L230.682 181.054L230.496 180.759H253.292L253.199 180.818L255.431 184.438C255.529 184.596 255.595 184.773 255.625 184.957C255.655 185.142 255.649 185.33 255.607 185.512C255.565 185.694 255.487 185.866 255.38 186.017C255.272 186.169 255.135 186.297 254.978 186.395Z" fill="#4B376B"/>
</g>
<path d="M129.803 224.196C128.977 225.268 128.469 226.556 128.338 227.91" stroke="#268E26" stroke-width="0.63" stroke-linecap="round" stroke-linejoin="round"/>
<path d="M130.581 224.278C130.581 224.278 129.558 227.202 130.918 228.275" stroke="white" stroke-width="0.63" stroke-linecap="round" stroke-linejoin="round"/>
<path d="M131.418 224.62C131.418 224.62 131 227.32 132.581 227.91" stroke="#0032D0" stroke-width="0.63" stroke-linecap="round" stroke-linejoin="round"/>
<path d="M128.966 223.194C128.966 223.194 127.745 226.236 125.827 226.318" stroke="#D30000" stroke-width="0.63" stroke-linecap="round" stroke-linejoin="round"/>
<path d="M235.472 157.708C224.335 142.687 203.109 130.189 182.788 138.254C178.566 139.96 174.607 142.276 171.036 145.128C157.481 155.881 149.111 171.657 143.322 184.202C137.533 196.747 132 209.245 128.35 222.31C128.35 222.31 127.408 224.161 126.408 224.562C126.408 224.562 126.85 224.892 128.071 224.22C128.733 223.83 129.07 225.293 129.07 225.682C129.07 226.071 130.117 225.293 130.117 225.293C130.117 225.293 130.675 224.503 131.279 226.59C131.442 225.623 131.616 225.234 131.895 225.517C132.337 225.898 132.799 226.257 133.278 226.59C133.278 226.59 132.383 225.988 132.802 223.111C136.371 210.519 141.73 198.41 147.403 186.1C152.982 174.015 161.015 158.829 173.826 148.665C177.053 146.062 180.636 143.949 184.462 142.392C202.62 135.176 221.824 146.649 231.973 160.35C233.135 161.965 234.298 163.698 235.46 165.502L239.227 163.144C237.983 161.269 236.739 159.43 235.472 157.708Z" fill="#2B232D"/>
<g style="mix-blend-mode:multiply" opacity="0.5">
<path d="M239.157 163.179L235.391 165.537C234.228 163.733 233.066 162 231.903 160.385C221.755 146.684 202.551 135.212 184.404 142.428C180.572 143.979 176.984 146.092 173.756 148.7C160.969 158.864 152.913 174.05 147.333 186.136C141.66 198.433 136.301 210.542 132.732 223.147C132.384 225.611 132.976 226.401 133.162 226.589C133.011 226.483 132.57 226.165 132.232 225.894C132.232 225.564 132.232 225.233 132.232 224.903C132.33 223.068 132.658 221.254 133.209 219.503C133.674 217.935 134.162 216.39 134.662 214.858C135.685 211.757 136.813 208.691 137.998 205.649C139.184 202.607 140.451 199.542 141.753 196.523C143.055 193.505 144.438 190.427 145.822 187.421C146.333 186.242 146.845 185.157 147.368 184.037C152.948 171.94 160.981 156.765 173.791 146.601C177.021 143.994 180.608 141.877 184.439 140.317C202.586 133.113 221.79 144.585 231.938 158.286C233.101 159.901 234.263 161.635 235.426 163.427L238.25 161.646L239.157 163.179Z" fill="#140716"/>
</g>
<path d="M203.655 137.275C203.655 137.275 203.655 142.121 202.492 142.475C201.097 142.899 198.389 138.596 198.389 138.596L203.655 137.275Z" fill="white"/>
<path d="M182.975 138.277C182.975 138.277 183.951 142.993 185.125 143.147C186.578 143.288 188.403 138.525 188.403 138.525L182.975 138.277Z" fill="white"/>
<path d="M180.103 135.495C180.103 135.495 184.16 144.538 192.774 137.523C197.423 142.84 205.758 139.35 205.433 134.87" fill="#4B376B"/>
<path d="M241.011 180.657L242.529 179.695C242.683 179.597 242.87 179.565 243.047 179.607C243.224 179.649 243.378 179.76 243.474 179.916L247.336 186.186C247.533 186.507 247.597 186.895 247.513 187.263C247.429 187.632 247.204 187.952 246.888 188.152L246.592 188.34C246.276 188.54 245.894 188.605 245.53 188.52C245.167 188.434 244.851 188.206 244.654 187.885L240.817 181.655C240.762 181.578 240.723 181.49 240.703 181.397C240.683 181.303 240.682 181.207 240.7 181.113C240.718 181.02 240.755 180.931 240.808 180.852C240.862 180.774 240.931 180.707 241.011 180.657Z" fill="white"/>
<g style="mix-blend-mode:multiply" opacity="0.5">
<path d="M235.041 180.771H230.461L227.915 176.632C226.333 174.06 225.774 170.974 226.35 167.999C226.926 165.024 228.595 162.383 231.019 160.609C231.229 162.008 231.473 163.505 231.752 165.101C232.403 168.886 233.24 173.154 234.297 177.729C234.297 177.87 234.379 178.035 234.414 178.189C234.607 179.037 234.817 179.898 235.041 180.771Z" fill="#4B376B"/>
</g>
<path d="M250.042 174.929L249.746 175.116C249.087 175.533 248.886 176.414 249.298 177.082L252.753 182.692C253.164 183.36 254.032 183.564 254.691 183.146L254.987 182.959C255.646 182.541 255.846 181.661 255.435 180.993L251.98 175.383C251.568 174.715 250.7 174.511 250.042 174.929Z" fill="white"/>
<path d="M255.152 176.173L238.633 186.643C238.174 186.932 237.62 187.026 237.092 186.902C236.565 186.778 236.108 186.447 235.82 185.982L229.229 175.288C228.404 173.955 227.846 172.47 227.589 170.918C227.331 169.366 227.378 167.778 227.727 166.244C228.075 164.71 228.719 163.262 229.622 161.981C230.524 160.7 231.666 159.613 232.984 158.781C234.298 157.944 235.762 157.379 237.292 157.118C238.823 156.856 240.389 156.904 241.901 157.257C243.413 157.611 244.841 158.264 246.104 159.179C247.366 160.095 248.438 161.253 249.258 162.59L255.838 173.284C255.985 173.518 256.084 173.779 256.129 174.053C256.174 174.326 256.164 174.606 256.1 174.876C256.036 175.146 255.919 175.399 255.756 175.622C255.594 175.845 255.388 176.032 255.152 176.173Z" fill="#FF7366"/>
<g style="mix-blend-mode:multiply" opacity="0.3">
<path d="M234.565 158.003C232.436 159.855 231.032 162.419 230.605 165.23C230.179 168.042 230.759 170.915 232.24 173.331L239.901 185.77L238.529 186.631C238.312 186.771 238.07 186.867 237.816 186.911C237.562 186.956 237.303 186.949 237.052 186.891C236.801 186.833 236.564 186.725 236.354 186.573C236.145 186.421 235.967 186.228 235.832 186.006L229.229 175.347C227.588 172.648 227.061 169.401 227.764 166.311C228.467 163.221 230.343 160.537 232.984 158.84C233.48 158.505 234.01 158.224 234.565 158.003Z" fill="#583929"/>
</g>
<defs>
<radialGradient id="paint0_radial_192_464" cx="0" cy="0" r="1" gradientUnits="userSpaceOnUse" gradientTransform="translate(151.388 145.048) rotate(-1.87638) scale(17.7281 12.4065)">
<stop offset="0.17" stop-color="#662346"/>
<stop offset="1" stop-color="#662346" stop-opacity="0"/>
</radialGradient>
<radialGradient id="paint1_radial_192_464" cx="0" cy="0" r="1" gradientUnits="userSpaceOnUse" gradientTransform="translate(237.921 142.788) rotate(-1.87638) scale(17.7281 12.4065)">
<stop offset="0.17" stop-color="#662346"/>
<stop offset="1" stop-color="#662346" stop-opacity="0"/>
</radialGradient>
</defs>
</svg>
