<svg width="390" height="374" viewBox="0 0 390 374" fill="none" xmlns="http://www.w3.org/2000/svg">
<path d="M271.195 142.567C274.166 74.8139 217.068 17.2808 143.665 14.0634C70.2616 10.846 8.34851 63.1627 5.37821 130.916C2.4079 198.669 59.5052 256.202 132.909 259.42C206.312 262.637 268.225 210.32 271.195 142.567Z" fill="#919CFA"/>
<path opacity="0.19" d="M131.119 226.129C188.773 226.129 235.511 182.139 235.511 127.875C235.511 73.6116 188.773 29.6221 131.119 29.6221C73.4645 29.6221 26.7266 73.6116 26.7266 127.875C26.7266 182.139 73.4645 226.129 131.119 226.129Z" fill="white"/>
<g opacity="0.68">
<g style="mix-blend-mode:soft-light">
<g style="mix-blend-mode:soft-light">
<path d="M172.384 137.328C172.384 137.328 172.392 139.359 172.341 143.169C172.29 146.98 172.166 152.564 171.789 159.666C171.413 166.769 170.786 175.385 169.561 185.218C168.337 195.051 166.58 206.112 163.573 217.951C162.056 223.858 160.228 229.971 157.765 236.098C156.523 239.221 155.078 242.261 153.439 245.196C151.743 248.161 149.781 251.087 147.197 253.564C145.903 254.792 144.439 255.899 142.758 256.667C141.058 257.467 139.173 257.793 137.302 257.611C135.42 257.428 133.628 256.686 132.063 255.663C130.498 254.639 129.119 253.348 127.888 251.954C125.425 249.142 123.475 245.909 121.778 242.555C120.086 239.156 118.603 235.658 117.338 232.08C114.76 224.882 112.778 217.362 111.134 209.688C109.489 202.014 108.209 194.165 107.194 186.229C105.17 170.35 104.21 154.095 104.117 137.838C104.103 129.711 104.38 121.587 104.82 113.504C105.26 105.421 105.94 97.3828 106.858 89.4358C107.776 81.4888 108.949 73.6379 110.461 65.9326C111.972 58.2274 113.818 50.6842 116.252 43.4488C117.443 39.8514 118.854 36.3299 120.476 32.904C122.113 29.526 123.986 26.2634 126.393 23.4335C127.598 22.0282 128.945 20.73 130.495 19.7121C132.045 18.6941 133.804 17.9729 135.65 17.8081C136.109 17.7694 136.569 17.7588 137.029 17.7765C137.491 17.7997 137.952 17.8506 138.408 17.929C139.305 18.0944 140.178 18.3665 141.01 18.7395C142.664 19.4799 144.134 20.5432 145.441 21.7328C148.061 24.13 150.091 26.9887 151.857 29.8997C153.571 32.7834 155.091 35.7774 156.407 38.8619C159.027 44.9063 160.993 50.9754 162.638 56.8495C165.898 68.6141 167.836 79.6534 169.203 89.4619C169.878 94.3689 170.399 98.9764 170.805 103.245C171.21 107.513 171.486 111.44 171.701 114.99C172.124 122.089 172.268 127.678 172.334 131.486C172.4 135.294 172.384 137.328 172.384 137.328ZM170.616 137.328C170.616 137.328 170.631 135.306 170.586 131.513C170.54 127.72 170.422 122.157 170.034 115.086C169.838 111.551 169.571 107.64 169.196 103.39C168.821 99.1398 168.368 94.5461 167.74 89.6528C167.111 84.7596 166.339 79.571 165.341 74.1297C164.342 68.6883 163.134 63.0024 161.574 57.1339C160.013 51.2653 158.127 45.2291 155.602 39.1998C154.335 36.1328 152.865 33.1526 151.204 30.2788C149.497 27.394 147.523 24.5517 145.008 22.1903C143.751 21.0185 142.345 19.9758 140.77 19.2491C139.195 18.5224 137.461 18.1419 135.706 18.337C133.95 18.532 132.298 19.212 130.831 20.2066C129.364 21.2012 128.064 22.4733 126.903 23.8594C124.588 26.648 122.778 29.8845 121.2 33.2419C119.637 36.6553 118.283 40.1602 117.147 43.7372C114.819 50.9507 113.08 58.4801 111.662 66.1552C110.243 73.8302 109.18 81.6714 108.352 89.5951C106.705 105.447 106.094 121.648 106.146 137.834C106.101 154.015 106.92 170.21 108.799 186.03C109.742 193.938 110.956 201.752 112.522 209.397C114.088 217.042 115.998 224.522 118.491 231.671C119.71 235.214 121.144 238.681 122.786 242.05C124.441 245.364 126.314 248.545 128.667 251.276C129.843 252.634 131.149 253.874 132.607 254.848C134.066 255.822 135.7 256.505 137.4 256.685C139.1 256.865 140.817 256.512 142.351 255.79C143.886 255.069 145.268 254.018 146.488 252.834C148.935 250.449 150.833 247.58 152.468 244.658C154.058 241.753 155.455 238.747 156.65 235.66C159.03 229.585 160.786 223.506 162.247 217.623C163.707 211.739 164.812 206.027 165.735 200.576C166.657 195.125 167.369 189.924 167.941 185.027C168.513 180.13 168.941 175.533 169.278 171.28C169.616 167.027 169.87 163.113 170.052 159.577C170.412 152.505 170.524 146.939 170.573 143.147C170.623 139.356 170.616 137.327 170.616 137.327V137.328Z" fill="white"/>
</g>
</g>
<g style="mix-blend-mode:soft-light">
<g style="mix-blend-mode:soft-light">
<path d="M227.233 137.347C227.233 137.347 227.219 137.997 227.193 139.257C227.179 139.886 227.163 140.669 227.143 141.592C227.124 142.515 227.116 143.595 227.025 144.827C226.934 146.059 226.869 147.428 226.779 148.937C226.69 150.447 226.484 152.079 226.322 153.851C226.159 155.623 225.883 157.515 225.61 159.537C225.367 161.562 224.947 163.69 224.554 165.947C224.449 166.51 224.359 167.083 224.241 167.659C224.122 168.234 223.989 168.815 223.86 169.405C223.602 170.581 223.338 171.789 223.069 173.026C222.752 174.251 222.43 175.505 222.104 176.787C221.936 177.428 221.768 178.076 221.598 178.73C221.404 179.377 221.207 180.031 221.006 180.693C219.469 185.998 217.398 191.617 214.801 197.452C212.051 203.651 208.806 209.62 205.097 215.301C200.986 221.604 196.241 227.472 190.934 232.815C185.163 238.629 178.634 243.643 171.522 247.724C170.621 248.288 169.653 248.742 168.706 249.235L167.276 249.973L166.558 250.341C166.318 250.462 166.067 250.562 165.822 250.675L162.847 251.988C162.598 252.095 162.351 252.213 162.097 252.312L161.329 252.596L159.791 253.167C157.753 253.991 155.607 254.54 153.482 255.202C152.401 255.469 151.309 255.712 150.219 255.969C149.667 256.088 149.128 256.244 148.574 256.334L146.905 256.609L145.232 256.884C144.68 256.979 144.113 257.076 143.545 257.116L140.14 257.45C139.571 257.523 138.998 257.523 138.424 257.543L136.701 257.598L134.972 257.652C134.365 257.652 133.815 257.623 133.232 257.609C132.08 257.565 130.929 257.561 129.768 257.483L126.264 257.144L125.386 257.057L124.516 256.92L122.773 256.634L121.025 256.347C120.442 256.244 119.869 256.09 119.29 255.962C114.644 255 110.081 253.439 105.64 251.524L103.977 250.791L103.15 250.423L102.339 250.011L99.0878 248.338C96.9838 247.102 94.8369 245.91 92.8211 244.491C91.798 243.805 90.7529 243.145 89.7877 242.384C88.8225 241.623 87.7953 240.918 86.8177 240.155L83.9497 237.773L83.2328 237.174L82.5434 236.54L81.1645 235.272L79.7857 234.002C79.3335 233.569 78.9046 233.113 78.462 232.668C77.592 231.768 76.6875 230.893 75.8423 229.966L73.3204 227.151C72.8916 226.687 72.4931 226.197 72.0988 225.704L70.9061 224.23L69.7106 222.754C69.3163 222.258 68.9537 221.737 68.5731 221.23C67.8258 220.205 67.0564 219.191 66.3229 218.153C64.9137 216.035 63.4522 213.94 62.1657 211.728C60.7965 209.566 59.608 207.292 58.3616 205.045C57.7659 203.906 57.2116 202.746 56.6339 201.595L55.7763 199.863L54.9889 198.098C54.4691 196.916 53.9273 195.743 53.424 194.554L51.99 190.946C51.4923 189.751 51.08 188.523 50.6484 187.299L50.0031 185.464C49.7894 184.851 49.566 184.241 49.3854 183.616C48.6243 181.134 47.8342 178.653 47.2151 176.122L46.7202 174.232L46.4733 173.287L46.2596 172.325L45.4185 168.503L45.209 167.542L45.0338 166.58L44.6878 164.657L44.3417 162.727C44.2217 162.084 44.1087 161.441 44.0287 160.793C43.6812 158.202 43.2786 155.615 43.0635 153.005C42.4872 147.8 42.3314 142.565 42.25 137.321L42.3327 133.399L42.3727 131.448C42.3879 130.799 42.4444 130.138 42.4775 129.484L42.7119 125.548C42.796 124.239 42.956 122.938 43.0745 121.637C43.2883 119.027 43.6923 116.442 44.0397 113.852C44.1197 113.203 44.2327 112.56 44.3527 111.917L44.7016 109.994L45.049 108.07L45.2241 107.109L45.4351 106.147L46.2803 102.327L46.4926 101.373L46.7408 100.427L47.2372 98.538C47.8577 96.0076 48.6491 93.528 49.413 91.047C49.5936 90.4234 49.8184 89.8107 50.0335 89.2021L50.6801 87.3668C51.1117 86.1442 51.524 84.9161 52.0245 83.7209L53.4654 80.119C53.97 78.9294 54.5119 77.7576 55.0331 76.5789L55.8218 74.8137L56.6808 73.0828C57.2599 71.9329 57.8142 70.7735 58.4112 69.6361C59.6521 67.39 60.8476 65.1206 62.2181 62.9597C63.5073 60.7494 64.9758 58.6572 66.3794 56.5417C67.1129 55.5031 67.8823 54.4921 68.6296 53.4673C69.0102 52.9604 69.3728 52.4411 69.7672 51.9452L70.9626 50.4712L72.1567 48.9985C72.551 48.5053 72.9495 48.0177 73.3783 47.5547L75.8933 44.7372C76.7413 43.8113 77.6458 42.9376 78.513 42.0378C78.9557 41.5941 79.3845 41.1394 79.8367 40.7067L81.2155 39.4387L82.5944 38.1721L83.2838 37.5402L84.0008 36.9413L86.8673 34.5647C87.8435 33.8023 88.8501 33.0811 89.8359 32.3393C90.8218 31.5975 91.8504 30.9175 92.8694 30.2361C94.8852 28.8266 97.032 27.6384 99.1347 26.4075L102.383 24.7453L103.193 24.3332L104.02 23.9678L105.674 23.2383C110.11 21.3371 114.663 19.7779 119.301 18.808C123.94 17.8382 128.593 17.1719 133.228 17.1444C133.811 17.1321 134.371 17.0991 134.97 17.1018L136.688 17.1568L138.399 17.2118C138.97 17.2337 139.538 17.2337 140.109 17.3065L143.518 17.6431C144.087 17.6843 144.644 17.7805 145.203 17.878L146.874 18.1528L148.539 18.4275C149.091 18.5223 149.634 18.6734 150.18 18.7943C151.271 19.0512 152.36 19.2943 153.438 19.5622C155.56 20.2216 157.7 20.7807 159.735 21.5953L161.274 22.1627L162.041 22.4457C162.294 22.5446 162.54 22.6613 162.789 22.7685L165.761 24.0763C166.006 24.1862 166.257 24.2878 166.497 24.4073L167.214 24.7741L168.644 25.5077C169.591 26.0036 170.558 26.4556 171.457 27.0188C178.568 31.0852 185.096 36.0896 190.864 41.8963C196.17 47.2314 200.917 53.0919 205.03 59.3867C208.742 65.0628 211.991 71.0265 214.745 77.2204C217.338 83.0478 219.415 88.665 220.95 93.9662C221.148 94.6265 221.345 95.2809 221.541 95.9293C221.712 96.5832 221.881 97.2302 222.049 97.8704C222.379 99.1525 222.704 100.406 223.022 101.63L223.815 105.25C223.944 105.839 224.072 106.421 224.198 106.996C224.317 107.57 224.408 108.144 224.511 108.708C224.907 110.963 225.329 113.09 225.573 115.116C225.849 117.137 226.145 119.026 226.29 120.799C226.435 122.573 226.655 124.206 226.75 125.71C226.845 127.215 226.924 128.583 226.997 129.807C227.07 131.031 227.098 132.115 227.12 133.05C227.142 133.986 227.157 134.773 227.171 135.406C227.198 136.674 227.212 137.329 227.212 137.329L227.233 137.347ZM225.207 137.328C225.207 137.328 225.196 136.682 225.176 135.43C225.165 134.804 225.152 134.027 225.136 133.104C225.119 132.181 225.118 131.109 225.032 129.9C224.947 128.691 224.894 127.34 224.808 125.852C224.721 124.364 224.532 122.75 224.379 121.001C224.226 119.252 223.965 117.38 223.699 115.383C223.469 113.38 223.062 111.278 222.683 109.048C222.584 108.499 222.497 107.925 222.382 107.356C222.268 106.787 222.138 106.213 222.013 105.631C221.764 104.466 221.509 103.272 221.247 102.051L220.304 98.3333C220.143 97.6987 219.979 97.0576 219.815 96.4101C219.625 95.769 219.432 95.1225 219.239 94.4704C217.629 88.8075 215.643 83.2577 213.293 77.8579C210.644 71.7041 207.504 65.772 203.902 60.1189C199.906 53.8509 195.279 48.0052 190.093 42.6725C184.462 36.8542 178.052 31.8377 171.044 27.7647C170.158 27.2029 169.204 26.7509 168.27 26.2536L166.86 25.5187L166.152 25.1505C165.915 25.031 165.668 24.9307 165.426 24.8195L162.494 23.5062C162.248 23.399 162.005 23.2809 161.755 23.182L160.998 22.8976L159.482 22.3261C157.474 21.5019 155.355 20.9524 153.256 20.2971C152.189 20.0224 151.112 19.7889 150.034 19.532C149.493 19.4125 148.958 19.2572 148.411 19.1666L146.763 18.8918L145.109 18.6171C144.557 18.5223 144.006 18.4234 143.445 18.3822L140.09 18.0456C139.538 17.9714 138.961 17.97 138.391 17.9481L136.679 17.8904L134.954 17.8258C134.402 17.8258 133.819 17.8601 133.251 17.8753C128.669 17.9165 124.054 18.5759 119.482 19.5691C114.897 20.5389 110.4 22.0995 106.032 24.0255L104.395 24.7604L103.576 25.1272L102.779 25.5393L99.5815 27.2098C97.5132 28.4461 95.4023 29.6371 93.4209 31.0493C92.4157 31.7362 91.3981 32.4025 90.4454 33.1663C89.4926 33.9301 88.4971 34.6389 87.5499 35.4041L84.7495 37.7916L84.049 38.3919L83.3789 39.0266L82.0359 40.2959L80.6916 41.568C80.2504 41.9994 79.8326 42.4568 79.4024 42.9005C78.5544 43.8017 77.6734 44.674 76.8488 45.5999L74.4042 48.416C73.9905 48.879 73.5989 49.3667 73.217 49.8598L72.0588 51.3297L70.8978 52.7996C70.5159 53.2955 70.1643 53.8134 69.7948 54.319C69.0695 55.3397 68.3249 56.3493 67.6148 57.3838C66.2512 59.4924 64.8365 61.575 63.5956 63.7744C62.2705 65.9229 61.1288 68.1827 59.9265 70.4136C59.3543 71.5428 58.8235 72.6954 58.2719 73.8369L57.4446 75.5555L56.689 77.3084C56.1913 78.4802 55.6715 79.6437 55.1903 80.8224C54.7352 82.0129 54.2798 83.2035 53.8238 84.3941C53.3468 85.5782 52.9566 86.7953 52.5471 88.007L51.9335 89.8244C51.7294 90.4302 51.5198 91.0347 51.3475 91.6515C50.6346 94.1118 49.8611 96.5571 49.2792 99.0586L48.8063 100.924L48.5691 101.858L48.3637 102.805L47.5626 106.577L47.3627 107.521L47.1972 108.471L46.8704 110.375L46.5437 112.278C46.4306 112.911 46.3258 113.547 46.25 114.188C45.9149 116.741 45.5233 119.292 45.322 121.865C45.209 123.148 45.0559 124.433 44.9773 125.712L44.7595 129.558C44.7291 130.202 44.6753 130.839 44.6629 131.481L44.6285 133.432L44.5595 137.31C44.5995 147.637 45.5688 157.967 47.5847 168.056L48.3885 171.828L48.5912 172.769L48.8284 173.703L49.3041 175.569C49.8928 178.069 50.6677 180.514 51.382 182.972C51.5529 183.588 51.7653 184.191 51.9707 184.797L52.5843 186.615C52.9979 187.825 53.3854 189.042 53.8638 190.225L55.2344 193.797C55.7156 194.977 56.2368 196.132 56.7345 197.308L57.4901 199.059L58.3174 200.775C58.869 201.915 59.4053 203.068 59.9789 204.197C61.1812 206.425 62.3229 208.682 63.6507 210.83C64.8917 213.027 66.3105 215.106 67.6727 217.213C68.3842 218.246 69.1288 219.253 69.854 220.274C70.2236 220.779 70.5738 221.297 70.9571 221.785L72.1167 223.255L73.2763 224.723C73.6582 225.215 74.0457 225.703 74.4634 226.165C75.2788 227.104 76.0937 228.041 76.9081 228.977C77.7354 229.901 78.6137 230.773 79.4617 231.673C79.8919 232.115 80.3097 232.573 80.7495 233.004L82.0952 234.274L83.4368 235.542L84.1069 236.175L84.8074 236.774L87.6064 239.157C88.5605 239.921 89.5436 240.646 90.5019 241.391C91.4602 242.135 92.4709 242.824 93.476 243.504C95.4574 244.91 97.567 246.096 99.6352 247.328L102.83 248.99L103.627 249.403L104.446 249.768L106.081 250.499C110.447 252.411 114.935 253.972 119.511 254.947C120.082 255.076 120.646 255.233 121.218 255.337L122.94 255.628L124.658 255.919L125.516 256.065L126.375 256.154L129.805 256.506C130.954 256.59 132.113 256.601 133.262 256.652C133.83 256.667 134.428 256.704 134.968 256.701L136.675 256.642L138.375 256.583C138.94 256.56 139.507 256.558 140.068 256.485L143.425 256.143C143.985 256.102 144.537 256.006 145.088 255.909L146.743 255.634L148.386 255.359C148.938 255.263 149.469 255.112 150.008 254.992C151.083 254.735 152.159 254.494 153.223 254.226C155.318 253.566 157.431 253.015 159.439 252.198L160.956 251.629L161.711 251.346C161.962 251.247 162.203 251.131 162.45 251.024L165.38 249.718C165.622 249.607 165.868 249.507 166.106 249.387L166.813 249.021L168.222 248.288C169.156 247.794 170.108 247.345 170.995 246.777C178.001 242.718 184.409 237.712 190.036 231.901C195.223 226.573 199.851 220.733 203.848 214.47C207.453 208.823 210.597 202.897 213.25 196.749C215.604 191.353 217.595 185.807 219.21 180.147L219.786 178.208C219.951 177.561 220.115 176.922 220.278 176.284C220.6 175.019 220.915 173.782 221.223 172.575C221.485 171.353 221.741 170.159 221.991 168.995C222.117 168.413 222.24 167.838 222.362 167.271C222.476 166.703 222.563 166.135 222.664 165.579C223.044 163.349 223.452 161.247 223.684 159.246C223.946 157.249 224.235 155.382 224.373 153.629C224.511 151.876 224.721 150.262 224.806 148.779C224.892 147.297 224.965 145.951 225.034 144.745C225.103 143.539 225.123 142.464 225.14 141.534C225.156 140.604 225.17 139.823 225.181 139.199C225.203 137.939 225.214 137.29 225.214 137.29L225.207 137.328Z" fill="white"/>
</g>
</g>
<g style="mix-blend-mode:soft-light">
<g style="mix-blend-mode:soft-light">
<path d="M27.0731 89.7146L36.6035 89.6171L61.7381 89.433L97.2635 89.2791L137.988 89.2186L178.713 89.2914L197.452 89.3643L214.239 89.4563C224.638 89.5017 233.302 89.6116 239.368 89.6541L248.898 89.7586C248.922 89.7586 248.945 89.768 248.962 89.7847C248.978 89.8015 248.988 89.8242 248.988 89.8479C248.988 89.8716 248.978 89.8943 248.962 89.911C248.945 89.9278 248.922 89.9372 248.898 89.9372L239.368 90.0416C233.301 90.0855 224.638 90.1941 214.239 90.2394L197.452 90.3315L178.713 90.4056L137.988 90.4771L97.2635 90.4166L61.7381 90.2642L36.6035 90.0842L27.0731 89.9866C27.0433 89.9792 27.0168 89.962 26.9979 89.9379C26.979 89.9137 26.9688 89.884 26.9688 89.8534C26.9688 89.8227 26.979 89.793 26.9979 89.7688C27.0168 89.7447 27.0433 89.7275 27.0731 89.7201V89.7146Z" fill="white"/>
</g>
</g>
<g style="mix-blend-mode:soft-light">
<g style="mix-blend-mode:soft-light">
<path d="M59.2398 43.4459L66.007 43.347L83.8476 43.1629L95.7662 43.0805C99.995 43.0558 104.453 43.0091 109.069 43.0091L137.983 42.9486L166.897 43.0214C171.51 43.0214 175.971 43.0585 180.2 43.0942L192.118 43.1863C199.501 43.2316 205.653 43.3415 209.959 43.3841L216.726 43.4885C216.75 43.4885 216.773 43.4979 216.79 43.5147C216.806 43.5314 216.816 43.5542 216.816 43.5778C216.816 43.6015 216.806 43.6242 216.79 43.641C216.773 43.6577 216.75 43.6671 216.726 43.6671L209.959 43.7716C205.653 43.8155 199.501 43.9241 192.118 43.9708L180.2 44.0614C175.971 44.0972 171.513 44.1315 166.897 44.1356L137.987 44.2016L109.073 44.1411C104.46 44.1411 99.9991 44.0944 95.7703 44.0697L83.8518 43.9886L66.0125 43.8086L59.2453 43.7111C59.2161 43.7032 59.1903 43.6859 59.1719 43.662C59.1535 43.638 59.1436 43.6087 59.1436 43.5785C59.1436 43.5484 59.1535 43.519 59.1719 43.4951C59.1903 43.4711 59.2161 43.4539 59.2453 43.4459H59.2398Z" fill="white"/>
</g>
</g>
<g style="mix-blend-mode:soft-light">
<g style="mix-blend-mode:soft-light">
<path d="M17.4367 135.985L27.7971 135.887L55.1075 135.703L93.7145 135.549L137.975 135.489L182.235 135.56L202.6 135.634L220.848 135.725L248.158 135.924L258.518 136.029C258.542 136.029 258.565 136.038 258.582 136.055C258.599 136.071 258.608 136.094 258.608 136.118C258.608 136.142 258.599 136.164 258.582 136.181C258.565 136.198 258.542 136.207 258.518 136.207L248.158 136.312L220.854 136.516L202.607 136.608L182.242 136.681L137.982 136.754L93.7214 136.694L55.1144 136.54L27.804 136.356L17.4435 136.257C17.407 136.257 17.3719 136.242 17.3461 136.216C17.3202 136.191 17.3057 136.156 17.3057 136.119C17.3063 136.084 17.3202 136.051 17.3445 136.026C17.3688 136.001 17.4018 135.986 17.4367 135.985Z" fill="white"/>
</g>
</g>
<g style="mix-blend-mode:soft-light">
<g style="mix-blend-mode:soft-light">
<path d="M27.0728 182.262L36.6032 182.164L61.7378 181.972L97.2632 181.819L137.988 181.759L178.713 181.83L197.451 181.904L214.238 181.995C224.637 182.042 233.302 182.15 239.367 182.194L248.898 182.299C248.921 182.299 248.944 182.308 248.961 182.325C248.978 182.342 248.987 182.364 248.987 182.388C248.987 182.411 248.978 182.434 248.961 182.451C248.944 182.467 248.921 182.477 248.898 182.477L239.367 182.582C233.301 182.624 224.637 182.733 214.238 182.779L197.451 182.871L178.713 182.944L137.988 183.016L97.2632 182.957L61.7378 182.803L36.6087 182.619L27.0783 182.52C27.0417 182.52 27.0067 182.505 26.9808 182.48C26.955 182.454 26.9404 182.419 26.9404 182.382C26.9444 182.35 26.9599 182.32 26.9842 182.298C27.0084 182.275 27.0399 182.263 27.0728 182.262Z" fill="white"/>
</g>
</g>
<g style="mix-blend-mode:soft-light">
<path d="M220.693 229.122H63.2067C63.0873 229.116 62.9749 229.064 62.8927 228.977C62.8105 228.891 62.7646 228.776 62.7646 228.657C62.7646 228.538 62.8105 228.423 62.8927 228.337C62.9749 228.25 63.0873 228.199 63.2067 228.192H220.693C220.757 228.189 220.82 228.198 220.88 228.22C220.939 228.242 220.994 228.275 221.04 228.319C221.086 228.363 221.123 228.415 221.148 228.473C221.173 228.531 221.186 228.594 221.186 228.657C221.186 228.72 221.173 228.783 221.148 228.841C221.123 228.899 221.086 228.952 221.04 228.995C220.994 229.039 220.939 229.073 220.88 229.094C220.82 229.116 220.757 229.126 220.693 229.122Z" fill="white"/>
</g>
</g>
<path d="M36.7119 146.903V318.993C36.7119 333.151 46.929 344.727 59.7383 345.094C116.66 346.715 315.746 350.645 369.932 349.764C379.246 349.613 386.79 341.385 387.058 331.102C388.104 291.127 389.801 194.988 383.52 150.356C382.198 140.957 375.013 133.928 366.404 133.624C318.71 131.94 107.666 126.59 53.5046 127.933C44.1714 128.161 36.7119 136.586 36.7119 146.903Z" fill="url(#paint0_linear_41_1800)"/>
<path d="M46.4912 146.065V309.562C46.4912 317.828 52.4987 324.563 59.983 324.687L362.142 328.808C369.563 328.93 375.645 322.338 375.673 314.144L376.179 152.107C376.198 146.248 371.971 141.446 366.665 141.304L57.3108 134.405C51.3778 134.245 46.4912 139.512 46.4912 146.065Z" fill="url(#paint1_linear_41_1800)"/>
<path opacity="0.12" d="M57.6289 151.641V299.729C57.6289 307.215 63.2724 313.315 70.3017 313.427L354.108 317.162C361.078 317.273 366.793 311.303 366.816 303.881L367.286 157.114C367.304 151.807 363.335 147.458 358.352 147.329L67.7922 141.078C62.219 140.934 57.6289 145.705 57.6289 151.641Z" fill="white"/>
<path d="M105.451 256.678C95.0525 256.566 86.2525 248.321 85.4171 237.909L83.517 214.255C83.0644 208.613 84.9261 203.086 88.6237 199.09C90.3515 197.205 92.4561 195.702 94.8022 194.676C97.1482 193.65 99.6837 193.125 102.246 193.134L287.608 192.795C293.412 192.795 298.482 195.105 301.922 199.301C305.441 203.593 306.769 209.43 305.567 215.315L300.493 240.135C298.383 250.447 288.304 258.525 277.545 258.525L105.451 256.678Z" fill="white"/>
<path d="M287.617 197.605L102.255 197.944C93.8474 197.96 87.6292 205.223 88.3223 213.872L90.2223 237.526C90.8585 245.456 97.683 251.791 105.504 251.875L277.365 253.718C285.855 253.809 294.074 247.459 295.769 239.174L300.843 214.366C302.699 205.285 296.802 197.595 287.617 197.605Z" fill="#E7DEFF"/>
<path d="M120.787 220.247L119.219 224.919L117.699 220.247H114.627L113.059 224.871L111.555 220.247H108.131L111.171 228.999H114.691L116.067 224.951L117.395 228.999H120.915L123.955 220.247H120.787ZM136.099 220.247L134.531 224.919L133.011 220.247H129.939L128.371 224.871L126.867 220.247H123.443L126.483 228.999H130.003L131.379 224.951L132.707 228.999H136.227L139.267 220.247H136.099ZM151.412 220.247L149.844 224.919L148.324 220.247H145.252L143.684 224.871L142.18 220.247H138.756L141.796 228.999H145.316L146.692 224.951L148.02 228.999H151.54L154.58 220.247H151.412ZM156.424 229.159C157.624 229.159 158.536 228.295 158.536 227.079C158.536 225.847 157.624 225.031 156.424 225.031C155.224 225.031 154.312 225.847 154.312 227.079C154.312 228.295 155.224 229.159 156.424 229.159ZM165.988 220.247V221.239C165.444 220.455 164.596 220.087 163.396 220.087C161.172 220.087 159.188 221.703 159.188 224.295C159.188 226.887 161.172 228.519 163.396 228.519C164.468 228.519 165.268 228.215 165.812 227.591V227.751C165.812 228.919 165.22 229.575 163.732 229.575C162.788 229.575 161.62 229.239 160.932 228.711L159.716 231.175C160.804 231.895 162.372 232.263 164.1 232.263C167.444 232.263 169.428 230.647 169.428 227.255V220.247H165.988ZM164.356 225.703C163.508 225.703 162.852 225.143 162.852 224.295C162.852 223.447 163.508 222.903 164.356 222.903C165.204 222.903 165.844 223.447 165.844 224.295C165.844 225.143 165.204 225.703 164.356 225.703ZM175.651 229.159C178.627 229.159 180.739 227.271 180.739 224.615C180.739 221.959 178.627 220.087 175.651 220.087C172.691 220.087 170.563 221.959 170.563 224.615C170.563 227.271 172.691 229.159 175.651 229.159ZM175.651 226.343C174.851 226.343 174.227 225.751 174.227 224.615C174.227 223.479 174.851 222.903 175.651 222.903C176.451 222.903 177.075 223.479 177.075 224.615C177.075 225.751 176.451 226.343 175.651 226.343ZM185.294 229.159C188.334 229.159 189.822 227.783 189.822 226.199C189.822 222.695 184.798 223.879 184.798 222.967C184.798 222.759 185.054 222.551 185.982 222.551C186.718 222.551 187.614 222.695 188.51 223.191L189.502 220.807C188.574 220.327 187.214 220.087 185.934 220.087C182.99 220.087 181.454 221.431 181.454 223.079C181.454 226.583 186.494 225.383 186.494 226.279C186.494 226.535 186.254 226.695 185.374 226.695C184.334 226.695 183.15 226.407 182.318 225.911L181.326 228.295C182.222 228.807 183.79 229.159 185.294 229.159ZM196.869 220.247V224.359C196.869 225.655 196.261 226.119 195.637 226.119C194.933 226.119 194.501 225.703 194.501 224.455V220.247H190.885V225.079C190.885 227.927 192.469 229.159 194.565 229.159C195.509 229.159 196.389 228.839 197.045 228.167V228.999H200.485V220.247H196.869ZM205.513 229.159C208.553 229.159 210.041 227.783 210.041 226.199C210.041 222.695 205.017 223.879 205.017 222.967C205.017 222.759 205.273 222.551 206.201 222.551C206.937 222.551 207.833 222.695 208.729 223.191L209.721 220.807C208.793 220.327 207.433 220.087 206.153 220.087C203.209 220.087 201.673 221.431 201.673 223.079C201.673 226.583 206.713 225.383 206.713 226.279C206.713 226.535 206.473 226.695 205.593 226.695C204.553 226.695 203.369 226.407 202.537 225.911L201.545 228.295C202.441 228.807 204.009 229.159 205.513 229.159ZM211.136 228.999H214.752V217.127H211.136V228.999ZM222.307 220.247V224.359C222.307 225.655 221.699 226.119 221.075 226.119C220.371 226.119 219.939 225.703 219.939 224.455V220.247H216.323V225.079C216.323 227.927 217.907 229.159 220.003 229.159C220.947 229.159 221.827 228.839 222.483 228.167V228.999H225.923V220.247H222.307ZM233.863 220.247V221.239C233.319 220.455 232.471 220.087 231.271 220.087C229.047 220.087 227.063 221.703 227.063 224.295C227.063 226.887 229.047 228.519 231.271 228.519C232.343 228.519 233.143 228.215 233.687 227.591V227.751C233.687 228.919 233.095 229.575 231.607 229.575C230.663 229.575 229.495 229.239 228.807 228.711L227.591 231.175C228.679 231.895 230.247 232.263 231.975 232.263C235.319 232.263 237.303 230.647 237.303 227.255V220.247H233.863ZM232.231 225.703C231.383 225.703 230.727 225.143 230.727 224.295C230.727 223.447 231.383 222.903 232.231 222.903C233.079 222.903 233.719 223.447 233.719 224.295C233.719 225.143 233.079 225.703 232.231 225.703ZM240.71 219.543C242.038 219.543 242.886 218.743 242.886 217.639C242.886 216.599 242.038 215.863 240.71 215.863C239.382 215.863 238.534 216.663 238.534 217.703C238.534 218.743 239.382 219.543 240.71 219.543ZM238.902 228.999H242.518V220.247H238.902V228.999ZM245.752 229.159C246.952 229.159 247.864 228.295 247.864 227.079C247.864 225.847 246.952 225.031 245.752 225.031C244.552 225.031 243.64 225.847 243.64 227.079C243.64 228.295 244.552 229.159 245.752 229.159ZM252.42 221.191V220.247H248.98V228.999H252.596V225.111C252.596 223.719 253.364 223.223 254.452 223.223C254.708 223.223 254.932 223.239 255.252 223.287V220.087C254.036 220.087 253.06 220.455 252.42 221.191ZM262.229 220.247V224.359C262.229 225.655 261.621 226.119 260.997 226.119C260.293 226.119 259.861 225.703 259.861 224.455V220.247H256.245V225.079C256.245 227.927 257.829 229.159 259.925 229.159C260.869 229.159 261.749 228.839 262.405 228.167V228.999H265.845V220.247H262.229ZM267.56 232.103H270.856V217.127H267.56V232.103Z" fill="#5C51E5"/>
<path d="M89.5105 326.384H85.8242V366.097H89.5105V326.384Z" fill="#7D97F4"/>
<path d="M103.808 366.862H71.5283V365.619C71.5283 365.315 71.6496 365.023 71.8655 364.808C72.0814 364.593 72.3743 364.472 72.6796 364.472H102.57C102.899 364.472 103.215 364.602 103.447 364.834C103.68 365.066 103.811 365.38 103.811 365.708L103.808 366.862Z" fill="#7D97F4"/>
<path d="M105.702 316.927H70.9897C68.6633 316.927 66.7773 318.806 66.7773 321.124V324.919C66.7773 327.237 68.6633 329.116 70.9897 329.116H105.702C108.028 329.116 109.914 327.237 109.914 324.919V321.124C109.914 318.806 108.028 316.927 105.702 316.927Z" fill="#7D97F4"/>
<path d="M54.993 354.037C54.993 354.037 43.0772 359.15 43.7597 364.501C43.7597 364.501 56.0767 362.147 58.2814 358.64C60.4862 355.133 59.2714 353.1 59.2714 353.1L54.993 354.037Z" fill="url(#paint2_linear_41_1800)"/>
<path d="M57.9124 348.192L58.5164 353.403C58.5665 353.786 58.4858 354.175 58.2872 354.507C58.0886 354.839 57.7837 355.094 57.4216 355.233C56.9355 355.394 56.4254 355.472 55.9131 355.463C55.4707 355.467 55.0391 355.326 54.6853 355.062C54.3314 354.797 54.0748 354.423 53.9552 353.999L52.7832 349.785L57.9124 348.192Z" fill="url(#paint3_linear_41_1800)"/>
<path d="M83.9373 308.232C83.9373 308.232 62.0209 307.223 51.1213 313.558C40.2217 319.894 51.6728 350.306 51.6728 350.306C51.6728 350.306 54.5215 350.916 58.6235 348.733C58.6235 348.733 52.769 326.47 62.9378 322.596C74.3697 318.243 86.1944 319.299 86.1944 319.299L84.0035 308.919L83.9373 308.232Z" fill="url(#paint4_linear_41_1800)"/>
<path d="M46.1583 362.153C48.6499 361.604 56.0404 358.558 57.1627 358.599C58.2851 358.64 59.8749 360.315 59.8749 360.315C59.8749 360.315 60.1506 361.231 59.3468 362.546C57.4426 364.026 53.3406 366.742 48.5713 367.04C45.0635 367.258 42.9526 365.868 41.7461 364.519C42.9851 363.361 44.506 362.546 46.1583 362.153Z" fill="url(#paint5_linear_41_1800)"/>
<path d="M48.5685 367.04C53.3378 366.741 57.4398 364.025 59.344 362.546C58.8007 363.435 57.768 364.505 55.8238 365.6C50.9979 368.313 43.0408 367.917 41.4606 367.306C40.1962 366.817 40.5865 365.64 41.7433 364.519C42.9498 365.868 45.0552 367.258 48.5685 367.04Z" fill="url(#paint6_linear_41_1800)"/>
<path d="M62.4888 357.588C62.3261 358.204 60.5805 360.05 59.5712 361.081C59.3355 361.321 59.0423 361.497 58.7194 361.593C58.3964 361.689 58.0542 361.702 57.725 361.63C57.2651 361.537 56.8201 361.381 56.4027 361.167C56.2548 361.085 56.1245 360.975 56.0194 360.843C55.9143 360.711 55.8364 360.559 55.7902 360.397C55.7439 360.235 55.7303 360.065 55.75 359.898C55.7696 359.73 55.8223 359.568 55.9049 359.421L58.4571 354.802L62.4888 357.588Z" fill="url(#paint7_linear_41_1800)"/>
<path d="M105.663 306.405C105.663 306.405 107.575 319.927 102.045 322.691C96.5143 325.455 84.3807 327.264 80.2029 334.277C76.025 341.29 68.5187 355.055 61.688 359.004C61.688 359.004 57.7887 357.74 56.6484 355.829C56.6484 355.829 64.7545 334.597 68.1368 329.436C71.0654 324.967 75.348 318.529 81.4328 315.743C83.1756 314.946 83.3121 313.105 83.0046 311.22L82.4531 307.786L105.663 306.405Z" fill="url(#paint8_linear_41_1800)"/>
<path d="M54.3961 291.077C62.1506 293.284 65.6225 271.539 65.5907 271.01L77.4803 284.86C77.4803 284.86 70.3959 297.28 59.6935 298.597C56.9869 298.931 54.6843 298.46 52.7539 297.583C53.9634 295.636 54.5371 293.363 54.3961 291.077Z" fill="#1F1F21"/>
<path d="M40.0365 283.96C43.416 282.577 46.2826 285.334 46.2826 285.334C49.6318 288.749 52.2888 290.474 54.397 291.073C54.5408 293.36 53.969 295.635 52.7603 297.585C48.5811 295.678 46.142 291.822 45.1423 289.899C44.9704 289.564 44.6744 289.309 44.3171 289.188C43.9598 289.068 43.5693 289.09 43.2285 289.252C42.5129 289.596 41.7738 290.124 41.7283 290.838C41.6373 292.249 39.9524 292.331 39.9359 291.811C39.9193 291.29 41.2402 288.504 41.2402 288.504C41.2402 288.504 37.3561 290.987 35.8449 291.939C34.3337 292.891 33.0459 291.322 33.0459 291.322C33.0459 291.322 36.657 285.345 40.0365 283.96Z" fill="url(#paint9_linear_41_1800)"/>
<path d="M102.675 262.063C102.675 262.063 92.255 254.98 67.086 267.79C67.086 267.79 64.4938 271.063 65.7071 274.753C66.9205 278.443 81.8697 298.416 82.4461 307.793C82.4461 307.793 92.6618 313.784 105.922 307.844C105.922 307.844 110.37 283.093 102.675 262.063Z" fill="#1F1F21"/>
<path d="M78.4227 250.97L85.0907 261.046C85.2932 261.436 85.3785 261.877 85.3364 262.314C85.2944 262.751 85.1267 263.167 84.8535 263.512C83.7188 264.927 81.3513 266.83 77.3114 265.604C76.7203 265.425 76.1866 265.094 75.7635 264.645C75.3405 264.197 75.0427 263.645 74.8998 263.046L72.7695 254.072L78.4227 250.97Z" fill="url(#paint10_linear_41_1800)"/>
<path d="M110.392 290.138C111.098 285.25 98.1357 275.778 98.1357 275.778L102.675 262.063C102.675 262.063 127.411 279.647 122.209 294.012C121.463 296.072 120.351 297.571 118.995 298.634C116.375 293.282 112.823 291.061 110.392 290.138Z" fill="#1F1F21"/>
<path d="M92.3084 291.494C92.3084 291.494 106.971 295.574 110.014 291.127C110.215 290.831 110.344 290.492 110.392 290.138C112.823 291.057 116.374 293.282 118.994 298.634C112.032 304.091 98.6082 297.973 94.9612 296.14C94.3631 295.838 93.6709 295.781 93.0309 295.979C91.7334 296.383 89.4859 297.008 88.234 296.94C86.4015 296.84 84.4353 303.437 81.3164 301.766C81.3178 301.766 82.7325 290.495 92.3084 291.494Z" fill="url(#paint11_linear_41_1800)"/>
<path d="M63.2041 244.589C63.1945 244.761 66.2293 255.226 67.7804 260.557C67.8921 260.941 68.084 261.297 68.3434 261.601C68.6029 261.906 68.9242 262.152 69.286 262.325C69.6479 262.497 70.0423 262.591 70.4432 262.6C70.8441 262.61 71.2425 262.535 71.6122 262.38L72.8145 261.879C74.4567 261.192 77.3288 259.083 77.4887 257.315L76.9372 244.677C76.9372 244.677 63.422 240.725 63.2041 244.589Z" fill="url(#paint12_linear_41_1800)"/>
<path d="M76.8482 241.172C77.1612 239.988 77.1819 238.222 74.9372 237.446C72.6552 236.661 71.1151 237.966 70.314 238.996C70.1562 239.195 69.9334 239.332 69.6844 239.384C69.4354 239.436 69.1761 239.399 68.9517 239.279C68.6856 239.142 68.3547 239.119 67.9865 239.396C67.866 239.483 67.7286 239.544 67.583 239.575C67.4374 239.606 67.2869 239.607 67.1412 239.576C66.9956 239.546 66.8579 239.485 66.737 239.399C66.6161 239.312 66.5148 239.201 66.4395 239.073C65.819 238.043 64.647 236.985 62.5291 237.539C58.7705 238.522 58.7084 242.773 59.9314 245.154C61.1545 247.534 65.171 246.236 67.1137 244.813C68.5932 243.73 70.7069 244.538 71.6349 244.998C71.7797 245.069 71.9067 245.172 72.0062 245.298C72.1058 245.425 72.1754 245.572 72.2099 245.729L73.2605 250.426C74.4284 250.54 75.577 250.75 76.7255 250.975C76.7076 250.625 76.6979 250.327 76.7048 250.107C76.7476 248.549 78.5662 247.46 79.3632 247.056C79.4918 246.991 79.6058 246.901 79.6983 246.79C79.7907 246.68 79.8597 246.552 79.9009 246.415C80.2001 245.427 80.5324 243.173 77.6603 242.512C77.5172 242.48 77.382 242.419 77.2629 242.334C77.1439 242.248 77.0434 242.14 76.9675 242.015C76.8917 241.89 76.842 241.75 76.8215 241.606C76.801 241.461 76.8101 241.314 76.8482 241.172Z" fill="url(#paint13_linear_41_1800)"/>
<path d="M77.288 252.857C77.288 252.857 75.3339 248.617 76.8522 247.405C78.3706 246.193 80.8047 246.541 80.5579 249.757C80.2517 253.758 77.288 252.857 77.288 252.857Z" fill="url(#paint14_linear_41_1800)"/>
<path d="M73.5841 300.795H73.5055L39.2501 300.758C39.0487 300.758 38.8493 300.719 38.6633 300.642C38.4773 300.565 38.3083 300.453 38.1659 300.311C38.0235 300.169 37.9106 300.001 37.8335 299.815C37.7565 299.63 37.7168 299.431 37.7168 299.231C37.7168 299.03 37.7565 298.831 37.8335 298.646C37.9106 298.461 38.0235 298.292 38.1659 298.15C38.3083 298.008 38.4773 297.896 38.6633 297.819C38.8493 297.742 39.0487 297.703 39.2501 297.703L73.5069 297.74C73.9043 297.744 74.2846 297.902 74.5675 298.18C74.8505 298.458 75.014 298.835 75.0237 299.23C75.0333 299.626 74.8883 300.011 74.6193 300.302C74.3502 300.593 73.9781 300.769 73.5814 300.793L73.5841 300.795Z" fill="url(#paint15_linear_41_1800)"/>
<path d="M8.45426 269.808H36.9835C38.0145 269.808 39.0242 270.1 39.8949 270.65C40.7657 271.2 41.4617 271.985 41.9018 272.914L55.0902 300.777H19.6365C18.9738 300.777 18.3266 300.578 17.7786 300.206C17.2307 299.835 16.8072 299.309 16.5631 298.695L6.33501 272.912C6.19858 272.568 6.1487 272.196 6.18971 271.828C6.23072 271.46 6.36139 271.108 6.57033 270.802C6.77926 270.496 7.06014 270.245 7.3885 270.072C7.71685 269.899 8.08272 269.808 8.45426 269.808Z" fill="url(#paint16_linear_41_1800)"/>
<path d="M13.0803 373.998C12.8853 373.998 12.6922 373.96 12.5123 373.884C12.3406 373.816 12.1845 373.715 12.0531 373.585C11.9218 373.456 11.8178 373.302 11.7475 373.131C11.6771 372.961 11.6418 372.779 11.6436 372.595C11.6454 372.411 11.6843 372.229 11.758 372.06L41.9543 304.364C42.1135 304.022 42.3998 303.755 42.7527 303.62C43.1056 303.484 43.4976 303.491 43.846 303.637C44.0175 303.706 44.1735 303.807 44.3047 303.937C44.4359 304.066 44.5397 304.221 44.61 304.391C44.6802 304.561 44.7154 304.743 44.7135 304.927C44.7116 305.111 44.6726 305.293 44.5989 305.462L14.4026 373.158C14.287 373.41 14.1007 373.624 13.8661 373.773C13.6315 373.922 13.3586 374 13.0803 373.998Z" fill="#91B3FA"/>
<path d="M47.0916 373.999C46.8131 374.001 46.5398 373.923 46.3049 373.773C46.07 373.624 45.8835 373.41 45.7679 373.158L15.5717 305.462C15.498 305.293 15.459 305.111 15.4571 304.927C15.4552 304.743 15.4904 304.561 15.5606 304.391C15.6308 304.221 15.7346 304.066 15.8659 303.937C15.9971 303.807 16.1531 303.706 16.3246 303.637C16.6729 303.49 17.065 303.484 17.418 303.619C17.7711 303.755 18.0573 304.022 18.2163 304.364L48.4125 372.06C48.4863 372.229 48.5252 372.411 48.5271 372.595C48.5291 372.778 48.4939 372.961 48.4236 373.131C48.3534 373.301 48.2496 373.456 48.1184 373.585C47.9872 373.714 47.8312 373.816 47.6597 373.884C47.4797 373.959 47.2867 373.998 47.0916 373.999Z" fill="#91B3FA"/>
<path d="M106.532 373.998C106.337 373.998 106.144 373.959 105.964 373.884C105.793 373.816 105.637 373.714 105.506 373.585C105.374 373.456 105.27 373.301 105.2 373.131C105.13 372.961 105.095 372.778 105.097 372.594C105.099 372.411 105.138 372.229 105.211 372.06L135.408 304.364C135.567 304.022 135.853 303.755 136.206 303.62C136.559 303.484 136.951 303.491 137.299 303.637C137.471 303.706 137.627 303.807 137.758 303.937C137.889 304.066 137.993 304.221 138.063 304.391C138.133 304.561 138.169 304.743 138.167 304.927C138.165 305.111 138.126 305.293 138.052 305.462L107.856 373.158C107.74 373.41 107.554 373.624 107.319 373.773C107.084 373.922 106.811 374 106.532 373.998Z" fill="#91B3FA"/>
<path d="M140.544 373.999C140.266 374.001 139.993 373.922 139.758 373.773C139.524 373.624 139.337 373.41 139.222 373.158L109.026 305.462C108.952 305.293 108.913 305.111 108.911 304.927C108.909 304.743 108.944 304.561 109.015 304.391C109.085 304.221 109.189 304.066 109.32 303.937C109.451 303.807 109.607 303.706 109.779 303.637C110.127 303.49 110.519 303.484 110.872 303.619C111.225 303.755 111.511 304.022 111.67 304.364L141.867 372.06C141.94 372.229 141.979 372.411 141.981 372.595C141.983 372.779 141.948 372.961 141.877 373.131C141.807 373.302 141.703 373.456 141.572 373.585C141.44 373.715 141.284 373.816 141.112 373.884C140.933 373.96 140.739 373.998 140.544 373.999Z" fill="#91B3FA"/>
<path d="M144.086 302.275C144.124 302.057 144.118 301.835 144.069 301.62C144.02 301.404 143.928 301.201 143.799 301.022C143.68 300.855 143.523 300.718 143.341 300.622C143.159 300.527 142.957 300.475 142.751 300.472H5.40509C5.13363 300.478 4.86857 300.555 4.63715 300.697C4.40573 300.838 4.2163 301.039 4.08831 301.277C3.94608 301.53 3.86303 301.812 3.84536 302.101C3.82769 302.39 3.87587 302.68 3.98628 302.948L5.47403 306.541C5.8146 307.365 6.55365 307.891 7.36578 307.891H141.809C142.565 307.891 143.214 307.293 143.358 306.465L144.086 302.275Z" fill="#91B3FA"/>
<path d="M366.057 2.97603L324.072 1.00925C323.272 0.962641 322.47 1.06842 321.718 1.31967C320.967 1.57093 320.282 1.96203 319.71 2.46745C319.138 2.97287 318.69 3.58127 318.396 4.25295C318.103 4.92462 317.97 5.6445 318.006 6.36561L319.09 41.1249C319.178 43.9655 321.908 46.1362 325.148 45.9917L365.012 44.2187C367.714 44.0997 369.946 41.9426 370.025 39.386L370.998 8.24908C371.084 5.47656 368.889 3.10862 366.057 2.97603Z" fill="#826DFF"/>
<path d="M39.9101 225.523L14.264 224.193C13.775 224.161 13.2849 224.233 12.8255 224.402C12.3661 224.572 11.9478 224.837 11.5979 225.178C11.248 225.52 10.9744 225.931 10.7949 226.386C10.6154 226.84 10.5341 227.327 10.5563 227.814L11.2195 251.315C11.2733 253.238 12.9417 254.702 14.9217 254.605L39.2758 253.407C40.9304 253.324 42.2899 251.867 42.3396 250.139L42.9338 229.088C42.9862 227.213 41.6405 225.612 39.9101 225.523Z" fill="#826DFF"/>
<g clip-path="url(#clip0_41_1800)">
<path d="M34.4563 233.776C34.4255 233.758 29.0668 231.284 29.0668 231.284C27.7799 230.575 26.2197 230.575 24.9328 231.284C24.9328 231.284 19.5748 233.758 19.5433 233.776C18.1085 234.557 17.5785 236.353 18.3596 237.788C18.6319 238.288 19.043 238.699 19.5433 238.972C19.5748 238.99 21.7498 239.995 21.7498 239.995V243.54C21.7519 245.067 22.7463 246.415 24.2046 246.868C25.1128 247.131 26.0545 247.259 26.9998 247.249C27.9451 247.259 28.8868 247.131 29.7951 246.868C31.2533 246.415 32.2477 245.067 32.2498 243.54V239.995L33.7498 239.303V244.624C33.7498 245.245 34.2535 245.749 34.8748 245.749C35.4961 245.749 35.9998 245.245 35.9998 244.624V236.344C35.97 235.238 35.4415 234.256 34.4563 233.776ZM29.9998 243.54C30.0025 244.076 29.6569 244.551 29.1463 244.714C27.7401 245.092 26.2594 245.092 24.8533 244.714C24.3427 244.551 23.9971 244.076 23.9998 243.54V241.033L24.9328 241.463C26.2192 242.174 27.7804 242.174 29.0668 241.463L29.9998 241.033V243.54H29.9998ZM33.3635 237.004C33.3635 237.004 28.0168 239.471 27.9868 239.489C27.3748 239.837 26.6247 239.837 26.0128 239.489C25.9828 239.471 20.636 237.004 20.636 237.004C20.2881 236.826 20.1499 236.4 20.3274 236.052C20.3952 235.919 20.5032 235.811 20.636 235.744C20.636 235.744 25.9828 233.276 26.0128 233.258C26.6247 232.91 27.3748 232.91 27.9868 233.258C28.0168 233.276 33.3635 235.744 33.3635 235.744C33.7115 235.921 33.8496 236.347 33.6721 236.695C33.6044 236.828 33.4963 236.936 33.3635 237.004Z" fill="white"/>
</g>
<path d="M369.993 217.566L344.165 216.228C343.673 216.196 343.179 216.268 342.717 216.439C342.254 216.61 341.833 216.876 341.481 217.22C341.129 217.564 340.853 217.978 340.672 218.436C340.492 218.893 340.41 219.383 340.432 219.874L341.1 243.539C341.155 245.472 342.834 246.95 344.823 246.851L369.348 245.645C371.01 245.563 372.381 244.094 372.432 242.348L373.03 221.15C373.088 219.267 371.736 217.656 369.993 217.566Z" fill="#826DFF"/>
<path d="M365.852 240.37H347.668C346.921 240.369 346.206 240.073 345.678 239.547C345.15 239.021 344.853 238.308 344.853 237.564V224.572C344.853 223.828 345.15 223.115 345.678 222.589C346.206 222.063 346.921 221.767 347.668 221.766H365.852C366.598 221.768 367.313 222.064 367.84 222.59C368.367 223.116 368.664 223.829 368.665 224.572V237.571C368.662 238.313 368.365 239.023 367.838 239.548C367.311 240.072 366.597 240.368 365.852 240.37ZM347.668 224.085C347.54 224.085 347.418 224.136 347.328 224.226C347.238 224.316 347.187 224.438 347.187 224.565V237.564C347.187 237.691 347.238 237.813 347.328 237.903C347.418 237.993 347.54 238.043 347.668 238.043H365.852C365.98 238.043 366.102 237.993 366.193 237.903C366.283 237.813 366.334 237.691 366.335 237.564V224.572C366.335 224.445 366.284 224.322 366.193 224.232C366.103 224.142 365.98 224.091 365.852 224.091L347.668 224.085Z" fill="white"/>
<path d="M356.589 232.325C356.347 232.325 356.111 232.25 355.913 232.111L345.776 224.946C345.533 224.764 345.37 224.495 345.324 224.195C345.277 223.895 345.349 223.589 345.525 223.342C345.701 223.095 345.967 222.926 346.266 222.871C346.566 222.816 346.875 222.88 347.127 223.049L356.592 229.735L365.929 223.127C366.181 222.949 366.495 222.877 366.8 222.929C367.105 222.98 367.377 223.151 367.556 223.402C367.735 223.653 367.807 223.965 367.755 224.269C367.703 224.573 367.533 224.845 367.28 225.023L357.267 232.111C357.069 232.251 356.832 232.326 356.589 232.325Z" fill="white"/>
<path d="M346.632 240.508L346.286 238.207L346.449 239.359L345.466 238.731C345.674 238.397 349.318 232.047 351.717 227.86C351.793 227.727 351.895 227.611 352.016 227.517C352.137 227.424 352.275 227.355 352.423 227.314C352.571 227.274 352.725 227.263 352.877 227.283C353.029 227.302 353.176 227.35 353.309 227.426C353.442 227.502 353.559 227.603 353.653 227.724C353.747 227.844 353.816 227.982 353.856 228.129C353.897 228.277 353.908 228.43 353.888 228.582C353.869 228.733 353.82 228.88 353.744 229.012C353.744 229.012 352.181 231.743 350.613 234.473C349.828 235.838 349.044 237.205 348.454 238.23C347.192 240.418 347.192 240.418 346.632 240.508Z" fill="white"/>
<path d="M366.478 240.508C365.926 240.416 365.926 240.416 364.663 238.23C364.073 237.205 363.284 235.84 362.504 234.474L359.373 229.014C359.292 228.881 359.239 228.733 359.216 228.579C359.194 228.426 359.202 228.269 359.242 228.119C359.281 227.968 359.35 227.828 359.445 227.704C359.539 227.581 359.658 227.478 359.793 227.401C359.929 227.324 360.078 227.275 360.233 227.256C360.388 227.238 360.545 227.25 360.695 227.293C360.844 227.336 360.984 227.408 361.105 227.506C361.227 227.603 361.327 227.724 361.401 227.861C363.799 232.047 367.443 238.396 367.651 238.733L366.668 239.361L366.478 240.508Z" fill="white"/>
<path d="M63.8756 116.571C63.2713 117.496 62.4053 118.221 61.3871 118.656C60.3689 119.09 59.2443 119.214 58.1554 119.012C57.0665 118.81 56.0622 118.29 55.2696 117.52C54.4769 116.749 53.9315 115.761 53.7023 114.681C53.4731 113.602 53.5703 112.478 53.9817 111.454C54.3932 110.429 55.1003 109.549 56.0137 108.925C56.9271 108.301 58.0058 107.96 59.1134 107.947C60.221 107.933 61.3077 108.247 62.2362 108.849C63.4798 109.658 64.3507 110.925 64.658 112.372C64.9653 113.82 64.684 115.33 63.8756 116.571ZM56.3486 111.691C55.9837 112.25 55.7932 112.903 55.8011 113.569C55.809 114.235 56.015 114.884 56.393 115.433C56.771 115.982 57.304 116.408 57.9246 116.655C58.5453 116.903 59.2256 116.961 59.8797 116.823C60.5337 116.685 61.132 116.357 61.5989 115.881C62.0659 115.404 62.3804 114.8 62.5028 114.145C62.6251 113.491 62.5498 112.814 62.2864 112.202C62.023 111.59 61.5832 111.07 61.0228 110.706C60.2716 110.221 59.3576 110.051 58.4813 110.236C57.605 110.421 56.838 110.944 56.3486 111.691Z" fill="white"/>
<path d="M49.1657 107.035C50.8961 104.391 53.6088 102.538 56.7084 101.884C59.8081 101.23 63.0415 101.828 65.6991 103.547C66.0411 103.77 66.3674 104.006 66.6781 104.257C66.7736 104.337 66.8862 104.395 67.0074 104.424C67.1285 104.454 67.2549 104.456 67.3768 104.429C67.4987 104.403 67.6128 104.349 67.7104 104.271C67.808 104.194 67.8865 104.095 67.9397 103.983L68.6705 102.389C68.7472 102.22 68.7637 102.03 68.7173 101.85C68.6709 101.671 68.5644 101.512 68.4154 101.401C68.1259 101.181 67.8281 100.97 67.5178 100.769C65.703 99.5888 63.6568 98.807 61.5152 98.4758C59.3736 98.1446 57.1858 98.2717 55.0973 98.8485C53.0088 99.4253 51.0675 100.439 49.4026 101.821C47.7378 103.204 46.3874 104.923 45.4415 106.866C45.3932 106.966 45.3655 107.074 45.3603 107.184C45.355 107.294 45.3723 107.404 45.4109 107.507C45.4496 107.611 45.5089 107.705 45.5852 107.785C45.6616 107.865 45.7534 107.929 45.8551 107.972L47.4284 108.651C47.6196 108.734 47.8356 108.74 48.0312 108.668C48.2268 108.595 48.3867 108.451 48.4777 108.264C48.6811 107.84 48.9109 107.43 49.1657 107.035Z" fill="white"/>
<path d="M41.9446 102.353C48.1287 92.8824 60.8924 90.1913 70.398 96.3538H70.4063C70.5032 96.418 70.613 96.4606 70.728 96.4785C70.843 96.4965 70.9605 96.4894 71.0725 96.4578C71.1845 96.4262 71.2883 96.3709 71.3768 96.2955C71.4653 96.2202 71.5364 96.1267 71.5852 96.0214L72.3022 94.4581L72.003 93.4264C60.9807 86.4423 46.2907 89.6006 39.1484 100.535C38.5351 101.476 37.9901 102.46 37.5172 103.478C37.4727 103.575 37.448 103.68 37.4447 103.787C37.4414 103.894 37.4596 104.001 37.4981 104.1C37.5366 104.2 37.5947 104.291 37.6691 104.368C37.7434 104.445 37.8324 104.507 37.9309 104.55L39.5014 105.227C39.6934 105.311 39.9107 105.317 40.1073 105.244C40.3039 105.171 40.4643 105.025 40.5548 104.837C40.9585 103.977 41.4229 103.147 41.9446 102.353Z" fill="white"/>
<path d="M34.7225 97.6711C43.2712 84.5836 60.6719 80.6273 74.0327 88.5084C74.1308 88.5679 74.2404 88.6061 74.3544 88.6205C74.4684 88.6348 74.5841 88.625 74.694 88.5916C74.8039 88.5583 74.9054 88.5022 74.992 88.427C75.0786 88.3518 75.1483 88.2592 75.1964 88.1553L75.9065 86.6044C75.9911 86.4224 76.0049 86.2156 75.9453 86.024C75.8857 85.8324 75.7569 85.6697 75.5839 85.5672C60.716 76.8962 41.4208 81.3238 31.9276 95.8537C31.0515 97.201 30.2776 98.6116 29.6125 100.074C29.5686 100.172 29.5447 100.278 29.5422 100.385C29.5397 100.493 29.5588 100.599 29.5982 100.699C29.6376 100.799 29.6966 100.891 29.7717 100.968C29.8469 101.045 29.9366 101.106 30.0358 101.148L31.6036 101.824C31.7994 101.908 32.0205 101.912 32.2191 101.835C32.4178 101.757 32.578 101.606 32.6653 101.412C33.2584 100.117 33.946 98.8663 34.7225 97.6711Z" fill="white"/>
<path d="M348.162 181.348L322.085 179.996C321.588 179.964 321.09 180.036 320.623 180.209C320.156 180.382 319.731 180.651 319.376 180.998C319.02 181.345 318.742 181.764 318.56 182.225C318.377 182.687 318.295 183.182 318.317 183.678L318.991 207.57C319.046 209.522 320.742 211.014 322.754 210.915L347.516 209.696C349.194 209.614 350.58 208.131 350.63 206.373L351.234 184.972C351.292 183.066 349.921 181.437 348.162 181.348Z" fill="#826DFF"/>
<path d="M344.745 184.073H326.31C324.603 184.073 322.436 185.31 322.436 187.065V197.28C322.436 198.965 324.621 200.358 326.31 200.358H338.995C339.432 200.358 339.719 201.165 339.719 201.594V203.105C339.719 203.726 340.316 203.957 340.624 204.058C340.821 204.214 341.062 204.304 341.313 204.315C341.439 204.316 341.564 204.289 341.678 204.237C341.793 204.185 341.895 204.109 341.978 204.014L344.735 200.807C346.457 200.77 347.187 198.959 347.187 197.275V187.069C347.187 185.394 346.423 184.073 344.745 184.073ZM345.318 197.28C345.318 198.07 345.385 198.962 344.745 198.962H344.056L340.647 202.189V199.97C340.647 199.535 341.061 198.962 340.626 198.962H326.31C325.526 198.962 323.836 198.062 323.836 197.28V187.482C323.836 186.34 325.517 186.395 326.31 186.395H344.745C345.525 186.395 345.318 186.284 345.318 187.061V197.28Z" fill="white"/>
<path d="M343.452 189.191C343.452 189.314 343.403 189.433 343.315 189.52C343.227 189.607 343.108 189.656 342.985 189.656H326.173C326.049 189.656 325.93 189.607 325.842 189.52C325.754 189.433 325.705 189.314 325.705 189.191C325.705 189.129 325.717 189.069 325.741 189.013C325.764 188.956 325.799 188.905 325.842 188.862C325.886 188.819 325.937 188.784 325.994 188.761C326.05 188.738 326.111 188.726 326.173 188.726H342.985C343.046 188.726 343.107 188.738 343.163 188.761C343.22 188.784 343.272 188.819 343.315 188.862C343.358 188.905 343.393 188.956 343.416 189.013C343.44 189.069 343.452 189.129 343.452 189.191Z" fill="white"/>
<path d="M343.452 191.983C343.452 192.044 343.44 192.105 343.416 192.161C343.393 192.218 343.358 192.269 343.315 192.312C343.272 192.355 343.22 192.389 343.163 192.413C343.107 192.436 343.046 192.448 342.985 192.448H326.173C326.111 192.448 326.05 192.436 325.994 192.413C325.937 192.389 325.886 192.355 325.842 192.312C325.799 192.269 325.764 192.218 325.741 192.161C325.717 192.105 325.705 192.044 325.705 191.983C325.705 191.86 325.754 191.741 325.842 191.654C325.93 191.567 326.049 191.518 326.173 191.518H342.985C343.108 191.518 343.227 191.567 343.315 191.654C343.403 191.741 343.452 191.86 343.452 191.983Z" fill="white"/>
<path d="M343.452 196.17C343.452 196.294 343.403 196.412 343.315 196.5C343.227 196.587 343.108 196.636 342.985 196.636H326.173C326.049 196.636 325.93 196.587 325.842 196.5C325.754 196.412 325.705 196.294 325.705 196.17C325.705 196.047 325.754 195.928 325.842 195.841C325.93 195.754 326.049 195.705 326.173 195.705H342.985C343.108 195.705 343.227 195.754 343.315 195.841C343.403 195.928 343.452 196.047 343.452 196.17Z" fill="white"/>
<path d="M235.576 169.949C235.636 169.925 267.546 114.249 271.859 109.01C272.215 108.577 272.675 108.24 273.197 108.031C273.718 107.822 274.284 107.748 274.842 107.815L283.75 108.873L294.208 131.425L276.777 121.31C278.502 133.196 256.108 150.859 248.428 157.302C248.244 157.457 248.093 157.648 247.986 157.863C247.878 158.078 247.816 158.313 247.803 158.553C247.79 158.793 247.827 159.033 247.911 159.258C247.994 159.483 248.124 159.689 248.29 159.863L251.357 163.059C246.323 168.142 240.515 171.408 233.959 172.917L235.576 169.949Z" fill="url(#paint17_linear_41_1800)"/>
<path d="M249.585 161.335C249.585 161.335 251.542 161.966 252.205 163.702C252.522 164.527 252.18 165.473 251.455 165.991C248.232 168.291 237.603 175.717 232.703 177.172C232.61 177.198 232.513 177.2 232.419 177.177C232.326 177.155 232.24 177.108 232.171 177.042C232.101 176.976 232.05 176.893 232.022 176.801C231.995 176.71 231.992 176.612 232.013 176.519C232.264 175.384 233.079 173.118 235.702 169.799L235.466 170.273C235.4 170.403 235.379 170.55 235.404 170.693C235.429 170.837 235.499 170.968 235.605 171.068C235.71 171.169 235.845 171.233 235.99 171.251C236.135 171.269 236.282 171.24 236.409 171.168C239.682 169.324 246.363 165.286 249.585 161.335Z" fill="url(#paint18_linear_41_1800)"/>
<path d="M248.007 183.613C248.059 183.579 252.848 172.086 252.9 172.052C257.29 145.425 268 122.621 271.159 116.62C271.42 116.124 271.802 115.701 272.271 115.392C272.739 115.082 273.279 114.895 273.839 114.848L282.775 114.087L297.603 134.064L278.477 127.673C282.581 138.965 264.24 160.78 258.027 168.638C257.877 168.827 257.768 169.044 257.707 169.276C257.645 169.508 257.631 169.75 257.667 169.988C257.703 170.226 257.788 170.453 257.915 170.657C258.043 170.861 258.211 171.036 258.41 171.173L262.062 173.686C258.166 179.68 253.14 184.047 247.026 186.848L248.007 183.613Z" fill="url(#paint19_linear_41_1800)"/>
<path d="M259.975 172.354C259.975 172.354 262.02 172.577 263.021 174.14C263.501 174.89 263.358 175.88 262.752 176.534C260.064 179.436 251.163 188.851 246.656 191.263C246.571 191.309 246.476 191.331 246.379 191.328C246.283 191.326 246.189 191.298 246.107 191.247C246.024 191.197 245.957 191.126 245.911 191.042C245.865 190.957 245.842 190.862 245.844 190.766C245.859 189.604 246.197 187.219 248.091 183.44L247.954 183.952C247.922 184.091 247.935 184.236 247.99 184.368C248.045 184.499 248.14 184.61 248.261 184.685C248.382 184.761 248.523 184.797 248.666 184.788C248.809 184.78 248.945 184.728 249.057 184.639C251.901 182.173 257.625 176.872 259.975 172.354Z" fill="url(#paint20_linear_41_1800)"/>
<path d="M324.61 109.881C324.61 109.881 332.694 121.861 333.357 127.327C334.02 132.793 331.122 134.682 322.66 135.38C297.478 137.454 285.064 129.935 285.064 129.935C286.95 124.714 289.229 113.766 274.843 107.818C274.843 107.818 286.721 109.713 290.383 108.297C294.046 106.881 324.61 109.881 324.61 109.881Z" fill="url(#paint21_linear_41_1800)"/>
<path d="M278.964 46.0299C279.102 47.0808 297.457 97.9693 297.457 97.9693L325.546 102.356C328.182 102.767 330.881 102.31 333.233 101.054C335.585 99.7979 337.461 97.8115 338.576 95.3963C339.93 92.4649 340.691 89.2963 340.816 86.0717C340.94 82.8471 340.426 79.6296 339.302 76.6032C338.178 73.5767 336.466 70.8006 334.265 68.4334C332.064 66.0662 329.416 64.1545 326.473 62.8073L322.326 60.9088C316.14 58.0789 310.077 53.1912 304.748 48.0589C300.259 43.7644 294.358 41.238 288.141 40.9485L278.964 46.0299Z" fill="url(#paint22_linear_41_1800)"/>
<path d="M333.703 90.8643C333.671 90.864 333.64 90.8539 333.614 90.8354C333.588 90.8169 333.569 90.791 333.558 90.761C333.547 90.731 333.546 90.6985 333.555 90.6678C333.563 90.6371 333.581 90.6098 333.605 90.5895C336.534 88.2707 336.268 83.9008 336.018 82.1301C335.517 78.6006 334.124 75.2558 331.97 72.4096C328.101 67.3048 322.164 64.262 316.422 61.3194L315.234 60.7081C309.352 57.6859 302.802 53.9219 299.515 47.6646C299.505 47.6465 299.499 47.6265 299.496 47.6058C299.494 47.5852 299.496 47.5642 299.501 47.5443C299.507 47.5243 299.517 47.5058 299.53 47.4897C299.544 47.4736 299.56 47.4603 299.579 47.4506C299.597 47.441 299.617 47.4351 299.638 47.4334C299.659 47.4317 299.68 47.4341 299.7 47.4406C299.719 47.4471 299.738 47.4575 299.753 47.4712C299.769 47.4849 299.782 47.5016 299.791 47.5203C303.042 53.7021 309.544 57.4235 315.383 60.4334L316.571 61.0433C322.343 64.0023 328.312 67.0616 332.224 72.2241C334.41 75.1118 335.824 78.5059 336.333 82.0875C336.59 83.9118 336.859 88.4163 333.805 90.834C333.776 90.8559 333.74 90.8667 333.703 90.8643Z" fill="#91B3FA"/>
<path d="M330.748 85.368H330.738C330.697 85.3652 330.658 85.3461 330.631 85.3149C330.603 85.2838 330.589 85.2431 330.592 85.2018C330.828 81.5119 330.298 78.3139 329.02 75.6983C326.705 70.9644 321.81 67.934 317.806 65.8239C317 65.3981 316.183 64.9818 315.366 64.567C311.651 62.6767 307.81 60.7205 304.815 57.7615C304.785 57.7325 304.769 57.6931 304.769 57.6519C304.768 57.6107 304.784 57.571 304.814 57.5417C304.843 57.5124 304.882 57.4957 304.924 57.4955C304.965 57.4952 305.005 57.5114 305.034 57.5403C307.994 60.4664 311.814 62.4102 315.513 64.2895C316.331 64.7016 317.15 65.1219 317.958 65.5478C322.005 67.6812 326.951 70.7474 329.306 75.5623C330.609 78.2273 331.148 81.4693 330.909 85.2224C330.906 85.2627 330.888 85.3004 330.858 85.3275C330.828 85.3547 330.788 85.3692 330.748 85.368Z" fill="#91B3FA"/>
<path d="M271.116 85.2211C271.116 85.2211 280.716 96.6752 290.383 87.3737L294.119 96.0035C294.119 96.0035 280.001 106.893 269.3 89.7585L271.116 85.2211Z" fill="url(#paint23_linear_41_1800)"/>
<path d="M302.744 108.294C302.744 108.294 293.33 99.3649 288.695 93.4469C287.462 91.8695 286.625 90.0214 286.254 88.0565C285.883 86.0915 285.989 84.0667 286.562 82.1507C288.677 75.0485 292.437 67.6922 292.781 66.5479C293.306 64.7922 303.862 64.8664 303.862 64.8664C303.862 64.8664 313.802 66.405 313.881 83.1824C313.899 87.1785 315.014 91.0937 317.103 94.5047C319.502 98.4157 321.837 104.288 324.61 109.881L302.744 108.294Z" fill="url(#paint24_linear_41_1800)"/>
<path d="M296.607 52.2199L303.703 65.3651C303.234 68.2349 295.981 68.3159 294.86 66.6015C294.751 66.4236 294.675 66.2271 294.637 66.0218L290.393 57.2395C290.211 56.3823 292.567 53.4975 293.343 53.0854L296.163 51.5907C297.25 51.0138 292.717 50.9685 296.607 52.2199Z" fill="url(#paint25_linear_41_1800)"/>
<path d="M282.249 49.1358C282.249 49.1358 281.449 53.5757 284.951 59.2231C288.453 64.8705 291.944 64.615 293.716 62.6011C295.488 60.5872 297.611 57.2326 296.646 51.6017C295.681 45.9707 283.454 43.4719 282.249 49.1358Z" fill="url(#paint26_linear_41_1800)"/>
<path d="M292.405 52.213C292.405 52.213 286.731 44.7948 282.376 51.261L282.449 53.4974C282.449 53.4974 276.785 53.2337 277.4 48.0327C278.015 42.8318 282.64 39.2779 289.048 41.0555C295.457 42.8332 299.204 44.8553 299.927 49.2897C300.651 53.7241 297.018 52.9988 297.018 52.9988C297.018 52.9988 295.63 49.9381 293.953 49.7293C292.276 49.5205 292.883 51.941 292.883 51.941L292.405 52.213Z" fill="url(#paint27_linear_41_1800)"/>
<path d="M293.707 52.0157C293.707 52.0157 290.768 48.217 293.444 47.4284C296.119 46.6398 296.019 51.1502 295.845 52.829L293.707 52.0157Z" fill="url(#paint28_linear_41_1800)"/>
<path d="M315.601 98.1588C315.601 98.1588 295.353 95.3509 288.693 89.1362C288.693 89.1362 285.466 86.1002 283.138 85.732C281.884 85.5329 280.468 85.3996 279.43 85.3199C279.328 85.3119 279.226 85.3375 279.14 85.3928C279.054 85.4481 278.988 85.5301 278.954 85.6261C278.919 85.722 278.917 85.8268 278.947 85.9241C278.978 86.0214 279.04 86.106 279.124 86.1648C279.874 86.6909 280.857 87.2555 281.709 87.3434C283.357 87.5138 281.6 88.7172 283.394 91.8603C285.188 95.0034 287.751 93.8178 287.751 93.8178C287.751 93.8178 301.166 105.332 313.98 105.236C313.976 105.236 317.138 104.203 315.601 98.1588Z" fill="url(#paint29_linear_41_1800)"/>
<path d="M264.805 77.3371L271.801 76.4181C272.635 76.2807 273.497 76.767 274.007 77.6682L278.61 87.805C279.475 89.3161 278.859 91.3286 277.457 91.5608L271.844 92.282C271.306 92.3713 270.754 92.0333 270.451 91.4289L264.226 79.0502C263.866 78.3317 264.166 77.4457 264.805 77.3371Z" fill="url(#paint30_linear_41_1800)"/>
<path d="M311.058 70.6389C311.058 70.6389 330.125 98.7784 313.977 105.236L311.058 97.3868C311.058 97.3868 312.988 93.0403 307.3 82.1315C306.55 80.6917 306.191 79.0816 306.258 77.4608C306.45 72.7448 307.307 63.9831 311.058 70.6389Z" fill="url(#paint31_linear_41_1800)"/>
<path opacity="0.43" d="M311.058 97.7261C311.124 97.7264 311.189 97.7074 311.244 97.6715C311.3 97.6356 311.343 97.5844 311.37 97.5242C311.451 97.3401 313.3 92.903 307.603 81.9736C307.583 81.9339 307.554 81.8986 307.52 81.8699C307.486 81.8411 307.446 81.8194 307.403 81.8059C307.316 81.7788 307.223 81.7869 307.142 81.8286C307.062 81.8704 307.001 81.9422 306.974 82.0284C306.947 82.1146 306.955 82.208 306.997 82.2882C312.513 92.8659 310.763 97.2083 310.744 97.2508C310.722 97.3027 310.713 97.3592 310.718 97.4153C310.723 97.4713 310.742 97.5253 310.773 97.5723C310.804 97.6193 310.847 97.658 310.896 97.6848C310.946 97.7116 311.002 97.7258 311.058 97.7261Z" fill="white"/>
<path d="M269.579 91.0096C269.579 91.0096 264.874 84.1883 265.42 83.3489C265.966 82.5095 270.092 81.3046 271.059 81.0216C272.027 80.7386 273.85 86.9251 269.579 91.0096Z" fill="url(#paint32_linear_41_1800)"/>
<path d="M342.413 329.27C344.302 329.645 355.062 336.024 355.062 328.73V320.582C355.062 320.582 341.871 329.163 342.413 329.27Z" fill="url(#paint33_linear_41_1800)"/>
<path d="M349.149 315.576C349.149 315.576 344.419 307.625 343.828 299.821C343.236 292.017 344.197 288.602 343.311 286.334C342.424 284.066 338.113 275.453 337.915 278.042C337.718 280.632 339.294 283.33 339.294 283.33C339.294 283.33 336.56 285.497 337.027 288C337.495 290.503 338.456 290.748 338.456 290.748C338.456 290.748 338.605 296.148 338.85 296.148C339.096 296.148 334.515 323.241 339.639 323.829C344.763 324.416 348.902 328.043 349.149 315.576Z" fill="url(#paint34_linear_41_1800)"/>
<path d="M335.634 286.073C335.586 285.714 332.273 278.536 332.866 277.72C333.459 276.904 334.057 276.176 334.988 278.596C335.919 281.015 337.028 287.6 336.671 287.639C336.314 287.677 335.805 287.36 335.634 286.073Z" fill="url(#paint35_linear_41_1800)"/>
<path d="M304.64 364.281C304.64 364.281 302.139 362.213 298.815 362.514C296.497 362.918 293.778 364.961 292.026 366.476C291.877 366.603 291.772 366.772 291.726 366.962C291.679 367.151 291.694 367.35 291.768 367.53C291.844 367.712 291.974 367.867 292.14 367.975C292.307 368.082 292.502 368.136 292.7 368.13C297.046 368.041 305.551 367.783 305.551 367.145C305.551 366.284 304.64 364.281 304.64 364.281Z" fill="url(#paint36_linear_41_1800)"/>
<path d="M306.362 360.634L304.367 364.388C304.367 364.388 299.86 364.757 300.007 362.99C300.155 361.223 301.264 359.087 301.264 359.087L306.362 360.634Z" fill="url(#paint37_linear_41_1800)"/>
<path d="M357.31 363.19C354.184 346.186 351.907 335.267 351.907 335.267C351.907 335.267 317.263 312.999 313.714 318.448C310.165 323.896 300.003 361.074 300.003 361.074L306.78 362.915C306.78 362.915 319.741 345.43 320.918 330.503C324.254 341.39 327.363 367.407 353.026 368.153C353.654 368.17 354.279 368.047 354.854 367.793C355.429 367.54 355.939 367.161 356.349 366.686C356.758 366.21 357.056 365.649 357.221 365.045C357.385 364.44 357.412 363.806 357.3 363.19H357.31Z" fill="#7D97F4"/>
<path d="M282.421 362.769L278.284 366.67L275.032 363.431L279.318 358.499L282.421 362.769Z" fill="url(#paint38_linear_41_1800)"/>
<path d="M366.422 283.699L374.523 294.076C374.705 294.302 374.816 294.577 374.842 294.865C374.868 295.154 374.809 295.444 374.67 295.699C373.621 297.494 370.575 301.468 364.133 301.522C363.397 301.522 362.694 301.062 362.33 300.349L357.296 290.466L366.422 283.699Z" fill="url(#paint39_linear_41_1800)"/>
<path d="M347.13 270.18C347.13 270.18 345.062 282.025 348.3 286.916C351.537 291.808 360.891 291.929 366.539 284.32L365.56 267.878L347.13 270.18Z" fill="url(#paint40_linear_41_1800)"/>
<path d="M361.797 278.054C361.711 278.055 361.626 278.036 361.548 278.001C361.469 277.965 361.4 277.912 361.344 277.847C361.288 277.781 361.248 277.705 361.225 277.622C361.202 277.539 361.197 277.452 361.211 277.368C361.395 276.269 361.673 274.071 361.336 272.411C361.336 272.411 362.235 271.059 357.32 271.954C352.406 272.848 345.049 274.116 341.987 270.958C339 267.881 338.476 257.069 347.432 261.93C347.511 261.973 347.599 261.998 347.689 262.003C347.78 262.007 347.87 261.991 347.953 261.955C348.036 261.919 348.11 261.865 348.169 261.796C348.228 261.727 348.27 261.646 348.292 261.559C348.689 259.939 350.031 256.347 354.113 256.373C357.933 256.396 359.322 258.571 359.798 259.759C359.83 259.842 359.88 259.916 359.945 259.977C360.01 260.037 360.087 260.082 360.172 260.109C360.257 260.135 360.346 260.142 360.434 260.129C360.522 260.116 360.606 260.084 360.679 260.034C362.155 259.019 365.908 257.054 369.464 260.215C372.394 262.825 372.243 265.086 371.762 266.375C371.728 266.469 371.719 266.571 371.735 266.669C371.751 266.768 371.793 266.861 371.855 266.94C371.918 267.018 372 267.08 372.093 267.118C372.186 267.156 372.287 267.17 372.387 267.158C373.589 267.021 375.354 267.309 376.311 269.842C377.636 273.344 373.666 274.73 372.504 275.054C372.41 275.079 372.324 275.127 372.253 275.194C372.183 275.26 372.13 275.343 372.099 275.435C371.62 276.879 369.569 283.335 365.235 285.875C364.86 286.095 364.154 285.624 364.118 285.188L363.56 278.594C363.549 278.445 363.481 278.306 363.372 278.204C363.262 278.102 363.118 278.045 362.968 278.045L361.797 278.054Z" fill="url(#paint41_linear_41_1800)"/>
<path d="M361.112 278.78C361.112 278.78 364.574 273.202 366.202 275.902C367.831 278.601 363.563 282.009 360.698 281.995L361.112 278.78Z" fill="url(#paint42_linear_41_1800)"/>
<path d="M353.261 312.19C353.261 312.19 337.473 318.816 334.517 315.429C331.561 312.043 333.186 293.051 333.186 293.051L326.536 291.281C326.536 291.281 318.359 324.8 332.252 329.81C342.336 333.445 361.563 321.614 361.563 321.614L353.261 312.19Z" fill="url(#paint43_linear_41_1800)"/>
<path d="M368.105 289.275C365.56 289.831 362.77 292.255 360.588 294.578C358.092 297.232 356.43 300.555 355.805 304.139C355.784 304.254 355.763 304.371 355.744 304.489C350.249 310.488 345.41 314.373 342.154 315.809C347.87 323.894 350.961 326.966 350.961 326.966C350.961 326.966 351.62 326.829 352.726 326.542C351.652 336.191 351.071 343.661 351.071 343.661C351.071 343.661 362.24 354.7 375.752 357.841C388.064 348.81 389.954 322.975 389.954 322.975C390.909 292.327 376.705 287.385 368.105 289.275Z" fill="url(#paint44_linear_41_1800)"/>
<path d="M375.75 357.835C375.75 357.835 370.207 374.253 342.854 365.05C329.59 360.588 311.018 334.718 311.018 334.718C311.018 334.718 306.437 347.234 282.495 364.02L277.174 359.258C277.174 359.258 301.412 317.634 313.826 321.957C326.239 326.281 379.543 347.185 375.75 357.835Z" fill="#91B3FA"/>
<path d="M280.302 364.767C279.289 364.78 275.032 362.915 275.032 362.915L271.066 363.97C267.609 363.441 264.641 364.613 262.64 365.806C262.428 365.933 262.263 366.126 262.171 366.355C262.078 366.584 262.063 366.836 262.127 367.075C262.191 367.313 262.331 367.524 262.526 367.676C262.721 367.828 262.961 367.913 263.208 367.918C267.121 367.982 273.549 368.047 276.805 367.853C281.682 367.562 282.421 367.702 280.302 364.767Z" fill="url(#paint45_linear_41_1800)"/>
<path d="M358.185 325.094C358.142 325.093 358.101 325.077 358.07 325.049C358.038 325.021 358.018 324.982 358.013 324.94C358.008 324.898 358.018 324.856 358.042 324.821C358.066 324.786 358.102 324.761 358.143 324.75C361.197 323.907 364.134 322.69 366.886 321.126C371.034 318.765 376.304 314.594 377.859 308.135C377.864 308.113 377.874 308.092 377.888 308.073C377.901 308.055 377.919 308.039 377.938 308.027C377.958 308.015 377.98 308.007 378.002 308.004C378.025 308 378.048 308.001 378.071 308.007C378.093 308.012 378.114 308.022 378.133 308.035C378.151 308.049 378.167 308.066 378.179 308.085C378.191 308.105 378.199 308.127 378.203 308.149C378.206 308.172 378.205 308.195 378.2 308.217C376.613 314.799 371.263 319.037 367.053 321.434C364.275 323.011 361.311 324.238 358.229 325.088C358.214 325.092 358.2 325.094 358.185 325.094Z" fill="white"/>
<path d="M323.026 275.936C322.969 275.792 322.945 275.637 322.955 275.483C322.966 275.329 323.01 275.179 323.085 275.043C323.16 274.908 323.264 274.791 323.39 274.7C323.515 274.609 323.659 274.547 323.812 274.518L331.517 273.054C331.662 273.025 331.814 273.052 331.941 273.128C332.068 273.204 332.163 273.325 332.206 273.466L338.135 292.499C338.148 292.54 338.152 292.583 338.148 292.625C338.144 292.667 338.132 292.709 338.112 292.746C338.092 292.784 338.064 292.817 338.031 292.844C337.998 292.871 337.96 292.891 337.919 292.903L331.478 294.826C331.224 294.902 330.95 294.879 330.711 294.763C330.472 294.647 330.286 294.446 330.189 294.2L323.026 275.936Z" fill="url(#paint46_linear_41_1800)"/>
<path d="M325.452 276.124C325.422 276.042 325.41 275.954 325.417 275.867C325.425 275.779 325.451 275.694 325.495 275.618C325.54 275.542 325.6 275.477 325.672 275.427C325.745 275.377 325.827 275.343 325.914 275.329L331.028 274.469C331.171 274.445 331.319 274.473 331.442 274.549C331.566 274.625 331.657 274.743 331.7 274.881L336.733 291.091C336.745 291.133 336.749 291.177 336.744 291.221C336.739 291.265 336.726 291.307 336.704 291.345C336.682 291.384 336.652 291.417 336.617 291.444C336.582 291.47 336.541 291.489 336.498 291.499L331.916 292.598C331.839 292.616 331.759 292.606 331.689 292.569C331.619 292.532 331.565 292.471 331.537 292.398L325.452 276.124Z" fill="#91B3FA"/>
<path d="M327.919 274.554C327.931 274.615 328.035 274.643 328.148 274.619L329.83 274.266C329.943 274.242 330.026 274.174 330.014 274.115L330.001 274.057C329.989 273.996 329.886 273.968 329.772 273.992L328.09 274.345C327.977 274.369 327.894 274.437 327.907 274.496L327.919 274.554Z" fill="url(#paint47_linear_41_1800)"/>
<path d="M326.451 291.646C326.351 290.803 323.507 285.429 324.615 283.367C325.724 281.305 326.167 277.771 327.235 278.766C328.304 279.761 326.977 283.22 327.457 284.25C327.937 285.28 329.782 287.9 330.023 289.94C330.264 291.98 331.632 294.885 328.75 295.297C325.869 295.71 326.451 291.646 326.451 291.646Z" fill="url(#paint48_linear_41_1800)"/>
<path d="M356.908 303.825C356.876 303.825 356.844 303.817 356.817 303.8C356.789 303.784 356.766 303.76 356.752 303.732C356.737 303.703 356.73 303.671 356.732 303.639C356.734 303.607 356.745 303.577 356.763 303.55C357.09 303.076 364.802 291.97 369.243 293.844C369.265 293.852 369.286 293.865 369.303 293.881C369.321 293.897 369.335 293.917 369.344 293.939C369.354 293.96 369.359 293.984 369.359 294.008C369.359 294.032 369.354 294.055 369.345 294.077C369.335 294.099 369.321 294.119 369.304 294.135C369.287 294.151 369.266 294.164 369.244 294.172C369.221 294.18 369.197 294.184 369.174 294.182C369.15 294.181 369.126 294.175 369.105 294.164C364.925 292.397 357.129 303.634 357.05 303.748C357.035 303.772 357.013 303.791 356.989 303.804C356.964 303.818 356.936 303.825 356.908 303.825Z" fill="white"/>
<path d="M339.579 293.444C339.552 293.443 339.525 293.436 339.501 293.424C339.478 293.412 339.457 293.394 339.441 293.372C338.092 291.508 338.944 289.388 339.303 288.474C339.348 288.362 339.399 288.237 339.416 288.178C339.25 287.809 338.606 285.925 338.802 284.743C338.848 284.468 338.99 284.389 339.1 284.367C339.707 284.248 341.031 286.245 341.563 287.114C341.588 287.154 341.596 287.201 341.585 287.246C341.574 287.291 341.546 287.33 341.507 287.355C341.487 287.367 341.465 287.375 341.443 287.379C341.42 287.382 341.397 287.382 341.374 287.376C341.329 287.366 341.29 287.338 341.265 287.298C340.39 285.889 339.438 284.714 339.173 284.714C339.164 284.744 339.157 284.774 339.151 284.805C338.962 285.93 339.648 287.88 339.746 288.053C339.808 288.161 339.763 288.272 339.631 288.602C339.289 289.457 338.486 291.458 339.723 293.166C339.742 293.192 339.753 293.222 339.755 293.254C339.757 293.285 339.751 293.316 339.737 293.345C339.723 293.373 339.701 293.397 339.675 293.414C339.648 293.431 339.617 293.44 339.586 293.441L339.579 293.444Z" fill="url(#paint49_linear_41_1800)"/>
<path d="M343.063 270.266C343.008 270.267 342.953 270.254 342.904 270.227C342.856 270.2 342.815 270.161 342.787 270.114C341.418 267.778 340.985 265.791 341.503 264.206C341.647 263.748 341.881 263.324 342.191 262.958C342.502 262.591 342.883 262.291 343.313 262.074C343.35 262.055 343.391 262.045 343.433 262.043C343.475 262.041 343.517 262.047 343.556 262.061C343.595 262.076 343.631 262.098 343.661 262.127C343.692 262.155 343.716 262.19 343.733 262.228C343.75 262.266 343.759 262.307 343.759 262.349C343.759 262.391 343.751 262.432 343.735 262.47C343.719 262.509 343.695 262.544 343.665 262.573C343.635 262.602 343.6 262.625 343.561 262.64C343.209 262.823 342.898 263.074 342.646 263.378C342.393 263.682 342.204 264.034 342.089 264.412C341.636 265.816 342.051 267.628 343.331 269.799C343.358 269.846 343.372 269.899 343.373 269.953C343.373 270.008 343.358 270.061 343.331 270.108C343.304 270.155 343.265 270.194 343.218 270.222C343.171 270.249 343.117 270.263 343.063 270.263V270.266Z" fill="#91B3FA"/>
<path fill-rule="evenodd" clip-rule="evenodd" d="M330.523 33.2126L331.359 31.7341L342.632 35.4199L330.523 33.2126ZM355.01 28.3389L345.268 34.7543L354.194 26.8899L355.01 28.3389ZM353.528 25.7104L345.053 34.3752L352.527 23.9286L353.528 25.7104ZM356.4 30.8074L345.454 35.0787L355.581 29.3499L356.4 30.8074ZM351.761 22.5638L344.784 33.895L350.594 20.4913L351.761 22.5638ZM349.592 18.7179L344.482 33.36L347.945 15.7945L349.592 18.7179ZM357.749 33.2126L345.64 35.4199L356.913 31.7341L357.749 33.2126ZM359.272 35.9085H344.473L358.329 34.2404L359.264 35.8959L359.272 35.9085ZM343.79 33.3516L340.169 16.1863L342.052 12.8627L343.79 33.3516ZM344.134 32.804L344.117 9L346.671 13.5241L344.134 32.804ZM329 35.9085H343.795L329.939 34.2404L329.004 35.8959L329 35.9085ZM334.599 26.0137L342.996 34.7501L333.718 27.5723L334.599 26.0137ZM336.511 22.648L343.215 34.3836L335.448 24.5267L336.511 22.648ZM332.89 29.034L342.814 35.0787L332.042 30.5336L332.89 29.034ZM338.866 18.4862L343.48 33.9034L337.55 20.8072L338.866 18.4862Z" fill="white"/>
<defs>
<linearGradient id="paint0_linear_41_1800" x1="36.7119" y1="238.801" x2="388.088" y2="238.801" gradientUnits="userSpaceOnUse">
<stop stop-color="#3F3D56"/>
<stop offset="1" stop-color="#545172"/>
</linearGradient>
<linearGradient id="paint1_linear_41_1800" x1="219.411" y1="150.056" x2="195.304" y2="383.641" gradientUnits="userSpaceOnUse">
<stop stop-color="#AAA3FF"/>
<stop offset="1" stop-color="#6C60FF"/>
</linearGradient>
<linearGradient id="paint2_linear_41_1800" x1="54.7999" y1="368.238" x2="63.7689" y2="394.315" gradientUnits="userSpaceOnUse">
<stop stop-color="#09005D"/>
<stop offset="1" stop-color="#1A0F91"/>
</linearGradient>
<linearGradient id="paint3_linear_41_1800" x1="56.1822" y1="352.911" x2="49.8322" y2="351.48" gradientUnits="userSpaceOnUse">
<stop stop-color="#FEBBBA"/>
<stop offset="1" stop-color="#FF928E"/>
</linearGradient>
<linearGradient id="paint4_linear_41_1800" x1="46.4126" y1="329.283" x2="86.1944" y2="329.283" gradientUnits="userSpaceOnUse">
<stop stop-color="#E1473D"/>
<stop offset="1" stop-color="#E9605A"/>
</linearGradient>
<linearGradient id="paint5_linear_41_1800" x1="59.111" y1="291.391" x2="54.7834" y2="328.93" gradientUnits="userSpaceOnUse">
<stop stop-color="#09005D"/>
<stop offset="1" stop-color="#1A0F91"/>
</linearGradient>
<linearGradient id="paint6_linear_41_1800" x1="55.6874" y1="367.398" x2="38.6136" y2="363.551" gradientUnits="userSpaceOnUse">
<stop stop-color="#4F52FF"/>
<stop offset="1" stop-color="#4042E2"/>
</linearGradient>
<linearGradient id="paint7_linear_41_1800" x1="59.4592" y1="359.778" x2="53.4996" y2="358.435" gradientUnits="userSpaceOnUse">
<stop stop-color="#FEBBBA"/>
<stop offset="1" stop-color="#FF928E"/>
</linearGradient>
<linearGradient id="paint8_linear_41_1800" x1="56.6484" y1="332.708" x2="105.983" y2="332.708" gradientUnits="userSpaceOnUse">
<stop stop-color="#E1473D"/>
<stop offset="1" stop-color="#E9605A"/>
</linearGradient>
<linearGradient id="paint9_linear_41_1800" x1="52.0909" y1="292.463" x2="31.3026" y2="287.779" gradientUnits="userSpaceOnUse">
<stop stop-color="#FEBBBA"/>
<stop offset="1" stop-color="#FF928E"/>
</linearGradient>
<linearGradient id="paint10_linear_41_1800" x1="83.5703" y1="260.368" x2="69.7776" y2="257.26" gradientUnits="userSpaceOnUse">
<stop stop-color="#FEBBBA"/>
<stop offset="1" stop-color="#FF928E"/>
</linearGradient>
<linearGradient id="paint11_linear_41_1800" x1="124.727" y1="242.539" x2="80.177" y2="346.642" gradientUnits="userSpaceOnUse">
<stop stop-color="#FEBBBA"/>
<stop offset="1" stop-color="#FF928E"/>
</linearGradient>
<linearGradient id="paint12_linear_41_1800" x1="67.189" y1="245.219" x2="85.4831" y2="272.8" gradientUnits="userSpaceOnUse">
<stop stop-color="#FEBBBA"/>
<stop offset="1" stop-color="#FF928E"/>
</linearGradient>
<linearGradient id="paint13_linear_41_1800" x1="80.0719" y1="244.428" x2="59.0495" y2="243.162" gradientUnits="userSpaceOnUse">
<stop stop-color="#09005D"/>
<stop offset="1" stop-color="#1A0F91"/>
</linearGradient>
<linearGradient id="paint14_linear_41_1800" x1="91.228" y1="264.81" x2="78.0343" y2="249.486" gradientUnits="userSpaceOnUse">
<stop stop-color="#FEBBBA"/>
<stop offset="1" stop-color="#FF928E"/>
</linearGradient>
<linearGradient id="paint15_linear_41_1800" x1="58.1454" y1="178.743" x2="57.5267" y2="221.243" gradientUnits="userSpaceOnUse">
<stop stop-color="#3F3D56"/>
<stop offset="1" stop-color="#545172"/>
</linearGradient>
<linearGradient id="paint16_linear_41_1800" x1="32.2155" y1="178.378" x2="31.5969" y2="220.873" gradientUnits="userSpaceOnUse">
<stop stop-color="#3F3D56"/>
<stop offset="1" stop-color="#545172"/>
</linearGradient>
<linearGradient id="paint17_linear_41_1800" x1="298.314" y1="172.446" x2="225.208" y2="113.558" gradientUnits="userSpaceOnUse">
<stop stop-color="#FEBBBA"/>
<stop offset="1" stop-color="#FF928E"/>
</linearGradient>
<linearGradient id="paint18_linear_41_1800" x1="234.503" y1="151.91" x2="257.021" y2="206.613" gradientUnits="userSpaceOnUse">
<stop stop-color="#09005D"/>
<stop offset="1" stop-color="#1A0F91"/>
</linearGradient>
<linearGradient id="paint19_linear_41_1800" x1="232.794" y1="130.443" x2="61.0225" y2="22.5127" gradientUnits="userSpaceOnUse">
<stop stop-color="#FEBBBA"/>
<stop offset="1" stop-color="#FF928E"/>
</linearGradient>
<linearGradient id="paint20_linear_41_1800" x1="244.484" y1="165.614" x2="277.387" y2="214.679" gradientUnits="userSpaceOnUse">
<stop stop-color="#09005D"/>
<stop offset="1" stop-color="#1A0F91"/>
</linearGradient>
<linearGradient id="paint21_linear_41_1800" x1="330.214" y1="155.95" x2="287.16" y2="94.3467" gradientUnits="userSpaceOnUse">
<stop stop-color="#4F52FF"/>
<stop offset="1" stop-color="#4042E2"/>
</linearGradient>
<linearGradient id="paint22_linear_41_1800" x1="278.509" y1="35.8657" x2="335.454" y2="108.462" gradientUnits="userSpaceOnUse">
<stop stop-color="#09005D"/>
<stop offset="1" stop-color="#1A0F91"/>
</linearGradient>
<linearGradient id="paint23_linear_41_1800" x1="276.375" y1="73.2284" x2="284.86" y2="104.74" gradientUnits="userSpaceOnUse">
<stop stop-color="#FEBBBA"/>
<stop offset="1" stop-color="#FF928E"/>
</linearGradient>
<linearGradient id="paint24_linear_41_1800" x1="-369.221" y1="-1369.93" x2="-356.226" y2="-1341.52" gradientUnits="userSpaceOnUse">
<stop stop-color="#FF928E"/>
<stop offset="1" stop-color="#FE7062"/>
</linearGradient>
<linearGradient id="paint25_linear_41_1800" x1="295.625" y1="82.9395" x2="296.776" y2="64.9542" gradientUnits="userSpaceOnUse">
<stop stop-color="#FEBBBA"/>
<stop offset="1" stop-color="#FF928E"/>
</linearGradient>
<linearGradient id="paint26_linear_41_1800" x1="297.346" y1="67.7451" x2="275.666" y2="26.1002" gradientUnits="userSpaceOnUse">
<stop stop-color="#FEBBBA"/>
<stop offset="1" stop-color="#FF928E"/>
</linearGradient>
<linearGradient id="paint27_linear_41_1800" x1="278.32" y1="36.014" x2="335.266" y2="108.609" gradientUnits="userSpaceOnUse">
<stop stop-color="#09005D"/>
<stop offset="1" stop-color="#1A0F91"/>
</linearGradient>
<linearGradient id="paint28_linear_41_1800" x1="302.339" y1="65.1475" x2="280.659" y2="23.4975" gradientUnits="userSpaceOnUse">
<stop stop-color="#FEBBBA"/>
<stop offset="1" stop-color="#FF928E"/>
</linearGradient>
<linearGradient id="paint29_linear_41_1800" x1="292.897" y1="95.2767" x2="255.794" y2="95.2767" gradientUnits="userSpaceOnUse">
<stop stop-color="#FEBBBA"/>
<stop offset="1" stop-color="#FF928E"/>
</linearGradient>
<linearGradient id="paint30_linear_41_1800" x1="273.865" y1="77.5571" x2="267.279" y2="85.1698" gradientUnits="userSpaceOnUse">
<stop stop-color="#09005D"/>
<stop offset="1" stop-color="#1A0F91"/>
</linearGradient>
<linearGradient id="paint31_linear_41_1800" x1="-360.521" y1="-1373.91" x2="-347.526" y2="-1345.49" gradientUnits="userSpaceOnUse">
<stop stop-color="#FF928E"/>
<stop offset="1" stop-color="#FE7062"/>
</linearGradient>
<linearGradient id="paint32_linear_41_1800" x1="266.934" y1="76.5579" x2="271.407" y2="93.1664" gradientUnits="userSpaceOnUse">
<stop stop-color="#FEBBBA"/>
<stop offset="1" stop-color="#FF928E"/>
</linearGradient>
<linearGradient id="paint33_linear_41_1800" x1="352.215" y1="296.181" x2="347.415" y2="341.946" gradientUnits="userSpaceOnUse">
<stop stop-color="#FEBBBA"/>
<stop offset="1" stop-color="#FF928E"/>
</linearGradient>
<linearGradient id="paint34_linear_41_1800" x1="350.807" y1="254.641" x2="338.588" y2="328.006" gradientUnits="userSpaceOnUse">
<stop stop-color="#FEBBBA"/>
<stop offset="1" stop-color="#FF928E"/>
</linearGradient>
<linearGradient id="paint35_linear_41_1800" x1="334.324" y1="280.633" x2="339.364" y2="289.897" gradientUnits="userSpaceOnUse">
<stop stop-color="#FEBBBA"/>
<stop offset="1" stop-color="#FF928E"/>
</linearGradient>
<linearGradient id="paint36_linear_41_1800" x1="303.623" y1="360.751" x2="293.531" y2="373.487" gradientUnits="userSpaceOnUse">
<stop stop-color="#09005D"/>
<stop offset="1" stop-color="#1A0F91"/>
</linearGradient>
<linearGradient id="paint37_linear_41_1800" x1="302.626" y1="360.68" x2="305.008" y2="366.119" gradientUnits="userSpaceOnUse">
<stop stop-color="#FEBBBA"/>
<stop offset="1" stop-color="#FF928E"/>
</linearGradient>
<linearGradient id="paint38_linear_41_1800" x1="278.06" y1="361.587" x2="280.82" y2="367.891" gradientUnits="userSpaceOnUse">
<stop stop-color="#FEBBBA"/>
<stop offset="1" stop-color="#FF928E"/>
</linearGradient>
<linearGradient id="paint39_linear_41_1800" x1="369.145" y1="290.349" x2="368.918" y2="307.716" gradientUnits="userSpaceOnUse">
<stop stop-color="#FEBBBA"/>
<stop offset="1" stop-color="#FF928E"/>
</linearGradient>
<linearGradient id="paint40_linear_41_1800" x1="359.559" y1="273.184" x2="342.793" y2="292.009" gradientUnits="userSpaceOnUse">
<stop stop-color="#FEBBBA"/>
<stop offset="1" stop-color="#FF928E"/>
</linearGradient>
<linearGradient id="paint41_linear_41_1800" x1="369.424" y1="245.748" x2="351.557" y2="279.453" gradientUnits="userSpaceOnUse">
<stop stop-color="#09005D"/>
<stop offset="1" stop-color="#1A0F91"/>
</linearGradient>
<linearGradient id="paint42_linear_41_1800" x1="364.222" y1="276.923" x2="358.851" y2="282.952" gradientUnits="userSpaceOnUse">
<stop stop-color="#FEBBBA"/>
<stop offset="1" stop-color="#FF928E"/>
</linearGradient>
<linearGradient id="paint43_linear_41_1800" x1="341.193" y1="307.213" x2="350.357" y2="367.875" gradientUnits="userSpaceOnUse">
<stop stop-color="#FEBBBA"/>
<stop offset="1" stop-color="#FF928E"/>
</linearGradient>
<linearGradient id="paint44_linear_41_1800" x1="408" y1="279.499" x2="366.194" y2="333.648" gradientUnits="userSpaceOnUse">
<stop stop-color="#5C50E5"/>
<stop offset="1" stop-color="#3429BA"/>
</linearGradient>
<linearGradient id="paint45_linear_41_1800" x1="270.211" y1="361.441" x2="273.64" y2="373.509" gradientUnits="userSpaceOnUse">
<stop stop-color="#09005D"/>
<stop offset="1" stop-color="#1A0F91"/>
</linearGradient>
<linearGradient id="paint46_linear_41_1800" x1="317.769" y1="277.949" x2="360.22" y2="303.728" gradientUnits="userSpaceOnUse">
<stop stop-color="#09005D"/>
<stop offset="1" stop-color="#1A0F91"/>
</linearGradient>
<linearGradient id="paint47_linear_41_1800" x1="328.78" y1="272.955" x2="329.863" y2="274.672" gradientUnits="userSpaceOnUse">
<stop stop-color="#8D55D1"/>
<stop offset="1" stop-color="#1C2873"/>
</linearGradient>
<linearGradient id="paint48_linear_41_1800" x1="330.485" y1="308.83" x2="339.648" y2="369.492" gradientUnits="userSpaceOnUse">
<stop stop-color="#FEBBBA"/>
<stop offset="1" stop-color="#FF928E"/>
</linearGradient>
<linearGradient id="paint49_linear_41_1800" x1="338.702" y1="288.906" x2="341.589" y2="288.906" gradientUnits="userSpaceOnUse">
<stop stop-color="#FEBBBA"/>
<stop offset="1" stop-color="#FF928E"/>
</linearGradient>
<clipPath id="clip0_41_1800">
<rect width="18" height="18" fill="white" transform="translate(18 229.999)"/>
</clipPath>
</defs>
</svg>
