<svg width="1404" height="1250" viewBox="0 0 1404 1250" fill="none" xmlns="http://www.w3.org/2000/svg">
<path fill-rule="evenodd" clip-rule="evenodd" d="M70.6319 1124.77L109.403 1056.08L632.232 1227.3L70.6319 1124.77ZM1206.31 898.364L754.494 1196.38L1168.5 831.05L1206.31 898.364ZM1137.59 776.26L744.513 1178.77L1091.15 693.488L1137.59 776.26ZM1270.8 1013.03L763.131 1211.45L1232.79 945.327L1270.8 1013.03ZM1055.64 630.088L732.038 1156.47L1001.51 533.813L1055.64 630.088ZM955.065 451.432L718.026 1131.61L878.676 315.631L955.065 451.432ZM1333.37 1124.77L771.768 1227.3L1294.6 1056.08L1333.37 1124.77ZM1404 1250H717.643L1360.24 1172.51L1403.62 1249.41L1404 1250ZM685.973 1131.22L518.031 333.829L605.361 179.438L685.973 1131.22ZM701.904 1105.78L701.136 0L819.56 210.16L701.904 1105.78ZM0 1250H686.165L43.5691 1172.51L0.191902 1249.41L0 1250ZM259.687 790.349L649.122 1196.19L218.805 862.75L259.687 790.349ZM348.361 634.001L659.295 1179.16L299.034 721.274L348.361 634.001ZM180.418 930.651L640.677 1211.45L141.072 1000.31L180.418 930.651ZM457.571 440.67L671.578 1156.86L396.536 548.489L457.571 440.67Z" fill="#FCFCFE"/>
</svg>
