<svg width="226" height="69" viewBox="0 0 226 69" fill="none" xmlns="http://www.w3.org/2000/svg">
<path d="M21.0699 57.906C18.3303 57.906 15.9533 57.483 13.939 56.6369C11.9246 55.7909 10.2728 54.6427 8.9836 53.1923C7.6944 51.7017 6.7275 49.9492 6.0829 47.9348C5.47858 45.9204 5.17643 43.7449 5.17643 41.4082V15.1206H11.0383V40.7435C11.0383 44.9334 11.9649 47.9751 13.8181 49.8686C15.6713 51.7621 18.0886 52.7089 21.0699 52.7089C22.5605 52.7089 23.9101 52.4873 25.1188 52.0441C26.3677 51.5607 27.4353 50.8355 28.3216 49.8686C29.2079 48.9017 29.8928 47.673 30.3763 46.1823C30.8597 44.6514 31.1015 42.8384 31.1015 40.7435V15.1206H36.9633V41.4082C36.9633 43.7449 36.641 45.9204 35.9964 47.9348C35.3921 49.9492 34.4252 51.7017 33.0957 53.1923C31.8065 54.6427 30.1547 55.7909 28.1403 56.6369C26.1662 57.483 23.8094 57.906 21.0699 57.906ZM46.7215 26.4817C48.0107 26.1594 49.7229 25.817 51.8582 25.4544C53.9934 25.0918 56.451 24.9105 59.2308 24.9105C61.7286 24.9105 63.8034 25.2731 65.4552 25.9983C67.107 26.6832 68.4164 27.6702 69.3833 28.9594C70.3904 30.2083 71.0955 31.7191 71.4983 33.4917C71.9012 35.2644 72.1027 37.2183 72.1027 39.3536V56.9995H66.4825V40.5622C66.4825 38.6284 66.3415 36.9766 66.0595 35.6068C65.8178 34.2371 65.3948 33.1292 64.7905 32.2831C64.1862 31.4371 63.3804 30.8328 62.3732 30.4702C61.366 30.0673 60.1171 29.8659 58.6265 29.8659C58.0222 29.8659 57.3977 29.886 56.7531 29.9263C56.1085 29.9666 55.4841 30.027 54.8797 30.1076C54.3157 30.1479 53.792 30.2083 53.3085 30.2889C52.8654 30.3695 52.5431 30.4299 52.3416 30.4702V56.9995H46.7215V26.4817ZM87.0424 56.9995H81.4223V25.5752H87.0424V56.9995ZM84.2021 19.8947C83.1949 19.8947 82.3288 19.5724 81.6036 18.9278C80.9187 18.2429 80.5763 17.3364 80.5763 16.2084C80.5763 15.0803 80.9187 14.194 81.6036 13.5494C82.3288 12.8645 83.1949 12.5221 84.2021 12.5221C85.2093 12.5221 86.0554 12.8645 86.7402 13.5494C87.4654 14.194 87.828 15.0803 87.828 16.2084C87.828 17.3364 87.4654 18.2429 86.7402 18.9278C86.0554 19.5724 85.2093 19.8947 84.2021 19.8947ZM104.019 52.9506C106.316 52.9506 108.008 52.6485 109.096 52.0441C110.224 51.4398 110.788 50.4729 110.788 49.1434C110.788 47.7737 110.244 46.6859 109.156 45.8802C108.068 45.0744 106.275 44.1679 103.778 43.1607C102.569 42.6773 101.401 42.1938 100.273 41.7104C99.1848 41.1867 98.2381 40.5823 97.4323 39.8975C96.6266 39.2126 95.982 38.3867 95.4985 37.4198C95.0151 36.4529 94.7734 35.2644 94.7734 33.8543C94.7734 31.0745 95.8007 28.8788 97.8554 27.2673C99.91 25.6155 102.71 24.7896 106.255 24.7896C107.142 24.7896 108.028 24.8501 108.914 24.9709C109.801 25.0515 110.627 25.1724 111.392 25.3335C112.157 25.4544 112.822 25.5954 113.386 25.7565C113.991 25.9177 114.454 26.0587 114.776 26.1796L113.749 31.0141C113.144 30.6918 112.198 30.3695 110.909 30.0472C109.619 29.6846 108.068 29.5033 106.255 29.5033C104.684 29.5033 103.314 29.8256 102.146 30.4702C100.978 31.0745 100.393 32.0414 100.393 33.3709C100.393 34.0558 100.514 34.6601 100.756 35.1838C101.038 35.7076 101.441 36.191 101.965 36.6342C102.529 37.037 103.214 37.4198 104.019 37.7824C104.825 38.145 105.792 38.5277 106.92 38.9306C108.411 39.4946 109.74 40.0586 110.909 40.6226C112.077 41.1464 113.064 41.7708 113.87 42.496C114.716 43.2212 115.36 44.1075 115.803 45.155C116.247 46.1622 116.468 47.4111 116.468 48.9017C116.468 51.8024 115.38 53.9981 113.205 55.4887C111.07 56.9794 108.008 57.7247 104.019 57.7247C101.24 57.7247 99.064 57.483 97.4928 56.9995C95.9216 56.5563 94.8539 56.2139 94.2899 55.9722L95.3172 51.1377C95.9618 51.3794 96.9892 51.742 98.3992 52.2254C99.8093 52.7089 101.683 52.9506 104.019 52.9506ZM135.038 39.7162C136.247 40.6428 137.516 41.791 138.845 43.1607C140.215 44.5305 141.544 46.0212 142.834 47.6327C144.163 49.2039 145.412 50.8154 146.58 52.4672C147.749 54.0787 148.736 55.5894 149.542 56.9995H142.955C142.109 55.5894 141.121 54.1592 139.993 52.7089C138.906 51.2183 137.757 49.8082 136.549 48.4787C135.34 47.1089 134.111 45.86 132.863 44.732C131.614 43.6039 130.425 42.6572 129.297 41.8917V56.9995H123.677V11.0717L129.297 10.1048V38.7493C130.264 37.7824 131.332 36.7147 132.5 35.5464C133.668 34.3781 134.816 33.1896 135.945 31.981C137.073 30.7723 138.14 29.6241 139.147 28.5364C140.155 27.4083 141.021 26.4213 141.746 25.5752H148.333C147.406 26.5824 146.399 27.6903 145.311 28.899C144.224 30.1076 143.096 31.3364 141.927 32.5853C140.759 33.7939 139.57 35.0227 138.362 36.2716C137.193 37.4802 136.086 38.6284 135.038 39.7162ZM160.87 56.9995H155.25V25.5752H160.87V56.9995ZM158.03 19.8947C157.023 19.8947 156.156 19.5724 155.431 18.9278C154.746 18.2429 154.404 17.3364 154.404 16.2084C154.404 15.0803 154.746 14.194 155.431 13.5494C156.156 12.8645 157.023 12.5221 158.03 12.5221C159.037 12.5221 159.883 12.8645 160.568 13.5494C161.293 14.194 161.656 15.0803 161.656 16.2084C161.656 17.3364 161.293 18.2429 160.568 18.9278C159.883 19.5724 159.037 19.8947 158.03 19.8947ZM179.962 57.6038C176.497 57.5232 174.04 56.7779 172.589 55.3679C171.139 53.9578 170.414 51.7621 170.414 48.7809V11.0717L176.034 10.1048V47.8744C176.034 48.801 176.115 49.5665 176.276 50.1708C176.437 50.7751 176.699 51.2585 177.061 51.6211C177.424 51.9837 177.907 52.2657 178.512 52.4672C179.116 52.6283 179.861 52.7693 180.748 52.8902L179.962 57.6038ZM196.486 57.6038C193.022 57.5232 190.564 56.7779 189.114 55.3679C187.663 53.9578 186.938 51.7621 186.938 48.7809V11.0717L192.558 10.1048V47.8744C192.558 48.801 192.639 49.5665 192.8 50.1708C192.961 50.7751 193.223 51.2585 193.586 51.6211C193.948 51.9837 194.432 52.2657 195.036 52.4672C195.64 52.6283 196.386 52.7693 197.272 52.8902L196.486 57.6038ZM210.895 52.9506C213.192 52.9506 214.884 52.6485 215.972 52.0441C217.1 51.4398 217.664 50.4729 217.664 49.1434C217.664 47.7737 217.12 46.6859 216.032 45.8802C214.944 45.0744 213.151 44.1679 210.654 43.1607C209.445 42.6773 208.277 42.1938 207.149 41.7104C206.061 41.1867 205.114 40.5823 204.308 39.8975C203.503 39.2126 202.858 38.3867 202.375 37.4198C201.891 36.4529 201.649 35.2644 201.649 33.8543C201.649 31.0745 202.677 28.8788 204.731 27.2673C206.786 25.6155 209.586 24.7896 213.131 24.7896C214.018 24.7896 214.904 24.8501 215.79 24.9709C216.677 25.0515 217.503 25.1724 218.268 25.3335C219.033 25.4544 219.698 25.5954 220.262 25.7565C220.867 25.9177 221.33 26.0587 221.652 26.1796L220.625 31.0141C220.02 30.6918 219.074 30.3695 217.785 30.0472C216.495 29.6846 214.944 29.5033 213.131 29.5033C211.56 29.5033 210.19 29.8256 209.022 30.4702C207.854 31.0745 207.269 32.0414 207.269 33.3709C207.269 34.0558 207.39 34.6601 207.632 35.1838C207.914 35.7076 208.317 36.191 208.841 36.6342C209.405 37.037 210.09 37.4198 210.895 37.7824C211.701 38.145 212.668 38.5277 213.796 38.9306C215.287 39.4946 216.616 40.0586 217.785 40.6226C218.953 41.1464 219.94 41.7708 220.746 42.496C221.592 43.2212 222.236 44.1075 222.679 45.155C223.123 46.1622 223.344 47.4111 223.344 48.9017C223.344 51.8024 222.256 53.9981 220.081 55.4887C217.946 56.9794 214.884 57.7247 210.895 57.7247C208.116 57.7247 205.94 57.483 204.369 56.9995C202.798 56.5563 201.73 56.2139 201.166 55.9722L202.193 51.1377C202.838 51.3794 203.865 51.742 205.275 52.2254C206.685 52.7089 208.559 52.9506 210.895 52.9506Z" fill="url(#paint0_linear_41_1621)"/>
<defs>
<linearGradient id="paint0_linear_41_1621" x1="0" y1="-0.000488281" x2="189.219" y2="205.633" gradientUnits="userSpaceOnUse">
<stop stop-color="#5C51E5"/>
<stop offset="1" stop-color="#ED2F3A"/>
</linearGradient>
</defs>
</svg>
