<svg width="373" height="374" viewBox="0 0 373 374" fill="none" xmlns="http://www.w3.org/2000/svg">
<path d="M218.653 207.083C213.157 205.239 207.853 202.875 202.813 200.023C199.601 202.199 196.259 204.18 192.805 205.954C189.313 207.805 185.623 209.265 181.805 210.306L182.961 218.836C185.536 221.734 188.42 224.993 191.359 228.234C196.89 226.275 213.103 216.155 213.103 216.155C215.483 219.52 219.059 221.865 223.111 222.718C222.965 217.655 222.223 212.626 220.901 207.733L218.653 207.083Z" fill="#CA8F78"/>
<path d="M215.905 170.612C215.905 170.612 226.751 171.407 234.721 170.053C230.981 166.232 226.944 162.71 222.647 159.518L200.393 174.729L197.181 183.169L201.794 189.886C204.401 187.478 206.757 184.817 208.827 181.942C211.432 178.322 213.797 174.538 215.905 170.612Z" fill="#CA8F78"/>
<path d="M264.053 239.924L265.381 242.704L277.973 236.602L264.053 239.924Z" fill="#1ABC9C"/>
<path d="M129.726 219.796C131.596 222.775 134.46 227.798 137.774 233.62C148.739 252.862 165.311 281.944 176.959 292.522C184.496 299.391 194.215 306.698 202.799 313.172C211.592 319.801 219.899 326.052 223.871 330.345C231.66 338.708 237.078 351.113 237.243 351.457H343.451C343.053 350.761 309.475 294.248 304.023 279.591C302.232 274.8 301.306 265.982 300.233 255.764C297.931 233.869 285.66 203.121 271.77 183.432C252.368 155.93 223.543 141.428 209.22 138.655C208.326 138.502 207.419 138.43 206.512 138.44C192.155 138.44 152.105 152.367 149.587 154.187C148.497 155.398 149.587 164.491 152.287 171.764C154.191 176.975 157.479 183.183 162.542 183.183C163.127 183.183 163.71 183.102 164.272 182.943C173.87 180.298 182.593 177.868 185.448 177.079L186.383 176.812L187.101 177.474C190.724 180.634 195.085 182.847 199.788 183.913C206.841 185.631 202.289 189.786 203.907 190.035L204.729 190.164L205.136 190.885C207.282 194.612 226.969 210.823 225.524 229.816C224.027 249.384 214.465 251.496 210.415 251.496C209.493 251.504 208.574 251.394 207.68 251.17L207.438 251.093C204.963 250.054 196.127 240.411 178.473 220.534C168.692 209.515 154.747 186.687 137.203 186.687C117.401 186.687 123.009 209.111 129.726 219.796Z" fill="#FFC312"/>
<path d="M243.553 11.1622L152.951 56.8139L132.603 118.116L30.9435 139.806L13.1273 188.067L64.2013 176.759L99.9526 216.483L258.946 267.677L305.259 250.902L232.714 215.493L223.166 196.499L265.659 62.9973L221.342 83.3889L243.553 11.1622Z" fill="#1ABC9C"/>
<path fill-rule="evenodd" clip-rule="evenodd" d="M258.943 267.676L204.065 158.569L228.2 80.2335L221.342 83.3889L243.553 11.1622L243.462 11.2079L200.341 151.165L152.924 56.8926L150.371 64.5862L251.278 265.208L258.943 267.676ZM95.4523 211.483L99.8678 216.389L132.561 118.125L126.051 119.514L95.4523 211.483ZM64.1738 176.766L30.9563 139.803L30.9434 139.806L28.7014 145.879L57.7389 178.19L64.1738 176.766Z" fill="#F6FBFE"/>
<path d="M211.009 252.238L207.438 251.093C204.963 250.054 196.127 240.412 178.473 220.534C176.578 218.398 174.525 215.819 172.321 213.048C163.151 201.523 151.347 186.687 137.203 186.687C117.401 186.687 123.009 209.111 129.726 219.796C131.596 222.775 134.46 227.798 137.774 233.62C148.739 252.862 165.311 281.944 176.959 292.522C184.361 299.268 193.866 306.436 202.336 312.823L203.047 313.359C211.747 319.918 219.937 326.092 223.871 330.345C231.305 338.327 236.58 349.992 237.188 351.337C237.217 351.401 237.235 351.441 237.243 351.457H343.451C343.428 351.416 343.288 351.179 343.045 350.767C339.178 344.22 309.152 293.381 304.023 279.591C300.345 269.752 232.075 290.02 223.871 286.215C201.344 275.766 222.912 260.244 211.009 252.238Z" fill="#FFC312"/>
<path d="M223.345 336.796L230.032 353.569C230.453 354.687 231.522 355.427 232.717 355.427L347.495 355.427C349.712 355.427 351.092 353.021 349.971 351.108L323.119 308.971C322.466 307.856 321.148 307.316 319.9 307.65L225.287 333.014C223.649 333.453 222.747 335.209 223.345 336.796Z" fill="#E74C3C"/>
<path d="M131.603 193.258C123.797 200.657 130.627 216.92 137.052 218.546C143.476 220.172 157.461 211.228 155.347 204.398C153.233 197.567 139.41 185.858 131.603 193.258Z" fill="#FEF6F2"/>
</svg>
