<svg width="399" height="269" viewBox="0 0 399 269" fill="none" xmlns="http://www.w3.org/2000/svg">
<path d="M365.237 207.087L305.033 178.44L304.625 178.246H304.174H160.876C159.039 178.246 157.222 177.904 155.53 177.241C153.839 176.579 152.309 175.611 151.025 174.398C149.742 173.185 148.73 171.751 148.042 170.181C147.354 168.611 147.002 166.934 147.002 165.242V15.1767C147.002 13.4851 147.354 11.8072 148.042 10.2377C148.73 8.66787 149.742 7.23392 151.025 6.02085C152.309 4.80756 153.839 3.83957 155.53 3.17731C157.222 2.51499 159.039 2.17285 160.876 2.17285H382.661L382.716 2.19859L383.161 2.20012C386.867 2.21286 390.396 3.61425 392.979 6.06488C395.558 8.5119 396.984 11.8007 396.984 15.2039V165.242C396.984 168.653 395.552 171.949 392.961 174.398C390.367 176.85 386.825 178.246 383.11 178.246H367.237H365.237V180.246V207.087Z" fill="white" stroke="#1CBB9B" stroke-width="4"/>
<path d="M34.5141 238.003V265.651L96.2374 236.198L96.646 236.003H97.0987H282.248C284.135 236.003 286.001 235.65 287.738 234.968L288.469 236.83L287.738 234.968C289.476 234.286 291.048 233.289 292.368 232.038C293.687 230.787 294.727 229.309 295.435 227.689C296.143 226.07 296.505 224.339 296.505 222.593V68.4723C296.505 66.7267 296.143 64.9954 295.435 63.3763C294.727 61.7569 293.687 60.2782 292.368 59.0278C291.048 57.7772 289.476 56.7798 287.738 56.0976C286.001 55.4153 284.135 55.063 282.248 55.063H16.7071L16.6512 55.0895L16.2049 55.091C12.3992 55.1041 8.77435 56.5472 6.1192 59.0731C3.46762 61.5956 2.00003 64.9879 2.00006 68.5003V222.593C2.00006 226.114 3.47461 229.514 6.13748 232.038C8.80399 234.565 12.4424 236.003 16.2571 236.003H32.5141H34.5141V238.003Z" fill="white" stroke="#EFB118" stroke-width="4"/>
<path d="M254.775 66.5639L112.622 210.714C109.343 218.425 113.823 221.535 116.473 222.125L181.861 241.221C198.915 247.194 204.929 241.887 208.423 238.804L208.485 238.749C242.909 203.07 325.327 117.039 344.817 96.6908C347.465 93.9261 348.629 90.1005 347.999 86.3242C329.214 80.4356 287.425 67.6178 275.299 63.6405C263.172 59.6632 256.564 63.9322 254.775 66.5639Z" fill="#BFD2DC"/>
<rect x="109.597" y="200.756" width="12.193" height="17.2734" transform="rotate(-6.63896 109.597 200.756)" fill="#BFD2DC"/>
<path d="M334.409 74.8411C334.209 73.128 335.436 71.5776 337.149 71.3782L343.057 70.6906C344.77 70.4912 346.32 71.7183 346.52 73.4314L348.087 86.8967C348.287 88.6098 347.059 90.1602 345.346 90.3596L339.439 91.0472C337.726 91.2466 336.175 90.0195 335.976 88.3064L334.409 74.8411Z" fill="#BFD2DC"/>
<path d="M252.662 50.851L110.508 195.001C107.23 202.712 111.71 205.822 114.36 206.413L179.748 225.508C196.902 231.516 203.499 226.014 206.372 223.037C245.548 182.431 326.648 100.112 339.146 86.1457C351.645 72.179 344.699 70.5651 344.699 70.5651C344.699 70.5651 285.312 51.9049 273.185 47.9276C261.059 43.9504 254.45 48.2193 252.662 50.851Z" fill="#E4F5FF"/>
<path d="M190.889 199.594C195.341 200.848 198.037 205.361 197.032 209.876C195.944 214.758 190.979 217.725 186.164 216.369L136.53 202.391C132.078 201.137 129.381 196.624 130.387 192.109C131.474 187.227 136.439 184.26 141.254 185.616L190.889 199.594Z" fill="#0FB998"/>
<path d="M204.31 151.658C206.038 152.211 207.033 154.017 206.577 155.773C206.084 157.672 204.097 158.767 202.229 158.169L182.964 152.011C181.236 151.458 180.24 149.652 180.696 147.896C181.19 145.997 183.176 144.902 185.045 145.5L204.31 151.658Z" fill="#0FB998" fill-opacity="0.24"/>
<path d="M214.114 171.596C215.773 172.126 216.768 173.819 216.424 175.526C216.021 177.523 213.973 178.727 212.033 178.107L166.918 163.684C165.259 163.154 164.264 161.461 164.608 159.754C165.011 157.757 167.059 156.553 169 157.173L214.114 171.596Z" fill="#0FB998" fill-opacity="0.24"/>
<path d="M246.914 148.128C248.56 148.654 249.555 150.327 249.23 152.025C248.845 154.039 246.786 155.263 244.832 154.639L195.029 138.718C193.382 138.191 192.388 136.518 192.712 134.82C193.098 132.806 195.157 131.582 197.11 132.207L246.914 148.128Z" fill="#0FB998" fill-opacity="0.24"/>
<path d="M267.062 113.778C268.738 114.314 269.733 116.036 269.362 117.756C268.935 119.728 266.902 120.904 264.98 120.289L226.432 107.966C224.755 107.43 223.76 105.709 224.132 103.989C224.558 102.016 226.591 100.841 228.513 101.455L267.062 113.778Z" fill="#0FB998" fill-opacity="0.24"/>
<path d="M314.036 70.9556C315.707 71.5061 316.688 73.236 316.301 74.953C315.857 76.9215 313.814 78.0794 311.897 77.4482L273.458 64.7891C271.787 64.2386 270.806 62.5087 271.193 60.7918C271.636 58.8232 273.68 57.6653 275.596 58.2965L314.036 70.9556Z" fill="#BFD2DC"/>
<path d="M289.914 104.951C291.56 105.477 292.555 107.15 292.23 108.848C291.845 110.862 289.786 112.087 287.832 111.462L238.029 95.5408C236.382 95.0144 235.388 93.3415 235.712 91.6436C236.098 89.6295 238.157 88.4054 240.11 89.0298L289.914 104.951Z" fill="#0FB998" fill-opacity="0.24"/>
<path d="M157.227 97.5282C147.858 102.195 131.112 98.5197 123.977 96.4246C122.396 95.9605 120.666 96.7334 120.055 98.2637C116.641 106.825 110.819 121.128 108.191 126.492C105.56 131.86 95.3459 145.637 89.0502 153.841C87.9675 155.252 88.3283 157.268 89.875 158.146C99.4679 163.591 123.002 175.792 123.771 176.08C124.851 176.485 173.895 136.01 181.888 128.515C187.788 122.984 191.824 111.08 198.521 106.674C199.526 106.013 200.197 104.903 200.712 103.816C205.514 93.6712 246.783 89.8252 221.63 86.8966C204.3 84.8789 178.846 86.7599 157.227 97.5282Z" fill="#FEF6F2" stroke="white" stroke-width="4" stroke-linecap="round" stroke-linejoin="round"/>
<path fill-rule="evenodd" clip-rule="evenodd" d="M176.955 85.5666C184.347 80.8399 190.637 76.8176 193.291 76.4931C198.26 75.8854 232.396 74.8728 235.636 77.5058C238.877 80.1387 258.754 113.76 257.457 118.621C256.161 123.482 240.173 128.343 230.883 118.621C225.452 112.937 222.138 109.422 220.551 106.94C219.741 105.674 218.36 104.63 216.86 104.722L200.211 105.737C199.952 105.753 199.715 105.796 199.469 105.877C199.254 105.948 199.035 106.019 198.812 106.091C198.59 106.32 198.347 106.527 198.08 106.702C194.347 109.157 191.442 113.94 188.579 118.651C186.305 122.395 184.057 126.094 181.445 128.544C173.451 136.037 126.58 178.229 125.499 177.824C124.728 177.535 99.3289 163.902 89.4113 158.184C87.8703 157.296 87.5116 155.28 88.5945 153.869C94.891 145.665 105.107 131.888 107.737 126.52C110.366 121.156 116.189 106.854 119.604 98.2924C120.214 96.7623 121.944 95.9894 123.525 96.4535C130.623 98.5374 147.235 102.185 156.632 97.63C156.681 97.6057 156.73 97.5814 156.779 97.557C163.221 94.3487 170.507 89.6897 176.955 85.5666Z" fill="#FFC312"/>
<path d="M193.291 76.4931L193.048 74.5078L193.048 74.5078L193.291 76.4931ZM176.955 85.5666L175.877 83.8816V83.8816L176.955 85.5666ZM235.636 77.5058L236.897 75.9535L235.636 77.5058ZM257.457 118.621L255.525 118.106V118.106L257.457 118.621ZM230.883 118.621L232.329 117.239L230.883 118.621ZM220.551 106.94L222.236 105.863L222.236 105.863L220.551 106.94ZM216.86 104.722L216.738 102.725L216.86 104.722ZM200.211 105.737L200.333 107.733H200.333L200.211 105.737ZM199.469 105.877L200.093 107.777L200.093 107.777L199.469 105.877ZM198.812 106.091L198.199 104.187C197.887 104.288 197.605 104.463 197.377 104.698L198.812 106.091ZM198.08 106.702L199.179 108.373V108.373L198.08 106.702ZM188.579 118.651L186.87 117.613V117.613L188.579 118.651ZM181.445 128.544L182.812 130.003L181.445 128.544ZM125.499 177.824L124.797 179.697H124.797L125.499 177.824ZM89.4113 158.184L88.4124 159.917H88.4124L89.4113 158.184ZM88.5945 153.869L87.0079 152.651L87.0079 152.651L88.5945 153.869ZM107.737 126.52L105.942 125.64L107.737 126.52ZM119.604 98.2924L121.461 99.0333L119.604 98.2924ZM123.525 96.4535L122.961 98.3725L123.525 96.4535ZM156.632 97.63L157.505 99.4298C157.511 99.4265 157.518 99.4232 157.524 99.4199L156.632 97.63ZM156.779 97.557L155.887 95.7667L155.887 95.7668L156.779 97.557ZM193.048 74.5078C192.063 74.6283 190.939 75.052 189.822 75.5664C188.662 76.1001 187.336 76.8155 185.898 77.648C183.023 79.312 179.56 81.5265 175.877 83.8816L178.032 87.2516C181.741 84.88 185.12 82.7199 187.901 81.11C189.291 80.3055 190.497 79.6591 191.495 79.1997C192.534 78.7209 193.192 78.52 193.534 78.4783L193.048 74.5078ZM236.897 75.9535C236.402 75.5508 235.793 75.3092 235.29 75.1486C234.745 74.9748 234.116 74.8325 233.441 74.7123C232.088 74.4715 230.39 74.2914 228.493 74.1563C224.691 73.8856 219.911 73.7842 215.112 73.7842C205.553 73.7842 195.667 74.1876 193.048 74.5078L193.534 78.4783C195.884 78.1909 205.55 77.7842 215.112 77.7842C219.873 77.7842 224.545 77.8853 228.209 78.1462C230.046 78.277 231.586 78.445 232.74 78.6504C233.318 78.7533 233.759 78.8587 234.073 78.959C234.429 79.0726 234.466 79.1316 234.375 79.058L236.897 75.9535ZM259.39 119.136C259.575 118.443 259.53 117.708 259.44 117.098C259.345 116.448 259.167 115.731 258.937 114.981C258.477 113.479 257.757 111.672 256.876 109.701C255.111 105.748 252.615 100.95 249.995 96.2534C247.372 91.552 244.603 86.916 242.281 83.2804C241.12 81.4643 240.061 79.8819 239.18 78.6596C238.358 77.5187 237.544 76.4786 236.897 75.9535L234.375 79.058C234.375 79.0579 234.389 79.0693 234.418 79.0972C234.447 79.1244 234.484 79.162 234.531 79.2119C234.626 79.3125 234.744 79.4473 234.887 79.6203C235.173 79.9671 235.524 80.428 235.935 80.9985C236.756 82.1377 237.771 83.652 238.91 85.434C241.185 88.9949 243.913 93.5617 246.502 98.2023C249.094 102.848 251.526 107.531 253.224 111.332C254.075 113.237 254.721 114.875 255.112 116.153C255.308 116.792 255.427 117.299 255.482 117.677C255.543 118.094 255.502 118.192 255.525 118.106L259.39 119.136ZM229.437 120.003C234.63 125.437 241.64 126.734 247.395 126.077C250.277 125.747 252.938 124.921 255.016 123.798C256.985 122.733 258.848 121.168 259.39 119.136L255.525 118.106C255.418 118.504 254.796 119.37 253.113 120.279C251.538 121.131 249.379 121.824 246.941 122.102C242.055 122.66 236.427 121.527 232.329 117.239L229.437 120.003ZM218.866 108.018C220.585 110.707 224.08 114.396 229.437 120.003L232.329 117.239C226.824 111.478 223.69 108.137 222.236 105.863L218.866 108.018ZM216.982 106.718C217.473 106.688 218.264 107.077 218.866 108.018L222.236 105.863C221.218 104.271 219.248 102.572 216.738 102.725L216.982 106.718ZM200.333 107.733L216.982 106.718L216.738 102.725L200.09 103.741L200.333 107.733ZM200.093 107.777C200.166 107.753 200.233 107.74 200.333 107.733L200.09 103.741C199.671 103.766 199.265 103.839 198.845 103.977L200.093 107.777ZM199.426 107.994C199.652 107.921 199.874 107.849 200.093 107.777L198.845 103.977C198.633 104.046 198.418 104.117 198.199 104.187L199.426 107.994ZM199.179 108.373C199.583 108.108 199.937 107.804 200.248 107.484L197.377 104.698C197.242 104.837 197.11 104.947 196.981 105.032L199.179 108.373ZM190.289 119.69C191.73 117.318 193.124 115.026 194.61 113.022C196.098 111.015 197.594 109.416 199.179 108.373L196.981 105.032C194.833 106.444 193.01 108.464 191.397 110.64C189.781 112.819 188.291 115.274 186.87 117.613L190.289 119.69ZM182.812 130.003C185.667 127.327 188.059 123.36 190.289 119.69L186.87 117.613C184.55 121.431 182.448 124.861 180.077 127.084L182.812 130.003ZM124.797 179.697C125.251 179.867 125.643 179.83 125.816 179.806C126.015 179.777 126.173 179.726 126.268 179.692C126.457 179.623 126.616 179.537 126.716 179.481C126.929 179.361 127.159 179.205 127.379 179.048C127.833 178.724 128.432 178.259 129.141 177.687C130.567 176.537 132.537 174.877 134.876 172.865C139.56 168.839 145.78 163.36 152.209 157.64C165.061 146.206 178.795 133.769 182.812 130.003L180.077 127.084C176.101 130.812 162.401 143.218 149.55 154.652C143.127 160.366 136.927 165.828 132.269 169.832C129.937 171.837 128.006 173.464 126.63 174.574C125.938 175.132 125.412 175.538 125.056 175.792C124.872 175.923 124.777 175.983 124.748 175.999C124.727 176.01 124.787 175.974 124.899 175.933C124.954 175.913 125.079 175.87 125.25 175.846C125.395 175.825 125.765 175.788 126.202 175.952L124.797 179.697ZM88.4124 159.917C93.3975 162.791 102.249 167.64 109.933 171.799C113.779 173.88 117.341 175.792 119.99 177.203C121.314 177.908 122.413 178.489 123.208 178.904C123.604 179.112 123.93 179.28 124.171 179.402C124.347 179.492 124.617 179.63 124.797 179.697L126.202 175.952C126.285 175.983 126.266 175.98 125.981 175.835C125.761 175.724 125.452 175.564 125.06 175.359C124.279 174.951 123.19 174.375 121.87 173.672C119.23 172.267 115.677 170.359 111.837 168.281C104.15 164.121 95.3427 159.295 90.4101 156.452L88.4124 159.917ZM87.0079 152.651C85.2213 154.979 85.7786 158.399 88.4124 159.917L90.4101 156.452C89.962 156.193 89.8018 155.58 90.1811 155.086L87.0079 152.651ZM105.942 125.64C104.712 128.149 101.602 132.8 97.9129 137.969C94.2607 143.085 90.1475 148.56 87.0079 152.651L90.1811 155.086C93.3381 150.973 97.4809 145.458 101.168 140.293C104.819 135.18 108.133 130.258 109.533 127.4L105.942 125.64ZM117.746 97.5514C114.32 106.142 108.529 120.361 105.942 125.64L109.533 127.4C112.204 121.952 118.058 107.566 121.461 99.0333L117.746 97.5514ZM124.088 94.5345C121.587 93.8002 118.765 94.9968 117.746 97.5514L121.461 99.0333C121.663 98.5278 122.301 98.1786 122.961 98.3725L124.088 94.5345ZM155.76 95.8303C151.578 97.8576 145.541 98.1357 139.409 97.5408C133.356 96.9534 127.557 95.5528 124.088 94.5345L122.961 98.3725C126.591 99.4381 132.647 100.903 139.023 101.522C145.322 102.133 152.289 101.958 157.505 99.4298L155.76 95.8303ZM155.887 95.7668C155.838 95.7912 155.789 95.8157 155.74 95.8401L157.524 99.4199C157.573 99.3958 157.622 99.3716 157.67 99.3473L155.887 95.7668ZM175.877 83.8816C169.405 88.0205 162.214 92.6157 155.887 95.7667L157.67 99.3473C164.227 96.0818 171.609 91.3588 178.032 87.2516L175.877 83.8816Z" fill="white"/>
<rect width="23.694" height="38.6593" rx="11.847" transform="matrix(0.778328 -0.627857 0.677988 0.735073 229.222 194.305)" fill="#FFC312" stroke="white" stroke-width="4" stroke-linecap="round" stroke-linejoin="round"/>
<path d="M220.11 216.649C216.774 212.29 217.332 206.331 221.421 202.649C226.165 198.378 233.809 198.765 238.126 203.496L241.4 207.084C245.604 211.691 245.076 218.579 240.217 222.494C235.025 226.679 227.074 225.748 223.045 220.485L220.11 216.649Z" fill="#FFC312" stroke="white" stroke-width="4" stroke-linecap="round" stroke-linejoin="round"/>
<path d="M259.032 191.798C254.056 186.403 254.847 178.256 260.77 173.887C266.354 169.768 274.458 170.545 279.129 175.647L287.31 184.583C292.095 189.809 291.504 197.635 285.987 202.085C280.456 206.547 272.066 205.929 267.248 200.705L259.032 191.798Z" fill="#FFC312" stroke="white" stroke-width="4" stroke-linecap="round" stroke-linejoin="round"/>
<path d="M282.808 179.791C278.462 175.079 279.071 167.979 284.156 164.062C288.704 160.558 295.353 160.779 299.7 164.578L303.794 168.156C309.083 172.778 308.962 180.638 303.533 185.017C298.496 189.08 290.856 188.517 286.469 183.76L282.808 179.791Z" fill="#FFC312" stroke="white" stroke-width="4" stroke-linecap="round" stroke-linejoin="round"/>
<path d="M109.849 130.46C122.114 110.368 129.28 95.3839 131.469 89.2625C131.667 88.7072 131.455 88.1045 130.959 87.7889C116.571 78.649 89.2109 61.413 88.5426 61.5808C87.8701 61.7497 60.0436 119.817 45.6568 149.996C45.3381 150.665 45.6577 151.445 46.3435 151.721L83.1086 166.526C83.5647 166.71 84.0816 166.621 84.4336 166.276C88.3062 162.473 97.0518 151.424 109.849 130.46Z" fill="#1ABC9C" stroke="white" stroke-width="4" stroke-linecap="round" stroke-linejoin="round"/>
<circle cx="358.839" cy="39.8386" r="15.3417" transform="rotate(28.8347 358.839 39.8386)" fill="#8FCB2F"/>
<path d="M360.538 32.3752C355.97 31.2503 352.143 33.584 351.11 37.7773C350.065 42.0186 352.339 45.8548 356.875 46.9718C358.057 47.2629 359.494 47.3451 360.59 47.0889L360.474 45.7023C359.378 45.9585 358.177 45.8834 357.202 45.6434C353.529 44.7388 351.708 41.6762 352.579 38.1392C353.439 34.6501 356.509 32.7751 360.215 33.6876C363.856 34.5844 365.78 37.5027 364.937 40.9277C364.471 42.8163 363.744 43.7066 362.882 43.4942C362.434 43.384 362.118 43.0176 362.319 42.2013L363.659 36.7597L361.886 36.3231L361.63 37.3634C361.192 36.4578 360.361 35.8455 359.243 35.5702C357.039 35.0274 354.996 36.3067 354.412 38.6754C353.821 41.0762 355.036 43.1578 357.24 43.7006C358.518 44.0153 359.611 43.7751 360.458 43.0162C360.505 43.9953 361.122 44.6564 362.144 44.9081C364.06 45.3801 365.62 43.9988 366.302 41.23C367.307 37.1488 364.946 33.4608 360.538 32.3752ZM357.958 42.2308C356.569 41.8886 355.835 40.6724 356.217 39.1199C356.596 37.5834 357.806 36.8631 359.196 37.2053C360.537 37.5357 361.335 38.6997 360.945 40.2841C360.551 41.8846 359.3 42.5612 357.958 42.2308Z" fill="white"/>
</svg>
