<svg width="501" height="272" viewBox="0 0 501 272" fill="none" xmlns="http://www.w3.org/2000/svg">
<path d="M423.455 25.2031H201.221C199.136 25.2031 197.072 25.5912 195.146 26.3452C193.22 27.0992 191.47 28.2044 189.996 29.5976C188.522 30.9909 187.353 32.6449 186.555 34.4652C185.758 36.2856 185.347 38.2366 185.347 40.2069V190.272C185.347 192.243 185.758 194.194 186.555 196.014C187.353 197.834 188.522 199.488 189.996 200.882C191.47 202.275 193.22 203.38 195.146 204.134C197.072 204.888 199.136 205.276 201.221 205.276H344.519L407.582 235.284V205.276H423.455C427.665 205.276 431.703 203.695 434.68 200.882C437.657 198.068 439.329 194.252 439.329 190.272V40.2342C439.329 36.2644 437.665 32.4564 434.7 29.6442C431.736 26.832 427.713 25.2448 423.513 25.2304L423.455 25.2031Z" fill="#F8FDFE"/>
<path d="M42.6022 55.4448H308.593C310.728 55.4448 312.842 55.8434 314.814 56.6178C316.787 57.3922 318.579 58.5272 320.089 59.9581C321.598 61.389 322.796 63.0877 323.613 64.9572C324.43 66.8268 324.85 68.8306 324.85 70.8541V224.975C324.85 226.999 324.43 229.003 323.613 230.872C322.796 232.742 321.598 234.44 320.089 235.871C318.579 237.302 316.787 238.437 314.814 239.212C312.842 239.986 310.728 240.385 308.593 240.385H123.444L58.8592 271.203V240.385H42.6022C38.2905 240.385 34.1555 238.761 31.1067 235.871C28.0579 232.981 26.3452 229.062 26.3452 224.975V70.8822C26.3451 66.805 28.0498 62.8941 31.0858 60.0059C34.1218 57.1177 38.2417 55.4877 42.5431 55.4728L42.6022 55.4448Z" fill="#DDF2FB"/>
<path d="M183.572 99.9101C174.204 104.577 157.457 100.901 150.322 98.8065C148.741 98.3423 147.011 99.1153 146.4 100.646C142.986 109.207 137.164 123.51 134.536 128.874C131.905 134.241 121.691 148.019 115.395 156.223C114.312 157.634 114.673 159.65 116.22 160.528C125.813 165.973 149.347 178.173 150.116 178.462C151.196 178.867 200.24 138.391 208.233 130.897C214.133 125.365 218.169 113.462 224.866 109.056C225.871 108.394 226.542 107.285 227.057 106.198C231.859 96.053 273.128 92.207 247.975 89.2784C230.645 87.2608 205.191 89.1417 183.572 99.9101Z" fill="#FEF6F2" stroke="#EDF9FD" stroke-width="4" stroke-linecap="round" stroke-linejoin="round"/>
<path fill-rule="evenodd" clip-rule="evenodd" d="M203.3 87.9484C210.692 83.2217 216.982 79.1994 219.636 78.8749C224.605 78.2673 258.741 77.2546 261.981 79.8876C265.222 82.5206 285.099 116.142 283.802 121.003C282.506 125.864 266.518 130.725 257.228 121.003C251.797 115.319 248.483 111.804 246.896 109.322C246.086 108.056 244.705 107.012 243.205 107.104L226.556 108.119C226.297 108.135 226.06 108.178 225.814 108.259C225.599 108.33 225.38 108.401 225.157 108.473C224.935 108.702 224.692 108.909 224.425 109.084C220.693 111.539 217.787 116.322 214.924 121.033C212.65 124.777 210.402 128.476 207.79 130.925C199.796 138.419 150.745 178.894 149.665 178.489C148.896 178.2 125.359 166 115.764 160.555C114.218 159.677 113.857 157.661 114.94 156.25C121.236 148.046 131.452 134.269 134.082 128.902C136.711 123.538 142.534 109.236 145.949 100.674C146.559 99.1441 148.289 98.3713 149.87 98.8353C156.968 100.919 173.58 104.567 182.977 100.012C183.026 99.9876 183.075 99.9632 183.124 99.9388C189.566 96.7306 196.852 92.0715 203.3 87.9484Z" fill="#FFC312"/>
<path d="M219.636 78.8749L219.393 76.8897V76.8897L219.636 78.8749ZM203.3 87.9484L202.222 86.2635V86.2635L203.3 87.9484ZM261.981 79.8876L263.243 78.3353L261.981 79.8876ZM283.802 121.003L281.87 120.487V120.487L283.802 121.003ZM257.228 121.003L258.674 119.621L257.228 121.003ZM246.896 109.322L248.581 108.245V108.245L246.896 109.322ZM243.205 107.104L243.083 105.107L243.205 107.104ZM226.556 108.119L226.678 110.115H226.678L226.556 108.119ZM225.814 108.259L226.438 110.159L226.438 110.159L225.814 108.259ZM225.157 108.473L224.544 106.569C224.232 106.67 223.95 106.845 223.722 107.08L225.157 108.473ZM224.425 109.084L225.524 110.755L225.524 110.755L224.425 109.084ZM214.924 121.033L213.215 119.995V119.995L214.924 121.033ZM207.79 130.925L209.157 132.385L207.79 130.925ZM149.665 178.489L148.963 180.361H148.963L149.665 178.489ZM115.764 160.555L114.777 162.295H114.777L115.764 160.555ZM114.94 156.25L113.353 155.033L113.353 155.033L114.94 156.25ZM134.082 128.902L132.287 128.022L134.082 128.902ZM145.949 100.674L144.091 99.9332L144.091 99.9332L145.949 100.674ZM149.87 98.8353L150.433 96.9163L149.87 98.8353ZM182.977 100.012L183.85 101.812C183.856 101.808 183.863 101.805 183.87 101.802L182.977 100.012ZM183.124 99.9388L182.232 98.1486L182.232 98.1486L183.124 99.9388ZM219.393 76.8897C218.408 77.0102 217.284 77.4338 216.167 77.9482C215.008 78.4819 213.681 79.1974 212.243 80.0299C209.368 81.6939 205.905 83.9083 202.222 86.2635L204.377 89.6334C208.086 87.2619 211.465 85.1018 214.246 83.4918C215.636 82.6873 216.842 82.0409 217.84 81.5815C218.879 81.1027 219.537 80.9019 219.879 80.8601L219.393 76.8897ZM263.243 78.3353C262.747 77.9326 262.138 77.691 261.635 77.5304C261.09 77.3566 260.461 77.2144 259.786 77.0942C258.433 76.8533 256.735 76.6732 254.839 76.5382C251.036 76.2674 246.256 76.166 241.457 76.166C231.898 76.166 222.012 76.5695 219.393 76.8897L219.879 80.8601C222.229 80.5727 231.895 80.166 241.457 80.166C246.218 80.166 250.89 80.2672 254.554 80.5281C256.391 80.6588 257.931 80.8269 259.085 81.0322C259.663 81.1351 260.104 81.2405 260.418 81.3409C260.774 81.4544 260.811 81.5134 260.72 81.4398L263.243 78.3353ZM285.735 121.518C285.92 120.824 285.875 120.09 285.785 119.479C285.69 118.83 285.512 118.113 285.282 117.363C284.822 115.861 284.102 114.054 283.221 112.082C281.456 108.13 278.96 103.331 276.34 98.6353C273.717 93.9338 270.949 89.2979 268.626 85.6623C267.465 83.8461 266.406 82.2638 265.525 81.0414C264.703 79.9006 263.889 78.8605 263.243 78.3353L260.72 81.4398C260.72 81.4397 260.734 81.4512 260.763 81.479C260.792 81.5063 260.829 81.5439 260.876 81.5937C260.971 81.6944 261.089 81.8292 261.232 82.0022C261.518 82.349 261.869 82.8099 262.28 83.3803C263.101 84.5195 264.116 86.0338 265.255 87.8159C267.53 91.3767 270.258 95.9436 272.847 100.584C275.439 105.23 277.872 109.913 279.569 113.714C280.42 115.619 281.066 117.257 281.457 118.534C281.653 119.174 281.772 119.68 281.827 120.058C281.889 120.476 281.847 120.574 281.87 120.487L285.735 121.518ZM255.782 122.385C260.975 127.818 267.985 129.116 273.74 128.458C276.622 128.129 279.283 127.303 281.361 126.18C283.33 125.115 285.193 123.55 285.735 121.518L281.87 120.487C281.764 120.886 281.141 121.751 279.458 122.661C277.883 123.513 275.724 124.206 273.286 124.484C268.4 125.042 262.772 123.909 258.674 119.621L255.782 122.385ZM245.211 110.4C246.93 113.088 250.425 116.778 255.782 122.385L258.674 119.621C253.169 113.86 250.035 110.519 248.581 108.245L245.211 110.4ZM243.327 109.1C243.818 109.07 244.609 109.459 245.211 110.4L248.581 108.245C247.563 106.653 245.593 104.954 243.083 105.107L243.327 109.1ZM226.678 110.115L243.327 109.1L243.083 105.107L226.435 106.123L226.678 110.115ZM226.438 110.159C226.511 110.135 226.578 110.121 226.678 110.115L226.435 106.123C226.016 106.148 225.61 106.221 225.19 106.359L226.438 110.159ZM225.771 110.376C225.997 110.303 226.219 110.231 226.438 110.159L225.19 106.359C224.978 106.428 224.763 106.498 224.544 106.569L225.771 110.376ZM225.524 110.755C225.928 110.49 226.282 110.186 226.593 109.865L223.722 107.08C223.587 107.219 223.455 107.328 223.326 107.413L225.524 110.755ZM216.634 122.072C218.075 119.699 219.469 117.408 220.955 115.404C222.444 113.396 223.939 111.798 225.524 110.755L223.326 107.413C221.179 108.826 219.355 110.846 217.742 113.021C216.126 115.2 214.636 117.656 213.215 119.995L216.634 122.072ZM209.157 132.385C212.012 129.709 214.404 125.742 216.634 122.072L213.215 119.995C210.895 123.813 208.793 127.243 206.422 129.466L209.157 132.385ZM148.963 180.361C149.405 180.527 149.787 180.495 149.948 180.475C150.139 180.451 150.292 180.406 150.384 180.375C150.569 180.313 150.726 180.236 150.828 180.183C151.042 180.071 151.277 179.925 151.505 179.776C151.975 179.468 152.597 179.023 153.336 178.475C154.822 177.374 156.877 175.781 159.319 173.85C164.208 169.985 170.701 164.721 177.404 159.215C190.782 148.225 205.102 136.186 209.157 132.385L206.422 129.466C202.483 133.158 188.281 145.104 174.865 156.124C168.171 161.622 161.7 166.869 156.838 170.713C154.405 172.636 152.389 174.198 150.954 175.262C150.232 175.797 149.682 176.187 149.311 176.432C149.118 176.558 149.016 176.617 148.981 176.635C148.957 176.647 149.012 176.616 149.117 176.581C149.169 176.564 149.288 176.527 149.45 176.506C149.583 176.49 149.942 176.457 150.367 176.616L148.963 180.361ZM114.777 162.295C119.607 165.035 127.917 169.461 135.095 173.227C138.689 175.112 142.007 176.837 144.477 178.109C145.712 178.744 146.737 179.269 147.479 179.644C147.85 179.831 148.155 179.983 148.382 180.095C148.554 180.18 148.8 180.3 148.963 180.361L150.367 176.616C150.434 176.641 150.406 176.633 150.144 176.504C149.937 176.403 149.648 176.258 149.283 176.074C148.554 175.705 147.539 175.186 146.309 174.553C143.849 173.286 140.539 171.566 136.953 169.685C129.772 165.917 121.516 161.52 116.752 158.816L114.777 162.295ZM113.353 155.033C111.567 157.36 112.123 160.788 114.777 162.295L116.752 158.816C116.312 158.566 116.146 157.963 116.526 157.468L113.353 155.033ZM132.287 128.022C131.057 130.531 127.947 135.182 124.258 140.35C120.606 145.466 116.493 150.942 113.353 155.033L116.526 157.468C119.683 153.355 123.826 147.84 127.514 142.675C131.164 137.561 134.478 132.64 135.878 129.782L132.287 128.022ZM144.091 99.9332C140.665 108.524 134.874 122.743 132.287 128.022L135.878 129.782C138.549 124.334 144.403 109.948 147.806 101.415L144.091 99.9332ZM150.433 96.9163C147.932 96.1821 145.11 97.3786 144.091 99.9332L147.806 101.415C148.008 100.91 148.646 100.56 149.307 100.754L150.433 96.9163ZM182.105 98.2122C177.923 100.239 171.886 100.518 165.754 99.9226C159.701 99.3352 153.902 97.9346 150.433 96.9163L149.307 100.754C152.936 101.82 158.992 103.285 165.368 103.904C171.667 104.515 178.634 104.34 183.85 101.812L182.105 98.2122ZM182.232 98.1486C182.183 98.173 182.134 98.1975 182.085 98.222L183.87 101.802C183.918 101.778 183.967 101.753 184.015 101.729L182.232 98.1486ZM202.222 86.2635C195.75 90.4024 188.559 94.9975 182.232 98.1486L184.015 101.729C190.572 98.4636 197.954 93.7407 204.377 89.6334L202.222 86.2635Z" fill="#EDF9FD"/>
<path fill-rule="evenodd" clip-rule="evenodd" d="M225.081 108.498C225.33 108.418 225.576 108.338 225.816 108.259C226.063 108.178 226.299 108.135 226.559 108.119L243.208 107.104C244.708 107.012 246.088 108.056 246.898 109.322C248.485 111.804 251.799 115.319 257.231 121.003C266.521 130.725 282.508 125.864 283.805 121.003C284.302 119.139 281.687 113.049 278.09 106.097C282.331 105.919 285.992 105.731 288.479 105.542C295.798 104.988 311.49 98.2967 314.533 96.1524C315.17 95.7039 316.099 95.8154 316.531 96.4394C322.396 104.915 331.66 120.914 334.627 126.039C334.806 126.347 334.961 126.616 335.092 126.841C336.08 128.544 338.839 132.633 342.115 137.49C346.589 144.121 352.028 152.184 355.241 157.553C355.545 158.062 355.417 158.696 354.929 159.061C347.96 164.275 323.346 178.483 312.6 184.316C307.535 187.064 299.961 189.753 291.867 192.626C282.243 196.042 271.887 199.718 264.145 204.065C264.118 204.08 264.092 204.098 264.07 204.119L242.818 224.276C239.323 227.591 234.149 228.414 229.798 226.349C223.891 223.544 221.818 216.809 224.495 211.477L238.914 197.23L238.211 196.519L215.56 218.902L215.562 218.904C211.495 221.385 206.266 221.375 202.155 218.664C197.031 215.286 195.296 208.912 197.401 203.598L218.847 180.024L218.107 179.351L195.108 204.633C190.576 209.221 183.441 210.021 178 206.529C172.304 202.873 170.357 195.856 172.658 190.011L201.309 160.853L200.596 160.152L174.649 186.559L174.687 186.511L170.232 191.025C165.201 196.122 157.14 196.612 151.529 192.161C145.192 187.134 144.411 177.805 149.944 171.904C153.779 167.814 157.651 163.751 161.522 159.687C170.306 150.469 179.089 141.251 187.442 131.725C191.515 127.081 195.753 124.807 198.12 123.537L198.12 123.537C198.726 123.212 199.21 122.953 199.536 122.737C202.437 120.813 221.889 110.188 225.081 108.498Z" fill="#FFC312"/>
<path d="M225.081 108.498L224.468 106.594C224.356 106.63 224.248 106.676 224.145 106.731L225.081 108.498ZM225.816 108.259L226.44 110.159L226.44 110.159L225.816 108.259ZM226.559 108.119L226.437 106.123H226.437L226.559 108.119ZM243.208 107.104L243.086 105.107L243.208 107.104ZM246.898 109.322L245.213 110.4L245.213 110.4L246.898 109.322ZM257.231 121.003L258.677 119.621L257.231 121.003ZM283.805 121.003L285.737 121.518V121.518L283.805 121.003ZM278.09 106.097L278.006 104.099C277.324 104.128 276.703 104.503 276.36 105.094C276.017 105.685 276 106.41 276.314 107.017L278.09 106.097ZM288.479 105.542L288.328 103.548L288.479 105.542ZM314.533 96.1524L313.381 94.5171L313.381 94.5176L314.533 96.1524ZM316.531 96.4394L314.886 97.577L314.886 97.5775L316.531 96.4394ZM334.627 126.039L332.896 127.041L332.896 127.041L334.627 126.039ZM334.85 126.424L333.119 127.426L333.12 127.427L334.85 126.424ZM335.092 126.841L333.362 127.844L333.362 127.845L335.092 126.841ZM342.115 137.49L343.773 136.371H343.773L342.115 137.49ZM355.241 157.553L353.524 158.58L353.525 158.581L355.241 157.553ZM354.929 159.061L353.732 157.459L353.731 157.459L354.929 159.061ZM312.6 184.316L313.554 186.074L313.554 186.074L312.6 184.316ZM291.867 192.626L292.536 194.511L292.536 194.511L291.867 192.626ZM264.145 204.065L263.166 202.321L263.16 202.324L264.145 204.065ZM264.07 204.119L265.446 205.57L265.446 205.57L264.07 204.119ZM242.818 224.276L244.194 225.727L242.818 224.276ZM229.798 226.349L230.656 224.542L229.798 226.349ZM224.495 211.477L223.09 210.055C222.935 210.208 222.806 210.385 222.708 210.58L224.495 211.477ZM238.914 197.23L240.32 198.653C240.697 198.28 240.911 197.773 240.914 197.242C240.917 196.712 240.709 196.202 240.337 195.824L238.914 197.23ZM238.211 196.519L239.634 195.113C238.857 194.327 237.591 194.32 236.805 195.096L238.211 196.519ZM215.56 218.902L214.154 217.479C213.776 217.852 213.563 218.359 213.56 218.89C213.556 219.421 213.764 219.931 214.137 220.308L215.56 218.902ZM215.562 218.904L216.604 220.612C217.126 220.294 217.473 219.754 217.547 219.147C217.622 218.54 217.414 217.933 216.984 217.498L215.562 218.904ZM202.155 218.664L203.256 216.995L202.155 218.664ZM197.401 203.598L195.922 202.252C195.76 202.431 195.631 202.637 195.542 202.861L197.401 203.598ZM218.847 180.024L220.326 181.37C220.683 180.977 220.869 180.459 220.844 179.929C220.819 179.4 220.585 178.901 220.192 178.545L218.847 180.024ZM218.107 179.351L219.453 177.872C218.636 177.128 217.371 177.188 216.628 178.005L218.107 179.351ZM195.108 204.633L196.531 206.038C196.55 206.019 196.569 205.999 196.588 205.979L195.108 204.633ZM178 206.529L179.08 204.846L178 206.529ZM172.658 190.011L171.232 188.61C171.044 188.801 170.896 189.029 170.797 189.279L172.658 190.011ZM201.309 160.853L202.736 162.255C203.108 161.876 203.314 161.366 203.309 160.835C203.305 160.305 203.089 159.798 202.711 159.426L201.309 160.853ZM200.596 160.152L201.998 158.725C201.21 157.951 199.944 157.962 199.169 158.75L200.596 160.152ZM174.649 186.559L173.084 185.313C172.421 186.146 172.527 187.351 173.324 188.056C174.12 188.762 175.33 188.719 176.076 187.96L174.649 186.559ZM174.687 186.511L176.252 187.757C176.914 186.925 176.809 185.72 176.014 185.015C175.218 184.31 174.01 184.35 173.263 185.106L174.687 186.511ZM170.232 191.025L168.808 189.62L170.232 191.025ZM151.529 192.161L150.286 193.728H150.286L151.529 192.161ZM149.944 171.904L148.485 170.536H148.485L149.944 171.904ZM161.52 159.69L160.074 158.309L160.072 158.31L161.52 159.69ZM161.522 159.688L160.087 158.295C160.083 158.299 160.079 158.302 160.076 158.306L161.522 159.688ZM161.522 159.687L162.958 161.08C162.962 161.076 162.966 161.071 162.97 161.067L161.522 159.687ZM187.442 131.725L185.938 130.406L185.938 130.406L187.442 131.725ZM198.12 123.537L199.065 125.3C199.122 125.27 199.176 125.237 199.229 125.202L198.12 123.537ZM198.12 123.537L197.175 121.775C197.118 121.805 197.064 121.838 197.011 121.873L198.12 123.537ZM199.536 122.737L200.641 124.404L200.641 124.403L199.536 122.737ZM225.693 110.402C225.947 110.32 226.196 110.239 226.44 110.159L225.192 106.359C224.955 106.437 224.714 106.515 224.468 106.594L225.693 110.402ZM226.44 110.159C226.514 110.135 226.58 110.121 226.68 110.115L226.437 106.123C226.018 106.148 225.612 106.221 225.192 106.359L226.44 110.159ZM226.68 110.115L243.329 109.1L243.086 105.107L226.437 106.123L226.68 110.115ZM243.329 109.1C243.82 109.07 244.612 109.459 245.213 110.4L248.583 108.245C247.565 106.653 245.595 104.954 243.086 105.107L243.329 109.1ZM245.213 110.4C246.933 113.088 250.427 116.778 255.785 122.385L258.677 119.621C253.171 113.86 250.038 110.519 248.583 108.245L245.213 110.4ZM255.785 122.385C260.977 127.818 267.987 129.116 273.742 128.458C276.624 128.129 279.286 127.303 281.363 126.18C283.333 125.115 285.195 123.55 285.737 121.518L281.872 120.487C281.766 120.886 281.144 121.751 279.461 122.661C277.886 123.513 275.726 124.206 273.288 124.484C268.403 125.042 262.774 123.909 258.677 119.621L255.785 122.385ZM285.737 121.518C286.003 120.52 285.806 119.352 285.569 118.388C285.307 117.321 284.878 116.074 284.341 114.72C283.265 112.007 281.678 108.679 279.867 105.178L276.314 107.017C278.099 110.467 279.618 113.66 280.623 116.195C281.128 117.467 281.484 118.526 281.685 119.343C281.911 120.262 281.854 120.553 281.872 120.487L285.737 121.518ZM288.328 103.548C285.876 103.734 282.243 103.921 278.006 104.099L278.174 108.096C282.419 107.918 286.108 107.728 288.631 107.537L288.328 103.548ZM313.381 94.5176C312.782 94.9395 311.379 95.6945 309.363 96.6331C307.394 97.55 304.961 98.5871 302.391 99.5772C297.171 101.588 291.664 103.295 288.328 103.548L288.631 107.537C292.614 107.235 298.612 105.319 303.829 103.31C306.477 102.29 308.994 101.217 311.052 100.259C313.063 99.323 314.762 98.4375 315.685 97.7872L313.381 94.5176ZM318.176 95.3019C317.026 93.6392 314.798 93.5198 313.381 94.5171L315.684 97.7876C315.568 97.8698 315.446 97.89 315.339 97.8755C315.227 97.8602 315.032 97.7885 314.886 97.577L318.176 95.3019ZM336.358 125.037C333.407 119.94 324.097 103.858 318.175 95.3014L314.886 97.5775C320.695 105.971 329.913 121.888 332.896 127.041L336.358 125.037ZM336.581 125.422L336.358 125.037L332.896 127.041L333.119 127.426L336.581 125.422ZM336.823 125.839L336.581 125.421L333.12 127.427L333.362 127.844L336.823 125.839ZM343.773 136.371C340.467 131.471 337.765 127.464 336.822 125.838L333.362 127.845C334.394 129.624 337.21 133.796 340.457 138.609L343.773 136.371ZM356.957 156.526C353.71 151.099 348.234 142.983 343.773 136.371L340.457 138.609C344.945 145.26 350.347 153.268 353.524 158.58L356.957 156.526ZM356.127 160.662C357.414 159.7 357.802 157.937 356.957 156.526L353.525 158.581C353.42 158.405 353.378 158.18 353.423 157.959C353.468 157.738 353.591 157.564 353.732 157.459L356.127 160.662ZM313.554 186.074C324.275 180.254 349.021 165.978 356.128 160.662L353.731 157.459C346.898 162.571 322.416 176.712 311.646 182.558L313.554 186.074ZM292.536 194.511C300.568 191.66 308.319 188.915 313.554 186.074L311.646 182.558C306.752 185.214 299.354 187.846 291.198 190.741L292.536 194.511ZM265.124 205.808C272.686 201.563 282.863 197.944 292.536 194.511L291.198 190.741C281.624 194.139 271.088 197.873 263.166 202.321L265.124 205.808ZM265.446 205.57C265.321 205.688 265.204 205.763 265.129 205.805L263.16 202.324C263.031 202.397 262.863 202.507 262.693 202.668L265.446 205.57ZM244.194 225.727L265.446 205.57L262.693 202.668L241.441 222.825L244.194 225.727ZM228.941 228.156C234.038 230.576 240.1 229.61 244.194 225.727L241.441 222.825C238.546 225.571 234.261 226.253 230.656 224.542L228.941 228.156ZM222.708 210.58C219.531 216.907 222.012 224.867 228.941 228.156L230.656 224.542C225.769 222.222 224.105 216.712 226.283 212.375L222.708 210.58ZM237.508 195.808L223.09 210.055L225.901 212.9L240.32 198.653L237.508 195.808ZM236.788 197.925L237.491 198.636L240.337 195.824L239.634 195.113L236.788 197.925ZM216.965 220.324L239.617 197.941L236.805 195.096L214.154 217.479L216.965 220.324ZM216.984 217.498L216.982 217.495L214.137 220.308L214.14 220.311L216.984 217.498ZM201.054 220.334C205.823 223.478 211.886 223.489 216.604 220.612L214.521 217.197C211.103 219.281 206.709 219.272 203.256 216.995L201.054 220.334ZM195.542 202.861C193.103 209.019 195.106 216.413 201.054 220.334L203.256 216.995C198.955 214.159 197.49 208.805 199.261 204.335L195.542 202.861ZM217.367 178.678L195.922 202.252L198.881 204.944L220.326 181.37L217.367 178.678ZM216.761 180.83L217.501 181.503L220.192 178.545L219.453 177.872L216.761 180.83ZM196.588 205.979L219.586 180.697L216.628 178.005L193.629 203.287L196.588 205.979ZM176.92 208.212C183.156 212.215 191.335 211.299 196.531 206.038L193.685 203.227C189.816 207.144 183.725 207.827 179.08 204.846L176.92 208.212ZM170.797 189.279C168.162 195.972 170.385 204.018 176.92 208.212L179.08 204.846C174.223 201.728 172.553 195.74 174.519 190.744L170.797 189.279ZM199.883 159.451L171.232 188.61L174.085 191.413L202.736 162.255L199.883 159.451ZM199.194 161.579L199.908 162.279L202.711 159.426L201.998 158.725L199.194 161.579ZM176.076 187.96L202.023 161.554L199.169 158.75L173.222 185.157L176.076 187.96ZM173.122 185.266L173.084 185.313L176.214 187.804L176.252 187.757L173.122 185.266ZM171.655 192.43L176.11 187.916L173.263 185.106L168.808 189.62L171.655 192.43ZM150.286 193.728C156.696 198.813 165.908 198.254 171.655 192.43L168.808 189.62C164.495 193.99 157.583 194.41 152.772 190.594L150.286 193.728ZM148.485 170.536C142.135 177.308 143.053 187.989 150.286 193.728L152.772 190.594C147.332 186.278 146.687 178.301 151.403 173.272L148.485 170.536ZM160.072 158.31C156.202 162.372 152.326 166.44 148.485 170.536L151.403 173.272C155.231 169.19 159.096 165.133 162.968 161.069L160.072 158.31ZM160.076 158.306L160.074 158.309L162.967 161.071L162.969 161.069L160.076 158.306ZM160.087 158.294L160.087 158.295L162.957 161.081L162.958 161.08L160.087 158.294ZM185.938 130.406C177.617 139.896 168.863 149.084 160.074 158.308L162.97 161.067C171.749 151.854 180.561 142.606 188.946 133.043L185.938 130.406ZM197.175 121.775C194.763 123.068 190.258 125.48 185.938 130.406L188.946 133.043C192.771 128.681 196.742 126.546 199.065 125.3L197.175 121.775ZM197.011 121.873L197.011 121.873L199.229 125.202L199.229 125.202L197.011 121.873ZM198.431 121.07C198.201 121.222 197.819 121.43 197.175 121.775L199.065 125.3C199.634 124.995 200.218 124.684 200.641 124.404L198.431 121.07ZM224.145 106.731C220.993 108.4 201.434 119.078 198.431 121.07L200.641 124.403C203.44 122.547 222.785 111.977 226.017 110.265L224.145 106.731Z" fill="#EDF9FD"/>
<path d="M332.376 129.445C320.11 110.619 312.944 96.5802 310.755 90.8448C310.557 90.3245 310.77 89.7599 311.266 89.4642C325.653 80.9006 353.014 64.7516 353.682 64.9089C354.355 65.0671 382.181 119.472 396.568 147.749C396.887 148.375 396.567 149.106 395.881 149.365L359.116 163.236C358.66 163.408 358.143 163.325 357.791 163.002C353.918 159.438 345.173 149.086 332.376 129.445Z" fill="#1ABC9C" stroke="#EDF9FD" stroke-width="4" stroke-linecap="round" stroke-linejoin="round"/>
<rect width="23.694" height="38.6593" rx="11.847" transform="matrix(0.778328 -0.627857 0.677988 0.735073 255.567 196.687)" fill="#FFC312" stroke="#EDF9FD" stroke-width="4" stroke-linecap="round" stroke-linejoin="round"/>
<path d="M246.455 219.031C243.119 214.672 243.678 208.712 247.767 205.031C252.51 200.759 260.154 201.147 264.471 205.877L267.745 209.466C271.949 214.073 271.421 220.961 266.562 224.876C261.37 229.06 253.419 228.13 249.391 222.867L246.455 219.031Z" fill="#FFC312" stroke="#EDF9FD" stroke-width="4" stroke-linecap="round" stroke-linejoin="round"/>
<path d="M285.377 194.18C280.402 188.785 281.192 180.637 287.115 176.269C292.7 172.15 300.803 172.927 305.474 178.029L313.655 186.964C318.44 192.191 317.849 200.017 312.332 204.467C306.801 208.929 298.411 208.311 293.593 203.087L285.377 194.18Z" fill="#FFC312" stroke="#EDF9FD" stroke-width="4" stroke-linecap="round" stroke-linejoin="round"/>
<path d="M309.153 182.173C304.807 177.461 305.416 170.361 310.501 166.444C315.049 162.94 321.698 163.161 326.045 166.96L330.14 170.538C335.428 175.16 335.307 183.02 329.879 187.398C324.842 191.462 317.202 190.899 312.814 186.142L309.153 182.173Z" fill="#FFC312" stroke="#EDF9FD" stroke-width="4" stroke-linecap="round" stroke-linejoin="round"/>
<path d="M136.194 132.842C148.459 112.75 155.625 97.7657 157.814 91.6443C158.012 91.089 157.8 90.4863 157.304 90.1708C142.916 81.0308 115.556 63.7948 114.888 63.9626C114.215 64.1315 86.3887 122.199 72.0019 152.378C71.6831 153.047 72.0027 153.827 72.6885 154.103L109.454 168.908C109.91 169.092 110.427 169.003 110.779 168.658C114.651 164.855 123.397 153.806 136.194 132.842Z" fill="#1ABC9C" stroke="#EDF9FD" stroke-width="4" stroke-linecap="round" stroke-linejoin="round"/>
<path d="M19.5219 170.562C19.9017 169.108 21.7455 168.637 22.8636 169.708L29.0928 175.68C29.5184 176.088 30.0983 176.299 30.6814 176.258L39.384 175.649C40.9959 175.537 42.1317 177.247 41.3587 178.624L37.3928 185.685C37.0963 186.213 37.0681 186.853 37.3164 187.42L40.5937 194.901C41.2215 196.334 40.0347 197.845 38.4774 197.596L29.643 196.183C29.0823 196.093 28.516 196.238 28.082 196.582L21.2442 202.001C20.0389 202.956 18.1952 202.219 17.9564 200.687L16.71 192.687C16.6155 192.081 16.2431 191.543 15.7005 191.229L8.44569 187.035C7.03168 186.218 7.0793 184.205 8.52848 183.535L16.3527 179.92C16.877 179.678 17.2614 179.221 17.406 178.667L19.5219 170.562Z" fill="#4AABE2"/>
<path d="M342.508 11.3545C343.146 10.8988 344.034 11.2619 344.109 12.0095L345.031 21.1695C345.117 22.0212 345.586 22.7819 346.314 23.2524L354.284 28.4001C354.949 28.8299 354.824 29.8182 354.065 30.1251L345.317 33.6618C344.447 34.0136 343.778 34.7245 343.501 35.592L340.747 44.2137C340.511 44.9522 339.537 45.1843 339.012 44.6269L332.485 37.6992C331.913 37.0915 331.091 36.7555 330.226 36.7748L330.216 37.6744L330.226 36.7748L320.356 36.9954C319.562 37.0131 319.082 36.1863 319.502 35.523L324.403 27.7795C324.896 27.0004 325 26.0585 324.686 25.2221L321.525 16.814C321.251 16.0845 321.942 15.3275 322.731 15.4927L332.183 17.4717C333.047 17.6526 333.962 17.4579 334.689 16.9387L342.508 11.3545Z" stroke="#00A1DF" stroke-width="2"/>
<path fill-rule="evenodd" clip-rule="evenodd" d="M453.241 49.8763C453.06 49.8435 452.888 49.7757 452.736 49.6768C452.584 49.578 452.455 49.4501 452.356 49.3004C452.257 49.1507 452.189 48.9823 452.158 48.8046C452.127 48.627 452.132 48.4437 452.174 48.2652L453.969 40.4206C454.051 40.0608 454.276 39.742 454.592 39.5344C454.909 39.3269 455.293 39.2475 455.659 39.3137C456.024 39.3799 456.343 39.5864 456.543 39.8876C456.743 40.1889 456.81 40.5602 456.727 40.92L454.932 48.7647C454.892 48.9434 454.816 49.1139 454.709 49.2666C454.603 49.4192 454.467 49.5509 454.31 49.6542C454.153 49.7575 453.977 49.8303 453.794 49.8684C453.611 49.9065 453.423 49.9092 453.241 49.8763Z" fill="#C7E1EC"/>
<path fill-rule="evenodd" clip-rule="evenodd" d="M426.407 54.7192C426.035 54.6499 425.711 54.443 425.505 54.1422L421.013 47.4948C420.882 47.347 420.787 47.173 420.733 46.9842C420.68 46.7955 420.669 46.5964 420.702 46.4002C420.734 46.2039 420.81 46.0149 420.923 45.8457C421.037 45.6765 421.186 45.531 421.36 45.4188C421.534 45.3066 421.729 45.2303 421.933 45.1949C422.137 45.1596 422.345 45.166 422.543 45.2136C422.741 45.2613 422.924 45.3492 423.081 45.4715C423.237 45.5939 423.364 45.7478 423.452 45.9232L427.955 52.5628C428.157 52.8661 428.223 53.2381 428.139 53.5985C428.055 53.9589 427.828 54.2787 427.507 54.4889C427.181 54.7008 426.785 54.7835 426.407 54.7192Z" fill="#C7E1EC"/>
<path fill-rule="evenodd" clip-rule="evenodd" d="M411.225 75.8449L402.921 74.3443C402.559 74.2567 402.25 74.0364 402.058 73.7283C401.866 73.4203 401.806 73.0478 401.888 72.6871C401.971 72.3264 402.191 72.0047 402.503 71.7877C402.816 71.5708 403.197 71.475 403.568 71.52L411.873 73.0205C412.072 73.0445 412.262 73.1081 412.431 73.2073C412.601 73.3065 412.746 73.4392 412.859 73.5973C412.971 73.7554 413.049 73.9354 413.086 74.1265C413.123 74.3176 413.12 74.5157 413.075 74.7085C413.031 74.9013 412.947 75.0849 412.829 75.2478C412.71 75.4108 412.56 75.5498 412.387 75.6562C412.213 75.7626 412.021 75.8342 411.821 75.8667C411.621 75.8991 411.419 75.8917 411.225 75.8449Z" fill="#C7E1EC"/>
<path fill-rule="evenodd" clip-rule="evenodd" d="M489.382 90.7614L481.078 89.2613C480.716 89.1737 480.407 88.9534 480.215 88.6455C480.024 88.3375 479.963 87.9652 480.045 87.6046C480.128 87.244 480.348 86.9224 480.66 86.7055C480.973 86.4887 481.353 86.3929 481.725 86.4378L490.029 87.9379C490.391 88.0254 490.7 88.2458 490.891 88.5537C491.083 88.8616 491.144 89.234 491.061 89.5946C490.979 89.9552 490.759 90.2768 490.446 90.4936C490.134 90.7105 489.753 90.8063 489.382 90.7614Z" fill="#C7E1EC"/>
<path fill-rule="evenodd" clip-rule="evenodd" d="M475.877 64.2396C475.597 64.1873 475.343 64.0562 475.146 63.8628C474.95 63.6693 474.819 63.4222 474.771 63.1523C474.723 62.8823 474.76 62.6017 474.877 62.3456C474.994 62.0894 475.186 61.8692 475.428 61.7124L482.531 57.1353C482.69 56.9977 482.876 56.8934 483.078 56.8297C483.279 56.7659 483.491 56.7441 483.699 56.7657C483.906 56.7874 484.105 56.852 484.281 56.9551C484.457 57.0582 484.606 57.1975 484.718 57.3633C484.83 57.5292 484.903 57.7178 484.931 57.9162C484.959 58.1146 484.942 58.3182 484.881 58.513C484.819 58.7079 484.716 58.8894 484.576 59.0452C484.437 59.2011 484.266 59.3275 484.074 59.416L476.966 63.9922C476.808 64.1002 476.63 64.1777 476.443 64.2202C476.256 64.2627 476.064 64.2693 475.877 64.2396Z" fill="#C7E1EC"/>
<path fill-rule="evenodd" clip-rule="evenodd" d="M446.112 124.516L428.561 121.36C428.117 121.281 427.7 121.101 427.335 120.832C426.97 120.564 426.663 120.211 426.432 119.795C426.201 119.378 426.051 118.906 425.99 118.405C425.929 117.904 425.958 117.385 426.076 116.876L426.59 114.646C426.838 113.569 427.921 112.854 429.008 113.05L449.353 116.707C450.441 116.903 451.121 117.934 450.873 119.011L450.359 121.242C450.125 122.265 449.546 123.183 448.751 123.796C447.955 124.41 447.006 124.668 446.112 124.516Z" fill="#C7E1EC"/>
<path fill-rule="evenodd" clip-rule="evenodd" d="M452.008 108.579C452.984 108.757 454.007 108.612 454.913 108.168C455.819 107.724 456.555 107.006 457.002 106.13C458.113 103.919 459.772 101.988 461.827 100.512C465.967 97.5365 469.167 93.5061 471.04 88.9085C472.913 84.311 473.378 79.3431 472.379 74.6059C471.38 69.8686 468.961 65.5649 465.412 62.2152C461.864 58.8654 457.34 56.6132 452.386 55.7308C447.432 54.8484 442.261 55.3738 437.499 57.2432C432.737 59.1127 428.587 62.2462 425.551 66.2649C422.515 70.2835 420.724 75.0151 420.394 79.8874C420.063 84.7597 421.208 89.5639 423.689 93.7191C424.925 95.7772 425.59 98.1212 425.622 100.536C425.642 101.495 425.999 102.408 426.634 103.126C427.269 103.845 428.146 104.328 429.124 104.498L452.008 108.579Z" fill="#C7E1EC"/>
<path fill-rule="evenodd" clip-rule="evenodd" d="M452.223 112.807C451.977 113.876 450.91 114.58 449.83 114.385L429.533 110.716C428.438 110.518 427.748 109.471 427.997 108.387L428.063 108.102C428.308 107.034 429.375 106.33 430.454 106.524L450.754 110.181C451.85 110.379 452.541 111.426 452.291 112.511L452.223 112.807Z" fill="#C7E1EC"/>
</svg>
