<svg width="386" height="149" viewBox="0 0 386 149" fill="none" xmlns="http://www.w3.org/2000/svg">
<g clip-path="url(#clip0_2_4358)">
<path d="M4.54358 55.466L23.1086 58.0617L57.3129 1.83691H42.7114C42.0908 1.83699 41.4796 1.9894 40.9316 2.28077C40.3836 2.57213 39.9155 2.99356 39.5683 3.50806L4.54358 55.466Z" fill="#1CBB9B"/>
<path d="M56.2637 98.9484L23.1086 58.062L4.54358 55.4663L35.1888 91.0619C38.2194 94.5833 42.4167 96.8956 47.0124 97.5754L56.2637 98.9484Z" fill="#16A086"/>
<path d="M56.2638 98.9482L65.4966 110.706C68.3069 114.007 73.6803 117.178 77.9281 118.036L121.534 126.858L106.773 108.06L56.2638 98.9482Z" fill="#16A086"/>
<path d="M141.83 47.2793L153.785 62.5068C154.242 63.0883 154.519 63.7907 154.581 64.5276C154.644 65.2644 154.489 66.0034 154.137 66.6535L121.534 126.858L106.773 108.06L141.83 47.2793Z" fill="#1CBB9B"/>
<path d="M57.3014 1.83691L90.052 43.3566L141.83 47.279L106.773 108.06L56.2638 98.9481L23.111 58.0617L57.3014 1.83691Z" fill="white"/>
<path d="M63.8649 0.808594C69.3422 6.12481 68.9632 5.9191 76.5991 9.6705C90.6067 18.4538 90.7338 37.5899 90.0428 43.3568C67.6713 79.803 56.2545 98.9483 56.2545 98.9483C56.2545 98.9483 56.3192 84.9436 44.4101 74.3573C34.0332 65.1302 32.3438 55.5425 32.3438 55.5425L63.8649 0.808594Z" fill="#FFC412"/>
<path d="M21.4725 41.0272L17.4858 30.9749C17.28 30.4572 17.2053 29.8966 17.2682 29.343C17.331 28.7893 17.5297 28.2598 17.8464 27.8014L28.4543 12.4514C28.8411 11.8911 29.388 11.4605 30.0234 11.216C30.6587 10.9715 31.3531 10.9243 32.0157 11.0807L40.8927 13.1749C41.0624 13.2152 41.22 13.2957 41.3523 13.4094C41.4846 13.5232 41.5877 13.667 41.6531 13.8288C41.7185 13.9905 41.7442 14.1656 41.7281 14.3394C41.712 14.5131 41.6546 14.6805 41.5606 14.8275L39.5984 17.897C39.4736 18.0887 39.2919 18.2363 39.0788 18.3193C38.8657 18.4022 38.632 18.4162 38.4105 18.3593L32.6189 16.8754C32.4621 16.8349 32.2967 16.8436 32.145 16.9003C31.9933 16.9569 31.8627 17.0588 31.7707 17.1921L23.1596 29.6574C23.0855 29.7637 23.0389 29.8867 23.024 30.0153C23.0091 30.144 23.0263 30.2744 23.0741 30.3948L25.6579 37.0239C25.7215 37.1861 25.7447 37.3614 25.7253 37.5346C25.706 37.7077 25.6448 37.8736 25.5469 38.0178L23.3629 41.2422C23.2528 41.4042 23.1005 41.5331 22.9225 41.6148C22.7444 41.6965 22.5474 41.728 22.3528 41.7059C22.1581 41.6838 21.9732 41.6088 21.8181 41.4892C21.6629 41.3696 21.5434 41.2099 21.4725 41.0272Z" fill="#D35400"/>
<path d="M138.051 38.3299C138.051 38.3299 127.961 37.544 118.569 34.8281C112.357 33.0367 97.7873 30.3786 89.8348 43.3572C81.8823 56.3357 56.2638 98.9486 56.2638 98.9486C56.2638 98.9486 70.3107 91.7301 103.355 102.185C111.427 87.068 138.051 38.3299 138.051 38.3299Z" fill="#FFC412"/>
<path d="M10.0163 45.7559L4.68229 53.677C4.33439 54.1931 4.16362 54.8083 4.19572 55.4299C4.22781 56.0515 4.46104 56.6458 4.86025 57.1233C6.97028 59.6451 10.8483 64.2725 11.7797 65.3288C14.2641 61.79 11.7496 58.6974 8.69436 56.0439C8.69436 56.0347 14.6385 48.4902 10.0163 45.7559Z" fill="#D35400"/>
<path d="M151.017 74.3571L156.351 66.436C156.698 65.9199 156.869 65.3047 156.837 64.6831C156.805 64.0615 156.572 63.4671 156.173 62.9897C154.063 60.4656 150.187 55.8405 149.253 54.7842C146.919 56.6865 149.283 61.4156 152.338 64.0691C152.338 64.0714 146.399 71.625 151.017 74.3571Z" fill="#D35400"/>
<path d="M48.4984 1.03973L41.7385 0.808594C41.3542 0.810032 40.9766 0.908705 40.6408 1.09542C40.305 1.28214 40.0219 1.55083 39.8179 1.87646C38.6832 3.67704 37.7795 4.98067 36.5824 6.99621C38.6763 7.59717 41.022 6.53393 42.1429 3.76025C42.1406 3.75563 47.3614 4.65708 48.4984 1.03973Z" fill="#D35400"/>
<path d="M110.036 125.915L119.331 128.051C119.938 128.191 120.573 128.129 121.142 127.876C121.71 127.623 122.181 127.192 122.484 126.648C124.081 123.773 127.007 118.493 127.658 117.243C125.044 115.747 120.515 119.906 119.135 123.715C119.144 123.71 110.958 120.9 110.036 125.915Z" fill="#D35400"/>
<path d="M47.8721 148.191C47.3382 147.305 48.8659 123.505 22.2397 116.931C-4.58524 110.309 -11.3591 80.9588 25.7179 70.7725C71.9792 58.0621 70.2204 32.5951 83.9715 12.4813C87.6092 7.16506 94.2651 6.90618 96.181 9.66599C102.268 18.4331 92.095 40.9138 90.0312 43.3662L84.7896 51.6872C87.8056 44.5889 97.5007 17.423 91.159 17.1757C80.0796 16.7435 81.4871 64.7906 31.7221 78.9641C8.49327 85.5839 10.3791 100.123 26.1478 103.638C67.7614 112.895 63.8649 143.339 64.0244 143.616L55.1613 134.324L47.8721 148.191Z" fill="#D35400"/>
<path d="M196.004 43.4908C197.719 43.4908 199.702 43.5301 201.433 43.0586V57.6204H208.05V13.1976H201.433V36.8825C199.885 37.3101 198.401 37.1876 196.684 37.1876C189.711 37.1876 186.721 34.1135 186.721 25.5959L186.603 13.1976H186.584V13.186H173.434V19.6834H180.051L180.169 25.5959C180.169 37.7747 185.567 43.4908 196.004 43.4908Z" fill="#DD5D05" stroke="#DD5D05" stroke-width="0.0701818" stroke-miterlimit="10"/>
<path d="M237.124 42.2218V41.852C236.893 27.8519 230.78 24.9141 225.698 24.9141C220.4 24.9141 214.084 27.8126 214.084 41.6116C214.084 55.4107 220.433 58.3069 225.758 58.3069C231.394 58.3069 234.824 55.1495 236.55 48.3678L236.717 47.723H230.567L230.465 48.1136C229.721 51.0167 228.27 52.3111 225.758 52.3111C223.724 52.3111 220.994 51.4397 220.521 44.0478H231.956L237.124 42.2218ZM220.558 38.6137C221.096 31.7443 223.562 30.8474 225.698 30.8474C227.687 30.8474 230.033 31.7443 230.708 38.6137H220.558Z" fill="#DD5D05" stroke="#DD5D05" stroke-width="0.0701818" stroke-miterlimit="10"/>
<path d="M268.138 57.6253H274.45L272.913 25.5962H267.08L257.794 44.6514L248.51 25.5962H242.672L241.159 57.0844L241.135 57.6253H247.447L248.069 37.5739L255.906 53.0025L256.047 53.2868H259.539L267.519 37.5739L268.138 57.6253Z" fill="#DD5D05" stroke="#DD5D05" stroke-width="0.0701818" stroke-miterlimit="10"/>
<path d="M290.584 58.3069C298.049 58.3069 302.505 52.0661 302.505 41.6116C302.505 31 298.16 24.9141 290.584 24.9141C282.957 24.9141 278.599 31 278.599 41.6116C278.594 52.0638 283.075 58.3069 290.584 58.3069ZM290.584 30.9699C294.187 30.9699 296.015 34.5503 296.015 41.6024C296.015 48.6545 294.187 52.2348 290.584 52.2348C286.886 52.2348 285.09 48.7538 285.09 41.6024C285.09 34.4509 286.886 30.9699 290.584 30.9699Z" fill="#DD5D05" stroke="#DD5D05" stroke-width="0.0701818" stroke-miterlimit="10"/>
<path d="M309.997 57.6253H327.31V65.6227H333.367V51.6295H329.459V25.5962H311.587L311.566 26.0908C310.912 41.3946 309.486 49.5284 307.062 51.6295H303.944V65.6227H309.997V57.6253ZM317.624 31.5342H323.025V51.6434H314.113C315.865 47.4828 317.014 40.8792 317.624 31.5342Z" fill="#DD5D05" stroke="#DD5D05" stroke-width="0.0701818" stroke-miterlimit="10"/>
<path d="M347.409 24.9141C343.984 24.9141 340.245 26.2292 337.421 28.432L337.065 28.7094L339.868 33.5633L340.33 33.2351C342.514 31.6957 344.666 30.9237 346.723 30.9237C349.526 30.9237 351.345 31.8275 351.694 36.2399C348.556 36.7923 346.097 37.3956 344.37 38.0474C338.798 40.1878 335.854 43.9554 335.854 48.9457C335.854 54.7242 339.614 58.3277 345.671 58.3277C348.248 58.3277 350.756 57.4863 353.092 55.8267L353.663 56.7212C353.86 57.0162 354.129 57.256 354.444 57.4179C354.76 57.5797 355.111 57.6581 355.466 57.6458H356.829C356.98 57.651 357.13 57.6251 357.27 57.5697C357.41 57.5144 357.538 57.4308 357.644 57.3241C357.75 57.2174 357.834 57.09 357.889 56.9496C357.944 56.8094 357.97 56.6592 357.964 56.5086V37.8926C357.966 29.4005 354.315 24.9141 347.409 24.9141ZM351.664 50.4643C350.132 51.6671 348.24 52.3185 346.293 52.3134C344.444 52.3134 342.225 51.6824 342.225 48.6776C342.225 46.4679 343.806 44.6141 346.665 43.4561C348.308 42.8492 349.999 42.38 351.719 42.0531L351.664 50.4643Z" fill="#DD5D05" stroke="#DD5D05" stroke-width="0.0701818" stroke-miterlimit="10"/>
<path d="M379.552 25.5962V38.3667H370.548V25.5962H364.123V57.6253H370.548V44.3601H379.552V57.6253H385.982V25.5962H379.552Z" fill="#DD5D05" stroke="#DD5D05" stroke-width="0.0701818" stroke-miterlimit="10"/>
<path d="M235.501 87.5811H228.085L222.175 96.7643C221.359 97.9318 220.302 98.9113 219.076 99.6373V87.5811H212.651V119.61H219.076V106.981C219.704 106.495 220.379 106.071 221.089 105.716L229.044 119.61H236.273L225.605 101.454L235.501 87.5811Z" fill="#DD5D05" stroke="#DD5D05" stroke-width="0.0701818" stroke-miterlimit="10"/>
<path d="M248.871 86.8989C245.446 86.8989 241.706 88.2141 238.882 90.4169L238.526 90.6942L241.33 95.5482L241.792 95.22C243.976 93.6806 246.125 92.9086 248.184 92.9086C250.988 92.9086 252.807 93.8123 253.158 98.2248C250.019 98.7772 247.558 99.3805 245.832 100.032C240.262 102.17 237.32 105.94 237.32 110.931C237.32 116.709 241.08 120.313 247.133 120.313C249.71 120.313 252.203 119.471 254.554 117.812L255.122 118.706C255.319 119.001 255.589 119.241 255.905 119.403C256.22 119.565 256.573 119.643 256.927 119.631H258.289C258.439 119.636 258.59 119.611 258.73 119.555C258.871 119.5 258.998 119.417 259.105 119.31C259.212 119.203 259.295 119.076 259.35 118.935C259.405 118.795 259.431 118.644 259.426 118.493V99.8774C259.428 91.3853 255.776 86.8989 248.871 86.8989ZM253.123 112.449C251.592 113.652 249.701 114.303 247.755 114.298C245.906 114.298 243.687 113.667 243.687 110.662C243.687 108.453 245.268 106.599 248.127 105.441C249.771 104.834 251.463 104.364 253.186 104.038L253.123 112.449Z" fill="#DD5D05" stroke="#DD5D05" stroke-width="0.0701818" stroke-miterlimit="10"/>
<path d="M281.688 102.018C282.567 101.234 283.269 100.273 283.748 99.1964C284.226 98.1203 284.469 96.9547 284.462 95.7771C284.462 90.4609 280.718 86.8921 275.146 86.8921C269.705 86.8921 265.615 90.4378 264.958 95.7124L264.903 96.1608L270.836 97.7395L270.886 97.1224C271.118 94.3487 272.569 92.7631 274.894 92.7631C276.787 92.7631 278.157 94.0829 278.157 95.9019C278.157 97.5754 277.422 98.5878 275.615 99.3991C275.007 99.6764 273.577 99.9769 272.61 100.092L272.148 100.148V105.883L272.842 105.614C273.429 105.371 274.055 105.236 274.69 105.215C277.619 105.215 279.507 107.031 279.507 109.837C279.507 112.643 277.824 114.28 275 114.28C271.961 114.28 270.214 112.475 269.814 108.91L269.761 108.448H263.562L263.643 109.038C264.674 116.383 268.728 120.269 275.372 120.269C281.654 120.269 285.872 116.198 285.872 110.142C285.895 107.071 284.344 104.066 281.688 102.018Z" fill="#DD5D05" stroke="#DD5D05" stroke-width="0.0701818" stroke-miterlimit="10"/>
<path d="M301.301 86.8989C293.674 86.8989 289.315 92.9848 289.315 103.596C289.315 114.049 293.794 120.292 301.301 120.292C308.765 120.292 313.221 114.051 313.221 103.596C313.233 92.9848 308.874 86.8989 301.301 86.8989ZM301.301 114.236C297.603 114.236 295.805 110.755 295.805 103.603C295.805 96.4519 297.605 92.971 301.301 92.971C304.904 92.971 306.732 96.5513 306.732 103.603C306.732 110.655 304.913 114.236 301.301 114.236Z" fill="#DD5D05" stroke="#DD5D05" stroke-width="0.0701818" stroke-miterlimit="10"/>
<path d="M341.044 87.5811H333.628L326.598 97.594C326.068 98.3885 325.399 99.0814 324.624 99.6396V87.5811H318.199V119.61H324.624V106.981C325.252 106.495 325.927 106.071 326.637 105.716L334.592 119.61H341.809L331.141 101.454L341.044 87.5811Z" fill="#DD5D05" stroke="#DD5D05" stroke-width="0.0701818" stroke-miterlimit="10"/>
<path d="M202.023 106.324C201.022 111.141 198.443 113.986 195.013 113.986C189.647 113.986 187.04 108.559 187.04 97.3952C187.04 86.2311 189.607 80.8039 194.897 80.8039C198.912 80.8039 200.765 84.2433 201.618 87.2759H208.089L207.733 85.9861C205.704 78.3585 201.385 74.5054 194.9 74.5054C188.271 74.5054 180.374 78.4764 180.374 97.3998C180.374 116.323 188.329 120.292 195.013 120.292C202.071 120.292 206.83 115.339 208.473 106.324H202.023Z" fill="#DD5D05" stroke="#DD5D05" stroke-width="0.0701818" stroke-miterlimit="10"/>
</g>
<defs>
<clipPath id="clip0_2_4358">
<rect width="386" height="147.382" fill="white" transform="translate(0 0.808594)"/>
</clipPath>
</defs>
</svg>
