<svg width="206" height="205" viewBox="0 0 206 205" fill="none" xmlns="http://www.w3.org/2000/svg">
<rect x="0.974609" width="204.995" height="204.995" rx="45.2403" fill="url(#paint0_linear)"/>
<path d="M136.178 80.1437C138.345 80.1437 140.103 78.3757 140.103 76.1948C140.103 74.0139 138.345 72.2459 136.178 72.2459C134.01 72.2459 132.253 74.0139 132.253 76.1948C132.253 78.3757 134.01 80.1437 136.178 80.1437Z" fill="white"/>
<path d="M74.6929 76.1948C74.6929 78.3757 72.9358 80.1437 70.7683 80.1437C68.6009 80.1437 66.8438 78.3757 66.8438 76.1948C66.8438 74.0139 68.6009 72.2459 70.7683 72.2459C72.9358 72.2459 74.6929 74.0139 74.6929 76.1948Z" fill="white"/>
<path fill-rule="evenodd" clip-rule="evenodd" d="M80.3013 41.542L63.6715 35.3447L61.9462 51.4029C51.8369 55.0454 44.6045 64.7703 44.6045 76.1948C44.6045 83.0201 47.1859 89.2388 51.4199 93.9163C41.4553 106.728 39.0804 124.202 45.7067 139.441L51.2104 152.099L62.6671 141.785C65.5875 145.747 69.5157 148.948 74.1143 150.984L72.3231 159.995C66.9271 160.922 61.8246 163.906 58.3183 168.946L57.8269 169.652H94.1762L93.6849 168.946C90.8723 164.903 87.0328 162.183 82.8385 160.787L84.1149 154.365C96.7705 157.665 110.177 157.665 122.832 154.365L124.109 160.787C119.915 162.183 116.075 164.903 113.262 168.946L112.771 169.652H149.12L148.629 168.946C145.123 163.906 140.02 160.922 134.624 159.995L132.833 150.983C137.431 148.948 141.359 145.746 144.279 141.785L155.736 152.099L161.24 139.441C167.866 124.202 165.491 106.728 155.526 93.9163C159.76 89.2388 162.342 83.0201 162.342 76.1948C162.342 64.7704 155.11 55.0457 145 51.4031L143.275 35.3447L126.645 41.542C111.694 47.114 95.253 47.114 80.3013 41.542ZM67.3224 102.294L67.0267 113.714C66.9108 118.189 67.1351 122.666 67.6978 127.107C68.5164 133.567 72.8375 139.146 78.8927 141.583C94.551 147.885 112.396 147.885 128.054 141.583C134.109 139.146 138.43 133.567 139.249 127.107C139.811 122.666 140.036 118.189 139.92 113.714L139.624 102.294C138.496 102.444 137.346 102.521 136.178 102.521C125.796 102.521 116.827 96.4368 112.599 87.6191L108.245 99.8881H98.9879L94.51 87.2724C90.3532 96.2769 81.2854 102.521 70.7683 102.521C69.6002 102.521 68.45 102.444 67.3224 102.294ZM96.9 77.5111H100.769L103.616 85.5323L106.463 77.5111H110.046C110.025 77.075 110.014 76.6362 110.014 76.1948C110.014 66.8212 114.883 58.5918 122.215 53.9274C109.912 57.0262 97.0345 57.0261 84.7314 53.9272C92.0633 58.5917 96.9322 66.8211 96.9322 76.1948C96.9322 76.6362 96.9214 77.075 96.9 77.5111ZM72.7025 49.9397L72.6327 49.9137L72.6305 49.9345L72.7025 49.9397ZM57.9707 131.883C57.684 130.758 57.4644 129.608 57.3163 128.439C56.6862 123.465 56.4349 118.451 56.5647 113.439L56.7898 104.746C51.7825 113.731 50.9763 124.706 55.0106 134.548L57.9707 131.883ZM151.936 134.548L148.976 131.883C149.263 130.758 149.482 129.608 149.63 128.439C150.26 123.465 150.512 118.451 150.382 113.439L150.157 104.747C155.164 113.732 155.97 124.706 151.936 134.548ZM134.316 49.9345L134.314 49.9137L134.244 49.9396L134.316 49.9345ZM120.48 76.1948C120.48 67.4711 127.508 60.3992 136.178 60.3992C144.848 60.3992 151.876 67.4711 151.876 76.1948C151.876 84.9184 144.848 91.9903 136.178 91.9903C127.508 91.9903 120.48 84.9184 120.48 76.1948ZM55.07 76.1948C55.07 67.4711 62.0984 60.3992 70.7683 60.3992C79.4383 60.3992 86.4666 67.4711 86.4666 76.1948C86.4666 84.9184 79.4383 91.9903 70.7683 91.9903C62.0984 91.9903 55.07 84.9184 55.07 76.1948Z" fill="white"/>
<defs>
<linearGradient id="paint0_linear" x1="103.472" y1="0" x2="103.472" y2="204.995" gradientUnits="userSpaceOnUse">
<stop stop-color="#9CE7FF"/>
<stop offset="1" stop-color="#2C78FF"/>
</linearGradient>
</defs>
</svg>
