<svg width="300" height="297" viewBox="0 0 300 297" fill="none" xmlns="http://www.w3.org/2000/svg">
<g clip-path="url(#clip0)">
<path d="M148.458 296.958C230.449 296.958 296.916 230.491 296.916 148.5C296.916 66.5088 230.449 0.0418701 148.458 0.0418701C66.467 0.0418701 0 66.5088 0 148.5C0 230.491 66.467 296.958 148.458 296.958Z" fill="#F5F6F9"/>
<path d="M156.299 210.306C157.662 210.306 158.766 209.202 158.766 207.839C158.766 206.477 157.662 205.372 156.299 205.372C154.937 205.372 153.833 206.477 153.833 207.839C153.833 209.202 154.937 210.306 156.299 210.306Z" fill="#9FCBFF"/>
<path d="M148.899 213.919C150.261 213.919 151.366 212.814 151.366 211.452C151.366 210.089 150.261 208.985 148.899 208.985C147.536 208.985 146.432 210.089 146.432 211.452C146.432 212.814 147.536 213.919 148.899 213.919Z" fill="#9FCBFF"/>
<path d="M161.366 220.659C162.728 220.659 163.833 219.554 163.833 218.192C163.833 216.829 162.728 215.725 161.366 215.725C160.003 215.725 158.899 216.829 158.899 218.192C158.899 219.554 160.003 220.659 161.366 220.659Z" fill="#9FCBFF"/>
<path d="M166.168 230.57C167.53 230.57 168.635 229.466 168.635 228.103C168.635 226.741 167.53 225.636 166.168 225.636C164.805 225.636 163.701 226.741 163.701 228.103C163.701 229.466 164.805 230.57 166.168 230.57Z" fill="#9FCBFF"/>
<path d="M170.969 240.438C172.331 240.438 173.436 239.334 173.436 237.971C173.436 236.609 172.331 235.504 170.969 235.504C169.606 235.504 168.502 236.609 168.502 237.971C168.502 239.334 169.606 240.438 170.969 240.438Z" fill="#9FCBFF"/>
<path d="M153.921 224.271C155.283 224.271 156.388 223.167 156.388 221.804C156.388 220.442 155.283 219.337 153.921 219.337C152.558 219.337 151.454 220.442 151.454 221.804C151.454 223.167 152.558 224.271 153.921 224.271Z" fill="#9FCBFF"/>
<path d="M158.766 234.139C160.129 234.139 161.233 233.034 161.233 231.672C161.233 230.309 160.129 229.205 158.766 229.205C157.404 229.205 156.299 230.309 156.299 231.672C156.299 233.034 157.404 234.139 158.766 234.139Z" fill="#9FCBFF"/>
<path d="M163.569 244.051C164.931 244.051 166.035 242.946 166.035 241.584C166.035 240.221 164.931 239.117 163.569 239.117C162.206 239.117 161.102 240.221 161.102 241.584C161.102 242.946 162.206 244.051 163.569 244.051Z" fill="#9FCBFF"/>
<path d="M160.044 18.5C155.286 18.5441 151.542 16.1212 150.793 12.9934C150.441 11.4956 150.617 9.07273 152.335 7.57494C154.009 6.07714 156.564 6.03308 158.106 6.82604C160.881 8.23573 162.159 13.1256 160.044 18.5Z" fill="#9FCBFF"/>
<path d="M161.938 20.4823C161.454 15.6806 163.568 11.6718 166.652 10.6145C168.15 10.0859 170.617 10.0859 172.291 11.6718C173.965 13.2577 174.273 15.8127 173.612 17.4427C172.423 20.3942 167.621 22.1564 161.938 20.4823Z" fill="#9FCBFF"/>
<path d="M162.115 20.174C162.247 25.0198 159.868 28.8524 156.696 29.6894C155.154 30.0859 152.731 29.9537 151.146 28.2357C149.604 26.5617 149.472 23.9625 150.264 22.3766C151.674 19.5132 156.608 18.1035 162.115 20.174Z" fill="#9FCBFF"/>
<path d="M158.414 15.9009C158.899 16.5176 159.34 17.1344 159.824 17.6189C160.309 18.1035 160.749 18.5441 161.234 18.7643C161.454 18.8965 161.718 18.9846 161.939 19.0286C162.159 19.0727 162.335 19.1167 162.599 19.1167C162.864 19.1167 163.172 19.0727 163.701 19.1167C164.229 19.1608 164.846 19.337 165.375 19.6013C165.859 19.8656 166.3 20.2621 166.652 20.7026C167.005 21.1872 167.181 21.6718 167.313 22.0683C167.445 22.4648 167.533 22.8172 167.621 23.1696C167.71 23.478 167.798 23.7863 167.886 24.0947C168.238 25.3282 168.855 26.5617 169.648 27.9714C168.062 27.6189 166.696 26.6057 165.727 25.196C165.243 24.4912 164.89 23.6982 164.626 23.1696C164.494 22.9053 164.362 22.7291 164.273 22.5969C164.185 22.4648 164.053 22.3766 163.877 22.2885C163.745 22.2004 163.657 22.1564 163.436 22.1564C163.216 22.1123 162.82 22.1123 162.335 22.0242C161.851 21.9361 161.322 21.7599 160.881 21.5396C160.441 21.3194 160.044 21.011 159.736 20.6586C159.075 19.9537 158.723 19.1167 158.503 18.3238C158.282 17.4868 158.282 16.6938 158.414 15.9009Z" fill="#4488FF"/>
<path d="M11.4978 103.963C6.5198 104.007 2.64315 101.496 1.8502 98.2356C1.45372 96.6497 1.67399 94.1387 3.4361 92.5528C5.19822 90.9669 7.84139 90.9229 9.47134 91.7599C12.3788 93.2136 13.7445 98.3238 11.4978 103.963Z" fill="#69B4FF"/>
<path d="M13.4802 106.077C12.9515 101.055 15.1542 96.8701 18.4141 95.7688C20 95.2401 22.5551 95.1961 24.3172 96.8701C26.0793 98.5 26.3877 101.187 25.6828 102.905C24.4493 105.945 19.3833 107.795 13.4802 106.077Z" fill="#69B4FF"/>
<path d="M13.7006 105.725C13.8327 110.791 11.3217 114.8 8.01777 115.637C6.43187 116.077 3.8768 115.901 2.20279 114.139C0.572835 112.377 0.440677 109.689 1.27768 108.015C2.73143 105.02 7.92966 103.566 13.7006 105.725Z" fill="#69B4FF"/>
<path d="M9.82373 101.275C11.4096 102.553 12.7312 103.963 13.9647 105.416C14.5814 106.121 15.1982 106.87 15.7709 107.575L16.2114 108.06C16.3436 108.192 16.4757 108.324 16.5638 108.368C16.6079 108.412 16.6079 108.412 16.6519 108.412C16.6519 108.412 16.74 108.456 16.8281 108.456L17.0484 108.544C17.1365 108.544 17.1806 108.588 17.2687 108.588C17.7973 108.72 18.5021 108.632 19.4273 108.412C19.8678 108.324 20.3964 108.192 21.0572 108.148C21.1894 108.148 21.3656 108.148 21.5418 108.148C21.718 108.148 21.8942 108.192 22.1145 108.236C22.2907 108.28 22.511 108.324 22.6872 108.412C22.8634 108.5 23.0396 108.588 23.2158 108.72C23.5682 108.941 23.8325 109.249 24.0088 109.557C24.229 109.866 24.3171 110.174 24.4052 110.482C24.5814 111.099 24.5374 111.672 24.4933 112.201C24.3612 113.258 24.0528 114.227 23.5682 115.108C23.392 114.095 23.2599 113.17 22.9955 112.289C22.8634 111.848 22.6872 111.496 22.511 111.187C22.3347 110.923 22.1145 110.791 21.9383 110.747C21.8942 110.747 21.8502 110.747 21.8061 110.747C21.7621 110.747 21.718 110.747 21.674 110.747C21.6299 110.747 21.5858 110.747 21.4977 110.791C21.4537 110.791 21.3656 110.791 21.2775 110.835C20.9691 110.923 20.5726 111.055 20.088 111.231C19.6035 111.363 19.0748 111.54 18.5021 111.628C17.9295 111.716 17.2246 111.716 16.5638 111.584L16.0792 111.452C15.903 111.408 15.7709 111.319 15.5947 111.275C15.4184 111.231 15.2863 111.143 15.1101 111.055C14.9339 110.967 14.7577 110.835 14.5814 110.703C14.2731 110.438 14.0969 110.218 13.9206 109.998C13.7444 109.778 13.5682 109.557 13.4361 109.337C12.8634 108.5 12.3788 107.663 11.9383 106.782C11.1013 105.02 10.3083 103.214 9.82373 101.275Z" fill="#4488FF"/>
<path d="M186.608 262.641C191.321 265.504 193.524 270.218 192.335 273.742C191.762 275.46 190.088 277.707 187.489 278.148C184.89 278.588 182.379 277.09 181.321 275.328C179.427 272.288 181.189 266.65 186.608 262.641Z" fill="#69B4FF"/>
<path d="M206.3 254.403C210.485 252.861 214.538 253.83 216.168 256.341C216.961 257.575 217.577 259.733 216.52 261.584C215.507 263.434 213.304 264.271 211.674 264.095C208.811 263.742 206.124 259.822 206.3 254.403Z" fill="#9FCBFF"/>
<path d="M133.04 148.941C135.022 146.165 138.018 145.064 140.132 145.989C141.145 146.43 142.467 147.531 142.599 149.205C142.731 150.835 141.718 152.289 140.573 152.861C138.634 153.786 135.242 152.465 133.04 148.941Z" fill="#69B4FF"/>
<path d="M131.41 147.619C129.471 145.681 128.943 143.17 129.912 141.584C130.396 140.835 131.454 139.91 132.775 139.998C134.053 140.086 135.11 141.099 135.418 142.068C135.947 143.83 134.493 146.341 131.41 147.619Z" fill="#9FCBFF"/>
<path d="M111.63 276.738C106.828 274.755 104.537 269.249 106.52 264.447C106.564 264.359 106.564 264.315 106.608 264.227L123.965 271.407C123.921 271.496 123.921 271.54 123.876 271.628C121.894 276.429 116.432 278.72 111.63 276.738Z" fill="#9FCBFF"/>
<path d="M249.691 211.231C252.335 208.015 256.035 210.042 259.647 207.399C263.921 204.271 264.009 198.456 266.916 187.575C268.722 180.835 269.868 174.227 268.81 167.223C267.753 160.262 265.286 153.61 262.863 147.046C262.114 145.064 263.392 142.817 265.154 141.848C259.647 133.39 253.04 127.619 247.973 123.875C245.859 126.121 241.806 129.822 235.595 132.289C230.088 134.491 225.198 134.8 222.247 134.756C220.308 134.227 216.123 133.434 211.894 135.196C208.987 136.43 206.828 138.5 206.123 139.205C205.154 140.13 204.758 140.703 202.995 142.773C201.321 144.712 199.912 146.209 198.987 147.223C195.859 153.522 189.075 156.738 182.995 155.24C175.727 153.434 173.304 145.813 173.216 145.46C171.057 144.8 168.943 144.183 166.784 143.522C166.564 146.606 166.564 152.949 170.396 158.941C176.123 167.795 187.973 172.112 200.308 169.822C200.22 168.104 200.264 164.623 202.114 160.747C204.229 156.341 207.445 153.963 208.899 153.037C206.564 158.985 206.608 163.522 207.092 166.606C207.357 168.324 207.665 169.822 208.062 171.231C209.207 175.46 210.661 178.72 211.498 180.438C211.674 180.835 211.85 181.187 211.982 181.363C212.026 181.496 212.07 181.584 212.07 181.584C216.343 189.91 211.762 210.526 211.762 210.526C208.987 223.126 206.255 235.504 210.881 240.482C214.361 244.227 223.348 245.372 247.445 234.403C247.533 228.941 247.709 224.139 247.885 220.174C248.15 214.667 248.326 212.861 249.691 211.231Z" fill="#9FCBFF"/>
<path d="M292.158 132.993C293.171 130.482 292.599 127.927 295.286 122.905C295.638 122.289 295.947 121.672 296.211 121.011C295.903 116.077 295.55 111.143 295.11 106.209C293.216 104.139 291.321 101.98 289.427 99.7335C284.978 94.4031 281.101 89.1608 277.797 84.1388C276.475 82.3326 275.066 80.218 273.7 77.7951C272.07 74.8436 270.837 72.0683 269.956 69.6013C268.149 67.4427 266.343 65.2841 264.537 63.0815C262.643 60.7907 260.616 58.3678 258.546 55.8128C257.577 55.4163 252.29 53.2136 247.004 55.8128C244.537 57.0462 241.101 59.7775 241.674 61.5837C242.599 64.5793 253.48 60.8348 257.665 66.033C260.308 69.337 259.691 74.4031 258.546 78.5C258.502 79.2489 258.017 84.2269 253.656 87.3987C250.264 89.8656 246.652 89.6894 245.638 89.6013C245.154 94.0066 244.713 98.4559 244.317 102.949C244.185 104.579 244.008 106.209 243.876 107.839C244.625 110.967 245.374 114.051 246.079 117.178C245.815 117.751 241.321 128.985 248.37 138.72C253.436 145.725 262.379 149.029 271.057 147.178C271.277 147.046 275.682 144.403 275.903 144.315C286.123 138.192 291.277 135.064 292.158 132.993Z" fill="#69B4FF"/>
<path d="M257.841 45.945C255.903 41.7599 253.304 38.3238 249.427 35.7688C247.004 34.1829 244.449 32.8172 241.938 31.3635C240.528 30.5265 239.075 29.7335 237.621 28.8965C236.74 28.4119 235.947 27.7511 234.978 27.4428C234.449 28.456 233.876 28.8525 233.436 28.9846C232.291 29.4251 231.365 28.6322 228.81 28.0155C228.81 28.0155 228.282 27.8833 226.123 27.5749C218.238 26.3855 211.894 28.456 211.894 28.456C206.167 30.3062 202.335 33.8304 200.352 36.0331C200.088 36.3855 199.207 37.4868 197.665 37.7952C195.066 38.3679 193.128 36.2974 193.039 36.2093C187.577 35.945 182.687 39.4251 181.233 44.4472C179.647 49.8657 182.423 55.8569 187.797 58.2357C189.207 59.0727 190.661 59.9097 192.07 60.7908C194.141 62.0683 198.59 64.4031 204.537 64.3591C215.418 64.271 222.202 56.2533 223.216 55.0199C224.185 56.6058 225.991 58.9846 228.987 60.7908C235.947 65.0199 243.524 62.6851 244.802 62.2445C245.639 62.6851 251.498 65.8128 257.269 63.1256C258.15 62.7291 262.379 60.7467 263.039 56.9141C263.568 53.8745 262.026 50.5705 260.837 49.3811C260.308 48.8525 259.912 48.2798 259.559 47.619C258.854 47.2666 258.194 46.6939 257.841 45.945Z" fill="#9FCBFF"/>
<path d="M234.758 75.945C234.493 75.2842 232.599 70.174 235.022 64.9758C236.476 61.9362 237.797 62.2886 238.282 59.9538C239.251 55.6807 235.11 52.597 236.52 50.6146C237.445 49.293 239.824 49.5133 241.85 49.7335C244.273 49.9538 250.088 51.1873 250.749 54.1829C251.498 57.619 244.361 58.8525 240.793 66.2974C237.489 73.2137 239.824 80.174 238.106 80.5265C236.96 80.7467 235.33 77.3987 234.758 75.945Z" fill="#9FCBFF"/>
<path d="M111.322 188.148C111.278 182.773 110.352 177.355 109.559 172.024C108.855 167.178 107.489 162.465 107.533 157.531C107.533 156.694 107.753 155.945 108.062 155.372C103.656 147.795 97.2246 141.319 91.6299 134.711C90.7929 133.742 90.3083 132.509 90.3083 131.319C88.0176 130.791 86.3436 130.791 86.3436 130.791C85.1101 130.791 84.0528 130.923 83.348 131.055C82.3348 132.553 79.5154 136.165 74.4493 138.104C67.4009 140.747 61.2335 138.236 59.9119 137.619C57.7092 135.901 55.5506 134.183 53.348 132.465C50 132.377 47.4449 132.905 45.859 133.39C27.6211 138.852 22.4229 165.637 21.9383 168.104C21.1453 172.156 21.0132 176.253 21.0132 176.253C21.0132 179.91 21.1453 183.742 21.9383 188.28C23.0396 194.271 25.7268 209.073 30.9251 209.557C33.6564 209.822 36.0352 205.945 40.4405 207.09C40.881 207.222 41.1894 207.311 41.674 207.531C46.0352 209.337 48.4581 212.817 49.6475 214.579C50.9251 216.474 53.2158 219.866 53.9207 223.698C55.4625 223.126 57.2687 223.302 58.5903 224.711C61.2335 227.531 62.6872 231.143 64.6255 234.447C66.0793 236.87 66.8282 238.896 67.8414 240.086C74.5815 248.192 100.749 243.83 103.921 233.126C104.053 232.685 104.185 232.024 103.921 228.148C103.436 221.275 101.894 214.535 100.749 207.751C100.529 206.518 100.22 204.447 99.8238 201.848C100.352 202.112 102.996 203.346 106.167 202.289C109.559 201.143 110.925 198.236 111.145 197.751C111.894 196.033 112.643 193.522 112.159 190.615C111.894 189.425 111.322 188.544 111.322 188.148Z" fill="#69B4FF"/>
<path d="M69.3389 38.1916C65.5063 41.3634 63.3918 47.663 64.3169 52.5088C64.8896 55.5925 66.2552 55.9008 67.0041 59.1608C68.7663 67.0462 63.1715 75.4603 61.5856 75.0639C60.7486 74.8436 60.9689 72.4647 59.9116 66.6057C59.4711 64.1828 58.7222 62.2885 58.2376 61.0991C57.3125 59.7335 55.9028 58.3238 53.568 57.9273C53.524 57.9273 53.4799 57.9273 53.4799 57.9273C50.0878 57.3105 48.5019 59.8216 46.4314 58.8524C44.2288 57.8392 43.9645 54.0506 43.6121 49.4691C43.3477 45.9449 42.9513 42.5969 44.0966 38.6762C44.1847 38.4559 44.2288 38.1475 44.361 37.707C44.361 37.707 45.9469 32.6409 50.6165 28.5C55.7266 23.9185 63.1275 22.7731 77.2244 16.2092C82.8632 13.6101 88.6341 11.3634 94.2288 8.58808C95.2861 8.05945 96.2552 7.53081 97.753 7.17839C104.669 5.41627 112.599 8.01539 113.744 11.1872C113.92 11.7158 114.537 13.8744 115.859 17.5749C115.947 17.7951 115.947 17.8832 115.991 17.9273C116.211 18.544 118.942 26.5616 116.784 31.1431C115.286 34.315 111.498 35.7246 106.916 36.7819C87.4006 41.1431 76.9601 31.848 69.3389 38.1916Z" fill="#69B4FF"/>
<path d="M119.516 58.8525C118.59 59.3811 117.753 59.6014 116.916 59.7776C116.079 59.9538 115.286 59.9538 114.449 59.9538C113.656 59.9097 112.819 59.7776 112.027 59.5573C111.234 59.3371 110.397 58.9846 109.56 58.3238C110.353 57.663 111.234 57.3547 112.071 57.0904C112.908 56.826 113.789 56.782 114.626 56.826C115.463 56.8701 116.3 57.0463 117.137 57.3547C117.974 57.663 118.767 58.1036 119.516 58.8525Z" fill="#4488FF"/>
<path d="M83.1717 59.293C82.2906 59.8657 81.4536 60.1741 80.6606 60.3503C79.8236 60.5705 79.0307 60.6586 78.2377 60.6586C77.4448 60.6586 76.6078 60.5705 75.8148 60.3943C74.9778 60.2181 74.1408 59.9098 73.2598 59.3371C74.0527 58.6322 74.8457 58.2798 75.6827 57.9714C76.5197 57.6631 77.3567 57.575 78.1937 57.575C79.0307 57.575 79.9117 57.7071 80.7488 57.9714C81.5417 58.2357 82.3787 58.5882 83.1717 59.293Z" fill="#4488FF"/>
<path d="M84.053 69.5132C82.9517 69.1168 82.1147 68.8525 81.3217 68.6762C80.5288 68.5 79.7799 68.456 79.075 68.456C78.3702 68.456 77.6653 68.5 76.8724 68.6762C76.0794 68.8525 75.1984 69.1608 74.1411 69.5573C74.1852 68.3679 74.8019 67.3106 75.727 66.5617C76.6521 65.8128 77.8856 65.3282 79.1191 65.3723C80.3526 65.3723 81.586 65.8128 82.4671 66.5617C83.3482 67.3106 83.9649 68.3679 84.053 69.5132Z" fill="#4488FF"/>
<path d="M193.877 74.8436C192.775 74.4471 191.938 74.1828 191.145 74.0066C190.353 73.8304 189.604 73.7863 188.899 73.7863C188.194 73.7863 187.489 73.8304 186.696 74.0066C185.903 74.1828 185.022 74.4911 183.965 74.8876C184.009 73.6982 184.626 72.6409 185.551 71.892C186.476 71.1431 187.709 70.6585 188.943 70.7026C190.176 70.7026 191.41 71.1431 192.291 71.892C193.172 72.6409 193.789 73.6982 193.877 74.8436Z" fill="#4488FF"/>
<path d="M228.546 70.3942C227.445 69.9978 226.608 69.7334 225.815 69.5572C225.022 69.381 224.273 69.337 223.568 69.337C222.863 69.337 222.159 69.381 221.366 69.5572C220.573 69.7334 219.692 70.0418 218.634 70.4383C218.678 69.2489 219.295 68.1916 220.22 67.4427C221.145 66.6938 222.379 66.2092 223.612 66.2533C224.846 66.2533 226.079 66.6938 226.96 67.4427C227.841 68.1916 228.502 69.2489 228.546 70.3942Z" fill="#4488FF"/>
<path d="M97.0045 65.5925C98.7226 66.4736 100.176 67.7952 101.41 69.337C102.643 70.8789 103.612 72.685 104.097 74.7115L104.273 75.4604L104.361 76.2533C104.405 76.5176 104.449 76.782 104.449 77.0463V77.8392C104.449 78.1035 104.449 78.3679 104.449 78.6322L104.361 79.4251L104.273 80.2181C104.229 80.4824 104.185 80.7467 104.097 80.967C103.568 82.9934 102.467 84.8436 101.057 86.2533L100.881 86.4295C100.661 86.6498 100.353 86.7379 100.044 86.6939C99.4715 86.6058 98.9429 86.4736 98.3702 86.3855C97.7975 86.2533 97.2689 86.1212 96.6962 85.989C96.1235 85.8569 95.5948 85.7247 95.0222 85.5485C94.4495 85.3723 93.9208 85.2401 93.3481 85.0198C93.9208 84.8877 94.4935 84.7996 95.0662 84.7555C95.6389 84.6674 96.2116 84.6234 96.7843 84.5793C97.357 84.5353 97.9296 84.4912 98.5023 84.4472C99.075 84.4031 99.6477 84.4031 100.22 84.3591L99.2072 84.7996C100.132 83.3458 100.793 81.804 101.146 80.2181C101.19 80.0419 101.234 79.8216 101.278 79.6013L101.366 78.9846L101.454 78.3679V77.7511V77.1344L101.41 76.5176L101.366 75.9009L101.278 75.2842C101.013 73.6542 100.485 72.0242 99.7358 70.3943C98.9429 68.8084 98.0177 67.1784 97.0045 65.5925Z" fill="#4488FF"/>
<path d="M102.202 91.5837C101.365 92.3326 100.484 92.9934 99.5151 93.5221C98.546 94.0947 97.5328 94.5793 96.4755 94.9318C95.4182 95.3282 94.3169 95.6366 93.2156 95.8128C92.1143 96.0331 90.9689 96.1212 89.8676 96.1652L91.3213 94.2269C91.3654 94.4031 91.4975 94.6674 91.5856 94.8877C91.6737 95.108 91.8059 95.3723 91.938 95.5925C92.2024 96.0331 92.5107 96.4736 92.8191 96.826C93.4799 97.5749 94.3169 98.1476 95.3301 98.456C96.2993 98.7643 97.4446 98.8965 98.59 98.6762C99.7354 98.5 100.881 98.0155 101.982 97.3106C101.409 98.5 100.396 99.5573 99.1187 100.218C97.8411 100.879 96.2993 101.143 94.8015 100.923C94.6253 100.923 94.405 100.879 94.2288 100.835C94.0526 100.791 93.8323 100.747 93.6561 100.703C93.4799 100.659 93.3037 100.571 93.0834 100.526C92.9072 100.438 92.731 100.35 92.5548 100.306C91.8499 99.9538 91.1891 99.5133 90.6605 98.9406C90.0878 98.4119 89.6473 97.7952 89.2508 97.1344C89.0746 96.826 88.8984 96.4736 88.7222 96.1212C88.59 95.7688 88.4579 95.4163 88.3257 95.0199C88.1054 94.2269 88.59 93.3899 89.383 93.1696C89.5151 93.1256 89.6473 93.1256 89.7795 93.1256C90.7927 93.1256 91.8059 93.0815 92.8191 93.0375C93.8323 92.9494 94.8455 92.8613 95.8587 92.7291C96.872 92.597 97.9292 92.4207 98.9424 92.2005L100.528 91.8921C101.145 91.804 101.674 91.6718 102.202 91.5837Z" fill="#4488FF"/>
<path d="M55.8149 64.8436C53.9207 65.3723 52.4669 66.2093 51.3656 67.3106C50.2643 68.4119 49.5594 69.7775 49.2951 71.1432C49.0308 72.5529 49.2951 74.0066 49.9559 75.4163C50.6608 76.826 51.7621 78.1035 53.392 79.1608C51.4537 79.337 49.3392 78.4119 47.9735 76.782C46.5638 75.152 45.859 72.8172 46.2555 70.5705C46.652 68.3238 48.0616 66.3855 49.9119 65.3282C51.718 64.2709 54.0088 64.0507 55.8149 64.8436Z" fill="#4488FF"/>
<path d="M91.8503 121.055C82.4671 120.57 73.3481 117.002 72.1587 116.518" stroke="#4488FF" stroke-width="4.40653" stroke-miterlimit="10" stroke-linecap="round" stroke-linejoin="round"/>
<path d="M115.639 79.293C115.595 84.9317 115.286 89.6454 115.022 93.0375C113.524 110.571 110.485 114.359 108.766 116.033C106.344 118.412 103.568 119.557 101.63 120.13" stroke="#4488FF" stroke-width="4.40653" stroke-miterlimit="10" stroke-linecap="round" stroke-linejoin="round"/>
<path d="M116.608 42.6851C116.784 44.8877 116.916 47.0463 117.092 49.2489" stroke="#4488FF" stroke-width="4.40653" stroke-miterlimit="10" stroke-linecap="round" stroke-linejoin="round"/>
<path d="M54.4492 116.738C55.8149 113.434 57.4448 108.324 57.5329 101.892C57.577 98.1476 57.0924 94.9318 56.5197 92.3767" stroke="#4488FF" stroke-width="4.40653" stroke-miterlimit="10" stroke-linecap="round" stroke-linejoin="round"/>
<path d="M56.2996 84.9317C54.5815 84.8436 50.9252 84.359 47.4009 81.8039C46.0793 80.8788 43.3921 78.8524 42.0705 75.152C41.8943 74.7114 41.3216 72.9493 41.3657 70.5264C41.3657 69.6453 41.4538 64.2268 45.0221 61.0991C48.5023 58.0594 54.5375 57.9273 59.6476 61.0991" stroke="#4488FF" stroke-width="4.40653" stroke-miterlimit="10" stroke-linecap="round" stroke-linejoin="round"/>
<path d="M115.419 71.4516C117.535 71.4516 119.251 69.7357 119.251 67.619C119.251 65.5023 117.535 63.7864 115.419 63.7864C113.302 63.7864 111.586 65.5023 111.586 67.619C111.586 69.7357 113.302 71.4516 115.419 71.4516Z" fill="#4488FF"/>
<path d="M79.6478 128.28C80.7932 130.394 81.9386 132.509 83.0839 134.623C80.2205 136.121 75.1985 138.28 68.7227 138.5C57.0046 138.896 48.7227 132.773 46.2998 130.791C47.4892 129.117 48.7227 127.487 49.9121 125.813" stroke="#4488FF" stroke-width="4.40653" stroke-miterlimit="10" stroke-linecap="round" stroke-linejoin="round"/>
<path d="M92.3345 32.9934C95.5504 27.2224 92.7751 20.7907 88.7222 19.381C85.242 18.1916 80.2641 20.4383 78.1055 25.3282" stroke="#4488FF" stroke-width="4.40653" stroke-miterlimit="10" stroke-linecap="round" stroke-linejoin="round"/>
<path d="M105.947 32.9934C109.78 26.4736 108.414 18.8965 103.877 15.5925C99.7796 12.5529 94.4492 14.0066 93.6562 14.2709" stroke="#4488FF" stroke-width="4.40653" stroke-miterlimit="10" stroke-linecap="round" stroke-linejoin="round"/>
<path d="M116.255 32.9934C119.207 27.7952 119.295 21.5837 116.299 16.9141C113.568 12.5529 109.207 11.0991 107.841 10.7026" stroke="#4488FF" stroke-width="4.40653" stroke-miterlimit="10" stroke-linecap="round" stroke-linejoin="round"/>
<path d="M76.2115 36.5617C75.1543 36.5177 71.1014 36.4736 67.5772 39.4251C62.6433 43.5221 63.0838 49.8657 63.1719 50.4824" stroke="#4488FF" stroke-width="4.40653" stroke-miterlimit="10" stroke-linecap="round" stroke-linejoin="round"/>
<path d="M68.0617 30.7026C67.3128 30.7026 61.1454 30.8788 57.0925 36.1211C52.7753 41.7599 54.7137 48.2357 54.8899 48.8084" stroke="#4488FF" stroke-width="4.40653" stroke-miterlimit="10" stroke-linecap="round" stroke-linejoin="round"/>
<path d="M44.934 49.9097C44.4053 47.7951 43.7005 43.6982 44.934 38.8524C46.2555 33.7423 49.2071 30.7026 50.5287 29.3811C55.1983 24.5793 60.6608 23.0374 63.0837 22.5529" stroke="#4488FF" stroke-width="4.40653" stroke-miterlimit="10" stroke-linecap="round" stroke-linejoin="round"/>
<path d="M12.9514 175.02C12.1144 179.601 12.2906 183.39 12.5549 185.945C13.2157 191.848 15.1541 196.077 16.3875 198.72C18.1497 202.553 20.132 205.504 21.7179 207.531" stroke="#4488FF" stroke-width="4.40653" stroke-miterlimit="10" stroke-linecap="round" stroke-linejoin="round"/>
<path d="M40.9248 129.381C38.1935 129.645 34.2728 130.482 30.9688 133.258C30.9688 133.258 30.7045 133.522 30.3962 133.786C26.6076 137.443 19.1186 151.76 15.3301 159.249" stroke="#4488FF" stroke-width="4.40653" stroke-miterlimit="10" stroke-linecap="round" stroke-linejoin="round"/>
<path d="M36.3439 155.681C34.2293 160.086 30.7051 168.764 30.9254 180.13C31.1016 189.998 33.921 197.619 35.9034 201.892" stroke="#4488FF" stroke-width="4.40653" stroke-miterlimit="10" stroke-linecap="round" stroke-linejoin="round"/>
<path d="M37.0922 208.015C38.4138 207.883 40.8807 207.839 43.568 208.985C46.123 210.086 47.5768 211.716 48.9424 213.302C53.1274 218.103 54.3169 223.698 53.9204 226.782C53.7882 227.707 53.4358 230.614 51.2332 233.258C47.2244 238.192 40.7486 237.927 39.3829 237.883C37.4446 237.795 34.3609 237.707 32.2023 235.416C31.2332 234.403 30.7926 233.302 30.5283 232.553" stroke="#4488FF" stroke-width="4.40653" stroke-miterlimit="10" stroke-linecap="round" stroke-linejoin="round"/>
<path d="M111.718 205.681C113.04 205.769 115.463 206.121 117.93 207.707C120.265 209.205 121.454 211.055 122.555 212.861C125.859 218.28 126.168 224.007 125.287 226.958C125.11 227.531 124.978 227.927 124.934 228.015C123.48 231.584 120.132 233.214 119.34 233.566C115.463 235.372 111.806 234.315 110.881 234.007" stroke="#4488FF" stroke-width="4.40653" stroke-miterlimit="10" stroke-linecap="round" stroke-linejoin="round"/>
<path d="M90.1763 132.024C92.9516 134.359 96.7401 137.971 100.22 143.214C105.947 151.76 107.665 159.645 109.295 167.487C110.749 174.491 112.159 184.932 111.101 197.839" stroke="#4488FF" stroke-width="4.40653" stroke-miterlimit="10" stroke-linecap="round" stroke-linejoin="round"/>
<path d="M96.872 182.773C96.5195 178.632 95.8147 173.963 94.6693 168.941C92.6429 160.262 89.7354 153.037 86.916 147.399" stroke="#4488FF" stroke-width="4.40653" stroke-miterlimit="10" stroke-linecap="round" stroke-linejoin="round"/>
<path d="M103.304 250.262C103.7 241.716 103.612 231.936 102.511 221.143C101.674 212.773 100.352 205.108 98.8545 198.324" stroke="#4488FF" stroke-width="4.40653" stroke-miterlimit="10" stroke-linecap="round" stroke-linejoin="round"/>
<path d="M14.4935 225.901C13.3041 227.927 11.9825 230.615 10.9252 233.919C9.82388 237.355 9.3393 240.394 9.16309 242.817" stroke="#4488FF" stroke-width="4.40653" stroke-miterlimit="10" stroke-linecap="round" stroke-linejoin="round"/>
<path d="M22.5111 229.91C21.8944 231.407 21.2777 233.037 20.749 234.8C19.6918 238.148 18.9869 241.319 18.5464 244.139" stroke="#4488FF" stroke-width="4.40653" stroke-miterlimit="10" stroke-linecap="round" stroke-linejoin="round"/>
<path d="M54.4053 223.214C56.5639 224.447 58.9427 226.165 61.1894 228.544C66.4317 234.139 67.8414 240.306 68.2819 242.773" stroke="#4488FF" stroke-width="4.40653" stroke-miterlimit="10" stroke-linecap="round" stroke-linejoin="round"/>
<path d="M56.7402 237.443C57.1808 238.016 57.6653 238.72 58.0618 239.646C58.8548 241.452 58.9869 243.082 58.9429 244.095" stroke="#4488FF" stroke-width="4.40653" stroke-miterlimit="10" stroke-linecap="round" stroke-linejoin="round"/>
<path d="M81.3218 244.139C82.2469 244.359 83.5244 244.579 85.1103 244.447C88.0619 244.183 90.0883 242.817 91.0134 242.112" stroke="#4488FF" stroke-width="4.40653" stroke-miterlimit="10" stroke-linecap="round" stroke-linejoin="round"/>
<path d="M184.846 65.0199C185.551 64.271 186.299 63.8745 187.092 63.5661C187.885 63.2577 188.678 63.1256 189.471 63.0815C190.264 63.0375 191.101 63.0815 191.894 63.3458C192.687 63.5661 193.48 63.9185 194.273 64.5793C193.48 65.2401 192.687 65.5485 191.938 65.8128C191.189 66.0331 190.396 66.1652 189.647 66.2093C188.899 66.2533 188.106 66.2093 187.313 66.0331C186.52 65.7688 185.727 65.5485 184.846 65.0199Z" fill="#4488FF"/>
<path d="M219.031 61.2313C219.736 60.4824 220.484 60.0859 221.277 59.7775C222.07 59.4692 222.863 59.337 223.656 59.293C224.449 59.2489 225.286 59.293 226.079 59.5573C226.872 59.7775 227.665 60.13 228.458 60.7908C227.665 61.4515 226.872 61.7599 226.123 62.0242C225.374 62.2445 224.581 62.3767 223.833 62.4207C223.084 62.4648 222.291 62.4207 221.498 62.2445C220.661 62.0242 219.868 61.804 219.031 61.2313Z" fill="#4488FF"/>
<path d="M208.15 78.5C209.163 79.4251 209.736 80.7467 209.868 82.1564C209.912 82.8612 209.824 83.6101 209.648 84.315C209.472 85.0198 209.119 85.6366 208.811 86.2092L208.37 86.9141C208.238 87.0903 208.238 87.2665 208.238 87.0022C208.238 86.9581 208.238 86.9581 208.194 86.9141C208.194 86.87 208.194 86.826 208.15 86.826C208.106 86.7819 208.062 86.6938 208.018 86.6498C207.93 86.5617 207.886 86.5617 207.886 86.5617C207.886 86.6057 208.062 86.7379 208.282 86.7819C208.723 86.9581 209.295 87.0903 209.868 87.2225C210.441 87.3546 211.058 87.5308 211.718 87.7511C211.19 88.1916 210.573 88.5 210 88.7203C209.384 88.9405 208.723 89.1167 207.974 89.1608C207.577 89.1608 207.181 89.1608 206.608 88.8965C206.344 88.7643 206.036 88.5881 205.771 88.2357C205.507 87.9273 205.331 87.4427 205.287 87.0463C205.243 86.6057 205.331 86.2974 205.419 86.033C205.507 85.7687 205.595 85.5925 205.683 85.4163C205.859 85.0639 205.991 84.7996 206.168 84.5352C206.74 83.5661 207.181 82.7731 207.489 81.804C207.754 80.967 207.93 79.8656 208.15 78.5Z" fill="#4488FF"/>
<path d="M205.022 98.0595L208.15 97.575C209.163 97.3987 210.176 97.2666 211.189 97.0463C212.203 96.8701 213.172 96.6498 214.185 96.4296L215.639 96.0772L217.092 95.6807C217.885 95.4604 218.678 95.945 218.899 96.738C218.943 96.8261 218.943 96.9142 218.943 97.0023V97.0904C219.075 98.8084 218.766 100.615 217.753 102.245C217.269 103.038 216.608 103.742 215.815 104.271C215.066 104.8 214.229 105.152 213.392 105.372C212.555 105.593 211.674 105.681 210.837 105.637C210 105.593 209.207 105.46 208.414 105.24C206.872 104.756 205.507 103.919 204.405 102.817C205.859 103.258 207.313 103.522 208.678 103.566C209.383 103.566 210.044 103.522 210.705 103.434C211.366 103.302 211.982 103.126 212.555 102.905C213.7 102.377 214.581 101.672 215.11 100.703C215.683 99.7335 215.903 98.5441 215.903 97.2666L217.753 98.6763C216.696 98.8965 215.595 99.0728 214.537 99.1609C213.48 99.249 212.379 99.293 211.278 99.249C210.176 99.2049 209.119 99.1168 208.062 98.9406C207.092 98.6763 206.035 98.456 205.022 98.0595Z" fill="#4488FF"/>
<path d="M245.242 68.8965C246.96 68.1036 249.119 68.3239 250.881 69.3371C252.643 70.3503 254.009 72.2005 254.405 74.3591C254.802 76.5177 254.097 78.7644 252.731 80.2622C251.41 81.804 249.383 82.6851 247.533 82.4648C249.075 81.4076 250.088 80.1741 250.749 78.8525C251.366 77.5309 251.586 76.1653 251.366 74.8437C251.145 73.5221 250.484 72.2886 249.471 71.2313C248.37 70.2622 247.004 69.4252 245.242 68.8965Z" fill="#4488FF"/>
<path d="M249.383 176.914C249.912 174.579 250.352 171.407 250.176 167.663C249.868 162.2 248.282 157.883 247.048 155.196" stroke="#4488FF" stroke-width="4.40653" stroke-miterlimit="10" stroke-linecap="round" stroke-linejoin="round"/>
<path d="M246.564 241.672C247.181 236.165 247.753 230.483 248.194 224.668C248.502 220.527 248.767 216.342 248.987 212.068C249.119 209.249 249.251 206.43 249.339 203.566C249.471 199.734 249.516 195.813 249.56 191.848" stroke="#4488FF" stroke-width="4.40653" stroke-miterlimit="10" stroke-linecap="round" stroke-linejoin="round"/>
<path d="M172.863 138.632C172.863 139.205 173.084 150.659 180.749 154.227C183.392 155.46 185.859 155.24 186.96 155.152C197.797 154.183 204.141 140.879 204.89 139.293" stroke="#4488FF" stroke-width="4.40653" stroke-miterlimit="10" stroke-linecap="round" stroke-linejoin="round"/>
<path d="M160.793 143.214C160.352 145.372 158.458 156.033 165.242 164.535C168.546 168.72 172.555 170.57 175.022 171.716C185.022 176.253 194.758 174.359 198.943 173.258" stroke="#4488FF" stroke-width="4.40653" stroke-miterlimit="10" stroke-linecap="round" stroke-linejoin="round"/>
<path d="M202.775 228.764C202.026 231.936 200.969 235.46 199.471 239.205" stroke="#4488FF" stroke-width="4.40653" stroke-miterlimit="10" stroke-linecap="round" stroke-linejoin="round"/>
<path d="M203.921 206.914C204.141 209.91 204.405 212.553 204.361 215.637" stroke="#4488FF" stroke-width="4.40653" stroke-miterlimit="10" stroke-linecap="round" stroke-linejoin="round"/>
<path d="M207.93 153.434C206.256 154.844 203.304 157.707 201.718 162.333C198.502 171.628 203.656 179.866 204.405 181.011C204.053 183.962 203.612 188.544 203.524 194.183" stroke="#4488FF" stroke-width="4.40653" stroke-miterlimit="10" stroke-linecap="round" stroke-linejoin="round"/>
<path d="M252.819 132.949C253.48 133.786 254.405 134.976 255.507 136.517C267.974 154.447 267.665 173.918 267.577 176.826C267.092 193.081 260.661 204.932 257.269 210.306" stroke="#4488FF" stroke-width="4.40653" stroke-miterlimit="10" stroke-linecap="round" stroke-linejoin="round"/>
<path d="M188.326 87.1785C187.797 88.9406 184.537 100.218 191.013 109.866C197.709 119.866 212.158 124.007 225.683 118.764" stroke="#4488FF" stroke-width="4.40653" stroke-miterlimit="10" stroke-linecap="round" stroke-linejoin="round"/>
<path d="M222.291 126.341C221.983 128.808 221.63 131.275 221.322 133.786C223.524 134.359 226.608 134.8 230.22 134.271C239.736 132.861 245.242 125.681 246.564 123.875" stroke="#4488FF" stroke-width="4.40653" stroke-miterlimit="10" stroke-linecap="round" stroke-linejoin="round"/>
<path d="M245.506 117.971C244.802 115.504 244.097 112.112 244.009 108.06C243.965 104.447 244.449 101.364 244.978 99.0728" stroke="#4488FF" stroke-width="4.40653" stroke-miterlimit="10" stroke-linecap="round" stroke-linejoin="round"/>
<path d="M258.414 77.7952C258.899 75.9009 258.899 74.4912 258.899 74.359C258.899 72.9053 258.855 68.3238 255.419 65.4604C251.938 62.5529 246.344 62.5088 241.542 65.4604" stroke="#4488FF" stroke-width="4.40653" stroke-miterlimit="10" stroke-linecap="round" stroke-linejoin="round"/>
<path d="M243.083 88.1916C244.361 88.3678 248.458 88.7643 252.511 86.2092" stroke="#4488FF" stroke-width="4.40653" stroke-miterlimit="10" stroke-linecap="round" stroke-linejoin="round"/>
<path d="M245.506 85.152C245.11 86.826 244.625 88.544 244.053 90.2621" stroke="#4488FF" stroke-width="4.40653" stroke-miterlimit="10" stroke-linecap="round" stroke-linejoin="round"/>
<path d="M283.833 92.2445C293.656 105.857 299.604 111.892 297.269 121.892C296.035 127.134 291.63 137.619 270.573 146.782" stroke="#4488FF" stroke-width="4.40653" stroke-miterlimit="10" stroke-linecap="round" stroke-linejoin="round"/>
<path d="M275.947 80.6586C277.137 82.5088 278.282 84.2268 279.383 85.9009" stroke="#4488FF" stroke-width="4.40653" stroke-miterlimit="10" stroke-linecap="round" stroke-linejoin="round"/>
<path d="M186.564 58.7203C180.132 53.5661 178.414 45.8128 181.233 41.3635C184.229 36.6498 191.982 36.4736 192.335 36.4736C195.154 36.4296 197.665 37.3547 197.665 37.3547C198.238 37.5749 198.678 37.7512 198.987 37.8833C201.366 35.5485 205.507 32.0683 211.454 29.7776C224.185 24.8437 238.018 28.0155 247.004 34.2269C255.286 39.9097 258.194 47.3106 262.555 56.4736C265.066 61.6719 267.489 66.3415 269.868 70.5265" stroke="#4488FF" stroke-width="4.40653" stroke-miterlimit="10" stroke-linecap="round" stroke-linejoin="round"/>
<path d="M217.666 138.369C218.42 138.369 219.032 137.757 219.032 137.003C219.032 136.248 218.42 135.637 217.666 135.637C216.911 135.637 216.3 136.248 216.3 137.003C216.3 137.757 216.911 138.369 217.666 138.369Z" fill="#4488FF"/>
<path d="M247.005 133.963C247.759 133.963 248.371 133.352 248.371 132.597C248.371 131.843 247.759 131.231 247.005 131.231C246.25 131.231 245.639 131.843 245.639 132.597C245.639 133.352 246.25 133.963 247.005 133.963Z" fill="#4488FF"/>
<path d="M222.555 142.773C223.553 142.773 224.361 141.965 224.361 140.967C224.361 139.97 223.553 139.161 222.555 139.161C221.558 139.161 220.749 139.97 220.749 140.967C220.749 141.965 221.558 142.773 222.555 142.773Z" fill="#4488FF"/>
<path d="M235.375 144.623C236.372 144.623 237.181 143.815 237.181 142.817C237.181 141.82 236.372 141.011 235.375 141.011C234.377 141.011 233.568 141.82 233.568 142.817C233.568 143.815 234.377 144.623 235.375 144.623Z" fill="#4488FF"/>
<path d="M242.996 139.733C243.993 139.733 244.802 138.925 244.802 137.927C244.802 136.93 243.993 136.121 242.996 136.121C241.998 136.121 241.189 136.93 241.189 137.927C241.189 138.925 241.998 139.733 242.996 139.733Z" fill="#4488FF"/>
<path d="M227.401 148.5C228.861 148.5 230.044 147.317 230.044 145.857C230.044 144.397 228.861 143.214 227.401 143.214C225.941 143.214 224.758 144.397 224.758 145.857C224.758 147.317 225.941 148.5 227.401 148.5Z" fill="#4488FF"/>
<path d="M157.665 136.209C156.608 135.284 152.687 131.54 152.555 125.989C152.335 118.104 160 113.214 164.361 111.584C166.299 110.879 170.793 109.205 173.26 111.584C175.33 113.566 174.714 117.134 174.581 117.795" stroke="#4488FF" stroke-width="4.40653" stroke-miterlimit="10" stroke-linecap="round" stroke-linejoin="round"/>
<path d="M255.991 216.87C257.401 216.606 262.731 215.813 267.181 219.117C273.524 223.786 272.687 232.817 271.278 237.267C270.661 239.249 269.207 243.786 265.815 244.271C262.952 244.711 260.529 242.024 260.088 241.496" stroke="#4488FF" stroke-width="4.40653" stroke-miterlimit="10" stroke-linecap="round" stroke-linejoin="round"/>
<path d="M244.537 41.4956C246.654 41.4956 248.37 39.7797 248.37 37.663C248.37 35.5464 246.654 33.8304 244.537 33.8304C242.42 33.8304 240.705 35.5464 240.705 37.663C240.705 39.7797 242.42 41.4956 244.537 41.4956Z" fill="#69B4FF"/>
<path d="M245.551 37.3106C245.022 32.3766 247.225 28.2357 250.396 27.1784C251.938 26.6498 254.449 26.6057 256.211 28.2357C257.929 29.8656 258.238 32.4647 257.577 34.1828C256.344 37.2224 251.366 39.0286 245.551 37.3106Z" fill="#69B4FF"/>
<path d="M243.48 37.8833C243.612 42.8613 241.145 46.826 237.886 47.663C236.3 48.0595 233.789 47.9273 232.159 46.1652C230.573 44.4472 230.441 41.804 231.234 40.13C232.731 37.2225 237.797 35.7688 243.48 37.8833Z" fill="#69B4FF"/>
</g>
<defs>
<clipPath id="clip0">
<rect width="300" height="296.916" fill="white" transform="translate(0 0.0418701)"/>
</clipPath>
</defs>
</svg>
