<svg width="300" height="443" viewBox="0 0 300 443" fill="none" xmlns="http://www.w3.org/2000/svg">
<g clip-path="url(#clip0)">
<path d="M150 300.225C232.843 300.225 300 233.067 300 150.225C300 67.3819 232.843 0.224609 150 0.224609C67.1573 0.224609 0 67.3819 0 150.225C0 233.067 67.1573 300.225 150 300.225Z" fill="#F5F6F9"/>
<path d="M252.953 135.536C254.993 135.536 256.647 133.882 256.647 131.842C256.647 129.801 254.993 128.147 252.953 128.147C250.912 128.147 249.258 129.801 249.258 131.842C249.258 133.882 250.912 135.536 252.953 135.536Z" fill="#9FCBFF"/>
<path d="M262.345 143.593C264.385 143.593 266.039 141.939 266.039 139.898C266.039 137.858 264.385 136.204 262.345 136.204C260.304 136.204 258.65 137.858 258.65 139.898C258.65 141.939 260.304 143.593 262.345 143.593Z" fill="#9FCBFF"/>
<path d="M264.303 122.406C266.343 122.406 267.997 120.752 267.997 118.711C267.997 116.671 266.343 115.017 264.303 115.017C262.262 115.017 260.608 116.671 260.608 118.711C260.608 120.752 262.262 122.406 264.303 122.406Z" fill="#9FCBFF"/>
<path d="M275.075 109.943C277.115 109.943 278.769 108.289 278.769 106.249C278.769 104.208 277.115 102.554 275.075 102.554C273.034 102.554 271.38 104.208 271.38 106.249C271.38 108.289 273.034 109.943 275.075 109.943Z" fill="#9FCBFF"/>
<path d="M285.846 97.4351C287.887 97.4351 289.541 95.7811 289.541 93.7408C289.541 91.7004 287.887 90.0464 285.846 90.0464C283.806 90.0464 282.152 91.7004 282.152 93.7408C282.152 95.7811 283.806 97.4351 285.846 97.4351Z" fill="#9FCBFF"/>
<path d="M273.649 130.507C275.69 130.507 277.344 128.853 277.344 126.812C277.344 124.772 275.69 123.118 273.649 123.118C271.609 123.118 269.955 124.772 269.955 126.812C269.955 128.853 271.609 130.507 273.649 130.507Z" fill="#9FCBFF"/>
<path d="M284.421 117.999C286.461 117.999 288.115 116.345 288.115 114.305C288.115 112.265 286.461 110.611 284.421 110.611C282.381 110.611 280.727 112.265 280.727 114.305C280.727 116.345 282.381 117.999 284.421 117.999Z" fill="#9FCBFF"/>
<path d="M295.193 105.536C297.233 105.536 298.887 103.882 298.887 101.842C298.887 99.8015 297.233 98.1475 295.193 98.1475C293.153 98.1475 291.499 99.8015 291.499 101.842C291.499 103.882 293.153 105.536 295.193 105.536Z" fill="#9FCBFF"/>
<path d="M85.1926 28.7111C77.8929 27.2422 72.7743 22.5686 72.3737 17.4944C72.3292 17.0939 72.0621 12.4203 75.5339 9.79415C78.3826 7.61314 82.522 7.79118 84.8811 9.34904C88.9315 12.0197 89.9107 20.2096 85.1926 28.7111Z" fill="#69B4FF"/>
<path d="M89.2432 34.186C87.1957 26.9308 89.3768 20.2097 93.8278 17.7616C96.0088 16.5599 99.7477 15.8477 102.774 17.8507C105.757 19.8091 106.914 23.637 106.335 26.3522C105.356 31.2038 98.4124 35.2097 89.2432 34.186Z" fill="#69B4FF"/>
<path d="M88.3979 33.2959C86.9736 40.5511 82.389 45.6698 77.2703 46.2039C76.9142 46.2484 71.8846 46.649 69.303 43.0436C67.0774 39.9279 67.7896 35.4769 69.6145 33.0733C72.6858 29.0674 80.7421 28.3997 88.3979 33.2959Z" fill="#69B4FF"/>
<path d="M89.1986 54.9723C92.2698 54.0376 94.8514 51.9456 96.0977 49.3195C96.7209 48.0287 96.9879 46.6044 96.9434 45.1801C96.8989 43.7557 96.5428 42.3759 95.9197 41.2631C95.2965 40.1504 94.3173 39.3937 93.3826 39.2157C93.1155 39.1266 92.8485 39.0821 92.4924 39.0376C92.1363 38.9486 91.6912 38.8596 91.2461 38.7706C90.3114 38.5035 89.3321 38.0584 88.4864 37.4798C88.0413 37.1682 87.6408 36.8121 87.2847 36.456C86.9286 36.0554 86.5725 35.6993 86.3054 35.2542C85.7268 34.4085 85.3262 33.5628 85.0592 32.6726C84.525 30.8922 84.436 29.1118 84.7476 27.3759C84.7921 27.2424 84.8811 27.1533 85.0146 27.1979C85.1037 27.1979 85.1482 27.2424 85.1927 27.2869C86.1274 28.7557 86.9286 30.091 87.8633 31.2483C88.798 32.3611 89.7772 33.2068 90.7565 33.6519C91.2906 33.9189 91.8247 34.097 92.4479 34.275L93.5606 34.5866C94.0057 34.7201 94.4508 34.8982 94.985 35.1207C95.4746 35.3433 95.9642 35.6548 96.4093 36.0109C96.8544 36.367 97.2105 36.7231 97.5666 37.1682C98.2342 37.9694 98.7683 38.8596 99.1244 39.7943C99.8811 41.6192 100.059 43.5332 99.8811 45.3581C99.7031 47.183 99.0354 49.0079 98.0117 50.4768C95.9197 53.459 92.5814 55.1504 89.2876 55.462C89.1541 55.462 89.0651 55.3729 89.0651 55.2394C89.0206 55.1059 89.1096 55.0168 89.1986 54.9723Z" fill="#4488FF"/>
<path d="M50.9198 233.192C52.4776 239.468 50.7417 245.21 46.8693 247.524C46.6023 247.658 42.7744 249.883 39.3916 247.969C36.4539 246.367 35.3856 242.539 35.9643 239.957C36.9435 235.64 43.0414 232.168 50.9198 233.192Z" fill="#9FCBFF"/>
<path d="M50.9648 109.72C43.22 107.539 38.0568 102.065 37.9678 96.4562C37.9678 96.0556 37.9678 90.5809 42.1072 88.0883C45.6681 85.9518 50.4307 87.1091 52.8788 89.3346C56.9737 93.0289 56.9737 101.797 50.9648 109.72Z" fill="#9FCBFF"/>
<path d="M20.8757 123.786C14.8222 126.99 8.41274 126.634 5.07446 123.163C4.85191 122.94 1.64716 119.513 2.71541 115.551C3.65013 112.124 7.29998 110.077 10.1486 110.032C14.8222 109.987 19.9854 115.418 20.8757 123.786Z" fill="#69B4FF"/>
<path d="M96.7367 261.939L126.737 252L124.497 245.239L94.4969 255.178L96.7367 261.939Z" fill="#9FCBFF"/>
<path d="M222.385 266.248L210.357 256.558L203.599 264.945L215.626 274.636L222.385 266.248Z" fill="#69B4FF"/>
<path d="M198.517 54.5717L218.369 57.8655L211.292 39.0376L198.517 54.5717Z" fill="#9FCBFF"/>
<path d="M251.483 76.7825C256.646 76.7825 260.831 72.5976 260.831 67.4353C260.831 62.273 256.646 58.0881 251.483 58.0881C246.321 58.0881 242.136 62.273 242.136 67.4353C242.136 72.5976 246.321 76.7825 251.483 76.7825Z" fill="#69B4FF"/>
<path d="M15.5346 167.984L38.4129 175.284C36.41 181.604 29.6444 185.076 23.3239 183.073C17.0034 181.07 13.5316 174.305 15.5346 167.984Z" fill="#69B4FF"/>
<path d="M262.032 194.824L268.798 190.907C269.332 190.596 269.688 190.062 269.733 189.439L270.356 181.649C270.489 180.091 272.314 179.335 273.472 180.403L279.302 185.611C279.748 186.011 280.415 186.189 280.994 186.056L288.605 184.231C290.118 183.875 291.409 185.388 290.786 186.813L287.626 193.979C287.359 194.557 287.403 195.18 287.759 195.715L291.854 202.391C292.656 203.726 291.587 205.418 290.074 205.24L282.285 204.439C281.662 204.394 281.038 204.617 280.638 205.106L275.519 210.982C274.495 212.183 272.581 211.694 272.225 210.136L270.578 202.48C270.445 201.857 270.044 201.367 269.466 201.145L262.255 198.163C260.786 197.584 260.653 195.581 262.032 194.824Z" fill="#69B4FF"/>
<path d="M256.602 191.352L263.768 187.213C264.347 186.901 264.703 186.278 264.748 185.655L265.371 177.42C265.504 175.774 267.463 174.972 268.709 176.085L274.852 181.604C275.341 182.05 276.009 182.228 276.632 182.05L284.688 180.091C286.291 179.69 287.626 181.337 286.958 182.851L283.62 190.417C283.353 190.996 283.398 191.708 283.754 192.287L288.071 199.32C288.917 200.744 287.804 202.524 286.157 202.346L277.923 201.501C277.255 201.412 276.632 201.679 276.187 202.168L270.801 208.489C269.733 209.735 267.685 209.245 267.329 207.598L265.593 199.498C265.46 198.874 265.015 198.34 264.392 198.073L256.736 194.913C255.356 194.29 255.178 192.198 256.602 191.352Z" fill="#9FCBFF"/>
<path d="M166.602 157.836C166.246 157.48 166.068 157.257 165.667 156.99C164.866 156.501 163.842 156.367 162.863 156.501C164.287 157.48 165.711 157.97 166.602 157.836Z" fill="#9FCBFF"/>
<path d="M228.471 155.121C227.002 151.649 224.51 150.046 225.133 147.153C225.489 145.328 226.735 144.616 227.67 143.37C231.186 138.607 228.693 128.058 222.64 122.361C217.521 117.554 210.578 116.975 204.569 116.486C197.848 115.951 197.091 117.465 192.373 116.04C190.415 115.462 188.946 114.705 187.744 113.948C187.121 113.726 185.919 113.37 184.406 113.503C183.07 113.637 182.047 114.126 181.512 114.438C181.646 114.572 181.691 114.616 181.691 114.661C181.691 114.705 181.334 114.438 181.512 114.438C181.112 114.349 180.711 114.215 180.311 114.171C179.866 114.082 179.02 114.037 178.352 113.993C176.171 113.815 173.946 113.637 171.765 114.037C169.495 114.483 167.136 113.414 166.512 111.055C166.156 109.809 166.512 108.34 167.314 107.227C166.245 104.379 168.07 99.7051 168.916 97.1235C172.699 85.7733 167.67 82.4351 171.453 74.4677C173.412 70.2837 174.88 70.3282 176.928 66.9009C177.551 65.8772 178.085 64.7644 178.53 63.6072C178.263 63.073 178.085 62.4054 178.085 61.6932C178.085 59.9128 177.64 58.2214 177.284 56.4855C176.883 54.26 176.616 51.99 176.527 49.7644C176.305 45.9811 175.949 42.5538 174.658 38.9929C174.124 37.5686 173.634 36.2333 172.521 35.165C171.72 34.4529 171.008 33.8742 169.406 32.9395C167.136 31.5597 165.978 30.892 164.331 30.4024C163.352 30.1354 161.75 29.8238 159.702 30.0018C161.171 33.8297 163.085 40.2392 162.64 48.073C162.462 51.3668 161.349 61.2926 146.705 82.9247C138.07 95.6992 137.67 92.7615 132.418 101.396C119.866 122.094 121.824 139.364 113.501 140.877C110.83 141.367 107.269 140.165 105.934 137.94C103.708 134.29 108.07 128.904 106.334 127.435C104.999 126.278 101.572 128.726 96.6757 130.773C91.1119 133.088 86.0822 133.889 82.3879 134.112C79.2276 137.583 69.6134 149.023 68.5451 166.426C68.011 175.106 69.7469 182.672 72.2395 188.859C73.3522 191.619 74.5985 194.112 75.8893 196.337C79.3611 202.302 82.9665 206.085 84.0792 207.198C93.4264 207.465 100.548 209.29 105.489 210.981C105.578 211.026 105.667 211.026 105.756 211.07C105.756 211.07 105.978 211.159 106.201 211.248C106.468 211.337 114.747 213.874 126.008 217.302C128.056 217.88 131.305 218.548 135.266 218.147C138.07 217.88 140.34 217.123 141.987 216.456C144.124 215.922 146.527 215.477 149.109 215.21C154.361 214.631 159.079 214.809 163.085 215.343C164.064 215.477 164.999 215.61 165.889 215.788C165.711 215.61 165.533 215.432 165.4 215.254C165.088 214.853 164.866 214.364 164.777 213.874C164.376 211.871 164.198 210.002 164.42 207.999C164.688 206.085 165.489 204.616 166.379 202.969C166.824 202.123 167.581 201.545 168.426 201.189C168.204 201.233 167.981 201.233 167.759 201.233C165.133 201.189 161.394 197.45 160.237 193.221C159.836 191.753 159.747 190.239 160.103 188.815C160.593 186.812 161.883 185.388 164.02 182.939C164.331 182.583 164.599 182.316 164.821 182.049C165.667 181.204 166.29 180.803 167.002 180.536C167.581 180.313 169.584 179.646 171.542 180.669C172.165 180.981 172.833 181.337 173.145 182.094C173.723 183.518 172.21 184.586 171.053 187.969C170.518 189.527 170.073 190.684 170.207 192.153C170.207 192.153 170.385 193.8 171.453 195.491C173.145 198.162 178.575 201.144 186.142 203.058C175.726 201.545 172.254 201.189 172.254 201.367C172.254 201.5 174.969 201.723 175.237 203.058C175.459 204.037 173.768 204.304 173.545 205.996C173.545 205.996 173.278 208.221 173.011 208.577C173.011 208.577 172.966 208.667 172.922 208.756C172.922 208.8 172.877 208.889 172.877 209.112C172.833 210.224 172.833 210.758 172.922 211.115C172.922 211.204 172.966 211.382 173.055 211.604C173.055 211.604 173.234 212.183 173.59 212.761C173.946 213.34 178.219 215.877 184.495 218.637C179.955 217.925 175.459 217.257 170.919 216.545C171.231 216.589 171.631 216.678 172.121 216.767C172.521 216.856 172.833 216.901 173.189 216.99C178.263 218.014 177.462 218.325 181.602 219.082C181.824 219.126 182.091 219.171 182.358 219.215C187.744 220.239 205.058 223.043 212.269 214.453C212.759 213.874 216.453 209.468 215.207 205.64C214.539 203.637 213.07 203.325 213.115 201.856C213.204 199.186 218.234 199.186 221.082 194.735C221.438 194.201 223.441 191.085 222.774 187.613C222.373 185.477 221.171 184.408 220.237 180.491C219.925 179.156 219.791 178.488 219.836 177.954C220.147 174.616 224.242 174.126 226.958 170.833C230.073 166.693 230.429 159.794 228.471 155.121ZM166.824 178.667C166.512 178.711 165.934 178.756 165.266 178.711C164.02 178.667 162.373 178.355 161.171 177.331C161.127 177.287 161.082 177.242 160.993 177.153C159.213 174.527 157.877 171.812 157.566 168.607C157.254 165.135 158.278 161.708 159.747 158.548C160.326 157.346 161.527 156.678 162.818 156.5C161.438 155.566 160.058 154.23 159.168 152.583C157.966 150.447 157.922 148.444 157.922 146.263C157.877 143.192 157.788 138.251 161.26 135.358C163.352 133.577 166.869 132.509 167.981 133.667C169.361 135.135 164.42 139.097 164.643 146.263C164.688 148.667 165.311 150.358 165.489 150.892C165.578 151.159 165.711 151.426 165.845 151.693C168.248 157.079 173.812 159.438 175.593 160.106C172.61 159.349 169.628 158.592 166.601 157.836C166.691 157.925 166.78 158.014 166.958 158.147C169.584 160.595 172.566 159.705 173.1 160.951C173.768 162.598 168.827 164.468 168.471 168.518C168.293 170.655 169.272 172.391 169.717 173.147C173.011 178.622 181.156 178.711 181.067 179.468C180.889 180.224 172.744 178.088 166.824 178.667Z" fill="#9FCBFF"/>
<path d="M165.489 214.097C167.314 211.471 162.418 205.061 164.376 203.415C164.644 203.192 165.311 202.747 165.578 201.857C165.667 201.634 165.845 201.011 165.578 200.521C165.311 199.987 164.688 199.943 163.798 199.631C163.798 199.631 163.531 199.542 161.483 198.518C159.703 197.628 157.922 193.177 158.813 188.904C159.97 183.518 164.911 180.403 163.798 178.711C163.664 178.533 163.13 178.133 162.017 177.376C160.905 176.619 160.059 176.13 159.97 176.041C157.833 174.705 160.86 164.958 160.504 156.189C160.237 149.869 158.59 143.281 161.127 137.183C161.261 136.872 161.394 136.605 161.572 136.293C161.305 135.981 161.038 135.714 160.727 135.536C160.727 135.536 160.282 135.225 159.747 135.091C158.724 134.735 155.252 135.803 152.626 139.097C152.092 139.72 151.068 141.056 150.4 143.103C149.465 145.996 150.356 146.975 150.4 151.56C150.445 156.679 149.332 157.613 149.955 162.242C150.178 163.934 150.445 165.225 150.756 166.026C152.136 169.72 154.807 170.967 154.851 175.596C154.896 180.625 151.691 181.783 151.29 188.949C151.068 193.177 152.092 193.934 151.29 195.18C148.353 199.854 131.572 193.044 117.017 189.839C106.557 187.524 91.513 185.833 72.1064 188.86C73.2192 191.619 74.4655 194.112 75.7563 196.337C79.2281 202.302 82.8335 206.085 83.9462 207.198C93.2934 207.465 100.415 209.29 105.356 210.981C105.445 211.026 105.534 211.026 105.623 211.07C105.623 211.07 105.845 211.159 106.068 211.248C106.335 211.337 114.614 213.875 125.875 217.302C127.922 217.88 131.172 218.548 135.133 218.148C137.937 217.88 140.207 217.124 141.854 216.456C143.991 215.922 146.394 215.477 148.976 215.21C154.228 214.631 158.946 214.809 162.952 215.343C164.599 215.076 165.178 214.542 165.489 214.097Z" fill="#69B4FF"/>
<path d="M128.947 92.0938C125.297 96.9899 124.674 99.1709 120.445 107.583C120.445 107.583 120.267 107.984 114.258 119.423" stroke="#4488FF" stroke-width="4.45104" stroke-miterlimit="10" stroke-linecap="round" stroke-linejoin="round"/>
<path d="M141.231 77.3167C139.05 80.3434 137.092 82.4353 135.044 84.7944" stroke="#4488FF" stroke-width="4.45104" stroke-miterlimit="10" stroke-linecap="round" stroke-linejoin="round"/>
<path d="M169.673 32.4947C165.044 29.735 157.922 29.557 154.54 32.8953C150.623 36.8567 154.851 42.6875 152.848 53.9042C151.78 59.9576 149.421 64.2306 145.727 70.2395" stroke="#4488FF" stroke-width="4.45104" stroke-miterlimit="10" stroke-linecap="round" stroke-linejoin="round"/>
<path d="M170.119 125.299C168.828 123.608 167.047 120.803 165.935 116.887C164.688 112.614 164.866 108.964 165.089 106.827C166.335 103.444 167.582 99.3939 168.427 94.6313C169.273 90.0913 169.629 85.9518 169.674 82.4355C171.721 79.1417 174.392 74.023 175.994 67.302C178.086 58.5334 177.775 51.5898 177.641 49.8984C177.285 45.4474 176.395 41.753 175.593 39.1714" stroke="#4488FF" stroke-width="4.45104" stroke-miterlimit="10" stroke-linecap="round" stroke-linejoin="round"/>
<path d="M225.134 123.207C227.315 126.144 227.404 129.394 227.671 133.711C227.804 136.382 228.027 141.768 225.134 147.153C224.288 148.711 222.285 152.05 217.166 155.566C199.985 167.406 176.974 161.575 173.057 160.596C163.175 158.103 160.46 154.987 159.214 152.628C156.81 148.088 158.057 142.969 158.368 141.723C158.858 139.631 159.926 135.269 163.398 133.756C164.155 133.444 165.267 133.133 169.718 133.756C175.06 134.512 176.84 135.492 179.377 135.848C184.451 136.604 187.389 134.334 191.974 132.91C196.514 131.486 203.279 130.685 212.982 133.756" stroke="#4488FF" stroke-width="4.45104" stroke-miterlimit="10" stroke-linecap="round" stroke-linejoin="round"/>
<path d="M212.76 117.643C214.763 117.955 216.499 118.311 218.101 118.801" stroke="#4488FF" stroke-width="4.45104" stroke-miterlimit="10" stroke-linecap="round" stroke-linejoin="round"/>
<path d="M168.427 113.548C173.768 112.168 177.863 112.302 180.623 112.702C182.314 112.925 187.032 113.771 191.973 115.239C192.996 115.551 194.109 115.907 195.712 116.13C197.759 116.397 199.406 116.219 202.21 116.352" stroke="#4488FF" stroke-width="4.45104" stroke-miterlimit="10" stroke-linecap="round" stroke-linejoin="round"/>
<path d="M128.59 217.836C125.118 217.613 121.469 217.079 117.596 216.011C112.745 214.676 108.65 212.806 105.4 210.981" stroke="#4488FF" stroke-width="4.45104" stroke-miterlimit="10" stroke-linecap="round" stroke-linejoin="round"/>
<path d="M148.264 215.566C146.306 216.145 143.724 216.768 140.697 217.213" stroke="#4488FF" stroke-width="4.45104" stroke-miterlimit="10" stroke-linecap="round" stroke-linejoin="round"/>
<path d="M168.65 88.1328C169.807 90.7144 170.119 93.6966 169.54 96.5898C168.961 99.483 167.404 102.243 165.223 104.29C162.997 106.338 160.237 107.717 157.344 108.207C155.92 108.474 154.451 108.563 153.027 108.43C151.602 108.296 150.223 107.984 148.887 107.406C150.312 107.272 151.647 107.139 152.938 106.872C154.228 106.605 155.475 106.249 156.677 105.803C157.878 105.358 159.036 104.824 160.104 104.157L160.504 103.934L160.905 103.667C161.172 103.489 161.439 103.311 161.662 103.133C161.884 102.955 162.151 102.777 162.374 102.554L163.086 101.931C164.866 100.24 166.291 98.1922 167.181 95.8331C168.071 93.5631 168.516 90.937 168.65 88.1328Z" fill="#4488FF"/>
<path d="M174.08 70.9072C173.812 72.6876 172.922 74.3345 171.765 75.7144C170.563 77.0942 169.05 78.2069 167.269 78.9191C166.379 79.2752 165.489 79.4977 164.554 79.6313C163.62 79.7648 162.685 79.7648 161.795 79.6758C159.97 79.4532 158.234 78.8301 156.854 77.6728C158.634 77.5838 160.237 77.4948 161.795 77.2277C162.551 77.0942 163.308 76.9606 164.02 76.7381C164.198 76.6936 164.376 76.6491 164.554 76.6046L165.088 76.4265C165.445 76.3375 165.801 76.1595 166.112 76.0259C167.492 75.4918 168.783 74.7796 170.118 73.9339C171.453 73.0437 172.7 72.02 174.08 70.9072Z" fill="#4488FF"/>
<path d="M102.685 188.504C102.463 190.017 102.285 191.53 102.24 192.999C102.196 194.468 102.24 195.937 102.418 197.317C102.596 198.741 102.863 200.121 103.308 201.456C103.397 201.768 103.486 202.124 103.62 202.435C103.753 202.747 103.843 203.103 104.021 203.415L104.421 204.349L104.911 205.284C106.246 207.688 108.071 209.824 110.341 211.471C112.611 213.162 115.282 214.409 118.219 215.388C115.148 215.7 111.943 215.076 109.05 213.563C107.626 212.806 106.291 211.827 105.133 210.67C104.822 210.403 104.599 210.091 104.288 209.78C104.021 209.468 103.753 209.156 103.531 208.845C103.264 208.533 103.041 208.177 102.819 207.821C102.596 207.465 102.374 207.154 102.196 206.753C101.394 205.329 100.816 203.771 100.46 202.213C100.104 200.655 99.9256 199.008 99.9701 197.406C100.015 195.803 100.282 194.246 100.727 192.732C101.216 191.219 101.884 189.794 102.685 188.504Z" fill="#4488FF"/>
<path d="M107.76 180.091C109.274 177.153 111.455 174.616 113.992 172.48C116.529 170.343 119.511 168.652 122.671 167.495C125.831 166.337 129.17 165.714 132.508 165.714C135.846 165.714 139.185 166.248 142.211 167.539C138.918 167.539 135.802 167.717 132.686 168.162C129.615 168.652 126.633 169.364 123.739 170.432C120.846 171.5 118.087 172.836 115.416 174.483C112.745 176.085 110.253 177.999 107.76 180.091Z" fill="#4488FF"/>
<path d="M126.811 150.314C129.303 152.005 131.796 153.341 134.377 154.275C135.045 154.498 135.668 154.676 136.336 154.854L138.339 155.255L140.342 155.477C141.009 155.477 141.677 155.522 142.389 155.522C145.104 155.477 147.819 154.988 150.49 154.231C153.205 153.43 155.831 152.361 158.546 151.071C156.633 153.385 154.14 155.166 151.38 156.501C148.621 157.792 145.549 158.593 142.434 158.637C139.318 158.682 136.158 157.925 133.398 156.456C130.683 155.032 128.368 152.896 126.811 150.314Z" fill="#4488FF"/>
<path d="M170.742 164.112C170.386 165.002 170.119 165.803 169.896 166.605C169.674 167.406 169.54 168.162 169.496 168.919C169.451 169.676 169.496 170.477 169.629 171.234C169.763 172.035 170.03 172.836 170.297 173.771C169.451 173.326 168.739 172.614 168.294 171.723C167.849 170.833 167.626 169.809 167.671 168.83C167.715 167.806 168.071 166.827 168.561 166.026C169.139 165.225 169.852 164.513 170.742 164.112Z" fill="#4488FF"/>
<path d="M166.113 140.61C166.069 141.59 165.98 142.524 165.891 143.415C165.802 144.305 165.713 145.195 165.668 146.085C165.579 146.975 165.534 147.821 165.49 148.756C165.445 149.646 165.401 150.581 165.267 151.56C164.689 150.759 164.333 149.824 164.11 148.889C163.888 147.955 163.843 146.931 163.888 145.952C163.977 144.972 164.199 143.993 164.555 143.103C164.911 142.168 165.401 141.323 166.113 140.61Z" fill="#4488FF"/>
<path d="M183.339 143.548C183.027 144.705 182.76 145.818 182.582 146.931C182.404 148.043 182.36 149.112 182.449 150.18C182.493 151.248 182.716 152.316 182.983 153.34C183.294 154.408 183.695 155.432 184.185 156.589C183.161 155.922 182.315 154.987 181.692 153.874C181.113 152.762 180.713 151.515 180.668 150.269C180.579 149.023 180.802 147.732 181.247 146.575C181.692 145.417 182.404 144.349 183.339 143.548Z" fill="#4488FF"/>
<path d="M183.738 134.735C183.738 135.358 183.649 135.848 183.605 136.337L183.427 137.673L183.204 139.008C183.115 139.498 183.026 139.987 182.893 140.61C182.359 140.254 182.003 139.765 181.825 139.186C181.602 138.608 181.557 138.029 181.647 137.406C181.736 136.827 181.958 136.248 182.314 135.759C182.67 135.314 183.16 134.913 183.738 134.735Z" fill="#4488FF"/>
<path d="M188.368 144.394C187.968 145.462 187.701 146.441 187.567 147.42C187.478 147.91 187.478 148.399 187.433 148.889C187.433 149.112 187.433 149.379 187.478 149.601L187.522 149.957L187.567 150.313C187.611 150.803 187.745 151.248 187.879 151.693C188.012 152.138 188.19 152.583 188.413 153.029C188.858 153.919 189.392 154.809 190.104 155.699C188.991 155.388 188.012 154.72 187.255 153.785C186.499 152.895 186.009 151.738 185.831 150.536C185.742 149.957 185.742 149.334 185.787 148.711C185.876 148.132 186.009 147.554 186.232 146.975C186.677 145.951 187.389 145.017 188.368 144.394Z" fill="#4488FF"/>
<path d="M219.437 135.136C219.437 136.07 219.392 136.916 219.392 137.717C219.392 138.519 219.481 139.32 219.615 140.076C219.748 140.833 219.926 141.59 220.193 142.346C220.46 143.103 220.772 143.904 221.128 144.75C220.238 144.394 219.526 143.771 218.947 142.97C218.368 142.213 218.012 141.278 217.834 140.343C217.701 139.409 217.745 138.385 218.012 137.495C218.279 136.649 218.724 135.803 219.437 135.136Z" fill="#4488FF"/>
<path d="M220.282 159.527C221.217 160.284 221.929 161.308 222.329 162.465C222.775 163.622 222.908 164.869 222.775 166.115C222.641 167.361 222.196 168.563 221.573 169.587C220.905 170.61 220.059 171.501 218.991 172.079C219.525 171.011 219.97 169.987 220.282 168.964C220.638 167.94 220.861 166.916 220.994 165.892C221.083 164.869 221.083 163.8 220.95 162.777C220.861 161.753 220.594 160.685 220.282 159.527Z" fill="#4488FF"/>
<path d="M214.807 183.429C215.742 184.186 216.454 185.21 216.855 186.367C217.3 187.524 217.434 188.77 217.3 190.017C217.166 191.263 216.721 192.465 216.098 193.489C215.431 194.512 214.585 195.402 213.517 195.981C214.051 194.913 214.496 193.889 214.807 192.865C215.163 191.842 215.386 190.818 215.52 189.794C215.609 188.77 215.609 187.702 215.475 186.678C215.431 185.655 215.163 184.586 214.807 183.429Z" fill="#4488FF"/>
<path d="M208.932 202.747C209.689 203.281 210.267 204.082 210.623 204.928C210.979 205.774 211.157 206.753 211.113 207.688C211.068 208.622 210.846 209.557 210.401 210.403C209.956 211.204 209.332 211.961 208.531 212.406C208.754 211.516 208.976 210.714 209.11 209.913C209.243 209.112 209.332 208.355 209.377 207.599C209.421 206.842 209.377 206.085 209.288 205.284C209.199 204.483 209.065 203.682 208.932 202.747Z" fill="#4488FF"/>
<path d="M171.988 185.966C171.632 186.857 171.365 187.658 171.143 188.459C170.92 189.26 170.787 190.017 170.742 190.773C170.698 191.53 170.742 192.331 170.876 193.088C171.009 193.889 171.276 194.69 171.543 195.625C170.698 195.18 169.985 194.468 169.54 193.578C169.095 192.687 168.873 191.664 168.917 190.684C168.962 189.661 169.318 188.681 169.807 187.88C170.386 187.079 171.098 186.367 171.988 185.966Z" fill="#4488FF"/>
<path d="M174.525 204.038C174.169 204.928 173.902 205.729 173.679 206.53C173.457 207.332 173.323 208.088 173.279 208.845C173.234 209.602 173.279 210.403 173.412 211.16C173.546 211.961 173.813 212.762 174.08 213.697C173.234 213.251 172.522 212.539 172.077 211.649C171.632 210.759 171.409 209.735 171.454 208.756C171.498 207.732 171.854 206.753 172.344 205.952C172.923 205.106 173.635 204.438 174.525 204.038Z" fill="#4488FF"/>
<path d="M120.756 104.913C120.489 107.45 119.911 109.764 119.243 112.035C118.575 114.305 117.819 116.53 116.929 118.711C116.083 120.892 115.104 123.029 114.035 125.121C112.923 127.213 111.765 129.305 110.207 131.352C109.985 128.815 110.252 126.367 110.697 124.008C111.187 121.649 111.854 119.334 112.745 117.064C113.635 114.839 114.703 112.658 115.994 110.61C117.374 108.563 118.842 106.604 120.756 104.913Z" fill="#4488FF"/>
<path d="M88.3083 124.364C83.8573 124.987 79.9404 124.987 76.8691 124.854" stroke="#4488FF" stroke-width="4.45104" stroke-miterlimit="10" stroke-linecap="round" stroke-linejoin="round"/>
<path d="M118.041 111.857C114.302 114.75 108.204 118.8 99.8809 121.649" stroke="#4488FF" stroke-width="4.45104" stroke-miterlimit="10" stroke-linecap="round" stroke-linejoin="round"/>
<path d="M107.537 212.227C100.593 209.557 91.5131 206.975 80.6526 206.352C77.0473 206.129 73.709 206.174 70.5933 206.352" stroke="#4488FF" stroke-width="4.45104" stroke-miterlimit="10" stroke-linecap="round" stroke-linejoin="round"/>
<path d="M186.231 181.026C167.849 180.091 163.798 178.711 161.261 175.284C159.792 173.281 158.59 170.032 158.724 166.471C158.902 161.931 161.172 158.771 162.062 157.658" stroke="#4488FF" stroke-width="4.45104" stroke-miterlimit="10" stroke-linecap="round" stroke-linejoin="round"/>
<path d="M225.935 147.955C227.047 149.824 228.65 152.984 229.273 157.213C229.496 158.548 230.119 162.777 228.872 166.872C226.335 175.017 217.344 178.578 214.184 179.869C211.469 180.981 208.62 181.738 195.846 181.382" stroke="#4488FF" stroke-width="4.45104" stroke-miterlimit="10" stroke-linecap="round" stroke-linejoin="round"/>
<path d="M219.659 178.623C220.327 179.602 224.244 185.522 222.196 192.065C220.861 196.249 217.79 198.519 216.321 199.631C210.668 203.815 203.457 204.083 196.603 204.261C194.466 204.305 188.769 204.439 181.158 203.281C178.665 202.925 175.95 202.391 173.101 201.723C165.045 199.81 162.686 198.118 161.35 195.848C158.947 191.842 160.238 187.08 160.505 186.189C161.706 182.094 164.555 179.78 165.534 179.068" stroke="#4488FF" stroke-width="4.45104" stroke-miterlimit="10" stroke-linecap="round" stroke-linejoin="round"/>
<path d="M201.588 218.949C195.178 219.928 186.632 221.308 176.395 218.103C171.187 216.501 167.626 215.299 165.89 211.782C163.709 207.287 166.068 202.213 166.736 200.877" stroke="#4488FF" stroke-width="4.45104" stroke-miterlimit="10" stroke-linecap="round" stroke-linejoin="round"/>
<path d="M214.184 201.278C214.585 202.925 216.365 210.447 212.092 215.121C211.87 215.388 211.38 215.877 210.312 216.456" stroke="#4488FF" stroke-width="4.45104" stroke-miterlimit="10" stroke-linecap="round" stroke-linejoin="round"/>
<path d="M167.582 214.72C164.688 215.61 160.683 216.456 155.831 216.412C152.938 216.367 150.401 216.011 148.264 215.566" stroke="#4488FF" stroke-width="4.45104" stroke-miterlimit="10" stroke-linecap="round" stroke-linejoin="round"/>
</g>
<path d="M64.2873 381.296C64.1987 381.495 63.8905 381.589 63.3626 381.578C62.8718 381.563 62.4488 381.332 62.0936 380.886C61.7293 380.367 61.488 379.776 61.3696 379.113C61.2927 378.483 61.2005 377.573 61.0929 376.382C61.1571 375.058 61.3012 373.311 61.5254 371.14C61.7495 368.968 61.9998 366.55 62.2764 363.883C62.5855 361.175 62.8855 358.393 63.1765 355.537C63.3844 354.158 63.5385 352.954 63.6388 351.926C63.7717 350.857 63.8598 350.038 63.9032 349.468C63.9465 348.899 63.9682 348.614 63.9682 348.614C63.9312 348.619 63.8638 348.683 63.7662 348.808C63.6686 348.933 63.5918 349.074 63.5357 349.231C63.4797 349.388 63.4377 349.506 63.4096 349.585C63.4096 349.585 63.3351 349.744 63.1859 350.063C63.0739 350.378 62.8524 350.875 62.5216 351.555C62.2423 352.04 61.9834 352.692 61.7448 353.511C61.5016 354.293 61.1238 355.204 60.6114 356.245C60.154 357.429 59.6406 358.77 59.0712 360.269C58.5343 361.726 58.0585 362.912 57.6436 363.828C57.4014 364.309 57.1754 364.769 56.9657 365.208C56.7931 365.643 56.681 365.957 56.6295 366.152C56.531 366.577 56.3326 367.109 56.0343 367.747C55.7686 368.344 55.4473 368.947 55.0703 369.557C54.8887 369.918 54.6767 370.339 54.4345 370.82C54.1877 371.263 53.9735 371.666 53.7919 372.026C53.6057 372.35 53.5126 372.512 53.5126 372.512C53.4981 372.702 53.3187 373.081 52.9743 373.649C52.6625 374.176 52.2671 374.789 51.788 375.486C51.3045 376.147 50.8141 376.752 50.317 377.302C49.16 378.609 48.1898 379.442 47.4061 379.801C46.6179 380.122 45.6508 379.902 44.5047 379.139C43.9506 378.605 43.5054 378.039 43.1692 377.44C42.8284 376.805 42.5925 375.95 42.4614 374.875C42.3258 373.763 42.3118 372.261 42.4193 370.367C42.525 369.075 42.6263 367.747 42.723 366.381C42.8522 364.974 42.9905 363.64 43.1378 362.381C43.2806 361.085 43.4089 359.979 43.5228 359.062C43.6692 358.104 43.7776 357.452 43.8481 357.104C43.8554 356.239 43.8011 355.794 43.6854 355.77C43.6023 355.705 43.4418 355.932 43.2041 356.45C43.027 356.847 42.6609 357.701 42.106 359.009C41.5835 360.277 40.9978 361.796 40.3489 363.568C39.6954 365.302 39.0672 367.09 38.4644 368.931C37.2885 371.933 36.297 374.442 35.4898 376.459C34.7153 378.434 34.0622 380.018 33.5308 381.211C33.0364 382.4 32.6563 383.292 32.3906 383.889C32.1619 384.481 31.987 384.897 31.8659 385.137C31.7448 385.378 31.6517 385.54 31.5866 385.623C31.1003 385.644 30.6285 385.476 30.1711 385.118C29.7508 384.756 29.3585 384.315 28.9943 383.795C28.8795 383.471 28.7809 383.125 28.6987 382.759C28.6535 382.389 28.6756 381.953 28.7651 381.454C28.8501 380.917 29.0326 380.255 29.3128 379.469C29.6771 378.446 30.0223 377.577 30.3486 376.86C30.7075 376.102 30.9519 375.639 31.0821 375.473C31.2358 375.191 31.3501 374.895 31.4251 374.585C31.5372 374.271 31.5937 373.963 31.5946 373.662C31.7527 373.417 31.9742 372.92 32.2589 372.17C32.5807 371.417 32.8957 370.607 33.2039 369.742C33.4416 369.224 33.7516 368.528 34.1339 367.654C34.5488 366.739 34.9731 365.747 35.407 364.678C35.8408 363.61 36.2281 362.622 36.5689 361.716C37.8794 358.585 38.9406 356.029 39.7522 354.05C40.5639 352.07 41.1626 350.813 41.5486 350.277C41.7854 350.06 41.9671 349.699 42.0936 349.195C42.2572 348.686 42.3602 348.297 42.4027 348.029C42.6603 347.057 42.9708 346.211 43.3341 345.489C43.73 344.726 44.1155 344.341 44.4906 344.333C44.8241 344.292 45.206 344.34 45.6363 344.475C46.062 344.574 46.5035 344.802 46.9609 345.16C47.3903 345.596 47.7961 346.149 48.1785 346.817C48.5563 347.447 48.7131 348.425 48.649 349.749C48.6797 350.31 48.6684 350.988 48.6151 351.784C48.5988 352.576 48.5618 353.352 48.5039 354.111C48.4786 354.828 48.4398 355.435 48.3874 355.93C48.2111 357.569 48.0349 359.208 47.8587 360.846C47.6824 362.485 47.5342 364.045 47.414 365.527C47.2938 367.008 47.1949 368.355 47.1172 369.568C47.072 370.74 47.0575 371.701 47.0738 372.451C47.1226 373.159 47.2325 373.597 47.4033 373.765C47.5976 373.816 47.7807 373.775 47.9524 373.641C48.1196 373.47 48.2918 373.186 48.469 372.788C48.6877 372.423 48.9019 372.021 49.1116 371.582C49.3538 371.101 49.6123 370.599 49.8871 370.077C50.283 369.314 50.7349 368.394 51.2429 367.316C51.7879 366.234 52.431 364.877 53.1721 363.245C53.9133 361.612 54.7968 359.605 55.8226 357.224C56.8856 354.837 58.1121 351.942 59.5022 348.538C60.1963 347.137 60.8557 345.759 61.4803 344.404C62.1003 343.012 62.6706 341.984 63.1913 341.319C63.6423 340.699 64.2519 340.456 65.0202 340.588C65.784 340.683 66.5076 341.064 67.1909 341.733C67.9113 342.398 68.3741 343.263 68.5793 344.328C68.6796 344.843 68.6954 345.743 68.6268 347.03C68.5581 348.318 68.4356 349.781 68.2594 351.419C68.0787 353.021 67.8238 354.632 67.4948 356.251C67.4605 356.895 67.3746 357.733 67.2372 358.765C67.0999 359.797 66.9485 360.869 66.7831 361.98C66.6132 363.053 66.4505 364.032 66.295 364.916C66.1893 366.208 66.098 367.31 66.0212 368.222C65.9444 369.134 65.972 369.977 66.1039 370.75C65.8427 371.384 65.7243 372.263 65.7488 373.389C65.7732 374.514 65.8577 375.67 66.0023 376.856C66.0304 378.319 65.9138 379.367 65.6526 380.001C65.3914 380.635 65.1659 380.944 64.976 380.93C64.629 380.859 64.3994 380.981 64.2873 381.296Z" fill="#4488FF"/>
<path d="M76.3228 376.556C75.841 376.615 75.4406 376.569 75.1215 376.42C74.8395 376.267 74.4744 376.048 74.026 375.764C73.2315 375.109 72.6015 374.415 72.136 373.682C71.666 372.912 71.4481 372.205 71.4825 371.561C71.5575 371.251 71.5607 370.969 71.492 370.714C71.4558 370.417 71.4377 370.269 71.4377 370.269C71.2298 370.106 71.1607 370.002 71.2303 369.956C71.2953 369.873 71.3559 369.753 71.4119 369.595C71.6343 369.568 71.6836 369.355 71.5597 368.957C71.4494 368.669 71.5023 368.023 71.7183 367.019C71.9298 365.978 72.2593 364.979 72.7067 364.022C72.8838 363.624 73.1586 363.101 73.531 362.454C73.8988 361.77 74.306 361.1 74.7525 360.443C75.2316 359.746 75.6709 359.184 76.0704 358.76C76.9019 357.868 77.6611 357.155 78.3481 356.62C79.0721 356.08 79.8304 355.668 80.6231 355.384C81.4158 355.099 82.1457 354.916 82.8127 354.834C83.5169 354.749 84.183 354.968 84.8112 355.493C85.7088 355.76 86.379 356.167 86.8219 356.715C87.2648 357.263 87.6029 358.03 87.8361 359.017C88.0828 360.115 88.1344 361.463 87.9907 363.06C87.8841 364.653 87.2184 366.596 85.9937 368.889C85.2299 370.336 84.4648 371.463 83.6983 372.271C82.9319 373.08 82.0497 373.864 81.0518 374.625C80.3369 375.239 79.5808 375.67 78.7836 375.917C77.9864 376.165 77.1661 376.378 76.3228 376.556ZM81.0951 369.43C81.848 368.51 82.3763 367.6 82.68 366.698C82.9792 365.759 83.2766 364.65 83.5721 363.373C83.6887 363.096 83.7316 362.677 83.7009 362.116C83.7072 361.552 83.6417 361.014 83.5043 360.504C83.4039 359.99 83.2381 359.709 83.0067 359.662C82.6045 359.448 82.19 359.442 81.7634 359.645C81.3693 359.806 80.9029 360.145 80.3642 360.662C79.3655 361.724 78.4819 362.96 77.7137 364.37C76.9409 365.743 76.4036 367.35 76.1017 369.193C75.9734 370.299 76.0936 371.13 76.4624 371.687C76.8637 372.202 77.4584 372.299 78.2466 371.977C79.0718 371.651 80.0214 370.802 81.0951 369.43Z" fill="#4488FF"/>
<path d="M93.4403 373.34C93.0752 373.121 92.724 372.863 92.3869 372.566C92.0452 372.231 91.8847 371.687 91.9055 370.932C91.8901 369.881 91.9276 368.955 92.018 368.154C92.1039 367.316 92.2132 366.362 92.3461 365.293C92.366 364.839 92.4586 364.057 92.624 362.946C92.8264 361.831 93.0917 360.614 93.4198 359.295C93.7479 357.976 94.085 356.732 94.4312 355.561C94.7728 354.354 95.095 353.449 95.3978 352.848C95.7277 352.469 96.2285 352.258 96.9001 352.214C97.6042 352.128 98.1226 352.215 98.4552 352.475C98.9035 352.759 99.0685 353.341 98.9501 354.22C98.8642 355.058 98.5013 356.4 97.8614 358.246C97.6418 358.912 97.4339 359.52 97.2378 360.071C97.0371 360.584 96.9156 360.975 96.8731 361.243C96.8631 361.47 96.9648 361.533 97.1781 361.432C97.3508 360.997 97.7019 360.484 98.2316 359.893C98.7567 359.265 99.3212 358.65 99.925 358.05C100.529 357.45 101.102 356.91 101.645 356.43C102.189 355.95 102.565 355.641 102.773 355.503C103.047 355.281 103.363 355.092 103.72 354.936C104.109 354.738 104.374 354.593 104.513 354.501C105.316 353.989 106.205 353.73 107.183 353.724C108.192 353.676 108.842 353.916 109.132 354.445C109.205 354.737 109.344 354.946 109.547 355.071C109.788 355.193 109.908 355.253 109.908 355.253C110.056 355.235 110.137 355.282 110.15 355.393C110.201 355.499 110.226 355.553 110.226 355.553C110.258 355.812 110.056 356.157 109.619 356.586C109.215 356.974 108.719 357.222 108.13 357.332C107.653 357.427 107.238 357.572 106.886 357.765C106.533 357.959 106.111 358.198 105.619 358.484C104.311 359.471 103.104 360.371 101.999 361.182C100.895 361.994 99.8288 363.121 98.8011 364.562C98.5778 364.89 98.3383 365.239 98.0825 365.609C97.8593 365.937 97.6288 366.36 97.3911 366.878C97.2284 367.086 97.0928 367.516 96.9843 368.169C96.8759 368.821 96.7837 369.453 96.7078 370.064C96.6644 370.634 96.6495 370.974 96.6631 371.085C96.6631 371.085 96.6301 371.277 96.5641 371.661C96.4936 372.008 96.349 372.365 96.1302 372.73C95.7579 373.377 95.3746 373.781 94.9805 373.942C94.619 374.061 94.1056 373.86 93.4403 373.34Z" fill="#4488FF"/>
<path d="M118.21 372.745C116.32 372.975 114.766 372.563 113.546 371.508C112.322 370.416 111.573 368.74 111.297 366.48C111.171 365.141 111.254 363.664 111.546 362.049C111.834 360.396 112.295 358.779 112.929 357.198C113.564 355.616 114.295 354.21 115.123 352.981C115.988 351.747 116.893 350.847 117.84 350.28C118.188 350.05 118.561 349.873 118.96 349.749C119.391 349.583 119.81 349.476 120.218 349.426C120.662 349.372 121.13 349.352 121.621 349.368C122.149 349.379 122.647 349.45 123.114 349.581C123.924 349.745 124.626 350.111 125.222 350.677C125.85 351.203 126.274 352.054 126.493 353.23C126.588 353.708 126.643 354.152 126.655 354.564C126.663 354.94 126.604 355.379 126.478 355.884C126.15 357.202 125.606 358.453 124.848 359.637C124.085 360.783 123.18 361.683 122.131 362.337C121.853 362.522 121.551 362.671 121.227 362.786C120.939 362.896 120.629 362.972 120.295 363.013C119.517 363.108 118.799 363.082 118.142 362.937C117.481 362.754 116.882 362.47 116.346 362.084L115.854 361.749L115.692 362.276C115.495 363.128 115.361 363.878 115.29 364.526C115.251 365.132 115.254 365.621 115.299 365.991C115.353 366.436 115.426 366.879 115.517 367.319C115.646 367.754 115.821 368.109 116.042 368.383C116.213 368.55 116.435 368.674 116.708 368.753C117.018 368.828 117.358 368.843 117.729 368.798C117.988 368.766 118.229 368.737 118.451 368.71C118.669 368.646 118.866 368.565 119.043 368.468C119.692 368.239 120.2 367.932 120.566 367.549C120.933 367.166 121.323 366.817 121.737 366.504L121.945 366.366L121.876 366.261C122.433 365.892 122.834 365.637 123.08 365.494C123.321 365.314 123.475 365.182 123.54 365.099C123.679 365.007 123.837 364.913 124.013 364.816C124.444 364.65 124.921 364.705 125.443 364.98C125.966 365.255 126.256 365.633 126.315 366.115C126.338 366.3 126.212 366.654 125.937 367.176C125.695 367.657 125.376 368.128 124.981 368.59C124.623 369.048 124.252 369.394 123.867 369.629C123.797 369.675 123.693 369.744 123.553 369.836C123.414 369.929 123.294 370.018 123.191 370.106L123.247 370.099C122.968 370.585 122.661 370.848 122.328 370.888L121.883 370.943C121.766 371.22 121.319 371.557 120.539 371.953C119.765 372.386 118.988 372.65 118.21 372.745ZM119.403 359.398C119.848 359.344 120.226 359.204 120.537 358.978C120.88 358.71 121.184 358.429 121.449 358.133C122.211 357.288 122.626 356.372 122.694 355.386C122.794 354.358 122.611 353.629 122.144 353.197C122.02 353.099 121.881 353.041 121.728 353.022C121.613 352.998 121.427 353.021 121.172 353.089C120.769 353.176 120.329 353.418 119.85 353.815C119.372 354.212 118.905 354.701 118.45 355.283C117.994 355.865 117.615 356.457 117.312 357.058L116.732 358.313C116.876 358.258 117.003 358.224 117.114 358.21C117.258 358.155 117.349 358.125 117.386 358.121C117.622 358.205 117.811 358.37 117.954 358.616C118.092 358.825 118.267 359.029 118.48 359.229C118.688 359.391 118.995 359.448 119.403 359.398Z" fill="#4488FF"/>
<path d="M146.883 375.058C146.678 375.234 146.236 375.156 145.557 374.825C144.877 374.494 144.242 374.064 143.65 373.534C143.355 373.27 143.15 372.975 143.035 372.65C142.92 372.326 142.862 371.694 142.86 370.754C142.959 370.328 142.985 369.93 142.94 369.559C142.932 369.184 142.919 368.922 142.901 368.774C142.874 368.552 142.866 368.026 142.878 367.197C142.926 366.364 142.971 365.494 143.01 364.586C143.046 363.642 143.089 362.922 143.142 362.426C143.137 362.389 143.145 362.294 143.164 362.142C143.183 361.989 143.204 361.855 143.227 361.739C143.261 361.396 143.299 360.94 143.343 360.371C143.423 359.797 143.469 359.096 143.481 358.267C143.664 357.304 143.794 356.367 143.871 355.455C143.981 354.501 144.015 353.858 143.974 353.524C143.893 352.857 144.094 352.344 144.576 351.984C144.591 351.794 144.668 351.503 144.808 351.109C144.944 350.679 145.07 350.325 145.186 350.048C145.67 347.845 146.078 346.103 146.411 344.821C146.739 343.502 147.106 342.348 147.511 341.358C147.657 340.701 147.819 340.023 147.997 339.325C148.212 338.621 148.445 338.066 148.696 337.66C148.823 337.155 149.174 336.492 149.751 335.669C150.323 334.81 150.937 333.983 151.592 333.188C152.243 332.357 152.768 331.728 153.168 331.304C153.933 330.796 154.636 330.391 155.276 330.087C155.911 329.747 156.618 329.529 157.396 329.434C158.101 329.348 158.735 329.459 159.299 329.766C159.858 330.036 160.406 330.364 160.942 330.75C161.528 331.243 161.87 331.577 161.967 331.754C162.064 331.93 162.144 332.277 162.207 332.796C162.178 333.176 162.037 333.719 161.785 334.427C161.566 335.093 161.293 335.785 160.966 336.502C160.64 337.218 160.321 337.84 160.009 338.367C159.734 338.89 159.523 339.16 159.375 339.178C158.554 339.541 158.074 339.149 157.933 338C157.902 337.74 157.761 337.513 157.512 337.318C157.258 337.086 157.131 336.969 157.131 336.969C157.117 336.858 157.113 336.671 157.119 336.407C157.157 336.101 157.234 335.81 157.35 335.532C157.49 335.139 157.485 334.783 157.333 334.463C157.213 334.101 156.957 334.001 156.563 334.162C156.461 334.249 156.242 334.464 155.908 334.806C155.573 335.147 155.206 335.53 154.807 335.955C154.44 336.339 154.129 336.715 153.873 337.085C153.612 337.417 153.489 337.639 153.503 337.75C153.503 337.75 153.449 337.926 153.341 338.278C153.229 338.592 152.999 339.015 152.65 339.547C152.436 339.949 152.24 340.349 152.063 340.747C151.918 341.103 151.85 341.318 151.859 341.392C151.878 341.54 151.879 341.709 151.865 341.899C151.883 342.047 151.799 342.133 151.614 342.155C151.614 342.155 151.579 342.329 151.508 342.676C151.438 343.023 151.286 343.474 151.053 344.029C150.95 344.418 150.812 344.83 150.639 345.264C150.462 345.662 150.308 345.944 150.178 346.11L150.234 346.104C150.234 346.104 150.168 346.337 150.037 346.805C149.939 347.23 149.826 347.695 149.7 348.2C149.573 348.704 149.514 348.993 149.524 349.067C149.542 349.216 149.773 349.263 150.218 349.208C150.699 349.15 151.267 349.024 151.921 348.831C152.57 348.602 153.181 348.377 153.756 348.156C154.257 347.945 154.6 347.828 154.785 347.805C154.971 347.782 155.35 347.811 155.924 347.892C156.243 348.041 156.523 348.327 156.762 348.749C157.039 349.166 157.239 349.574 157.363 349.973C157.524 350.367 157.558 350.645 157.464 350.807C157.446 350.96 157.063 351.213 156.316 351.567C155.57 351.922 154.816 352.221 154.056 352.464C153.407 352.693 152.649 352.955 151.782 353.249C150.916 353.542 150.158 353.804 149.509 354.034C148.86 354.263 148.542 354.434 148.556 354.545C148.444 354.558 148.344 354.665 148.256 354.864C148.163 355.025 148.123 355.162 148.137 355.273C148.2 355.792 148.173 356.19 148.057 356.467C148.01 356.699 147.936 357.178 147.837 357.905C147.738 358.631 147.645 359.414 147.559 360.252C147.473 361.089 147.399 361.869 147.337 362.592C147.307 363.272 147.306 363.724 147.333 363.946C147.142 364.233 147.053 364.582 147.066 364.994C147.074 365.369 147.096 365.705 147.132 366.002C147.02 366.316 146.961 366.605 146.956 366.869C146.946 367.096 146.95 367.284 146.968 367.432C146.973 367.469 146.982 367.543 146.995 367.654C147.009 367.765 147.004 367.879 146.98 367.995C146.988 368.37 146.992 368.858 146.99 369.46C147.03 370.095 147.086 370.708 147.158 371.301L147.188 372.934C147.209 373.42 147.204 373.834 147.17 374.177C147.141 374.557 147.045 374.85 146.883 375.058ZM160.983 368.092C160.442 367.97 159.998 367.723 159.652 367.352C159.347 367.013 159.131 366.475 159.004 365.738C158.945 365.257 158.9 364.585 158.871 363.724C158.873 362.821 158.909 361.876 158.976 360.89C158.967 360.816 158.958 360.742 158.949 360.668C158.973 360.552 158.982 360.476 158.978 360.438C158.997 360.286 159.007 360.059 159.008 359.758C159.004 359.42 159.009 359.156 159.024 358.966C159.075 358.772 159.112 358.767 159.135 358.952L159.285 357.411C159.389 356.721 159.493 356.032 159.597 355.342C159.697 354.615 159.789 353.983 159.874 353.447C159.954 352.873 160.008 352.546 160.036 352.468C160.036 352.468 160.086 352.255 160.184 351.829C160.278 351.366 160.375 350.922 160.473 350.496C160.844 348.608 161.215 347.021 161.585 345.735C161.991 344.444 162.365 343.496 162.705 342.89C162.728 342.774 162.768 342.638 162.824 342.481C162.875 342.286 162.913 342.131 162.936 342.016C162.891 341.645 162.878 341.383 162.897 341.231C162.949 341.036 163.019 340.84 163.107 340.641C163.163 340.484 163.252 340.285 163.373 340.044C163.49 339.767 163.618 339.431 163.758 339.038L163.906 338.4C164.069 337.891 164.28 337.301 164.536 336.63C164.793 335.96 164.977 335.467 165.089 335.153C165.16 334.805 165.316 334.391 165.558 333.911C165.833 333.388 166.128 333.032 166.444 332.844L166.381 332.795C166.526 332.439 166.812 332.159 167.238 331.957C167.665 331.754 168.045 331.633 168.378 331.592C168.897 331.529 169.265 331.616 169.482 331.852C169.732 332.048 169.888 332.405 169.951 332.924C170.019 333.479 170.05 333.889 170.045 334.153C170.072 334.376 169.974 334.651 169.751 334.979L169.806 334.972C169.871 334.889 169.866 335.002 169.791 335.312C169.712 335.585 169.642 335.782 169.581 335.902C169.53 336.097 169.462 336.312 169.378 336.548C169.331 336.779 169.258 336.957 169.161 337.082C169.068 337.244 168.832 337.78 168.455 338.691C168.114 339.598 167.717 340.662 167.264 341.883C166.848 343.099 166.447 344.277 166.059 345.415C165.708 346.548 165.439 347.427 165.252 348.052L165.132 348.913C165.076 349.07 165.052 349.186 165.061 349.26C164.982 349.533 164.902 349.806 164.822 350.079C164.743 350.352 164.659 350.588 164.57 350.786L164.039 354.293L163.959 355.487L163.608 356.771L163.403 357.868C163.356 358.099 163.33 358.347 163.324 358.611C163.314 358.838 163.261 359.013 163.163 359.138C163.168 359.175 163.156 359.233 163.128 359.312C163.132 359.349 163.137 359.386 163.141 359.423C163.065 360.034 162.945 360.895 162.779 362.006C162.614 363.117 162.571 364.307 162.651 365.576C162.655 365.613 162.641 365.652 162.609 365.694C162.613 365.731 162.618 365.768 162.622 365.805C162.606 366.596 162.454 367.198 162.165 367.609C161.914 368.016 161.52 368.177 160.983 368.092Z" fill="#4488FF"/>
<path d="M173.738 364.449C172.22 364.032 171.127 363.244 170.459 362.085C169.787 360.888 169.445 359.162 169.433 356.907C169.367 355.749 169.256 354.991 169.099 354.634C168.975 354.236 168.687 353.876 168.234 353.555C168.105 353.42 167.837 353.228 167.43 352.976C167.019 352.688 166.821 352.449 166.835 352.259C166.766 352.004 166.765 351.685 166.831 351.3C166.934 350.912 167.041 350.711 167.152 350.697C167.366 350.596 167.577 350.476 167.785 350.338C168.027 350.158 168.226 350.096 168.383 350.152C168.532 350.134 168.744 350.183 169.022 350.3C169.332 350.375 169.496 350.486 169.514 350.635C169.694 350.876 169.91 350.793 170.161 350.387C170.445 349.938 170.727 349.321 171.007 348.535C171.305 347.896 171.701 347.284 172.193 346.697C172.718 346.069 173.25 345.497 173.789 344.98C174.328 344.463 174.787 344.068 175.168 343.796C175.344 343.699 175.664 343.547 176.128 343.34C176.591 343.133 177.078 342.961 177.588 342.824C178.135 342.682 178.559 342.611 178.86 342.612C179.531 342.568 180.209 342.73 180.893 343.098C181.615 343.461 182.206 343.84 182.668 344.235C183.191 344.51 183.567 344.972 183.796 345.621C184.021 346.233 184.158 346.893 184.207 347.602C184.256 348.31 184.182 348.94 183.986 349.49C183.92 349.874 183.61 350.42 183.057 351.127C182.5 351.796 181.886 352.473 181.217 353.156C180.544 353.803 179.943 354.271 179.414 354.561C178.946 354.731 178.364 354.896 177.669 355.056C176.97 355.179 176.321 355.258 175.724 355.293C175.126 355.328 174.71 355.304 174.474 355.22C174.196 355.103 173.987 355.242 173.847 355.635C173.74 355.987 173.694 356.688 173.709 357.739C173.735 358.262 173.787 358.689 173.865 359.018C173.98 359.342 174.083 359.574 174.176 359.713C174.48 360.052 174.815 360.331 175.18 360.55C175.545 360.768 176.092 360.777 176.819 360.575C177.51 360.378 178.16 359.848 178.769 358.984C179.411 358.078 179.999 357.348 180.533 356.794C180.649 356.517 180.926 356.314 181.361 356.185C181.797 356.057 182.32 356.031 182.931 356.107C183.371 356.316 183.601 356.664 183.623 357.151C183.682 357.632 183.51 358.387 183.109 359.413C183.029 359.686 182.778 360.093 182.355 360.634C181.965 361.133 181.521 361.657 181.024 362.206C180.559 362.714 180.155 363.102 179.812 363.37C178.772 364.098 177.734 364.526 176.696 364.652C175.654 364.742 174.668 364.674 173.738 364.449ZM176.095 351.863C176.707 351.638 177.21 351.445 177.604 351.284C178.031 351.082 178.409 350.791 178.739 350.412C179.106 350.029 179.52 349.414 179.981 348.568C180.079 348.143 180.108 347.763 180.068 347.429C180.027 347.096 179.944 346.88 179.82 346.783C179.487 346.522 179.124 346.473 178.729 346.634C178.368 346.753 178.001 346.986 177.63 347.332C177.384 347.475 177.045 347.779 176.613 348.246C176.177 348.675 175.765 349.158 175.379 349.694C174.989 350.193 174.687 350.643 174.472 351.045C174.258 351.448 174.23 351.677 174.387 351.733C174.331 351.89 174.546 351.958 175.032 351.936C175.556 351.91 175.91 351.886 176.095 351.863Z" fill="#4488FF"/>
<path d="M187.343 363.579C186.746 363.615 186.277 363.315 185.936 362.679C185.628 362.002 185.809 361.171 186.478 360.187C186.641 359.979 186.929 359.568 187.343 358.953C187.794 358.334 188.29 357.616 188.829 356.798C189.369 355.98 189.876 355.203 190.351 354.468L192.73 350.85L194.933 348.099L197.723 344.148C198.69 342.826 199.48 341.903 200.093 341.376C200.739 340.809 201.286 340.516 201.735 340.499C202.18 340.445 202.61 340.581 203.026 340.906C203.225 340.995 203.363 341.203 203.441 341.532C203.556 341.857 203.622 342.093 203.64 342.241C203.746 342.492 203.554 343.079 203.065 344.004C202.609 344.887 201.632 346.285 200.135 348.198C199.253 348.982 198.538 349.746 197.989 350.49C197.478 351.23 197.249 351.671 197.304 351.815C196.793 352.554 196.358 353.153 196 353.61C195.679 354.063 195.34 354.518 194.982 354.975C194.657 355.391 194.268 355.909 193.817 356.528C193.399 357.105 192.841 357.926 192.143 358.989C191.352 360.213 190.504 361.276 189.598 362.176C188.725 363.035 187.974 363.503 187.343 363.579ZM201.464 363.719C201.205 363.75 200.881 363.715 200.492 363.612C200.108 363.546 199.685 363.315 199.223 362.92C198.766 362.562 198.251 362.042 197.679 361.36L196.648 359.849L196.655 359.905C196.332 359.418 195.957 358.805 195.528 358.068C195.133 357.289 194.877 356.737 194.762 356.412C194.753 356.338 194.703 356.232 194.611 356.092C194.555 355.949 194.378 355.575 194.079 354.973C193.78 354.37 193.225 353.366 192.414 351.96L191.214 349.06C190.897 348.309 190.566 347.597 190.22 346.925C189.87 346.215 189.587 345.742 189.37 345.505C189.052 345.055 188.958 344.747 189.088 344.58C189.255 344.41 189.409 344.128 189.549 343.734L189.654 343.665C189.905 343.258 190.274 342.894 190.761 342.571C191.281 342.207 191.751 342.055 192.173 342.117C192.492 342.266 192.836 342.619 193.204 343.176C193.606 343.691 193.977 344.266 194.318 344.902C194.691 345.495 195.004 346.059 195.257 346.592L195.25 346.537L196.161 348.457L197.368 351.412C197.317 351.607 197.399 351.973 197.615 352.51C197.868 353.044 198.172 353.684 198.526 354.43L199.022 355.724C199.211 356.039 199.442 356.387 199.714 356.768C199.981 357.111 200.189 357.424 200.336 357.707L200.329 357.652C200.573 358.111 200.813 358.533 201.048 358.918C201.283 359.303 201.472 359.618 201.615 359.864C201.795 360.106 201.903 360.224 201.94 360.219C202.181 360.341 202.303 360.42 202.308 360.457C202.349 360.489 202.393 360.54 202.439 360.61C202.49 360.717 202.559 360.821 202.646 360.923C202.771 361.021 202.859 361.123 202.91 361.23C203.052 361.475 203.051 361.776 202.907 362.133C202.804 362.521 202.601 362.866 202.299 363.166C202.035 363.461 201.756 363.646 201.464 363.719Z" fill="#4488FF"/>
<path d="M207.694 359.856C207.361 359.596 207.089 359.215 206.878 358.715C206.699 358.172 206.596 357.639 206.57 357.116C206.539 356.556 206.58 356.118 206.692 355.804C206.656 355.507 206.666 355.28 206.722 355.123C206.81 354.924 206.827 354.753 206.772 354.609C206.717 354.466 206.722 354.202 206.788 353.817C206.854 353.433 206.922 353.068 206.993 352.721C207.18 352.096 207.367 351.321 207.555 350.395C207.776 349.428 207.978 348.463 208.161 347.501C208.382 346.534 208.544 345.705 208.648 345.016C208.785 344.284 208.862 343.842 208.881 343.69C208.827 343.245 209.094 342.968 209.682 342.858C210.109 342.656 210.588 342.729 211.12 343.078C211.684 343.385 212.187 343.813 212.63 344.361C212.963 344.621 213.124 345.015 213.113 345.543C213.102 346.071 212.947 346.804 212.648 347.743C212.536 348.058 212.409 348.562 212.268 349.256C212.16 349.909 212.095 350.462 212.076 350.916C211.964 351.231 211.83 351.679 211.676 352.262C211.554 352.804 211.448 353.324 211.358 353.824C211.307 354.019 211.271 354.343 211.251 354.796C211.231 355.25 211.195 355.725 211.143 356.22C211.09 356.715 210.99 357.122 210.841 357.441C210.692 359.002 210.301 359.952 209.665 360.293C209.067 360.629 208.41 360.483 207.694 359.856ZM210.743 336.749C210.377 336.53 210.08 336.247 209.849 335.899C209.614 335.514 209.458 335.157 209.38 334.828C209.339 334.494 209.354 334.305 209.423 334.259C209.721 333.921 209.998 333.417 210.254 332.747C210.507 332.039 210.694 331.414 210.816 330.873C210.839 330.757 210.895 330.6 210.984 330.401C211.11 330.198 211.244 330.069 211.388 330.013C211.796 329.663 212.352 329.595 213.056 329.81C213.759 330.025 214.332 330.407 214.775 330.954C215.194 331.618 215.37 332.292 215.304 332.977C215.269 333.621 214.968 334.391 214.401 335.288C213.935 336.096 213.343 336.639 212.625 336.915C211.938 337.149 211.311 337.093 210.743 336.749Z" fill="#4488FF"/>
<path d="M220.858 356.615C220.822 356.318 220.751 356.045 220.645 355.794C220.54 355.544 220.552 355.336 220.682 355.169L221.14 355.226C220.997 355.281 220.721 355.334 220.313 355.384C219.938 355.392 219.579 355.379 219.237 355.346C218.927 355.271 218.749 355.198 218.702 355.129C218.663 354.494 218.641 354.008 218.637 353.67C218.671 353.327 218.73 353.038 218.814 352.802C218.773 352.469 218.832 352.029 218.991 351.483C219.15 350.937 219.27 350.377 219.35 349.803C219.422 349.155 219.492 348.187 219.561 346.9C219.666 345.609 219.89 344.359 220.232 343.151C220.411 342.152 220.634 340.902 220.903 339.403C221.167 337.866 221.444 336.591 221.734 335.578C221.971 333.819 222.211 332.398 222.455 331.315C222.732 330.191 223.022 329.177 223.325 328.275C223.662 327.332 224.021 326.272 224.405 325.097C224.517 324.783 224.62 324.394 224.714 323.931C224.803 323.432 224.883 323.008 224.954 322.661C225.154 322.148 225.524 321.783 226.061 321.567C226.636 321.346 227.173 321.431 227.672 321.822C228.129 322.18 228.453 322.516 228.641 322.832C228.826 323.11 228.887 323.61 228.825 324.333C228.758 325.018 228.504 326.177 228.064 327.81C227.85 328.213 227.63 328.879 227.405 329.809C227.213 330.697 227.027 331.491 226.849 332.19C226.452 333.554 226.142 334.72 225.922 335.688C225.701 336.655 225.502 337.638 225.323 338.638C225.19 339.707 224.985 340.804 224.709 341.928C224.469 343.048 224.234 344.205 224.004 345.399L223.148 345.786C223.367 345.421 223.634 344.993 223.951 344.503C224.304 344.009 224.625 343.556 224.913 343.145C225.239 342.729 225.45 342.459 225.548 342.334C226.444 341.359 227.466 340.483 228.612 339.703C229.753 338.887 230.844 338.265 231.882 337.838C232.953 337.369 233.78 337.211 234.363 337.366C234.979 337.479 235.644 337.849 236.36 338.476C237.113 339.099 237.637 339.844 237.93 340.711C238.299 341.267 238.392 342.027 238.208 342.99C238.02 343.915 237.653 345.07 237.107 346.453C236.618 347.678 236.031 348.878 235.346 350.052C234.658 351.189 233.986 352.155 233.33 352.95C233.089 353.13 232.787 353.43 232.425 353.85C232.095 354.229 231.802 354.603 231.546 354.973C230.854 355.772 229.974 356.424 228.908 356.93C227.837 357.399 226.747 357.72 225.64 357.893C224.528 358.029 223.528 358 222.64 357.808C221.784 357.574 221.19 357.176 220.858 356.615ZM221.997 354.388C222.187 354.403 222.377 354.417 222.567 354.432C222.752 354.409 222.956 354.384 223.178 354.357C223.98 354.147 224.638 353.991 225.152 353.891C225.666 353.79 226.174 353.634 226.675 353.423C227.175 353.211 227.734 352.861 228.352 352.372C229.225 351.513 229.964 350.634 230.568 349.732C231.173 348.831 231.773 347.893 232.369 346.918C232.899 346.026 233.312 345.091 233.607 344.115C233.901 343.139 234.01 342.336 233.933 341.706C233.893 341.372 233.78 341.217 233.595 341.24C233.52 341.249 233.2 341.4 232.635 341.695C232.064 341.953 231.482 342.268 230.888 342.641C230.327 342.973 229.965 343.243 229.802 343.451C229.82 343.599 229.725 343.742 229.516 343.881C229.303 343.982 229.196 344.033 229.196 344.033C228.151 345.025 227.364 345.817 226.835 346.408C226.342 346.995 225.907 347.593 225.53 348.203C225.316 348.605 225.128 348.91 224.965 349.118C224.839 349.322 224.714 349.525 224.588 349.728C224.499 349.927 224.348 350.228 224.134 350.63C223.952 350.991 223.682 351.55 223.323 352.308C223.122 352.822 222.901 353.319 222.659 353.8C222.417 354.281 222.207 354.57 222.031 354.666L221.997 354.388Z" fill="#4488FF"/>
<path d="M244.955 356.948C244.273 357.219 243.641 357.127 243.059 356.671C242.473 356.179 242.021 355.406 241.705 354.354C241.425 353.297 241.35 352.066 241.48 350.658C241.611 350.191 241.707 349.747 241.768 349.325C241.825 348.867 241.838 348.508 241.806 348.249C241.835 347.869 241.918 347.314 242.054 346.583C242.186 345.814 242.335 345.025 242.499 344.215C242.664 343.405 242.821 342.691 242.971 342.07C243.153 341.409 243.273 340.999 243.329 340.842C243.477 340.824 243.591 340.678 243.67 340.406C243.75 340.133 243.774 339.866 243.742 339.607C243.706 339.31 243.721 338.97 243.787 338.586C243.89 338.197 244.007 337.92 244.137 337.754C244.114 337.568 244.126 337.36 244.173 337.129C244.253 336.856 244.284 336.645 244.266 336.497C244.247 336.348 244.266 336.196 244.322 336.038C244.416 335.877 244.453 335.722 244.435 335.573C244.636 335.06 244.877 334.26 245.158 333.172C245.471 332.043 245.79 330.801 246.113 329.445C246.474 328.085 246.8 326.748 247.091 325.433C247.382 324.119 247.605 323.02 247.761 322.136C247.949 321.21 248.031 320.655 248.009 320.47C247.973 320.173 248.034 319.902 248.192 319.658C248.387 319.408 248.633 319.265 248.929 319.229C249.027 319.104 249.222 319.005 249.514 318.932C249.838 318.817 250.074 318.751 250.223 318.733C250.223 318.733 250.306 318.798 250.472 318.928C250.639 319.058 250.888 319.253 251.221 319.514C251.549 319.737 251.826 320.004 252.052 320.315C252.315 320.621 252.473 320.997 252.528 321.442C252.586 321.923 252.587 322.393 252.53 322.852C252.469 323.273 252.317 323.874 252.073 324.656C251.83 325.438 251.447 326.613 250.924 328.181C250.718 328.959 250.489 329.701 250.236 330.409C249.98 331.08 249.86 331.489 249.879 331.637C249.897 331.786 249.85 332.017 249.738 332.332C249.663 332.642 249.578 333.028 249.484 333.491C249.372 333.805 249.222 334.275 249.035 334.899C248.844 335.487 248.64 336.132 248.425 336.836C248.243 337.497 248.088 338.08 247.962 338.585C247.83 339.052 247.769 339.323 247.778 339.397C247.797 339.545 247.796 339.695 247.777 339.848C247.795 339.996 247.739 340.154 247.609 340.32C247.461 340.338 247.382 340.461 247.372 340.687C247.394 340.873 247.406 340.965 247.406 340.965C247.451 341.336 247.274 342.354 246.876 344.02C246.531 346.131 246.204 348.07 245.893 349.838C245.619 351.601 245.545 353.002 245.672 354.039C245.78 354.929 245.748 355.591 245.576 356.026C245.44 356.456 245.233 356.763 244.955 356.948Z" fill="#4488FF"/>
<path d="M258.103 355.683C256.213 355.913 254.659 355.501 253.439 354.446C252.215 353.354 251.466 351.678 251.19 349.417C251.064 348.079 251.147 346.602 251.439 344.987C251.727 343.334 252.188 341.717 252.822 340.136C253.457 338.554 254.188 337.148 255.016 335.919C255.881 334.685 256.786 333.785 257.733 333.218C258.081 332.988 258.454 332.81 258.853 332.687C259.284 332.521 259.703 332.414 260.111 332.364C260.556 332.31 261.023 332.29 261.514 332.306C262.042 332.316 262.54 332.387 263.007 332.518C263.817 332.683 264.519 333.049 265.115 333.615C265.743 334.14 266.167 334.991 266.386 336.168C266.481 336.646 266.536 337.09 266.548 337.502C266.556 337.877 266.497 338.317 266.371 338.822C266.043 340.14 265.499 341.391 264.741 342.574C263.978 343.721 263.073 344.621 262.024 345.275C261.746 345.46 261.444 345.609 261.12 345.724C260.832 345.834 260.522 345.91 260.188 345.951C259.41 346.045 258.692 346.02 258.035 345.875C257.374 345.692 256.775 345.408 256.239 345.022L255.747 344.687L255.585 345.214C255.388 346.066 255.254 346.816 255.183 347.464C255.144 348.07 255.147 348.559 255.192 348.929C255.246 349.374 255.319 349.816 255.41 350.257C255.539 350.692 255.714 351.047 255.935 351.321C256.106 351.488 256.328 351.612 256.601 351.691C256.911 351.766 257.251 351.781 257.622 351.736C257.881 351.704 258.122 351.675 258.344 351.648C258.562 351.583 258.759 351.503 258.936 351.406C259.585 351.177 260.093 350.87 260.46 350.487C260.826 350.104 261.216 349.755 261.63 349.442L261.838 349.303L261.769 349.199C262.326 348.83 262.727 348.574 262.973 348.432C263.214 348.252 263.368 348.12 263.433 348.037C263.572 347.945 263.73 347.85 263.906 347.754C264.337 347.588 264.814 347.643 265.336 347.918C265.859 348.192 266.149 348.571 266.208 349.053C266.231 349.238 266.105 349.592 265.83 350.114C265.588 350.595 265.269 351.066 264.874 351.528C264.516 351.986 264.145 352.332 263.76 352.567C263.69 352.613 263.586 352.682 263.446 352.774C263.307 352.866 263.187 352.956 263.084 353.044L263.14 353.037C262.861 353.523 262.554 353.786 262.221 353.826L261.776 353.881C261.659 354.158 261.212 354.495 260.432 354.891C259.658 355.324 258.881 355.588 258.103 355.683ZM259.296 342.336C259.741 342.282 260.119 342.142 260.43 341.916C260.773 341.648 261.077 341.367 261.342 341.071C262.104 340.226 262.519 339.31 262.587 338.324C262.687 337.296 262.504 336.566 262.037 336.134C261.913 336.037 261.774 335.979 261.621 335.96C261.506 335.936 261.32 335.959 261.065 336.027C260.662 336.114 260.222 336.356 259.743 336.753C259.265 337.15 258.798 337.639 258.343 338.221C257.887 338.803 257.508 339.395 257.205 339.996L256.625 341.251C256.769 341.196 256.896 341.162 257.007 341.148C257.151 341.093 257.242 341.063 257.279 341.059C257.515 341.143 257.704 341.308 257.847 341.554C257.985 341.762 258.16 341.967 258.373 342.166C258.581 342.329 258.888 342.386 259.296 342.336Z" fill="#4488FF"/>
<path d="M67.1173 427.493C66.7006 427.469 66.2288 427.301 65.7018 426.989C65.2074 426.635 64.7433 426.222 64.3094 425.748C63.8755 425.275 63.5804 424.859 63.424 424.502C63.415 424.428 63.3481 424.342 63.2234 424.245C63.1357 424.142 63.0919 424.091 63.0919 424.091C62.9301 423.998 62.7787 423.528 62.6377 422.68C62.5292 421.791 62.465 420.802 62.4451 419.714C62.4252 418.625 62.4509 417.757 62.5223 417.109C62.6353 416.493 62.8161 415.663 63.0646 414.617C63.3087 413.534 63.5107 412.569 63.6706 411.722L64.7783 408.315L62.4802 407.975C62.2117 407.932 61.9713 407.811 61.7589 407.612C61.5835 407.407 61.4868 407.231 61.4687 407.083C61.4326 406.786 61.5496 406.358 61.8199 405.799C62.0901 405.239 62.2994 404.951 62.4476 404.932C62.6374 404.947 62.9732 404.925 63.455 404.866C63.9738 404.803 64.4718 404.723 64.9491 404.627C65.4263 404.532 65.7183 404.458 65.8249 404.408C65.9641 404.316 66.101 404.205 66.2357 404.076C66.3659 403.909 66.4522 403.692 66.4947 403.423C66.6302 402.993 66.7563 402.639 66.8729 402.362C66.9895 402.084 67.1504 401.707 67.3556 401.231C67.5562 400.718 67.7103 400.285 67.8179 399.934C67.9625 399.577 68.1839 399.08 68.4822 398.442C68.6359 398.16 68.8013 397.82 68.9784 397.423C69.1556 397.025 69.3951 396.676 69.697 396.376C69.9944 396.039 70.4535 395.795 71.0745 395.644C71.6954 395.493 72.3132 395.624 72.9279 396.038C73.2695 396.373 73.477 396.686 73.5502 396.978C73.6189 397.233 73.5181 397.64 73.2479 398.199C73.0282 398.866 72.7485 399.501 72.4087 400.107C72.1013 400.671 71.8193 401.288 71.5627 401.959C71.0692 402.847 71.0145 403.323 71.3986 403.389C71.7828 403.455 72.8114 403.255 74.4844 402.787C75.5365 402.471 76.3261 402.469 76.853 402.781C77.38 403.092 77.719 403.559 77.8699 404.18C78.0896 405.056 78.0625 405.604 77.7886 405.826C77.5147 406.047 76.6737 406.244 75.2654 406.416C74.3941 406.672 73.6457 406.858 73.0202 406.971C72.3902 407.048 71.927 407.105 71.6305 407.141C71.1533 407.237 70.8405 407.294 70.6923 407.312C70.5441 407.33 70.3262 407.394 70.0388 407.504C69.7514 407.615 69.5448 407.771 69.4192 407.975C69.3261 408.137 69.2235 408.375 69.1115 408.689C68.9813 408.856 68.8064 409.272 68.5868 409.938C68.3671 410.604 68.0802 411.335 67.7259 412.13C67.3969 413.75 67.1375 415.324 66.9477 416.851C66.7534 418.342 66.6309 419.805 66.5803 421.24C66.527 422.036 66.6133 422.59 66.8393 422.901C67.0653 423.212 67.5719 423.357 68.3592 423.336C68.7713 423.323 69.3828 423.249 70.1936 423.112C70.9998 422.939 71.6533 422.746 72.1541 422.535C72.5391 422.3 72.9427 422.063 73.3648 421.823C73.7824 421.546 74.1629 421.274 74.5064 421.007C74.8173 420.781 75.1282 420.555 75.4392 420.329C75.7456 420.066 75.8988 419.934 75.8988 419.934C76.0479 419.615 76.2888 419.586 76.6214 419.846C76.9911 420.102 77.2772 420.443 77.4797 420.87C77.5339 421.315 77.5045 421.845 77.3916 422.46C77.2741 423.039 76.6631 423.734 75.5585 424.545C74.0175 425.786 72.4637 426.615 70.8973 427.032C69.3634 427.407 68.1034 427.561 67.1173 427.493Z" fill="#4488FF"/>
<path d="M99.0103 422.531C98.138 423.089 97.2667 423.346 96.3963 423.302C95.5629 423.253 94.8394 422.871 94.2256 422.156C93.6074 421.404 93.2101 420.305 93.0338 418.86C92.9841 418.452 92.9579 417.929 92.9552 417.29C92.9479 416.614 92.9732 415.896 93.0311 415.137C93.126 414.373 93.2439 413.644 93.3849 412.95C93.4554 412.603 93.5489 412.291 93.6655 412.013C93.7776 411.699 93.7595 411.55 93.6113 411.568C93.4631 411.586 93.2891 411.702 93.0893 411.914C92.9266 412.122 92.7965 412.288 92.6988 412.413C91.9044 413.3 91.1537 414.238 90.4469 415.226C89.7771 416.211 89.1815 417.186 88.66 418.152C88.1384 419.118 87.7376 419.995 87.4574 420.781C87.2143 421.563 87.1198 422.176 87.1741 422.621C87.2419 423.177 87.0114 423.6 86.4826 423.89C85.9539 424.18 85.4698 424.22 85.0305 424.011C84.2767 423.689 83.6322 423.185 83.0971 422.498C82.5575 421.774 82.2597 420.719 82.2036 419.335C82.1024 417.579 82.0608 416.005 82.0788 414.611C82.0969 413.217 82.2126 411.699 82.4258 410.055C82.6717 408.371 83.0043 406.318 83.4236 403.897C83.7472 402.542 84.0427 401.264 84.3103 400.066C84.5733 398.83 84.8033 397.787 85.0003 396.935C85.2344 396.079 85.3772 395.554 85.4288 395.36C85.5915 395.152 85.7781 394.678 85.9887 393.938C86.1948 393.16 86.3638 392.387 86.4957 391.619C86.6647 390.846 86.7402 390.386 86.7221 390.238C86.686 389.941 86.7099 389.675 86.794 389.439C86.9151 389.199 87.0199 388.979 87.1085 388.78C87.2441 388.35 87.3769 388.051 87.5071 387.885C87.6327 387.682 87.7512 387.573 87.8623 387.56C88.0476 387.537 88.3369 387.596 88.73 387.736C89.1187 387.839 89.4956 388 89.8608 388.219C90.2585 388.396 90.5125 388.628 90.6228 388.916C90.9455 389.403 91.1407 389.924 91.2085 390.48C91.3088 390.994 91.2582 391.659 91.0567 392.473C90.8551 393.288 90.4674 394.426 89.8934 395.887C89.4406 397.108 89.0479 398.36 88.7153 399.641C88.3827 400.923 88.0754 402.258 87.7934 403.646C87.6759 404.225 87.5277 405.014 87.3487 406.014C87.1653 406.976 86.9863 407.976 86.8119 409.013C86.6329 410.012 86.4983 410.913 86.4079 411.714C86.3175 412.514 86.2859 413.026 86.313 413.248C86.3446 413.508 86.5087 413.619 86.8052 413.583C87.0971 413.51 87.3665 413.251 87.6132 412.808C87.7253 412.493 87.9463 412.146 88.2762 411.768C88.6061 411.389 88.9012 411.033 89.1615 410.701C89.4173 410.331 89.7382 409.878 90.1241 409.342C90.5101 408.806 90.9331 408.266 91.3931 407.721C91.8903 407.171 92.3431 406.721 92.7516 406.37C93.1927 405.978 93.5615 405.764 93.858 405.728C94.488 405.651 95.0502 405.789 95.5446 406.142C96.0345 406.459 96.4706 406.951 96.853 407.619C96.9777 407.716 97.107 407.851 97.2407 408.023C97.37 408.158 97.4577 408.26 97.5038 408.329C97.7071 408.455 97.8373 409.06 97.8943 410.143C97.9838 411.186 97.8405 412.632 97.4645 414.483C97.2982 415.895 97.207 416.997 97.1907 417.789C97.1699 418.543 97.3078 418.903 97.6042 418.867C97.6042 418.867 97.776 418.733 98.1194 418.465C98.5 418.193 98.8968 417.9 99.3098 417.587C100.299 416.752 101.099 416.372 101.71 416.448C102.316 416.487 102.644 416.71 102.694 417.118C102.726 417.377 102.653 417.706 102.476 418.103C102.331 418.459 102.268 418.712 102.286 418.86C102.286 418.86 102.288 418.878 102.293 418.915C102.293 418.915 102.302 418.989 102.32 419.138C102.329 419.212 102.12 419.501 101.692 420.004C101.264 420.508 100.784 421.036 100.249 421.59C99.7478 422.103 99.3348 422.417 99.0103 422.531Z" fill="#4488FF"/>
<path d="M107.813 421.176C107.628 420.897 107.316 420.653 106.877 420.444C106.438 420.234 106.209 420.055 106.191 419.907C106.173 419.758 106.093 419.561 105.95 419.316C105.807 419.07 105.652 418.882 105.486 418.752C105.274 418.552 105.245 418.01 105.401 417.126C105.593 416.237 105.893 415.148 106.3 413.857C106.706 412.566 107.183 411.229 107.728 409.847C107.989 409.514 108.238 409.089 108.476 408.571C108.713 408.053 108.897 407.711 109.027 407.544C109.009 407.396 109.049 407.26 109.147 407.135C109.24 406.973 109.36 406.883 109.509 406.865L109.754 406.102C109.773 405.949 109.941 405.628 110.257 405.138C110.573 404.648 110.978 404.11 111.47 403.523C111.959 402.899 112.451 402.313 112.948 401.763C113.445 401.214 113.866 400.805 114.209 400.537C114.924 399.924 115.689 399.567 116.504 399.468C117.352 399.327 118.102 399.461 118.754 399.87C118.879 399.968 119.128 400.163 119.502 400.456C119.909 400.707 120.357 400.991 120.847 401.307C121.337 401.624 121.788 401.926 122.199 402.215L124.479 403.798L123.873 406.693C123.572 408.234 123.601 409.547 123.959 410.631C124.354 411.711 124.823 412.632 125.368 413.393C125.603 413.778 125.942 414.094 126.386 414.341C126.825 414.551 127.309 414.661 127.837 414.672C128.138 414.672 128.429 414.75 128.711 414.903C128.993 415.057 129.159 415.338 129.209 415.745C129.295 416.45 129.228 416.984 129.009 417.349C128.791 417.714 128.501 417.957 128.139 418.076C126.934 418.373 125.744 418.331 124.569 417.947C123.431 417.56 122.313 416.568 121.216 414.971C121.041 414.767 120.787 414.384 120.456 413.823C120.156 413.22 119.977 412.828 119.917 412.647C119.792 412.851 119.603 413.156 119.352 413.563C119.096 413.932 118.871 414.242 118.675 414.491C116.37 417.481 114.324 419.517 112.538 420.599C110.747 421.645 109.172 421.837 107.813 421.176ZM110.035 416.73C110.234 416.819 110.63 416.676 111.224 416.303C111.818 415.93 112.533 415.316 113.369 414.462C114.498 413.233 115.49 412.116 116.345 411.109C117.195 410.065 117.942 408.939 118.584 407.733L119.563 405.582C119.089 404.775 118.669 404.262 118.304 404.044C117.934 403.788 117.601 403.678 117.304 403.714C116.823 403.773 116.236 404.202 115.543 405.001C114.888 405.795 114.176 406.898 113.408 408.308C112.672 409.676 111.892 411.295 111.067 413.163C110.717 413.995 110.457 414.798 110.288 415.571C110.119 416.344 110.035 416.73 110.035 416.73Z" fill="#4488FF"/>
<path d="M134.218 417.335C134.07 417.353 133.739 417.261 133.226 417.061C132.749 416.856 132.428 416.688 132.262 416.558C131.966 416.293 131.761 415.998 131.646 415.674C131.531 415.349 131.411 414.668 131.284 413.631C131.139 412.445 131.22 411.1 131.525 409.596C131.826 408.055 132.397 405.954 133.239 403.294L134.816 398.645C134.969 398.363 135.109 398.12 135.235 397.917C135.36 397.713 135.486 397.51 135.612 397.307C135.723 397.293 135.834 397.279 135.945 397.266C136.056 397.252 136.151 397.26 136.23 397.288C136.531 397.288 137 397.438 137.638 397.736C138.272 397.998 138.701 398.434 138.926 399.046C138.985 399.528 138.979 400.093 138.908 400.741C138.832 401.352 138.486 402.221 137.872 403.349C137.62 403.756 137.378 404.387 137.144 405.243C136.905 406.062 136.734 406.817 136.63 407.506C136.597 407.548 136.525 407.726 136.413 408.04C136.296 408.318 136.182 408.614 136.07 408.929C135.958 409.243 135.892 409.477 135.873 409.63L135.746 410.435L138.235 407.254C139.695 405.346 140.938 403.972 141.964 403.132C143.022 402.251 143.929 401.821 144.683 401.842C145.438 401.862 146.108 402.27 146.694 403.063C146.999 403.402 147.231 403.769 147.392 404.163C147.549 404.52 147.679 404.974 147.784 405.525C147.889 406.077 147.959 406.802 147.993 407.7L148.393 410.98C149 410.718 149.483 410.508 149.84 410.352C150.192 410.159 150.547 409.984 150.904 409.827C151.187 409.68 151.49 409.549 151.815 409.434C152.172 409.278 152.626 409.147 153.178 409.042C153.199 409.528 153.065 410.128 152.776 410.84C152.52 411.511 152.17 412.193 151.728 412.886C151.323 413.575 150.852 414.178 150.313 414.695C149.77 415.175 149.239 415.446 148.72 415.509C148.238 415.568 147.659 415.451 146.984 415.157C146.346 414.859 145.792 414.325 145.322 413.554C145.12 413.128 144.927 412.625 144.743 412.045C144.56 411.466 144.414 410.732 144.305 409.842L144.02 407.508C143.98 407.174 143.888 407.035 143.744 407.09C143.633 407.104 143.526 407.154 143.424 407.242C143.182 407.422 142.736 407.927 142.086 408.759C141.43 409.554 140.782 410.404 140.14 411.309C138.652 413.296 137.386 414.786 136.341 415.778C135.333 416.766 134.626 417.285 134.218 417.335Z" fill="#4488FF"/>
<path d="M175.211 413.35C174.923 413.461 174.539 413.545 174.057 413.604C173.571 413.626 173.138 413.622 172.758 413.593C172.411 413.523 172.231 413.432 172.217 413.321C172.195 413.135 172.091 413.054 171.905 413.077C171.905 413.077 171.723 412.967 171.358 412.748C170.992 412.53 170.634 412.367 170.282 412.259C169.886 411.781 169.609 411.213 169.454 410.555C169.336 409.892 169.402 408.737 169.652 407.089C169.59 405.969 169.779 404.742 170.219 403.41C170.69 402.036 171.313 400.662 172.085 399.289C172.891 397.875 173.733 396.606 174.611 395.484C175.527 394.356 176.363 393.502 177.119 392.921C177.575 392.339 178.208 391.98 179.019 391.843C179.867 391.702 180.647 391.776 181.359 392.065C181.752 392.206 182.184 392.51 182.655 392.979C183.122 393.411 183.576 393.901 184.019 394.449C184.495 394.955 184.873 395.435 185.154 395.89C185.315 396.284 185.453 396.644 185.568 396.968C185.678 397.255 185.76 397.621 185.814 398.066C185.906 398.506 185.95 399.178 185.947 400.081C185.843 400.771 185.765 401.514 185.711 402.31C185.695 403.102 185.73 403.85 185.816 404.554C185.828 405.267 185.963 405.758 186.221 406.027C186.517 406.292 186.89 406.266 187.34 405.947C187.757 405.671 188.195 405.561 188.653 405.618C189.112 405.675 189.475 405.875 189.742 406.219C190.01 406.562 190.069 407.044 189.918 407.664C189.824 408.127 189.566 408.628 189.143 409.169C188.753 409.668 188.26 410.104 187.667 410.477C187.105 410.809 186.565 411.006 186.046 411.07C185.639 411.119 185.208 410.984 184.756 410.663C184.303 410.342 183.873 409.906 183.468 409.353C183.094 408.759 182.756 408.143 182.452 407.503L181.963 406.265L180.094 408.524C179.676 409.101 179.253 409.642 178.825 410.145C178.43 410.607 178.189 410.937 178.1 411.136C177.955 411.492 177.642 411.85 177.159 412.21C176.672 412.533 176.022 412.913 175.211 413.35ZM175.697 408.552C176.282 408.105 176.819 407.569 177.307 406.946C177.827 406.28 178.323 405.562 178.793 404.79C179.258 403.981 179.705 403.174 180.134 402.37C180.66 401.44 181.035 400.661 181.259 400.032C181.483 399.403 181.631 398.764 181.702 398.116C181.504 397.727 181.23 397.328 180.879 396.919C180.561 396.469 180.27 396.241 180.006 396.236C179.376 396.313 178.719 396.788 178.036 397.661C177.348 398.497 176.65 399.56 175.943 400.85C175.817 401.053 175.649 401.375 175.44 401.814C175.267 402.249 175.092 402.665 174.915 403.062C174.733 403.423 174.612 403.664 174.552 403.784C174.459 403.946 174.319 404.339 174.131 404.963C173.981 405.583 173.85 406.201 173.737 406.817C173.619 407.395 173.574 407.796 173.601 408.018C173.628 408.24 173.676 408.479 173.745 408.734C173.851 408.984 174.056 409.128 174.362 409.166C174.667 409.204 175.113 409 175.697 408.552Z" fill="#4488FF"/>
<path d="M200.591 422.441C199.603 422.975 198.5 423.034 197.284 422.618C196.109 422.235 195.044 421.519 194.088 420.469C193.913 420.265 193.662 419.901 193.334 419.377C193.012 418.889 192.682 418.347 192.346 417.748C192.051 417.182 191.821 416.684 191.656 416.253C191.49 415.822 191.459 415.562 191.561 415.475C191.673 415.16 191.931 414.959 192.334 414.873C192.774 414.781 193.205 414.766 193.626 414.828C194.089 414.922 194.371 415.075 194.472 415.289C194.615 415.535 194.78 415.815 194.969 416.131C195.195 416.442 195.417 416.715 195.634 416.952C195.888 417.185 196.098 417.366 196.264 417.496C196.846 417.952 197.35 418.229 197.776 418.327C198.239 418.421 198.589 418.36 198.825 418.143C199.397 417.584 199.806 416.932 200.054 416.188C200.343 415.475 200.648 414.272 200.967 412.578C201.208 411.157 201.423 409.834 201.611 408.607C201.8 407.381 202.01 406.321 202.239 405.428C202.296 404.97 202.381 404.583 202.493 404.269C202.637 403.912 202.775 403.651 202.905 403.485L203.238 403.444C202.486 404.063 201.85 404.704 201.329 405.37C200.841 405.993 200.14 406.568 199.227 407.093C199.036 407.379 198.5 407.614 197.62 407.796C196.772 407.938 195.925 407.928 195.078 407.768C194.523 407.535 194.081 407.307 193.753 407.083C193.425 406.86 193.148 406.593 192.922 406.282C192.691 405.934 192.431 405.496 192.141 404.967C191.814 404.443 191.666 403.539 191.698 402.257C191.729 400.974 191.909 399.673 192.237 398.355C192.569 397.374 193.095 396.294 193.817 395.116C194.538 393.937 195.328 392.863 196.188 391.893C197.043 390.886 197.846 390.224 198.597 389.907C198.876 389.722 199.302 389.52 199.877 389.299C200.484 389.037 201.133 388.958 201.823 389.062C202.462 389.059 202.962 389.149 203.322 389.33C203.678 389.475 204.265 389.817 205.083 390.357C205.624 390.78 206.213 391.291 206.85 391.89C207.524 392.485 207.986 393.03 208.234 393.526C208.562 394.051 208.706 394.616 208.667 395.223C208.628 395.829 208.453 396.396 208.141 396.923C207.866 397.445 207.573 397.97 207.261 398.497C206.949 399.024 206.752 399.725 206.671 400.6C206.621 401.734 206.442 403.035 206.132 404.502C205.817 405.932 205.584 407.258 205.432 408.48L204.963 412.035C204.421 415.298 203.719 417.715 202.858 419.287C202.038 420.891 201.282 421.942 200.591 422.441ZM196.867 403.939C197.604 403.812 198.241 403.64 198.779 403.424C199.349 403.166 199.862 402.747 200.318 402.164C200.81 401.578 201.313 400.764 201.825 399.724C202.347 398.758 202.688 397.851 202.848 397.004C203.008 396.157 202.994 395.275 202.807 394.358C202.698 393.769 202.502 393.398 202.22 393.245C201.975 393.086 201.616 393.074 201.143 393.207C200.453 393.404 199.806 393.802 199.202 394.402C198.598 395.003 197.984 395.83 197.361 396.884C196.895 397.693 196.541 398.638 196.296 399.721C196.062 400.878 195.991 401.846 196.086 402.624C196.218 403.398 196.479 403.836 196.867 403.939Z" fill="#4488FF"/>
<path d="M214.414 407.497C214.265 407.515 213.976 407.456 213.546 407.321C213.153 407.181 212.956 407.111 212.956 407.111C212.938 406.962 212.86 406.784 212.721 406.575C212.62 406.362 212.561 406.181 212.543 406.033C212.265 405.916 212.018 405.74 211.801 405.503C211.579 405.229 211.518 404.879 211.616 404.453C211.789 404.019 212.011 403.371 212.282 402.51C212.586 401.608 212.899 400.63 213.222 399.575C213.54 398.483 213.823 397.414 214.072 396.369C214.357 395.318 214.587 394.425 214.76 393.69C214.971 392.949 215.086 392.503 215.105 392.35C215.087 392.202 215.097 391.975 215.135 391.669C215.168 391.327 215.338 391.024 215.644 390.761C216.011 390.378 216.435 390.307 216.916 390.549C217.43 390.75 217.891 391.145 218.302 391.734C218.712 392.324 218.967 393.026 219.066 393.841C219.098 394.101 218.994 394.79 218.755 395.91C218.511 396.993 218.162 398.296 217.708 399.818C217.291 401.335 216.803 402.881 216.242 404.453C215.818 405.596 215.5 406.387 215.291 406.826C215.114 407.224 214.821 407.447 214.414 407.497ZM219.606 385.313C219.161 385.368 218.62 385.246 217.982 384.947C217.376 384.607 216.815 384.168 216.298 383.629C215.781 383.091 215.482 382.488 215.4 381.821C215.378 381.635 215.487 381.302 215.73 380.822C215.972 380.341 216.198 379.881 216.408 379.441C216.65 378.96 216.766 378.683 216.757 378.609C217.054 378.573 217.373 378.571 217.716 378.605C218.058 378.638 218.368 378.713 218.646 378.83C219.167 379.707 219.78 380.422 220.487 380.975C221.231 381.523 221.644 382.131 221.725 382.798C221.825 383.614 221.728 384.208 221.435 384.582C221.179 384.952 220.57 385.196 219.606 385.313Z" fill="#4488FF"/>
<path d="M224.98 406.547C224.583 406.37 224.178 406.137 223.767 405.849C223.351 405.523 223.118 405.157 223.069 404.749C223.001 404.193 222.996 403.536 223.054 402.776C223.107 401.98 223.172 401.276 223.248 400.665C223.24 399.989 223.252 399.311 223.281 398.63C223.344 397.908 223.524 397.228 223.822 396.59C224.058 395.132 224.315 393.69 224.592 392.265C224.865 390.802 225.078 389.31 225.231 387.786C225.545 386.357 225.825 385.1 226.069 384.017C226.345 382.893 226.681 381.479 227.075 379.776C227.295 378.809 227.453 377.793 227.549 376.728C227.678 375.622 227.949 374.611 228.364 373.696C228.546 373.335 228.679 373.037 228.763 372.801C228.879 372.523 228.998 372.264 229.119 372.024C229.138 371.871 229.291 371.74 229.579 371.629C229.899 371.477 230.228 371.4 230.566 371.396C230.899 371.355 231.151 371.419 231.322 371.586C231.429 371.535 231.612 371.645 231.87 371.914C232.166 372.179 232.429 372.485 232.659 372.833C232.922 373.14 233.049 373.406 233.039 373.633C233.057 373.781 233.045 373.99 233.002 374.258C232.997 374.522 232.934 374.774 232.812 375.015C232.682 375.181 232.561 375.421 232.449 375.736C232.37 376.009 232.229 376.402 232.029 376.915C231.939 377.415 231.871 377.931 231.823 378.464C231.77 378.959 231.676 379.422 231.541 379.852C231.447 380.315 231.313 380.764 231.141 381.199C231.005 381.629 230.916 381.978 230.874 382.247C230.718 383.131 230.505 384.003 230.234 384.863C230 385.719 229.809 386.626 229.663 387.584C229.512 388.505 229.366 389.464 229.224 390.459C229.077 391.417 228.815 392.351 228.437 393.263C228.228 393.702 228.106 394.243 228.071 394.887C228.037 395.53 228.003 396.174 227.968 396.817C227.827 397.512 227.7 398.167 227.587 398.782C227.507 399.356 227.476 399.717 227.494 399.865C227.371 400.708 227.304 401.543 227.292 402.372C227.313 403.16 227.211 403.868 226.987 404.497C226.995 404.872 226.929 405.256 226.789 405.649C226.649 406.042 226.421 406.333 226.106 406.522C225.827 406.707 225.452 406.715 224.98 406.547Z" fill="#4488FF"/>
<path d="M243.861 404.639C242.938 405.391 241.89 405.895 240.717 406.151C239.582 406.402 238.471 406.387 237.383 406.106C236.291 405.788 235.376 405.222 234.638 404.41C234.084 403.876 233.595 403.108 233.172 402.106C232.782 401.063 232.571 399.641 232.539 397.84C232.53 396.224 232.833 394.55 233.45 392.82C234.099 391.049 234.939 389.461 235.972 388.056C237.036 386.61 238.206 385.565 239.482 384.92C240.011 384.63 240.514 384.437 240.991 384.341C241.463 384.208 242.131 384.127 242.992 384.097C243.858 384.104 244.605 384.22 245.234 384.444C245.859 384.631 246.342 384.892 246.684 385.226C247.312 385.752 247.753 386.281 248.006 386.814C248.254 387.31 248.41 387.818 248.474 388.337C248.419 389.434 248.027 390.685 247.295 392.091C246.564 393.496 245.463 394.646 243.993 395.54C243.32 395.885 242.542 396.131 241.657 396.276C240.772 396.422 239.716 396.4 238.489 396.211C237.647 396.088 237.119 396.228 236.905 396.63C236.69 397.032 236.639 397.847 236.751 399.075C236.86 399.964 237.078 400.671 237.405 401.195C237.769 401.715 238.294 402.008 238.979 402.075C239.812 402.124 240.412 402.107 240.778 402.025C241.177 401.901 241.636 401.657 242.156 401.293C242.532 400.984 242.822 400.741 243.026 400.566C243.263 400.349 243.463 400.137 243.625 399.929C243.825 399.716 244.043 399.502 244.28 399.285C244.48 399.072 244.649 398.92 244.789 398.828C244.965 398.731 245.146 398.672 245.331 398.649C245.669 398.645 246.007 398.792 246.344 399.09C246.681 399.387 246.921 399.659 247.064 399.904C247.235 400.072 247.185 400.435 246.915 400.994C246.681 401.549 246.286 402.162 245.728 402.832C245.203 403.46 244.581 404.062 243.861 404.639ZM241.876 392.526C242.192 392.337 242.568 392.028 243.004 391.599C243.436 391.132 243.81 390.654 244.127 390.164C244.443 389.674 244.583 389.281 244.547 388.985C244.493 388.54 244.188 388.201 243.633 387.968C243.074 387.698 242.363 387.728 241.501 388.059C241.176 388.174 240.814 388.443 240.415 388.868C240.015 389.293 239.622 389.773 239.236 390.309C238.883 390.804 238.583 391.273 238.336 391.717C238.085 392.123 237.952 392.422 237.938 392.612C238.108 392.779 238.423 392.891 238.881 392.948C239.372 392.963 239.895 392.937 240.451 392.869C241.044 392.797 241.519 392.682 241.876 392.526Z" fill="#4488FF"/>
<defs>
<clipPath id="clip0">
<rect width="300" height="300" fill="white" transform="translate(0 0.224609)"/>
</clipPath>
</defs>
</svg>
