<svg xmlns="http://www.w3.org/2000/svg" xmlns:xlink="http://www.w3.org/1999/xlink" width="2920" height="918" viewBox="0 0 2920 918">
  <defs>
    <filter id="Path_1" x="-30.221" y="149.737" width="1080.87" height="1082.648" filterUnits="userSpaceOnUse">
      <feOffset dx="25" dy="25" input="SourceAlpha"/>
      <feGaussianBlur stdDeviation="49.5" result="blur"/>
      <feFlood flood-opacity="0.655"/>
      <feComposite operator="in" in2="blur"/>
      <feComposite in="SourceGraphic"/>
    </filter>
    <filter id="Rectangle_2" x="1291.502" y="149.599" width="539.626" height="539.651" filterUnits="userSpaceOnUse">
      <feOffset dx="25" dy="25" input="SourceAlpha"/>
      <feGaussianBlur stdDeviation="49.5" result="blur-2"/>
      <feFlood flood-opacity="0.655"/>
      <feComposite operator="in" in2="blur-2"/>
      <feComposite in="SourceGraphic"/>
    </filter>
    <filter id="Rectangle_4" x="1754.351" y="-463.167" width="836.547" height="834.904" filterUnits="userSpaceOnUse">
      <feOffset dx="-50" dy="-50" input="SourceAlpha"/>
      <feGaussianBlur stdDeviation="49.5" result="blur-3"/>
      <feFlood flood-color="#fff" flood-opacity="0.059"/>
      <feComposite operator="in" in2="blur-3"/>
      <feComposite in="SourceGraphic"/>
    </filter>
    <filter id="Path_23" x="1898.568" y="74.599" width="692.33" height="690.671" filterUnits="userSpaceOnUse">
      <feOffset dx="-50" dy="-50" input="SourceAlpha"/>
      <feGaussianBlur stdDeviation="49.5" result="blur-4"/>
      <feFlood flood-color="#fff" flood-opacity="0.059"/>
      <feComposite operator="in" in2="blur-4"/>
      <feComposite in="SourceGraphic"/>
    </filter>
    <filter id="Path_4" x="1973.568" y="149.599" width="692.33" height="690.671" filterUnits="userSpaceOnUse">
      <feOffset dx="25" dy="25" input="SourceAlpha"/>
      <feGaussianBlur stdDeviation="49.5" result="blur-5"/>
      <feFlood flood-opacity="0.655"/>
      <feComposite operator="in" in2="blur-5"/>
      <feComposite in="SourceGraphic"/>
    </filter>
    <filter id="Path_21" x="2138.148" y="455.033" width="795.83" height="799.272" filterUnits="userSpaceOnUse">
      <feOffset dx="25" dy="25" input="SourceAlpha"/>
      <feGaussianBlur stdDeviation="49.5" result="blur-6"/>
      <feFlood flood-opacity="0.655"/>
      <feComposite operator="in" in2="blur-6"/>
      <feComposite in="SourceGraphic"/>
    </filter>
    <filter id="Path_6" x="2063.148" y="380.033" width="795.83" height="799.272" filterUnits="userSpaceOnUse">
      <feOffset dx="-50" dy="-50" input="SourceAlpha"/>
      <feGaussianBlur stdDeviation="49.5" result="blur-7"/>
      <feFlood flood-color="#fff" flood-opacity="0.059"/>
      <feComposite operator="in" in2="blur-7"/>
      <feComposite in="SourceGraphic"/>
    </filter>
    <filter id="Path_7" x="1829.348" y="149.736" width="566.77" height="566.801" filterUnits="userSpaceOnUse">
      <feOffset dx="25" dy="25" input="SourceAlpha"/>
      <feGaussianBlur stdDeviation="49.5" result="blur-8"/>
      <feFlood flood-opacity="0.655"/>
      <feComposite operator="in" in2="blur-8"/>
      <feComposite in="SourceGraphic"/>
    </filter>
    <filter id="Path_24" x="1754.348" y="74.736" width="566.77" height="566.801" filterUnits="userSpaceOnUse">
      <feOffset dx="-50" dy="-50" input="SourceAlpha"/>
      <feGaussianBlur stdDeviation="49.5" result="blur-9"/>
      <feFlood flood-color="#fff" flood-opacity="0.059"/>
      <feComposite operator="in" in2="blur-9"/>
      <feComposite in="SourceGraphic"/>
    </filter>
    <filter id="Path_9" x="1291.818" y="419.248" width="780.7" height="780.757" filterUnits="userSpaceOnUse">
      <feOffset dx="25" dy="25" input="SourceAlpha"/>
      <feGaussianBlur stdDeviation="49.5" result="blur-10"/>
      <feFlood flood-opacity="0.655"/>
      <feComposite operator="in" in2="blur-10"/>
      <feComposite in="SourceGraphic"/>
    </filter>
    <filter id="Path_11" x="916.698" y="419.248" width="672.12" height="672.157" filterUnits="userSpaceOnUse">
      <feOffset dx="25" dy="25" input="SourceAlpha"/>
      <feGaussianBlur stdDeviation="49.5" result="blur-11"/>
      <feFlood flood-opacity="0.655"/>
      <feComposite operator="in" in2="blur-11"/>
      <feComposite in="SourceGraphic"/>
    </filter>
    <filter id="Path_13" x="511.025" y="-388.305" width="1077.473" height="1077.555" filterUnits="userSpaceOnUse">
      <feOffset dx="25" dy="25" input="SourceAlpha"/>
      <feGaussianBlur stdDeviation="49.5" result="blur-12"/>
      <feFlood flood-opacity="0.655"/>
      <feComposite operator="in" in2="blur-12"/>
      <feComposite in="SourceGraphic"/>
    </filter>
    <filter id="Path_15" x="216.158" y="-123.595" width="570" height="570" filterUnits="userSpaceOnUse">
      <feOffset dx="25" dy="25" input="SourceAlpha"/>
      <feGaussianBlur stdDeviation="49.5" result="blur-13"/>
      <feFlood flood-opacity="0.655"/>
      <feComposite operator="in" in2="blur-13"/>
      <feComposite in="SourceGraphic"/>
    </filter>
    <filter id="Path_17" x="1426.398" y="-388.305" width="1104.47" height="835.369" filterUnits="userSpaceOnUse">
      <feOffset dx="25" dy="25" input="SourceAlpha"/>
      <feGaussianBlur stdDeviation="49.5" result="blur-14"/>
      <feFlood flood-opacity="0.655"/>
      <feComposite operator="in" in2="blur-14"/>
      <feComposite in="SourceGraphic"/>
    </filter>
    <filter id="Ellipse_2" x="1695.311" y="-252.418" width="566.774" height="561.71" filterUnits="userSpaceOnUse">
      <feOffset dx="25" dy="25" input="SourceAlpha"/>
      <feGaussianBlur stdDeviation="49.5" result="blur-15"/>
      <feFlood flood-opacity="0.655"/>
      <feComposite operator="in" in2="blur-15"/>
      <feComposite in="SourceGraphic"/>
    </filter>
    <filter id="Ellipse_3" x="1620.311" y="-327.418" width="566.774" height="561.71" filterUnits="userSpaceOnUse">
      <feOffset dx="-50" dy="-50" input="SourceAlpha"/>
      <feGaussianBlur stdDeviation="49.5" result="blur-16"/>
      <feFlood flood-color="#fff" flood-opacity="0.059"/>
      <feComposite operator="in" in2="blur-16"/>
      <feComposite in="SourceGraphic"/>
    </filter>
    <filter id="Path_20" x="2368.898" y="-388.167" width="834.85" height="834.904" filterUnits="userSpaceOnUse">
      <feOffset dx="25" dy="25" input="SourceAlpha"/>
      <feGaussianBlur stdDeviation="49.5" result="blur-17"/>
      <feFlood flood-opacity="0.655"/>
      <feComposite operator="in" in2="blur-17"/>
      <feComposite in="SourceGraphic"/>
    </filter>
    <filter id="Path_22" x="2293.898" y="-463.167" width="834.85" height="834.904" filterUnits="userSpaceOnUse">
      <feOffset dx="-50" dy="-50" input="SourceAlpha"/>
      <feGaussianBlur stdDeviation="49.5" result="blur-18"/>
      <feFlood flood-color="#fff" flood-opacity="0.059"/>
      <feComposite operator="in" in2="blur-18"/>
      <feComposite in="SourceGraphic"/>
    </filter>
    <filter id="Rectangle_7" x="1216.502" y="74.599" width="539.626" height="539.651" filterUnits="userSpaceOnUse">
      <feOffset dx="-50" dy="-50" input="SourceAlpha"/>
      <feGaussianBlur stdDeviation="49.5" result="blur-19"/>
      <feFlood flood-color="#fff" flood-opacity="0.059"/>
      <feComposite operator="in" in2="blur-19"/>
      <feComposite in="SourceGraphic"/>
    </filter>
    <filter id="Path_25" x="436.025" y="-463.305" width="1077.473" height="1077.555" filterUnits="userSpaceOnUse">
      <feOffset dx="-50" dy="-50" input="SourceAlpha"/>
      <feGaussianBlur stdDeviation="49.5" result="blur-20"/>
      <feFlood flood-color="#fff" flood-opacity="0.059"/>
      <feComposite operator="in" in2="blur-20"/>
      <feComposite in="SourceGraphic"/>
    </filter>
    <filter id="Path_26" x="1216.818" y="344.248" width="780.7" height="780.757" filterUnits="userSpaceOnUse">
      <feOffset dx="-50" dy="-50" input="SourceAlpha"/>
      <feGaussianBlur stdDeviation="49.5" result="blur-21"/>
      <feFlood flood-color="#fff" flood-opacity="0.059"/>
      <feComposite operator="in" in2="blur-21"/>
      <feComposite in="SourceGraphic"/>
    </filter>
    <filter id="Path_27" x="841.698" y="344.248" width="672.12" height="672.157" filterUnits="userSpaceOnUse">
      <feOffset dx="-50" dy="-50" input="SourceAlpha"/>
      <feGaussianBlur stdDeviation="49.5" result="blur-22"/>
      <feFlood flood-color="#fff" flood-opacity="0.059"/>
      <feComposite operator="in" in2="blur-22"/>
      <feComposite in="SourceGraphic"/>
    </filter>
    <filter id="Path_28" x="-105.221" y="74.737" width="1080.87" height="1082.648" filterUnits="userSpaceOnUse">
      <feOffset dx="-50" dy="-50" input="SourceAlpha"/>
      <feGaussianBlur stdDeviation="49.5" result="blur-23"/>
      <feFlood flood-color="#fff" flood-opacity="0.059"/>
      <feComposite operator="in" in2="blur-23"/>
      <feComposite in="SourceGraphic"/>
    </filter>
    <filter id="Path_29" x="141.158" y="-198.595" width="570" height="570" filterUnits="userSpaceOnUse">
      <feOffset dx="-50" dy="-50" input="SourceAlpha"/>
      <feGaussianBlur stdDeviation="49.5" result="blur-24"/>
      <feFlood flood-color="#fff" flood-opacity="0.059"/>
      <feComposite operator="in" in2="blur-24"/>
      <feComposite in="SourceGraphic"/>
    </filter>
    <filter id="Rectangle_6" x="-323.389" y="-388.167" width="836.547" height="834.904" filterUnits="userSpaceOnUse">
      <feOffset dx="25" dy="25" input="SourceAlpha"/>
      <feGaussianBlur stdDeviation="49.5" result="blur-25"/>
      <feFlood flood-opacity="0.655"/>
      <feComposite operator="in" in2="blur-25"/>
      <feComposite in="SourceGraphic"/>
    </filter>
    <filter id="Rectangle_8" x="-398.389" y="-463.167" width="836.547" height="834.904" filterUnits="userSpaceOnUse">
      <feOffset dx="-50" dy="-50" input="SourceAlpha"/>
      <feGaussianBlur stdDeviation="49.5" result="blur-26"/>
      <feFlood flood-color="#fff" flood-opacity="0.059"/>
      <feComposite operator="in" in2="blur-26"/>
      <feComposite in="SourceGraphic"/>
    </filter>
    <clipPath id="clip-Web_1280_1">
      <rect width="2920" height="918"/>
    </clipPath>
  </defs>
  <g id="Web_1280_1" data-name="Web 1280 – 1" clip-path="url(#clip-Web_1280_1)">
    <rect width="2920" height="918" fill="#252525"/>
    <g transform="matrix(1, 0, 0, 1, 0, 0)" filter="url(#Path_1)">
      <path id="Path_1-2" data-name="Path 1" d="M91.621,1058.98h783.87c0-433.937-350.917-785.648-783.87-785.648Z" transform="translate(1.66 -0.1)" fill="#252525"/>
    </g>
    <g transform="matrix(1, 0, 0, 1, 0, 0)" filter="url(#Rectangle_2)">
      <rect id="Rectangle_2-2" data-name="Rectangle 2" width="242.626" height="242.651" transform="translate(1657.63 515.75) rotate(180)" fill="#252525"/>
    </g>
    <g transform="matrix(1, 0, 0, 1, 0, 0)" filter="url(#Rectangle_4)">
      <rect id="Rectangle_4-2" data-name="Rectangle 4" width="539.547" height="537.904" transform="translate(2492.4 273.24) rotate(180)" fill="#252525"/>
    </g>
    <g transform="matrix(1, 0, 0, 1, 0, 0)" filter="url(#Path_23)">
      <path id="Path_23-2" data-name="Path 23" d="M2095.41,666.865V273.194h395.33Z" transform="translate(1.66 -0.1)" fill="#252525"/>
    </g>
    <g transform="matrix(1, 0, 0, 1, 0, 0)" filter="url(#Path_4)">
      <path id="Path_4-2" data-name="Path 4" d="M2095.41,666.865V273.194h395.33Z" transform="translate(1.66 -0.1)" fill="#252525"/>
    </g>
    <g transform="matrix(1, 0, 0, 1, 0, 0)" filter="url(#Path_21)">
      <path id="Path_21-2" data-name="Path 21" d="M2758.82,1080.9H2259.99c0-277.419,223.31-502.272,498.83-502.272Z" transform="translate(1.66 -0.1)" fill="#252525"/>
    </g>
    <g transform="matrix(1, 0, 0, 1, 0, 0)" filter="url(#Path_6)">
      <path id="Path_6-2" data-name="Path 6" d="M2758.82,1080.9H2259.99c0-277.419,223.31-502.272,498.83-502.272Z" transform="translate(1.66 -0.1)" fill="#252525"/>
    </g>
    <g transform="matrix(1, 0, 0, 1, 0, 0)" filter="url(#Path_7)">
      <path id="Path_7-2" data-name="Path 7" d="M1951.19,543.132v-269.8h269.77Z" transform="translate(1.66 -0.1)" fill="#252525"/>
    </g>
    <g transform="matrix(1, 0, 0, 1, 0, 0)" filter="url(#Path_24)">
      <path id="Path_24-2" data-name="Path 24" d="M1951.19,543.132v-269.8h269.77Z" transform="translate(1.66 -0.1)" fill="#252525"/>
    </g>
    <g transform="matrix(1, 0, 0, 1, 0, 0)" filter="url(#Path_9)">
      <path id="Path_9-2" data-name="Path 9" d="M1413.66,542.843V786.307c132.31.847,239.42,107.961,240.26,240.293h243.44C1897.36,759.428,1680.8,542.843,1413.66,542.843Z" transform="translate(1.66 -0.1)" fill="#252525" fill-rule="evenodd"/>
    </g>
    <g transform="matrix(1, 0, 0, 1, 0, 0)" filter="url(#Path_11)">
      <path id="Path_11-2" data-name="Path 11" d="M1038.54,918h188.79c.66-102.624,83.72-185.692,186.33-186.349V542.843C1206.49,542.843,1038.54,710.806,1038.54,918Z" transform="translate(1.66 -0.1)" fill="#252525" fill-rule="evenodd"/>
    </g>
    <g transform="matrix(1, 0, 0, 1, 0, 0)" filter="url(#Path_13)">
      <path id="Path_13-2" data-name="Path 13" d="M1023.11,515.845c-215.544,0-390.243-174.717-390.243-390.278S807.566-264.71,1023.11-264.71s390.23,174.716,390.23,390.277S1238.64,515.845,1023.11,515.845Z" transform="translate(1.66 -0.1)" fill="#252525"/>
    </g>
    <g transform="matrix(1, 0, 0, 1, 0, 0)" filter="url(#Path_15)">
      <path id="Path_15-2" data-name="Path 15" d="M338,0H611c0,150.785-122.215,273-273,273Z" transform="translate(1.66 -0.1)" fill="#252525"/>
    </g>
    <g transform="matrix(1, 0, 0, 1, 0, 0)" filter="url(#Path_17)">
      <path id="Path_17-2" data-name="Path 17" d="M1548.24,4.475c57.83-156.667,216.75-269.185,403.73-269.185S2297.88-152.192,2355.71,4.475c-57.83,156.666-216.75,269.184-403.74,269.184S1606.07,161.141,1548.24,4.475Z" transform="translate(1.66 -0.1)" fill="#252525" fill-rule="evenodd"/>
    </g>
    <g transform="matrix(1, 0, 0, 1, 0, 0)" filter="url(#Ellipse_2)">
      <ellipse id="Ellipse_2-2" data-name="Ellipse 2" cx="134.887" cy="132.355" rx="134.887" ry="132.355" transform="translate(1818.81 -128.92)" fill="#252525"/>
    </g>
    <g transform="matrix(1, 0, 0, 1, 0, 0)" filter="url(#Ellipse_3)">
      <ellipse id="Ellipse_3-2" data-name="Ellipse 3" cx="134.887" cy="132.355" rx="134.887" ry="132.355" transform="translate(1818.81 -128.92)" fill="#252525"/>
    </g>
    <g transform="matrix(1, 0, 0, 1, 0, 0)" filter="url(#Path_20)">
      <path id="Path_20-2" data-name="Path 20" d="M2759.66,273.332c-148.53,0-268.92-120.4-268.92-268.952s120.39-268.952,268.92-268.952S3028.59-144.17,3028.59,4.38,2908.2,273.332,2759.66,273.332Z" transform="translate(1.66 -0.1)" fill="#252525"/>
    </g>
    <g transform="matrix(1, 0, 0, 1, 0, 0)" filter="url(#Path_22)">
      <path id="Path_22-2" data-name="Path 22" d="M2759.66,273.332c-148.53,0-268.92-120.4-268.92-268.952s120.39-268.952,268.92-268.952S3028.59-144.17,3028.59,4.38,2908.2,273.332,2759.66,273.332Z" transform="translate(1.66 -0.1)" fill="#252525"/>
    </g>
    <g transform="matrix(1, 0, 0, 1, 0, 0)" filter="url(#Rectangle_7)">
      <rect id="Rectangle_7-2" data-name="Rectangle 7" width="242.626" height="242.651" transform="translate(1657.63 515.75) rotate(180)" fill="#252525"/>
    </g>
    <g transform="matrix(1, 0, 0, 1, 0, 0)" filter="url(#Path_25)">
      <path id="Path_25-2" data-name="Path 25" d="M1023.11,515.845c-215.544,0-390.243-174.717-390.243-390.278S807.566-264.71,1023.11-264.71s390.23,174.716,390.23,390.277S1238.64,515.845,1023.11,515.845Z" transform="translate(1.66 -0.1)" fill="#252525"/>
    </g>
    <g transform="matrix(1, 0, 0, 1, 0, 0)" filter="url(#Path_26)">
      <path id="Path_26-2" data-name="Path 26" d="M1413.66,542.843V786.307c132.31.847,239.42,107.961,240.26,240.293h243.44C1897.36,759.428,1680.8,542.843,1413.66,542.843Z" transform="translate(1.66 -0.1)" fill="#252525" fill-rule="evenodd"/>
    </g>
    <g transform="matrix(1, 0, 0, 1, 0, 0)" filter="url(#Path_27)">
      <path id="Path_27-2" data-name="Path 27" d="M1038.54,918h188.79c.66-102.624,83.72-185.692,186.33-186.349V542.843C1206.49,542.843,1038.54,710.806,1038.54,918Z" transform="translate(1.66 -0.1)" fill="#252525" fill-rule="evenodd"/>
    </g>
    <g transform="matrix(1, 0, 0, 1, 0, 0)" filter="url(#Path_28)">
      <path id="Path_28-2" data-name="Path 28" d="M91.621,1058.98h783.87c0-433.937-350.917-785.648-783.87-785.648Z" transform="translate(1.66 -0.1)" fill="#252525"/>
    </g>
    <g transform="matrix(1, 0, 0, 1, 0, 0)" filter="url(#Path_29)">
      <path id="Path_29-2" data-name="Path 29" d="M338,0H611c0,150.785-122.215,273-273,273Z" transform="translate(1.66 -0.1)" fill="#252525"/>
    </g>
    <g transform="matrix(1, 0, 0, 1, 0, 0)" filter="url(#Rectangle_6)">
      <rect id="Rectangle_6-2" data-name="Rectangle 6" width="539.547" height="537.904" transform="translate(-199.89 -264.67)" fill="#252525"/>
    </g>
    <g transform="matrix(1, 0, 0, 1, 0, 0)" filter="url(#Rectangle_8)">
      <rect id="Rectangle_8-2" data-name="Rectangle 8" width="539.547" height="537.904" transform="translate(-199.89 -264.67)" fill="#252525"/>
    </g>
  </g>
</svg>
