<svg width="1440" height="1042" viewBox="0 0 1440 1042" fill="none" xmlns="http://www.w3.org/2000/svg">
<g clip-path="url(#clip0_2800_35684)">
<rect width="2920" height="1251" transform="translate(-740)" fill="#F4F5F8"/>
<g filter="url(#filter0_d_2800_35684)">
<path fill-rule="evenodd" clip-rule="evenodd" d="M1309 814.548C1328.64 761.267 1382.61 723 1446.11 723C1509.61 723 1563.58 761.267 1583.22 814.548C1563.58 867.829 1509.61 906.096 1446.11 906.096C1382.61 906.096 1328.64 867.829 1309 814.548Z" fill="#F4F5F8"/>
</g>
<g filter="url(#filter1_d_2800_35684)">
<path fill-rule="evenodd" clip-rule="evenodd" d="M1309 814.118C1328.64 760.837 1382.61 722.57 1446.11 722.57C1509.61 722.57 1563.58 760.837 1583.22 814.118C1563.58 867.399 1509.61 905.666 1446.11 905.666C1382.61 905.666 1328.64 867.399 1309 814.118Z" fill="#F4F5F8"/>
</g>
<g filter="url(#filter2_d_2800_35684)">
<path d="M542 275C465.78 275 404 213.445 404 137.5C404 61.555 465.78 0 542 0C618.22 0 680 61.555 680 137.5C680 213.445 618.22 275 542 275Z" fill="#F4F5F8"/>
</g>
<g filter="url(#filter3_d_2800_35684)">
<path d="M542 275C465.78 275 404 213.445 404 137.5C404 61.555 465.78 0 542 0C618.22 0 680 61.555 680 137.5C680 213.445 618.22 275 542 275Z" fill="#F4F5F8"/>
</g>
<g filter="url(#filter4_d_2800_35684)">
<path d="M745 118H1272V648L745 118Z" fill="#F4F5F8"/>
</g>
<g filter="url(#filter5_d_2800_35684)">
<path d="M745 118H1272V648L745 118Z" fill="#F4F5F8"/>
</g>
<g filter="url(#filter6_d_2800_35684)">
<path d="M1371 648V343C1541.12 343 1679 479.54 1679 648H1371Z" fill="#F4F5F8"/>
</g>
<g filter="url(#filter7_d_2800_35684)">
<path d="M1371 648V343C1541.12 343 1679 479.54 1679 648H1371Z" fill="#F4F5F8"/>
</g>
<g filter="url(#filter8_d_2800_35684)">
<path d="M1205 415.8C1205 377.863 1236.07 347 1274.26 347H1525C1519.35 398.111 1475.63 438 1422.71 438H1205.12V415.8H1205Z" fill="#F4F5F8"/>
</g>
<g filter="url(#filter9_d_2800_35684)">
<path d="M1205 415.8C1205 377.863 1236.07 347 1274.26 347H1525C1519.35 398.111 1475.63 438 1422.71 438H1205.12V415.8H1205Z" fill="#F4F5F8"/>
</g>
<g filter="url(#filter10_d_2800_35684)">
<path d="M1445.82 859.619C1470.95 859.619 1491.32 839.248 1491.32 814.119C1491.32 788.99 1470.95 768.619 1445.82 768.619C1420.69 768.619 1400.32 788.99 1400.32 814.119C1400.32 839.248 1420.69 859.619 1445.82 859.619Z" fill="#F4F5F8"/>
</g>
<g filter="url(#filter11_d_2800_35684)">
<path d="M1445.82 859.619C1470.95 859.619 1491.32 839.248 1491.32 814.119C1491.32 788.99 1470.95 768.619 1445.82 768.619C1420.69 768.619 1400.32 788.99 1400.32 814.119C1400.32 839.248 1420.69 859.619 1445.82 859.619Z" fill="#F4F5F8"/>
</g>
<g filter="url(#filter12_d_2800_35684)">
<path d="M1272 650V980H942L1272 650Z" fill="#F4F5F8"/>
</g>
<g filter="url(#filter13_d_2800_35684)">
<path d="M1272 650V980H942L1272 650Z" fill="#F4F5F8"/>
</g>
<g filter="url(#filter14_d_2800_35684)">
<path fill-rule="evenodd" clip-rule="evenodd" d="M1272 980H942V1145H1272V980Z" fill="#F4F5F8"/>
</g>
<g opacity="0.6" filter="url(#filter15_ii_2800_35684)">
<path fill-rule="evenodd" clip-rule="evenodd" d="M1025.04 980C1025.04 1001.74 1033.68 1022.58 1049.05 1037.95C1064.42 1053.32 1085.26 1061.96 1107 1061.96C1128.74 1061.96 1149.58 1053.32 1164.95 1037.95C1180.33 1022.58 1188.96 1001.74 1188.96 980H1272C1272 1023.76 1254.62 1065.73 1223.67 1096.67C1192.73 1127.62 1150.76 1145 1107 1145C1063.24 1145 1021.27 1127.62 990.327 1096.67C959.384 1065.73 942 1023.76 942 980H1025.04Z" fill="#F4F5F8"/>
</g>
<g filter="url(#filter16_d_2800_35684)">
<path d="M1077.5 747C1063.95 747 1050.71 742.983 1039.44 735.456C1028.18 727.929 1019.4 717.231 1014.21 704.714C1009.03 692.197 1007.67 678.424 1010.32 665.136C1012.96 651.849 1019.48 639.643 1029.06 630.063C1038.64 620.483 1050.85 613.959 1064.14 611.316C1077.42 608.673 1091.2 610.03 1103.71 615.214C1116.23 620.399 1126.93 629.179 1134.46 640.443C1141.98 651.708 1146 664.952 1146 678.5C1146 696.667 1138.78 714.091 1125.94 726.937C1113.09 739.783 1095.67 747 1077.5 747Z" fill="#F4F5F8"/>
</g>
<g filter="url(#filter17_d_2800_35684)">
<path d="M1077.5 747C1063.95 747 1050.71 742.983 1039.44 735.456C1028.18 727.929 1019.4 717.231 1014.21 704.714C1009.03 692.197 1007.67 678.424 1010.32 665.136C1012.96 651.849 1019.48 639.643 1029.06 630.063C1038.64 620.483 1050.85 613.959 1064.14 611.316C1077.42 608.673 1091.2 610.03 1103.71 615.214C1116.23 620.399 1126.93 629.179 1134.46 640.443C1141.98 651.708 1146 664.952 1146 678.5C1146 696.667 1138.78 714.091 1125.94 726.937C1113.09 739.783 1095.67 747 1077.5 747Z" fill="#F4F5F8"/>
</g>
<g filter="url(#filter18_d_2800_35684)">
<path d="M279.5 873C268.325 873 257.402 869.686 248.11 863.478C238.819 857.27 231.577 848.446 227.301 838.122C223.024 827.798 221.906 816.437 224.086 805.477C226.266 794.517 231.647 784.45 239.549 776.548C247.45 768.647 257.518 763.266 268.477 761.086C279.437 758.906 290.798 760.024 301.122 764.301C311.446 768.577 320.27 775.819 326.478 785.11C332.686 794.402 336 805.325 336 816.5C336 831.485 330.047 845.856 319.451 856.451C308.856 867.047 294.485 873 279.5 873Z" fill="#F4F5F8"/>
</g>
<g filter="url(#filter19_d_2800_35684)">
<path d="M279.5 873C268.325 873 257.402 869.686 248.11 863.478C238.819 857.27 231.577 848.446 227.301 838.122C223.024 827.798 221.906 816.437 224.086 805.477C226.266 794.517 231.647 784.45 239.549 776.548C247.45 768.647 257.518 763.266 268.477 761.086C279.437 758.906 290.798 760.024 301.122 764.301C311.446 768.577 320.27 775.819 326.478 785.11C332.686 794.402 336 805.325 336 816.5C336 831.485 330.047 845.856 319.451 856.451C308.856 867.047 294.485 873 279.5 873Z" fill="#F4F5F8"/>
</g>
<g filter="url(#filter20_d_2800_35684)">
<path d="M1446.5 175C1435.33 175 1424.4 171.686 1415.11 165.478C1405.82 159.27 1398.58 150.446 1394.3 140.122C1390.02 129.798 1388.91 118.437 1391.09 107.477C1393.27 96.5174 1398.65 86.4501 1406.55 78.5485C1414.45 70.6468 1424.52 65.2657 1435.48 63.0857C1446.44 60.9056 1457.8 62.0245 1468.12 66.3008C1478.45 70.5772 1487.27 77.8189 1493.48 87.1103C1499.69 96.4016 1503 107.325 1503 118.5C1503 133.485 1497.05 147.856 1486.45 158.451C1475.86 169.047 1461.48 175 1446.5 175Z" fill="#F4F5F8"/>
</g>
<g filter="url(#filter21_d_2800_35684)">
<path d="M1446.5 175C1435.33 175 1424.4 171.686 1415.11 165.478C1405.82 159.27 1398.58 150.446 1394.3 140.122C1390.02 129.798 1388.91 118.437 1391.09 107.477C1393.27 96.5174 1398.65 86.4501 1406.55 78.5485C1414.45 70.6468 1424.52 65.2657 1435.48 63.0857C1446.44 60.9056 1457.8 62.0245 1468.12 66.3008C1478.45 70.5772 1487.27 77.8189 1493.48 87.1103C1499.69 96.4016 1503 107.325 1503 118.5C1503 133.485 1497.05 147.856 1486.45 158.451C1475.86 169.047 1461.48 175 1446.5 175Z" fill="#F4F5F8"/>
</g>
<g filter="url(#filter22_d_2800_35684)">
<path d="M777 817H444V1164H777V817Z" fill="#F4F5F8"/>
</g>
<g filter="url(#filter23_d_2800_35684)">
<path d="M777 817H444V1164H777V817Z" fill="#F4F5F8"/>
</g>
<g filter="url(#filter24_d_2800_35684)">
<path d="M404 291V402C342.14 402 292 352.308 292 291H404Z" fill="#F4F5F8"/>
</g>
<g filter="url(#filter25_d_2800_35684)">
<path d="M404 291V402C342.14 402 292 352.308 292 291H404Z" fill="#F4F5F8"/>
</g>
<g filter="url(#filter26_d_2800_35684)">
<path d="M693 320C555.68 320 444 429.987 444 565.226V817C523.58 808.4 585.69 741.8 585.69 661.185V565.226C585.69 506.866 633.74 462 693 462C752.26 462 800.31 507.053 800.31 565.226V661C800.31 741.807 862.23 808.211 942 816.816V565.226C942 429.987 830.32 320 693 320Z" fill="#F4F5F8"/>
</g>
<g filter="url(#filter27_d_2800_35684)">
<path d="M693 320C555.68 320 444 429.987 444 565.226V817C523.58 808.4 585.69 741.8 585.69 661.185V565.226C585.69 506.866 633.74 462 693 462C752.26 462 800.31 507.053 800.31 565.226V661C800.31 741.807 862.23 808.211 942 816.816V565.226C942 429.987 830.32 320 693 320Z" fill="#F4F5F8"/>
</g>
<g filter="url(#filter28_d_2800_35684)">
<path d="M942 817V980C850.87 980 777 907.029 777 817H942Z" fill="#F4F5F8"/>
</g>
<g filter="url(#filter29_d_2800_35684)">
<path d="M942 817V980C850.87 980 777 907.029 777 817H942Z" fill="#F4F5F8"/>
</g>
</g>
<defs>
<filter id="filter0_d_2800_35684" x="1180" y="594" width="472.221" height="381.096" filterUnits="userSpaceOnUse" color-interpolation-filters="sRGB">
<feFlood flood-opacity="0" result="BackgroundImageFix"/>
<feColorMatrix in="SourceAlpha" type="matrix" values="0 0 0 0 0 0 0 0 0 0 0 0 0 0 0 0 0 0 127 0" result="hardAlpha"/>
<feOffset dx="-30" dy="-30"/>
<feGaussianBlur stdDeviation="49.5"/>
<feColorMatrix type="matrix" values="0 0 0 0 1 0 0 0 0 1 0 0 0 0 1 0 0 0 1 0"/>
<feBlend mode="normal" in2="BackgroundImageFix" result="effect1_dropShadow_2800_35684"/>
<feBlend mode="normal" in="SourceGraphic" in2="effect1_dropShadow_2800_35684" result="shape"/>
</filter>
<filter id="filter1_d_2800_35684" x="1264" y="677.57" width="414.221" height="323.096" filterUnits="userSpaceOnUse" color-interpolation-filters="sRGB">
<feFlood flood-opacity="0" result="BackgroundImageFix"/>
<feColorMatrix in="SourceAlpha" type="matrix" values="0 0 0 0 0 0 0 0 0 0 0 0 0 0 0 0 0 0 127 0" result="hardAlpha"/>
<feOffset dx="25" dy="25"/>
<feGaussianBlur stdDeviation="35"/>
<feColorMatrix type="matrix" values="0 0 0 0 0 0 0 0 0 0 0 0 0 0 0 0 0 0 0.078 0"/>
<feBlend mode="normal" in2="BackgroundImageFix" result="effect1_dropShadow_2800_35684"/>
<feBlend mode="normal" in="SourceGraphic" in2="effect1_dropShadow_2800_35684" result="shape"/>
</filter>
<filter id="filter2_d_2800_35684" x="275" y="-129" width="474" height="473" filterUnits="userSpaceOnUse" color-interpolation-filters="sRGB">
<feFlood flood-opacity="0" result="BackgroundImageFix"/>
<feColorMatrix in="SourceAlpha" type="matrix" values="0 0 0 0 0 0 0 0 0 0 0 0 0 0 0 0 0 0 127 0" result="hardAlpha"/>
<feOffset dx="-30" dy="-30"/>
<feGaussianBlur stdDeviation="49.5"/>
<feColorMatrix type="matrix" values="0 0 0 0 1 0 0 0 0 1 0 0 0 0 1 0 0 0 1 0"/>
<feBlend mode="normal" in2="BackgroundImageFix" result="effect1_dropShadow_2800_35684"/>
<feBlend mode="normal" in="SourceGraphic" in2="effect1_dropShadow_2800_35684" result="shape"/>
</filter>
<filter id="filter3_d_2800_35684" x="359" y="-45" width="416" height="415" filterUnits="userSpaceOnUse" color-interpolation-filters="sRGB">
<feFlood flood-opacity="0" result="BackgroundImageFix"/>
<feColorMatrix in="SourceAlpha" type="matrix" values="0 0 0 0 0 0 0 0 0 0 0 0 0 0 0 0 0 0 127 0" result="hardAlpha"/>
<feOffset dx="25" dy="25"/>
<feGaussianBlur stdDeviation="35"/>
<feColorMatrix type="matrix" values="0 0 0 0 0 0 0 0 0 0 0 0 0 0 0 0 0 0 0.078 0"/>
<feBlend mode="normal" in2="BackgroundImageFix" result="effect1_dropShadow_2800_35684"/>
<feBlend mode="normal" in="SourceGraphic" in2="effect1_dropShadow_2800_35684" result="shape"/>
</filter>
<filter id="filter4_d_2800_35684" x="616" y="-11" width="725" height="728" filterUnits="userSpaceOnUse" color-interpolation-filters="sRGB">
<feFlood flood-opacity="0" result="BackgroundImageFix"/>
<feColorMatrix in="SourceAlpha" type="matrix" values="0 0 0 0 0 0 0 0 0 0 0 0 0 0 0 0 0 0 127 0" result="hardAlpha"/>
<feOffset dx="-30" dy="-30"/>
<feGaussianBlur stdDeviation="49.5"/>
<feColorMatrix type="matrix" values="0 0 0 0 1 0 0 0 0 1 0 0 0 0 1 0 0 0 1 0"/>
<feBlend mode="normal" in2="BackgroundImageFix" result="effect1_dropShadow_2800_35684"/>
<feBlend mode="normal" in="SourceGraphic" in2="effect1_dropShadow_2800_35684" result="shape"/>
</filter>
<filter id="filter5_d_2800_35684" x="700" y="73" width="667" height="670" filterUnits="userSpaceOnUse" color-interpolation-filters="sRGB">
<feFlood flood-opacity="0" result="BackgroundImageFix"/>
<feColorMatrix in="SourceAlpha" type="matrix" values="0 0 0 0 0 0 0 0 0 0 0 0 0 0 0 0 0 0 127 0" result="hardAlpha"/>
<feOffset dx="25" dy="25"/>
<feGaussianBlur stdDeviation="35"/>
<feColorMatrix type="matrix" values="0 0 0 0 0 0 0 0 0 0 0 0 0 0 0 0 0 0 0.078 0"/>
<feBlend mode="normal" in2="BackgroundImageFix" result="effect1_dropShadow_2800_35684"/>
<feBlend mode="normal" in="SourceGraphic" in2="effect1_dropShadow_2800_35684" result="shape"/>
</filter>
<filter id="filter6_d_2800_35684" x="1242" y="214" width="506" height="503" filterUnits="userSpaceOnUse" color-interpolation-filters="sRGB">
<feFlood flood-opacity="0" result="BackgroundImageFix"/>
<feColorMatrix in="SourceAlpha" type="matrix" values="0 0 0 0 0 0 0 0 0 0 0 0 0 0 0 0 0 0 127 0" result="hardAlpha"/>
<feOffset dx="-30" dy="-30"/>
<feGaussianBlur stdDeviation="49.5"/>
<feColorMatrix type="matrix" values="0 0 0 0 1 0 0 0 0 1 0 0 0 0 1 0 0 0 1 0"/>
<feBlend mode="normal" in2="BackgroundImageFix" result="effect1_dropShadow_2800_35684"/>
<feBlend mode="normal" in="SourceGraphic" in2="effect1_dropShadow_2800_35684" result="shape"/>
</filter>
<filter id="filter7_d_2800_35684" x="1326" y="298" width="448" height="445" filterUnits="userSpaceOnUse" color-interpolation-filters="sRGB">
<feFlood flood-opacity="0" result="BackgroundImageFix"/>
<feColorMatrix in="SourceAlpha" type="matrix" values="0 0 0 0 0 0 0 0 0 0 0 0 0 0 0 0 0 0 127 0" result="hardAlpha"/>
<feOffset dx="25" dy="25"/>
<feGaussianBlur stdDeviation="35"/>
<feColorMatrix type="matrix" values="0 0 0 0 0 0 0 0 0 0 0 0 0 0 0 0 0 0 0.078 0"/>
<feBlend mode="normal" in2="BackgroundImageFix" result="effect1_dropShadow_2800_35684"/>
<feBlend mode="normal" in="SourceGraphic" in2="effect1_dropShadow_2800_35684" result="shape"/>
</filter>
<filter id="filter8_d_2800_35684" x="1076" y="218" width="518" height="289" filterUnits="userSpaceOnUse" color-interpolation-filters="sRGB">
<feFlood flood-opacity="0" result="BackgroundImageFix"/>
<feColorMatrix in="SourceAlpha" type="matrix" values="0 0 0 0 0 0 0 0 0 0 0 0 0 0 0 0 0 0 127 0" result="hardAlpha"/>
<feOffset dx="-30" dy="-30"/>
<feGaussianBlur stdDeviation="49.5"/>
<feColorMatrix type="matrix" values="0 0 0 0 1 0 0 0 0 1 0 0 0 0 1 0 0 0 1 0"/>
<feBlend mode="normal" in2="BackgroundImageFix" result="effect1_dropShadow_2800_35684"/>
<feBlend mode="normal" in="SourceGraphic" in2="effect1_dropShadow_2800_35684" result="shape"/>
</filter>
<filter id="filter9_d_2800_35684" x="1160" y="302" width="460" height="231" filterUnits="userSpaceOnUse" color-interpolation-filters="sRGB">
<feFlood flood-opacity="0" result="BackgroundImageFix"/>
<feColorMatrix in="SourceAlpha" type="matrix" values="0 0 0 0 0 0 0 0 0 0 0 0 0 0 0 0 0 0 127 0" result="hardAlpha"/>
<feOffset dx="25" dy="25"/>
<feGaussianBlur stdDeviation="35"/>
<feColorMatrix type="matrix" values="0 0 0 0 0 0 0 0 0 0 0 0 0 0 0 0 0 0 0.078 0"/>
<feBlend mode="normal" in2="BackgroundImageFix" result="effect1_dropShadow_2800_35684"/>
<feBlend mode="normal" in="SourceGraphic" in2="effect1_dropShadow_2800_35684" result="shape"/>
</filter>
<filter id="filter10_d_2800_35684" x="1271.32" y="639.619" width="289" height="289" filterUnits="userSpaceOnUse" color-interpolation-filters="sRGB">
<feFlood flood-opacity="0" result="BackgroundImageFix"/>
<feColorMatrix in="SourceAlpha" type="matrix" values="0 0 0 0 0 0 0 0 0 0 0 0 0 0 0 0 0 0 127 0" result="hardAlpha"/>
<feOffset dx="-30" dy="-30"/>
<feGaussianBlur stdDeviation="49.5"/>
<feColorMatrix type="matrix" values="0 0 0 0 1 0 0 0 0 1 0 0 0 0 1 0 0 0 1 0"/>
<feBlend mode="normal" in2="BackgroundImageFix" result="effect1_dropShadow_2800_35684"/>
<feBlend mode="normal" in="SourceGraphic" in2="effect1_dropShadow_2800_35684" result="shape"/>
</filter>
<filter id="filter11_d_2800_35684" x="1355.32" y="723.619" width="231" height="231" filterUnits="userSpaceOnUse" color-interpolation-filters="sRGB">
<feFlood flood-opacity="0" result="BackgroundImageFix"/>
<feColorMatrix in="SourceAlpha" type="matrix" values="0 0 0 0 0 0 0 0 0 0 0 0 0 0 0 0 0 0 127 0" result="hardAlpha"/>
<feOffset dx="25" dy="25"/>
<feGaussianBlur stdDeviation="35"/>
<feColorMatrix type="matrix" values="0 0 0 0 0 0 0 0 0 0 0 0 0 0 0 0 0 0 0.078 0"/>
<feBlend mode="normal" in2="BackgroundImageFix" result="effect1_dropShadow_2800_35684"/>
<feBlend mode="normal" in="SourceGraphic" in2="effect1_dropShadow_2800_35684" result="shape"/>
</filter>
<filter id="filter12_d_2800_35684" x="813" y="521" width="528" height="528" filterUnits="userSpaceOnUse" color-interpolation-filters="sRGB">
<feFlood flood-opacity="0" result="BackgroundImageFix"/>
<feColorMatrix in="SourceAlpha" type="matrix" values="0 0 0 0 0 0 0 0 0 0 0 0 0 0 0 0 0 0 127 0" result="hardAlpha"/>
<feOffset dx="-30" dy="-30"/>
<feGaussianBlur stdDeviation="49.5"/>
<feColorMatrix type="matrix" values="0 0 0 0 1 0 0 0 0 1 0 0 0 0 1 0 0 0 1 0"/>
<feBlend mode="normal" in2="BackgroundImageFix" result="effect1_dropShadow_2800_35684"/>
<feBlend mode="normal" in="SourceGraphic" in2="effect1_dropShadow_2800_35684" result="shape"/>
</filter>
<filter id="filter13_d_2800_35684" x="897" y="605" width="470" height="470" filterUnits="userSpaceOnUse" color-interpolation-filters="sRGB">
<feFlood flood-opacity="0" result="BackgroundImageFix"/>
<feColorMatrix in="SourceAlpha" type="matrix" values="0 0 0 0 0 0 0 0 0 0 0 0 0 0 0 0 0 0 127 0" result="hardAlpha"/>
<feOffset dx="25" dy="25"/>
<feGaussianBlur stdDeviation="35"/>
<feColorMatrix type="matrix" values="0 0 0 0 0 0 0 0 0 0 0 0 0 0 0 0 0 0 0.078 0"/>
<feBlend mode="normal" in2="BackgroundImageFix" result="effect1_dropShadow_2800_35684"/>
<feBlend mode="normal" in="SourceGraphic" in2="effect1_dropShadow_2800_35684" result="shape"/>
</filter>
<filter id="filter14_d_2800_35684" x="897" y="935" width="470" height="305" filterUnits="userSpaceOnUse" color-interpolation-filters="sRGB">
<feFlood flood-opacity="0" result="BackgroundImageFix"/>
<feColorMatrix in="SourceAlpha" type="matrix" values="0 0 0 0 0 0 0 0 0 0 0 0 0 0 0 0 0 0 127 0" result="hardAlpha"/>
<feOffset dx="25" dy="25"/>
<feGaussianBlur stdDeviation="35"/>
<feColorMatrix type="matrix" values="0 0 0 0 0 0 0 0 0 0 0 0 0 0 0 0 0 0 0.051 0"/>
<feBlend mode="normal" in2="BackgroundImageFix" result="effect1_dropShadow_2800_35684"/>
<feBlend mode="normal" in="SourceGraphic" in2="effect1_dropShadow_2800_35684" result="shape"/>
</filter>
<filter id="filter15_ii_2800_35684" x="932" y="970" width="350" height="185" filterUnits="userSpaceOnUse" color-interpolation-filters="sRGB">
<feFlood flood-opacity="0" result="BackgroundImageFix"/>
<feBlend mode="normal" in="SourceGraphic" in2="BackgroundImageFix" result="shape"/>
<feColorMatrix in="SourceAlpha" type="matrix" values="0 0 0 0 0 0 0 0 0 0 0 0 0 0 0 0 0 0 127 0" result="hardAlpha"/>
<feOffset dx="-10" dy="10"/>
<feGaussianBlur stdDeviation="15"/>
<feComposite in2="hardAlpha" operator="arithmetic" k2="-1" k3="1"/>
<feColorMatrix type="matrix" values="0 0 0 0 0 0 0 0 0 0 0 0 0 0 0 0 0 0 0.15 0"/>
<feBlend mode="normal" in2="shape" result="effect1_innerShadow_2800_35684"/>
<feColorMatrix in="SourceAlpha" type="matrix" values="0 0 0 0 0 0 0 0 0 0 0 0 0 0 0 0 0 0 127 0" result="hardAlpha"/>
<feOffset dx="10" dy="-10"/>
<feGaussianBlur stdDeviation="15"/>
<feComposite in2="hardAlpha" operator="arithmetic" k2="-1" k3="1"/>
<feColorMatrix type="matrix" values="0 0 0 0 1 0 0 0 0 1 0 0 0 0 1 0 0 0 1 0"/>
<feBlend mode="normal" in2="effect1_innerShadow_2800_35684" result="effect2_innerShadow_2800_35684"/>
</filter>
<filter id="filter16_d_2800_35684" x="880" y="481" width="335" height="335" filterUnits="userSpaceOnUse" color-interpolation-filters="sRGB">
<feFlood flood-opacity="0" result="BackgroundImageFix"/>
<feColorMatrix in="SourceAlpha" type="matrix" values="0 0 0 0 0 0 0 0 0 0 0 0 0 0 0 0 0 0 127 0" result="hardAlpha"/>
<feOffset dx="-30" dy="-30"/>
<feGaussianBlur stdDeviation="49.5"/>
<feColorMatrix type="matrix" values="0 0 0 0 1 0 0 0 0 1 0 0 0 0 1 0 0 0 1 0"/>
<feBlend mode="normal" in2="BackgroundImageFix" result="effect1_dropShadow_2800_35684"/>
<feBlend mode="normal" in="SourceGraphic" in2="effect1_dropShadow_2800_35684" result="shape"/>
</filter>
<filter id="filter17_d_2800_35684" x="964" y="565" width="277" height="277" filterUnits="userSpaceOnUse" color-interpolation-filters="sRGB">
<feFlood flood-opacity="0" result="BackgroundImageFix"/>
<feColorMatrix in="SourceAlpha" type="matrix" values="0 0 0 0 0 0 0 0 0 0 0 0 0 0 0 0 0 0 127 0" result="hardAlpha"/>
<feOffset dx="25" dy="25"/>
<feGaussianBlur stdDeviation="35"/>
<feColorMatrix type="matrix" values="0 0 0 0 0 0 0 0 0 0 0 0 0 0 0 0 0 0 0.078 0"/>
<feBlend mode="normal" in2="BackgroundImageFix" result="effect1_dropShadow_2800_35684"/>
<feBlend mode="normal" in="SourceGraphic" in2="effect1_dropShadow_2800_35684" result="shape"/>
</filter>
<filter id="filter18_d_2800_35684" x="94" y="631" width="311" height="311" filterUnits="userSpaceOnUse" color-interpolation-filters="sRGB">
<feFlood flood-opacity="0" result="BackgroundImageFix"/>
<feColorMatrix in="SourceAlpha" type="matrix" values="0 0 0 0 0 0 0 0 0 0 0 0 0 0 0 0 0 0 127 0" result="hardAlpha"/>
<feOffset dx="-30" dy="-30"/>
<feGaussianBlur stdDeviation="49.5"/>
<feColorMatrix type="matrix" values="0 0 0 0 1 0 0 0 0 1 0 0 0 0 1 0 0 0 1 0"/>
<feBlend mode="normal" in2="BackgroundImageFix" result="effect1_dropShadow_2800_35684"/>
<feBlend mode="normal" in="SourceGraphic" in2="effect1_dropShadow_2800_35684" result="shape"/>
</filter>
<filter id="filter19_d_2800_35684" x="178" y="715" width="253" height="253" filterUnits="userSpaceOnUse" color-interpolation-filters="sRGB">
<feFlood flood-opacity="0" result="BackgroundImageFix"/>
<feColorMatrix in="SourceAlpha" type="matrix" values="0 0 0 0 0 0 0 0 0 0 0 0 0 0 0 0 0 0 127 0" result="hardAlpha"/>
<feOffset dx="25" dy="25"/>
<feGaussianBlur stdDeviation="35"/>
<feColorMatrix type="matrix" values="0 0 0 0 0 0 0 0 0 0 0 0 0 0 0 0 0 0 0.078 0"/>
<feBlend mode="normal" in2="BackgroundImageFix" result="effect1_dropShadow_2800_35684"/>
<feBlend mode="normal" in="SourceGraphic" in2="effect1_dropShadow_2800_35684" result="shape"/>
</filter>
<filter id="filter20_d_2800_35684" x="1261" y="-67" width="311" height="311" filterUnits="userSpaceOnUse" color-interpolation-filters="sRGB">
<feFlood flood-opacity="0" result="BackgroundImageFix"/>
<feColorMatrix in="SourceAlpha" type="matrix" values="0 0 0 0 0 0 0 0 0 0 0 0 0 0 0 0 0 0 127 0" result="hardAlpha"/>
<feOffset dx="-30" dy="-30"/>
<feGaussianBlur stdDeviation="49.5"/>
<feColorMatrix type="matrix" values="0 0 0 0 1 0 0 0 0 1 0 0 0 0 1 0 0 0 1 0"/>
<feBlend mode="normal" in2="BackgroundImageFix" result="effect1_dropShadow_2800_35684"/>
<feBlend mode="normal" in="SourceGraphic" in2="effect1_dropShadow_2800_35684" result="shape"/>
</filter>
<filter id="filter21_d_2800_35684" x="1345" y="17" width="253" height="253" filterUnits="userSpaceOnUse" color-interpolation-filters="sRGB">
<feFlood flood-opacity="0" result="BackgroundImageFix"/>
<feColorMatrix in="SourceAlpha" type="matrix" values="0 0 0 0 0 0 0 0 0 0 0 0 0 0 0 0 0 0 127 0" result="hardAlpha"/>
<feOffset dx="25" dy="25"/>
<feGaussianBlur stdDeviation="35"/>
<feColorMatrix type="matrix" values="0 0 0 0 0 0 0 0 0 0 0 0 0 0 0 0 0 0 0.078 0"/>
<feBlend mode="normal" in2="BackgroundImageFix" result="effect1_dropShadow_2800_35684"/>
<feBlend mode="normal" in="SourceGraphic" in2="effect1_dropShadow_2800_35684" result="shape"/>
</filter>
<filter id="filter22_d_2800_35684" x="315" y="688" width="531" height="545" filterUnits="userSpaceOnUse" color-interpolation-filters="sRGB">
<feFlood flood-opacity="0" result="BackgroundImageFix"/>
<feColorMatrix in="SourceAlpha" type="matrix" values="0 0 0 0 0 0 0 0 0 0 0 0 0 0 0 0 0 0 127 0" result="hardAlpha"/>
<feOffset dx="-30" dy="-30"/>
<feGaussianBlur stdDeviation="49.5"/>
<feColorMatrix type="matrix" values="0 0 0 0 1 0 0 0 0 1 0 0 0 0 1 0 0 0 1 0"/>
<feBlend mode="normal" in2="BackgroundImageFix" result="effect1_dropShadow_2800_35684"/>
<feBlend mode="normal" in="SourceGraphic" in2="effect1_dropShadow_2800_35684" result="shape"/>
</filter>
<filter id="filter23_d_2800_35684" x="399" y="772" width="473" height="487" filterUnits="userSpaceOnUse" color-interpolation-filters="sRGB">
<feFlood flood-opacity="0" result="BackgroundImageFix"/>
<feColorMatrix in="SourceAlpha" type="matrix" values="0 0 0 0 0 0 0 0 0 0 0 0 0 0 0 0 0 0 127 0" result="hardAlpha"/>
<feOffset dx="25" dy="25"/>
<feGaussianBlur stdDeviation="35"/>
<feColorMatrix type="matrix" values="0 0 0 0 0 0 0 0 0 0 0 0 0 0 0 0 0 0 0.078 0"/>
<feBlend mode="normal" in2="BackgroundImageFix" result="effect1_dropShadow_2800_35684"/>
<feBlend mode="normal" in="SourceGraphic" in2="effect1_dropShadow_2800_35684" result="shape"/>
</filter>
<filter id="filter24_d_2800_35684" x="163" y="162" width="310" height="309" filterUnits="userSpaceOnUse" color-interpolation-filters="sRGB">
<feFlood flood-opacity="0" result="BackgroundImageFix"/>
<feColorMatrix in="SourceAlpha" type="matrix" values="0 0 0 0 0 0 0 0 0 0 0 0 0 0 0 0 0 0 127 0" result="hardAlpha"/>
<feOffset dx="-30" dy="-30"/>
<feGaussianBlur stdDeviation="49.5"/>
<feColorMatrix type="matrix" values="0 0 0 0 1 0 0 0 0 1 0 0 0 0 1 0 0 0 1 0"/>
<feBlend mode="normal" in2="BackgroundImageFix" result="effect1_dropShadow_2800_35684"/>
<feBlend mode="normal" in="SourceGraphic" in2="effect1_dropShadow_2800_35684" result="shape"/>
</filter>
<filter id="filter25_d_2800_35684" x="247" y="246" width="252" height="251" filterUnits="userSpaceOnUse" color-interpolation-filters="sRGB">
<feFlood flood-opacity="0" result="BackgroundImageFix"/>
<feColorMatrix in="SourceAlpha" type="matrix" values="0 0 0 0 0 0 0 0 0 0 0 0 0 0 0 0 0 0 127 0" result="hardAlpha"/>
<feOffset dx="25" dy="25"/>
<feGaussianBlur stdDeviation="35"/>
<feColorMatrix type="matrix" values="0 0 0 0 0 0 0 0 0 0 0 0 0 0 0 0 0 0 0.078 0"/>
<feBlend mode="normal" in2="BackgroundImageFix" result="effect1_dropShadow_2800_35684"/>
<feBlend mode="normal" in="SourceGraphic" in2="effect1_dropShadow_2800_35684" result="shape"/>
</filter>
<filter id="filter26_d_2800_35684" x="315" y="191" width="696" height="695" filterUnits="userSpaceOnUse" color-interpolation-filters="sRGB">
<feFlood flood-opacity="0" result="BackgroundImageFix"/>
<feColorMatrix in="SourceAlpha" type="matrix" values="0 0 0 0 0 0 0 0 0 0 0 0 0 0 0 0 0 0 127 0" result="hardAlpha"/>
<feOffset dx="-30" dy="-30"/>
<feGaussianBlur stdDeviation="49.5"/>
<feColorMatrix type="matrix" values="0 0 0 0 1 0 0 0 0 1 0 0 0 0 1 0 0 0 1 0"/>
<feBlend mode="normal" in2="BackgroundImageFix" result="effect1_dropShadow_2800_35684"/>
<feBlend mode="normal" in="SourceGraphic" in2="effect1_dropShadow_2800_35684" result="shape"/>
</filter>
<filter id="filter27_d_2800_35684" x="399" y="275" width="638" height="637" filterUnits="userSpaceOnUse" color-interpolation-filters="sRGB">
<feFlood flood-opacity="0" result="BackgroundImageFix"/>
<feColorMatrix in="SourceAlpha" type="matrix" values="0 0 0 0 0 0 0 0 0 0 0 0 0 0 0 0 0 0 127 0" result="hardAlpha"/>
<feOffset dx="25" dy="25"/>
<feGaussianBlur stdDeviation="35"/>
<feColorMatrix type="matrix" values="0 0 0 0 0 0 0 0 0 0 0 0 0 0 0 0 0 0 0.078 0"/>
<feBlend mode="normal" in2="BackgroundImageFix" result="effect1_dropShadow_2800_35684"/>
<feBlend mode="normal" in="SourceGraphic" in2="effect1_dropShadow_2800_35684" result="shape"/>
</filter>
<filter id="filter28_d_2800_35684" x="648" y="688" width="363" height="361" filterUnits="userSpaceOnUse" color-interpolation-filters="sRGB">
<feFlood flood-opacity="0" result="BackgroundImageFix"/>
<feColorMatrix in="SourceAlpha" type="matrix" values="0 0 0 0 0 0 0 0 0 0 0 0 0 0 0 0 0 0 127 0" result="hardAlpha"/>
<feOffset dx="-30" dy="-30"/>
<feGaussianBlur stdDeviation="49.5"/>
<feColorMatrix type="matrix" values="0 0 0 0 1 0 0 0 0 1 0 0 0 0 1 0 0 0 1 0"/>
<feBlend mode="normal" in2="BackgroundImageFix" result="effect1_dropShadow_2800_35684"/>
<feBlend mode="normal" in="SourceGraphic" in2="effect1_dropShadow_2800_35684" result="shape"/>
</filter>
<filter id="filter29_d_2800_35684" x="732" y="772" width="305" height="303" filterUnits="userSpaceOnUse" color-interpolation-filters="sRGB">
<feFlood flood-opacity="0" result="BackgroundImageFix"/>
<feColorMatrix in="SourceAlpha" type="matrix" values="0 0 0 0 0 0 0 0 0 0 0 0 0 0 0 0 0 0 127 0" result="hardAlpha"/>
<feOffset dx="25" dy="25"/>
<feGaussianBlur stdDeviation="35"/>
<feColorMatrix type="matrix" values="0 0 0 0 0 0 0 0 0 0 0 0 0 0 0 0 0 0 0.078 0"/>
<feBlend mode="normal" in2="BackgroundImageFix" result="effect1_dropShadow_2800_35684"/>
<feBlend mode="normal" in="SourceGraphic" in2="effect1_dropShadow_2800_35684" result="shape"/>
</filter>
<clipPath id="clip0_2800_35684">
<rect width="2920" height="1251" fill="white" transform="translate(-740)"/>
</clipPath>
</defs>
</svg>
