<svg width="451" height="450" viewBox="0 0 451 450" fill="none" xmlns="http://www.w3.org/2000/svg">
<g style="mix-blend-mode:multiply">
<path d="M350.002 0H400.002C400.002 27.615 377.617 50 350.002 50V0Z" fill="#00A783"/>
<path d="M50.002 175.001H100.002C100.002 202.616 77.617 225.001 50.002 225.001V175.001Z" fill="#00A783"/>
<path d="M275.002 275V350C233.577 350 200.002 316.425 200.002 275H275.002Z" fill="#00A783"/>
<path d="M450 225C450 247.98 445.475 270.735 436.68 291.97C427.885 313.2 414.995 332.495 398.745 348.745C382.495 364.995 363.205 377.885 341.97 386.68C320.735 395.475 297.98 400 275 400V350.135C291.435 350.135 307.705 346.9 322.89 340.61C338.07 334.32 351.865 325.105 363.485 313.485C375.105 301.865 384.325 288.07 390.61 272.89C396.9 257.71 400.135 241.435 400.135 225H450Z" fill="#FAB526"/>
<path d="M100 175C100 152.02 104.525 129.26 113.32 108.03C122.115 86.8 135.005 67.505 151.255 51.255C167.505 35.005 186.795 22.115 208.03 13.32C229.26 4.525 252.02 0 275 0V49.865C258.565 49.865 242.295 53.1 227.11 59.39C211.93 65.68 198.135 74.895 186.515 86.515C174.895 98.135 165.675 111.93 159.39 127.115C153.1 142.295 149.865 158.57 149.865 175H100Z" fill="#FAB526"/>
<path d="M150.002 299H75.002V375H150.002V299Z" fill="#F3A0B2"/>
<path d="M150.002 375H75.002C75.002 416.42 108.582 450 150.002 450V375Z" fill="#00A1DF"/>
<path d="M150 200H200V250L75 375L25 325L150 200Z" fill="#E4003A"/>
<path d="M25 325.001L75 375.001L50 400.001L0 350.001L25 325.001Z" fill="#00A783"/>
<path d="M100.002 249.999L107.677 257.674C117.247 267.244 117.247 282.754 107.677 292.324L75.002 324.999L50.002 299.999L100.002 249.999Z" fill="#F3A0B2"/>
<path d="M150 249.999L175 274.999L150 299.999C136.195 286.194 136.195 263.809 150 249.999Z" fill="#F3A0B2"/>
<path d="M150 200H200V250L150 200Z" fill="#FAB526"/>
<path d="M225.673 212.39L224.998 212.5L225.673 212.61C257.213 217.82 281.953 242.655 287.138 274.32L287.248 275L287.358 274.32C292.548 242.655 317.283 217.815 348.823 212.61L349.498 212.5L348.823 212.39C317.283 207.18 292.543 182.345 287.358 150.68L287.248 150L287.138 150.68C281.953 182.345 257.213 207.16 225.673 212.39Z" fill="#00A1DF"/>
<path d="M287.502 25.001C239.247 25.001 200.002 63.731 200.002 111.351V114.776V200.001C227.967 196.971 249.792 173.521 249.792 145.136V124.851V111.351C249.792 90.801 266.677 75.001 287.502 75.001C308.327 75.001 325.212 90.866 325.212 111.351V114.776V145.071C325.212 173.526 346.972 196.906 375.002 199.936V130.846V111.351C375.002 63.731 335.757 25.001 287.502 25.001Z" fill="#E4003A"/>
<path d="M412.502 399.999C391.787 399.999 375.002 383.209 375.002 362.499C375.002 341.789 391.787 324.999 412.502 324.999C433.217 324.999 450.002 341.789 450.002 362.499C450.012 383.209 433.212 399.999 412.502 399.999Z" fill="#E4003A"/>
<path d="M200 400C186.19 400 175 388.81 175 375C175 361.19 186.19 350 200 350C213.81 350 225 361.19 225 375C225.005 388.81 213.81 400 200 400Z" fill="#FAB526"/>
<path d="M112.502 100.001C91.787 100.001 75.002 83.211 75.002 62.501C75.002 41.791 91.787 25.001 112.502 25.001C133.212 25.001 150.002 41.791 150.002 62.501C150.012 83.216 133.212 100.001 112.502 100.001Z" fill="#00A1DF"/>
<path d="M437.8 25.001C416.955 25.001 400 41.991 400 62.876V200.001C428.085 196.911 450 173.006 450 144.061V25.071H437.8V25.001Z" fill="#E4003A"/>
<path d="M287.5 125.001C280.595 125.001 275 119.406 275 112.501C275 105.596 280.595 100.001 287.5 100.001C294.405 100.001 300 105.596 300 112.501C300.005 119.406 294.405 125.001 287.5 125.001Z" fill="#F3A0B2"/>
<path d="M350 299.999C336.19 299.999 325 288.809 325 274.999C325 261.189 336.19 249.999 350 249.999C363.81 249.999 375 261.189 375 274.999C375.005 288.809 363.81 299.999 350 299.999Z" fill="#F3A0B2"/>
</g>
</svg>
