<svg width="130" height="131" viewBox="0 0 130 131" fill="none" xmlns="http://www.w3.org/2000/svg">
<g id="&#208;&#160;&#208;&#176;&#208;&#183;&#208;&#178;&#208;&#184;&#208;&#178;&#208;&#176;&#209;&#142;&#209;&#137;&#208;&#184;&#208;&#181; &#208;&#183;&#208;&#176;&#208;&#189;&#209;&#143;&#209;&#130;&#208;&#184;&#209;&#143;">
<g id="Group 55648">
<g id="Group 55632">
<path id="Subtract" fill-rule="evenodd" clip-rule="evenodd" d="M89.3404 79.4992C86.4044 82.5853 84.1922 86.4601 84.1922 90.7197V90.9951H45.8073V90.7198C45.8073 86.4602 43.595 82.5854 40.659 79.4992C34.9266 73.4739 31.4082 65.3224 31.4082 56.3493C31.4082 37.7972 46.4476 22.7578 64.9997 22.7578C83.5517 22.7578 98.5911 37.7972 98.5911 56.3493C98.5911 65.3224 95.0728 73.4738 89.3404 79.4992ZM45.8073 93.9951V96.2039C45.8073 96.8116 45.8489 97.4096 45.9294 97.9951H84.0701C84.1506 97.4096 84.1922 96.8116 84.1922 96.2039V93.9951H45.8073ZM83.283 100.995H46.7165C48.6254 105.82 53.3323 109.233 58.8362 109.233H71.1633C76.6672 109.233 81.374 105.82 83.283 100.995Z" fill="#16A085"/>
</g>
<path id="Subtract_2" fill-rule="evenodd" clip-rule="evenodd" d="M61.921 33.3716C60.8164 33.3716 59.921 34.267 59.921 35.3716V38.0109C58.8947 38.3278 57.9095 38.7382 56.9754 39.2322L55.1088 37.3656C54.3277 36.5845 53.0614 36.5845 52.2803 37.3656L47.9261 41.7199C47.145 42.5009 47.145 43.7672 47.9261 44.5483L49.7926 46.4148C49.2986 47.349 48.8881 48.3343 48.5712 49.3606H45.9327C44.8281 49.3606 43.9327 50.256 43.9327 51.3606V57.5184C43.9327 58.623 44.8281 59.5184 45.9327 59.5184H48.5713C48.8883 60.545 49.2989 61.5306 49.7931 62.4651L47.9269 64.3313C47.1458 65.1124 47.1458 66.3787 47.9269 67.1597L52.2812 71.514C53.0622 72.2951 54.3285 72.2951 55.1096 71.514L56.9764 69.6472C57.9103 70.1409 58.8951 70.5512 59.921 70.8679V73.5074C59.921 74.612 60.8164 75.5074 61.921 75.5074H68.0788C69.1834 75.5074 70.0788 74.612 70.0788 73.5074V70.8678C71.105 70.5509 72.0902 70.1405 73.0243 69.6465L74.8922 71.5144C75.6732 72.2954 76.9396 72.2954 77.7206 71.5144L82.0749 67.1601C82.8559 66.3791 82.8559 65.1128 82.0749 64.3317L80.2069 62.4638C80.7008 61.5297 81.1112 60.5446 81.4281 59.5184H84.0685C85.1731 59.5184 86.0685 58.623 86.0685 57.5184V51.3606C86.0685 50.256 85.1731 49.3606 84.0685 49.3606H81.4281C81.1114 48.3348 80.7012 47.35 80.2075 46.4161L82.0757 44.5479C82.8567 43.7668 82.8567 42.5005 82.0757 41.7195L77.7214 37.3652C76.9404 36.5841 75.6741 36.5841 74.893 37.3652L73.0253 39.2329C72.0909 38.7387 71.1054 38.3281 70.0788 38.0111V35.3716C70.0788 34.267 69.1834 33.3716 68.0788 33.3716H61.921ZM64.9997 63.3424C69.9166 63.3424 73.9026 59.3564 73.9026 54.4394C73.9026 49.5225 69.9166 45.5365 64.9997 45.5365C60.0827 45.5365 56.0967 49.5225 56.0967 54.4394C56.0967 59.3564 60.0827 63.3424 64.9997 63.3424Z" fill="white"/>
</g>
</g>
</svg>
