<svg width="130" height="131" viewBox="0 0 130 131" fill="none" xmlns="http://www.w3.org/2000/svg">
<g id="&#208;&#159;&#209;&#128;&#208;&#190;&#208;&#180;&#208;&#187;&#209;&#145;&#208;&#189;&#208;&#186;&#208;&#176;">
<g id="Group 55671">
<path id="Rectangle 957" d="M11.9502 63.7632L78.7491 25.1968L121.953 47.2231L55.1538 85.7894L11.9502 63.7632Z" fill="#8FCB2F" stroke="#8FCB2F" stroke-width="6" stroke-linejoin="round"/>
<path id="Vector 149" d="M120.6 46.7954L54.6028 86.5752L11.9135 63.8439C11.9135 63.8439 9 65.1655 9 73.2272C9 81.2888 11.9135 83.932 11.9135 83.932L54.6028 106.795L120.6 67.0157" stroke="#8FCB2F" stroke-width="6" stroke-linecap="round"/>
<path id="Vector 150" d="M31.0589 81.5957L43.8005 88.0555C36.5196 91.4649 37.2476 96.1303 35.2454 104.205C34.457 107.384 30.3163 114.24 27.3415 118.392C26.8613 119.062 25.8406 118.858 25.628 118.062L23.603 110.476C23.4904 110.054 23.1175 109.754 22.6816 109.735L13.8101 109.337C12.9203 109.297 12.5945 108.288 13.2966 107.74C14.7699 106.59 16.8056 104.911 18.6813 102.77C22.1398 98.8219 21.2297 95.0537 22.8679 89.8499C24.732 83.9284 28.8139 82.6125 31.0589 81.5957Z" fill="#8FCB2F"/>
</g>
</g>
</svg>
