<svg width="130" height="131" viewBox="0 0 130 131" fill="none" xmlns="http://www.w3.org/2000/svg">
<g id="&#208;&#152;&#208;&#179;&#209;&#128;&#209;&#139; &#208;&#184; &#208;&#190;&#208;&#177;&#209;&#137;&#208;&#181;&#208;&#189;&#208;&#184;&#208;&#181;">
<path id="Subtract" fill-rule="evenodd" clip-rule="evenodd" d="M86.4569 90.0314V90.0311H87.7041C91.0178 90.0311 93.7041 92.7174 93.7041 96.0311V99.6311H39.2093V96.0311C39.2093 92.7357 41.8661 90.0607 45.1546 90.0314H86.4569ZM39.2093 101.631V107.061H93.7041V101.631H39.2093ZM84.9214 88.0314C88.3298 80.4717 92.7674 66.5127 90.7129 54.0331C88.3589 39.7348 77.4382 32.0119 72.2721 29.9377C70.7244 26.8927 67.0798 20.4452 64.8826 19.0154C62.6854 17.5856 62.8772 25.7012 63.2477 29.9377C61.6129 30.4894 57.1923 32.6121 52.5886 36.6898C46.8339 41.7869 36.6325 52.7091 36.3709 54.0331C36.1093 55.357 36.5671 58.6668 37.0902 59.3288C37.6134 59.9907 41.21 62.8372 42.1909 62.8372C42.5381 62.8372 43.5322 62.3315 44.8168 61.678C47.1622 60.4849 50.476 58.7992 52.5886 58.7992C54.7667 58.7992 56.7707 59.4161 58.4266 59.9258C59.2565 60.1813 59.9989 60.4098 60.632 60.5203C62.1491 60.7851 63.5311 60.6306 64.0325 60.5203C61.1115 63.7639 54.5896 71.3632 51.8692 75.8116C49.7914 79.2093 48.4206 84.3681 47.7044 88.0314H84.9214Z" fill="#EFB118"/>
</g>
</svg>
