<svg width="130" height="131" viewBox="0 0 130 131" fill="none" xmlns="http://www.w3.org/2000/svg">
<g id="&#208;&#159;&#209;&#128;&#208;&#176;&#208;&#183;&#208;&#180;&#208;&#189;&#208;&#184;&#208;&#186;&#208;&#184;">
<g id="Group 55660">
<g id="Group 55643">
<path id="Union" fill-rule="evenodd" clip-rule="evenodd" d="M76.7252 100.947C94.136 94.1982 101.47 64.8962 96.2039 45.3425C90.7282 25.0114 70.942 12.6631 52.01 17.7619C33.078 22.8607 22.1695 43.4758 27.6451 63.8069C32.9114 83.3607 53.9696 105.016 72.4146 102.108L70.7398 105.272C69.925 106.812 71.3038 108.699 72.925 108.262L79.3747 106.525C80.9959 106.088 81.2408 103.765 79.7629 102.842L76.7252 100.947Z" fill="#BB6BD9"/>
<path id="Vector 136" d="M76.7023 101.132C87.7833 101.277 80.9312 111.505 86.0044 112.071" stroke="#BB6BD9" stroke-width="2" stroke-linecap="round"/>
<path id="Star 6" d="M56.9906 53.9168L51.4875 57.201L49.8923 63.4078L45.0682 59.189L38.6722 59.5899L41.1939 53.6982L38.8361 47.7391L45.2186 48.3168L50.1575 44.233L51.5804 50.4816L56.9906 53.9168Z" fill="white"/>
<path id="Star 7" d="M82.757 50.4872L82.4497 58.5539L87.9113 64.4985L80.1444 66.6989L76.1786 73.7302L71.6857 67.0234L63.773 65.4245L68.7632 59.079L67.8387 51.0595L75.4157 53.8446L82.757 50.4872Z" fill="white"/>
<path id="Star 8" d="M64.2933 76.0391L64.1788 79.0462L66.2148 81.2622L63.3194 82.0824L61.8411 84.7036L60.1662 82.2034L57.2165 81.6074L59.0768 79.2419L58.7321 76.2524L61.5567 77.2906L64.2933 76.0391Z" fill="white"/>
<path id="Star 9" d="M67.2435 33.852L67.129 36.8592L69.165 39.0751L66.2696 39.8954L64.7912 42.5165L63.1164 40.0164L60.1667 39.4203L62.027 37.0549L61.6823 34.0654L64.5069 35.1036L67.2435 33.852Z" fill="white"/>
</g>
</g>
</g>
</svg>
