<svg width="130" height="131" viewBox="0 0 130 131" fill="none" xmlns="http://www.w3.org/2000/svg">
<g id="&#208;&#156;&#208;&#176;&#209;&#129;&#209;&#130;&#208;&#181;&#209;&#128;-&#208;&#186;&#208;&#187;&#208;&#176;&#209;&#129;&#209;&#129;&#209;&#139;">
<g id="Group 55651">
<g id="Union">
<path fill-rule="evenodd" clip-rule="evenodd" d="M48.6456 69.7167C35.9424 67.2099 24.696 59.8988 17.249 49.3065L75.5026 63.4331C81.1844 64.811 87.0101 61.8231 92.5249 59.8819C95.3135 58.9004 98.4171 58.7208 101.488 59.5437C109.592 61.7151 114.401 70.0449 112.23 78.1489C110.059 86.2529 101.729 91.0622 93.6247 88.8907C89.33 87.74 85.9606 84.8597 84.0651 81.2C82.6693 78.505 80.5282 76.0086 77.5506 75.421L48.6456 69.7167ZM95.7124 81.0993C99.5133 82.1178 103.42 79.8619 104.439 76.061C105.457 72.26 103.202 68.3532 99.4006 67.3347C95.5997 66.3163 91.6928 68.5718 90.6743 72.3728C89.6558 76.1737 91.9114 80.0809 95.7124 81.0993Z" fill="#4AABE2"/>
</g>
<g id="Union_2">
<path fill-rule="evenodd" clip-rule="evenodd" d="M68.7218 49.6408C66.2149 36.9376 58.9039 25.6912 48.3115 18.2442L62.4382 76.4978C63.816 82.1796 60.8282 88.0053 58.887 93.5202C57.9054 96.3087 57.7258 99.4123 58.5487 102.483C60.7201 110.587 69.05 115.397 77.154 113.225C85.258 111.054 90.0672 102.724 87.8957 94.6199C86.745 90.3252 83.8647 86.9558 80.205 85.0604C77.51 83.6645 75.0136 81.5235 74.426 78.5458L68.7218 49.6408ZM80.1043 96.7076C81.1228 100.509 78.8669 104.416 75.066 105.434C71.265 106.452 67.3582 104.197 66.3397 100.396C65.3213 96.5949 67.5768 92.688 71.3778 91.6695C75.1788 90.6511 79.0859 92.9067 80.1043 96.7076Z" fill="#4AABE2"/>
</g>
</g>
</g>
</svg>
