<svg width="130" height="131" viewBox="0 0 130 131" fill="none" xmlns="http://www.w3.org/2000/svg">
<g id="&#208;&#154;&#208;&#176;&#208;&#189;&#208;&#184;&#208;&#186;&#209;&#131;&#208;&#187;&#209;&#139;">
<g id="Group 55662">
<g id="Rectangle 922">
<path d="M57.8096 31.9232L99.0713 20.8672L83.9685 47.0261L57.8096 31.9232Z" fill="#E74C3C"/>
<path d="M57.8096 31.9232L99.0713 20.8672L83.9685 47.0261L57.8096 31.9232Z" stroke="#E74C3C" stroke-width="3" stroke-linejoin="round"/>
</g>
<g id="Rectangle 924">
<path d="M110.127 62.1292L57.9219 92.1399L83.9682 47.0264L110.127 62.1292Z" fill="#E74C3C"/>
<path d="M110.127 62.1292L57.9219 92.1399L83.9682 47.0264L110.127 62.1292Z" stroke="#E74C3C" stroke-width="3" stroke-linejoin="round"/>
</g>
<path id="Rectangle 923" d="M110.128 62.1289L99.0716 20.8672L83.9688 47.0261L110.128 62.1289Z" stroke="#E74C3C" stroke-width="3" stroke-linejoin="round"/>
<path id="Rectangle 925" d="M57.8105 31.9233L57.9231 92.1397L83.9694 47.0262L57.8105 31.9233Z" stroke="#E74C3C" stroke-width="3" stroke-linejoin="round"/>
<path id="Vector 127" d="M57.7827 32.0285C56.5196 35.2737 53.1098 41.6873 49.5752 41.3808C46.0405 41.0743 45.1003 37.9943 45.0719 36.4926" stroke="#E74C3C" stroke-width="3" stroke-linecap="round"/>
<path id="Vector 128" d="M110.048 62.2039C107.87 64.9203 104.02 71.0801 106.053 73.9879C108.086 76.8958 111.223 76.1701 112.538 75.4437" stroke="#E74C3C" stroke-width="3" stroke-linecap="round"/>
<path id="Vector 129" d="M58.9158 90.9951C49.8699 101.412 30.9931 75.3092 20.4072 111.124" stroke="#E74C3C" stroke-width="3" stroke-linecap="round"/>
<ellipse id="Ellipse 1514" cx="18.5256" cy="101.119" rx="5.3103" ry="3.58666" transform="rotate(18.5234 18.5256 101.119)" fill="#E74C3C"/>
<ellipse id="Ellipse 1516" cx="28.9853" cy="88.4426" rx="5.3103" ry="3.58666" transform="rotate(53.5979 28.9853 88.4426)" fill="#E74C3C"/>
<ellipse id="Ellipse 1515" cx="28.5959" cy="104.493" rx="5.3103" ry="3.58666" transform="rotate(18.5234 28.5959 104.493)" fill="#E74C3C"/>
<ellipse id="Ellipse 1517" cx="35.289" cy="96.9905" rx="5.3103" ry="3.58666" transform="rotate(53.5979 35.289 96.9905)" fill="#E74C3C"/>
</g>
</g>
</svg>
